<svg width="86" height="86" viewBox="0 0 86 86" fill="none" xmlns="http://www.w3.org/2000/svg">
<path d="M43 48.375C45.9685 48.375 48.375 45.9685 48.375 43C48.375 40.0315 45.9685 37.625 43 37.625C40.0315 37.625 37.625 40.0315 37.625 43C37.625 45.9685 40.0315 48.375 43 48.375Z" stroke="#2E87EF" stroke-width="4" stroke-linecap="round" stroke-linejoin="round"/>
<path d="M43 83.3125C51.1635 83.3125 57.7812 65.264 57.7812 43C57.7812 20.736 51.1635 2.6875 43 2.6875C34.8365 2.6875 28.2188 20.736 28.2188 43C28.2188 65.264 34.8365 83.3125 43 83.3125Z" stroke="white" stroke-width="4" stroke-linecap="round" stroke-linejoin="round"/>
<path d="M77.9094 63.1574C81.9911 56.0879 69.67 41.3326 50.3894 30.2006C31.1088 19.0686 12.1699 15.7754 8.08814 22.8449C4.00641 29.9145 16.3275 44.6698 35.6081 55.8018C54.8887 66.9337 73.8277 70.227 77.9094 63.1574Z" stroke="white" stroke-width="4" stroke-linecap="round" stroke-linejoin="round"/>
<path d="M8.09012 63.1551C12.1719 70.2246 31.1108 66.9314 50.3914 55.7994C69.672 44.6674 81.9931 29.9121 77.9114 22.8426C73.8296 15.773 54.8907 19.0663 35.6101 30.1982C16.3295 41.3302 4.00839 56.0855 8.09012 63.1551Z" stroke="white" stroke-width="4" stroke-linecap="round" stroke-linejoin="round"/>
</svg>
