<svg width="55" height="56" viewBox="0 0 55 56" fill="none" xmlns="http://www.w3.org/2000/svg">
<path d="M14.5009 47.4998L3.26892 36.2668L3.63292 36.6308" stroke="white" stroke-width="2.72682" stroke-miterlimit="10" stroke-linecap="round"/>
<path d="M26.5723 22.4285L37.782 33.6391L36.988 32.8452" stroke="#2E87EF" stroke-width="2.72682" stroke-miterlimit="10" stroke-linecap="round"/>
<path d="M28.4294 33.5714L17.1788 22.3218L17.4509 22.5938" stroke="#2E87EF" stroke-width="2.72682" stroke-miterlimit="10" stroke-linecap="round"/>
<path d="M51.4388 19.4367L51.7351 19.732L40.5012 8.5" stroke="white" stroke-width="2.72682" stroke-miterlimit="10" stroke-linecap="round"/>
<path d="M23.7867 38.6516C25.6255 38.9814 27.4901 39.1458 29.3582 39.1428C31.8209 39.1428 34.1827 38.1645 35.9241 36.4231C37.6656 34.6817 38.6439 32.3198 38.6439 29.8571C38.6439 20.5714 34.9296 16.8571 34.9296 7.57142C34.9321 5.55499 35.6018 3.59605 36.8341 2" stroke="white" stroke-width="2.72682" stroke-miterlimit="10" stroke-linecap="round"/>
<path d="M12.6438 35.9243C10.8053 35.5923 8.94065 35.4264 7.0724 35.4285C5.05743 35.4343 3.1001 36.1015 1.50098 37.3274" stroke="white" stroke-width="2.72682" stroke-miterlimit="10" stroke-linecap="round"/>
<path d="M31.2153 17.3484C29.3765 17.0187 27.5119 16.8543 25.6439 16.8572C23.1811 16.8572 20.8193 17.8355 19.0779 19.5769C17.3365 21.3183 16.3582 23.6802 16.3582 26.1429C16.3582 35.4286 20.0724 39.1429 20.0724 48.4286C20.0699 50.445 19.4003 52.404 18.1679 54" stroke="white" stroke-width="2.72682" stroke-miterlimit="10" stroke-linecap="round"/>
<path d="M42.3586 20.0754C44.1972 20.4074 46.0618 20.5734 47.9301 20.5713C49.945 20.5654 51.9024 19.8983 53.5015 18.6724" stroke="white" stroke-width="2.72682" stroke-miterlimit="10" stroke-linecap="round"/>
</svg>
