<svg width="86" height="86" viewBox="0 0 86 86" fill="none" xmlns="http://www.w3.org/2000/svg">
<path d="M33.187 57.02C35.5097 57.02 37.3926 55.1371 37.3926 52.8145C37.3926 50.4918 35.5097 48.6089 33.187 48.6089C30.8643 48.6089 28.9814 50.4918 28.9814 52.8145C28.9814 55.1371 30.8643 57.02 33.187 57.02Z" stroke="#2E87EF" stroke-width="4" stroke-miterlimit="10" stroke-linecap="round"/>
<path d="M33.9997 34.5538C36.6475 34.5538 38.794 32.4073 38.794 29.7594C38.794 27.1116 36.6475 24.9651 33.9997 24.9651C31.3518 24.9651 29.2053 27.1116 29.2053 29.7594C29.2053 32.4073 31.3518 34.5538 33.9997 34.5538Z" stroke="#2E87EF" stroke-width="4" stroke-miterlimit="10" stroke-linecap="round"/>
<path d="M26.9053 4.14624L30.658 13.205" stroke="white" stroke-width="4" stroke-miterlimit="10" stroke-linecap="round"/>
<path d="M21.7253 6.29108L32.0865 2" stroke="white" stroke-width="4" stroke-miterlimit="10" stroke-linecap="round"/>
<path d="M4.14575 26.9053L13.2045 30.658" stroke="white" stroke-width="4" stroke-miterlimit="10" stroke-linecap="round"/>
<path d="M2 32.0865L6.29108 21.7253" stroke="white" stroke-width="4" stroke-miterlimit="10" stroke-linecap="round"/>
<path d="M4.14575 59.0948L13.2031 55.342" stroke="white" stroke-width="4" stroke-miterlimit="10" stroke-linecap="round"/>
<path d="M6.29108 64.2744L2 53.9133" stroke="white" stroke-width="4" stroke-miterlimit="10" stroke-linecap="round"/>
<path d="M26.9053 81.8542L30.658 72.7954" stroke="white" stroke-width="4" stroke-miterlimit="10" stroke-linecap="round"/>
<path d="M32.0865 84.0001L21.7253 79.709" stroke="white" stroke-width="4" stroke-miterlimit="10" stroke-linecap="round"/>
<path d="M59.0948 81.854L55.342 72.7966" stroke="white" stroke-width="4" stroke-miterlimit="10" stroke-linecap="round"/>
<path d="M64.2749 79.709L53.9138 84.0001" stroke="white" stroke-width="4" stroke-miterlimit="10" stroke-linecap="round"/>
<path d="M81.854 59.0948L72.7952 55.342" stroke="white" stroke-width="4" stroke-miterlimit="10" stroke-linecap="round"/>
<path d="M84.0006 53.9133L79.7095 64.2744" stroke="white" stroke-width="4" stroke-miterlimit="10" stroke-linecap="round"/>
<path d="M81.854 26.9053L72.7952 30.658" stroke="white" stroke-width="4" stroke-miterlimit="10" stroke-linecap="round"/>
<path d="M79.7095 21.7253L84.0006 32.0865" stroke="white" stroke-width="4" stroke-miterlimit="10" stroke-linecap="round"/>
<path d="M59.0948 4.14624L55.342 13.205" stroke="white" stroke-width="4" stroke-miterlimit="10" stroke-linecap="round"/>
<path d="M53.9138 2L64.2749 6.29108" stroke="white" stroke-width="4" stroke-miterlimit="10" stroke-linecap="round"/>
<path d="M43.0005 75.2427C60.8076 75.2427 75.2432 60.8072 75.2432 43C75.2432 25.1929 60.8076 10.7573 43.0005 10.7573C25.1934 10.7573 10.7578 25.1929 10.7578 43C10.7578 60.8072 25.1934 75.2427 43.0005 75.2427Z" stroke="white" stroke-width="4" stroke-miterlimit="10" stroke-linecap="round"/>
<path d="M55.6167 51.4114C59.4878 51.4114 62.626 48.2732 62.626 44.4021C62.626 40.531 59.4878 37.3928 55.6167 37.3928C51.7456 37.3928 48.6074 40.531 48.6074 44.4021C48.6074 48.2732 51.7456 51.4114 55.6167 51.4114Z" stroke="#2E87EF" stroke-width="4" stroke-miterlimit="10" stroke-linecap="round"/>
</svg>
