<svg width="16" height="16" viewBox="0 0 16 16" fill="none" xmlns="http://www.w3.org/2000/svg">
<g clip-path="url(#clip0)">
<path fill-rule="evenodd" clip-rule="evenodd" d="M0.769545 4.48528C0.274757 2.89023 1.0448 1.94032 1.63348 1.3856L2.49439 0.524682C2.96302 0.0560533 3.72282 0.0560537 4.19145 0.524683L6.53786 2.8711C6.92839 3.26163 6.92839 3.89479 6.53786 4.28532L6.17673 4.64645C6.01343 4.80975 5.80769 4.90477 5.59501 4.9315C5.16864 5.14969 4.75206 5.52431 5.00415 6.41278C5.27426 7.36474 5.88911 8.03023 6.26611 8.43828C6.33866 8.51681 6.40241 8.58581 6.45319 8.64547C6.51285 8.69626 6.58185 8.76 6.66037 8.83255C7.06843 9.20955 7.73391 9.8244 8.68587 10.0945C9.56704 10.3445 9.94737 9.86323 10.1795 9.4274C10.2174 9.24211 10.3083 9.06549 10.452 8.92174L10.8132 8.56061C11.2037 8.17009 11.8368 8.17009 12.2274 8.56061L14.5738 10.907C15.0424 11.3757 15.0424 12.1355 14.5738 12.6041L13.7188 13.459C13.1649 14.0485 12.214 14.8256 10.6134 14.3291C9.44836 14.0434 7.12943 13.1308 4.54971 10.5497M0.769545 4.48528C1.05525 5.6503 1.96786 7.96922 4.54895 10.5489L0.769545 4.48528Z" fill="#222222"/>
</g>
<defs>
<clipPath id="clip0">
<rect width="16" height="16" fill="white"/>
</clipPath>
</defs>
</svg>
