<svg width="86" height="86" viewBox="0 0 86 86" fill="none" xmlns="http://www.w3.org/2000/svg">
<path d="M26.8755 6.6875L29.0859 10.0039C30.0112 11.3917 30.4832 13.0323 30.437 14.6996C30.3908 16.367 29.8286 17.9789 28.8279 19.3134L27.167 21.5265C26.271 22.7213 25.7245 24.1414 25.5883 25.6286C25.4521 27.1158 25.7316 28.6115 26.3957 29.9492L33.7864 44.8419" stroke="#2E87EF" stroke-width="4" stroke-miterlimit="10" stroke-linecap="round"/>
<path d="M14.7812 63.125H8.0625C6.63696 63.125 5.26981 62.5587 4.2618 61.5507C3.25379 60.5427 2.6875 59.1755 2.6875 57.75V49.6875C2.6875 48.262 3.25379 46.8948 4.2618 45.8868C5.26981 44.8788 6.63696 44.3125 8.0625 44.3125C9.48804 44.3125 10.8552 44.8788 11.8632 45.8868C12.8712 46.8948 13.4375 48.262 13.4375 49.6875V49.6875V52.375" stroke="white" stroke-width="4" stroke-miterlimit="10" stroke-linecap="round"/>
<path d="M34.9375 49.6875C34.9375 46.8364 33.8049 44.1021 31.7889 42.0861C29.7729 40.0701 27.0386 38.9375 24.1875 38.9375C21.3364 38.9375 18.6021 40.0701 16.5861 42.0861C14.5701 44.1021 13.4375 46.8364 13.4375 49.6875V49.6875" stroke="white" stroke-width="4" stroke-miterlimit="10" stroke-linecap="round"/>
<path d="M13.4375 49.6875V52.375" stroke="white" stroke-width="4" stroke-miterlimit="10" stroke-linecap="round"/>
<path d="M24.3998 52.375C22.5005 55.6393 21.5 59.3484 21.5 63.125C21.5 72.03 29.5625 79.25 40.3125 79.25C60.0656 79.25 70.7484 65.6338 72.3502 48.8289C75.7942 47.6653 78.744 45.3721 80.721 42.3214C82.698 39.2707 83.5861 35.6415 83.2413 32.0226C82.8245 28.0914 80.9942 24.4454 78.0906 21.7626C75.1871 19.0798 71.4081 17.5428 67.4563 17.4375C64.1832 17.3776 60.9697 18.3163 58.2436 20.1287C55.5175 21.941 53.4083 24.541 52.197 27.5822C50.9858 30.6234 50.7298 33.9615 51.4634 37.1518C52.197 40.3421 53.8852 43.2332 56.3031 45.4399L48.3495 48.6206" stroke="white" stroke-width="4" stroke-miterlimit="10" stroke-linecap="round"/>
<path d="M53.2891 57.2891C51.7857 58.7926 49.8702 59.8165 47.7848 60.2313C45.6995 60.6461 43.538 60.4332 41.5736 59.6195C39.6092 58.8059 37.9303 57.428 36.7491 55.6601C35.5679 53.8922 34.9374 51.8137 34.9375 49.6875H34.9751C34.9681 47.4848 35.6398 45.3334 36.8986 43.5258C38.1575 41.7183 39.9425 40.3424 42.011 39.5852L51.2829 36.211L50.7037 36.422" stroke="white" stroke-width="4" stroke-miterlimit="10" stroke-linecap="round"/>
<path d="M63.1561 31.9876C63.1561 31.9876 61.9646 31.9606 61 31.5C60.0354 31.0394 59 30 59 30" stroke="white" stroke-width="4" stroke-miterlimit="10" stroke-linecap="round"/>
</svg>
