<svg width="86" height="86" viewBox="0 0 86 86" fill="none" xmlns="http://www.w3.org/2000/svg">
<path d="M18.275 40.8499C20.0562 40.8499 21.5 39.406 21.5 37.6249C21.5 35.8438 20.0562 34.3999 18.275 34.3999C16.4939 34.3999 15.05 35.8438 15.05 37.6249C15.05 39.406 16.4939 40.8499 18.275 40.8499Z" fill="#2E87EF"/>
<path d="M46.9684 30.3406C46.0572 31.2481 45.3531 32.3419 44.9043 33.547C44.4555 34.7522 44.2728 36.0402 44.3685 37.3226C44.4642 38.605 44.8362 39.8516 45.4589 40.9768C46.0817 42.1019 46.9404 43.0791 47.9762 43.8412C46.8524 44.6686 45.9383 45.7481 45.3075 46.9929C44.6767 48.2378 44.3467 49.6132 44.3441 51.0088L75.2503 51.0625C77.0322 51.0625 78.7412 51.7704 80.0012 53.0304C81.2612 54.2904 81.9691 55.9994 81.9691 57.7813C81.9691 59.5632 81.2612 61.2722 80.0012 62.5322C78.7412 63.7922 77.0322 64.5 75.2503 64.5H53.7503C51.9684 64.5 50.2594 65.2079 48.9994 66.4679C47.7394 67.7279 47.0316 69.4369 47.0316 71.2188C47.0316 73.0007 47.7394 74.7097 48.9994 75.9697C50.2594 77.2297 51.9684 77.9375 53.7503 77.9375H60.4691" stroke="white" stroke-width="4" stroke-linecap="round" stroke-linejoin="round"/>
<path d="M49.7189 13.4563V13.4375C40.8518 13.4308 32.13 15.6884 24.3798 19.9964C23.6316 18.3946 22.5405 16.9769 21.1837 15.8435C19.8269 14.7101 18.2376 13.8887 16.5282 13.4375L12.3761 29.1379C8.76028 32.8065 5.70288 36.9863 3.30171 41.5434C2.91165 42.2824 2.69755 43.1015 2.6761 43.9369C2.65466 44.7723 2.82645 45.6013 3.17808 46.3594L5.37511 51.0625H71.1718C73.9202 46.9656 75.3438 42.1234 75.2501 37.191C75.0096 23.7602 63.1416 13.1782 49.7189 13.4563Z" stroke="white" stroke-width="4" stroke-linecap="round" stroke-linejoin="round"/>
</svg>
