<svg width="26" height="26" viewBox="0 0 26 26" fill="none" xmlns="http://www.w3.org/2000/svg">
<path d="M3.08095 13.0543C3.08095 18.5053 7.49984 22.9242 12.9508 22.9242C14.5743 22.9242 16.4003 22.2864 17.729 21.6106L21.4313 22.6684C22.123 22.866 22.7625 22.2265 22.5649 21.5348L21.5071 17.8326C22.1828 16.5038 22.8207 14.6778 22.8207 13.0543C22.8207 7.60335 18.4018 3.18446 12.9508 3.18446C7.49984 3.18446 3.08095 7.60335 3.08095 13.0543Z" fill="white" stroke="#222222" stroke-width="1.26389"/>
<path fill-rule="evenodd" clip-rule="evenodd" d="M13.0051 23.1591C7.87334 23.1591 3.71325 19.519 3.71325 15.0288C3.71325 10.5385 7.87334 6.89844 13.0051 6.89844C18.1368 6.89844 22.2969 10.5385 22.2969 15.0288C22.2969 16.1655 22.0303 17.2477 21.5488 18.2302L21.6439 18.1562L23.2148 23.3927L17.7423 22.0246C16.3552 22.7453 14.7353 23.1591 13.0051 23.1591Z" fill="#47BDFF"/>
<path d="M22.9989 21.4108L21.9572 21.7084L22.9989 21.4108L21.9893 17.8774C22.6536 16.5274 23.2721 14.709 23.2721 13.0543C23.2721 7.35406 18.6511 2.73307 12.9508 2.73307C7.25054 2.73307 2.62956 7.35406 2.62956 13.0543C2.62956 18.7546 7.25054 23.3756 12.9508 23.3756C14.6055 23.3756 16.4239 22.7571 17.7739 22.0929L21.3073 23.1024C22.3395 23.3973 23.2938 22.443 22.9989 21.4108ZM21.9025 21.0191L21.9012 21.0187L21.9025 21.0191Z" stroke="#444444" stroke-width="2.16667"/>
<path d="M8.8457 15.1055C8.8457 15.1055 9.87214 17.6716 12.9514 17.6716C16.0308 17.6716 17.0572 15.1055 17.0572 15.1055" stroke="#444444" stroke-width="2.16667" stroke-linecap="round"/>
</svg>
