<svg width="15" height="14" viewBox="0 0 15 14" fill="none" xmlns="http://www.w3.org/2000/svg">
<path d="M5.63998 1.15515C6.37361 -0.33134 8.4933 -0.33134 9.22693 1.15515L9.90704 2.53321C10.1984 3.1235 10.7615 3.53264 11.4129 3.62729L12.9337 3.84828C14.5741 4.08665 15.2292 6.10259 14.0421 7.25966L12.9417 8.33233C12.4703 8.79181 12.2552 9.45381 12.3665 10.1026L12.6263 11.6172C12.9065 13.251 11.1916 14.497 9.72436 13.7256L8.36414 13.0105C7.78149 12.7042 7.08542 12.7042 6.50277 13.0105L5.14255 13.7256C3.67529 14.497 1.96043 13.251 2.24065 11.6172L2.50043 10.1026C2.61171 9.45381 2.39661 8.79181 1.92524 8.33233L0.82479 7.25966C-0.362244 6.10259 0.292776 4.08665 1.93322 3.84828L3.454 3.62729C4.10542 3.53264 4.66855 3.1235 4.95987 2.53321L5.63998 1.15515Z" fill="#DDDDDD"/>
</svg>
