<svg width="18" height="16" viewBox="0 0 18 16" fill="none" xmlns="http://www.w3.org/2000/svg">
<path d="M3.222 6.682C3.222 4.126 4.788 2.524 7.074 2.524C9.342 2.524 10.908 4.126 10.908 6.682C10.908 9.238 9.342 10.876 7.074 10.876C4.788 10.876 3.222 9.238 3.222 6.682ZM13.5 6.682C13.5 2.92 10.656 0.256 7.074 0.256C3.528 0.256 0.63 2.92 0.63 6.682C0.63 10.462 3.528 13.126 7.074 13.126C7.632 13.126 8.19 13.054 8.694 12.928L10.602 15.214H13.734L10.854 11.974C12.456 10.84 13.5 8.968 13.5 6.682ZM17.966 11.65C17.966 10.822 17.318 10.174 16.436 10.174C15.518 10.174 14.87 10.822 14.87 11.65C14.87 12.478 15.518 13.126 16.436 13.126C17.318 13.126 17.966 12.478 17.966 11.65Z" fill="#BBBBBB"/>
</svg>
