<svg width="15" height="14" viewBox="0 0 15 14" fill="none" xmlns="http://www.w3.org/2000/svg">
<path d="M5.94778 1.12132C6.68499 -0.373773 8.81501 -0.373773 9.55222 1.12132L10.2356 2.50735C10.5284 3.10105 11.0943 3.51256 11.7489 3.60776L13.2771 3.83002C14.9255 4.06977 15.5837 6.09738 14.3909 7.26114L13.2851 8.34002C12.8114 8.80215 12.5953 9.46798 12.7071 10.1205L12.9681 11.6439C13.2497 13.2872 11.5265 14.5403 10.0521 13.7645L8.68522 13.0452C8.09973 12.7371 7.40027 12.7371 6.81478 13.0452L5.44792 13.7645C3.97352 14.5403 2.25029 13.2872 2.53188 11.6439L2.79292 10.1205C2.90474 9.46798 2.6886 8.80215 2.21493 8.34002L1.10912 7.26114C-0.0837036 6.09738 0.57451 4.06977 2.22295 3.83002L3.75114 3.60776C4.40574 3.51256 4.97161 3.10105 5.26436 2.50735L5.94778 1.12132Z" fill="#FFE665"/>
</svg>
