<svg width="48" height="67" viewBox="0 0 48 67" fill="none" xmlns="http://www.w3.org/2000/svg">
<path fill-rule="evenodd" clip-rule="evenodd" d="M8.18736 44C8.22246 48.2058 9.90384 52.2272 12.8654 55.1888C15.827 58.1503 19.829 59.812 23.9999 59.812C28.1707 59.812 32.1727 58.1503 35.1343 55.1888C38.0959 52.2272 39.7773 48.2058 39.8124 44H47C46.949 50.1176 44.5034 55.9672 40.1956 60.2749C35.8878 64.5827 30.0667 66.9997 24 66.9997C17.9333 66.9997 12.1122 64.5827 7.80442 60.2749C3.49662 55.9672 1.05096 50.1176 1 44H8.18736Z" fill="#FFE665"/>
<g clip-path="url(#clip0_2685_24321)">
<circle cx="23.9408" cy="42.9911" r="7.33798" fill="white"/>
<circle cx="23.9999" cy="42.991" r="5" fill="#FFE665"/>
<path d="M31.2788 42.3334V43.0022C31.2779 44.5698 30.7696 46.0952 29.8298 47.3508C28.89 48.6063 27.5689 49.5249 26.0637 49.9693C24.5584 50.4138 22.9497 50.3604 21.4773 49.8172C20.0049 49.2739 18.7478 48.2698 17.8935 46.9547C17.0392 45.6396 16.6334 44.084 16.7367 42.5197C16.8399 40.9555 17.4467 39.4665 18.4666 38.2748C19.4864 37.0831 20.8646 36.2526 22.3957 35.9071C23.9267 35.5617 25.5286 35.7197 26.9624 36.3577" stroke="#444444" stroke-width="1.49733" stroke-linecap="round" stroke-linejoin="round"/>
<path d="M31.2795 37.1851L24.0006 44.462L21.8169 42.2811" stroke="#444444" stroke-width="1.49733" stroke-linecap="round" stroke-linejoin="round"/>
</g>
<path d="M14.8165 4.057C14.8165 3.329 15.3755 2.913 16.1945 2.913C17.0135 2.913 17.5985 3.329 17.5985 4.057C17.5985 4.785 17.0135 5.201 16.1945 5.201C15.3755 5.201 14.8165 4.785 14.8165 4.057ZM19.7825 7.021C18.9245 7.151 17.9885 7.216 17.0655 7.268V6.41C18.3395 6.124 19.1845 5.227 19.1845 4.057C19.1845 2.627 17.9365 1.626 16.1945 1.626C14.4655 1.626 13.2175 2.627 13.2175 4.057C13.2175 5.24 14.0755 6.137 15.3495 6.41V7.333C14.3615 7.359 13.4125 7.359 12.5935 7.359L12.8015 8.724C14.7775 8.724 17.4685 8.685 19.8865 8.23L19.7825 7.021ZM15.8695 9.504H14.1535V12.91H22.5255V11.545H15.8695V9.504ZM22.1225 4.902V1.145H20.4065V10.284H22.1225V6.319H23.6305V4.902H22.1225ZM28.9595 8.568H31.0525V10.401H28.9595V8.568ZM32.7425 10.401V8.568H34.4195V7.203H27.4775V5.89H34.1465V1.912H25.7615V3.277H32.4565V4.551H25.7745V8.568H27.2695V10.401H24.5135V11.805H35.3685V10.401H32.7425Z" fill="#FFE665"/>
<defs>
<clipPath id="clip0_2685_24321">
<rect width="17.4695" height="17.4471" fill="white" transform="translate(15.2653 34.2764)"/>
</clipPath>
</defs>
</svg>
