<svg width="48" height="67" viewBox="0 0 48 67" fill="none" xmlns="http://www.w3.org/2000/svg">
<g opacity="0.5">
<circle cx="24" cy="43" r="20" fill="#E9F7FF"/>
<g clip-path="url(#clip0_2673_24216)">
<path d="M26.7638 47.3665V47.3665C29.6586 47.3665 32.0054 45.0198 32.0054 42.1249V41.5445C32.0054 38.329 29.3987 35.7224 26.1833 35.7224H21.8167C18.6012 35.7224 15.9946 38.329 15.9946 41.5445V41.839C15.9946 44.8918 18.4694 47.3665 21.5221 47.3665V47.3665C22.7992 47.3665 24.0953 47.9488 24.0953 50.2776" stroke="#444444" stroke-width="1.30997" stroke-linecap="round"/>
<circle cx="20.5431" cy="41.7264" r="0.909703" fill="#444444"/>
<circle cx="24.1819" cy="41.7264" r="0.909703" fill="#444444"/>
<circle cx="27.8207" cy="41.7264" r="0.909703" fill="#444444"/>
</g>
<path d="M3.59853 3.524H5.27553V9.01C4.71653 9.036 4.14453 9.049 3.59853 9.075V3.524ZM6.57553 3.524H7.74553V2.445H1.12853V3.524H2.29853V9.075C1.77853 9.088 1.27153 9.088 0.816531 9.088L0.959531 10.193C3.09153 10.193 5.86053 10.154 8.36953 9.738L8.29153 8.75C7.73253 8.815 7.16053 8.88 6.57553 8.919V3.524ZM9.18853 1.262V13.014H10.5275V1.262H9.18853ZM20.7185 5.773H15.3495V4.278H20.7185V5.773ZM22.0575 1.717H20.7185V3.199H15.3495V1.717H14.0105V6.852H22.0575V1.717ZM23.3705 8.126H12.7235V9.205H17.3385V13.014H18.6775V9.205H23.3705V8.126ZM32.7425 3.511C32.7425 4.915 32.7425 6.579 32.2875 8.88L33.6395 9.023C34.0945 6.592 34.0945 4.967 34.0945 3.511V2.354H25.7355V3.446H32.7425V3.511ZM29.9345 10.362V6.228H28.5825V10.362H24.6305V11.467H35.2385V10.362H29.9345ZM46.1965 1.275H44.8575V9.66H46.1965V1.275ZM41.3865 6.722H38.4355V3.316H41.3865V6.722ZM42.6865 2.237H37.1225V7.801H42.6865V2.237ZM39.8785 11.597V8.893H38.5265V12.676H46.5345V11.597H39.8785Z" fill="white"/>
</g>
<defs>
<clipPath id="clip0_2673_24216">
<rect width="17.4663" height="17.4663" fill="white" transform="translate(15.2668 34.2668)"/>
</clipPath>
</defs>
</svg>
