<svg width="36" height="36" viewBox="0 0 36 36" fill="none" xmlns="http://www.w3.org/2000/svg">
<path d="M27 9.5V5.91667C27 4.30584 25.6942 3 24.0833 3H19.5H19.1333C17.9551 3 17 3.95513 17 5.13333V9.5C17 10.3284 17.6716 11 18.5 11H18.6667H25.5C26.3284 11 27 10.3284 27 9.5Z" fill="white"/>
<path d="M31 31.5V15C31 12.5147 28.9853 10.5 26.5 10.5H25.75H17.5C15.0147 10.5 13 12.5147 13 15V16.5V31.5C13 32.3284 13.6716 33 14.5 33H16H29.5C30.3284 33 31 32.3284 31 31.5Z" fill="white" stroke="black" stroke-width="1.5" stroke-linecap="round"/>
<path d="M31 33V18H25.75H17.5H13V22V33H16H31Z" fill="#E9E9E9"/>
<path d="M31 31.5V15C31 12.5147 28.9853 10.5 26.5 10.5H25.75H17.5C15.0147 10.5 13 12.5147 13 15V16.5V31.5C13 32.3284 13.6716 33 14.5 33H16H29.5C30.3284 33 31 32.3284 31 31.5Z" stroke="black" stroke-width="1.5" stroke-linecap="round"/>
<path d="M19.75 10.5H17.5V6C17.5 4.34315 18.8431 3 20.5 3H23.5C25.1569 3 26.5 4.34315 26.5 6V10.5H24.25" stroke="#222222" stroke-width="1.5"/>
<path d="M17 27.2222C17 32.7451 13.0806 35 9.5 35C5.91941 35 2 32.7451 2 27.2222C2 22.6981 7.03283 17.3844 8.85297 15.6106C9.21735 15.2555 9.78265 15.2555 10.147 15.6106C11.9672 17.3844 17 22.6981 17 27.2222Z" fill="white"/>
<path d="M16 28.1667C16 32.3088 13.1258 34 10.5 34C7.87423 34 5 32.5 5 28.1667C5 23.8333 11 18.5 11 18.5C11 18.5 16 23.1449 16 28.1667Z" fill="#6170FF"/>
<path d="M16.25 27.2222C16.25 29.7905 15.3468 31.5213 14.0977 32.6187C12.8311 33.7316 11.1427 34.25 9.5 34.25C7.85732 34.25 6.16894 33.7316 4.90229 32.6187C3.65318 31.5213 2.75 29.7905 2.75 27.2222C2.75 25.2028 3.89063 22.9052 5.35771 20.816C6.80563 18.7542 8.48229 17.0191 9.37642 16.1477C9.41663 16.1086 9.46044 16.0943 9.5 16.0943C9.53956 16.0943 9.58337 16.1086 9.62358 16.1477C10.5177 17.0191 12.1944 18.7542 13.6423 20.816C15.1094 22.9052 16.25 25.2028 16.25 27.2222Z" stroke="#222222" stroke-width="1.5"/>
</svg>
