<svg width="48" height="67" viewBox="0 0 48 67" fill="none" xmlns="http://www.w3.org/2000/svg">
<g opacity="0.5">
<circle cx="24" cy="43" r="20" fill="#E9F7FF"/>
<g clip-path="url(#clip0_2673_24241)">
<path d="M31.2788 42.3334V43.0022C31.2779 44.5698 30.7696 46.0952 29.8298 47.3508C28.89 48.6063 27.5689 49.5249 26.0637 49.9693C24.5584 50.4138 22.9497 50.3604 21.4773 49.8172C20.0049 49.2739 18.7478 48.2698 17.8935 46.9547C17.0392 45.6396 16.6334 44.084 16.7367 42.5197C16.8399 40.9555 17.4467 39.4665 18.4666 38.2748C19.4864 37.0831 20.8646 36.2526 22.3957 35.9071C23.9267 35.5617 25.5286 35.7197 26.9624 36.3577" stroke="#444444" stroke-width="1.49733" stroke-linecap="round" stroke-linejoin="round"/>
<path d="M31.2795 37.1851L24.0006 44.462L21.8169 42.2811" stroke="#444444" stroke-width="1.49733" stroke-linecap="round" stroke-linejoin="round"/>
</g>
<path d="M14.5955 4.109C14.5955 3.303 15.2845 2.783 16.2595 2.783C17.2475 2.783 17.9105 3.303 17.9105 4.109C17.9105 4.928 17.2475 5.448 16.2595 5.448C15.2845 5.448 14.5955 4.928 14.5955 4.109ZM19.8995 7.138C18.9635 7.281 17.9495 7.359 16.9485 7.424V6.41C18.2745 6.189 19.1585 5.305 19.1585 4.109C19.1585 2.718 17.9625 1.769 16.2595 1.769C14.5565 1.769 13.3475 2.718 13.3475 4.109C13.3475 5.318 14.2575 6.202 15.6095 6.41V7.476C14.5565 7.515 13.5555 7.515 12.7105 7.515L12.8795 8.607C14.8425 8.607 17.5725 8.568 19.9905 8.113L19.8995 7.138ZM15.6745 9.478H14.3355V12.767H22.3305V11.688H15.6745V9.478ZM21.9275 5.11V1.275H20.5885V10.245H21.9275V6.215H23.5395V5.11H21.9275ZM28.8035 8.49H31.2085V10.518H28.8035V8.49ZM32.5345 10.518V8.49H34.2635V7.411H27.2305V5.786H34.0035V2.081H25.8915V3.16H32.6775V4.72H25.9175V8.49H27.4775V10.518H24.6305V11.623H35.2645V10.518H32.5345Z" fill="white"/>
</g>
<defs>
<clipPath id="clip0_2673_24241">
<rect width="17.4695" height="17.4471" fill="white" transform="translate(15.2653 34.2764)"/>
</clipPath>
</defs>
</svg>
