<svg width="48" height="67" viewBox="0 0 48 67" fill="none" xmlns="http://www.w3.org/2000/svg">
<path fill-rule="evenodd" clip-rule="evenodd" d="M8.18736 44C8.22246 48.2058 9.90384 52.2272 12.8654 55.1888C15.827 58.1503 19.829 59.812 23.9999 59.812C28.1707 59.812 32.1727 58.1503 35.1343 55.1888C38.0959 52.2272 39.7773 48.2058 39.8124 44H47C46.949 50.1176 44.5034 55.9672 40.1956 60.2749C35.8878 64.5827 30.0667 66.9997 24 66.9997C17.9333 66.9997 12.1122 64.5827 7.80442 60.2749C3.49662 55.9672 1.05096 50.1176 1 44H8.18736Z" fill="#FFE665"/>
<g clip-path="url(#clip0_2685_24299)">
<rect width="16" height="12" rx="6" transform="matrix(1 0 0 -1 15.9761 47.6305)" fill="white"/>
<rect width="14" height="9" rx="4.5" transform="matrix(1 0 0 -1 17 47.6305)" fill="#FFE665"/>
<path d="M26.7637 47.3665V47.3665C29.6586 47.3665 32.0054 45.0198 32.0054 42.1249V41.5445C32.0054 38.329 29.3987 35.7224 26.1833 35.7224H21.8167C18.6012 35.7224 15.9946 38.329 15.9946 41.5445V41.839C15.9946 44.8918 18.4694 47.3665 21.5221 47.3665V47.3665C22.7992 47.3665 24.0953 47.9488 24.0953 50.2776" stroke="#444444" stroke-width="1.30997" stroke-linecap="round"/>
<circle cx="20.5431" cy="41.7264" r="0.909703" fill="#444444"/>
<circle cx="24.1819" cy="41.7264" r="0.909703" fill="#444444"/>
<circle cx="27.8208" cy="41.7264" r="0.909703" fill="#444444"/>
</g>
<path d="M3.72853 3.628H5.06753V8.906C4.61253 8.919 4.17053 8.945 3.72853 8.945V3.628ZM6.71853 3.628H7.74553V2.25H1.02453V3.628H2.06453V8.984C1.59653 8.984 1.14153 8.984 0.712531 8.984L0.894531 10.388C3.03953 10.375 5.79553 10.323 8.31753 9.894L8.21353 8.659C7.71953 8.724 7.22553 8.776 6.71853 8.802V3.628ZM8.98053 1.158V13.131H10.7095V1.158H8.98053ZM20.4975 5.539H15.5705V4.304H20.4975V5.539ZM22.1875 1.6H20.4975V2.965H15.5705V1.6H13.8675V6.904H22.1875V1.6ZM23.4745 8.035H12.6325V9.4H17.1565V13.131H18.8725V9.4H23.4745V8.035ZM33.8475 9.049C34.3285 6.501 34.3285 4.811 34.3285 3.316V2.172H25.6315V3.537H32.6125C32.6125 4.928 32.5865 6.592 32.1315 8.854L33.8475 9.049ZM30.0775 10.297V6.176H28.3615V10.297H24.5395V11.675H35.3685V10.297H30.0775ZM46.3655 1.145H44.6365V9.66H46.3655V1.145ZM41.1525 6.527H38.7085V3.446H41.1525V6.527ZM42.8295 2.094H37.0185V7.879H42.8295V2.094ZM40.1125 11.493V8.906H38.3965V12.871H46.6645V11.493H40.1125Z" fill="#FFE665"/>
<defs>
<clipPath id="clip0_2685_24299">
<rect width="17.4663" height="17.4663" fill="white" transform="translate(15.2668 34.2668)"/>
</clipPath>
</defs>
</svg>
