<svg width="36" height="36" viewBox="0 0 36 36" fill="none" xmlns="http://www.w3.org/2000/svg">
<path d="M14.25 12.5C14.25 18.1609 18.8391 22.75 24.5 22.75C26.1768 22.75 28.0527 22.0984 29.424 21.4061L33.1154 22.4607C33.9363 22.6953 34.6953 21.9363 34.4607 21.1154L33.4061 17.424C34.0984 16.0527 34.75 14.1768 34.75 12.5C34.75 6.83908 30.1609 2.25 24.5 2.25C18.8391 2.25 14.25 6.83908 14.25 12.5Z" fill="white" stroke="#222222" stroke-width="1.5"/>
<circle cx="19.8914" cy="12.252" r="1.1565" fill="#222222"/>
<circle cx="24.5173" cy="12.252" r="1.1565" fill="#222222"/>
<circle cx="29.1433" cy="12.252" r="1.1565" fill="#222222"/>
<path d="M21.75 23.5C21.75 29.1609 17.1609 33.75 11.5 33.75C9.82323 33.75 7.94726 33.0984 6.57598 32.4061L2.88459 33.4607C2.06367 33.6953 1.30471 32.9363 1.53925 32.1154L2.59394 28.424C1.90162 27.0527 1.25 25.1768 1.25 23.5C1.25 17.8391 5.83908 13.25 11.5 13.25C17.1609 13.25 21.75 17.8391 21.75 23.5Z" fill="white" stroke="#222222" stroke-width="1.5"/>
<path fill-rule="evenodd" clip-rule="evenodd" d="M11.5 33C16.7467 33 21 29.4183 21 25C21 20.5817 16.7467 17 11.5 17C6.25329 17 2 20.5817 2 25C2 26.2753 2.35438 27.481 2.98474 28.5509L1.5 33.5L7.11152 32.0971C8.4242 32.6739 9.91688 33 11.5 33Z" fill="#2FCAB0"/>
<path d="M21.75 23.5C21.75 29.1609 17.1609 33.75 11.5 33.75C9.82323 33.75 7.94726 33.0984 6.57598 32.4061L2.88459 33.4607C2.06367 33.6953 1.30471 32.9363 1.53925 32.1154L2.59394 28.424C1.90162 27.0527 1.25 25.1768 1.25 23.5C1.25 17.8391 5.83908 13.25 11.5 13.25C17.1609 13.25 21.75 17.8391 21.75 23.5Z" stroke="#222222" stroke-width="1.5"/>
<path d="M7.18359 25.5218C7.18359 25.5218 8.33231 28.3936 11.7784 28.3936C15.2246 28.3936 16.3733 25.5218 16.3733 25.5218" stroke="#222222" stroke-width="1.5" stroke-linecap="round"/>
</svg>
