<svg width="20" height="20" viewBox="0 0 20 20" fill="none" xmlns="http://www.w3.org/2000/svg">
<path d="M18.3841 5.89677C18.2852 5.48158 18.0902 5.10265 17.8186 4.7979C17.5471 4.49315 17.2086 4.27328 16.8369 4.16028C15.4688 3.75 10 3.75 10 3.75C10 3.75 4.53125 3.75 3.16307 4.16028C2.79141 4.27328 2.45288 4.49315 2.18136 4.7979C1.90983 5.10265 1.71485 5.48158 1.61591 5.89677C1.25 7.42923 1.25 10.625 1.25 10.625C1.25 10.625 1.25 13.8208 1.61591 15.3532C1.71485 15.7684 1.90983 16.1474 2.18136 16.4521C2.45288 16.7568 2.79141 16.9767 3.16307 17.0897C4.53125 17.5 10 17.5 10 17.5C10 17.5 15.4688 17.5 16.8369 17.0897C17.2086 16.9767 17.5471 16.7568 17.8186 16.4521C18.0902 16.1474 18.2852 15.7684 18.3841 15.3532C18.75 13.8208 18.75 10.625 18.75 10.625C18.75 10.625 18.75 7.42923 18.3841 5.89677Z" fill="#2FCAB0"/>
<path d="M8.7189 12.9513C8.3856 13.1385 7.97412 12.8976 7.97412 12.5153V8.35413C7.97412 7.97189 8.3856 7.73102 8.7189 7.91814L12.4248 9.99875C12.7651 10.1898 12.7651 10.6797 12.4248 10.8707L8.7189 12.9513Z" fill="#FEFEFE"/>
</svg>
