<svg width="48" height="48" viewBox="0 0 48 48" fill="none" xmlns="http://www.w3.org/2000/svg">
<path d="M10.5 4H7.96826C5.77665 4 4 5.77665 4 7.96826V10.5" stroke="#444444" stroke-width="1.5" stroke-linecap="round" stroke-linejoin="round"/>
<path d="M37.5 4H40.0317C42.2233 4 44 5.77665 44 7.96826V10.5" stroke="#444444" stroke-width="1.5" stroke-linecap="round" stroke-linejoin="round"/>
<path d="M37.5 44L40.0317 44C42.2233 44 44 42.2233 44 40.0317L44 37.5" stroke="#444444" stroke-width="1.5" stroke-linecap="round" stroke-linejoin="round"/>
<path d="M10.5 44L7.96826 44C5.77665 44 4 42.2233 4 40.0317L4 37.5" stroke="#444444" stroke-width="1.5" stroke-linecap="round" stroke-linejoin="round"/>
<path d="M18.7604 33.792H29.2396V39.4408C29.2396 40.6703 28.2429 41.667 27.0134 41.667H20.9866C19.7571 41.667 18.7604 40.6703 18.7604 39.4408V33.792Z" fill="white" stroke="#444444" stroke-width="1.5"/>
<path d="M15.7218 10.3657C15.5792 8.96611 16.6777 7.75 18.0846 7.75H29.9154C31.3223 7.75 32.4208 8.96611 32.2782 10.3657L30.0071 32.656C29.9378 33.3365 29.3647 33.8542 28.6806 33.8542H20.2603C19.0418 33.8542 18.021 32.9321 17.8975 31.7199L15.7218 10.3657Z" fill="white" stroke="#222222" stroke-width="1.5"/>
<mask id="mask0_2796_31706" style="mask-type:alpha" maskUnits="userSpaceOnUse" x="14" y="7" width="20" height="28">
<path d="M15.7529 10.3626C15.6122 8.98136 16.6962 7.78125 18.0846 7.78125H29.9154C31.3038 7.78125 32.3878 8.98136 32.2471 10.3626L29.976 32.6528C29.9083 33.3174 29.3487 33.8229 28.6806 33.8229H20.2603C19.0579 33.8229 18.0505 32.913 17.9286 31.7167L15.7529 10.3626Z" fill="white" stroke="#222222" stroke-width="1.5625"/>
</mask>
<g mask="url(#mask0_2796_31706)">
<rect x="13.5833" y="16.8955" width="20.8333" height="11.4583" fill="#FFE665"/>
</g>
<path d="M15.7218 10.3657C15.5792 8.96611 16.6777 7.75 18.0846 7.75H29.9154C31.3223 7.75 32.4208 8.96611 32.2782 10.3657L30.0071 32.656C29.9378 33.3365 29.3647 33.8542 28.6806 33.8542H20.2603C19.0418 33.8542 18.021 32.9321 17.8975 31.7199L15.7218 10.3657Z" stroke="#444444" stroke-width="1.5"/>
<path d="M18.7917 39.0596H29.2083" stroke="#444444" stroke-width="1.5"/>
<path d="M25.5625 39.2076V38.2852C25.5625 37.4222 24.8629 36.7227 24 36.7227V36.7227C23.1371 36.7227 22.4375 37.4222 22.4375 38.2852V39.2076" stroke="#444444" stroke-width="1.5"/>
<path d="M18.7917 11.167L29.2083 11.167" stroke="#444444" stroke-width="1.5" stroke-linecap="round"/>
<path d="M4 24.0005L13 24" stroke="#444444" stroke-width="1.5" stroke-linecap="round" stroke-linejoin="round"/>
<path d="M10.5 21.5L13 24L10.5 26.5" stroke="#444444" stroke-width="1.5" stroke-linecap="round" stroke-linejoin="round"/>
<path d="M44 24.0005L35 24" stroke="#444444" stroke-width="1.5" stroke-linecap="round" stroke-linejoin="round"/>
<path d="M37.5 21.5L35 24L37.5 26.5" stroke="#444444" stroke-width="1.5" stroke-linecap="round" stroke-linejoin="round"/>
</svg>
