<svg width="32" height="32" viewBox="0 0 32 32" fill="none" xmlns="http://www.w3.org/2000/svg">
<path d="M32 26.3707C32 27.1565 31.6935 27.9102 31.1479 28.4658C30.6024 29.0215 29.8624 29.3337 29.0909 29.3337H2.90909C2.13755 29.3337 1.39761 29.0215 0.852053 28.4658C0.306493 27.9102 0 27.1565 0 26.3707V10.0744C0 9.28857 0.306493 8.53493 0.852053 7.97927C1.39761 7.42361 2.13755 7.11144 2.90909 7.11144H8.72727L10.7481 4.02402C11.3024 3.17725 12.2462 2.66699 13.2582 2.66699H18.7418C19.7538 2.66699 20.6976 3.17724 21.2519 4.02402L23.2727 7.11144H29.0909C29.8624 7.11144 30.6024 7.42361 31.1479 7.97927C31.6935 8.53493 32 9.28857 32 10.0744V26.3707Z" fill="white"/>
<path d="M21.6667 17.3337C21.6667 20.4633 19.1296 23.0003 16 23.0003C12.8704 23.0003 10.3333 20.4633 10.3333 17.3337C10.3333 14.204 12.8704 11.667 16 11.667C19.1296 11.667 21.6667 14.204 21.6667 17.3337Z" stroke="#6170FF" stroke-width="2" stroke-linecap="round" stroke-linejoin="round"/>
</svg>
