<svg width="48" height="48" viewBox="0 0 48 48" fill="none" xmlns="http://www.w3.org/2000/svg">
<path d="M12.1354 33.792H22.6146V39.4408C22.6146 40.6703 21.6179 41.667 20.3884 41.667H14.3616C13.1321 41.667 12.1354 40.6703 12.1354 39.4408V33.792Z" fill="white" stroke="#444444" stroke-width="1.5"/>
<path d="M9.09681 10.3657C8.9542 8.96611 10.0527 7.75 11.4596 7.75H23.2904C24.6973 7.75 25.7958 8.96611 25.6532 10.3657L23.3821 32.656C23.3128 33.3365 22.7397 33.8542 22.0556 33.8542H13.6353C12.4168 33.8542 11.396 32.9321 11.2725 31.7199L9.09681 10.3657Z" fill="white" stroke="#222222" stroke-width="1.5"/>
<mask id="mask0_2796_31731" style="mask-type:alpha" maskUnits="userSpaceOnUse" x="8" y="7" width="19" height="28">
<path d="M9.1279 10.3626C8.98717 8.98136 10.0712 7.78125 11.4596 7.78125H23.2904C24.6788 7.78125 25.7628 8.98136 25.6221 10.3626L23.351 32.6528C23.2833 33.3174 22.7237 33.8229 22.0556 33.8229H13.6353C12.4329 33.8229 11.4255 32.913 11.3036 31.7167L9.1279 10.3626Z" fill="white" stroke="#222222" stroke-width="1.5625"/>
</mask>
<g mask="url(#mask0_2796_31731)">
<rect x="6.95831" y="16.8955" width="20.8333" height="11.4583" fill="#FFE665"/>
</g>
<path d="M9.09681 10.3657C8.9542 8.96611 10.0527 7.75 11.4596 7.75H23.2904C24.6973 7.75 25.7958 8.96611 25.6532 10.3657L23.3821 32.656C23.3128 33.3365 22.7397 33.8542 22.0556 33.8542H13.6353C12.4168 33.8542 11.396 32.9321 11.2725 31.7199L9.09681 10.3657Z" stroke="#444444" stroke-width="1.5"/>
<path d="M12.1667 39.0596H22.5833" stroke="#444444" stroke-width="1.5"/>
<path d="M18.9375 39.2076V38.2852C18.9375 37.4222 18.2379 36.7227 17.375 36.7227V36.7227C16.5121 36.7227 15.8125 37.4222 15.8125 38.2852V39.2076" stroke="#444444" stroke-width="1.5"/>
<path d="M12.1667 11.167L22.5833 11.167" stroke="#444444" stroke-width="1.5" stroke-linecap="round"/>
<rect y="-1.06066" width="4.18168" height="14.8442" rx="2.09084" transform="matrix(0.707107 -0.707107 -0.707107 -0.707107 42.5662 39.6239)" fill="white" stroke="#444444" stroke-width="1.5"/>
<circle r="10.25" transform="matrix(0.707107 -0.707107 -0.707107 -0.707107 29.4381 23.4515)" fill="white" stroke="#444444" stroke-width="1.5"/>
<circle r="7.5" transform="matrix(0.707107 -0.707107 -0.707107 -0.707107 29.4382 23.451)" fill="#FFE665"/>
</svg>
