<svg xmlns="http://www.w3.org/2000/svg" width="138" height="138" viewBox="0 0 138 138">
    <defs>
        <linearGradient id="4vjzsqrw6b" x1=".5" x2=".5" y2="1" gradientUnits="objectBoundingBox">
            <stop offset=".311" stop-color="#a365e5"/>
            <stop offset="1" stop-color="#6100b5"/>
        </linearGradient>
        <linearGradient id="k8004g96lc" x1=".5" x2=".5" y1="1" gradientUnits="objectBoundingBox">
            <stop offset=".424" stop-color="#b866ff"/>
            <stop offset=".999" stop-color="#b670ed"/>
        </linearGradient>
        <linearGradient id="1qwhgzpnqd" x1=".5" x2=".5" y2="1" gradientUnits="objectBoundingBox">
            <stop offset="0" stop-color="#b559f7"/>
            <stop offset=".325" stop-color="#b332f2"/>
            <stop offset=".455" stop-color="#a70bdb"/>
            <stop offset=".999" stop-color="#6211cc"/>
        </linearGradient>
        <linearGradient id="7dx28rnkre" x1=".75" x2=".25" y1=".933" y2=".067" gradientUnits="objectBoundingBox">
            <stop offset=".465" stop-color="#a76cf4"/>
            <stop offset=".999" stop-color="#e8d7ff"/>
        </linearGradient>
        <linearGradient id="kuhexs7bgf" x1=".5" x2=".5" y1="1" gradientUnits="objectBoundingBox">
            <stop offset=".465" stop-color="#a76cf4"/>
            <stop offset=".999" stop-color="#7900f9"/>
        </linearGradient>
        <linearGradient id="yojmwggxgg" x1=".25" x2=".75" y1=".067" y2=".933" gradientUnits="objectBoundingBox">
            <stop offset="0" stop-color="#e4bbff"/>
            <stop offset=".279" stop-color="#eddcff"/>
            <stop offset=".616" stop-color="#e3c2ff"/>
            <stop offset=".999" stop-color="#a68aff"/>
        </linearGradient>
        <linearGradient id="3owc5lnpvh" x1=".317" x2=".924" y1="-.166" y2=".787" gradientUnits="objectBoundingBox">
            <stop offset=".001" stop-color="#7900ed"/>
            <stop offset=".477" stop-color="#9129ff"/>
            <stop offset="1" stop-color="#6300cc"/>
        </linearGradient>
        <linearGradient id="zdxg5mwkti" x1=".317" x2=".926" y1="-.165" y2=".785" gradientUnits="objectBoundingBox">
            <stop offset=".001" stop-color="#a129ff"/>
            <stop offset=".476" stop-color="#b35cff"/>
            <stop offset="1" stop-color="#9012ff"/>
        </linearGradient>
        <filter id="92gl1vnu8a" width="138" height="138" x="0" y="0" filterUnits="userSpaceOnUse">
            <feOffset dx="3" dy="3"/>
            <feGaussianBlur result="blur" stdDeviation="8"/>
            <feFlood flood-color="#7a25d1" flood-opacity=".302"/>
            <feComposite in2="blur" operator="in"/>
            <feComposite in="SourceGraphic"/>
        </filter>
    </defs>
    <g transform="translate(21 21)">
        <g filter="url(#92gl1vnu8a)" transform="translate(-21 -21)">
            <circle cx="45" cy="45" r="45" fill="url(#4vjzsqrw6b)" transform="translate(21 21)"/>
        </g>
        <circle cx="43" cy="43" r="43" fill="url(#k8004g96lc)" transform="translate(2 2)"/>
        <path fill="url(#1qwhgzpnqd)" d="M1125.2 763.945a110.1 110.1 0 0 1-42.373-8.436 43.2 43.2 0 1 0 84.744 0 110.085 110.085 0 0 1-42.371 8.436z" transform="translate(-1080.121 -718.865)"/>
        <circle cx="39.5" cy="39.5" r="39.5" fill="url(#7dx28rnkre)" transform="translate(6 6)"/>
        <circle cx="38.505" cy="38.505" r="38.505" fill="url(#kuhexs7bgf)" transform="translate(6.574 6.574)"/>
        <circle cx="36.627" cy="36.627" r="36.627" fill="#9f17ff" transform="translate(8.452 8.452)"/>
        <circle cx="34.749" cy="34.749" r="34.749" fill="url(#yojmwggxgg)" opacity="0.9" transform="translate(10.33 10.331)"/>
        <g>
            <path fill="url(#3owc5lnpvh)" d="M1127.158 753.059V754a4.36 4.36 0 0 0-1.9 1.082 8.476 8.476 0 0 0-1.807 3.186l-10.915 28.145h-.993l-11.343-29.225a5.672 5.672 0 0 0-1.6-2.555 3.463 3.463 0 0 0-1.644-.635v-.939c.627.032 1.4.066 2.327.094s1.822.049 2.7.049q1.831 0 3.426-.049c1.065-.028 1.927-.062 2.583-.094V754a4.354 4.354 0 0 0-3.028 1q-.634.727.259 3.124l8.734 23.148-.751.8 8.169-21.227a10.819 10.819 0 0 0 .939-3.967 2.6 2.6 0 0 0-1.078-2.224 6.291 6.291 0 0 0-3.005-.659v-.939c.907.032 1.831.066 2.771.094s1.814.049 2.63.049 1.488-.015 2.019-.049 1.037-.059 1.507-.091z" transform="translate(29.982 32.042) translate(-1096.962 -753.059)"/>
        </g>
        <g>
            <path fill="#fff" d="M1127.158 752.7v.515a4.352 4.352 0 0 0-1.9 1.08 7.548 7.548 0 0 0-1.807 3.005l-11.035 28.456h-.751l-11.465-29.537a4.938 4.938 0 0 0-1.6-2.37 3.442 3.442 0 0 0-1.644-.635v-.514c.627.032 1.4.066 2.327.094s1.822.049 2.7.049q1.831 0 3.426-.049c1.065-.028 1.927-.062 2.583-.094v.515q-2.392.1-3.028.821t.259 3.124l8.734 23.15-.751.8 8.169-21.225a10.827 10.827 0 0 0 .939-3.969 2.275 2.275 0 0 0-1.078-2.042 6.292 6.292 0 0 0-3.005-.657v-.517c.907.032 1.831.066 2.771.094s1.814.049 2.63.049 1.488-.015 2.019-.049 1.037-.063 1.507-.094z" transform="translate(29.982 31.366) translate(-1096.962 -752.699)"/>
        </g>
        <g>
            <path fill="url(#zdxg5mwkti)" d="M1127.158 752.761v.939a4.373 4.373 0 0 0-1.9 1.08 7.563 7.563 0 0 0-1.807 3.005l-11.035 28.457h-.751l-11.465-29.535a4.935 4.935 0 0 0-1.6-2.372 3.462 3.462 0 0 0-1.644-.635v-.939c.627.032 1.4.064 2.327.094s1.822.047 2.7.047c1.221 0 2.363-.013 3.426-.047s1.927-.062 2.583-.094v.939q-2.392.1-3.028.823t.259 3.124l8.734 23.148-.751.8 8.169-21.227a10.819 10.819 0 0 0 .939-3.967 2.275 2.275 0 0 0-1.078-2.042 6.291 6.291 0 0 0-3.005-.659v-.939q1.361.048 2.771.094c.939.034 1.814.047 2.63.047s1.488-.013 2.019-.047 1.037-.062 1.507-.094z" transform="translate(29.982 31.482) translate(-1096.962 -752.761)"/>
        </g>
        <path fill="#fff" d="M1157.956 749.2a45.081 45.081 0 1 0-63.754 63.754z" opacity="0.2" transform="translate(-1081 -736)"/>
    </g>
</svg>
