<svg width="60" height="60" viewBox="0 0 60 60" fill="none" xmlns="http://www.w3.org/2000/svg">
<path d="M50.8101 27.3323C49.9247 27.3323 49.2062 26.6556 49.2062 25.8218V23.8097C49.2062 14 40.7342 6.02115 30.3182 6.02115C19.9023 6.02115 11.4303 14 11.4303 23.8097V25.8218C11.4303 26.6556 10.7117 27.3323 9.82635 27.3323C8.94098 27.3323 8.22241 26.6556 8.22241 25.8218V23.8097C8.22241 12.3353 18.1347 3 30.3182 3C42.5017 3 52.414 12.3353 52.414 23.8097V25.8218C52.414 26.6556 51.6955 27.3323 50.8101 27.3323Z" fill="white"/>
<path d="M34.8958 52.6253C34.1644 52.6253 33.5036 52.151 33.3336 51.4501C33.1379 50.6374 33.6768 49.8277 34.5397 49.6404C38.7998 48.725 42.6204 46.4138 45.3021 43.1299C45.8411 42.4682 46.8483 42.3444 47.5509 42.8519C48.2534 43.3595 48.3849 44.3081 47.846 44.9697C44.7119 48.8066 40.2401 51.5105 35.2551 52.583C35.1364 52.6102 35.0145 52.6223 34.8958 52.6223V52.6253Z" fill="white"/>
<path d="M9.82635 47.0028C6.06031 47.0028 3 44.1176 3 40.5738V30.743C3 27.1961 6.06352 24.314 9.82635 24.314C13.5892 24.314 16.6527 27.1992 16.6527 30.743V40.5738C16.6527 44.1206 13.5892 47.0028 9.82635 47.0028ZM9.82635 27.3321C7.83105 27.3321 6.20787 28.8608 6.20787 30.7399V40.5708C6.20787 42.4499 7.83105 43.9786 9.82635 43.9786C11.8216 43.9786 13.4448 42.4499 13.4448 40.5708V30.7399C13.4448 28.8608 11.8216 27.3321 9.82635 27.3321Z" fill="#8FC7FF"/>
<path d="M50.81 47.0028C47.0439 47.0028 43.9836 44.1176 43.9836 40.5738V30.743C43.9836 27.1961 47.0472 24.314 50.81 24.314C54.5728 24.314 57.6363 27.1992 57.6363 30.743V40.5738C57.6363 44.1206 54.5728 47.0028 50.81 47.0028ZM50.81 27.3321C48.8147 27.3321 47.1915 28.8608 47.1915 30.7399V40.5708C47.1915 42.4499 48.8147 43.9786 50.81 43.9786C52.8053 43.9786 54.4285 42.4499 54.4285 40.5708V30.7399C54.4285 28.8608 52.8053 27.3321 50.81 27.3321Z" fill="#8FC7FF"/>
<path d="M30.3183 57.3778C26.934 57.3778 24.1816 54.7856 24.1816 51.5983C24.1816 48.411 26.934 45.8188 30.3183 45.8188C33.7026 45.8188 36.455 48.411 36.455 51.5983C36.455 54.7856 33.7026 57.3778 30.3183 57.3778ZM30.3183 48.84C28.7047 48.84 27.3895 50.0787 27.3895 51.5983C27.3895 53.1179 28.7047 54.3566 30.3183 54.3566C31.9319 54.3566 33.2471 53.1179 33.2471 51.5983C33.2471 50.0787 31.9319 48.84 30.3183 48.84Z" fill="white"/>
</svg>
