<svg xmlns="http://www.w3.org/2000/svg" width="60" height="60" viewBox="0 0 60 60">
    <defs>
        <linearGradient id="au920hxv5a" x1=".5" x2=".5" y2="1" gradientUnits="objectBoundingBox">
            <stop offset=".31" stop-color="#f7f7f7"/>
            <stop offset=".999" stop-color="#b3b3b3"/>
        </linearGradient>
        <linearGradient id="6095x3ostb" x1=".5" x2=".5" y1="1" gradientUnits="objectBoundingBox">
            <stop offset=".425" stop-color="#fff"/>
            <stop offset=".999" stop-color="#ededed"/>
        </linearGradient>
        <linearGradient id="khptc17j7c" x1=".5" x2=".5" y2="1" gradientUnits="objectBoundingBox">
            <stop offset=".166" stop-color="#f1f1f1"/>
            <stop offset=".304" stop-color="#e3e3e3"/>
            <stop offset=".999" stop-color="#c8c7c8"/>
        </linearGradient>
        <linearGradient id="3d5ef8u2wd" x1=".5" x2=".5" y1="1" gradientUnits="objectBoundingBox">
            <stop offset=".465" stop-color="#f8f8f8"/>
            <stop offset=".999" stop-color="#fff"/>
        </linearGradient>
        <linearGradient id="qvscoqyzfe" x1=".25" x2=".75" y1=".067" y2=".933" gradientUnits="objectBoundingBox">
            <stop offset=".279" stop-color="#fff"/>
            <stop offset=".517" stop-color="#fbfbfb"/>
            <stop offset=".999" stop-color="#ededec"/>
        </linearGradient>
        <linearGradient id="do34gdo2qf" x1=".464" x2=".706" y1="-.159" y2="1.002" gradientUnits="objectBoundingBox">
            <stop offset="0" stop-color="#d1d1d1"/>
            <stop offset=".465" stop-color="#e9e9e9"/>
            <stop offset=".999" stop-color="#cecece"/>
        </linearGradient>
        <linearGradient id="6e5ttodv1g" x1=".321" x2=".836" y1="-.238" y2=".904" gradientUnits="objectBoundingBox">
            <stop offset="0" stop-color="#e5e5e5"/>
            <stop offset=".465" stop-color="#ddd"/>
            <stop offset=".999" stop-color="#e5e5e5"/>
        </linearGradient>
    </defs>
    <circle cx="30" cy="30" r="30" fill="url(#au920hxv5a)"/>
    <circle cx="28.667" cy="28.667" r="28.667" fill="url(#6095x3ostb)" transform="translate(1.333 1.333)"/>
    <path fill="url(#khptc17j7c)" d="M576.673 761.108a73.073 73.073 0 0 1-28.123-5.6 28.674 28.674 0 1 0 56.245 0 73.066 73.066 0 0 1-28.122 5.6z" transform="translate(-546.753 -731.028)"/>
    <circle cx="25.556" cy="25.556" r="25.556" fill="url(#3d5ef8u2wd)" transform="translate(4.363 4.524)"/>
    <circle cx="24.31" cy="24.31" r="24.31" fill="#e5e5e5" transform="translate(5.61 5.771)"/>
    <circle cx="23.063" cy="23.063" r="23.063" fill="url(#qvscoqyzfe)" transform="translate(6.857 7.018)"/>
    <g>
        <path fill="url(#do34gdo2qf)" d="M566.276 752.824v.623a2.477 2.477 0 0 0-1.168.312.868.868 0 0 0-.344.8 9.291 9.291 0 0 0 .328 2.026l4.831 14.741-.779.779 4.363-13.931.468.749-4.983 16.125h-.833l-6.433-19.086c-.271-.81-.612-1.854-1.028-2.1a2.542 2.542 0 0 0-1.122-.406v-.623c.415.021.929.044 1.543.062s1.209.032 1.791.032q1.029 0 1.916-.032c.593-.027 1.074-.05 1.45-.071zm21.785 0v.623a3.279 3.279 0 0 0-1.309.7 6.3 6.3 0 0 0-1.153 2.523l-5.73 18.371h-.834l-6.435-19.084a6.157 6.157 0 0 0-.9-2.1 1.811 1.811 0 0 0-.935-.406v-.623c.374.021.841.044 1.4.062s1.1.032 1.621.032q1.216 0 2.275-.032c.706-.019 1.278-.041 1.714-.062v.623a6.431 6.431 0 0 0-1.481.188.792.792 0 0 0-.623.686 7.081 7.081 0 0 0 .3 2.259l4.644 14.367-.436.374 4.114-12.934a8 8 0 0 0 .515-2.664c-.032-.633-.266-1.594-.7-1.854a4.126 4.126 0 0 0-1.963-.421v-.623c.6.021 1.215.044 1.839.062s1.2.032 1.745.032.987-.01 1.34-.032.68-.046.992-.067z" transform="translate(15.677 21.134) translate(-559.575 -752.824)"/>
    </g>
    <g>
        <path fill="#fff" d="M566.276 752.484v.623a2.448 2.448 0 0 0-1.168.312.868.868 0 0 0-.344.8 5.884 5.884 0 0 0 .328 1.512l4.831 14.74-.779.779 4.363-13.931.468.749-5.143 16.642h-.5l-6.607-19.6a2.817 2.817 0 0 0-1.028-1.591 2.553 2.553 0 0 0-1.122-.405v-.623q.623.032 1.543.062t1.791.031q1.029 0 1.916-.031c.594-.027 1.075-.048 1.451-.069zm21.785 0v.623a3.263 3.263 0 0 0-1.309.7 4.028 4.028 0 0 0-1.153 2.01l-5.891 18.887h-.5L572.6 755.1a3.315 3.315 0 0 0-.9-1.591 1.818 1.818 0 0 0-.935-.405v-.623q.561.032 1.4.062t1.621.031q1.216 0 2.275-.031t1.714-.062v.623a6.358 6.358 0 0 0-1.481.188.792.792 0 0 0-.623.685 4.57 4.57 0 0 0 .3 1.747l4.644 14.366-.436.374 4.114-12.934a8 8 0 0 0 .515-2.664 1.528 1.528 0 0 0-.7-1.34 4.125 4.125 0 0 0-1.963-.421v-.623q.9.032 1.839.062t1.745.031c.54 0 .987-.01 1.34-.031s.68-.039.992-.06z" transform="translate(15.677 20.711) translate(-559.575 -752.484)"/>
    </g>
    <g>
        <path fill="url(#6e5ttodv1g)" d="M566.276 752.625v.623a2.447 2.447 0 0 0-1.168.312.866.866 0 0 0-.344.8 5.865 5.865 0 0 0 .328 1.511l4.831 14.742-.779.779 4.363-13.931.468.748-5.143 16.643h-.5l-6.607-19.6a2.813 2.813 0 0 0-1.028-1.589 2.538 2.538 0 0 0-1.122-.405v-.623c.415.02.929.042 1.543.062s1.209.031 1.791.031q1.029 0 1.916-.031c.594-.03 1.075-.052 1.451-.072zm21.785 0v.623a3.272 3.272 0 0 0-1.309.7 4.038 4.038 0 0 0-1.153 2.011l-5.891 18.887h-.5l-6.607-19.6a3.31 3.31 0 0 0-.9-1.589 1.808 1.808 0 0 0-.935-.405v-.623c.374.02.841.042 1.4.062s1.1.031 1.621.031q1.216 0 2.275-.031c.706-.02 1.278-.042 1.714-.062v.623a6.367 6.367 0 0 0-1.481.187.793.793 0 0 0-.623.686 4.564 4.564 0 0 0 .3 1.745l4.644 14.368-.436.374 4.114-12.934a8 8 0 0 0 .515-2.664 1.528 1.528 0 0 0-.7-1.34 4.111 4.111 0 0 0-1.963-.421v-.623c.6.02 1.215.042 1.839.062s1.2.031 1.745.031.987-.01 1.34-.031.679-.047.991-.067z" transform="translate(15.677 20.886) translate(-559.575 -752.625)"/>
    </g>
    <path fill="#fff" d="M598.076 744.763a29.92 29.92 0 0 0-42.314 42.314z" opacity="0.2" transform="translate(-547 -735.839)"/>
</svg>
