<svg xmlns="http://www.w3.org/2000/svg" width="60" height="60" viewBox="0 0 60 60">
    <defs>
        <linearGradient id="3o7i7byvaa" x1=".5" x2=".5" y2="1" gradientUnits="objectBoundingBox">
            <stop offset=".311" stop-color="#fdde42"/>
            <stop offset="1" stop-color="#b77a00"/>
        </linearGradient>
        <linearGradient id="6alcdoiyzb" x1=".5" x2=".5" y1="1" gradientUnits="objectBoundingBox">
            <stop offset=".424" stop-color="#ffe865"/>
            <stop offset=".999" stop-color="#ffe244"/>
        </linearGradient>
        <linearGradient id="dbjwggyxtc" x1=".5" x2=".5" y2="1" gradientUnits="objectBoundingBox">
            <stop offset="0" stop-color="#fdd83b"/>
            <stop offset=".296" stop-color="#f8c011"/>
            <stop offset=".999" stop-color="#f1ab00"/>
        </linearGradient>
        <linearGradient id="drkeedbyed" x1=".75" x2=".25" y1=".933" y2=".067" gradientUnits="objectBoundingBox">
            <stop offset=".465" stop-color="#f9df31"/>
            <stop offset=".999" stop-color="#feffca"/>
        </linearGradient>
        <linearGradient id="h9nuyfm7re" x1=".5" x2=".5" y1="1" gradientUnits="objectBoundingBox">
            <stop offset=".465" stop-color="#f9df31"/>
            <stop offset=".999" stop-color="#fec700"/>
        </linearGradient>
        <linearGradient id="2dzcw3sqsf" x1=".25" x2=".75" y1=".067" y2=".933" gradientUnits="objectBoundingBox">
            <stop offset="0" stop-color="#fff0a6"/>
            <stop offset=".279" stop-color="#fff9d9"/>
            <stop offset=".616" stop-color="#ffeea9"/>
            <stop offset=".999" stop-color="#ffe05f"/>
        </linearGradient>
        <linearGradient id="ofuii5zyrg" x1=".261" x2=".902" y1=".06" y2=".988" gradientUnits="objectBoundingBox">
            <stop offset="0" stop-color="#edaf00"/>
            <stop offset=".476" stop-color="#e8bb00"/>
            <stop offset="1" stop-color="#cc8d00"/>
        </linearGradient>
        <linearGradient id="tldqlahfsh" x1=".261" x2=".902" y1=".06" y2=".988" gradientUnits="objectBoundingBox">
            <stop offset="0" stop-color="#f8c418"/>
            <stop offset=".476" stop-color="#ffd815"/>
            <stop offset=".999" stop-color="#f0ad00"/>
        </linearGradient>
    </defs>
    <circle cx="30" cy="30" r="30" fill="url(#3o7i7byvaa)"/>
    <circle cx="28.667" cy="28.667" r="28.667" fill="url(#6alcdoiyzb)" transform="translate(1.333 1.333)"/>
    <path fill="url(#dbjwggyxtc)" d="M932.75 761.123a73.268 73.268 0 0 1-28.2-5.614 28.751 28.751 0 1 0 56.4 0 73.262 73.262 0 0 1-28.2 5.614z" transform="translate(-902.75 -731.123)"/>
    <circle cx="26" cy="26" r="26" fill="url(#drkeedbyed)" transform="translate(4 4)"/>
    <circle cx="25.625" cy="25.625" r="25.625" fill="url(#h9nuyfm7re)" transform="translate(4.375 4.375)"/>
    <circle cx="24.375" cy="24.375" r="24.375" fill="#f7d300" transform="translate(5.625 5.625)"/>
    <circle cx="23.125" cy="23.125" r="23.125" fill="url(#2dzcw3sqsf)" transform="translate(6.875 6.875)"/>
    <g>
        <path fill="url(#ofuii5zyrg)" d="M929.627 751.119a7.532 7.532 0 0 1 3.281.609 14.983 14.983 0 0 1 2.344 1.422 1.2 1.2 0 0 0 .625.313q.593 0 .781-1.906h.718c-.041.771-.074 1.709-.093 2.813s-.032 2.563-.032 4.375h-.661c-.146-.875-.381-1.719-.589-2.531a5.324 5.324 0 0 0-1.031-2.094 6 6 0 0 0-2.374-1.8 7.532 7.532 0 0 0-3.032-.64 5.349 5.349 0 0 0-2.828.766 6.647 6.647 0 0 0-2.172 2.2 11.437 11.437 0 0 0-1.39 3.453 19.473 19.473 0 0 0-.485 4.547q0 5.625 1.813 8.235a6.377 6.377 0 0 0 5.625 2.609 5.289 5.289 0 0 0 1.954-.328 7.222 7.222 0 0 0 1.3-.641 2.055 2.055 0 0 0 .749-.765 2.436 2.436 0 0 0 .156-.954v-3a5.428 5.428 0 0 0-.25-1.906 1.41 1.41 0 0 0-.921-.844 7.384 7.384 0 0 0-1.985-.25v-.625c.376.021.813.038 1.314.046l1.576.033q.829.015 1.516.015 1.031 0 1.86-.031t1.39-.063v.625c-.687.043-1.125.208-1.312.5a5.086 5.086 0 0 0-.281 2.188v6.188h-.59a4.862 4.862 0 0 0-.269-1.156c-.135-.416-.34-.625-.609-.625a.835.835 0 0 0-.376.094 5.551 5.551 0 0 0-.656.438 9.053 9.053 0 0 1-2.187 1.234 7.359 7.359 0 0 1-2.687.454 9.715 9.715 0 0 1-7.546-2.954q-2.7-2.953-2.7-8.171a14.089 14.089 0 0 1 1.314-6.313 10.011 10.011 0 0 1 3.578-4.11 9.378 9.378 0 0 1 5.162-1.45z" transform="translate(20.704 18.898) translate(-919.563 -751.119)"/>
    </g>
    <g>
        <path fill="#fff" d="M929.627 750.8a7.512 7.512 0 0 1 3.281.61 14.875 14.875 0 0 1 2.344 1.421 1.2 1.2 0 0 0 .625.313q.593 0 .781-1.906h.718c-.041.771-.074 1.709-.093 2.813s-.032 2.563-.032 4.375h-.719q-.218-1.312-.531-2.531a5.333 5.333 0 0 0-1.031-2.094A6 6 0 0 0 932.6 752a7.531 7.531 0 0 0-3.032-.64 5.361 5.361 0 0 0-2.828.766 6.647 6.647 0 0 0-2.172 2.2 11.436 11.436 0 0 0-1.39 3.453 19.471 19.471 0 0 0-.485 4.547q0 5.625 1.813 8.235a6.377 6.377 0 0 0 5.625 2.609 5.292 5.292 0 0 0 1.954-.327 7.217 7.217 0 0 0 1.3-.641 2.054 2.054 0 0 0 .749-.765 2.432 2.432 0 0 0 .156-.954v-3a5.428 5.428 0 0 0-.25-1.906 1.413 1.413 0 0 0-.921-.844 7.39 7.39 0 0 0-1.985-.25v-.625c.376.021.813.038 1.314.048l1.576.031q.829.015 1.516.015 1.031 0 1.86-.031t1.39-.062v.625q-1.031.064-1.312.5a5.086 5.086 0 0 0-.281 2.188v6.188h-.625a4.632 4.632 0 0 0-.234-1.156c-.135-.416-.34-.625-.609-.625a.833.833 0 0 0-.376.094 5.711 5.711 0 0 0-.656.438 9.045 9.045 0 0 1-2.187 1.234 7.333 7.333 0 0 1-2.687.454 9.71 9.71 0 0 1-7.546-2.954q-2.7-2.953-2.7-8.171a14.092 14.092 0 0 1 1.314-6.312 10.012 10.012 0 0 1 3.578-4.11 9.379 9.379 0 0 1 5.158-1.452z" transform="translate(20.704 18.5) translate(-919.563 -750.8)"/>
    </g>
    <g>
        <path fill="url(#tldqlahfsh)" d="M929.627 750.885a7.532 7.532 0 0 1 3.281.609 14.79 14.79 0 0 1 2.344 1.422 1.2 1.2 0 0 0 .625.313q.593 0 .781-1.906h.718c-.041.771-.074 1.709-.093 2.813s-.032 2.561-.032 4.375h-.719q-.218-1.314-.531-2.531a5.339 5.339 0 0 0-1.031-2.1 6.006 6.006 0 0 0-2.374-1.8 7.531 7.531 0 0 0-3.032-.64 5.359 5.359 0 0 0-2.828.765 6.661 6.661 0 0 0-2.172 2.2 11.435 11.435 0 0 0-1.39 3.453 19.472 19.472 0 0 0-.485 4.547q0 5.625 1.813 8.234a6.374 6.374 0 0 0 5.625 2.609 5.316 5.316 0 0 0 1.954-.326 7.218 7.218 0 0 0 1.3-.641 2.054 2.054 0 0 0 .749-.765 2.44 2.44 0 0 0 .156-.954v-3a5.427 5.427 0 0 0-.25-1.906 1.414 1.414 0 0 0-.921-.845 7.447 7.447 0 0 0-1.985-.249v-.625c.376.021.813.036 1.314.046l1.576.032q.829.013 1.516.014c.688 0 1.307-.009 1.86-.03s1.015-.041 1.39-.062v.625q-1.031.062-1.312.5a5.086 5.086 0 0 0-.281 2.188v6.188h-.625a4.631 4.631 0 0 0-.234-1.156c-.135-.416-.34-.625-.609-.625a.816.816 0 0 0-.376.094 5.529 5.529 0 0 0-.656.438 9.051 9.051 0 0 1-2.187 1.234 7.36 7.36 0 0 1-2.687.452 9.714 9.714 0 0 1-7.546-2.952q-2.7-2.953-2.7-8.171a14.088 14.088 0 0 1 1.314-6.312 10 10 0 0 1 3.578-4.11 9.378 9.378 0 0 1 5.162-1.445z" transform="translate(20.704 18.606) translate(-919.563 -750.885)"/>
    </g>
    <path fill="#fff" d="M954.214 744.786a30 30 0 0 0-42.428 42.428z" opacity="0.2" transform="translate(-903 -736)"/>
</svg>
