<svg xmlns="http://www.w3.org/2000/svg" width="60" height="60" viewBox="0 0 60 60">
    <defs>
        <linearGradient id="7tmxeg7h5a" x1=".5" x2=".5" y2="1" gradientUnits="objectBoundingBox">
            <stop offset=".31" stop-color="#d8d8d7"/>
            <stop offset=".999" stop-color="#606061"/>
        </linearGradient>
        <linearGradient id="if0bl5styb" x1=".5" x2=".5" y1="1" gradientUnits="objectBoundingBox">
            <stop offset=".424" stop-color="#e7e8e8"/>
            <stop offset=".999" stop-color="#dbdbdb"/>
        </linearGradient>
        <linearGradient id="byz1ca7dnc" x1=".5" x2=".5" y2="1" gradientUnits="objectBoundingBox">
            <stop offset="0" stop-color="#dadbdb"/>
            <stop offset=".296" stop-color="#cecdce"/>
            <stop offset=".999" stop-color="#888788"/>
        </linearGradient>
        <linearGradient id="2mr5uy0brd" x1=".75" x2=".25" y1=".933" y2=".067" gradientUnits="objectBoundingBox">
            <stop offset=".465" stop-color="#dddcdc"/>
            <stop offset=".999" stop-color="#fff"/>
        </linearGradient>
        <linearGradient id="99gx8wwxme" x1=".5" x2=".5" y1="1" gradientUnits="objectBoundingBox">
            <stop offset=".465" stop-color="#dddcdc"/>
            <stop offset=".999" stop-color="#d3d4d4"/>
        </linearGradient>
        <linearGradient id="2mjo93gmif" x1=".25" x2=".75" y1=".067" y2=".933" gradientUnits="objectBoundingBox">
            <stop offset=".279" stop-color="#fff"/>
            <stop offset=".517" stop-color="#fbfbfb"/>
            <stop offset=".999" stop-color="#d8d8d7"/>
        </linearGradient>
        <linearGradient id="d23zl45y9g" x1=".051" x2=".883" y1=".086" y2=".929" gradientUnits="objectBoundingBox">
            <stop offset=".229" stop-color="#b1b0b1"/>
            <stop offset=".518" stop-color="#cfcecf"/>
            <stop offset=".999" stop-color="#717172"/>
        </linearGradient>
        <linearGradient id="gmpfsgc6fh" x1=".051" x2=".884" y1=".086" y2=".929" gradientUnits="objectBoundingBox">
            <stop offset=".229" stop-color="#d8d8d8"/>
            <stop offset=".517" stop-color="#e2e2e2"/>
            <stop offset=".999" stop-color="#8b8a8b"/>
        </linearGradient>
    </defs>
    <circle cx="30" cy="30" r="30" fill="url(#7tmxeg7h5a)"/>
    <circle cx="28.667" cy="28.667" r="28.667" fill="url(#if0bl5styb)" transform="translate(1.333 1.333)"/>
    <path fill="url(#byz1ca7dnc)" d="M754.75 761.123a73.269 73.269 0 0 1-28.2-5.614 28.751 28.751 0 1 0 56.4 0 73.263 73.263 0 0 1-28.2 5.614z" transform="translate(-724.75 -731.123)"/>
    <circle cx="26" cy="26" r="26" fill="url(#2mr5uy0brd)" transform="translate(4 4)"/>
    <circle cx="25.625" cy="25.625" r="25.625" fill="url(#99gx8wwxme)" transform="translate(4.375 4.375)"/>
    <circle cx="24.375" cy="24.375" r="24.375" fill="#cecece" transform="translate(5.625 5.625)"/>
    <circle cx="23.125" cy="23.125" r="23.125" fill="url(#2mjo93gmif)" transform="translate(6.875 6.875)"/>
    <g>
        <path fill="url(#d23zl45y9g)" d="M749.686 751.038a6.1 6.1 0 0 1 2.375.359 8.515 8.515 0 0 1 1.438.8c.25.146.453.255.609.329a1.057 1.057 0 0 0 .454.109c.333 0 .563-.458.686-1.375h.7c-.02.355-.031.776-.062 1.266s-.052 1.135-.062 1.938-.015 1.859-.015 3.171h-.7a9.058 9.058 0 0 0-.676-2.875 5.533 5.533 0 0 0-1.641-2.25 4.352 4.352 0 0 0-2.827-.875 3.865 3.865 0 0 0-2.735 1 3.413 3.413 0 0 0-1.078 2.626 3.8 3.8 0 0 0 .719 2.357 7.207 7.207 0 0 0 1.921 1.719q1.2.767 2.61 1.641a32.469 32.469 0 0 1 2.891 1.985 8.314 8.314 0 0 1 2 2.171 5.362 5.362 0 0 1 .735 2.875 5.7 5.7 0 0 1-.906 3.313 5.583 5.583 0 0 1-2.406 1.969 8.181 8.181 0 0 1-3.314.656 7.455 7.455 0 0 1-2.624-.375 11.179 11.179 0 0 1-1.656-.781 2.265 2.265 0 0 0-1.062-.437c-.334 0-.6.459-.727 1.375h-.7c.041-.437.094-.954.1-1.546s.021-1.37.031-2.329.016-2.166.016-3.625h.719a12.941 12.941 0 0 0 .7 3.5 5.8 5.8 0 0 0 1.781 2.61 4.9 4.9 0 0 0 3.2.984 4.449 4.449 0 0 0 2.8-.984 3.768 3.768 0 0 0 1.266-3.171 4.128 4.128 0 0 0-1.345-3.157 21.4 21.4 0 0 0-3.53-2.562q-1.47-.906-2.75-1.844a7.719 7.719 0 0 1-2.047-2.172 5.554 5.554 0 0 1-.765-2.984 5.267 5.267 0 0 1 .827-3.047 4.988 4.988 0 0 1 2.171-1.781 7.229 7.229 0 0 1 2.879-.583z" transform="translate(23.286 18.798) translate(-743.629 -751.038)"/>
    </g>
    <g>
        <path fill="#fff" d="M749.681 750.775a6.127 6.127 0 0 1 2.375.359 8.61 8.61 0 0 1 1.438.8q.375.217.609.329a1.077 1.077 0 0 0 .454.109c.333 0 .563-.459.686-1.375h.72q-.032.531-.079 1.266c-.03.489-.052 1.135-.062 1.938s-.015 1.859-.015 3.171h-.72a8.992 8.992 0 0 0-.655-2.875 5.526 5.526 0 0 0-1.641-2.25 4.345 4.345 0 0 0-2.827-.875 3.86 3.86 0 0 0-2.735 1 3.413 3.413 0 0 0-1.078 2.625 3.8 3.8 0 0 0 .719 2.359 7.2 7.2 0 0 0 1.921 1.719q1.2.767 2.61 1.64a32.984 32.984 0 0 1 2.891 1.985 8.338 8.338 0 0 1 2 2.173 5.357 5.357 0 0 1 .735 2.874 5.7 5.7 0 0 1-.906 3.314 5.591 5.591 0 0 1-2.406 1.969 8.18 8.18 0 0 1-3.314.655 7.459 7.459 0 0 1-2.624-.374 11.431 11.431 0 0 1-1.656-.781 2.251 2.251 0 0 0-1.062-.437q-.5 0-.687 1.375h-.719q.062-.656.077-1.548t.031-2.327q.017-1.438.016-3.625h.719a12.935 12.935 0 0 0 .7 3.5 5.789 5.789 0 0 0 1.781 2.61 4.9 4.9 0 0 0 3.2.984 4.442 4.442 0 0 0 2.8-.984 3.767 3.767 0 0 0 1.266-3.171 4.127 4.127 0 0 0-1.345-3.156 21.333 21.333 0 0 0-3.53-2.562q-1.47-.906-2.75-1.845a7.732 7.732 0 0 1-2.047-2.171 5.555 5.555 0 0 1-.765-2.985 5.266 5.266 0 0 1 .827-3.046 4.981 4.981 0 0 1 2.171-1.781 7.232 7.232 0 0 1 2.877-.586z" transform="translate(23.313 18.469) translate(-743.65 -750.775)"/>
    </g>
    <g>
        <path fill="url(#gmpfsgc6fh)" d="M749.681 750.838a6.129 6.129 0 0 1 2.375.359 8.422 8.422 0 0 1 1.438.8c.25.145.453.255.609.327a1.057 1.057 0 0 0 .454.109c.333 0 .563-.458.686-1.374h.72c-.021.354-.048.776-.079 1.265s-.052 1.136-.062 1.938-.015 1.86-.015 3.171h-.72a8.993 8.993 0 0 0-.655-2.874 5.517 5.517 0 0 0-1.641-2.25 4.345 4.345 0 0 0-2.827-.875 3.864 3.864 0 0 0-2.735 1 3.415 3.415 0 0 0-1.078 2.626 3.8 3.8 0 0 0 .719 2.359 7.251 7.251 0 0 0 1.921 1.719q1.2.767 2.61 1.64a32.719 32.719 0 0 1 2.891 1.985 8.314 8.314 0 0 1 2 2.171 5.364 5.364 0 0 1 .735 2.875 5.708 5.708 0 0 1-.906 3.314 5.592 5.592 0 0 1-2.406 1.969 8.2 8.2 0 0 1-3.314.655 7.426 7.426 0 0 1-2.624-.375 11.179 11.179 0 0 1-1.656-.781 2.261 2.261 0 0 0-1.062-.436q-.5 0-.687 1.374h-.719q.062-.654.077-1.546t.031-2.327q.017-1.438.016-3.626h.719a12.943 12.943 0 0 0 .7 3.5 5.8 5.8 0 0 0 1.781 2.61 4.9 4.9 0 0 0 3.2.984 4.449 4.449 0 0 0 2.8-.984 3.767 3.767 0 0 0 1.266-3.171 4.124 4.124 0 0 0-1.345-3.156 21.256 21.256 0 0 0-3.53-2.562q-1.47-.908-2.75-1.845a7.732 7.732 0 0 1-2.047-2.171 5.555 5.555 0 0 1-.765-2.985 5.263 5.263 0 0 1 .827-3.046 4.971 4.971 0 0 1 2.171-1.781 7.209 7.209 0 0 1 2.877-.585z" transform="translate(23.313 18.548) translate(-743.65 -750.838)"/>
    </g>
    <path fill="#fff" d="M776.214 744.786a30 30 0 0 0-42.428 42.428z" opacity="0.2" transform="translate(-725 -736)"/>
</svg>
