<svg width="80" height="80" viewBox="0 0 80 80" fill="none" xmlns="http://www.w3.org/2000/svg">
<path opacity="0.6" d="M40 78C17.9086 78 -1.60416e-05 60.0914 -1.70072e-05 38L80 38C80 60.0914 62.0914 78 40 78Z" fill="#C4E7D8"/>
<path d="M13.75 51.25L66.25 51.25" stroke="#444444" stroke-width="2" stroke-linecap="round"/>
<g clip-path="url(#clip0_1828_11134)">
<path d="M53.125 41.2881C53.125 48.8746 46.7136 54.4879 40 54.4879C33.2864 54.4879 26.875 48.8746 26.875 41.2881C26.875 33.3018 36.4039 23.866 39.2232 21.2489C39.6672 20.8367 40.3328 20.8367 40.7768 21.2489C43.5961 23.866 53.125 33.3018 53.125 41.2881Z" fill="white"/>
<ellipse cx="39.9999" cy="44.7745" rx="10.1074" ry="9.46199" fill="#2FCAB0"/>
<path d="M47.7168 41.6396C47.3926 44.2965 45.5722 46.4913 43.1237 47.356" stroke="#444444" stroke-width="2" stroke-linecap="round"/>
<path d="M52.125 41.2881C52.125 48.2871 46.1972 53.4879 40 53.4879C33.8028 53.4879 27.875 48.2871 27.875 41.2881C27.875 37.638 30.0811 33.5073 32.7948 29.851C35.4774 26.2368 38.5147 23.271 39.9036 21.9818C39.9391 21.9488 39.9729 21.9398 40 21.9398C40.0271 21.9398 40.0609 21.9488 40.0964 21.9818C41.4853 23.271 44.5226 26.2368 47.2052 29.851C49.9189 33.5073 52.125 37.638 52.125 41.2881Z" stroke="#444444" stroke-width="2"/>
</g>
<path d="M43.124 31.6329C46.3501 30.6602 47.9563 28.8004 48.7502 25.4952C49.5442 28.8004 51.1504 30.6602 54.3764 31.6329C51.1504 32.6056 49.5442 34.4654 48.7502 37.7706C47.9563 34.4654 46.3501 32.6056 43.124 31.6329Z" fill="white" stroke="#444444" stroke-width="2" stroke-linejoin="round"/>
<path d="M16.5117 41.7108C18.5827 41.0863 19.6138 39.8924 20.1235 37.7706C20.6332 39.8924 21.6643 41.0863 23.7353 41.7108C21.6643 42.3352 20.6332 43.5291 20.1235 45.6509C19.6138 43.5291 18.5827 42.3352 16.5117 41.7108Z" fill="#444444" stroke="#444444" stroke-width="0.6" stroke-linejoin="round"/>
<path d="M55.8291 19.6373L57.2811 21.0893" stroke="#444444" stroke-width="2" stroke-linecap="round"/>
<path d="M55.8291 25.4954L57.2811 24.0434" stroke="#444444" stroke-width="2" stroke-linecap="round"/>
<path d="M61.6738 19.6373L60.2218 21.0893" stroke="#444444" stroke-width="2" stroke-linecap="round"/>
<path d="M61.6738 25.4954L60.2218 24.0434" stroke="#444444" stroke-width="2" stroke-linecap="round"/>
<defs>
<clipPath id="clip0_1828_11134">
<rect width="26.25" height="30" fill="white" transform="translate(26.875 20.3125)"/>
</clipPath>
</defs>
</svg>
