<svg width="80" height="80" viewBox="0 0 80 80" fill="none" xmlns="http://www.w3.org/2000/svg">
<path opacity="0.6" d="M40 76C17.9086 76 -7.8281e-07 58.0914 -1.74846e-06 36L80 36C80 58.0914 62.0914 76 40 76Z" fill="#C8E8E4"/>
<path fill-rule="evenodd" clip-rule="evenodd" d="M36.2373 44.7015L36.2451 44.7144H19.5704C18.5616 43.3714 17.9639 41.702 17.9639 39.893C17.9639 35.455 21.5616 31.8573 25.9996 31.8573C26.9388 31.8573 27.8404 32.0184 28.6782 32.3145L28.8345 32.5708C29.7754 26.6997 34.864 22.2142 41.0001 22.2142C47.8051 22.2142 53.3216 27.7307 53.3216 34.5357C53.3216 35.7154 53.1558 36.8565 52.8462 37.9367L54.1076 36.6301C54.4755 36.5661 54.8534 36.5328 55.2388 36.5328C58.9875 36.5328 62.0264 39.6808 62.0264 43.5641C62.0264 44.3859 61.8903 45.1748 61.6401 45.9078H45.1514L46.3159 44.7015H36.2373Z" fill="white"/>
<path fill-rule="evenodd" clip-rule="evenodd" d="M49.0521 45C50.2776 43.3399 51.0021 41.2872 51.0021 39.0654C51.0021 33.5411 46.5238 29.0629 40.9996 29.0629C35.4753 29.0629 30.9971 33.5411 30.9971 39.0654C30.9971 41.2872 31.7215 43.3399 32.947 45H49.0521Z" fill="#2FCAB0"/>
<path d="M34.1114 44.9992C30.9114 42.8028 28.8125 39.1184 28.8125 34.9438C28.8125 28.2129 34.269 22.7563 41 22.7563C47.731 22.7563 53.1875 28.2129 53.1875 34.9438C53.1875 39.1184 51.0886 42.8028 47.8886 44.9992" stroke="#444444" stroke-width="2" stroke-linecap="round"/>
<circle cx="28.5936" cy="20.5223" r="1.5223" fill="#444444"/>
<path d="M29.0932 32.3144C28.2554 32.0183 27.3538 31.8572 26.4146 31.8572C21.9766 31.8572 18.3789 35.4549 18.3789 39.8929C18.3789 41.7019 18.9767 43.3713 19.9855 44.7143" stroke="#444444" stroke-width="2" stroke-linecap="round"/>
<path d="M25.1962 36.5243C24.0452 36.8955 23.1373 37.808 22.7725 38.9619" stroke="#444444" stroke-width="2" stroke-linecap="round"/>
<path d="M62.2236 44.5469C62.2236 40.2753 58.9857 36.8125 54.9915 36.8125C54.5808 36.8125 54.1781 36.8491 53.7861 36.9194" stroke="#444444" stroke-width="2" stroke-linecap="round"/>
<ellipse cx="59.7886" cy="25.1607" rx="4.28571" ry="4.28571" fill="white" stroke="#444444" stroke-width="2"/>
<path d="M40.2877 27.8C37.6308 28.1242 35.4359 29.9447 34.5713 32.3932" stroke="#444444" stroke-width="2" stroke-linecap="round"/>
<ellipse cx="15.286" cy="30.25" rx="2.67857" ry="2.67857" fill="white" stroke="#444444" stroke-width="2"/>
<circle cx="65.7252" cy="37.4" r="1.52502" fill="#444444"/>
<path d="M14.75 45.25L67.25 45.25" stroke="#444444" stroke-width="2" stroke-linecap="round"/>
</svg>
