<svg width="106" height="106" viewBox="0 0 106 106" fill="none" xmlns="http://www.w3.org/2000/svg">
<circle cx="53" cy="53" r="53" fill="#DDDDDD"/>
<path d="M53.0112 40.1719C53.0006 40.1719 52.9899 40.1719 52.9793 40.1719C50.6359 40.1854 47.0911 41.3627 46.8053 46.1535C46.7373 47.2917 47.0306 50.2663 48.2679 52.0924C48.3978 52.3481 48.5371 52.5806 48.6703 52.8031C49.0142 53.3772 49.318 53.8844 49.318 54.5517C49.318 55.5905 48.936 55.94 48.2679 56.4827C47.1995 57.3506 46.2364 57.8015 45.1775 58.2972C44.9787 58.3903 44.7764 58.485 44.5695 58.5843C42.955 59.3591 41.5963 60.1588 41.5963 61.7799V63.3664C41.5963 64.1451 42.1883 65.1457 43.4289 65.1457L62.5708 65.1456C63.8114 65.1456 64.4034 64.145 64.4034 63.3663V61.7798C64.4034 60.1587 63.0448 59.3591 61.4303 58.5842C61.2233 58.4849 61.0211 58.3902 60.8222 58.2971C59.7634 57.8014 58.8002 57.3505 57.7319 56.4827C57.0638 55.94 56.6817 55.5905 56.6817 54.5516C56.6817 53.8843 56.9856 53.3771 57.3295 52.803C57.4627 52.5806 57.6019 52.3481 57.7319 52.0924C58.9692 50.2662 59.2624 47.2916 59.1944 46.1534C58.9087 41.3626 55.3639 40.1856 53.0204 40.172C53.0174 40.172 53.0143 40.1719 53.0112 40.1719Z" fill="white" stroke="#BBBBBB" stroke-width="2"/>
<path d="M33 53.45L73 53.45" stroke="#BBBBBB" stroke-width="2" stroke-linecap="round"/>
<path d="M39.0003 33.45H35.0003C33.8958 33.45 33.0003 34.3454 33.0003 35.45V39.45" stroke="#BBBBBB" stroke-width="2" stroke-linecap="round" stroke-linejoin="round"/>
<path d="M67.0004 33.45H71.0004C72.1049 33.45 73.0004 34.3454 73.0004 35.45V39.45" stroke="#BBBBBB" stroke-width="2" stroke-linecap="round" stroke-linejoin="round"/>
<path d="M67.0004 73.45L71.0004 73.45C72.1049 73.45 73.0004 72.5545 73.0004 71.45L73.0004 67.45" stroke="#BBBBBB" stroke-width="2" stroke-linecap="round" stroke-linejoin="round"/>
<path d="M39.0003 73.45L35.0003 73.45C33.8958 73.45 33.0003 72.5545 33.0003 71.45L33.0003 67.45" stroke="#BBBBBB" stroke-width="2" stroke-linecap="round" stroke-linejoin="round"/>
</svg>
