<svg width="106" height="106" viewBox="0 0 106 106" fill="none" xmlns="http://www.w3.org/2000/svg">
<circle cx="53" cy="53" r="53" fill="#DDDDDD"/>
<rect x="37" y="28.45" width="32" height="49" rx="4" fill="white" stroke="#BBBBBB" stroke-width="2"/>
<rect x="41" y="36.45" width="24" height="37" rx="3" fill="#EEEEEE"/>
<g filter="url(#filter0_d_1828_11200)">
<rect x="29" y="53.45" width="48" height="16" rx="8" fill="#BBBBBB"/>
</g>
<path d="M44.8053 57.778H43.7413V63.146H44.8053V57.778ZM43.1973 61.194C41.9973 60.81 41.4853 59.866 41.4853 58.89V58.178H40.4133V58.89C40.4133 59.874 39.8853 60.906 38.6613 61.322L39.1973 62.162C40.0533 61.866 40.6293 61.266 40.9653 60.522C41.2853 61.21 41.8453 61.754 42.6613 62.034L43.1973 61.194ZM40.9573 64.17V62.634H39.9013V65.01H44.9893V64.17H40.9573ZM49.9646 59.738V60.586H51.1086V62.218H52.1646V57.77H51.1086V59.738H49.9646ZM50.4286 61.178C49.2526 60.866 48.7246 60.122 48.7086 59.362H50.1646V58.53H48.7086V57.746H47.6526V58.53H46.2126V59.362H47.6526C47.6366 60.186 47.1246 61.018 45.9566 61.354L46.4526 62.17C47.3086 61.922 47.8846 61.402 48.2126 60.73C48.5486 61.314 49.1246 61.77 49.9486 61.986L50.4286 61.178ZM49.6766 64.33C48.7006 64.33 48.2046 64.146 48.2046 63.746C48.2046 63.346 48.7006 63.154 49.6766 63.154C50.6366 63.154 51.1406 63.346 51.1406 63.746C51.1406 64.146 50.6366 64.33 49.6766 64.33ZM49.6766 62.346C48.1086 62.346 47.1486 62.858 47.1486 63.746C47.1486 64.626 48.1086 65.138 49.6766 65.138C51.2366 65.138 52.1966 64.626 52.1966 63.746C52.1966 62.858 51.2366 62.346 49.6766 62.346ZM55.452 62.77C54.956 62.77 54.588 62.434 54.588 61.874C54.588 61.314 54.956 60.97 55.452 60.97C55.948 60.97 56.308 61.314 56.308 61.866C56.308 62.434 55.948 62.77 55.452 62.77ZM55.452 60.114C54.38 60.114 53.58 60.842 53.58 61.866C53.58 62.906 54.38 63.634 55.452 63.634C56.516 63.634 57.308 62.906 57.308 61.866C57.308 60.842 56.516 60.114 55.452 60.114ZM55.972 57.898H54.916V58.858H53.284V59.698H57.572V58.858H55.972V57.898ZM60.164 60.65H59.108V57.77H58.052V65.138H59.108V61.522H60.164V60.65ZM61.0514 58.53V59.37H63.5074C63.3554 61.002 62.5394 62.154 60.6594 63.058L61.2114 63.89C63.8274 62.626 64.5874 60.786 64.5874 58.53H61.0514ZM65.7154 57.762V65.13H66.7794V57.762H65.7154Z" fill="white"/>
<path d="M50.5 33.45H55.5" stroke="#BBBBBB" stroke-width="2" stroke-linecap="round"/>
<defs>
<filter id="filter0_d_1828_11200" x="27" y="53.45" width="52" height="20" filterUnits="userSpaceOnUse" color-interpolation-filters="sRGB">
<feFlood flood-opacity="0" result="BackgroundImageFix"/>
<feColorMatrix in="SourceAlpha" type="matrix" values="0 0 0 0 0 0 0 0 0 0 0 0 0 0 0 0 0 0 127 0" result="hardAlpha"/>
<feOffset dy="2"/>
<feGaussianBlur stdDeviation="1"/>
<feComposite in2="hardAlpha" operator="out"/>
<feColorMatrix type="matrix" values="0 0 0 0 0 0 0 0 0 0 0 0 0 0 0 0 0 0 0.1 0"/>
<feBlend mode="normal" in2="BackgroundImageFix" result="effect1_dropShadow_1828_11200"/>
<feBlend mode="normal" in="SourceGraphic" in2="effect1_dropShadow_1828_11200" result="shape"/>
</filter>
</defs>
</svg>
