<svg width="24" height="25" viewBox="0 0 24 25" fill="none" xmlns="http://www.w3.org/2000/svg">
<g clip-path="url(#clip0)">
<path d="M13.6094 8.64447L7.05341 15.2005C6.58158 15.6874 6.32013 16.3404 6.32549 17.0185C6.33084 17.6965 6.60257 18.3452 7.08203 18.8247C7.56149 19.3042 8.21024 19.5759 8.88828 19.5812C9.56633 19.5866 10.2193 19.3252 10.7063 18.8533L19.3054 10.266C19.7201 9.86126 20.0504 9.37818 20.277 8.84481C20.5036 8.31145 20.6222 7.7384 20.6257 7.15889C20.6292 6.57938 20.5176 6.00493 20.2975 5.46885C20.0773 4.93277 19.753 4.44572 19.3432 4.03594C18.9334 3.62616 18.4464 3.30179 17.9103 3.08164C17.3742 2.86149 16.7998 2.74994 16.2202 2.75346C15.6407 2.75697 15.0677 2.87548 14.5343 3.10212C14.0009 3.32876 13.5179 3.65901 13.1131 4.07373L4.462 12.7248C3.87678 13.2933 3.41042 13.9725 3.09002 14.7229C2.76963 15.4733 2.60159 16.2798 2.59569 17.0957C2.58979 17.9116 2.74613 18.7205 3.05564 19.4754C3.36514 20.2303 3.82163 20.9162 4.39856 21.4931C4.97549 22.0701 5.66135 22.5266 6.41627 22.8361C7.17119 23.1456 7.9801 23.3019 8.79599 23.296C9.61187 23.2901 10.4184 23.1221 11.1688 22.8017C11.9192 22.4813 12.5983 22.0149 13.1669 21.4297L21.251 13.3456" stroke="black" stroke-width="2" stroke-miterlimit="10" stroke-linecap="round"/>
</g>
<defs>
<clipPath id="clip0">
<rect width="24" height="24" fill="white" transform="translate(0 0.875)"/>
</clipPath>
</defs>
</svg>
