<svg width="86" height="86" viewBox="0 0 86 86" fill="none" xmlns="http://www.w3.org/2000/svg">
<path d="M23 74L5 56L5.58333 56.5833" stroke="white" stroke-width="4" stroke-miterlimit="10" stroke-linecap="round"/>
<path d="M42 34L59 52L57.796 50.7253" stroke="white" stroke-width="4" stroke-miterlimit="10" stroke-linecap="round"/>
<path d="M44 52L27 34L27.4111 34.4353" stroke="white" stroke-width="4" stroke-miterlimit="10" stroke-linecap="round"/>
<path d="M80.5517 29.5268L81 30L64 12" stroke="white" stroke-width="4" stroke-miterlimit="10" stroke-linecap="round"/>
<path d="M37 60.2197C39.9703 60.7435 42.9823 61.0046 46 60.9999C49.9782 60.9999 53.7936 59.4459 56.6066 56.6798C59.4196 53.9136 61 50.1619 61 46.25C61 31.5 55 25.6 55 10.85C55.0041 7.64696 56.0858 4.53527 58.0765 2" stroke="white" stroke-width="4" stroke-miterlimit="10" stroke-linecap="round"/>
<path d="M20 55.7834C17.0301 55.2589 14.0179 54.9967 11 55C7.74505 55.0093 4.5832 56.0632 2 58" stroke="white" stroke-width="4" stroke-miterlimit="10" stroke-linecap="round"/>
<path d="M49 25.7803C46.0297 25.2565 43.0177 24.9954 40 25.0001C36.0218 25.0001 32.2064 26.5541 29.3934 29.3202C26.5804 32.0864 25 35.8381 25 39.75C25 54.5 31 60.4 31 75.15C30.9959 78.353 29.9142 81.4647 27.9235 84" stroke="white" stroke-width="4" stroke-miterlimit="10" stroke-linecap="round"/>
<path d="M66 30.2166C68.9699 30.7411 71.9821 31.0033 75 31C78.2549 30.9907 81.4168 29.9368 84 28" stroke="white" stroke-width="4" stroke-miterlimit="10" stroke-linecap="round"/>
<path fill-rule="evenodd" clip-rule="evenodd" d="M55.9171 34.768C56.3536 34.6441 56.8078 34.8976 56.9316 35.3341C56.9944 35.5554 56.9602 35.7812 56.8544 35.9662C57.0795 36.617 57.4179 37.2627 57.7323 37.6493C58.3688 37.6061 59.0257 37.6395 59.6881 37.7525C60.0653 37.4682 60.5529 36.7346 60.8829 35.9744C60.7807 35.778 60.7578 35.5411 60.8387 35.3165C60.9926 34.8896 61.4633 34.6683 61.8901 34.8222L62.4475 35.0231C62.8744 35.1769 63.0957 35.6476 62.9418 36.0745C62.8548 36.3158 62.6665 36.4915 62.4421 36.5707C62.2555 37.1827 62.0684 37.9602 62.1005 38.5212C62.3944 38.6606 62.6857 38.8167 62.9731 38.9898C63.3997 39.2468 63.7618 39.5343 64.0753 39.8464C64.4443 40.0134 65.526 39.668 66.4154 39.1508C66.4192 38.8867 66.5499 38.6293 66.7875 38.474C67.1673 38.2257 67.6764 38.3324 67.9246 38.7121L68.2488 39.2081C68.497 39.5879 68.3904 40.097 68.0106 40.3452C67.8297 40.4635 67.6194 40.5012 67.422 40.4672C66.7687 40.9253 65.8452 41.6594 65.6319 42.2516C65.7964 42.6188 65.9496 42.9956 66.1047 43.3769C66.143 43.4712 66.1815 43.5658 66.2203 43.6605C66.2737 43.7911 66.321 43.9211 66.3626 44.0505C66.7613 44.329 67.6478 44.5714 68.4946 44.6428C68.6486 44.4255 68.9052 44.2871 69.1913 44.2961C69.6448 44.3104 70.0008 44.6896 69.9865 45.1431L69.9678 45.7353C69.9535 46.1888 69.5743 46.5448 69.1208 46.5305C68.9085 46.5238 68.7176 46.4371 68.576 46.3003C67.9582 46.3006 67.1091 46.3434 66.5177 46.5318C66.3648 47.4079 66.0184 48.2648 65.5859 49.1128C65.7543 49.5759 66.2824 50.2698 66.8791 50.8204C67.1287 50.7515 67.4069 50.8014 67.6217 50.9789C67.9715 51.2678 68.0207 51.7857 67.7318 52.1354L67.3544 52.5922C67.0654 52.942 66.5476 52.9913 66.1978 52.7023C66.0281 52.5621 65.9291 52.368 65.9052 52.1654C65.3044 51.7036 64.4102 51.0971 63.7908 51.0149C63.2845 51.3882 62.7034 51.7341 62.067 52.0036C61.7742 52.234 61.7606 53.3385 61.9706 54.3512C62.1552 54.4535 62.3005 54.6264 62.3627 54.8454C62.4865 55.2819 62.2331 55.7361 61.7966 55.86L61.2266 56.0217C60.7901 56.1455 60.3359 55.8921 60.212 55.4556C60.1402 55.2022 60.1954 54.9429 60.3398 54.7456C60.0347 53.8646 59.5381 52.7496 58.9781 52.6747L59.2203 52.5557C58.6052 52.5325 57.9707 52.4132 57.3276 52.1708C56.7777 52.2628 56.0992 53.167 55.6364 53.8961C55.7592 54.1335 55.7639 54.4262 55.6232 54.6766C55.401 55.0722 54.9002 55.2127 54.5046 54.9904L53.9881 54.7002C53.5925 54.478 53.452 53.9772 53.6742 53.5817C53.7742 53.4036 53.9307 53.2773 54.1086 53.2124C54.5015 52.4092 54.8196 51.3326 54.8202 50.7507C54.4194 50.4829 54.0314 50.205 53.6678 49.9127L53.7129 50.0197C53.2147 49.6917 52.0097 50.2848 51.1946 50.7667C51.1653 50.9973 51.0389 51.2141 50.829 51.3512C50.4493 51.5994 49.9402 51.4928 49.6919 51.113L49.3678 50.617C49.1195 50.2373 49.2262 49.7282 49.606 49.4799C49.813 49.3446 50.0585 49.3148 50.2792 49.3771C50.9594 48.8745 51.5804 48.212 51.7692 47.7723C51.6515 47.5556 51.5506 47.3312 51.4687 47.0982C51.3329 46.7116 51.2508 46.3005 51.2138 45.8762C50.7245 45.6748 50.0249 45.572 49.4379 45.5206C49.2817 45.6927 49.0539 45.7977 48.8034 45.7898C48.3499 45.7755 47.9939 45.3963 48.0082 44.9429L48.0269 44.3506C48.0412 43.8972 48.4204 43.5411 48.8739 43.5554C49.1148 43.563 49.3282 43.6736 49.4732 43.8436C50.2401 43.8089 51.0206 43.6437 51.4271 43.4214C51.5719 42.8103 51.7745 42.2161 52.0111 41.6714L51.966 41.7094C52.1346 41.1252 51.1709 40.1236 50.4644 39.4897C50.219 39.5521 49.9481 39.5006 49.7379 39.327C49.3881 39.038 49.3388 38.5202 49.6278 38.1704L50.0052 37.7136C50.2941 37.3639 50.8119 37.3146 51.1617 37.6036C51.3386 37.7497 51.4387 37.9544 51.4569 38.1663C52.3189 38.8253 53.4461 39.3311 53.8118 39.1604C54.3153 38.7397 54.8845 38.403 55.5 38.1537C55.5045 37.6333 55.3918 37.0015 55.2724 36.4852C55.0414 36.3948 54.8539 36.2012 54.781 35.9442C54.6572 35.5077 54.9106 35.0535 55.3471 34.9297L55.9171 34.768Z" fill="#2E87EF"/>
<path d="M62.9616 39.033C64.84 40.1643 65.4636 41.891 66.2 43.6911C67.0268 45.7123 66.3919 47.5905 65.4087 49.4321C64.1102 51.2107 60.2181 54.0433 56.2305 51.6417C54.2107 50.4252 52.1757 49.0758 51.4884 47.1194C50.8187 45.2133 51.4584 42.707 52.3757 40.9887C54.2345 37.507 58.9739 36.6313 62.9616 39.033Z" fill="#2E87EF"/>
<path fill-rule="evenodd" clip-rule="evenodd" d="M55.9171 34.768C56.3536 34.6441 56.8078 34.8976 56.9316 35.3341C56.9944 35.5554 56.9602 35.7812 56.8544 35.9662C57.0795 36.617 57.4179 37.2627 57.7323 37.6493C58.3688 37.6061 59.0257 37.6395 59.6881 37.7525C60.0653 37.4682 60.5529 36.7346 60.8829 35.9744C60.7807 35.778 60.7578 35.5411 60.8387 35.3165C60.9926 34.8896 61.4633 34.6683 61.8901 34.8222L62.4475 35.0231C62.8744 35.1769 63.0957 35.6476 62.9418 36.0745C62.8548 36.3158 62.6665 36.4915 62.4421 36.5707C62.2555 37.1827 62.0684 37.9602 62.1005 38.5212C62.3944 38.6606 62.6857 38.8167 62.9731 38.9898C63.3997 39.2468 63.7618 39.5343 64.0753 39.8464C64.4443 40.0134 65.526 39.668 66.4154 39.1508C66.4192 38.8867 66.5499 38.6293 66.7875 38.474C67.1673 38.2257 67.6764 38.3324 67.9246 38.7121L68.2488 39.2081C68.497 39.5879 68.3904 40.097 68.0106 40.3452C67.8297 40.4635 67.6194 40.5012 67.422 40.4672C66.7687 40.9253 65.8452 41.6594 65.6319 42.2516C65.7964 42.6188 65.9496 42.9956 66.1047 43.3769C66.143 43.4712 66.1815 43.5658 66.2203 43.6605C66.2737 43.7911 66.321 43.9211 66.3626 44.0505C66.7613 44.329 67.6478 44.5714 68.4946 44.6428C68.6486 44.4255 68.9052 44.2871 69.1913 44.2961C69.6448 44.3104 70.0008 44.6896 69.9865 45.1431L69.9678 45.7353C69.9535 46.1888 69.5743 46.5448 69.1208 46.5305C68.9085 46.5238 68.7176 46.4371 68.576 46.3003C67.9582 46.3006 67.1091 46.3434 66.5177 46.5318C66.3648 47.4079 66.0184 48.2648 65.5859 49.1128C65.7543 49.5759 66.2824 50.2698 66.8791 50.8204C67.1287 50.7515 67.4069 50.8014 67.6217 50.9789C67.9715 51.2678 68.0207 51.7857 67.7318 52.1354L67.3544 52.5922C67.0654 52.942 66.5476 52.9913 66.1978 52.7023C66.0281 52.5621 65.9291 52.368 65.9052 52.1654C65.3044 51.7036 64.4102 51.0971 63.7908 51.0149C63.2845 51.3882 62.7034 51.7341 62.067 52.0036C61.7742 52.234 61.7606 53.3385 61.9706 54.3512C62.1552 54.4535 62.3005 54.6264 62.3627 54.8454C62.4865 55.2819 62.2331 55.7361 61.7966 55.86L61.2266 56.0217C60.7901 56.1455 60.3359 55.8921 60.212 55.4556C60.1402 55.2022 60.1954 54.9429 60.3398 54.7456C60.0347 53.8646 59.5381 52.7496 58.9781 52.6747L59.2203 52.5557C58.6052 52.5325 57.9707 52.4132 57.3276 52.1708C56.7777 52.2628 56.0992 53.167 55.6364 53.8961C55.7592 54.1335 55.7639 54.4262 55.6232 54.6766C55.401 55.0722 54.9002 55.2127 54.5046 54.9904L53.9881 54.7002C53.5925 54.478 53.452 53.9772 53.6742 53.5817C53.7742 53.4036 53.9307 53.2773 54.1086 53.2124C54.5015 52.4092 54.8196 51.3326 54.8202 50.7507C54.4194 50.4829 54.0314 50.205 53.6678 49.9127L53.7129 50.0197C53.2147 49.6917 52.0097 50.2848 51.1946 50.7667C51.1653 50.9973 51.0389 51.2141 50.829 51.3512C50.4493 51.5994 49.9402 51.4928 49.6919 51.113L49.3678 50.617C49.1195 50.2373 49.2262 49.7282 49.606 49.4799C49.813 49.3446 50.0585 49.3148 50.2792 49.3771C50.9594 48.8745 51.5804 48.212 51.7692 47.7723C51.6515 47.5556 51.5506 47.3312 51.4687 47.0982C51.3329 46.7116 51.2508 46.3005 51.2138 45.8762C50.7245 45.6748 50.0249 45.572 49.4379 45.5206C49.2817 45.6927 49.0539 45.7977 48.8034 45.7898C48.3499 45.7755 47.9939 45.3963 48.0082 44.9429L48.0269 44.3506C48.0412 43.8972 48.4204 43.5411 48.8739 43.5554C49.1148 43.563 49.3282 43.6736 49.4732 43.8436C50.2401 43.8089 51.0206 43.6437 51.4271 43.4214C51.5719 42.8103 51.7745 42.2161 52.0111 41.6714L51.966 41.7094C52.1346 41.1252 51.1709 40.1236 50.4644 39.4897C50.219 39.5521 49.9481 39.5006 49.7379 39.327C49.3881 39.038 49.3388 38.5202 49.6278 38.1704L50.0052 37.7136C50.2941 37.3639 50.8119 37.3146 51.1617 37.6036C51.3386 37.7497 51.4387 37.9544 51.4569 38.1663C52.3189 38.8253 53.4461 39.3311 53.8118 39.1604C54.3153 38.7397 54.8845 38.403 55.5 38.1537C55.5045 37.6333 55.3918 37.0015 55.2724 36.4852C55.0414 36.3948 54.8539 36.2012 54.781 35.9442C54.6572 35.5077 54.9106 35.0535 55.3471 34.9297L55.9171 34.768Z" fill="#2E87EF"/>
</svg>
