<svg width="86" height="86" viewBox="0 0 86 86" fill="none" xmlns="http://www.w3.org/2000/svg">
<path d="M54.3262 31.0984L71.0572 36.675" stroke="#2E87EF" stroke-width="4" stroke-miterlimit="10" stroke-linecap="round" stroke-linejoin="round"/>
<path d="M47.0312 26.875C41.3291 26.875 35.8605 24.6098 31.8285 20.5778C27.7964 16.5458 25.5313 11.0772 25.5312 5.375" stroke="#2E87EF" stroke-width="4" stroke-miterlimit="10" stroke-linecap="round" stroke-linejoin="round"/>
<path d="M68.5312 16.125L64.4999 10.75L54.2632 31.2234C53.7053 32.3394 52.8475 33.278 51.7862 33.934C50.7248 34.59 49.5017 34.9375 48.254 34.9375H17.4687C14.2532 34.9352 11.1261 33.8843 8.56172 31.9444C5.99732 30.0044 4.13548 27.2811 3.25852 24.1875C2.72318 26.0536 2.56206 28.0071 2.78444 29.9357C3.00681 31.8643 3.60829 33.7298 4.55428 35.4251C5.50026 37.1204 6.77209 38.6119 8.2966 39.8139C9.82111 41.0159 11.5682 41.9046 13.4374 42.4289V80.625H21.4999L22.7832 63.937C22.8228 63.4273 23.0064 62.9394 23.3126 62.5301L30.9062 52.4062L53.2501 58.613C53.788 58.7624 54.266 59.0755 54.6179 59.5089C54.9697 59.9424 55.1778 60.4746 55.2133 61.0318L56.4374 80.625H64.4999V59.125L72.5624 29.5625H76.5937C78.3756 29.5625 80.0845 28.8546 81.3446 27.5946C82.6046 26.3346 83.3124 24.6257 83.3124 22.8438V18.8125L68.5312 16.125Z" stroke="white" stroke-width="4" stroke-miterlimit="10" stroke-linecap="round" stroke-linejoin="round"/>
</svg>
