<svg width="16" height="16" viewBox="0 0 16 16" fill="none" xmlns="http://www.w3.org/2000/svg">
<rect x="3.1001" y="1" width="9.8" height="9.1" rx="1.5" fill="#222222"/>
<path d="M3.05859 4.31641L12.9001 4.31641" stroke="white" stroke-width="1.5"/>
<rect x="1" y="5.03662" width="14" height="7.16351" rx="1.5" fill="#222222"/>
<path d="M3.1001 9.5C3.1001 8.67157 3.77167 8 4.6001 8H11.4001C12.2285 8 12.9001 8.67157 12.9001 9.5V13.5C12.9001 14.3284 12.2285 15 11.4001 15H4.6001C3.77167 15 3.1001 14.3284 3.1001 13.5V9.5Z" fill="#222222"/>
<path fill-rule="evenodd" clip-rule="evenodd" d="M11.4001 9.5H4.6001V13.5H11.4001V9.5ZM4.6001 8C3.77167 8 3.1001 8.67157 3.1001 9.5V13.5C3.1001 14.3284 3.77167 15 4.6001 15H11.4001C12.2285 15 12.9001 14.3284 12.9001 13.5V9.5C12.9001 8.67157 12.2285 8 11.4001 8H4.6001Z" fill="white"/>
</svg>
