<svg width="86" height="86" viewBox="0 0 86 86" fill="none" xmlns="http://www.w3.org/2000/svg">
<path d="M10.2 61.2564V17.354C10.2 14.3972 12.6477 12 15.6666 12H70.3333C73.3522 12 75.7999 14.3972 75.7999 17.354V61.2564" stroke="white" stroke-width="4" stroke-linecap="round" stroke-linejoin="round"/>
<path d="M53.9333 62.8625V66.878H32.0667V62.8625H2C2 68.776 6.8954 73.5705 12.9333 73.5705H73.0667C79.1046 73.5705 84 68.776 84 62.8625H53.9333Z" stroke="white" stroke-width="4" stroke-linecap="round" stroke-linejoin="round"/>
<path d="M43.5467 51.3515C51.0946 51.3515 57.2133 45.3589 57.2133 37.9667C57.2133 30.5744 51.0946 24.5818 43.5467 24.5818C35.9988 24.5818 29.88 30.5744 29.88 37.9667C29.88 45.3589 35.9988 51.3515 43.5467 51.3515Z" stroke="white" stroke-width="4" stroke-linecap="round" stroke-linejoin="round"/>
<path d="M57.2133 37.9667C57.2133 30.5744 51.0945 24.5818 43.5466 24.5818" stroke="#2E87EF" stroke-width="4" stroke-linecap="round" stroke-linejoin="round"/>
<path d="M57.2132 38.5021H42.9999V24.5818" stroke="#2E87EF" stroke-width="4" stroke-linecap="round" stroke-linejoin="round"/>
</svg>
