<svg width="86" height="86" viewBox="0 0 86 86" fill="none" xmlns="http://www.w3.org/2000/svg">
<path d="M37.3892 26.0888C40.5095 26.0888 43.0391 23.5593 43.0391 20.4389C43.0391 17.3186 40.5095 14.789 37.3892 14.789C34.2688 14.789 31.7393 17.3186 31.7393 20.4389C31.7393 23.5593 34.2688 26.0888 37.3892 26.0888Z" stroke="white" stroke-width="4" stroke-miterlimit="10" stroke-linecap="round"/>
<path d="M61.4011 28.9139C62.9613 28.9139 64.2261 27.6491 64.2261 26.0889C64.2261 24.5287 62.9613 23.2639 61.4011 23.2639C59.8409 23.2639 58.5762 24.5287 58.5762 26.0889C58.5762 27.6491 59.8409 28.9139 61.4011 28.9139Z" stroke="white" stroke-width="4" stroke-miterlimit="10" stroke-linecap="round"/>
<path d="M27.5007 67.0506C29.0609 67.0506 30.3257 65.7858 30.3257 64.2256C30.3257 62.6654 29.0609 61.4007 27.5007 61.4007C25.9406 61.4007 24.6758 62.6654 24.6758 64.2256C24.6758 65.7858 25.9406 67.0506 27.5007 67.0506Z" stroke="white" stroke-width="4" stroke-miterlimit="10" stroke-linecap="round"/>
<path d="M30.3259 44.4507C31.8861 44.4507 33.1509 43.186 33.1509 41.6258C33.1509 40.0656 31.8861 38.8008 30.3259 38.8008C28.7658 38.8008 27.501 40.0656 27.501 41.6258C27.501 43.186 28.7658 44.4507 30.3259 44.4507Z" stroke="white" stroke-width="4" stroke-miterlimit="10" stroke-linecap="round"/>
<path d="M16.214 34.8486L11.9766 40.4985" stroke="white" stroke-width="4" stroke-miterlimit="10" stroke-linecap="round"/>
<path d="M83.3644 50.191C84.8948 41.6006 83.6447 32.7459 79.7958 24.915C75.9469 17.0841 69.7 10.6853 61.9638 6.64936C54.2276 2.61344 45.4056 1.1509 36.7809 2.47447C28.1562 3.79803 20.1786 7.83867 14.0087 14.0087C7.83867 20.1786 3.79803 28.1562 2.47447 36.7809C1.1509 45.4056 2.61344 54.2276 6.64936 61.9638C10.6853 69.7 17.0841 75.9469 24.915 79.7958C32.7459 83.6447 41.6006 84.8948 50.191 83.3644" stroke="white" stroke-width="4" stroke-miterlimit="10" stroke-linecap="round"/>
<path d="M56.4577 74.1128C66.2088 74.1128 74.1137 66.2079 74.1137 56.4568C74.1137 46.7057 66.2088 38.8008 56.4577 38.8008C46.7066 38.8008 38.8018 46.7057 38.8018 56.4568C38.8018 66.2079 46.7066 74.1128 56.4577 74.1128Z" stroke="white" stroke-width="4" stroke-miterlimit="10" stroke-linecap="round"/>
<path d="M82.5873 82.5875L68.9258 68.926" stroke="white" stroke-width="4" stroke-miterlimit="10" stroke-linecap="round"/>
<path d="M59.9883 50.1008L64.2257 54.3382" stroke="#2E87EF" stroke-width="4" stroke-miterlimit="10" stroke-linecap="round"/>
<path d="M52.2193 61.4006C53.3894 61.4006 54.338 60.4521 54.338 59.2819C54.338 58.1118 53.3894 57.1632 52.2193 57.1632C51.0492 57.1632 50.1006 58.1118 50.1006 59.2819C50.1006 60.4521 51.0492 61.4006 52.2193 61.4006Z" stroke="#2E87EF" stroke-width="4" stroke-miterlimit="10" stroke-linecap="round"/>
</svg>
