<svg width="86" height="86" viewBox="0 0 86 86" fill="none" xmlns="http://www.w3.org/2000/svg">
<path d="M18.947 21.0969L28.622 34.2657" stroke="white" stroke-width="4" stroke-linecap="round" stroke-linejoin="round"/>
<path d="M18.947 64.9031L28.622 51.7344" stroke="white" stroke-width="4" stroke-linecap="round" stroke-linejoin="round"/>
<path d="M45.6875 43H63.1562" stroke="white" stroke-width="4" stroke-linecap="round" stroke-linejoin="round"/>
<path d="M13.4375 22.8438C18.6324 22.8438 22.8438 18.6324 22.8438 13.4375C22.8438 8.24257 18.6324 4.03125 13.4375 4.03125C8.24257 4.03125 4.03125 8.24257 4.03125 13.4375C4.03125 18.6324 8.24257 22.8438 13.4375 22.8438Z" stroke="white" stroke-width="4" stroke-linecap="round" stroke-linejoin="round"/>
<path d="M13.405 81.81C18.5992 81.81 22.81 77.5992 22.81 72.405C22.81 67.2108 18.5992 63 13.405 63C8.21076 63 4 67.2108 4 72.405C4 77.5992 8.21076 81.81 13.405 81.81Z" stroke="white" stroke-width="4" stroke-linecap="round" stroke-linejoin="round"/>
<path d="M72.5625 52.8125C77.7574 52.8125 81.9688 48.6012 81.9688 43.4063C81.9688 38.2113 77.7574 34 72.5625 34C67.3676 34 63.1562 38.2113 63.1562 43.4063C63.1562 48.6012 67.3676 52.8125 72.5625 52.8125Z" stroke="white" stroke-width="4" stroke-linecap="round" stroke-linejoin="round"/>
<path d="M35.405 52.81C40.5992 52.81 44.81 48.5992 44.81 43.405C44.81 38.2108 40.5992 34 35.405 34C30.2108 34 26 38.2108 26 43.405C26 48.5992 30.2108 52.81 35.405 52.81Z" stroke="#2E87EF" stroke-width="4" stroke-linecap="round" stroke-linejoin="round"/>
</svg>
