<svg width="12" height="18" viewBox="0 0 12 18" fill="none" xmlns="http://www.w3.org/2000/svg">
<g clip-path="url(#clip0)">
<g clip-path="url(#clip1)">
<path d="M3.30518 13.0975C3.83667 13.7541 4.37798 14.5769 4.66126 15.0756C5.00624 15.7239 5.14928 16.1617 5.40591 16.9402C5.55596 17.3696 5.699 17.4998 5.99911 17.4998C6.32726 17.4998 6.47731 17.281 6.59231 16.9402C6.83211 16.2046 7.01722 15.645 7.31032 15.1103C7.88669 14.0865 8.61311 13.175 9.32271 12.2995C9.51763 12.0544 10.7587 10.6095 11.3169 9.46252C11.3169 9.46252 11.9998 8.21024 11.9998 6.45926C11.9998 4.82187 11.3267 3.68457 11.3267 3.68457L9.3774 4.20128L8.1896 7.28349L7.8965 7.70323L7.8348 7.78219L7.75487 7.87916L7.62164 8.03708L7.42671 8.22963L6.37214 9.0788L3.73991 10.5846L3.30518 13.0975Z" fill="#34A853"/>
<path d="M0.584473 9.25365C1.23096 10.7068 2.46364 11.9771 3.30505 13.0978L7.76316 7.87946C7.76316 7.87946 7.1335 8.694 5.99899 8.694C4.73125 8.694 3.70332 7.6966 3.70332 6.43461C3.70332 5.56743 4.2264 4.97314 4.2264 4.97314L1.20432 5.76968L0.584473 9.25365Z" fill="#FBBC04"/>
<path d="M7.81661 0.77002C9.2961 1.2424 10.5638 2.23148 11.3267 3.69432L7.76332 7.88752C7.76332 7.88752 8.2864 7.28355 8.2864 6.42607C8.2864 5.13915 7.18695 4.1667 5.99915 4.1667C4.87305 4.1667 4.22656 4.97154 4.22656 4.97154V2.32845L7.81661 0.77002Z" fill="#4285F4"/>
<path d="M1.3999 2.61807C2.28619 1.57635 3.83721 0.5 5.98142 0.5C7.01776 0.5 7.80729 0.771512 7.80729 0.771512L4.22706 4.97441H1.69159L1.3999 2.61807Z" fill="#1A73E8"/>
<path d="M0.584785 9.25352C0.584785 9.25352 0 8.10653 0 6.45254C0 4.88582 0.619843 3.51995 1.40937 2.62646L4.23653 4.9814L0.584785 9.25352Z" fill="#EA4335"/>
</g>
</g>
<defs>
<clipPath id="clip0">
<rect width="12" height="17" fill="white" transform="translate(0 0.5)"/>
</clipPath>
<clipPath id="clip1">
<rect width="12" height="17" fill="white" transform="translate(0 0.5)"/>
</clipPath>
</defs>
</svg>
