<svg width="277" height="2" viewBox="0 0 277 2" fill="none" xmlns="http://www.w3.org/2000/svg">
<path d="M1 0.5C0.723858 0.5 0.5 0.723858 0.5 1C0.5 1.27614 0.723858 1.5 1 1.5V0.5ZM276 1.5C276.276 1.5 276.5 1.27614 276.5 1C276.5 0.723858 276.276 0.5 276 0.5V1.5ZM1.00497 1.5C1.28111 1.5 1.50497 1.27614 1.50497 1C1.50497 0.723858 1.28111 0.5 1.00497 0.5V1.5ZM4.98054 0.5C4.7044 0.5 4.48054 0.723858 4.48054 1C4.48054 1.27614 4.7044 1.5 4.98054 1.5V0.5ZM4.99048 1.5C5.26662 1.5 5.49048 1.27614 5.49048 1C5.49048 0.723858 5.26662 0.5 4.99048 0.5V1.5ZM8.96604 0.5C8.6899 0.5 8.46604 0.723858 8.46604 1C8.46604 1.27614 8.6899 1.5 8.96604 1.5V0.5ZM8.97598 1.5C9.25213 1.5 9.47598 1.27614 9.47598 1C9.47598 0.723858 9.25213 0.5 8.97598 0.5V1.5ZM12.9516 0.5C12.6754 0.5 12.4516 0.723858 12.4516 1C12.4516 1.27614 12.6754 1.5 12.9516 1.5V0.5ZM12.9615 1.5C13.2376 1.5 13.4615 1.27614 13.4615 1C13.4615 0.723858 13.2376 0.5 12.9615 0.5V1.5ZM16.9371 0.5C16.6609 0.5 16.4371 0.723858 16.4371 1C16.4371 1.27614 16.6609 1.5 16.9371 1.5V0.5ZM16.947 1.5C17.2231 1.5 17.447 1.27614 17.447 1C17.447 0.723858 17.2231 0.5 16.947 0.5V1.5ZM20.9226 0.5C20.6464 0.5 20.4226 0.723858 20.4226 1C20.4226 1.27614 20.6464 1.5 20.9226 1.5V0.5ZM20.9325 1.5C21.2086 1.5 21.4325 1.27614 21.4325 1C21.4325 0.723858 21.2086 0.5 20.9325 0.5V1.5ZM24.9081 0.5C24.6319 0.5 24.4081 0.723858 24.4081 1C24.4081 1.27614 24.6319 1.5 24.9081 1.5V0.5ZM24.918 1.5C25.1942 1.5 25.418 1.27614 25.418 1C25.418 0.723858 25.1942 0.5 24.918 0.5V1.5ZM28.8936 0.5C28.6174 0.5 28.3936 0.723858 28.3936 1C28.3936 1.27614 28.6174 1.5 28.8936 1.5V0.5ZM28.9035 1.5C29.1797 1.5 29.4035 1.27614 29.4035 1C29.4035 0.723858 29.1797 0.5 28.9035 0.5V1.5ZM32.8791 0.5C32.6029 0.5 32.3791 0.723858 32.3791 1C32.3791 1.27614 32.6029 1.5 32.8791 1.5V0.5ZM32.889 1.5C33.1652 1.5 33.389 1.27614 33.389 1C33.389 0.723858 33.1652 0.5 32.889 0.5V1.5ZM36.8646 0.5C36.5885 0.5 36.3646 0.723858 36.3646 1C36.3646 1.27614 36.5885 1.5 36.8646 1.5V0.5ZM36.8745 1.5C37.1507 1.5 37.3745 1.27614 37.3745 1C37.3745 0.723858 37.1507 0.5 36.8745 0.5V1.5ZM40.8501 0.5C40.574 0.5 40.3501 0.723858 40.3501 1C40.3501 1.27614 40.574 1.5 40.8501 1.5V0.5ZM40.86 1.5C41.1362 1.5 41.36 1.27614 41.36 1C41.36 0.723858 41.1362 0.5 40.86 0.5V1.5ZM44.8356 0.5C44.5595 0.5 44.3356 0.723858 44.3356 1C44.3356 1.27614 44.5595 1.5 44.8356 1.5V0.5ZM44.8455 1.5C45.1217 1.5 45.3455 1.27614 45.3455 1C45.3455 0.723858 45.1217 0.5 44.8455 0.5V1.5ZM48.8211 0.5C48.545 0.5 48.3211 0.723858 48.3211 1C48.3211 1.27614 48.545 1.5 48.8211 1.5V0.5ZM48.831 1.5C49.1072 1.5 49.331 1.27614 49.331 1C49.331 0.723858 49.1072 0.5 48.831 0.5V1.5ZM52.8066 0.5C52.5305 0.5 52.3066 0.723858 52.3066 1C52.3066 1.27614 52.5305 1.5 52.8066 1.5V0.5ZM52.8166 1.5C53.0927 1.5 53.3166 1.27614 53.3166 1C53.3166 0.723858 53.0927 0.5 52.8166 0.5V1.5ZM56.7921 0.5C56.516 0.5 56.2921 0.723858 56.2921 1C56.2921 1.27614 56.516 1.5 56.7921 1.5V0.5ZM56.8021 1.5C57.0782 1.5 57.3021 1.27614 57.3021 1C57.3021 0.723858 57.0782 0.5 56.8021 0.5V1.5ZM60.7776 0.5C60.5015 0.5 60.2776 0.723858 60.2776 1C60.2776 1.27614 60.5015 1.5 60.7776 1.5V0.5ZM60.7876 1.5C61.0637 1.5 61.2876 1.27614 61.2876 1C61.2876 0.723858 61.0637 0.5 60.7876 0.5V1.5ZM64.7631 0.5C64.487 0.5 64.2631 0.723858 64.2631 1C64.2631 1.27614 64.487 1.5 64.7631 1.5V0.5ZM64.7731 1.5C65.0492 1.5 65.2731 1.27614 65.2731 1C65.2731 0.723858 65.0492 0.5 64.7731 0.5V1.5ZM68.7486 0.5C68.4725 0.5 68.2486 0.723858 68.2486 1C68.2486 1.27614 68.4725 1.5 68.7486 1.5V0.5ZM68.7586 1.5C69.0347 1.5 69.2586 1.27614 69.2586 1C69.2586 0.723858 69.0347 0.5 68.7586 0.5V1.5ZM72.7341 0.5C72.458 0.5 72.2341 0.723858 72.2341 1C72.2341 1.27614 72.458 1.5 72.7341 1.5V0.5ZM72.7441 1.5C73.0202 1.5 73.2441 1.27614 73.2441 1C73.2441 0.723858 73.0202 0.5 72.7441 0.5V1.5ZM76.7197 0.5C76.4435 0.5 76.2197 0.723858 76.2197 1C76.2197 1.27614 76.4435 1.5 76.7197 1.5V0.5ZM76.7296 1.5C77.0057 1.5 77.2296 1.27614 77.2296 1C77.2296 0.723858 77.0057 0.5 76.7296 0.5V1.5ZM80.7052 0.5C80.429 0.5 80.2052 0.723858 80.2052 1C80.2052 1.27614 80.429 1.5 80.7052 1.5V0.5ZM80.7151 1.5C80.9912 1.5 81.2151 1.27614 81.2151 1C81.2151 0.723858 80.9912 0.5 80.7151 0.5V1.5ZM84.6907 0.5C84.4145 0.5 84.1907 0.723858 84.1907 1C84.1907 1.27614 84.4145 1.5 84.6907 1.5V0.5ZM84.7006 1.5C84.9768 1.5 85.2006 1.27614 85.2006 1C85.2006 0.723858 84.9768 0.5 84.7006 0.5V1.5ZM88.6762 0.5C88.4001 0.5 88.1762 0.723858 88.1762 1C88.1762 1.27614 88.4001 1.5 88.6762 1.5V0.5ZM88.6861 1.5C88.9623 1.5 89.1861 1.27614 89.1861 1C89.1861 0.723858 88.9623 0.5 88.6861 0.5V1.5ZM92.6617 0.5C92.3856 0.5 92.1617 0.723858 92.1617 1C92.1617 1.27614 92.3856 1.5 92.6617 1.5V0.5ZM92.6716 1.5C92.9478 1.5 93.1716 1.27614 93.1716 1C93.1716 0.723858 92.9478 0.5 92.6716 0.5V1.5ZM96.6472 0.5C96.3711 0.5 96.1472 0.723858 96.1472 1C96.1472 1.27614 96.3711 1.5 96.6472 1.5V0.5ZM96.6572 1.5C96.9333 1.5 97.1572 1.27614 97.1572 1C97.1572 0.723858 96.9333 0.5 96.6572 0.5V1.5ZM100.633 0.5C100.357 0.5 100.133 0.723858 100.133 1C100.133 1.27614 100.357 1.5 100.633 1.5V0.5ZM100.643 1.5C100.919 1.5 101.143 1.27614 101.143 1C101.143 0.723858 100.919 0.5 100.643 0.5V1.5ZM104.618 0.5C104.342 0.5 104.118 0.723858 104.118 1C104.118 1.27614 104.342 1.5 104.618 1.5V0.5ZM104.628 1.5C104.904 1.5 105.128 1.27614 105.128 1C105.128 0.723858 104.904 0.5 104.628 0.5V1.5ZM108.604 0.5C108.328 0.5 108.104 0.723858 108.104 1C108.104 1.27614 108.328 1.5 108.604 1.5V0.5ZM108.614 1.5C108.89 1.5 109.114 1.27614 109.114 1C109.114 0.723858 108.89 0.5 108.614 0.5V1.5ZM112.589 0.5C112.313 0.5 112.089 0.723858 112.089 1C112.089 1.27614 112.313 1.5 112.589 1.5V0.5ZM112.599 1.5C112.875 1.5 113.099 1.27614 113.099 1C113.099 0.723858 112.875 0.5 112.599 0.5V1.5ZM116.575 0.5C116.299 0.5 116.075 0.723858 116.075 1C116.075 1.27614 116.299 1.5 116.575 1.5V0.5ZM116.585 1.5C116.861 1.5 117.085 1.27614 117.085 1C117.085 0.723858 116.861 0.5 116.585 0.5V1.5ZM120.56 0.5C120.284 0.5 120.06 0.723858 120.06 1C120.06 1.27614 120.284 1.5 120.56 1.5V0.5ZM120.57 1.5C120.846 1.5 121.07 1.27614 121.07 1C121.07 0.723858 120.846 0.5 120.57 0.5V1.5ZM124.546 0.5C124.27 0.5 124.046 0.723858 124.046 1C124.046 1.27614 124.27 1.5 124.546 1.5V0.5ZM124.556 1.5C124.832 1.5 125.056 1.27614 125.056 1C125.056 0.723858 124.832 0.5 124.556 0.5V1.5ZM128.531 0.5C128.255 0.5 128.031 0.723858 128.031 1C128.031 1.27614 128.255 1.5 128.531 1.5V0.5ZM128.541 1.5C128.817 1.5 129.041 1.27614 129.041 1C129.041 0.723858 128.817 0.5 128.541 0.5V1.5ZM132.517 0.5C132.241 0.5 132.017 0.723858 132.017 1C132.017 1.27614 132.241 1.5 132.517 1.5V0.5ZM132.527 1.5C132.803 1.5 133.027 1.27614 133.027 1C133.027 0.723858 132.803 0.5 132.527 0.5V1.5ZM136.502 0.5C136.226 0.5 136.002 0.723858 136.002 1C136.002 1.27614 136.226 1.5 136.502 1.5V0.5ZM136.512 1.5C136.788 1.5 137.012 1.27614 137.012 1C137.012 0.723858 136.788 0.5 136.512 0.5V1.5ZM140.488 0.5C140.212 0.5 139.988 0.723858 139.988 1C139.988 1.27614 140.212 1.5 140.488 1.5V0.5ZM140.498 1.5C140.774 1.5 140.998 1.27614 140.998 1C140.998 0.723858 140.774 0.5 140.498 0.5V1.5ZM144.473 0.5C144.197 0.5 143.973 0.723858 143.973 1C143.973 1.27614 144.197 1.5 144.473 1.5V0.5ZM144.483 1.5C144.759 1.5 144.983 1.27614 144.983 1C144.983 0.723858 144.759 0.5 144.483 0.5V1.5ZM148.459 0.5C148.183 0.5 147.959 0.723858 147.959 1C147.959 1.27614 148.183 1.5 148.459 1.5V0.5ZM148.469 1.5C148.745 1.5 148.969 1.27614 148.969 1C148.969 0.723858 148.745 0.5 148.469 0.5V1.5ZM152.444 0.5C152.168 0.5 151.944 0.723858 151.944 1C151.944 1.27614 152.168 1.5 152.444 1.5V0.5ZM152.454 1.5C152.73 1.5 152.954 1.27614 152.954 1C152.954 0.723858 152.73 0.5 152.454 0.5V1.5ZM156.43 0.5C156.154 0.5 155.93 0.723858 155.93 1C155.93 1.27614 156.154 1.5 156.43 1.5V0.5ZM156.44 1.5C156.716 1.5 156.94 1.27614 156.94 1C156.94 0.723858 156.716 0.5 156.44 0.5V1.5ZM160.415 0.5C160.139 0.5 159.915 0.723858 159.915 1C159.915 1.27614 160.139 1.5 160.415 1.5V0.5ZM160.425 1.5C160.701 1.5 160.925 1.27614 160.925 1C160.925 0.723858 160.701 0.5 160.425 0.5V1.5ZM164.401 0.5C164.125 0.5 163.901 0.723858 163.901 1C163.901 1.27614 164.125 1.5 164.401 1.5V0.5ZM164.411 1.5C164.687 1.5 164.911 1.27614 164.911 1C164.911 0.723858 164.687 0.5 164.411 0.5V1.5ZM168.386 0.5C168.11 0.5 167.886 0.723858 167.886 1C167.886 1.27614 168.11 1.5 168.386 1.5V0.5ZM168.396 1.5C168.672 1.5 168.896 1.27614 168.896 1C168.896 0.723858 168.672 0.5 168.396 0.5V1.5ZM172.372 0.5C172.096 0.5 171.872 0.723858 171.872 1C171.872 1.27614 172.096 1.5 172.372 1.5V0.5ZM172.382 1.5C172.658 1.5 172.882 1.27614 172.882 1C172.882 0.723858 172.658 0.5 172.382 0.5V1.5ZM176.357 0.5C176.081 0.5 175.857 0.723858 175.857 1C175.857 1.27614 176.081 1.5 176.357 1.5V0.5ZM176.367 1.5C176.643 1.5 176.867 1.27614 176.867 1C176.867 0.723858 176.643 0.5 176.367 0.5V1.5ZM180.343 0.5C180.067 0.5 179.843 0.723858 179.843 1C179.843 1.27614 180.067 1.5 180.343 1.5V0.5ZM180.353 1.5C180.629 1.5 180.853 1.27614 180.853 1C180.853 0.723858 180.629 0.5 180.353 0.5V1.5ZM184.328 0.5C184.052 0.5 183.828 0.723858 183.828 1C183.828 1.27614 184.052 1.5 184.328 1.5V0.5ZM184.338 1.5C184.614 1.5 184.838 1.27614 184.838 1C184.838 0.723858 184.614 0.5 184.338 0.5V1.5ZM188.314 0.5C188.038 0.5 187.814 0.723858 187.814 1C187.814 1.27614 188.038 1.5 188.314 1.5V0.5ZM188.324 1.5C188.6 1.5 188.824 1.27614 188.824 1C188.824 0.723858 188.6 0.5 188.324 0.5V1.5ZM192.299 0.5C192.023 0.5 191.799 0.723858 191.799 1C191.799 1.27614 192.023 1.5 192.299 1.5V0.5ZM192.309 1.5C192.585 1.5 192.809 1.27614 192.809 1C192.809 0.723858 192.585 0.5 192.309 0.5V1.5ZM196.285 0.5C196.009 0.5 195.785 0.723858 195.785 1C195.785 1.27614 196.009 1.5 196.285 1.5V0.5ZM196.295 1.5C196.571 1.5 196.795 1.27614 196.795 1C196.795 0.723858 196.571 0.5 196.295 0.5V1.5ZM200.27 0.5C199.994 0.5 199.77 0.723858 199.77 1C199.77 1.27614 199.994 1.5 200.27 1.5V0.5ZM200.28 1.5C200.556 1.5 200.78 1.27614 200.78 1C200.78 0.723858 200.556 0.5 200.28 0.5V1.5ZM204.256 0.5C203.98 0.5 203.756 0.723858 203.756 1C203.756 1.27614 203.98 1.5 204.256 1.5V0.5ZM204.266 1.5C204.542 1.5 204.766 1.27614 204.766 1C204.766 0.723858 204.542 0.5 204.266 0.5V1.5ZM208.241 0.5C207.965 0.5 207.741 0.723858 207.741 1C207.741 1.27614 207.965 1.5 208.241 1.5V0.5ZM208.251 1.5C208.527 1.5 208.751 1.27614 208.751 1C208.751 0.723858 208.527 0.5 208.251 0.5V1.5ZM212.227 0.5C211.951 0.5 211.727 0.723858 211.727 1C211.727 1.27614 211.951 1.5 212.227 1.5V0.5ZM212.237 1.5C212.513 1.5 212.737 1.27614 212.737 1C212.737 0.723858 212.513 0.5 212.237 0.5V1.5ZM216.212 0.5C215.936 0.5 215.712 0.723858 215.712 1C215.712 1.27614 215.936 1.5 216.212 1.5V0.5ZM216.222 1.5C216.498 1.5 216.722 1.27614 216.722 1C216.722 0.723858 216.498 0.5 216.222 0.5V1.5ZM220.198 0.5C219.922 0.5 219.698 0.723858 219.698 1C219.698 1.27614 219.922 1.5 220.198 1.5V0.5ZM220.208 1.5C220.484 1.5 220.708 1.27614 220.708 1C220.708 0.723858 220.484 0.5 220.208 0.5V1.5ZM224.183 0.5C223.907 0.5 223.683 0.723858 223.683 1C223.683 1.27614 223.907 1.5 224.183 1.5V0.5ZM224.193 1.5C224.469 1.5 224.693 1.27614 224.693 1C224.693 0.723858 224.469 0.5 224.193 0.5V1.5ZM228.169 0.5C227.893 0.5 227.669 0.723858 227.669 1C227.669 1.27614 227.893 1.5 228.169 1.5V0.5ZM228.179 1.5C228.455 1.5 228.679 1.27614 228.679 1C228.679 0.723858 228.455 0.5 228.179 0.5V1.5ZM232.154 0.5C231.878 0.5 231.654 0.723858 231.654 1C231.654 1.27614 231.878 1.5 232.154 1.5V0.5ZM232.164 1.5C232.44 1.5 232.664 1.27614 232.664 1C232.664 0.723858 232.44 0.5 232.164 0.5V1.5ZM236.14 0.5C235.864 0.5 235.64 0.723858 235.64 1C235.64 1.27614 235.864 1.5 236.14 1.5V0.5ZM236.15 1.5C236.426 1.5 236.65 1.27614 236.65 1C236.65 0.723858 236.426 0.5 236.15 0.5V1.5ZM240.125 0.5C239.849 0.5 239.625 0.723858 239.625 1C239.625 1.27614 239.849 1.5 240.125 1.5V0.5ZM240.135 1.5C240.411 1.5 240.635 1.27614 240.635 1C240.635 0.723858 240.411 0.5 240.135 0.5V1.5ZM244.111 0.5C243.835 0.5 243.611 0.723858 243.611 1C243.611 1.27614 243.835 1.5 244.111 1.5V0.5ZM244.121 1.5C244.397 1.5 244.621 1.27614 244.621 1C244.621 0.723858 244.397 0.5 244.121 0.5V1.5ZM248.096 0.5C247.82 0.5 247.596 0.723858 247.596 1C247.596 1.27614 247.82 1.5 248.096 1.5V0.5ZM248.106 1.5C248.383 1.5 248.606 1.27614 248.606 1C248.606 0.723858 248.383 0.5 248.106 0.5V1.5ZM252.082 0.5C251.806 0.5 251.582 0.723858 251.582 1C251.582 1.27614 251.806 1.5 252.082 1.5V0.5ZM252.092 1.5C252.368 1.5 252.592 1.27614 252.592 1C252.592 0.723858 252.368 0.5 252.092 0.5V1.5ZM256.067 0.5C255.791 0.5 255.567 0.723858 255.567 1C255.567 1.27614 255.791 1.5 256.067 1.5V0.5ZM256.077 1.5C256.354 1.5 256.577 1.27614 256.577 1C256.577 0.723858 256.354 0.5 256.077 0.5V1.5ZM260.053 0.5C259.777 0.5 259.553 0.723858 259.553 1C259.553 1.27614 259.777 1.5 260.053 1.5V0.5ZM260.063 1.5C260.339 1.5 260.563 1.27614 260.563 1C260.563 0.723858 260.339 0.5 260.063 0.5V1.5ZM264.038 0.5C263.762 0.5 263.538 0.723858 263.538 1C263.538 1.27614 263.762 1.5 264.038 1.5V0.5ZM264.048 1.5C264.325 1.5 264.548 1.27614 264.548 1C264.548 0.723858 264.325 0.5 264.048 0.5V1.5ZM268.024 0.5C267.748 0.5 267.524 0.723858 267.524 1C267.524 1.27614 267.748 1.5 268.024 1.5V0.5ZM268.034 1.5C268.31 1.5 268.534 1.27614 268.534 1C268.534 0.723858 268.31 0.5 268.034 0.5V1.5ZM272.009 0.5C271.733 0.5 271.509 0.723858 271.509 1C271.509 1.27614 271.733 1.5 272.009 1.5V0.5ZM272.019 1.5C272.296 1.5 272.519 1.27614 272.519 1C272.519 0.723858 272.296 0.5 272.019 0.5V1.5ZM275.995 0.5C275.719 0.5 275.495 0.723858 275.495 1C275.495 1.27614 275.719 1.5 275.995 1.5V0.5ZM1 1.5H1.00497V0.5H1V1.5ZM4.98054 1.5H4.99048V0.5H4.98054V1.5ZM8.96604 1.5H8.97598V0.5H8.96604V1.5ZM12.9516 1.5H12.9615V0.5H12.9516V1.5ZM16.9371 1.5H16.947V0.5H16.9371V1.5ZM20.9226 1.5H20.9325V0.5H20.9226V1.5ZM24.9081 1.5H24.918V0.5H24.9081V1.5ZM28.8936 1.5H28.9035V0.5H28.8936V1.5ZM32.8791 1.5H32.889V0.5H32.8791V1.5ZM36.8646 1.5H36.8745V0.5H36.8646V1.5ZM40.8501 1.5H40.86V0.5H40.8501V1.5ZM44.8356 1.5H44.8455V0.5H44.8356V1.5ZM48.8211 1.5H48.831V0.5H48.8211V1.5ZM52.8066 1.5H52.8166V0.5H52.8066V1.5ZM56.7921 1.5H56.8021V0.5H56.7921V1.5ZM60.7776 1.5H60.7876V0.5H60.7776V1.5ZM64.7631 1.5H64.7731V0.5H64.7631V1.5ZM68.7486 1.5H68.7586V0.5H68.7486V1.5ZM72.7341 1.5H72.7441V0.5H72.7341V1.5ZM76.7197 1.5H76.7296V0.5H76.7197V1.5ZM80.7052 1.5H80.7151V0.5H80.7052V1.5ZM84.6907 1.5H84.7006V0.5H84.6907V1.5ZM88.6762 1.5H88.6861V0.5H88.6762V1.5ZM92.6617 1.5H92.6716V0.5H92.6617V1.5ZM96.6472 1.5H96.6572V0.5H96.6472V1.5ZM100.633 1.5H100.643V0.5H100.633V1.5ZM104.618 1.5H104.628V0.5H104.618V1.5ZM108.604 1.5H108.614V0.5H108.604V1.5ZM112.589 1.5H112.599V0.5H112.589V1.5ZM116.575 1.5H116.585V0.5H116.575V1.5ZM120.56 1.5H120.57V0.5H120.56V1.5ZM124.546 1.5H124.556V0.5H124.546V1.5ZM128.531 1.5H128.541V0.5H128.531V1.5ZM132.517 1.5H132.527V0.5H132.517V1.5ZM136.502 1.5H136.512V0.5H136.502V1.5ZM140.488 1.5H140.498V0.5H140.488V1.5ZM144.473 1.5H144.483V0.5H144.473V1.5ZM148.459 1.5H148.469V0.5H148.459V1.5ZM152.444 1.5H152.454V0.5H152.444V1.5ZM156.43 1.5H156.44V0.5H156.43V1.5ZM160.415 1.5H160.425V0.5H160.415V1.5ZM164.401 1.5H164.411V0.5H164.401V1.5ZM168.386 1.5H168.396V0.5H168.386V1.5ZM172.372 1.5H172.382V0.5H172.372V1.5ZM176.357 1.5H176.367V0.5H176.357V1.5ZM180.343 1.5H180.353V0.5H180.343V1.5ZM184.328 1.5H184.338V0.5H184.328V1.5ZM188.314 1.5H188.324V0.5H188.314V1.5ZM192.299 1.5H192.309V0.5H192.299V1.5ZM196.285 1.5H196.295V0.5H196.285V1.5ZM200.27 1.5H200.28V0.5H200.27V1.5ZM204.256 1.5H204.266V0.5H204.256V1.5ZM208.241 1.5H208.251V0.5H208.241V1.5ZM212.227 1.5H212.237V0.5H212.227V1.5ZM216.212 1.5H216.222V0.5H216.212V1.5ZM220.198 1.5H220.208V0.5H220.198V1.5ZM224.183 1.5H224.193V0.5H224.183V1.5ZM228.169 1.5H228.179V0.5H228.169V1.5ZM232.154 1.5H232.164V0.5H232.154V1.5ZM236.14 1.5H236.15V0.5H236.14V1.5ZM240.125 1.5H240.135V0.5H240.125V1.5ZM244.111 1.5H244.121V0.5H244.111V1.5ZM248.096 1.5H248.106V0.5H248.096V1.5ZM252.082 1.5H252.092V0.5H252.082V1.5ZM256.067 1.5H256.077V0.5H256.067V1.5ZM260.053 1.5H260.063V0.5H260.053V1.5ZM264.038 1.5H264.048V0.5H264.038V1.5ZM268.024 1.5H268.034V0.5H268.024V1.5ZM272.009 1.5H272.019V0.5H272.009V1.5ZM275.995 1.5H276V0.5H275.995V1.5Z" fill="#909090"/>
</svg>
