<svg width="337" height="2" viewBox="0 0 337 2" fill="none" xmlns="http://www.w3.org/2000/svg">
<path d="M1 0.5C0.723858 0.5 0.5 0.723858 0.5 1C0.5 1.27614 0.723858 1.5 1 1.5V0.5ZM336 1.5C336.276 1.5 336.5 1.27614 336.5 1C336.5 0.723858 336.276 0.5 336 0.5V1.5ZM1.00497 1.5C1.28112 1.5 1.50497 1.27614 1.50497 1C1.50497 0.723858 1.28112 0.5 1.00497 0.5V1.5ZM4.98312 0.5C4.70698 0.5 4.48312 0.723858 4.48312 1C4.48312 1.27614 4.70698 1.5 4.98312 1.5V0.5ZM4.99307 1.5C5.26921 1.5 5.49307 1.27614 5.49307 1C5.49307 0.723858 5.26921 0.5 4.99307 0.5V1.5ZM8.97122 0.5C8.69508 0.5 8.47122 0.723858 8.47122 1C8.47122 1.27614 8.69508 1.5 8.97122 1.5V0.5ZM8.98116 1.5C9.2573 1.5 9.48116 1.27614 9.48116 1C9.48116 0.723858 9.2573 0.5 8.98116 0.5V1.5ZM12.9593 0.5C12.6832 0.5 12.4593 0.723858 12.4593 1C12.4593 1.27614 12.6832 1.5 12.9593 1.5V0.5ZM12.9693 1.5C13.2454 1.5 13.4693 1.27614 13.4693 1C13.4693 0.723858 13.2454 0.5 12.9693 0.5V1.5ZM16.9474 0.5C16.6713 0.5 16.4474 0.723858 16.4474 1C16.4474 1.27614 16.6713 1.5 16.9474 1.5V0.5ZM16.9574 1.5C17.2335 1.5 17.4574 1.27614 17.4574 1C17.4574 0.723858 17.2335 0.5 16.9574 0.5V1.5ZM20.9355 0.5C20.6594 0.5 20.4355 0.723858 20.4355 1C20.4355 1.27614 20.6594 1.5 20.9355 1.5V0.5ZM20.9454 1.5C21.2216 1.5 21.4454 1.27614 21.4454 1C21.4454 0.723858 21.2216 0.5 20.9454 0.5V1.5ZM24.9236 0.5C24.6475 0.5 24.4236 0.723858 24.4236 1C24.4236 1.27614 24.6475 1.5 24.9236 1.5V0.5ZM24.9335 1.5C25.2097 1.5 25.4335 1.27614 25.4335 1C25.4335 0.723858 25.2097 0.5 24.9335 0.5V1.5ZM28.9117 0.5C28.6355 0.5 28.4117 0.723858 28.4117 1C28.4117 1.27614 28.6355 1.5 28.9117 1.5V0.5ZM28.9216 1.5C29.1978 1.5 29.4216 1.27614 29.4216 1C29.4216 0.723858 29.1978 0.5 28.9216 0.5V1.5ZM32.8998 0.5C32.6236 0.5 32.3998 0.723858 32.3998 1C32.3998 1.27614 32.6236 1.5 32.8998 1.5V0.5ZM32.9097 1.5C33.1859 1.5 33.4097 1.27614 33.4097 1C33.4097 0.723858 33.1859 0.5 32.9097 0.5V1.5ZM36.8879 0.5C36.6117 0.5 36.3879 0.723858 36.3879 1C36.3879 1.27614 36.6117 1.5 36.8879 1.5V0.5ZM36.8978 1.5C37.174 1.5 37.3978 1.27614 37.3978 1C37.3978 0.723858 37.174 0.5 36.8978 0.5V1.5ZM40.876 0.5C40.5998 0.5 40.376 0.723858 40.376 1C40.376 1.27614 40.5998 1.5 40.876 1.5V0.5ZM40.8859 1.5C41.1621 1.5 41.3859 1.27614 41.3859 1C41.3859 0.723858 41.1621 0.5 40.8859 0.5V1.5ZM44.8641 0.5C44.5879 0.5 44.3641 0.723858 44.3641 1C44.3641 1.27614 44.5879 1.5 44.8641 1.5V0.5ZM44.874 1.5C45.1502 1.5 45.374 1.27614 45.374 1C45.374 0.723858 45.1502 0.5 44.874 0.5V1.5ZM48.8522 0.5C48.576 0.5 48.3522 0.723858 48.3522 1C48.3522 1.27614 48.576 1.5 48.8522 1.5V0.5ZM48.8621 1.5C49.1382 1.5 49.3621 1.27614 49.3621 1C49.3621 0.723858 49.1382 0.5 48.8621 0.5V1.5ZM52.8403 0.5C52.5641 0.5 52.3403 0.723858 52.3403 1C52.3403 1.27614 52.5641 1.5 52.8403 1.5V0.5ZM52.8502 1.5C53.1263 1.5 53.3502 1.27614 53.3502 1C53.3502 0.723858 53.1263 0.5 52.8502 0.5V1.5ZM56.8283 0.5C56.5522 0.5 56.3283 0.723858 56.3283 1C56.3283 1.27614 56.5522 1.5 56.8283 1.5V0.5ZM56.8383 1.5C57.1144 1.5 57.3383 1.27614 57.3383 1C57.3383 0.723858 57.1144 0.5 56.8383 0.5V1.5ZM60.8164 0.5C60.5403 0.5 60.3164 0.723858 60.3164 1C60.3164 1.27614 60.5403 1.5 60.8164 1.5V0.5ZM60.8264 1.5C61.1025 1.5 61.3264 1.27614 61.3264 1C61.3264 0.723858 61.1025 0.5 60.8264 0.5V1.5ZM64.8045 0.5C64.5284 0.5 64.3045 0.723858 64.3045 1C64.3045 1.27614 64.5284 1.5 64.8045 1.5V0.5ZM64.8145 1.5C65.0906 1.5 65.3145 1.27614 65.3145 1C65.3145 0.723858 65.0906 0.5 64.8145 0.5V1.5ZM68.7926 0.5C68.5165 0.5 68.2926 0.723858 68.2926 1C68.2926 1.27614 68.5165 1.5 68.7926 1.5V0.5ZM68.8026 1.5C69.0787 1.5 69.3026 1.27614 69.3026 1C69.3026 0.723858 69.0787 0.5 68.8026 0.5V1.5ZM72.7807 0.5C72.5046 0.5 72.2807 0.723858 72.2807 1C72.2807 1.27614 72.5046 1.5 72.7807 1.5V0.5ZM72.7907 1.5C73.0668 1.5 73.2907 1.27614 73.2907 1C73.2907 0.723858 73.0668 0.5 72.7907 0.5V1.5ZM76.7688 0.5C76.4927 0.5 76.2688 0.723858 76.2688 1C76.2688 1.27614 76.4927 1.5 76.7688 1.5V0.5ZM76.7788 1.5C77.0549 1.5 77.2788 1.27614 77.2788 1C77.2788 0.723858 77.0549 0.5 76.7788 0.5V1.5ZM80.7569 0.5C80.4808 0.5 80.2569 0.723858 80.2569 1C80.2569 1.27614 80.4808 1.5 80.7569 1.5V0.5ZM80.7669 1.5C81.043 1.5 81.2669 1.27614 81.2669 1C81.2669 0.723858 81.043 0.5 80.7669 0.5V1.5ZM84.745 0.5C84.4689 0.5 84.245 0.723858 84.245 1C84.245 1.27614 84.4689 1.5 84.745 1.5V0.5ZM84.755 1.5C85.0311 1.5 85.255 1.27614 85.255 1C85.255 0.723858 85.0311 0.5 84.755 0.5V1.5ZM88.7331 0.5C88.457 0.5 88.2331 0.723858 88.2331 1C88.2331 1.27614 88.457 1.5 88.7331 1.5V0.5ZM88.7431 1.5C89.0192 1.5 89.2431 1.27614 89.2431 1C89.2431 0.723858 89.0192 0.5 88.7431 0.5V1.5ZM92.7212 0.5C92.4451 0.5 92.2212 0.723858 92.2212 1C92.2212 1.27614 92.4451 1.5 92.7212 1.5V0.5ZM92.7312 1.5C93.0073 1.5 93.2312 1.27614 93.2312 1C93.2312 0.723858 93.0073 0.5 92.7312 0.5V1.5ZM96.7093 0.5C96.4332 0.5 96.2093 0.723858 96.2093 1C96.2093 1.27614 96.4332 1.5 96.7093 1.5V0.5ZM96.7193 1.5C96.9954 1.5 97.2193 1.27614 97.2193 1C97.2193 0.723858 96.9954 0.5 96.7193 0.5V1.5ZM100.697 0.5C100.421 0.5 100.197 0.723858 100.197 1C100.197 1.27614 100.421 1.5 100.697 1.5V0.5ZM100.707 1.5C100.984 1.5 101.207 1.27614 101.207 1C101.207 0.723858 100.984 0.5 100.707 0.5V1.5ZM104.686 0.5C104.409 0.5 104.186 0.723858 104.186 1C104.186 1.27614 104.409 1.5 104.686 1.5V0.5ZM104.695 1.5C104.972 1.5 105.195 1.27614 105.195 1C105.195 0.723858 104.972 0.5 104.695 0.5V1.5ZM108.674 0.5C108.397 0.5 108.174 0.723858 108.174 1C108.174 1.27614 108.397 1.5 108.674 1.5V0.5ZM108.684 1.5C108.96 1.5 109.184 1.27614 109.184 1C109.184 0.723858 108.96 0.5 108.684 0.5V1.5ZM112.662 0.5C112.386 0.5 112.162 0.723858 112.162 1C112.162 1.27614 112.386 1.5 112.662 1.5V0.5ZM112.672 1.5C112.948 1.5 113.172 1.27614 113.172 1C113.172 0.723858 112.948 0.5 112.672 0.5V1.5ZM116.65 0.5C116.374 0.5 116.15 0.723858 116.15 1C116.15 1.27614 116.374 1.5 116.65 1.5V0.5ZM116.66 1.5C116.936 1.5 117.16 1.27614 117.16 1C117.16 0.723858 116.936 0.5 116.66 0.5V1.5ZM120.638 0.5C120.362 0.5 120.138 0.723858 120.138 1C120.138 1.27614 120.362 1.5 120.638 1.5V0.5ZM120.648 1.5C120.924 1.5 121.148 1.27614 121.148 1C121.148 0.723858 120.924 0.5 120.648 0.5V1.5ZM124.626 0.5C124.35 0.5 124.126 0.723858 124.126 1C124.126 1.27614 124.35 1.5 124.626 1.5V0.5ZM124.636 1.5C124.912 1.5 125.136 1.27614 125.136 1C125.136 0.723858 124.912 0.5 124.636 0.5V1.5ZM128.614 0.5C128.338 0.5 128.114 0.723858 128.114 1C128.114 1.27614 128.338 1.5 128.614 1.5V0.5ZM128.624 1.5C128.9 1.5 129.124 1.27614 129.124 1C129.124 0.723858 128.9 0.5 128.624 0.5V1.5ZM132.602 0.5C132.326 0.5 132.102 0.723858 132.102 1C132.102 1.27614 132.326 1.5 132.602 1.5V0.5ZM132.612 1.5C132.888 1.5 133.112 1.27614 133.112 1C133.112 0.723858 132.888 0.5 132.612 0.5V1.5ZM136.59 0.5C136.314 0.5 136.09 0.723858 136.09 1C136.09 1.27614 136.314 1.5 136.59 1.5V0.5ZM136.6 1.5C136.876 1.5 137.1 1.27614 137.1 1C137.1 0.723858 136.876 0.5 136.6 0.5V1.5ZM140.578 0.5C140.302 0.5 140.078 0.723858 140.078 1C140.078 1.27614 140.302 1.5 140.578 1.5V0.5ZM140.588 1.5C140.864 1.5 141.088 1.27614 141.088 1C141.088 0.723858 140.864 0.5 140.588 0.5V1.5ZM144.566 0.5C144.29 0.5 144.066 0.723858 144.066 1C144.066 1.27614 144.29 1.5 144.566 1.5V0.5ZM144.576 1.5C144.853 1.5 145.076 1.27614 145.076 1C145.076 0.723858 144.853 0.5 144.576 0.5V1.5ZM148.555 0.5C148.278 0.5 148.055 0.723858 148.055 1C148.055 1.27614 148.278 1.5 148.555 1.5V0.5ZM148.565 1.5C148.841 1.5 149.065 1.27614 149.065 1C149.065 0.723858 148.841 0.5 148.565 0.5V1.5ZM152.543 0.5C152.267 0.5 152.043 0.723858 152.043 1C152.043 1.27614 152.267 1.5 152.543 1.5V0.5ZM152.553 1.5C152.829 1.5 153.053 1.27614 153.053 1C153.053 0.723858 152.829 0.5 152.553 0.5V1.5ZM156.531 0.5C156.255 0.5 156.031 0.723858 156.031 1C156.031 1.27614 156.255 1.5 156.531 1.5V0.5ZM156.541 1.5C156.817 1.5 157.041 1.27614 157.041 1C157.041 0.723858 156.817 0.5 156.541 0.5V1.5ZM160.519 0.5C160.243 0.5 160.019 0.723858 160.019 1C160.019 1.27614 160.243 1.5 160.519 1.5V0.5ZM160.529 1.5C160.805 1.5 161.029 1.27614 161.029 1C161.029 0.723858 160.805 0.5 160.529 0.5V1.5ZM164.507 0.5C164.231 0.5 164.007 0.723858 164.007 1C164.007 1.27614 164.231 1.5 164.507 1.5V0.5ZM164.517 1.5C164.793 1.5 165.017 1.27614 165.017 1C165.017 0.723858 164.793 0.5 164.517 0.5V1.5ZM168.495 0.5C168.219 0.5 167.995 0.723858 167.995 1C167.995 1.27614 168.219 1.5 168.495 1.5V0.5ZM168.505 1.5C168.781 1.5 169.005 1.27614 169.005 1C169.005 0.723858 168.781 0.5 168.505 0.5V1.5ZM172.483 0.5C172.207 0.5 171.983 0.723858 171.983 1C171.983 1.27614 172.207 1.5 172.483 1.5V0.5ZM172.493 1.5C172.769 1.5 172.993 1.27614 172.993 1C172.993 0.723858 172.769 0.5 172.493 0.5V1.5ZM176.471 0.5C176.195 0.5 175.971 0.723858 175.971 1C175.971 1.27614 176.195 1.5 176.471 1.5V0.5ZM176.481 1.5C176.757 1.5 176.981 1.27614 176.981 1C176.981 0.723858 176.757 0.5 176.481 0.5V1.5ZM180.459 0.5C180.183 0.5 179.959 0.723858 179.959 1C179.959 1.27614 180.183 1.5 180.459 1.5V0.5ZM180.469 1.5C180.745 1.5 180.969 1.27614 180.969 1C180.969 0.723858 180.745 0.5 180.469 0.5V1.5ZM184.447 0.5C184.171 0.5 183.947 0.723858 183.947 1C183.947 1.27614 184.171 1.5 184.447 1.5V0.5ZM184.457 1.5C184.734 1.5 184.957 1.27614 184.957 1C184.957 0.723858 184.734 0.5 184.457 0.5V1.5ZM188.436 0.5C188.159 0.5 187.936 0.723858 187.936 1C187.936 1.27614 188.159 1.5 188.436 1.5V0.5ZM188.446 1.5C188.722 1.5 188.946 1.27614 188.946 1C188.946 0.723858 188.722 0.5 188.446 0.5V1.5ZM192.424 0.5C192.148 0.5 191.924 0.723858 191.924 1C191.924 1.27614 192.148 1.5 192.424 1.5V0.5ZM192.434 1.5C192.71 1.5 192.934 1.27614 192.934 1C192.934 0.723858 192.71 0.5 192.434 0.5V1.5ZM196.412 0.5C196.136 0.5 195.912 0.723858 195.912 1C195.912 1.27614 196.136 1.5 196.412 1.5V0.5ZM196.422 1.5C196.698 1.5 196.922 1.27614 196.922 1C196.922 0.723858 196.698 0.5 196.422 0.5V1.5ZM200.4 0.5C200.124 0.5 199.9 0.723858 199.9 1C199.9 1.27614 200.124 1.5 200.4 1.5V0.5ZM200.41 1.5C200.686 1.5 200.91 1.27614 200.91 1C200.91 0.723858 200.686 0.5 200.41 0.5V1.5ZM204.388 0.5C204.112 0.5 203.888 0.723858 203.888 1C203.888 1.27614 204.112 1.5 204.388 1.5V0.5ZM204.398 1.5C204.674 1.5 204.898 1.27614 204.898 1C204.898 0.723858 204.674 0.5 204.398 0.5V1.5ZM208.376 0.5C208.1 0.5 207.876 0.723858 207.876 1C207.876 1.27614 208.1 1.5 208.376 1.5V0.5ZM208.386 1.5C208.662 1.5 208.886 1.27614 208.886 1C208.886 0.723858 208.662 0.5 208.386 0.5V1.5ZM212.364 0.5C212.088 0.5 211.864 0.723858 211.864 1C211.864 1.27614 212.088 1.5 212.364 1.5V0.5ZM212.374 1.5C212.65 1.5 212.874 1.27614 212.874 1C212.874 0.723858 212.65 0.5 212.374 0.5V1.5ZM216.352 0.5C216.076 0.5 215.852 0.723858 215.852 1C215.852 1.27614 216.076 1.5 216.352 1.5V0.5ZM216.362 1.5C216.638 1.5 216.862 1.27614 216.862 1C216.862 0.723858 216.638 0.5 216.362 0.5V1.5ZM220.34 0.5C220.064 0.5 219.84 0.723858 219.84 1C219.84 1.27614 220.064 1.5 220.34 1.5V0.5ZM220.35 1.5C220.626 1.5 220.85 1.27614 220.85 1C220.85 0.723858 220.626 0.5 220.35 0.5V1.5ZM224.328 0.5C224.052 0.5 223.828 0.723858 223.828 1C223.828 1.27614 224.052 1.5 224.328 1.5V0.5ZM224.338 1.5C224.615 1.5 224.838 1.27614 224.838 1C224.838 0.723858 224.615 0.5 224.338 0.5V1.5ZM228.317 0.5C228.04 0.5 227.817 0.723858 227.817 1C227.817 1.27614 228.04 1.5 228.317 1.5V0.5ZM228.327 1.5C228.603 1.5 228.827 1.27614 228.827 1C228.827 0.723858 228.603 0.5 228.327 0.5V1.5ZM232.305 0.5C232.029 0.5 231.805 0.723858 231.805 1C231.805 1.27614 232.029 1.5 232.305 1.5V0.5ZM232.315 1.5C232.591 1.5 232.815 1.27614 232.815 1C232.815 0.723858 232.591 0.5 232.315 0.5V1.5ZM236.293 0.5C236.017 0.5 235.793 0.723858 235.793 1C235.793 1.27614 236.017 1.5 236.293 1.5V0.5ZM236.303 1.5C236.579 1.5 236.803 1.27614 236.803 1C236.803 0.723858 236.579 0.5 236.303 0.5V1.5ZM240.281 0.5C240.005 0.5 239.781 0.723858 239.781 1C239.781 1.27614 240.005 1.5 240.281 1.5V0.5ZM240.291 1.5C240.567 1.5 240.791 1.27614 240.791 1C240.791 0.723858 240.567 0.5 240.291 0.5V1.5ZM244.269 0.5C243.993 0.5 243.769 0.723858 243.769 1C243.769 1.27614 243.993 1.5 244.269 1.5V0.5ZM244.279 1.5C244.555 1.5 244.779 1.27614 244.779 1C244.779 0.723858 244.555 0.5 244.279 0.5V1.5ZM248.257 0.5C247.981 0.5 247.757 0.723858 247.757 1C247.757 1.27614 247.981 1.5 248.257 1.5V0.5ZM248.267 1.5C248.543 1.5 248.767 1.27614 248.767 1C248.767 0.723858 248.543 0.5 248.267 0.5V1.5ZM252.245 0.5C251.969 0.5 251.745 0.723858 251.745 1C251.745 1.27614 251.969 1.5 252.245 1.5V0.5ZM252.255 1.5C252.531 1.5 252.755 1.27614 252.755 1C252.755 0.723858 252.531 0.5 252.255 0.5V1.5ZM256.233 0.5C255.957 0.5 255.733 0.723858 255.733 1C255.733 1.27614 255.957 1.5 256.233 1.5V0.5ZM256.243 1.5C256.519 1.5 256.743 1.27614 256.743 1C256.743 0.723858 256.519 0.5 256.243 0.5V1.5ZM260.221 0.5C259.945 0.5 259.721 0.723858 259.721 1C259.721 1.27614 259.945 1.5 260.221 1.5V0.5ZM260.231 1.5C260.507 1.5 260.731 1.27614 260.731 1C260.731 0.723858 260.507 0.5 260.231 0.5V1.5ZM264.209 0.5C263.933 0.5 263.709 0.723858 263.709 1C263.709 1.27614 263.933 1.5 264.209 1.5V0.5ZM264.219 1.5C264.496 1.5 264.719 1.27614 264.719 1C264.719 0.723858 264.496 0.5 264.219 0.5V1.5ZM268.198 0.5C267.921 0.5 267.698 0.723858 267.698 1C267.698 1.27614 267.921 1.5 268.198 1.5V0.5ZM268.207 1.5C268.484 1.5 268.707 1.27614 268.707 1C268.707 0.723858 268.484 0.5 268.207 0.5V1.5ZM272.186 0.5C271.909 0.5 271.686 0.723858 271.686 1C271.686 1.27614 271.909 1.5 272.186 1.5V0.5ZM272.196 1.5C272.472 1.5 272.696 1.27614 272.696 1C272.696 0.723858 272.472 0.5 272.196 0.5V1.5ZM276.174 0.5C275.898 0.5 275.674 0.723858 275.674 1C275.674 1.27614 275.898 1.5 276.174 1.5V0.5ZM276.184 1.5C276.46 1.5 276.684 1.27614 276.684 1C276.684 0.723858 276.46 0.5 276.184 0.5V1.5ZM280.162 0.5C279.886 0.5 279.662 0.723858 279.662 1C279.662 1.27614 279.886 1.5 280.162 1.5V0.5ZM280.172 1.5C280.448 1.5 280.672 1.27614 280.672 1C280.672 0.723858 280.448 0.5 280.172 0.5V1.5ZM284.15 0.5C283.874 0.5 283.65 0.723858 283.65 1C283.65 1.27614 283.874 1.5 284.15 1.5V0.5ZM284.16 1.5C284.436 1.5 284.66 1.27614 284.66 1C284.66 0.723858 284.436 0.5 284.16 0.5V1.5ZM288.138 0.5C287.862 0.5 287.638 0.723858 287.638 1C287.638 1.27614 287.862 1.5 288.138 1.5V0.5ZM288.148 1.5C288.424 1.5 288.648 1.27614 288.648 1C288.648 0.723858 288.424 0.5 288.148 0.5V1.5ZM292.126 0.5C291.85 0.5 291.626 0.723858 291.626 1C291.626 1.27614 291.85 1.5 292.126 1.5V0.5ZM292.136 1.5C292.412 1.5 292.636 1.27614 292.636 1C292.636 0.723858 292.412 0.5 292.136 0.5V1.5ZM296.114 0.5C295.838 0.5 295.614 0.723858 295.614 1C295.614 1.27614 295.838 1.5 296.114 1.5V0.5ZM296.124 1.5C296.4 1.5 296.624 1.27614 296.624 1C296.624 0.723858 296.4 0.5 296.124 0.5V1.5ZM300.102 0.5C299.826 0.5 299.602 0.723858 299.602 1C299.602 1.27614 299.826 1.5 300.102 1.5V0.5ZM300.112 1.5C300.388 1.5 300.612 1.27614 300.612 1C300.612 0.723858 300.388 0.5 300.112 0.5V1.5ZM304.09 0.5C303.814 0.5 303.59 0.723858 303.59 1C303.59 1.27614 303.814 1.5 304.09 1.5V0.5ZM304.1 1.5C304.376 1.5 304.6 1.27614 304.6 1C304.6 0.723858 304.376 0.5 304.1 0.5V1.5ZM308.079 0.5C307.802 0.5 307.579 0.723858 307.579 1C307.579 1.27614 307.802 1.5 308.079 1.5V0.5ZM308.088 1.5C308.365 1.5 308.588 1.27614 308.588 1C308.588 0.723858 308.365 0.5 308.088 0.5V1.5ZM312.067 0.5C311.79 0.5 311.567 0.723858 311.567 1C311.567 1.27614 311.79 1.5 312.067 1.5V0.5ZM312.077 1.5C312.353 1.5 312.577 1.27614 312.577 1C312.577 0.723858 312.353 0.5 312.077 0.5V1.5ZM316.055 0.5C315.779 0.5 315.555 0.723858 315.555 1C315.555 1.27614 315.779 1.5 316.055 1.5V0.5ZM316.065 1.5C316.341 1.5 316.565 1.27614 316.565 1C316.565 0.723858 316.341 0.5 316.065 0.5V1.5ZM320.043 0.5C319.767 0.5 319.543 0.723858 319.543 1C319.543 1.27614 319.767 1.5 320.043 1.5V0.5ZM320.053 1.5C320.329 1.5 320.553 1.27614 320.553 1C320.553 0.723858 320.329 0.5 320.053 0.5V1.5ZM324.031 0.5C323.755 0.5 323.531 0.723858 323.531 1C323.531 1.27614 323.755 1.5 324.031 1.5V0.5ZM324.041 1.5C324.317 1.5 324.541 1.27614 324.541 1C324.541 0.723858 324.317 0.5 324.041 0.5V1.5ZM328.019 0.5C327.743 0.5 327.519 0.723858 327.519 1C327.519 1.27614 327.743 1.5 328.019 1.5V0.5ZM328.029 1.5C328.305 1.5 328.529 1.27614 328.529 1C328.529 0.723858 328.305 0.5 328.029 0.5V1.5ZM332.007 0.5C331.731 0.5 331.507 0.723858 331.507 1C331.507 1.27614 331.731 1.5 332.007 1.5V0.5ZM332.017 1.5C332.293 1.5 332.517 1.27614 332.517 1C332.517 0.723858 332.293 0.5 332.017 0.5V1.5ZM335.995 0.5C335.719 0.5 335.495 0.723858 335.495 1C335.495 1.27614 335.719 1.5 335.995 1.5V0.5ZM1 1.5H1.00497V0.5H1V1.5ZM4.98312 1.5H4.99307V0.5H4.98312V1.5ZM8.97122 1.5H8.98116V0.5H8.97122V1.5ZM12.9593 1.5H12.9693V0.5H12.9593V1.5ZM16.9474 1.5H16.9574V0.5H16.9474V1.5ZM20.9355 1.5H20.9454V0.5H20.9355V1.5ZM24.9236 1.5H24.9335V0.5H24.9236V1.5ZM28.9117 1.5H28.9216V0.5H28.9117V1.5ZM32.8998 1.5H32.9097V0.5H32.8998V1.5ZM36.8879 1.5H36.8978V0.5H36.8879V1.5ZM40.876 1.5H40.8859V0.5H40.876V1.5ZM44.8641 1.5H44.874V0.5H44.8641V1.5ZM48.8522 1.5H48.8621V0.5H48.8522V1.5ZM52.8403 1.5H52.8502V0.5H52.8403V1.5ZM56.8283 1.5H56.8383V0.5H56.8283V1.5ZM60.8164 1.5H60.8264V0.5H60.8164V1.5ZM64.8045 1.5H64.8145V0.5H64.8045V1.5ZM68.7926 1.5H68.8026V0.5H68.7926V1.5ZM72.7807 1.5H72.7907V0.5H72.7807V1.5ZM76.7688 1.5H76.7788V0.5H76.7688V1.5ZM80.7569 1.5H80.7669V0.5H80.7569V1.5ZM84.745 1.5H84.755V0.5H84.745V1.5ZM88.7331 1.5H88.7431V0.5H88.7331V1.5ZM92.7212 1.5H92.7312V0.5H92.7212V1.5ZM96.7093 1.5H96.7193V0.5H96.7093V1.5ZM100.697 1.5H100.707V0.5H100.697V1.5ZM104.686 1.5H104.695V0.5H104.686V1.5ZM108.674 1.5H108.684V0.5H108.674V1.5ZM112.662 1.5H112.672V0.5H112.662V1.5ZM116.65 1.5H116.66V0.5H116.65V1.5ZM120.638 1.5H120.648V0.5H120.638V1.5ZM124.626 1.5H124.636V0.5H124.626V1.5ZM128.614 1.5H128.624V0.5H128.614V1.5ZM132.602 1.5H132.612V0.5H132.602V1.5ZM136.59 1.5H136.6V0.5H136.59V1.5ZM140.578 1.5H140.588V0.5H140.578V1.5ZM144.566 1.5H144.576V0.5H144.566V1.5ZM148.555 1.5H148.565V0.5H148.555V1.5ZM152.543 1.5H152.553V0.5H152.543V1.5ZM156.531 1.5H156.541V0.5H156.531V1.5ZM160.519 1.5H160.529V0.5H160.519V1.5ZM164.507 1.5H164.517V0.5H164.507V1.5ZM168.495 1.5H168.505V0.5H168.495V1.5ZM172.483 1.5H172.493V0.5H172.483V1.5ZM176.471 1.5H176.481V0.5H176.471V1.5ZM180.459 1.5H180.469V0.5H180.459V1.5ZM184.447 1.5H184.457V0.5H184.447V1.5ZM188.436 1.5H188.446V0.5H188.436V1.5ZM192.424 1.5H192.434V0.5H192.424V1.5ZM196.412 1.5H196.422V0.5H196.412V1.5ZM200.4 1.5H200.41V0.5H200.4V1.5ZM204.388 1.5H204.398V0.5H204.388V1.5ZM208.376 1.5H208.386V0.5H208.376V1.5ZM212.364 1.5H212.374V0.5H212.364V1.5ZM216.352 1.5H216.362V0.5H216.352V1.5ZM220.34 1.5H220.35V0.5H220.34V1.5ZM224.328 1.5H224.338V0.5H224.328V1.5ZM228.317 1.5H228.327V0.5H228.317V1.5ZM232.305 1.5H232.315V0.5H232.305V1.5ZM236.293 1.5H236.303V0.5H236.293V1.5ZM240.281 1.5H240.291V0.5H240.281V1.5ZM244.269 1.5H244.279V0.5H244.269V1.5ZM248.257 1.5H248.267V0.5H248.257V1.5ZM252.245 1.5H252.255V0.5H252.245V1.5ZM256.233 1.5H256.243V0.5H256.233V1.5ZM260.221 1.5H260.231V0.5H260.221V1.5ZM264.209 1.5H264.219V0.5H264.209V1.5ZM268.198 1.5H268.207V0.5H268.198V1.5ZM272.186 1.5H272.196V0.5H272.186V1.5ZM276.174 1.5H276.184V0.5H276.174V1.5ZM280.162 1.5H280.172V0.5H280.162V1.5ZM284.15 1.5H284.16V0.5H284.15V1.5ZM288.138 1.5H288.148V0.5H288.138V1.5ZM292.126 1.5H292.136V0.5H292.126V1.5ZM296.114 1.5H296.124V0.5H296.114V1.5ZM300.102 1.5H300.112V0.5H300.102V1.5ZM304.09 1.5H304.1V0.5H304.09V1.5ZM308.079 1.5H308.088V0.5H308.079V1.5ZM312.067 1.5H312.077V0.5H312.067V1.5ZM316.055 1.5H316.065V0.5H316.055V1.5ZM320.043 1.5H320.053V0.5H320.043V1.5ZM324.031 1.5H324.041V0.5H324.031V1.5ZM328.019 1.5H328.029V0.5H328.019V1.5ZM332.007 1.5H332.017V0.5H332.007V1.5ZM335.995 1.5H336V0.5H335.995V1.5Z" fill="white"/>
</svg>
