<svg width="12" height="12" viewBox="0 0 12 12" fill="none" xmlns="http://www.w3.org/2000/svg">
<path d="M1.96967 7.53033C1.67678 7.23744 1.67678 6.76256 1.96967 6.46967C2.26256 6.17678 2.73744 6.17678 3.03033 6.46967L1.96967 7.53033ZM6 10.5L6.53033 11.0303C6.23744 11.3232 5.76256 11.3232 5.46967 11.0303L6 10.5ZM8.96967 6.46967C9.26256 6.17678 9.73744 6.17678 10.0303 6.46967C10.3232 6.76256 10.3232 7.23744 10.0303 7.53033L8.96967 6.46967ZM3.03033 6.46967L6.53033 9.96967L5.46967 11.0303L1.96967 7.53033L3.03033 6.46967ZM5.46967 9.96967L8.96967 6.46967L10.0303 7.53033L6.53033 11.0303L5.46967 9.96967Z" fill="#EF4C57"/>
<path d="M6.75 10.25C6.75 10.6642 6.41421 11 6 11C5.58579 11 5.25 10.6642 5.25 10.25L6.75 10.25ZM5.25 1.5C5.25 1.08579 5.58579 0.75 6 0.75C6.41421 0.75 6.75 1.08579 6.75 1.5L5.25 1.5ZM5.25 10.25L5.25 1.5L6.75 1.5L6.75 10.25L5.25 10.25Z" fill="#EF4C57"/>
</svg>
