<svg width="54" height="54" viewBox="0 0 54 54" fill="none" xmlns="http://www.w3.org/2000/svg">
<circle cx="27" cy="27" r="27" fill="#2FCAB0"/>
<circle cx="27" cy="27" r="10" fill="white"/>
<circle cx="27" cy="26.9944" r="6.875" fill="#FFE665"/>
<path d="M37 26.0801V27.0001C36.9988 29.1565 36.3005 31.2548 35.0093 32.9819C33.7182 34.7091 31.9033 35.9726 29.8354 36.584C27.7674 37.1954 25.5573 37.122 23.5345 36.3747C21.5117 35.6274 19.7847 34.2462 18.611 32.4372C17.4373 30.6281 16.8798 28.4882 17.0217 26.3364C17.1636 24.1847 17.9972 22.1364 19.3983 20.4972C20.7994 18.8579 22.6928 17.7155 24.7962 17.2403C26.8996 16.765 29.1003 16.9824 31.07 17.8601" stroke="#444444" stroke-width="2" stroke-linecap="round" stroke-linejoin="round"/>
<path d="M37 19L27 29.01L24 26.01" stroke="#444444" stroke-width="2" stroke-linecap="round" stroke-linejoin="round"/>
</svg>
