<svg width="33" height="38" viewBox="0 0 33 38" fill="none" xmlns="http://www.w3.org/2000/svg">
<rect x="0.75" y="9.33398" width="17.7033" height="27.305" rx="2.25" fill="white" stroke="#444444" stroke-width="1.5"/>
<rect x="2.82471" y="13.668" width="13.5553" height="20.8978" rx="1.33333" fill="#EEEEEE"/>
<path d="M8.18896 11.9727H11.013" stroke="#444444" stroke-width="1.5" stroke-linecap="round"/>
<circle cx="16.6321" cy="24.2961" r="9.16527" fill="#FFE665"/>
<g clip-path="url(#clip0_1737_13720)">
<path d="M21.6041 27.151C21.6041 27.3921 21.5101 27.6234 21.3426 27.7939C21.1752 27.9644 20.9481 28.0602 20.7114 28.0602H12.6769C12.4401 28.0602 12.2131 27.9644 12.0457 27.7939C11.8782 27.6234 11.7842 27.3921 11.7842 27.151V22.1501C11.7842 21.9089 11.8782 21.6777 12.0457 21.5071C12.2131 21.3366 12.4401 21.2408 12.6769 21.2408H14.4623L14.9603 20.4801C15.2066 20.1037 15.6261 19.877 16.0759 19.877H17.3124C17.7622 19.877 18.1817 20.1037 18.428 20.4801L18.9259 21.2408H20.7114C20.9481 21.2408 21.1752 21.3366 21.3426 21.5071C21.5101 21.6777 21.6041 21.9089 21.6041 22.1501V27.151Z" fill="#444444"/>
<path d="M18.2947 24.3779C18.2947 25.2623 17.5777 25.9792 16.6933 25.9792C15.8089 25.9792 15.0919 25.2623 15.0919 24.3779C15.0919 23.4934 15.8089 22.7765 16.6933 22.7765C17.5777 22.7765 18.2947 23.4934 18.2947 24.3779Z" stroke="#FFE665" stroke-width="0.888886" stroke-linecap="round" stroke-linejoin="round"/>
</g>
<path d="M27.1692 4.2825C25.9373 4.2825 24.9374 5.27756 24.9374 6.5036C24.9374 7.72965 25.9373 8.7247 27.1692 8.7247C28.4012 8.7247 29.401 7.72965 29.401 6.5036C29.401 5.27756 28.4012 4.2825 27.1692 4.2825ZM22.7056 6.94782H23.5984C23.8439 6.94782 24.0447 6.74792 24.0447 6.5036C24.0447 6.25928 23.8439 6.05938 23.5984 6.05938H22.7056C22.4601 6.05938 22.2593 6.25928 22.2593 6.5036C22.2593 6.74792 22.4601 6.94782 22.7056 6.94782ZM30.7401 6.94782H31.6328C31.8783 6.94782 32.0792 6.74792 32.0792 6.5036C32.0792 6.25928 31.8783 6.05938 31.6328 6.05938H30.7401C30.4946 6.05938 30.2938 6.25928 30.2938 6.5036C30.2938 6.74792 30.4946 6.94782 30.7401 6.94782ZM26.7229 2.06141V2.94985C26.7229 3.19417 26.9237 3.39407 27.1692 3.39407C27.4147 3.39407 27.6156 3.19417 27.6156 2.94985V2.06141C27.6156 1.81709 27.4147 1.61719 27.1692 1.61719C26.9237 1.61719 26.7229 1.81709 26.7229 2.06141ZM26.7229 10.0574V10.9458C26.7229 11.1901 26.9237 11.39 27.1692 11.39C27.4147 11.39 27.6156 11.1901 27.6156 10.9458V10.0574C27.6156 9.81304 27.4147 9.61314 27.1692 9.61314C26.9237 9.61314 26.7229 9.81304 26.7229 10.0574ZM24.4866 3.20749C24.3125 3.03425 24.0269 3.03425 23.8572 3.20749C23.6832 3.38074 23.6832 3.66504 23.8572 3.83384L24.3304 4.30471C24.5045 4.47796 24.7901 4.47796 24.9598 4.30471C25.1294 4.13147 25.1338 3.84717 24.9598 3.67837L24.4866 3.20749ZM30.0081 8.70249C29.834 8.52924 29.5483 8.52924 29.3787 8.70249C29.2046 8.87573 29.2046 9.16003 29.3787 9.32884L29.8519 9.79971C30.0259 9.97295 30.3116 9.97295 30.4812 9.79971C30.6553 9.62646 30.6553 9.34216 30.4812 9.17336L30.0081 8.70249ZM30.4812 3.83384C30.6553 3.6606 30.6553 3.3763 30.4812 3.20749C30.3072 3.03425 30.0215 3.03425 29.8519 3.20749L29.3787 3.67837C29.2046 3.85161 29.2046 4.13591 29.3787 4.30471C29.5528 4.47352 29.8385 4.47796 30.0081 4.30471L30.4812 3.83384ZM24.9598 9.32884C25.1338 9.15559 25.1338 8.87129 24.9598 8.70249C24.7857 8.52924 24.5 8.52924 24.3304 8.70249L23.8572 9.17336C23.6832 9.34661 23.6832 9.63091 23.8572 9.79971C24.0313 9.96851 24.317 9.97295 24.4866 9.79971L24.9598 9.32884Z" fill="#444444"/>
<defs>
<clipPath id="clip0_1737_13720">
<rect width="9.81993" height="9.81993" fill="white" transform="translate(11.7842 19.0586)"/>
</clipPath>
</defs>
</svg>
