<svg width="54" height="54" viewBox="0 0 54 54" fill="none" xmlns="http://www.w3.org/2000/svg">
<circle cx="27" cy="27" r="26" fill="white" stroke="#EEEEEE" stroke-width="2"/>
<path d="M37 26.0799V26.9999C36.9988 29.1563 36.3005 31.2545 35.0093 32.9817C33.7182 34.7088 31.9033 35.9723 29.8354 36.5838C27.7674 37.1952 25.5573 37.1218 23.5345 36.3744C21.5117 35.6271 19.7847 34.246 18.611 32.4369C17.4373 30.6279 16.8798 28.4879 17.0217 26.3362C17.1636 24.1844 17.9972 22.1362 19.3983 20.4969C20.7994 18.8577 22.6928 17.7152 24.7962 17.24C26.8996 16.7648 29.1003 16.9822 31.07 17.8599" stroke="#DDDDDD" stroke-width="2" stroke-linecap="round" stroke-linejoin="round"/>
<path d="M37 19L27 29.01L24 26.01" stroke="#DDDDDD" stroke-width="2" stroke-linecap="round" stroke-linejoin="round"/>
</svg>
