<svg width="36" height="36" viewBox="0 0 36 36" fill="none" xmlns="http://www.w3.org/2000/svg">
<rect width="36" height="36" fill="white"/>
<rect width="13" height="12" rx="6" transform="matrix(1 0 0 -1 11 26)" fill="#FFE665"/>
<path d="M9.5 17.4046C9.5 12.9968 13.0865 9.41211 17.5 9.41211C21.9135 9.41211 25.5 12.9968 25.5 17.4046C25.5 21.8124 21.9135 25.3971 17.5 25.3971C13.0865 25.3971 9.5 21.8124 9.5 17.4046Z" stroke="#444444" stroke-width="2"/>
<path d="M8.575 6.37368L7.99 5.78917C7.405 5.20465 6.46 5.21964 5.89 5.78917L5.875 5.80415C5.29 6.38867 5.29 7.33288 5.875 7.9024L6.46 8.48692C7.045 9.07143 7.975 9.07143 8.56 8.48692L8.575 8.47193C9.16 7.9024 9.16 6.9432 8.575 6.37368ZM4.015 15.9057H2.485C1.66 15.9057 1 16.5652 1 17.3895V17.4045C1 18.2288 1.66 18.8882 2.485 18.8882H4C4.84 18.9032 5.5 18.2438 5.5 17.4195V17.4045C5.5 16.5652 4.84 15.9057 4.015 15.9057ZM17.515 0.993164H17.5C16.66 0.993164 16 1.65261 16 2.47693V3.91573C16 4.74004 16.66 5.39949 17.485 5.39949H17.5C18.34 5.41448 19 4.75503 19 3.93071V2.47693C19 1.65261 18.34 0.993164 17.515 0.993164ZM29.125 5.80415C28.54 5.21964 27.595 5.21964 27.01 5.78917L26.425 6.37368C25.84 6.95819 25.84 7.9024 26.425 8.47193L26.44 8.48692C27.025 9.07143 27.97 9.07143 28.54 8.48692L29.125 7.9024C29.71 7.31789 29.71 6.38867 29.125 5.80415ZM26.41 28.4353L26.995 29.0198C27.58 29.6043 28.525 29.6043 29.11 29.0198C29.695 28.4353 29.695 27.4911 29.11 26.9066L28.525 26.322C27.94 25.7375 26.995 25.7525 26.425 26.322C25.825 26.9215 25.825 27.8508 26.41 28.4353ZM29.5 17.3895V17.4045C29.5 18.2288 30.16 18.8882 30.985 18.8882H32.5C33.325 18.8882 33.985 18.2288 33.985 17.4045V17.3895C33.985 16.5652 33.325 15.9057 32.5 15.9057H30.985C30.16 15.9057 29.5 16.5652 29.5 17.3895ZM17.485 33.8158H17.5C18.325 33.8158 18.985 33.1563 18.985 32.332V30.8932C18.985 30.0689 18.325 29.4095 17.5 29.4095H17.485C16.66 29.4095 16 30.0689 16 30.8932V32.332C16 33.1563 16.66 33.8158 17.485 33.8158ZM5.875 29.0048C6.46 29.5893 7.405 29.5893 7.99 29.0048L8.575 28.4203C9.16 27.8358 9.145 26.8916 8.575 26.322L8.56 26.3071C7.975 25.7225 7.03 25.7225 6.445 26.3071L5.86 26.8916C5.29 27.4911 5.29 28.4203 5.875 29.0048Z" stroke="#444444" stroke-width="1.5"/>
</svg>
