<svg width="36" height="36" viewBox="0 0 36 36" fill="none" xmlns="http://www.w3.org/2000/svg">
<g clip-path="url(#clip0_1737_13736)">
<path d="M26.9752 32.303L26.8901 23.6954L26.9563 23.6012C27.0318 23.488 28.8456 20.8105 31.0467 20.8105C31.3963 20.8105 31.7364 20.8765 32.067 21.018C33.314 21.5271 34.2114 23.1109 34.3626 25.053C34.5232 27.08 33.7958 28.843 32.4543 29.6632C29.7525 31.3131 27.5609 32.0956 27.4664 32.1333L26.9752 32.303ZM27.9995 24.498V30.498C28.793 30.1775 29.9995 29.498 31.9995 28.498C32.9995 27.498 33.1034 26.3651 32.9995 24.998C32.8673 23.367 32.4631 22.894 31.4995 22.498C31.2633 22.4038 31.0177 22.3566 30.7721 22.3566C29.1661 22.3472 28.3207 24.0549 27.9995 24.498Z" fill="#3E3A39"/>
<path d="M7.40912 32.305L7.49414 23.6974L7.42801 23.6031C7.35244 23.49 5.53865 20.8125 3.33754 20.8125C2.98801 20.8125 2.64792 20.8785 2.31728 21.0199C1.0703 21.529 0.172853 23.1129 0.0217037 25.055C-0.138892 27.082 0.588514 28.845 1.92996 29.6652C4.63175 31.315 6.82342 32.0975 6.91788 32.1353L7.40912 32.305ZM6.5 24.5V30.5C5.70647 30.1795 4.38477 29.5 2.38477 28.5C1.38477 27.5 1.28085 26.367 1.38477 25C1.51702 23.369 1.92119 22.896 2.88477 22.5C3.12094 22.4057 3.36655 22.3586 3.61217 22.3586C5.21813 22.3492 6.17881 24.0569 6.5 24.5Z" fill="#3E3A39"/>
<path d="M17.2084 20.2715C11.1409 20.2715 7.01465 23.6843 7.01465 23.6843V31.5559C8.60889 33.1155 10.5595 34.2807 12.7445 34.8587C16.3738 35.8128 21.0252 35.5926 24.3638 33.8128C24.8983 33.5284 25.4141 33.1889 25.8924 32.822C26.1268 32.6476 27.4022 31.822 27.4022 31.5467V23.6843C27.3928 23.6843 23.2666 20.2715 17.2084 20.2715Z" fill="white"/>
<path d="M17.1815 22.2051C11.1297 22.2051 7.01416 25.2122 7.01416 25.2122V32.148C8.60426 33.5222 10.5498 34.5488 12.7292 35.0581C16.349 35.8988 20.9884 35.7048 24.3182 34.1366C24.8514 33.886 25.3658 33.5869 25.8428 33.2635C26.0767 33.1099 27.3488 32.3824 27.3488 32.1399V25.2122C27.3394 25.2122 23.2239 22.2051 17.1815 22.2051Z" fill="#FFE665"/>
<path d="M17.3966 35.9995C15.8095 35.9995 14.2036 35.7921 12.7771 35.415C10.5949 34.8305 8.53547 33.6237 6.83504 31.9267L6.72168 31.8136V23.404L6.85394 23.2909C7.02398 23.14 11.19 19.6895 17.3683 19.6895C23.5371 19.6895 27.7031 23.14 27.8826 23.2909V23.3474V31.6062C27.8826 31.9361 27.7031 32.3038 26.5695 33.1146C26.475 33.1806 26.39 33.2372 26.3522 33.2749C25.8232 33.6803 25.2847 34.0385 24.7651 34.3214C22.753 35.4055 20.1362 35.9995 17.3966 35.9995ZM8.00098 30.999C9.58805 32.5452 10.9982 33.4616 13.001 33.999C14.3708 34.3667 15.8757 34.499 17.3966 34.499C20.0134 34.499 22.1428 34.1284 24.0416 33.1008C24.5423 32.8274 25.0336 32.5069 25.5343 32.1203C25.5815 32.0826 25.6665 32.026 25.7799 31.9412C26.2724 31.5355 26.4561 31.3628 26.5695 31.2119V24.0897C25.8137 23.5052 22.6585 20.999 17.3683 20.999C12.0591 20.999 8.74728 23.5146 8.00098 24.0897V30.999Z" fill="#3E3A39"/>
</g>
<path d="M15.2921 11.0552H10.5128H6.02197V7.75781H15.2921V11.0552ZM6.6094 10.0352H14.7042V8.78471H6.6094V10.0352Z" fill="#444444"/>
<path d="M6.24266 8.25391C4.33897 8.25391 2.41873 8.28699 0.515043 8.25391C0.117752 8.25391 0.465382 10.454 0.531597 10.7517C0.76335 12.075 1.69036 13.2164 2.94845 13.6961C4.38863 14.2585 6.07712 13.845 7.23589 12.869C8.67607 11.6615 9.10647 10.057 9.10647 8.25391C9.10647 8.25391 6.30888 8.25391 6.24266 8.25391Z" fill="white"/>
<path d="M4.32284 14.2269C3.80967 14.2269 3.31306 14.1442 2.833 13.9623C1.47559 13.4329 0.482359 12.2253 0.234051 10.8027C0.118175 10.1079 -0.179575 7.99656 0.151501 7.61609C0.23427 7.51683 0.350147 7.46721 0.466024 7.46721C1.75966 7.46721 3.04842 7.46721 4.32306 7.46721C4.95211 7.46721 5.5102 7.46484 6.13925 7.46484L9.37135 7.46721V7.85739C9.37135 10.0244 8.77582 11.9772 7.43496 13.1021C6.5245 13.8299 5.41539 14.2269 4.32284 14.2269ZM1.36832 8.96997C1.30211 9.30082 1.45087 9.89288 1.5833 10.6869C2 11.957 2.18822 12.2878 3.34699 12.7345C4.62163 13.2308 5.34123 12.9165 6.5 11.957C7.65877 10.981 8 8.96997 8 8.96997H6.19364C5.5646 8.96997 4.95211 8.96997 4.32306 8.96997C3.09808 8.98652 2.60986 8.98652 1.36832 8.96997Z" fill="#444444"/>
<path d="M14.1284 8.25195C16.0321 8.25195 17.9524 8.28504 19.8561 8.25195C20.2533 8.25195 19.9057 10.452 19.8395 10.7498C19.6077 12.0731 18.6807 13.2145 17.4226 13.6942C15.9825 14.2567 14.294 13.8431 13.1352 12.8671C11.695 11.6596 11.2646 10.055 11.2646 8.25195C11.2646 8.25195 14.0622 8.25195 14.1284 8.25195Z" fill="white"/>
<path d="M16.0483 14.2249C16.5614 14.2249 17.058 14.1422 17.5381 13.9602C18.8955 13.4309 19.8887 12.2233 20.137 10.8007C20.2529 10.106 20.5507 7.9946 20.2196 7.61413C20.1368 7.51488 20.0209 7.46525 19.9051 7.46525C18.6114 7.46525 17.3227 7.46525 16.048 7.46525C15.419 7.46525 14.8609 7.46289 14.2318 7.46289L10.9997 7.46525V7.85544C10.9997 10.0224 11.5953 11.9752 12.9361 13.1001C13.8466 13.8279 14.9557 14.2249 16.0483 14.2249ZM19.0028 8.96801C19.069 9.29885 18.9202 9.8909 18.7878 10.6849C18.3711 11.955 18.1829 12.2859 17.0241 12.7325C15.7495 13.2287 15.0299 12.9144 13.8711 11.955C12.7123 10.979 12.3711 8.96801 12.3711 8.96801H14.1775C14.8065 8.96801 15.419 8.96801 16.048 8.96801C17.273 8.98455 17.7612 8.98455 19.0028 8.96801Z" fill="#444444"/>
<path d="M1.07892 8.5517C1.17824 8.5517 2.34664 8.15875 2.3963 8.07604C3.9027 5.62781 5.77315 2.75913 6.10422 2.36212C6.36819 2.30814 6.65755 2.3353 7.31971 2.3353C7.48524 2.3353 7.61768 1.37242 7.61768 1.207C7.61768 1.04158 7.48524 0.925781 7.31971 0.925781C6.70722 0.925781 5.61466 0.958865 5.3167 1.15737C5.05184 1.33933 2.7343 5.02823 0.830614 8.1216C0.747845 8.25394 0.780952 8.4359 0.929936 8.51861C0.979598 8.53516 1.02926 8.5517 1.07892 8.5517Z" fill="#444444"/>
<path d="M19.5378 8.5517C19.4385 8.5517 18.2701 8.15875 18.2204 8.07604C16.714 5.62781 14.8436 2.75913 14.5125 2.36212C14.2485 2.30814 13.9591 2.3353 13.297 2.3353C13.1315 2.3353 12.999 1.37242 12.999 1.207C12.999 1.04158 13.1315 0.925781 13.297 0.925781C13.9095 0.925781 15.002 0.958865 15.3 1.15737C15.5649 1.33933 17.8824 5.02823 19.7861 8.1216C19.8689 8.25394 19.8357 8.4359 19.6868 8.51861C19.6371 8.53516 19.5874 8.5517 19.5378 8.5517Z" fill="#444444"/>
<ellipse cx="29.8838" cy="7.0127" rx="6.11626" ry="6.08691" fill="#EF4C57"/>
<path d="M31.9227 4.98242L27.8452 9.04034" stroke="white" stroke-width="1.5" stroke-linecap="round"/>
<path d="M27.8448 4.98242L31.9224 9.04034" stroke="white" stroke-width="1.5" stroke-linecap="round"/>
<defs>
<clipPath id="clip0_1737_13736">
<rect width="34.3676" height="16.31" fill="white" transform="translate(0.0234375 19.6895)"/>
</clipPath>
</defs>
</svg>
