<svg width="52" height="50" viewBox="0 0 52 50" fill="none" xmlns="http://www.w3.org/2000/svg">
<path d="M19.75 25.8925C19.75 29.4639 16.7738 30.952 15.2857 31.2496H1V36.6068C1.29762 35.4163 2.42857 33.9282 4.57143 37.4997C6.71429 41.0711 10.2262 40.1782 11.7143 39.2854C13.5 37.202 17.9643 33.9282 21.5357 37.4997C25.1071 41.0711 27.7857 40.1782 28.6786 39.2854C30.4643 37.4997 34.75 34.6425 37.6071 37.4997C41.1786 41.0711 45.6429 40.1782 46.5357 38.3925C47.25 36.9639 50.1071 36.6068 51 36.6068V30.3568C50.4048 30.3568 46.8929 30.5354 41.1786 31.2497C35.4643 31.9639 32.8452 28.5711 32.25 26.7853C27.7857 10.7139 19.75 21.4282 19.75 25.8925Z" fill="white"/>
<path d="M51 30.8632C51 31.4072 50.559 31.8482 50.015 31.8482H37.3317C34.6867 31.8482 32.3256 29.6222 31.5906 26.4309C30.6236 22.2448 28.4295 19.5287 26.0005 19.5287C23.5714 19.5287 21.3764 22.2374 20.4094 26.4309C19.6744 29.6185 17.3093 31.8482 14.6683 31.8482H1.98497C1.44098 31.8482 1 31.4072 1 30.8632V30.8632C1 30.3193 1.44098 29.8783 1.98497 29.8783H14.6683C16.6323 29.8783 18.3213 28.2777 18.8684 25.8965C20.0364 20.8338 22.8344 17.5625 25.9985 17.5625C29.1626 17.5625 31.9596 20.8338 33.1276 25.8965C33.6766 28.2777 35.3657 29.8783 37.3277 29.8783H50.015C50.559 29.8783 51 30.3193 51 30.8632V30.8632Z" fill="#444444" stroke="#444444" stroke-width="0.75"/>
<path d="M42.665 40.7712C40.31 40.7712 39.089 39.7243 38.011 38.8002C37.011 37.9419 36.143 37.1998 34.331 37.1998C32.519 37.1998 31.654 37.9419 30.652 38.8002C29.574 39.7243 28.352 40.7712 25.998 40.7712C23.644 40.7712 22.422 39.7243 21.344 38.8002C20.344 37.9419 19.477 37.1998 17.665 37.1998C15.853 37.1998 14.988 37.9419 13.986 38.8002C12.909 39.7243 11.686 40.7712 9.332 40.7712C6.978 40.7712 5.756 39.7243 4.679 38.8002C3.85837 38.0959 3.12662 37.4698 1.88968 37.2678C1.40301 37.1883 1 36.8 1 36.3069V36.3069C1 35.8138 1.40197 35.4064 1.89121 35.468C3.68088 35.6935 4.72087 36.5851 5.653 37.3839C6.653 38.2433 7.521 38.9855 9.332 38.9855C11.143 38.9855 12.009 38.2433 13.011 37.3839C14.089 36.4609 15.311 35.4141 17.665 35.4141C20.019 35.4141 21.241 36.4609 22.319 37.3839C23.319 38.2433 24.186 38.9855 25.998 38.9855C27.81 38.9855 28.675 38.2433 29.677 37.3839C30.755 36.4609 31.977 35.4141 34.331 35.4141C36.685 35.4141 37.908 36.4609 38.986 37.3839C39.986 38.2433 40.854 38.9855 42.665 38.9855C44.476 38.9855 45.343 38.2433 46.345 37.3839C47.278 36.5851 48.3189 35.6934 50.1088 35.468C50.598 35.4064 51 35.8138 51 36.3069V36.3069C51 36.8 50.597 37.1883 50.1103 37.2677C48.8731 37.4697 48.1423 38.0958 47.32 38.8002C46.242 39.7243 45.021 40.7712 42.665 40.7712Z" fill="#444444" stroke="#444444" stroke-width="0.75"/>
<path d="M26.5703 13.3077V8.0996C26.5703 7.56997 26.1409 7.14062 25.6113 7.14062C25.0817 7.14062 24.6523 7.56997 24.6523 8.0996V13.3077C24.6523 13.8373 25.0817 14.2666 25.6113 14.2666C26.1409 14.2666 26.5703 13.8373 26.5703 13.3077Z" fill="#444444" stroke="#444444" stroke-width="0.75"/>
<path d="M17.3644 15.9374L13.6349 12.2422C13.2604 11.8712 12.6532 11.8712 12.2787 12.2422C11.9042 12.6133 11.9042 13.2149 12.2787 13.5859L16.0082 17.2811C16.3827 17.6521 16.9899 17.6521 17.3644 17.2811C17.7389 16.91 17.7389 16.3084 17.3644 15.9374Z" fill="#444444" stroke="#444444" stroke-width="0.75"/>
<path d="M37.5854 12.2424L33.8558 15.9375C33.4813 16.3086 33.4813 16.9102 33.8558 17.2812C34.2303 17.6523 34.8375 17.6523 35.212 17.2812L38.9416 13.5861C39.3161 13.215 39.3161 12.6134 38.9416 12.2424C38.5671 11.8713 37.9599 11.8713 37.5854 12.2424Z" fill="#444444" stroke="#444444" stroke-width="0.75"/>
<circle cx="25.9984" cy="26.6693" r="3.33333" fill="#FFE665"/>
</svg>
