<svg width="36" height="37" viewBox="0 0 36 37" fill="none" xmlns="http://www.w3.org/2000/svg">
<path d="M30.4314 19.7636L30.4311 19.7663C29.737 26.0056 24.4311 30.8613 18 30.8613C11.0961 30.8613 5.5 25.2707 5.5 18.3788C5.5 11.9504 10.3653 6.65487 16.6055 5.96731C16.855 5.95164 17.01 6.0642 17.0953 6.21542C17.1916 6.38613 17.1891 6.58825 17.0802 6.75016L17.0737 6.75977L17.0675 6.76953C16.1722 8.16981 15.65 9.8541 15.65 11.6376C15.65 16.6553 19.7289 20.7271 24.75 20.7271C26.5464 20.7271 28.23 20.2079 29.6462 19.301C29.8635 19.1694 30.0542 19.1984 30.2003 19.2941C30.3659 19.4025 30.4522 19.5814 30.4314 19.7636Z" stroke="#888888" stroke-width="2"/>
</svg>
