<svg width="34" height="34" viewBox="0 0 34 34" fill="none" xmlns="http://www.w3.org/2000/svg">
<path d="M17.0104 6.37701C17.0019 6.37697 16.9934 6.37695 16.9849 6.37695C15.1101 6.3878 12.2743 7.32961 12.0457 11.1623C11.9913 12.0728 12.2259 14.4526 13.2157 15.9135C13.3197 16.1181 13.4311 16.304 13.5377 16.482C13.8128 16.9413 14.0559 17.3471 14.0559 17.8809C14.0559 18.712 13.7502 18.9916 13.2157 19.4258C12.361 20.1201 11.5905 20.4808 10.7434 20.8774C10.5843 20.9518 10.4225 21.0276 10.257 21.107C8.96538 21.7269 7.87843 22.3666 7.87842 23.6635V24.9328C7.87842 25.5557 8.35205 26.3562 9.34453 26.3562L24.6582 26.3561C25.6507 26.3561 26.1243 25.5557 26.1243 24.9327V23.6635C26.1243 22.3666 25.0373 21.7268 23.7457 21.107C23.5802 21.0275 23.4184 20.9518 23.2593 20.8773C22.4122 20.4807 21.6417 20.12 20.787 19.4257C20.2525 18.9915 19.9469 18.7119 19.9469 17.8808C19.9469 17.347 20.1899 16.9412 20.4651 16.4819C20.5716 16.304 20.6831 16.118 20.787 15.9134C21.7769 14.4525 22.0114 12.0728 21.9571 11.1622C21.7284 7.32956 18.8926 6.38789 17.0178 6.37705C17.0153 6.37705 17.0129 6.37701 17.0104 6.37701Z" fill="white" stroke="#444444" stroke-width="1.5"/>
<path d="M20.6244 11.9733C20.6244 14.6464 18.9893 17.4379 16.9723 17.4379C14.9554 17.4379 13.3203 14.6464 13.3203 11.9733C13.3203 9.30025 14.9554 7.75781 16.9723 7.75781C18.9893 7.75781 20.6244 9.30025 20.6244 11.9733Z" fill="#FFE665"/>
<path d="M5.80005 1H4C2.34314 1 1 2.34315 1 4V5.80005" stroke="#444444" stroke-width="1.5" stroke-linecap="round" stroke-linejoin="round"/>
<path d="M28.2004 1H30.0005C31.6573 1 33.0005 2.34315 33.0005 4V5.80005" stroke="#444444" stroke-width="1.5" stroke-linecap="round" stroke-linejoin="round"/>
<path d="M28.2004 33L30.0005 33C31.6573 33 33.0005 31.6569 33.0005 30L33.0005 28.2" stroke="#444444" stroke-width="1.5" stroke-linecap="round" stroke-linejoin="round"/>
<path d="M5.80005 33L4 33C2.34314 33 1 31.6569 1 30L1 28.2" stroke="#444444" stroke-width="1.5" stroke-linecap="round" stroke-linejoin="round"/>
</svg>
