<svg width="36" height="36" viewBox="0 0 36 36" fill="none" xmlns="http://www.w3.org/2000/svg">
<path d="M30.9314 19.7977L30.9311 19.8005C30.237 26.0398 24.9311 30.8955 18.5 30.8955C11.5961 30.8955 6 25.3048 6 18.413C6 11.9846 10.8653 6.68905 17.1055 6.00149C17.355 5.98582 17.51 6.09838 17.5953 6.2496C17.6916 6.42031 17.6891 6.62243 17.5802 6.78434L17.5737 6.79395L17.5675 6.80371C16.6722 8.20399 16.15 9.88828 16.15 11.6718C16.15 16.6895 20.2289 20.7613 25.25 20.7613C27.0464 20.7613 28.73 20.2421 30.1462 19.3352C30.3635 19.2035 30.5542 19.2326 30.7003 19.3283C30.8659 19.4367 30.9522 19.6156 30.9314 19.7977Z" stroke="#888888" stroke-width="2"/>
<line x1="6.47487" y1="9.90332" x2="26.6274" y2="30.0559" stroke="white" stroke-width="3.5" stroke-linecap="round"/>
<line x1="5.41421" y1="9.90332" x2="26.6274" y2="31.1165" stroke="#888888" stroke-width="2" stroke-linecap="round"/>
</svg>
