<svg width="40" height="40" viewBox="0 0 40 40" fill="none" xmlns="http://www.w3.org/2000/svg">
<path d="M19.997 27.6143L20.5135 27.9266L27.4302 32.11L27.4304 32.1101C27.9363 32.4164 28.5559 31.968 28.422 31.3922L26.5887 23.5259L26.4518 22.9383L26.9078 22.5432L33.0245 17.2432L33.0248 17.2429C33.4749 16.8532 33.2265 16.125 32.65 16.0792L32.6447 16.0787L32.6447 16.0787L24.5947 15.3954L23.9939 15.3444L23.7586 14.7891L20.6086 7.3558L20.6072 7.35267C20.3836 6.81995 19.6083 6.81995 19.3847 7.35266L19.3831 7.35655L19.3831 7.35655L16.2331 14.7732L15.9975 15.3278L15.3972 15.3787L7.34722 16.062L7.34193 16.0625L7.34193 16.0625C6.76544 16.1083 6.51701 16.8366 6.96714 17.2262L6.96749 17.2265L13.0842 22.5266L13.5402 22.9217L13.4032 23.5093L11.57 31.3755L19.997 27.6143ZM19.997 27.6143L19.48 27.9257M19.997 27.6143L19.48 27.9257M19.48 27.9257L12.5633 32.0924L12.5615 32.0935M19.48 27.9257L12.5615 32.0935M12.5615 32.0935C12.0557 32.3996 11.4364 31.9515 11.5699 31.3759L12.5615 32.0935Z" fill="#FFE665" stroke="#FFE665" stroke-width="2"/>
</svg>
