<svg width="18" height="16" viewBox="0 0 18 16" fill="none" xmlns="http://www.w3.org/2000/svg">
<path d="M10.602 15.214L8.694 12.928C8.166 13.06 7.626 13.126 7.074 13.126C5.898 13.126 4.818 12.85 3.834 12.298C2.85 11.746 2.07 10.984 1.494 10.012C0.918 9.028 0.63 7.918 0.63 6.682C0.63 5.458 0.918 4.36 1.494 3.388C2.07 2.404 2.85 1.636 3.834 1.084C4.818 0.532 5.898 0.256 7.074 0.256C8.262 0.256 9.342 0.532 10.314 1.084C11.298 1.636 12.072 2.404 12.636 3.388C13.212 4.36 13.5 5.458 13.5 6.682C13.5 7.798 13.26 8.818 12.78 9.742C12.312 10.654 11.67 11.398 10.854 11.974L13.734 15.214H10.602ZM3.222 6.682C3.222 7.522 3.384 8.26 3.708 8.896C4.032 9.532 4.482 10.024 5.058 10.372C5.646 10.708 6.318 10.876 7.074 10.876C7.83 10.876 8.496 10.708 9.072 10.372C9.648 10.024 10.098 9.532 10.422 8.896C10.746 8.26 10.908 7.522 10.908 6.682C10.908 5.842 10.746 5.11 10.422 4.486C10.098 3.85 9.648 3.364 9.072 3.028C8.496 2.692 7.83 2.524 7.074 2.524C6.318 2.524 5.646 2.692 5.058 3.028C4.482 3.364 4.032 3.85 3.708 4.486C3.384 5.11 3.222 5.842 3.222 6.682ZM16.436 13.126C15.98 13.126 15.602 12.988 15.302 12.712C15.014 12.424 14.87 12.07 14.87 11.65C14.87 11.23 15.014 10.882 15.302 10.606C15.602 10.318 15.98 10.174 16.436 10.174C16.88 10.174 17.246 10.318 17.534 10.606C17.822 10.882 17.966 11.23 17.966 11.65C17.966 12.07 17.822 12.424 17.534 12.712C17.246 12.988 16.88 13.126 16.436 13.126Z" fill="#BBBBBB"/>
</svg>
