<svg width="30" height="30" viewBox="0 0 30 30" fill="none" xmlns="http://www.w3.org/2000/svg">
<path d="M5.35826 12.3216L2.67969 10.1787V17.6787L3.75112 18.7501L5.35826 19.8216H6.9654L8.03683 19.2859L9.10826 18.2144L10.1797 17.6787H11.2511L12.3225 18.2144L13.394 19.2859L14.4654 19.8216H16.0725L17.144 18.7501L18.2154 17.6787H19.8225L20.894 18.2144L22.5011 19.8216L24.1083 20.3573L25.7154 19.2859L26.7868 17.6787H27.8583V10.1787L26.2511 10.7144L24.644 12.3216H23.5725H22.5011L20.894 10.7144L19.8225 10.1787H18.7511L17.6797 10.7144L16.0725 12.3216H15.0011L13.394 11.7859L11.2511 10.1787H9.64397L8.03683 11.7859L6.42969 12.3216H5.35826Z" fill="#FFE665"/>
<path d="M23.5683 13.0631C22.3572 13.0631 21.7293 12.3946 21.1749 11.8046C20.6606 11.2566 20.2142 10.7827 19.2823 10.7827C18.3504 10.7827 17.9055 11.2566 17.3902 11.8046C16.8358 12.3946 16.2074 13.0631 14.9967 13.0631C13.7861 13.0631 13.1577 12.3946 12.6033 11.8046C12.089 11.2566 11.6431 10.7827 10.7112 10.7827C9.77931 10.7827 9.33445 11.2566 8.81914 11.8046C8.26525 12.3946 7.63628 13.0631 6.42565 13.0631C5.21503 13.0631 4.58657 12.3946 4.03268 11.8046C3.63486 11.3807 3.27766 11.0012 2.70519 10.851C2.40064 10.7711 2.14062 10.5275 2.14062 10.2127C2.14062 9.89781 2.39876 9.63485 2.70755 9.69632C3.56205 9.86641 4.07339 10.4107 4.5336 10.9003C5.04788 11.449 5.49428 11.9229 6.42565 11.9229C7.35703 11.9229 7.8024 11.449 8.31771 10.9003C8.87211 10.311 9.50057 9.64258 10.7112 9.64258C11.9218 9.64258 12.5503 10.311 13.1047 10.9003C13.619 11.449 14.0649 11.9229 14.9967 11.9229C15.9286 11.9229 16.3735 11.449 16.8888 10.9003C17.4432 10.311 18.0717 9.64258 19.2823 9.64258C20.4929 9.64258 21.1219 10.311 21.6763 10.9003C22.1906 11.449 22.637 11.9229 23.5683 11.9229C24.4997 11.9229 24.9456 11.449 25.4609 10.9003C25.9216 10.4107 26.4333 9.86639 27.288 9.69631C27.5968 9.63486 27.8549 9.89781 27.8549 10.2127C27.8549 10.5275 27.5949 10.7711 27.2903 10.851C26.7178 11.0011 26.361 11.3807 25.9623 11.8046C25.4079 12.3946 24.78 13.0631 23.5683 13.0631Z" fill="#444444" stroke="#444444" stroke-width="0.5625"/>
<path d="M23.5683 20.5631C22.3572 20.5631 21.7293 19.8946 21.1749 19.3046C20.6606 18.7566 20.2142 18.2827 19.2823 18.2827C18.3504 18.2827 17.9055 18.7566 17.3902 19.3046C16.8358 19.8946 16.2074 20.5631 14.9967 20.5631C13.7861 20.5631 13.1577 19.8946 12.6033 19.3046C12.089 18.7566 11.6431 18.2827 10.7112 18.2827C9.77931 18.2827 9.33445 18.7566 8.81914 19.3046C8.26525 19.8946 7.63628 20.5631 6.42565 20.5631C5.21503 20.5631 4.58657 19.8946 4.03268 19.3046C3.63486 18.8807 3.27766 18.5012 2.70519 18.351C2.40064 18.2711 2.14062 18.0275 2.14062 17.7127C2.14062 17.3978 2.39876 17.1349 2.70755 17.1963C3.56205 17.3664 4.07339 17.9107 4.5336 18.4003C5.04788 18.949 5.49428 19.4229 6.42565 19.4229C7.35703 19.4229 7.8024 18.949 8.31771 18.4003C8.87211 17.811 9.50057 17.1426 10.7112 17.1426C11.9218 17.1426 12.5503 17.811 13.1047 18.4003C13.619 18.949 14.0649 19.4229 14.9967 19.4229C15.9286 19.4229 16.3735 18.949 16.8888 18.4003C17.4432 17.811 18.0717 17.1426 19.2823 17.1426C20.4929 17.1426 21.1219 17.811 21.6763 18.4003C22.1906 18.949 22.637 19.4229 23.5683 19.4229C24.4997 19.4229 24.9456 18.949 25.4609 18.4003C25.9216 17.9107 26.4333 17.3664 27.288 17.1963C27.5968 17.1349 27.8549 17.3978 27.8549 17.7127C27.8549 18.0275 27.5949 18.2711 27.2903 18.351C26.7178 18.5011 26.361 18.8807 25.9623 19.3046C25.4079 19.8946 24.78 20.5631 23.5683 20.5631Z" fill="#444444" stroke="#444444" stroke-width="0.5625"/>
</svg>
