<svg width="12" height="12" viewBox="0 0 12 12" fill="none" xmlns="http://www.w3.org/2000/svg">
<path d="M1.96967 4.46967C1.67678 4.76256 1.67678 5.23744 1.96967 5.53033C2.26256 5.82322 2.73744 5.82322 3.03033 5.53033L1.96967 4.46967ZM6 1.5L6.53033 0.96967C6.23744 0.676777 5.76256 0.676777 5.46967 0.96967L6 1.5ZM8.96967 5.53033C9.26256 5.82322 9.73744 5.82322 10.0303 5.53033C10.3232 5.23744 10.3232 4.76256 10.0303 4.46967L8.96967 5.53033ZM3.03033 5.53033L6.53033 2.03033L5.46967 0.96967L1.96967 4.46967L3.03033 5.53033ZM5.46967 2.03033L8.96967 5.53033L10.0303 4.46967L6.53033 0.96967L5.46967 2.03033Z" fill="#EF4C57"/>
<path d="M6.75 1.75C6.75 1.33579 6.41421 1 6 1C5.58579 1 5.25 1.33579 5.25 1.75L6.75 1.75ZM5.25 10.5C5.25 10.9142 5.58579 11.25 6 11.25C6.41421 11.25 6.75 10.9142 6.75 10.5L5.25 10.5ZM5.25 1.75L5.25 10.5L6.75 10.5L6.75 1.75L5.25 1.75Z" fill="#EF4C57"/>
</svg>
