<svg width="40" height="40" viewBox="0 0 40 40" fill="none" xmlns="http://www.w3.org/2000/svg">
<path d="M31.4302 23.4925C31.4302 30.5171 25.4986 35.7147 19.2874 35.7147C13.0762 35.7147 7.14453 30.5171 7.14453 23.4925C7.14453 16.1147 15.9198 7.40078 18.5506 4.95412C18.971 4.56318 19.6038 4.56318 20.0241 4.95412C22.655 7.40078 31.4302 16.1147 31.4302 23.4925Z" fill="white"/>
<path d="M8.57031 25.7141V21.4283C15.9989 17.9998 25.9513 19.5236 29.9989 20.7141V25.7141C23.3629 23.2651 14.2846 24.2855 8.57031 25.7141Z" fill="#FFE665"/>
<path fill-rule="evenodd" clip-rule="evenodd" d="M29.4302 23.4927C29.4302 29.3438 24.4642 33.7149 19.2874 33.7149C14.1105 33.7149 9.14453 29.3438 9.14453 23.4927C9.14453 20.4882 10.9878 16.9141 13.4683 13.5646C15.5442 10.7613 17.8658 8.37858 19.2874 7.01067C19.5802 7.29243 19.9112 7.61724 20.2704 7.97992C20.656 7.43114 21.1185 6.94026 21.6422 6.52292C20.9916 5.86743 20.4335 5.33502 20.0241 4.95433C19.6038 4.5634 18.971 4.5634 18.5506 4.95433C15.9198 7.401 7.14453 16.1149 7.14453 23.4927C7.14453 30.5173 13.0762 35.7149 19.2874 35.7149C25.4986 35.7149 31.4302 30.5173 31.4302 23.4927C31.4302 21.6252 30.868 19.6721 29.9855 17.7567C29.4399 18.135 28.8379 18.4377 28.1948 18.6497C28.9679 20.3404 29.4302 21.988 29.4302 23.4927Z" fill="#444444"/>
<rect x="22" y="11" width="8" height="2" rx="1" fill="#444444"/>
<rect x="27" y="8" width="8" height="2" rx="1" transform="rotate(90 27 8)" fill="#444444"/>
<path d="M9.38589 25.4471C12.7433 24.5166 21.4131 22.6841 29.1844 25.4471" stroke="#444444" stroke-width="2" stroke-linecap="round"/>
<path d="M9.38589 20.7176C12.7433 19.7871 21.4131 17.9546 29.1844 20.7176" stroke="#444444" stroke-width="2" stroke-linecap="round"/>
</svg>
