<svg width="29" height="34" viewBox="0 0 29 34" fill="none" xmlns="http://www.w3.org/2000/svg">
<g clip-path="url(#clip0_1737_13771)">
<path d="M27.3296 17.3541C27.1969 25.4942 21.2536 33.6605 14.4082 33.5558C7.53633 33.4249 1.85839 25.1016 1.99105 16.9615C2.12371 8.82142 8.01392 3.24636 14.8858 3.35106C21.7577 3.45576 27.4357 9.21403 27.3296 17.3541Z" fill="white"/>
<path d="M14.5145 34.0004C14.4614 34.0004 14.4349 34.0004 14.3818 34.0004C11.0122 33.9481 7.66911 31.9589 5.17506 28.5301C2.78714 25.2322 1.43398 21.0181 1.51358 16.9612C1.56664 12.9827 3.02593 9.34455 5.57305 6.75333C8.0671 4.21445 11.3571 2.8534 14.8859 2.90575C18.4148 2.9581 21.6783 4.42384 24.0662 7.04124C26.5337 9.71099 27.8603 13.3753 27.7807 17.3538C27.7277 21.4108 26.2418 25.5986 23.7478 28.818C21.2007 32.1159 17.8311 34.0004 14.5145 34.0004ZM14.6737 3.79567C7.80178 3.79567 3.13315 9.42307 3.00049 16.9612C2.94742 20.8349 4.2187 24.3591 6.50049 27.5C8.80881 30.6932 11.4367 32.4738 14.5145 32.5C17.5657 32.5523 20.086 31.1147 22.5005 28C24.8884 24.9376 26.277 21.1752 26.33 17.3276C26.4627 9.71098 21.8375 3.90036 14.8859 3.79567C14.8063 3.79567 14.7268 3.79567 14.6737 3.79567Z" fill="#444444"/>
<path d="M26.7438 20.5728C26.7438 20.5728 15.1491 10.7837 10.5855 8.97773C6.0219 7.14555 7.64039 5.10398 9.65685 3.24563C11.6733 1.38727 14.5123 0.759098 16.688 1.57049C18.8371 2.38188 30.2991 10.9146 28.3357 16.5944L26.7438 20.5728Z" fill="white"/>
<path d="M26.641 19.8825C26.641 19.8825 18.6686 13.0265 15.5307 11.7616C12.3929 10.4784 13.5057 9.04848 14.8922 7.74693C16.2787 6.44537 18.2308 6.00541 19.7267 6.57369C21.2044 7.14198 29.0856 13.1181 27.7356 17.0961L26.641 19.8825Z" fill="#FFE665"/>
<path d="M26.9302 21.332L26.4261 20.9132C26.32 20.8085 14.8579 11.1765 10.4005 9.37047C8.46361 8.58525 7.40231 7.69533 7.21658 6.6222C6.97779 5.28732 8.09215 4.03097 9.33918 2.90549C11.4618 0.968619 14.4865 0.261921 16.8479 1.15184C18.8909 1.93706 30.857 10.6792 28.7609 16.7515L26.9302 21.332ZM14.5005 2C12.882 2 11.3026 2.35584 9.97596 3.55984C8.96772 4.47593 7.95949 5.54907 8.14522 6.43898C8.27788 7.17185 9.88201 7.37182 11.5005 8C15.5865 9.67513 24.0005 17 26.5005 19L27.5005 16C27.5005 13.5 26.3045 11.3582 22.8553 7.82468C19.9367 4.84085 16.2624 2.59142 16.2624 2.59142C16.2624 2.59142 15.1373 2 14.5005 2Z" fill="#444444"/>
<path d="M2.17565 19.8645C2.17565 19.8645 14.6194 10.2325 19.4483 8.50503C24.2772 6.77755 22.6587 4.63128 20.6157 2.66823C18.5462 0.705184 15.6011 -0.00151339 13.3193 0.757532C11.0375 1.54275 -1.2205 9.89225 0.663302 15.7552L2.17565 19.8645Z" fill="white"/>
<path d="M2.59142 19.882C2.59142 19.882 14.8897 9.96492 18.67 8.60475C22.4503 7.24458 21.1833 5.55467 19.5839 4.00903C17.9638 2.46338 15.6582 1.90695 13.872 2.5046C12.0857 3.12286 -0.0672423 12.0301 1.40748 16.6464L2.59142 19.882Z" fill="#FFE665"/>
<path d="M2.00049 21L0.215299 15.9151C-1.80117 9.63333 10.9875 1.07444 13.1631 0.341572C15.6572 -0.522169 18.788 0.289224 20.9372 2.35697C22.2107 3.56097 23.2923 5.63895 23.0005 7C22.7617 8.09931 22.07 8.26713 20.0005 9C15.3042 10.6751 2.61074 20.5289 2.50461 20.6074L2.00049 21ZM15.0005 1.5C15.0005 1.5 14.28 1.6047 13.7228 1.78791C12.7146 2.12818 9.65785 4.04234 6.50049 7C2.75941 10.4811 0.847454 13.2118 1.56383 15.4889C2.28021 17.766 1.81809 16.4134 2.00049 17C2.18383 17.5896 2.50049 18.5 2.50049 18.5C5.37252 16.2319 14.4781 9.43315 18.8294 7.88889C20.554 7.28689 21.3413 6.75905 21.5005 6C21.7127 5.08391 20.3538 3.99213 19.3456 3.0237C17.9128 1.68883 15.0005 1.5 15.0005 1.5Z" fill="#444444"/>
</g>
<defs>
<clipPath id="clip0_1737_13771">
<rect width="29" height="34" fill="white"/>
</clipPath>
</defs>
</svg>
