<svg width="140" height="139" viewBox="0 0 140 139" fill="none" xmlns="http://www.w3.org/2000/svg">
<ellipse cx="70" cy="69.5" rx="70" ry="69.5" fill="#D5F4EF"/>
<path fill-rule="evenodd" clip-rule="evenodd" d="M96.2549 46.8434C98.3054 44.8075 101.63 44.8075 103.681 46.8434C105.731 48.8792 105.731 52.1801 103.681 54.2159L102.309 55.5777C104.072 55.3284 105.927 55.8769 107.282 57.223C109.57 59.4947 109.57 63.1778 107.282 65.4494L103.186 69.5162C104.908 69.1504 106.776 69.6315 108.113 70.9596C110.211 73.0421 110.211 76.4186 108.113 78.5011L90.4398 96.0484C90.2653 96.2361 90.0841 96.4233 89.896 96.61C87.1241 99.3621 83.0878 102.288 80.7783 103.328C72.5064 107.054 63.0384 105.283 56.0703 98.3648C51.3187 93.6472 48.4899 87.5646 48.7123 81.479C48.8564 77.5388 49.6732 74.6654 50.698 71.0609C51.0596 69.7888 51.4471 68.4256 51.8401 66.8924C54.3253 64.4249 56.6219 62.253 59.7687 61.2307C60.1088 61.1202 60.883 61.8949 61.653 62.6655C62.4013 63.4143 63.1456 64.1591 63.484 64.084C63.8457 64.0036 64.6673 63.2479 65.5084 62.4741C66.4191 61.6363 67.3529 60.7774 67.7512 60.7313C72.0611 60.2332 75.3185 61.8691 78.4881 64.4832L96.2549 46.8434Z" fill="white"/>
<path d="M89.4744 97.3642L105.572 81.3812L108.597 78.378C110.519 76.4704 110.519 73.3774 108.597 71.4698V71.4698C106.676 69.5621 103.561 69.5621 101.639 71.4698L101.429 71.6782" stroke="#444444" stroke-width="2" stroke-linecap="round"/>
<path d="M90.0601 96.8018C87.5023 99.3413 83.7356 101.999 81.5557 102.911C73.7482 106.175 63.8511 104.213 56.8829 97.2947" stroke="#444444" stroke-width="2"/>
<path d="M100.22 58.0616L100.448 57.8347C102.499 55.7988 105.823 55.7988 107.874 57.8347V57.8347C109.924 59.8706 109.924 63.1714 107.874 65.2073L101.843 71.195" stroke="#444444" stroke-width="2" stroke-linecap="round"/>
<path d="M94.6453 47.4476C94.2535 47.8369 94.2537 48.4678 94.6457 48.8568C95.0378 49.2458 95.6732 49.2456 96.065 48.8563L94.6453 47.4476ZM99.6964 57.175C99.3045 57.5641 99.3045 58.195 99.6964 58.5842C100.088 58.9733 100.724 58.9733 101.116 58.5842L99.6964 57.175ZM96.065 48.8563L96.7994 48.1267L95.3797 46.718L94.6453 47.4476L96.065 48.8563ZM102.806 54.0881L99.6964 57.175L101.116 58.5842L104.225 55.4973L102.806 54.0881ZM102.806 48.1258C104.464 49.7723 104.464 52.4417 102.806 54.0881L104.225 55.4973C106.667 53.0726 106.667 49.1414 104.225 46.7167L102.806 48.1258ZM104.225 46.7167C101.782 44.2915 97.8216 44.2921 95.3797 46.718L96.7994 48.1267C98.4575 46.4794 101.147 46.479 102.806 48.1258L104.225 46.7167Z" fill="#444444"/>
<path fill-rule="evenodd" clip-rule="evenodd" d="M81.6281 47.662C83.6787 45.6261 87.0032 45.6261 89.0538 47.662C91.1043 49.6979 91.1043 52.9987 89.0538 55.0346L72.2013 71.7666C72.2109 71.777 72.2205 71.7873 72.2301 71.7977L86.4875 57.6421C88.538 55.6062 91.8626 55.6062 93.9131 57.6421C95.9637 59.678 95.9637 62.9788 93.9131 65.0147L78.4722 80.3454C78.4797 80.3602 78.4871 80.3751 78.4946 80.3899L87.6745 71.2757C89.5958 69.368 92.711 69.368 94.6324 71.2757C96.5538 73.1833 96.5538 76.2763 94.6324 78.1839L76.6514 96.0366C76.4738 96.2279 76.2891 96.4188 76.0974 96.6092C73.3255 99.3613 69.2892 102.287 66.9796 103.327C58.7078 107.053 49.2398 105.282 42.2717 98.3639C37.5201 93.6463 34.6913 87.5638 34.9137 81.4781C35.052 77.6939 35.811 74.8936 36.7787 71.4847C36.7969 71.3903 36.8174 71.2961 36.8401 71.202L41.4031 52.3251C42.0258 49.7492 44.6812 48.2042 47.249 48.9239C49.3997 49.5267 50.8252 51.5499 50.6583 53.7624L49.8858 63.9991C50.3031 63.7673 50.9995 63.1267 51.7098 62.4733C52.0805 62.1323 52.4549 61.7878 52.7955 61.4961L69.7922 44.6208C71.8427 42.585 75.1673 42.585 77.2178 44.6208C79.2684 46.6567 79.2684 49.9576 77.2178 51.9934L64.6619 64.4596C64.6706 64.4668 64.6793 64.4739 64.688 64.4811L81.6281 47.662Z" fill="white"/>
<path d="M81.6281 47.662L80.9185 46.9574L81.6281 47.662ZM72.2013 71.7666L71.4917 71.0621C71.1114 71.4396 71.0985 72.0477 71.4624 72.4409L72.2013 71.7666ZM72.2301 71.7977L71.4907 72.4714C71.6757 72.6716 71.935 72.7881 72.2085 72.7939C72.4821 72.7997 72.7462 72.6944 72.9397 72.5023L72.2301 71.7977ZM78.4722 80.3454L77.7625 79.6408C77.4567 79.9444 77.3812 80.4084 77.5751 80.7922L78.4722 80.3454ZM78.4946 80.3899L77.5966 80.8348C77.7407 81.1215 78.0149 81.322 78.3334 81.3734C78.652 81.4249 78.976 81.3211 79.2042 81.0945L78.4946 80.3899ZM76.6514 96.0366L75.9417 95.332C75.9321 95.3416 75.9226 95.3514 75.9134 95.3613L76.6514 96.0366ZM66.9796 103.327L67.3943 104.234L67.3943 104.234L66.9796 103.327ZM34.9137 81.4781L35.9166 81.5143L35.9166 81.5143L34.9137 81.4781ZM36.7787 71.4847L37.7446 71.7549C37.7524 71.7277 37.759 71.7001 37.7643 71.6722L36.7787 71.4847ZM36.8401 71.202L35.8642 70.9695L35.8642 70.9695L36.8401 71.202ZM41.4031 52.3251L40.4273 52.0926L40.4273 52.0926L41.4031 52.3251ZM47.249 48.9239L47.5217 47.965L47.5217 47.965L47.249 48.9239ZM50.6583 53.7624L49.6575 53.688L49.6575 53.688L50.6583 53.7624ZM49.8858 63.9991L48.8851 63.9247C48.8574 64.2906 49.0346 64.6419 49.3462 64.8392C49.6578 65.0365 50.0534 65.0478 50.3759 64.8687L49.8858 63.9991ZM51.7098 62.4733L51.0278 61.7424L51.0277 61.7424L51.7098 62.4733ZM52.7955 61.4961L53.4511 62.2506C53.4697 62.2346 53.4878 62.218 53.5052 62.2007L52.7955 61.4961ZM64.6619 64.4596L63.9523 63.7551C63.7526 63.9534 63.6463 64.226 63.6595 64.5062C63.6726 64.7863 63.8041 65.0479 64.0216 65.2269L64.6619 64.4596ZM64.688 64.4811L64.0468 65.2476C64.4456 65.5765 65.0311 65.5496 65.3976 65.1857L64.688 64.4811ZM89.7634 46.9574C87.3209 44.5324 83.3609 44.5324 80.9185 46.9574L82.3378 48.3666C83.9964 46.7198 86.6855 46.7198 88.3441 48.3666L89.7634 46.9574ZM89.7634 55.7391C92.2059 53.3141 92.2059 49.3824 89.7634 46.9574L88.3441 48.3666C90.0027 50.0133 90.0027 52.6832 88.3441 54.33L89.7634 55.7391ZM72.911 72.4712L89.7634 55.7391L88.3441 54.33L71.4917 71.0621L72.911 72.4712ZM71.4624 72.4409C71.4719 72.4511 71.4813 72.4613 71.4907 72.4714L72.9695 71.124C72.9597 71.1134 72.95 71.1029 72.9403 71.0924L71.4624 72.4409ZM85.7779 56.9375L71.5204 71.0931L72.9397 72.5023L87.1971 58.3467L85.7779 56.9375ZM94.6228 56.9375C92.1803 54.5125 88.2203 54.5125 85.7779 56.9375L87.1971 58.3467C88.8557 56.6999 91.5449 56.6999 93.2035 58.3467L94.6228 56.9375ZM94.6228 65.7192C97.0652 63.2942 97.0652 59.3625 94.6228 56.9375L93.2035 58.3467C94.8621 59.9934 94.8621 62.6634 93.2035 64.3101L94.6228 65.7192ZM79.1818 81.0499L94.6228 65.7192L93.2035 64.3101L77.7625 79.6408L79.1818 81.0499ZM77.5751 80.7922C77.5823 80.8064 77.5895 80.8206 77.5966 80.8348L79.3926 79.9451C79.3848 79.9296 79.377 79.9141 79.3692 79.8985L77.5751 80.7922ZM79.2042 81.0945L88.3841 71.9802L86.9648 70.5711L77.785 79.6854L79.2042 81.0945ZM88.3841 71.9802C89.9136 70.4617 92.3933 70.4617 93.9228 71.9802L95.3421 70.5711C93.0288 68.2743 89.2781 68.2743 86.9648 70.5711L88.3841 71.9802ZM93.9228 71.9802C95.4523 73.4988 95.4523 75.9608 93.9228 77.4794L95.3421 78.8885C97.6554 76.5917 97.6554 72.8679 95.3421 70.5711L93.9228 71.9802ZM93.9228 77.4794L75.9417 95.332L77.361 96.7411L95.3421 78.8885L93.9228 77.4794ZM75.9134 95.3613C75.7452 95.5425 75.5701 95.7236 75.3878 95.9046L76.8071 97.3137C77.0082 97.114 77.2023 96.9134 77.3894 96.7118L75.9134 95.3613ZM75.3878 95.9046C72.6695 98.6035 68.7303 101.444 66.565 102.42L67.3943 104.234C69.8481 103.129 73.9815 100.119 76.8071 97.3137L75.3878 95.9046ZM66.565 102.42C58.6976 105.963 49.6726 104.303 42.9813 97.6594L41.562 99.0685C48.807 106.262 58.718 108.142 67.3943 104.234L66.565 102.42ZM42.9813 97.6594C38.3835 93.0944 35.7064 87.2677 35.9166 81.5143L33.9108 81.442C33.6763 87.8599 36.6568 94.1983 41.562 99.0685L42.9813 97.6594ZM35.9166 81.5143C36.0503 77.8584 36.7789 75.1571 37.7446 71.7549L35.8127 71.2144C34.8431 74.6301 34.0538 77.5293 33.9108 81.442L35.9166 81.5143ZM37.7643 71.6722C37.7796 71.5929 37.7968 71.5137 37.816 71.4346L35.8642 70.9695C35.8379 71.0785 35.8142 71.1877 35.7931 71.2971L37.7643 71.6722ZM37.816 71.4346L42.379 52.5576L40.4273 52.0926L35.8642 70.9695L37.816 71.4346ZM42.379 52.5576C42.8687 50.5318 44.957 49.3169 46.9764 49.8829L47.5217 47.965C44.4055 47.0916 41.1829 48.9665 40.4273 52.0926L42.379 52.5576ZM46.9764 49.8829C48.6677 50.3569 49.7888 51.948 49.6575 53.688L51.659 53.8369C51.8616 51.1518 50.1316 48.6965 47.5217 47.965L46.9764 49.8829ZM49.6575 53.688L48.8851 63.9247L50.8866 64.0736L51.659 53.8369L49.6575 53.688ZM50.3759 64.8687C50.6834 64.6978 51.0305 64.4178 51.3448 64.1476C51.6752 63.8636 52.0401 63.5278 52.3919 63.2042L51.0277 61.7424C50.6692 62.0722 50.3307 62.3834 50.031 62.641C49.7153 62.9124 49.5055 63.0686 49.3958 63.1296L50.3759 64.8687ZM52.3919 63.2042C52.7659 62.8601 53.1266 62.5285 53.4511 62.2506L52.14 60.7416C51.7833 61.0472 51.395 61.4045 51.0278 61.7424L52.3919 63.2042ZM53.5052 62.2007L70.5018 45.3254L69.0826 43.9163L52.0859 60.7915L53.5052 62.2007ZM70.5018 45.3254C72.1604 43.6787 74.8496 43.6787 76.5082 45.3254L77.9275 43.9163C75.485 41.4913 71.525 41.4913 69.0826 43.9163L70.5018 45.3254ZM76.5082 45.3254C78.1668 46.9722 78.1668 49.6421 76.5082 51.2889L77.9275 52.698C80.3699 50.273 80.3699 46.3413 77.9275 43.9163L76.5082 45.3254ZM76.5082 51.2889L63.9523 63.7551L65.3716 65.1642L77.9275 52.698L76.5082 51.2889ZM64.0216 65.2269C64.03 65.2338 64.0384 65.2407 64.0468 65.2476L65.3292 63.7146C65.3202 63.7072 65.3113 63.6998 65.3023 63.6924L64.0216 65.2269ZM80.9185 46.9574L63.9784 63.7765L65.3976 65.1857L82.3378 48.3666L80.9185 46.9574Z" fill="#444444"/>
<path fill-rule="evenodd" clip-rule="evenodd" d="M85.1285 51.1374C83.2202 49.2427 80.1261 49.2427 78.2178 51.1374L67.7163 61.5639C67.5924 61.5303 67.4675 61.4984 67.3417 61.468L73.9517 54.9053C75.8983 52.9726 75.8983 49.8391 73.9517 47.9064C72.0051 45.9737 68.849 45.9737 66.9024 47.9064L52.7014 62.006C52.032 62.102 51.3882 62.1907 50.7777 62.264C50.773 63.2749 50.6506 63.8988 50.4486 64.2427L50.152 64.5372C49.9795 64.62 49.7796 64.6015 49.5632 64.5121L50.3192 55.0707C50.4876 52.9684 49.1358 51.0505 47.087 50.485C44.6419 49.81 42.1053 51.2858 41.5028 53.734L38.8617 64.4656C38.7142 64.6514 38.5503 64.836 38.3665 65.0185C38.0239 66.3332 37.6777 67.5651 37.3458 68.7463C36.2609 72.6077 35.3283 75.9267 35.1679 79.8205C35.1605 79.9988 35.1531 80.1757 35.1457 80.3512C34.9132 85.8879 34.7391 90.0314 39.1113 94.3723C45.7263 100.94 54.7482 102.587 62.6537 98.9976C64.861 97.9954 68.5096 95.4168 71.1654 92.7799C71.6367 92.312 72.0847 91.8315 72.5091 91.3398C72.6634 91.2336 72.8104 91.1122 72.9479 90.9757L90.2329 73.8142C91.4719 72.5841 91.4719 70.5896 90.2329 69.3595C89.7286 68.8588 89.0968 68.5619 88.4412 68.4688L90.1553 66.767C91.7699 65.1639 91.7699 62.5648 90.1553 60.9617C88.5406 59.3586 85.9228 59.3586 84.3082 60.9617L75.9696 69.2407C75.734 68.7743 75.4768 68.3134 75.1977 67.8587L85.1285 57.9988C87.0368 56.1041 87.0368 53.0321 85.1285 51.1374Z" fill="#2FCAB0"/>
<path d="M89.0567 54.9911L89.7663 55.6956L89.0567 54.9911ZM72.1634 71.7637L71.4538 71.0591C71.0735 71.4367 71.0606 72.0448 71.4245 72.4379L72.1634 71.7637ZM72.1941 71.7969L71.4547 72.4706C71.6398 72.6708 71.8991 72.7872 72.1726 72.793C72.4462 72.7989 72.7102 72.6935 72.9037 72.5014L72.1941 71.7969ZM86.4513 57.6414L85.7417 56.9369L86.4513 57.6414ZM93.877 65.014L94.5866 65.7186L93.877 65.014ZM78.4361 80.3446L77.7265 79.64C77.4207 79.9436 77.3452 80.4076 77.5391 80.7914L78.4361 80.3446ZM78.4585 80.389L77.5605 80.8339C77.7046 81.1206 77.9788 81.321 78.2973 81.3725C78.6159 81.4239 78.9399 81.3201 79.1681 81.0936L78.4585 80.389ZM87.6383 71.2748L86.9287 70.5702L87.6383 71.2748ZM76.6139 96.037L75.9043 95.3324C75.8946 95.342 75.8852 95.3517 75.876 95.3617L76.6139 96.037ZM66.9435 103.326L67.3581 104.233L67.3581 104.233L66.9435 103.326ZM34.8776 81.4771L33.8747 81.441L33.8747 81.441L34.8776 81.4771ZM36.7185 71.5683L37.6845 71.8384C37.6935 71.8067 37.7009 71.7745 37.7067 71.7419L36.7185 71.5683ZM36.7961 71.1983L35.8203 70.9658L35.8203 70.9658L36.7961 71.1983ZM41.3592 52.3214L40.3833 52.0889L40.3833 52.0889L41.3592 52.3214ZM47.2051 48.9202L47.4777 47.9613L47.4777 47.9613L47.2051 48.9202ZM50.6143 53.7587L49.6135 53.6843L49.6135 53.6843L50.6143 53.7587ZM49.8413 64.0027L48.8405 63.9283C48.813 64.293 48.989 64.6435 49.299 64.8411C49.609 65.0388 50.0031 65.0519 50.3258 64.8753L49.8413 64.0027ZM51.6737 62.4722L52.3558 63.2031L52.3558 63.2031L51.6737 62.4722ZM52.7046 61.5422L53.3633 62.294C53.3808 62.2788 53.3978 62.2631 53.4142 62.2468L52.7046 61.5422ZM69.7482 44.6203L69.0386 43.9157L69.7482 44.6203ZM77.1739 51.9929L76.4642 51.2883L77.1739 51.9929ZM64.6218 64.4553L63.9121 63.7508C63.7124 63.9491 63.6061 64.2217 63.6193 64.5019C63.6325 64.782 63.764 65.0437 63.9815 65.2226L64.6218 64.4553ZM64.6498 64.4784L64.0086 65.2449C64.4074 65.5738 64.9929 65.5469 65.3595 65.183L64.6498 64.4784ZM89.7663 46.9139C87.3239 44.4889 83.3639 44.4889 80.9214 46.9139L82.3407 48.3231C83.9993 46.6763 86.6884 46.6763 88.347 48.3231L89.7663 46.9139ZM89.7663 55.6956C92.2088 53.2706 92.2088 49.3389 89.7663 46.9139L88.347 48.3231C90.0056 49.9698 90.0056 52.6397 88.347 54.2865L89.7663 55.6956ZM72.873 72.4683L89.7663 55.6956L88.347 54.2865L71.4538 71.0591L72.873 72.4683ZM71.4245 72.4379C71.4345 72.4488 71.4446 72.4597 71.4547 72.4706L72.9334 71.1231C72.9231 71.1119 72.9127 71.1007 72.9023 71.0894L71.4245 72.4379ZM85.7417 56.9369L71.4844 71.0923L72.9037 72.5014L87.161 58.346L85.7417 56.9369ZM94.5866 56.9369C92.1442 54.5119 88.1842 54.5119 85.7417 56.9369L87.161 58.346C88.8196 56.6992 91.5087 56.6992 93.1673 58.346L94.5866 56.9369ZM94.5866 65.7186C97.0291 63.2936 97.0291 59.3619 94.5866 56.9369L93.1673 58.346C94.826 59.9928 94.826 62.6627 93.1673 64.3095L94.5866 65.7186ZM79.1458 81.0492L94.5866 65.7186L93.1673 64.3095L77.7265 79.64L79.1458 81.0492ZM77.5391 80.7914C77.5463 80.8056 77.5534 80.8197 77.5605 80.8339L79.3565 79.9441C79.3487 79.9286 79.3409 79.9132 79.3332 79.8978L77.5391 80.7914ZM79.1681 81.0936L88.3479 71.9793L86.9287 70.5702L77.7489 79.6844L79.1681 81.0936ZM88.3479 71.9793C89.8774 70.4608 92.3572 70.4608 93.8866 71.9793L95.3059 70.5702C92.9926 68.2734 89.242 68.2734 86.9287 70.5702L88.3479 71.9793ZM93.8866 71.9793C95.4161 73.4979 95.4161 75.9599 93.8866 77.4785L95.3059 78.8876C97.6192 76.5908 97.6192 72.867 95.3059 70.5702L93.8866 71.9793ZM93.8866 77.4785L75.9043 95.3324L77.3235 96.7415L95.3059 78.8876L93.8866 77.4785ZM75.876 95.3617C75.7082 95.5424 75.5335 95.723 75.3516 95.9036L76.7709 97.3127C76.9715 97.1135 77.1651 96.9134 77.3518 96.7123L75.876 95.3617ZM75.3516 95.9036C72.6333 98.6024 68.6941 101.443 66.5289 102.419L67.3581 104.233C69.8119 103.128 73.9454 100.118 76.7709 97.3127L75.3516 95.9036ZM66.5289 102.419C58.6614 105.962 49.6365 104.302 42.9451 97.6584L41.5259 99.0675C48.7709 106.261 58.6819 108.141 67.3581 104.233L66.5289 102.419ZM42.9451 97.6584C38.3473 93.0934 35.6702 87.2667 35.8805 81.5132L33.8747 81.441C33.6401 87.8588 36.6206 94.1973 41.5259 99.0675L42.9451 97.6584ZM35.8805 81.5132C36.013 77.8879 36.7307 75.2007 37.6845 71.8384L35.7525 71.2982C34.7939 74.6776 34.0165 77.5606 33.8747 81.441L35.8805 81.5132ZM37.7067 71.7419C37.7252 71.6381 37.747 71.5344 37.772 71.4309L35.8203 70.9658C35.7858 71.1084 35.7558 71.2515 35.7303 71.3947L37.7067 71.7419ZM37.772 71.4309L42.335 52.5539L40.3833 52.0889L35.8203 70.9658L37.772 71.4309ZM42.335 52.5539C42.8247 50.5281 44.913 49.3132 46.9324 49.8792L47.4777 47.9613C44.3615 47.0879 41.139 48.9628 40.3833 52.0889L42.335 52.5539ZM46.9324 49.8792C48.6237 50.3532 49.7448 51.9443 49.6135 53.6843L51.6151 53.8332C51.8177 51.1481 50.0877 48.6928 47.4777 47.9613L46.9324 49.8792ZM49.6135 53.6843L48.8405 63.9283L50.8421 64.0772L51.6151 53.8332L49.6135 53.6843ZM50.3258 64.8753C50.6364 64.7054 50.9866 64.4231 51.3019 64.1524C51.6342 63.8671 52.0016 63.5289 52.3558 63.2031L50.9916 61.7413C50.6306 62.0734 50.29 62.3866 49.9889 62.6451C49.6709 62.9182 49.4625 63.0723 49.3569 63.1301L50.3258 64.8753ZM52.3558 63.2031C52.7095 62.8777 53.0517 62.5631 53.3633 62.294L52.0459 60.7904C51.706 61.084 51.3396 61.4212 50.9916 61.7413L52.3558 63.2031ZM53.4142 62.2468L70.4579 45.3249L69.0386 43.9157L51.995 60.8376L53.4142 62.2468ZM70.4579 45.3249C72.1165 43.6781 74.8056 43.6781 76.4642 45.3249L77.8835 43.9157C75.441 41.4907 71.481 41.4907 69.0386 43.9157L70.4579 45.3249ZM76.4642 45.3249C78.1228 46.9716 78.1228 49.6416 76.4642 51.2883L77.8835 52.6975C80.3259 50.2725 80.3259 46.3408 77.8835 43.9157L76.4642 45.3249ZM76.4642 51.2883L63.9121 63.7508L65.3314 65.1599L77.8835 52.6975L76.4642 51.2883ZM63.9815 65.2226C63.9906 65.2301 63.9996 65.2375 64.0086 65.2449L65.291 63.7119C65.2813 63.7039 65.2717 63.6959 65.2621 63.688L63.9815 65.2226ZM63.9406 63.7734C63.9405 63.7735 63.9405 63.7736 63.9404 63.7736C63.9403 63.7737 63.9403 63.7738 63.9402 63.7738L65.3595 65.183C65.3595 65.1829 65.3596 65.1828 65.3597 65.1828C65.3597 65.1827 65.3598 65.1826 65.3599 65.1826L63.9406 63.7734ZM80.9214 46.9139L63.9406 63.7734L65.3599 65.1826L82.3407 48.3231L80.9214 46.9139Z" fill="#444444"/>
<path d="M70.0312 26.3125L70.0313 33.5082" stroke="#444444" stroke-width="2" stroke-linecap="round"/>
<path d="M55.4766 29.8516L60.3082 34.6487" stroke="#444444" stroke-width="2" stroke-linecap="round"/>
<path d="M84.5273 29.8516L79.6957 34.6487" stroke="#444444" stroke-width="2" stroke-linecap="round"/>
</svg>
