<svg width="88" height="88" viewBox="0 0 88 88" fill="none" xmlns="http://www.w3.org/2000/svg">
<circle cx="44" cy="44" r="44" fill="#FFE4E6"/>
<path d="M21.751 26.9922L25.4365 29.6699" stroke="#444444" stroke-width="2" stroke-linecap="round"/>
<path d="M18.186 35.7119L22.4282 35.04" stroke="#444444" stroke-width="2" stroke-linecap="round"/>
<path d="M28.9194 20.939L29.5913 25.1811" stroke="#444444" stroke-width="2" stroke-linecap="round"/>
<path d="M49.576 25.8672L65.397 53.27C67.7064 57.27 64.8197 62.27 60.2009 62.27H28.5588C23.94 62.27 21.0533 57.27 23.3627 53.27L39.1837 25.8672C41.4931 21.8672 47.2666 21.8672 49.576 25.8672Z" fill="white" stroke="#444444" stroke-width="2"/>
<path d="M42.648 27.7378C43.4178 26.4045 45.3423 26.4045 46.1121 27.7378L62.0454 55.335C62.8152 56.6683 61.8529 58.335 60.3133 58.335H28.4468C26.9072 58.335 25.945 56.6683 26.7148 55.335L42.648 27.7378Z" fill="#EF4C57"/>
<path d="M42.6821 38.3959C42.5745 37.1764 43.5355 36.127 44.7597 36.127V36.127C45.9839 36.127 46.9449 37.1764 46.8373 38.3959L45.9987 47.8999C45.942 48.5419 45.4043 49.0344 44.7597 49.0344V49.0344C44.1151 49.0344 43.5774 48.542 43.5207 47.8999L42.6821 38.3959Z" fill="white"/>
<circle cx="44.7595" cy="52.4514" r="1.89815" fill="white"/>
</svg>
