<svg width="94" height="91" viewBox="0 0 94 91" fill="none" xmlns="http://www.w3.org/2000/svg">
<path d="M23.0801 21.3984C23.0801 20.2939 23.9755 19.3984 25.0801 19.3984H68.9201C70.0246 19.3984 70.9201 20.2939 70.9201 21.3984V51.1517C70.9201 51.6831 70.7086 52.1927 70.3323 52.5679L63.2315 59.6484L57.8322 64.8401C57.4596 65.1983 56.9628 65.3984 56.446 65.3984H37.4985C37.015 65.3984 36.5479 65.2233 36.1836 64.9055L29.2044 58.816C29.1084 58.7323 29.0206 58.6395 28.9423 58.5391L23.5031 51.5657C23.229 51.2143 23.0801 50.7814 23.0801 50.3357V21.3984Z" fill="#FFE665"/>
<path d="M10.0137 76.0916L27.8617 58.2812" stroke="#444444" stroke-width="2" stroke-miterlimit="10" stroke-linecap="round"/>
<path d="M49.3926 1H75.0966C76.7534 1 78.0966 2.34315 78.0966 4V46.352" stroke="#444444" stroke-width="2" stroke-miterlimit="10" stroke-linecap="round" stroke-linejoin="round"/>
<path d="M15.9062 46.352V4C15.9062 2.34315 17.2494 1 18.9063 1L34.1194 1H50.6794" stroke="#444444" stroke-width="2" stroke-miterlimit="10" stroke-linecap="round" stroke-linejoin="round"/>
<path d="M83.9808 76.0916L66.1328 58.2812" stroke="#444444" stroke-width="2" stroke-miterlimit="10" stroke-linecap="round"/>
<path d="M78.28 19C78.28 19 86.0632 25.3544 88.216 27.264C90.3688 29.1735 93 31.0831 93 34.4248V82.1638C93 86.2216 89.8904 89.3246 85.824 89.3246H8.176C4.1096 89.3246 1 86.2216 1 82.1638V34.4248C1 31.0831 3.6312 29.1735 5.784 27.264C7.9368 25.3544 15.72 19 15.72 19" stroke="#444444" stroke-width="2" stroke-miterlimit="10" stroke-linecap="round"/>
<path d="M83.9817 40.4766L63.7417 60.6738C58.9577 64.7316 55.6089 65.4477 51.7817 65.4477H46.9977H42.2137C38.3865 65.4477 35.0377 64.7316 30.2537 60.6738L10.0137 40.4766" stroke="#444444" stroke-width="2" stroke-miterlimit="10" stroke-linecap="round"/>
</svg>
