<svg width="83" height="42" viewBox="0 0 83 42" fill="none" xmlns="http://www.w3.org/2000/svg">
<g opacity="0.6" clip-path="url(#clip0_86_28939)">
<path d="M0 0.710938H12.615C22.6921 0.710938 28.3356 6.7161 28.3356 16.9735C28.3356 28.1313 20.345 32.6112 13.0515 32.6112H0V31.3136H2.15783C3.67827 31.3136 3.89405 30.8617 3.89405 26.4332V6.18885C3.89405 3.1469 3.72806 2.02564 2.28896 2.02564H0V0.710938ZM8.75747 31.3136H12.5287C20.8712 31.3136 22.956 23.8791 22.956 16.7629C22.956 9.19485 20.7816 2.03248 12.2714 2.03248H8.75747V31.3136Z" fill="#4F342A"/>
<path d="M28.6875 31.5313H31.3001C32.8156 31.5313 33.0214 30.6274 33.0214 28.8129V16.4687C33.0214 12.6684 32.6894 11.7629 31.5143 11.7629H29.4577V10.4516H34.19C35.2146 10.4359 36.2236 10.1893 37.1462 9.7292V15.0188H37.2308C38.4874 12.35 40.4443 9.7292 43.5699 9.7292C44.0485 9.67948 44.532 9.73156 44.9904 9.88222C45.4487 10.0329 45.8723 10.2789 46.2348 10.6051C46.5973 10.9313 46.891 11.3307 47.0979 11.7787C47.3047 12.2266 47.4203 12.7136 47.4374 13.2094C47.4776 13.6051 47.4328 14.005 47.3063 14.3808C47.1797 14.7566 46.9745 15.0991 46.7051 15.3839C46.4358 15.6687 46.109 15.8889 45.7478 16.0287C45.3867 16.1686 45.0001 16.2247 44.6156 16.1931C43.3973 16.1931 42.1358 15.6077 42.1358 14.293C42.1646 13.8818 42.2251 13.4737 42.3167 13.0724C42.3167 12.7523 41.7523 12.7147 41.4469 12.7147C38.7911 12.7147 37.3653 15.7429 37.3653 23.929V28.8129C37.3653 30.85 37.7786 31.5313 39.0849 31.5313H41.5349V32.8426H28.6875V31.5313Z" fill="#4F342A"/>
<path d="M48.156 27.6797C48.6889 27.6793 49.2101 27.8421 49.6533 28.1473C50.0966 28.4525 50.4421 28.8865 50.6462 29.3943C50.8502 29.9021 50.9036 30.4609 50.7996 31C50.6955 31.5391 50.4388 32.0343 50.0618 32.4228C49.6848 32.8114 49.2045 33.0759 48.6817 33.1828C48.1589 33.2898 47.6171 33.2343 47.1248 33.0236C46.6326 32.8129 46.212 32.4563 45.9163 31.9989C45.6207 31.5416 45.4632 31.004 45.4639 30.4544C45.491 29.7271 45.7834 29.0372 46.2825 28.5228C46.7817 28.0083 47.4508 27.7072 48.156 27.6797" fill="#4F342A"/>
<path d="M78.5727 8.82779H77.0523C76.9876 6.7766 76.1396 4.83488 74.693 3.42565C73.2463 2.01643 71.3183 1.25391 69.3289 1.30422C61.4263 1.30422 60.1598 10.5739 60.1598 16.9368C60.1598 23.6541 61.4678 31.8042 68.8077 32.0302C69.6197 32.109 70.4385 32.002 71.2058 31.7168C71.973 31.4317 72.6698 30.9754 73.2464 30.3806C73.823 29.7858 74.2652 29.0671 74.5415 28.2757C74.8178 27.4843 74.9213 26.6399 74.8447 25.8025V22.3291C74.8685 22.007 74.8265 21.6833 74.7213 21.379C74.6162 21.0746 74.4504 20.7964 74.2345 20.5623C74.0186 20.3282 73.7575 20.1434 73.468 20.0199C73.1786 19.8964 72.8672 19.8369 72.5541 19.8452H68.8077V18.5477H82.9996V19.8452H81.1738C79.7811 19.8452 79.4558 20.7286 79.4558 22.9694V33.0607H78.2308C78.1047 32.5215 77.8872 31.9805 76.8448 31.9805C75.409 31.9805 73.4139 33.3261 68.7712 33.3261C58.3456 33.3261 54.7852 25.9788 54.7852 16.3531C54.7852 7.57643 59.954 0.00150304 68.982 0.00150304C70.5869 -0.0215181 72.185 0.220044 73.716 0.717056C74.552 1.06821 75.4275 1.30976 76.322 1.43603C76.7983 1.43603 77.0158 0.941308 77.0606 0.270263H78.581L78.5727 8.82779Z" fill="#4F342A"/>
<path d="M71.3878 39.4766H11.6641V41.4931H71.3878V39.4766Z" fill="#4F342A"/>
</g>
<defs>
<clipPath id="clip0_86_28939">
<rect width="83" height="41.5" fill="white"/>
</clipPath>
</defs>
</svg>
