<svg width="40" height="40" viewBox="0 0 40 40" fill="none" xmlns="http://www.w3.org/2000/svg">
<path d="M15.1531 20.6925C15.1531 23.4619 12.8452 24.6159 11.6912 24.8467H0.613281V29.0009C0.844071 28.0778 1.72107 26.9238 3.38276 29.6933C5.04445 32.4628 7.76778 31.7704 8.92173 31.078C10.3065 29.4625 13.7683 26.9238 16.5378 29.6933C19.3073 32.4628 21.3844 31.7704 22.0768 31.078C23.4615 29.6933 26.7849 27.4777 29.0005 29.6933C31.77 32.4628 35.2318 31.7704 35.9242 30.3857C36.4781 29.2779 38.6937 29.0009 39.386 29.0009V24.1543C38.9245 24.1543 36.2011 24.2928 31.77 24.8467C27.3388 25.4006 25.3078 22.7696 24.8463 21.3848C21.3844 8.92216 15.1531 17.2306 15.1531 20.6925Z" fill="white"/>
<path d="M39.3845 24.5446C39.3845 24.9664 39.0425 25.3084 38.6207 25.3084H28.7863C26.7354 25.3084 24.9046 23.5823 24.3347 21.1079C23.5849 17.862 21.8837 15.756 20.0002 15.756C18.1168 15.756 16.4148 17.8563 15.665 21.1079C15.0951 23.5795 13.2612 25.3084 11.2134 25.3084H1.37896C0.957167 25.3084 0.615234 24.9664 0.615234 24.5446C0.615234 24.1228 0.957167 23.7809 1.37896 23.7809H11.2134C12.7363 23.7809 14.0459 22.5398 14.4701 20.6935C15.3757 16.768 17.5453 14.2314 19.9987 14.2314C22.4521 14.2314 24.6208 16.768 25.5265 20.6935C25.9522 22.5398 27.2619 23.7809 28.7832 23.7809H38.6207C39.0425 23.7809 39.3845 24.1228 39.3845 24.5446Z" fill="#444444" stroke="#444444" stroke-width="0.75"/>
<circle cx="20" cy="24" r="4" fill="#FFE665"/>
<path d="M32.9216 32.232C31.0956 32.232 30.1489 31.4202 29.313 30.7037C28.5376 30.0382 27.8646 29.4627 26.4596 29.4627C25.0546 29.4627 24.3839 30.0382 23.6069 30.7037C22.7711 31.4202 21.8236 32.232 19.9983 32.232C18.173 32.232 17.2255 31.4202 16.3897 30.7037C15.6143 30.0382 14.942 29.4627 13.537 29.4627C12.132 29.4627 11.4613 30.0382 10.6844 30.7037C9.84929 31.4202 8.90099 32.232 7.07574 32.232C5.25048 32.232 4.30296 31.4202 3.46787 30.7037C2.83157 30.1576 2.26419 29.6721 1.30508 29.5155C0.927724 29.4539 0.615234 29.1528 0.615234 28.7704C0.615234 28.3881 0.926914 28.0722 1.30627 28.12C2.69395 28.2948 3.50034 28.9861 4.2231 29.6055C4.99848 30.2719 5.67152 30.8474 7.07574 30.8474C8.47996 30.8474 9.15144 30.2719 9.92838 29.6055C10.7642 28.8898 11.7118 28.0781 13.537 28.0781C15.3623 28.0781 16.3098 28.8898 17.1457 29.6055C17.921 30.2719 18.5933 30.8474 19.9983 30.8474C21.4033 30.8474 22.074 30.2719 22.8509 29.6055C23.6868 28.8898 24.6343 28.0781 26.4596 28.0781C28.2848 28.0781 29.2331 28.8898 30.069 29.6055C30.8444 30.2719 31.5174 30.8474 32.9216 30.8474C34.3259 30.8474 34.9981 30.2719 35.775 29.6055C36.4985 28.9861 37.3056 28.2948 38.6934 28.12C39.0728 28.0722 39.3845 28.3881 39.3845 28.7704C39.3845 29.1528 39.072 29.4539 38.6946 29.5154C37.7353 29.672 37.1687 30.1575 36.531 30.7037C35.6952 31.4202 34.7484 32.232 32.9216 32.232Z" fill="#444444" stroke="#444444" stroke-width="0.75"/>
<path d="M20.4422 10.9351V6.89689C20.4422 6.48623 20.1093 6.15332 19.6987 6.15332C19.288 6.15332 18.9551 6.48623 18.9551 6.89689V10.9351C18.9551 11.3458 19.288 11.6787 19.6987 11.6787C20.1093 11.6787 20.4422 11.3458 20.4422 10.9351Z" fill="#444444" stroke="#444444" stroke-width="0.75"/>
<path d="M13.3051 12.9712L10.4133 10.106C10.1229 9.81831 9.65211 9.81831 9.36172 10.106C9.07134 10.3937 9.07134 10.8602 9.36172 11.1479L12.2536 14.0131C12.5439 14.3008 13.0147 14.3008 13.3051 14.0131C13.5955 13.7254 13.5955 13.2589 13.3051 12.9712Z" fill="#444444" stroke="#444444" stroke-width="0.75"/>
<path d="M28.9821 10.1071L26.0902 12.9722C25.7999 13.2599 25.7999 13.7264 26.0902 14.0141C26.3806 14.3018 26.8514 14.3018 27.1418 14.0141L30.0336 11.1489C30.324 10.8612 30.324 10.3948 30.0336 10.1071C29.7432 9.81935 29.2724 9.81935 28.9821 10.1071Z" fill="#444444" stroke="#444444" stroke-width="0.75"/>
</svg>
