<svg width="40" height="40" viewBox="0 0 40 40" fill="none" xmlns="http://www.w3.org/2000/svg">
<g opacity="0.7">
<path d="M30.0756 23.3849C30.0756 29.6067 24.8093 34.2311 19.3063 34.2311C13.8034 34.2311 8.53711 29.6067 8.53711 23.3849C8.53711 20.1621 10.4758 16.5001 12.8898 13.2339C15.2732 10.0091 17.9813 7.35246 19.2498 6.1711C19.2719 6.1505 19.2913 6.14588 19.3063 6.14588C19.3214 6.14588 19.3408 6.1505 19.3629 6.1711C20.6314 7.35246 23.3394 10.0091 25.7229 13.2339C28.1369 16.5001 30.0756 20.1621 30.0756 23.3849Z" stroke="#444444" stroke-width="2"/>
<path d="M25.5367 24.1533C25.1905 25.261 23.8751 27.6426 21.3828 28.3072" stroke="#444444" stroke-width="2" stroke-linecap="round"/>
</g>
</svg>
