<svg width="40" height="40" viewBox="0 0 40 40" fill="none" xmlns="http://www.w3.org/2000/svg">
<g opacity="0.7">
<path d="M30.0775 23.3849C30.0775 29.6067 24.8112 34.2311 19.3083 34.2311C13.8054 34.2311 8.53906 29.6067 8.53906 23.3849C8.53906 20.1621 10.4777 16.5001 12.8918 13.2339C15.2752 10.0091 17.9832 7.35246 19.2517 6.1711C19.2738 6.1505 19.2933 6.14588 19.3083 6.14588C19.3233 6.14588 19.3427 6.1505 19.3649 6.1711C20.6334 7.35246 23.3414 10.0091 25.7248 13.2339C28.1389 16.5001 30.0775 20.1621 30.0775 23.3849Z" stroke="#444444" stroke-width="2"/>
<path d="M9.71197 25.2791C12.9661 24.3772 21.3691 22.6011 28.9013 25.2791" stroke="#444444" stroke-width="2" stroke-linecap="round"/>
<path d="M9.71197 20.6951C12.9661 19.7932 21.3691 18.0171 28.9013 20.6951" stroke="#444444" stroke-width="2" stroke-linecap="round"/>
</g>
</svg>
