<svg width="40" height="39" viewBox="0 0 40 39" fill="none" xmlns="http://www.w3.org/2000/svg">
<g opacity="0.7">
<path d="M31.076 16.8813C29.5108 16.8813 28.6993 16.0174 27.9828 15.2549C27.3182 14.5468 26.7413 13.9344 25.5371 13.9344C24.3328 13.9344 23.7579 14.5468 23.0919 15.2549C22.3755 16.0174 21.5633 16.8813 19.9988 16.8813C18.4343 16.8813 17.6222 16.0174 16.9057 15.2549C16.2411 14.5468 15.6649 13.9344 14.4606 13.9344C13.2563 13.9344 12.6814 14.5468 12.0155 15.2549C11.2997 16.0174 10.4868 16.8813 8.92234 16.8813C7.35784 16.8813 6.54568 16.0174 5.82989 15.2549C5.31578 14.7071 4.85417 14.2167 4.11435 14.0226C3.72079 13.9194 3.38477 13.6045 3.38477 13.1977C3.38477 12.7908 3.71835 12.451 4.1174 12.5304C5.22168 12.7502 5.88249 13.4535 6.47722 14.0863C7.14184 14.7954 7.71872 15.4078 8.92234 15.4078C10.126 15.4078 10.7015 14.7954 11.3675 14.0863C12.0839 13.3247 12.8961 12.4609 14.4606 12.4609C16.0251 12.4609 16.8372 13.3247 17.5537 14.0863C18.2183 14.7954 18.7945 15.4078 19.9988 15.4078C21.2031 15.4078 21.778 14.7954 22.4439 14.0863C23.1604 13.3247 23.9726 12.4609 25.5371 12.4609C27.1016 12.4609 27.9144 13.3247 28.6308 14.0863C29.2955 14.7954 29.8723 15.4078 31.076 15.4078C32.2796 15.4078 32.8558 14.7954 33.5217 14.0863C34.117 13.4535 34.7784 12.7502 35.8829 12.5304C36.282 12.451 36.6155 12.7908 36.6155 13.1977C36.6155 13.6045 36.2795 13.9193 35.8859 14.0225C35.146 14.2166 34.6849 14.7071 34.1697 15.2549C33.4533 16.0174 32.6418 16.8813 31.076 16.8813Z" fill="#444444" stroke="#444444" stroke-width="0.75"/>
<path d="M31.076 26.5766C29.5108 26.5766 28.6993 25.7128 27.9828 24.9502C27.3182 24.2421 26.7413 23.6297 25.5371 23.6297C24.3328 23.6297 23.7579 24.2421 23.0919 24.9502C22.3755 25.7128 21.5633 26.5766 19.9988 26.5766C18.4343 26.5766 17.6222 25.7128 16.9057 24.9502C16.2411 24.2421 15.6649 23.6297 14.4606 23.6297C13.2563 23.6297 12.6814 24.2421 12.0155 24.9502C11.2997 25.7128 10.4868 26.5766 8.92234 26.5766C7.35784 26.5766 6.54568 25.7128 5.82989 24.9502C5.31578 24.4024 4.85417 23.912 4.11435 23.7179C3.72079 23.6147 3.38477 23.2998 3.38477 22.893C3.38477 22.4861 3.71835 22.1463 4.1174 22.2257C5.22168 22.4455 5.88249 23.1488 6.47722 23.7816C7.14184 24.4907 7.71872 25.1031 8.92234 25.1031C10.126 25.1031 10.7015 24.4907 11.3675 23.7816C12.0839 23.02 12.8961 22.1562 14.4606 22.1562C16.0251 22.1562 16.8372 23.02 17.5537 23.7816C18.2183 24.4907 18.7945 25.1031 19.9988 25.1031C21.2031 25.1031 21.778 24.4907 22.4439 23.7816C23.1604 23.02 23.9726 22.1562 25.5371 22.1562C27.1016 22.1562 27.9144 23.02 28.6308 23.7816C29.2955 24.4907 29.8723 25.1031 31.076 25.1031C32.2796 25.1031 32.8558 24.4907 33.5217 23.7816C34.117 23.1488 34.7784 22.4455 35.8829 22.2257C36.282 22.1463 36.6155 22.4861 36.6155 22.893C36.6155 23.2998 36.2795 23.6147 35.8859 23.7179C35.146 23.9119 34.6849 24.4024 34.1697 24.9502C33.4533 25.7128 32.6418 26.5766 31.076 26.5766Z" fill="#444444" stroke="#444444" stroke-width="0.75"/>
</g>
</svg>
