<svg width="40" height="39" viewBox="0 0 40 39" fill="none" xmlns="http://www.w3.org/2000/svg">
<path d="M7.40426 15.7368L4 13V22.5789L5.3617 23.9474L7.40426 25.3158H9.44681L10.8085 24.6316L12.1702 23.2632L13.5319 22.5789H14.8936L16.2553 23.2632L17.617 24.6316L18.9787 25.3158H21.0213L22.383 23.9474L23.7447 22.5789H25.7872L27.1489 23.2632L29.1915 25.3158L31.234 26L33.2766 24.6316L34.6383 22.5789H36V13L33.9574 13.6842L31.9149 15.7368H30.5532H29.1915L27.1489 13.6842L25.7872 13H24.4255L23.0638 13.6842L21.0213 15.7368H19.6596L17.617 15.0526L14.8936 13H12.8511L10.8085 15.0526L8.76596 15.7368H7.40426Z" fill="#FFE665"/>
<path d="M31.076 16.8822C29.5108 16.8822 28.6993 16.0184 27.9828 15.2559C27.3182 14.5477 26.7413 13.9354 25.5371 13.9354C24.3328 13.9354 23.7579 14.5477 23.0919 15.2559C22.3755 16.0184 21.5633 16.8822 19.9988 16.8822C18.4343 16.8822 17.6222 16.0184 16.9057 15.2559C16.2411 14.5477 15.6649 13.9354 14.4606 13.9354C13.2563 13.9354 12.6814 14.5477 12.0155 15.2559C11.2997 16.0184 10.4868 16.8822 8.92234 16.8822C7.35784 16.8822 6.54568 16.0184 5.82989 15.2559C5.31578 14.7081 4.85417 14.2176 4.11435 14.0236C3.72079 13.9203 3.38477 13.6055 3.38477 13.1986C3.38477 12.7918 3.71835 12.4519 4.1174 12.5314C5.22168 12.7512 5.88249 13.4545 6.47722 14.0873C7.14184 14.7964 7.71872 15.4088 8.92234 15.4088C10.126 15.4088 10.7015 14.7964 11.3675 14.0873C12.0839 13.3257 12.8961 12.4619 14.4606 12.4619C16.0251 12.4619 16.8372 13.3257 17.5537 14.0873C18.2183 14.7964 18.7945 15.4088 19.9988 15.4088C21.2031 15.4088 21.778 14.7964 22.4439 14.0873C23.1604 13.3257 23.9726 12.4619 25.5371 12.4619C27.1016 12.4619 27.9144 13.3257 28.6308 14.0873C29.2955 14.7964 29.8723 15.4088 31.076 15.4088C32.2796 15.4088 32.8558 14.7964 33.5217 14.0873C34.117 13.4545 34.7784 12.7511 35.8829 12.5314C36.282 12.4519 36.6155 12.7918 36.6155 13.1986C36.6155 13.6055 36.2795 13.9203 35.8859 14.0235C35.146 14.2175 34.6849 14.7081 34.1697 15.2559C33.4533 16.0184 32.6418 16.8822 31.076 16.8822Z" fill="#444444" stroke="#444444" stroke-width="0.75"/>
<path d="M31.076 26.5746C29.5108 26.5746 28.6993 25.7108 27.9828 24.9483C27.3182 24.2401 26.7413 23.6277 25.5371 23.6277C24.3328 23.6277 23.7579 24.2401 23.0919 24.9483C22.3755 25.7108 21.5633 26.5746 19.9988 26.5746C18.4343 26.5746 17.6222 25.7108 16.9057 24.9483C16.2411 24.2401 15.6649 23.6277 14.4606 23.6277C13.2563 23.6277 12.6814 24.2401 12.0155 24.9483C11.2997 25.7108 10.4868 26.5746 8.92234 26.5746C7.35784 26.5746 6.54568 25.7108 5.82989 24.9483C5.31578 24.4005 4.85417 23.91 4.11435 23.716C3.72079 23.6127 3.38477 23.2979 3.38477 22.891C3.38477 22.4841 3.71835 22.1443 4.1174 22.2237C5.22168 22.4436 5.88249 23.1469 6.47722 23.7797C7.14184 24.4888 7.71872 25.1012 8.92234 25.1012C10.126 25.1012 10.7015 24.4888 11.3675 23.7797C12.0839 23.0181 12.8961 22.1543 14.4606 22.1543C16.0251 22.1543 16.8372 23.0181 17.5537 23.7797C18.2183 24.4888 18.7945 25.1012 19.9988 25.1012C21.2031 25.1012 21.778 24.4888 22.4439 23.7797C23.1604 23.0181 23.9726 22.1543 25.5371 22.1543C27.1016 22.1543 27.9144 23.0181 28.6308 23.7797C29.2955 24.4888 29.8723 25.1012 31.076 25.1012C32.2796 25.1012 32.8558 24.4888 33.5217 23.7797C34.117 23.1469 34.7784 22.4435 35.8829 22.2237C36.282 22.1443 36.6155 22.4841 36.6155 22.891C36.6155 23.2979 36.2795 23.6127 35.8859 23.7159C35.146 23.9099 34.6849 24.4004 34.1697 24.9483C33.4533 25.7108 32.6418 26.5746 31.076 26.5746Z" fill="#444444" stroke="#444444" stroke-width="0.75"/>
</svg>
