<svg width="77" height="73" viewBox="0 0 77 73" fill="none" xmlns="http://www.w3.org/2000/svg">
<path d="M19.75 12.25H32.25V4C32.25 2.20507 30.7949 0.75 29 0.75H23C21.2051 0.75 19.75 2.20507 19.75 4V12.25Z" fill="white" stroke="#444444" stroke-width="1.5"/>
<path d="M16.75 22.25H35.25V15C35.25 13.2051 33.7949 11.75 32 11.75H20C18.2051 11.75 16.75 13.2051 16.75 15V22.25Z" fill="white" stroke="#444444" stroke-width="1.5"/>
<path d="M12.4897 21.6102C13.1382 18.7669 15.6669 16.75 18.5833 16.75H33.4167C36.3331 16.75 38.8618 18.7669 39.5103 21.6102L49.3173 64.6102C50.2096 68.5225 47.2365 72.25 43.2238 72.25H8.77624C4.76354 72.25 1.79045 68.5225 2.68271 64.6102L12.4897 21.6102Z" fill="white" stroke="#444444" stroke-width="1.5"/>
<path d="M12.924 34.1973C13.3052 32.3362 14.9429 31 16.8427 31H34.7484C36.6307 31 38.2584 32.3124 38.6574 34.152L44.9483 63.152C45.4891 65.6448 43.59 68 41.0393 68H10.9024C8.37062 68 6.47571 65.6776 6.98376 63.1973L12.924 34.1973Z" fill="#7FCFC2"/>
<path d="M23.7652 43.8913C24.4033 41.6383 27.5967 41.6383 28.2348 43.8913C28.5774 45.1009 29.8201 45.8184 31.0389 45.5103C33.3091 44.9363 34.9059 47.7019 33.2737 49.3811C32.3974 50.2825 32.3974 51.7175 33.2737 52.6189C34.9059 54.2981 33.3091 57.0637 31.0389 56.4897C29.8201 56.1816 28.5774 56.8991 28.2348 58.1087C27.5967 60.3617 24.4033 60.3617 23.7652 58.1087C23.4227 56.8991 22.1799 56.1816 20.9611 56.4897C18.6909 57.0637 17.0941 54.2981 18.7263 52.6189C19.6026 51.7175 19.6026 50.2825 18.7263 49.3811C17.0941 47.7019 18.6909 44.9363 20.9611 45.5103C22.1799 45.8184 23.4227 45.1009 23.7652 43.8913Z" fill="white"/>
<ellipse cx="26" cy="6.5" rx="2" ry="2.5" fill="#444444"/>
<path d="M26 6V7" stroke="white" stroke-linecap="round"/>
<path d="M56.75 62.75H69.25V69C69.25 70.7949 67.7949 72.25 66 72.25H60C58.2051 72.25 56.75 70.7949 56.75 69V62.75Z" fill="white" stroke="#444444" stroke-width="1.5"/>
<path d="M49.75 17.5C49.75 17.0858 50.0858 16.75 50.5 16.75H75.5C75.9142 16.75 76.25 17.0858 76.25 17.5V21.25H49.75V17.5Z" fill="white" stroke="#444444" stroke-width="1.5"/>
<path d="M56.5341 64.25L49.75 21.9403V20.75H76.25V21.9402L69.4659 64.25H56.5341Z" fill="white" stroke="#444444" stroke-width="1.5"/>
<ellipse cx="63" cy="41" rx="6" ry="10" fill="white"/>
</svg>
