<svg width="93" height="79" viewBox="0 0 93 79" fill="none" xmlns="http://www.w3.org/2000/svg">
<path d="M5 32C5 55.196 23.5802 74 46.5 74C69.4198 74 88 55.196 88 32" stroke="white" stroke-width="10"/>
<rect width="12" height="43.1507" rx="6" transform="matrix(0.716009 0.698091 0.698091 -0.716009 39.9062 51.8965)" fill="#FFE696"/>
<path d="M38.2303 12.5022C37.5505 9.49246 33.262 9.49246 32.5822 12.5022C32.1416 14.4528 29.9032 15.38 28.2123 14.3123C25.6034 12.6648 22.571 15.6971 24.2185 18.3061C25.2862 19.9969 24.359 22.2353 22.4084 22.6759C19.3987 23.3558 19.3987 27.6442 22.4084 28.3241C24.359 28.7647 25.2862 31.0031 24.2185 32.6939C22.571 35.3029 25.6034 38.3352 28.2123 36.6877C29.9032 35.62 32.1416 36.5472 32.5822 38.4978C33.262 41.5075 37.5505 41.5075 38.2303 38.4978C38.6709 36.5472 40.9093 35.62 42.6002 36.6878C45.2091 38.3352 48.2415 35.3029 46.594 32.6939C45.5263 31.0031 46.4535 28.7647 48.4041 28.3241C51.4138 27.6442 51.4138 23.3558 48.4041 22.6759C46.4535 22.2353 45.5263 19.9969 46.594 18.3061C48.2415 15.6971 45.2091 12.6648 42.6002 14.3123C40.9093 15.38 38.6709 14.4528 38.2303 12.5022Z" fill="#A6AFFF"/>
<path d="M82.4861 32.0612C82.4861 53.048 67.965 67.5691 46.9782 67.5691C25.9914 67.5691 11.4531 53.0308 11.4531 32.0439" stroke="#444444" stroke-width="2" stroke-linecap="round"/>
<path d="M13.9053 68H79.9053" stroke="#444444" stroke-width="2" stroke-linecap="round" stroke-linejoin="round"/>
<circle cx="46.4785" cy="67.5693" r="2" transform="rotate(-180 46.4785 67.5693)" fill="white" stroke="#444444" stroke-width="2"/>
<circle cx="10.4785" cy="67.5693" r="2" transform="rotate(-180 10.4785 67.5693)" stroke="#444444" stroke-width="2"/>
<circle cx="82.4785" cy="67.5693" r="2" transform="rotate(-180 82.4785 67.5693)" stroke="#444444" stroke-width="2"/>
</svg>
