<svg width="16" height="24" viewBox="0 0 16 24" fill="none" xmlns="http://www.w3.org/2000/svg">
<path d="M15 7.63636C15 9.41227 13.8291 11.0548 12.3642 12.8725C12.2655 12.995 12.1654 13.1185 12.0647 13.2428C11.4586 13.9902 10.8283 14.7678 10.3368 15.534C9.94163 16.1501 9.59144 16.8243 9.41225 17.5455H6.58775C6.40856 16.8243 6.05837 16.1501 5.66317 15.534C5.17172 14.7678 4.54135 13.9902 3.93534 13.2428C3.83456 13.1185 3.73446 12.995 3.63578 12.8725C2.17091 11.0548 1 9.41227 1 7.63636C1 4.02107 4.09651 1 8 1C11.9035 1 15 4.02107 15 7.63636ZM6.71429 21.8182V21.7273H9.28572V21.8182C9.28572 22.4226 8.74921 23 8 23C7.25079 23 6.71429 22.4226 6.71429 21.8182Z" fill="white" stroke="#444444" stroke-width="2"/>
<rect x="7" y="5" width="2" height="6" rx="1" fill="#444444"/>
</svg>
