<svg width="76" height="78" viewBox="0 0 76 78" fill="none" xmlns="http://www.w3.org/2000/svg">
<rect x="1" y="14.4659" width="65.4872" height="55.8462" rx="3" fill="white" stroke="#444444" stroke-width="2"/>
<path d="M8.67746 20.6971C8.67746 21.4958 8.03 22.1433 7.23131 22.1433C6.43262 22.1433 5.78516 21.4958 5.78516 20.6971C5.78516 19.8984 6.43262 19.251 7.23131 19.251C8.03 19.251 8.67746 19.8984 8.67746 20.6971Z" fill="#DDDDDD"/>
<path d="M13.498 20.6971C13.498 21.4958 12.8505 22.1433 12.0518 22.1433C11.2531 22.1433 10.6057 21.4958 10.6057 20.6971C10.6057 19.8984 11.2531 19.251 12.0518 19.251C12.8505 19.251 13.498 19.8984 13.498 20.6971Z" fill="#DDDDDD"/>
<path d="M18.3185 20.6971C18.3185 21.4958 17.671 22.1433 16.8723 22.1433C16.0736 22.1433 15.4262 21.4958 15.4262 20.6971C15.4262 19.8984 16.0736 19.251 16.8723 19.251C17.671 19.251 18.3185 19.8984 18.3185 20.6971Z" fill="#DDDDDD"/>
<rect x="36.6357" y="26.9639" width="26.9949" height="14.4615" rx="3" fill="#A7D6FF"/>
<rect x="36.6357" y="44.3174" width="26.9949" height="20.2462" rx="3" fill="#E1E1E1"/>
<rect x="6.28516" y="27.4639" width="25.0308" height="36.6" rx="2.5" stroke="#DDDDDD" stroke-dasharray="1 2"/>
<rect x="5.78516" y="26.9639" width="26.9949" height="37.6" rx="3" fill="#A7D6FF"/>
<path d="M64.9766 68.6748L70.7069 74.2366" stroke="#444444" stroke-width="2" stroke-linecap="round"/>
<path d="M63.0805 72.1622L58.4315 62.9816C58.2167 62.5574 58.6596 62.1011 59.09 62.3031L68.4053 66.6761C68.7161 66.822 68.7907 67.2306 68.5516 67.4769L63.8854 72.2845C63.6463 72.5309 63.2357 72.4685 63.0805 72.1622Z" fill="white" stroke="#444444" stroke-width="2"/>
<circle cx="60.7389" cy="15.3942" r="14.4615" fill="#444444"/>
<g clip-path="url(#clip0_8_231)">
<path d="M54.3278 18.9136L57.0176 16.2237C57.3261 15.9152 57.114 15.3946 56.6802 15.3946L54.9544 15.3946C54.9544 12.2034 57.5479 9.60999 60.739 9.60999C61.5007 9.60999 62.243 9.7546 62.9083 10.0342C63.2553 10.1788 63.6506 10.0728 63.9109 9.81245C64.4026 9.32076 64.2291 8.49163 63.5831 8.23132C62.7058 7.8746 61.7417 7.68178 60.739 7.68178C56.4777 7.68178 53.0262 11.1333 53.0262 15.3946L51.3005 15.3946C50.8666 15.3946 50.6545 15.9152 50.963 16.2141L53.6529 18.9039C53.8361 19.0968 54.1446 19.0968 54.3278 18.9136ZM66.5237 15.3946C66.5237 18.5858 63.9302 21.1792 60.739 21.1792C59.9774 21.1792 59.235 21.0346 58.5698 20.755C58.2227 20.6104 57.8274 20.7164 57.5671 20.9768C57.0754 21.4684 57.249 22.2976 57.8949 22.5579C58.7723 22.9146 59.7364 23.1074 60.739 23.1074C65.0004 23.1074 68.4519 19.6559 68.4519 15.3946L70.1776 15.3946C70.6114 15.3946 70.8236 14.874 70.515 14.5751L67.8252 11.8853C67.6324 11.6924 67.3335 11.6924 67.1407 11.8853L64.4508 14.5751C64.152 14.874 64.3641 15.3946 64.7979 15.3946L66.5237 15.3946Z" fill="white"/>
</g>
<defs>
<clipPath id="clip0_8_231">
<rect width="23.1385" height="23.1385" fill="white" transform="translate(49.1699 3.8252)"/>
</clipPath>
</defs>
</svg>
