<svg width="25" height="24" viewBox="0 0 25 24" fill="none" xmlns="http://www.w3.org/2000/svg">
<g clip-path="url(#clip0_171_11266)">
<path d="M23.75 19C23.75 19.5304 23.5393 20.0391 23.1642 20.4142C22.7891 20.7893 22.2804 21 21.75 21H3.75C3.21957 21 2.71086 20.7893 2.33579 20.4142C1.96071 20.0391 1.75 19.5304 1.75 19V8C1.75 7.46957 1.96071 6.96086 2.33579 6.58579C2.71086 6.21071 3.21957 6 3.75 6H7.75L9.75 3H15.75L17.75 6H21.75C22.2804 6 22.7891 6.21071 23.1642 6.58579C23.5393 6.96086 23.75 7.46957 23.75 8V19Z" stroke="black" stroke-width="2" stroke-linecap="round" stroke-linejoin="round"/>
<path d="M12.75 17C14.9591 17 16.75 15.2091 16.75 13C16.75 10.7909 14.9591 9 12.75 9C10.5409 9 8.75 10.7909 8.75 13C8.75 15.2091 10.5409 17 12.75 17Z" stroke="black" stroke-width="2" stroke-linecap="round" stroke-linejoin="round"/>
</g>
<defs>
<clipPath id="clip0_171_11266">
<rect width="24" height="24" fill="white" transform="translate(0.75)"/>
</clipPath>
</defs>
</svg>
