<svg width="24" height="24" viewBox="0 0 24 24" fill="none" xmlns="http://www.w3.org/2000/svg">
<path d="M18.3563 12.7289C18.389 16.2539 21.449 17.4271 21.4827 17.4421C21.4568 17.5246 20.9939 19.1138 19.8708 20.755C18.8999 22.174 17.8921 23.5878 16.3049 23.6174C14.7453 23.6459 14.2437 22.6923 12.4604 22.6923C10.6776 22.6923 10.1206 23.5878 8.64402 23.6459C7.11177 23.704 5.94496 22.1112 4.96602 20.6976C2.96577 17.8056 1.43708 12.5255 3.48964 8.96127C4.50927 7.19127 6.33177 6.07058 8.30971 6.0417C9.81421 6.01302 11.2343 7.05383 12.154 7.05383C13.0731 7.05383 14.7989 5.80208 16.6131 5.98583C17.3727 6.01752 19.5046 6.29258 20.8735 8.29658C20.7635 8.36501 18.3299 9.78176 18.3563 12.7289ZM15.4251 4.07277C16.2385 3.0882 16.786 1.7172 16.6368 0.353516C15.4641 0.400578 14.0463 1.13483 13.2053 2.11902C12.4516 2.99033 11.7916 4.38533 11.9695 5.72202C13.2766 5.82327 14.6116 5.05789 15.4251 4.07277Z" fill="black"/>
</svg>
