<svg width="25" height="24" viewBox="0 0 25 24" fill="none" xmlns="http://www.w3.org/2000/svg">
<path d="M19.25 3H5.25C4.14543 3 3.25 3.89543 3.25 5V19C3.25 20.1046 4.14543 21 5.25 21H19.25C20.3546 21 21.25 20.1046 21.25 19V5C21.25 3.89543 20.3546 3 19.25 3Z" stroke="black" stroke-width="2" stroke-linecap="round" stroke-linejoin="round"/>
<path d="M8.75 10C9.57843 10 10.25 9.32843 10.25 8.5C10.25 7.67157 9.57843 7 8.75 7C7.92157 7 7.25 7.67157 7.25 8.5C7.25 9.32843 7.92157 10 8.75 10Z" stroke="black" stroke-width="2" stroke-linecap="round" stroke-linejoin="round"/>
<path d="M21.25 15L16.25 10L5.25 21" stroke="black" stroke-width="2" stroke-linecap="round" stroke-linejoin="round"/>
</svg>
