<svg width="24" height="24" viewBox="0 0 24 24" fill="none" xmlns="http://www.w3.org/2000/svg">
<path d="M23.9917 18.9257C24.0827 18.6799 13.6363 10.792 13.6363 10.792C12.3285 9.82693 11.6406 9.81174 10.3473 10.792C10.3473 10.792 -0.0838564 18.6735 0.00394043 18.916L0.00183105 18.9178C0.00290918 18.9199 0.00464355 18.9213 0.00609668 18.9233C0.0945616 19.1644 0.223242 19.3887 0.386675 19.5869C0.455722 19.6706 0.538925 19.7407 0.61894 19.8136L0.61505 19.8166C0.621425 19.8223 0.629909 19.8249 0.636284 19.8306C0.975425 20.1331 1.40311 20.329 1.87824 20.385C1.88569 20.3859 1.89169 20.3897 1.89914 20.3906H1.92783C2.00007 20.3975 2.06874 20.4149 2.14271 20.4149H21.864C22.8351 20.4149 23.6579 19.8042 23.9847 18.9481C23.9886 18.9417 23.9946 18.9371 23.9981 18.9306L23.9917 18.9257Z" fill="#96A9B2"/>
<path d="M12.0062 9.88084L0.0570068 18.8428V6.14673C0.0570068 4.90923 1.05999 3.90625 2.29749 3.90625H21.715C22.9525 3.90625 23.9555 4.90923 23.9555 6.14673V18.8428L12.0062 9.88084Z" fill="#B9C5C6"/>
<path d="M0.196411 5.3672L10.3985 13.3804C11.6862 14.3306 12.3634 14.3456 13.6368 13.3804L23.8229 5.37991C23.6461 5.05956 23.3816 4.80648 23.079 4.60469L23.2191 4.49491C22.8772 4.18361 22.4401 3.98181 21.9548 3.92969L2.05852 3.93039C1.57468 3.98181 1.13686 4.18431 0.795614 4.49491L0.934692 4.60333C0.63563 4.80231 0.373505 5.05103 0.196411 5.3672Z" fill="#EDECE6"/>
<path d="M0.193049 5.38808C0.103471 5.63019 10.3889 13.3964 10.3889 13.3964C11.6766 14.3466 12.3538 14.3616 13.6272 13.3964C13.6272 13.3964 23.8976 5.63647 23.8112 5.39769L23.8133 5.39595C23.8122 5.39384 23.8105 5.39248 23.8091 5.39056C23.722 5.15314 23.5953 4.93221 23.4344 4.73717C23.3664 4.65472 23.2845 4.58572 23.2057 4.51391L23.2096 4.51095C23.2033 4.50538 23.1949 4.50275 23.1887 4.49717C22.8547 4.19933 22.4336 4.00639 21.9659 3.95131C21.9586 3.95042 21.9526 3.94663 21.9453 3.94573H21.9171C21.846 3.93894 21.7783 3.92188 21.7055 3.92188H2.28799C1.33183 3.92188 0.521736 4.52319 0.200033 5.36605C0.196189 5.37233 0.190283 5.37687 0.186768 5.3833L0.193049 5.38808Z" fill="#DCE2E2"/>
<path d="M13.6594 6.25027H11.8485C11.772 6.25027 11.6986 6.28066 11.6445 6.33477C11.5904 6.38888 11.56 6.46226 11.56 6.53878V7.557C11.56 7.63352 11.5904 7.7069 11.6445 7.76101C11.6986 7.81512 11.772 7.84552 11.8485 7.84552H13.3211C13.3976 7.84552 13.471 7.87591 13.5251 7.93002C13.5792 7.98413 13.6096 8.05751 13.6096 8.13403V8.67853C13.6096 8.75505 13.5792 8.82844 13.5251 8.88254C13.471 8.93665 13.3976 8.96705 13.3211 8.96705H11.8485C11.772 8.96705 11.6986 8.99744 11.6445 9.05155C11.5904 9.10566 11.56 9.17904 11.56 9.25556V10.3608C11.56 10.4373 11.5904 10.5107 11.6445 10.5648C11.6986 10.6189 11.772 10.6493 11.8485 10.6493H13.7852C13.8617 10.6493 13.9351 10.6797 13.9892 10.7338C14.0433 10.7879 14.0737 10.8613 14.0737 10.9378V11.521C14.0737 11.5975 14.0433 11.6709 13.9892 11.725C13.9351 11.7791 13.8617 11.8095 13.7852 11.8095H10.234C10.1574 11.8095 10.084 11.7791 10.0299 11.725C9.97583 11.6709 9.94543 11.5975 9.94543 11.521V5.39789C9.94543 5.32137 9.97583 5.24799 10.0299 5.19388C10.084 5.13977 10.1574 5.10938 10.234 5.10938H13.7407C13.9164 5.10938 14.0513 5.26509 14.0262 5.43905L13.945 6.00286C13.9351 6.07155 13.9008 6.13437 13.8483 6.17981C13.7959 6.22525 13.7288 6.25027 13.6594 6.25027Z" fill="#597B91"/>
</svg>
