<svg width="56" height="56" viewBox="0 0 56 56" fill="none" xmlns="http://www.w3.org/2000/svg">
<path d="M19 34V28C19 25.6131 19.9482 23.3239 21.636 21.636C23.3239 19.9482 25.6131 19 28 19C30.3869 19 32.6761 19.9482 34.364 21.636C36.0518 23.3239 37 25.6131 37 28V34" stroke="#020617" stroke-width="2" stroke-linecap="round" stroke-linejoin="round"/>
<path d="M37 35C37 35.5304 36.7893 36.0391 36.4142 36.4142C36.0391 36.7893 35.5304 37 35 37H34C33.4696 37 32.9609 36.7893 32.5858 36.4142C32.2107 36.0391 32 35.5304 32 35V32C32 31.4696 32.2107 30.9609 32.5858 30.5858C32.9609 30.2107 33.4696 30 34 30H37V35ZM19 35C19 35.5304 19.2107 36.0391 19.5858 36.4142C19.9609 36.7893 20.4696 37 21 37H22C22.5304 37 23.0391 36.7893 23.4142 36.4142C23.7893 36.0391 24 35.5304 24 35V32C24 31.4696 23.7893 30.9609 23.4142 30.5858C23.0391 30.2107 22.5304 30 22 30H19V35Z" stroke="#020617" stroke-width="2" stroke-linecap="round" stroke-linejoin="round"/>
</svg>
