<svg width="16" height="16" viewBox="0 0 16 16" fill="none" xmlns="http://www.w3.org/2000/svg">
<g clip-path="url(#clip0_187_14145)">
<path d="M7.99967 1.33594C4.31967 1.33594 1.33301 4.3226 1.33301 8.0026C1.33301 11.6826 4.31967 14.6693 7.99967 14.6693C11.6797 14.6693 14.6663 11.6826 14.6663 8.0026C14.6663 4.3226 11.6797 1.33594 7.99967 1.33594ZM8.66634 12.6693H7.33301V11.3359H8.66634V12.6693ZM10.0463 7.5026L9.44634 8.11594C8.96634 8.6026 8.66634 9.0026 8.66634 10.0026H7.33301V9.66927C7.33301 8.93594 7.63301 8.26927 8.11301 7.7826L8.93967 6.9426C9.18634 6.7026 9.33301 6.36927 9.33301 6.0026C9.33301 5.26927 8.73301 4.66927 7.99967 4.66927C7.26634 4.66927 6.66634 5.26927 6.66634 6.0026H5.33301C5.33301 4.52927 6.52634 3.33594 7.99967 3.33594C9.47301 3.33594 10.6663 4.52927 10.6663 6.0026C10.6663 6.58927 10.4263 7.1226 10.0463 7.5026Z" fill="#AAB2BE"/>
</g>
<defs>
<clipPath id="clip0_187_14145">
<rect width="16" height="16" fill="white"/>
</clipPath>
</defs>
</svg>
