<svg width="24" height="24" viewBox="0 0 24 24" fill="none" xmlns="http://www.w3.org/2000/svg">
<path d="M21.4383 11.0489L12.2483 20.2389C11.1225 21.3648 9.59552 21.9973 8.00334 21.9973C6.41115 21.9973 4.88418 21.3648 3.75834 20.2389C2.63249 19.1131 2 17.5861 2 15.9939C2 14.4018 2.63249 12.8748 3.75834 11.7489L12.9483 2.55894C13.6989 1.80838 14.7169 1.38672 15.7783 1.38672C16.8398 1.38672 17.8578 1.80838 18.6083 2.55894C19.3589 3.30951 19.7806 4.32749 19.7806 5.38894C19.7806 6.4504 19.3589 7.46838 18.6083 8.21894L9.40834 17.4089C9.03306 17.7842 8.52406 17.9951 7.99334 17.9951C7.46261 17.9951 6.95362 17.7842 6.57834 17.4089C6.20306 17.0337 5.99222 16.5247 5.99222 15.9939C5.99222 15.4632 6.20306 14.9542 6.57834 14.5789L15.0683 6.09894" stroke="#BDBCDB" stroke-width="2" stroke-linecap="round" stroke-linejoin="round"/>
</svg>
