<svg width="285" height="285" viewBox="0 0 285 285" fill="none" xmlns="http://www.w3.org/2000/svg">
<path d="M80 1.875H33.125C24.837 1.875 16.8884 5.1674 11.0279 11.0279C5.1674 16.8884 1.875 24.837 1.875 33.125V80M283.125 80V33.125C283.125 24.837 279.833 16.8884 273.972 11.0279C268.112 5.1674 260.163 1.875 251.875 1.875H205M205 283.125H251.875C260.163 283.125 268.112 279.833 273.972 273.972C279.833 268.112 283.125 260.163 283.125 251.875V205M1.875 205V251.875C1.875 260.163 5.1674 268.112 11.0279 273.972C16.8884 279.833 24.837 283.125 33.125 283.125H80" stroke="white" stroke-width="2" stroke-linecap="round" stroke-linejoin="round"/>
</svg>
