<svg width="54" height="55" viewBox="0 0 54 55" fill="none" xmlns="http://www.w3.org/2000/svg">
<path fill-rule="evenodd" clip-rule="evenodd" d="M39.5996 54.281V13.6601L53.9996 0V40.6209L39.5996 54.281ZM46.0796 21.341V34.7537L47.5196 33.2918V32.258V19.7712L46.0796 21.341Z" fill="#7E49FF"/>
<path fill-rule="evenodd" clip-rule="evenodd" d="M0 54.9997V11.1435L10.8 1.07812V12.1372L4.32007 18.2003V30.04L5.40007 28.9376V26.601V18.8722L10.8 13.8396V44.9343L0 54.9997Z" fill="#E3D8FF"/>
<path d="M5.40039 18.8724L5.40039 28.9378L14.4003 20.4901V10.4247L5.40039 18.8724Z" fill="#C5ADFF"/>
<path d="M14.4004 54.2809L14.4003 10.4247L25.2004 0.359375V12.1374L18.7204 18.2005V30.0402L19.8004 28.9378V18.8724L25.2004 13.8398V44.2156L14.4004 54.2809Z" fill="#C5ADFF"/>
<path d="M19.8008 18.8724L19.8008 28.9378L28.8007 20.4901V10.4247L19.8008 18.8724Z" fill="#A17BFF"/>
<path d="M28.8008 54.2809L28.8007 10.4247L39.6008 0.359375V11.8826L38.5208 12.8931V45.2221L28.8008 54.2809Z" fill="#A17BFF"/>
</svg>
