<svg width="150" height="153" viewBox="0 0 150 153" fill="none" xmlns="http://www.w3.org/2000/svg">
<path fill-rule="evenodd" clip-rule="evenodd" d="M110 151L110 38L150 0V113L110 151ZM128 59.3667V96.6784L132 92.6117V89.7358V55L128 59.3667Z" fill="white"/>
<path fill-rule="evenodd" clip-rule="evenodd" d="M0 153L2.18557e-06 31L30 3L30 33.7642L12 50.6309V83.5667L15 80.5V74V52.5L30 38.5L30 125L0 153Z" fill="#A37DFF"/>
<path d="M15 52.5L15 80.5L39.9999 57V29L15 52.5Z" fill="#C5ADFF"/>
<path d="M40 151L39.9999 29L70 1V33.7642L52 50.6309V83.5667L55 80.5V52.5L70 38.5V123L40 151Z" fill="#C5ADFF"/>
<path d="M55 52.5L55 80.5L79.9999 57V29L55 52.5Z" fill="#E3D8FF"/>
<path d="M80 151L79.9999 29L110 1V33.0556L107 35.8667V125.8L80 151Z" fill="#E3D8FF"/>
</svg>
