<svg width="100" height="78" viewBox="0 0 100 78" fill="none" xmlns="http://www.w3.org/2000/svg">
<path opacity="0.6" d="M50 77C22.938 77 0.999999 55.062 0.999998 28L99 28C99 55.0619 77.062 77 50 77Z" fill="#C8E8E4"/>
<path fill-rule="evenodd" clip-rule="evenodd" d="M44.1595 43.6368L44.171 43.6557H23.7445C22.5088 42.0142 21.7765 39.9738 21.7765 37.7628C21.7765 32.3386 26.1837 27.9414 31.6202 27.9414C32.7708 27.9414 33.8752 28.1383 34.9015 28.5003L35.0929 28.8131C36.2443 21.6361 42.4784 16.1523 49.9962 16.1523C58.3322 16.1523 65.0899 22.8947 65.0899 31.2119C65.0899 32.6559 64.8862 34.0525 64.5059 35.3746L66.0535 33.7751C66.5042 33.6969 66.9671 33.6562 67.4393 33.6562C72.0314 33.6562 75.754 37.5038 75.754 42.25C75.754 43.2544 75.5873 44.2186 75.2809 45.1146H55.0822L56.5119 43.6368H44.1595Z" fill="white"/>
<path fill-rule="evenodd" clip-rule="evenodd" d="M59.4488 43.4805C60.9963 41.3431 61.9111 38.6999 61.9111 35.8386C61.9111 28.7286 56.2623 22.9648 49.294 22.9648C42.3258 22.9648 36.6769 28.7286 36.6769 35.8386C36.6769 38.6999 37.5917 41.3431 39.1392 43.4805H59.4488Z" fill="#2FCAB0"/>
<path d="M41.5577 44.0021C37.6376 41.3176 35.0665 36.8145 35.0665 31.7122C35.0665 23.4855 41.7508 16.8164 49.9962 16.8164C58.2417 16.8164 64.9259 23.4855 64.9259 31.7122C64.9259 36.8145 62.3548 41.3176 58.4347 44.0021" stroke="#444444" stroke-width="2" stroke-linecap="round"/>
<ellipse cx="40.571" cy="3.21215" rx="1.86482" ry="1.86059" fill="#444444"/>
<path d="M35.4103 28.4964C34.384 28.1344 33.2796 27.9375 32.129 27.9375C26.6925 27.9375 22.2853 32.3347 22.2853 37.7589C22.2853 39.9699 23.0175 42.0103 24.2533 43.6518" stroke="#444444" stroke-width="2" stroke-linecap="round"/>
<path d="M30.6372 33.6445C29.2272 34.0983 28.1151 35.2135 27.6681 36.6238" stroke="#444444" stroke-width="2" stroke-linecap="round"/>
<path d="M75.9952 43.4492C75.9952 38.2284 72.0288 33.9961 67.1359 33.9961C66.6328 33.9961 66.1395 34.0408 65.6593 34.1268" stroke="#444444" stroke-width="2" stroke-linecap="round"/>
<ellipse cx="70.3546" cy="9.23419" rx="5.25001" ry="5.2381" fill="white" stroke="#444444" stroke-width="2"/>
<path d="M47.4986 22.9648C44.2439 23.3611 41.3557 25.5315 39.923 28.3834" stroke="#444444" stroke-width="2" stroke-linecap="round"/>
<ellipse cx="28.2325" cy="16.6019" rx="3.28125" ry="3.27381" fill="white" stroke="#444444" stroke-width="2"/>
<ellipse cx="80.2853" cy="34.7116" rx="1.86815" ry="1.86391" fill="#444444"/>
<path d="M17.84 44.3086L82.1525 44.3086" stroke="#444444" stroke-width="2" stroke-linecap="round"/>
</svg>
