<svg width="100" height="78" viewBox="0 0 100 78" fill="none" xmlns="http://www.w3.org/2000/svg">
<path opacity="0.6" d="M50 77C22.938 77 0.999999 55.062 0.999998 28L99 28C99 55.0619 77.062 77 50 77Z" fill="#C4E7D8"/>
<path d="M17.5 44.3047L82.4687 44.3047" stroke="#444444" stroke-width="2" stroke-linecap="round"/>
<path d="M66.2266 28.4691C66.2266 37.7414 58.2925 44.6021 49.9844 44.6021C41.6763 44.6021 33.7422 37.7414 33.7422 28.4691C33.7422 18.7001 45.5533 7.15658 49.0316 3.96889C49.5782 3.46798 50.3905 3.46798 50.9371 3.96889C54.4154 7.15657 66.2266 18.7001 66.2266 28.4691Z" fill="white"/>
<circle cx="49.9123" cy="30.8156" r="12.9719" fill="#2FCAB0"/>
<path d="M60.0107 30.7985C59.6095 34.0458 57.3568 36.7284 54.3268 37.7852" stroke="#444444" stroke-width="2" stroke-linecap="round"/>
<path d="M65.2266 28.4691C65.2266 37.1425 57.788 43.6021 49.9844 43.6021C42.1807 43.6021 34.7422 37.1425 34.7422 28.4691C34.7422 23.9319 37.5146 18.8305 40.8818 14.352C44.2168 9.91649 47.989 6.28087 49.7073 4.70613C49.8715 4.55557 50.0972 4.55557 50.2615 4.70613C51.9798 6.28086 55.752 9.91649 59.0869 14.352C62.4542 18.8305 65.2266 23.9319 65.2266 28.4691Z" stroke="#444444" stroke-width="2"/>
<path d="M54.1084 13.5086C57.2621 12.5452 58.8322 10.7033 59.6084 7.42969C60.3846 10.7033 61.9547 12.5452 65.1084 13.5086C61.9547 14.472 60.3846 16.314 59.6084 19.5876C58.8322 16.314 57.2621 14.472 54.1084 13.5086Z" fill="white" stroke="#444444" stroke-width="2" stroke-linejoin="round"/>
<path d="M21.3262 29.0941C22.986 28.5517 23.8124 27.5148 24.2209 25.6719C24.6294 27.5148 25.4558 28.5517 27.1156 29.0941C25.4558 29.6365 24.6294 30.6734 24.2209 32.5163C23.8124 30.6734 22.986 29.6365 21.3262 29.0941Z" fill="#444444" stroke="#444444" stroke-width="0.741251" stroke-linejoin="round"/>
<path d="M69.2334 1.35156L71.0303 3.12614" stroke="#444444" stroke-width="2" stroke-linecap="round"/>
<path d="M69.2334 8.51172L71.0303 6.73714" stroke="#444444" stroke-width="2" stroke-linecap="round"/>
<path d="M76.4668 1.35156L74.6699 3.12614" stroke="#444444" stroke-width="2" stroke-linecap="round"/>
<path d="M76.4668 8.51172L74.6699 6.73714" stroke="#444444" stroke-width="2" stroke-linecap="round"/>
</svg>
