<svg width="106" height="106" viewBox="0 0 106 106" fill="none" xmlns="http://www.w3.org/2000/svg">
<circle cx="53" cy="53" r="53" fill="#FFE665"/>
<path d="M53.0116 40.1719C53.0009 40.1719 52.9903 40.1719 52.9797 40.1719C50.6362 40.1854 47.0915 41.3627 46.8057 46.1535C46.7377 47.2917 47.0309 50.2663 48.2682 52.0924C48.3982 52.3481 48.5374 52.5806 48.6707 52.8031C49.0146 53.3772 49.3184 53.8844 49.3184 54.5517C49.3184 55.5905 48.9364 55.94 48.2682 56.4827C47.1999 57.3506 46.2367 57.8015 45.1779 58.2972C44.979 58.3903 44.7768 58.485 44.5698 58.5843C42.9554 59.3591 41.5967 60.1588 41.5967 61.7799V63.3664C41.5967 64.1451 42.1887 65.1457 43.4293 65.1457L62.5712 65.1456C63.8118 65.1456 64.4038 64.145 64.4038 63.3663V61.7798C64.4038 60.1587 63.0451 59.3591 61.4306 58.5842C61.2237 58.4849 61.0215 58.3902 60.8226 58.2971C59.7638 57.8014 58.8006 57.3505 57.7322 56.4827C57.0641 55.94 56.6821 55.5905 56.6821 54.5516C56.6821 53.8843 56.9859 53.3771 57.3298 52.803C57.4631 52.5806 57.6023 52.3481 57.7322 52.0924C58.9696 50.2662 59.2628 47.2916 59.1948 46.1534C58.909 41.3626 55.3643 40.1856 53.0208 40.172C53.0177 40.172 53.0147 40.1719 53.0116 40.1719Z" fill="white" stroke="#444444" stroke-width="2"/>
<rect opacity="0.8" x="32" y="53.45" width="42" height="21" fill="url(#paint0_linear_1828_11184)" fill-opacity="0.7"/>
<path d="M33 53.45L73 53.45" stroke="#2FCAB0" stroke-width="2" stroke-linecap="round"/>
<path d="M39 33.45H35C33.8954 33.45 33 34.3454 33 35.45V39.45" stroke="#444444" stroke-width="2" stroke-linecap="round" stroke-linejoin="round"/>
<path d="M67 33.45H71C72.1046 33.45 73 34.3454 73 35.45V39.45" stroke="#444444" stroke-width="2" stroke-linecap="round" stroke-linejoin="round"/>
<path d="M67 73.45L71 73.45C72.1046 73.45 73 72.5545 73 71.45L73 67.45" stroke="#444444" stroke-width="2" stroke-linecap="round" stroke-linejoin="round"/>
<path d="M39 73.45L35 73.45C33.8954 73.45 33 72.5545 33 71.45L33 67.45" stroke="#444444" stroke-width="2" stroke-linecap="round" stroke-linejoin="round"/>
<defs>
<linearGradient id="paint0_linear_1828_11184" x1="53" y1="53.45" x2="53" y2="70.5125" gradientUnits="userSpaceOnUse">
<stop stop-color="#2FCAB0"/>
<stop offset="1" stop-color="#2FCAB0" stop-opacity="0.1"/>
</linearGradient>
</defs>
</svg>
