<svg width="24" height="24" viewBox="0 0 24 24" fill="none" xmlns="http://www.w3.org/2000/svg">
<path d="M2.8444 12.0542C2.8444 17.0858 6.92338 21.1648 11.955 21.1648C13.4536 21.1648 15.1392 20.576 16.3657 19.9523L19.7832 20.9287C20.4217 21.1111 21.012 20.5208 20.8296 19.8823L20.2687 20.0426L20.8296 19.8823L19.8531 16.4648C20.4769 15.2383 21.0657 13.5528 21.0657 12.0542C21.0657 7.0225 16.9867 2.94352 11.955 2.94352C6.92338 2.94352 2.8444 7.0225 2.8444 12.0542Z" fill="white" stroke="#222222" stroke-width="1.16667"/>
<path fill-rule="evenodd" clip-rule="evenodd" d="M12.005 21.379C7.268 21.379 3.42792 18.0189 3.42792 13.8741C3.42792 9.72921 7.268 6.36914 12.005 6.36914C16.742 6.36914 20.582 9.72921 20.582 13.8741C20.582 14.9234 20.3359 15.9224 19.8915 16.8293L19.9796 16.7607L21.4297 21.5944L16.3782 20.3315C15.0977 20.9969 13.6023 21.379 12.005 21.379Z" fill="#47BDFF"/>
<path d="M19.6687 21.3293L19.9434 20.3678L19.6687 21.3293C20.6215 21.6015 21.5024 20.7206 21.2302 19.7678L20.2687 20.0426L21.2302 19.7678L20.2983 16.5062C20.9114 15.2601 21.4824 13.5815 21.4824 12.0542C21.4824 6.79238 17.2168 2.52686 11.955 2.52686C6.69326 2.52686 2.42773 6.79238 2.42773 12.0542C2.42773 17.316 6.69326 21.5815 11.955 21.5815C13.4824 21.5815 15.1609 21.0105 16.4071 20.3974L19.6687 21.3293Z" stroke="#444444" stroke-width="2"/>
<path d="M8.16504 13.9492C8.16504 13.9492 9.11252 16.3179 11.955 16.3179C14.7974 16.3179 15.7449 13.9492 15.7449 13.9492" stroke="#444444" stroke-width="2" stroke-linecap="round"/>
</svg>
