<svg width="56" height="56" viewBox="0 0 56 56" fill="none" xmlns="http://www.w3.org/2000/svg">
<circle cx="28" cy="28" r="28" fill="#F8F8F8"/>
<path d="M33.5 19H34.75C35.3467 19 35.919 19.2341 36.341 19.6509C36.7629 20.0676 37 20.6329 37 21.2222V36.7778C37 37.3671 36.7629 37.9324 36.341 38.3491C35.919 38.7659 35.3467 39 34.75 39H21.25C20.6533 39 20.081 38.7659 19.659 38.3491C19.2371 37.9324 19 37.3671 19 36.7778V21.2222C19 20.6329 19.2371 20.0676 19.659 19.6509C20.081 19.2341 20.6533 19 21.25 19H22.5" stroke="#444444" stroke-width="2" stroke-linecap="round" stroke-linejoin="round"/>
<path d="M32.5 26.5L27 32.01L24 29.01" stroke="#444444" stroke-width="2" stroke-linecap="round" stroke-linejoin="round"/>
<path d="M31.75 17H24.25C23.5596 17 23 17.4477 23 18V21C23 21.5523 23.5596 22 24.25 22H31.75C32.4404 22 33 21.5523 33 21V18C33 17.4477 32.4404 17 31.75 17Z" stroke="#444444" stroke-width="2" stroke-linecap="round" stroke-linejoin="round"/>
</svg>
