<svg width="44" height="44" viewBox="0 0 44 44" fill="none" xmlns="http://www.w3.org/2000/svg">
<circle cx="22" cy="22" r="22" fill="white"/>
<circle cx="22" cy="21.9943" r="6.875" fill="#47BDFF"/>
<path d="M32 21.08V22C31.9988 24.1564 31.3005 26.2547 30.0093 27.9818C28.7182 29.709 26.9033 30.9725 24.8354 31.5839C22.7674 32.1953 20.5573 32.1219 18.5345 31.3746C16.5117 30.6273 14.7847 29.2461 13.611 27.4371C12.4373 25.628 11.8798 23.4881 12.0217 21.3363C12.1636 19.1846 12.9972 17.1363 14.3983 15.4971C15.7994 13.8578 17.6928 12.7154 19.7962 12.2401C21.8996 11.7649 24.1003 11.9823 26.07 12.86" stroke="#444444" stroke-width="2" stroke-linecap="round" stroke-linejoin="round"/>
<path d="M32 14L22 24.01L19 21.01" stroke="#444444" stroke-width="2" stroke-linecap="round" stroke-linejoin="round"/>
</svg>
