<svg width="56" height="56" viewBox="0 0 56 56" fill="none" xmlns="http://www.w3.org/2000/svg">
<circle cx="28" cy="28" r="28" fill="#F8F8F8"/>
<path d="M34.575 22L34.765 20.2113C34.8906 19.0298 33.9644 18 32.7762 18H20.2238C19.0356 18 18.1094 19.0298 18.235 20.2113L19.8399 35.317C20.002 36.8425 21.289 38 22.8231 38H30.1769C31.711 38 32.998 36.8425 33.1601 35.317L33.1937 35" stroke="#444444" stroke-width="2" stroke-linecap="round" stroke-linejoin="round"/>
<path d="M20 30L33 30" stroke="#444444" stroke-width="2" stroke-linecap="round"/>
<path d="M38 32.5556C38 35.1722 35.9663 37 34 37C32.0337 37 30 35.1722 30 32.5556C30 31.3877 30.585 30.012 31.4406 28.663C32.2789 27.3411 33.2925 26.1749 33.9698 25.4542C33.9796 25.4438 33.9865 25.4403 33.9896 25.439C33.9933 25.4374 33.9967 25.4368 34 25.4368C34.0033 25.4368 34.0067 25.4374 34.0104 25.439C34.0135 25.4403 34.0204 25.4438 34.0302 25.4542C34.7075 26.1749 35.7211 27.3411 36.5594 28.663C37.415 30.012 38 31.3877 38 32.5556Z" fill="#F8F8F8" stroke="#444444" stroke-width="2"/>
</svg>
