<svg width="17" height="14" viewBox="0 0 17 14" fill="none" xmlns="http://www.w3.org/2000/svg">
<path d="M2.864 6.384C2.864 4.112 4.256 2.688 6.288 2.688C8.304 2.688 9.696 4.112 9.696 6.384C9.696 8.656 8.304 10.112 6.288 10.112C4.256 10.112 2.864 8.656 2.864 6.384ZM12 6.384C12 3.04 9.472 0.672 6.288 0.672C3.136 0.672 0.56 3.04 0.56 6.384C0.56 9.744 3.136 12.112 6.288 12.112C6.784 12.112 7.28 12.048 7.728 11.936L9.424 13.968H12.208L9.648 11.088C11.072 10.08 12 8.416 12 6.384ZM16.0498 10.8C16.0498 10.064 15.4738 9.488 14.6898 9.488C13.8738 9.488 13.2978 10.064 13.2978 10.8C13.2978 11.536 13.8738 12.112 14.6898 12.112C15.4738 12.112 16.0498 11.536 16.0498 10.8Z" fill="white"/>
</svg>
