<svg width="44" height="44" viewBox="0 0 44 44" fill="none" xmlns="http://www.w3.org/2000/svg">
<circle cx="22" cy="22" r="22" fill="white"/>
<rect x="14" y="25" width="14" height="6" fill="#47BDFF"/>
<path d="M28.575 16L28.765 14.2113C28.8906 13.0298 27.9644 12 26.7762 12H14.2238C13.0356 12 12.1094 13.0298 12.235 14.2113L13.8399 29.317C14.002 30.8425 15.289 32 16.8231 32H24.1769C25.711 32 26.998 30.8425 27.1601 29.317L27.1937 29" stroke="#444444" stroke-width="2" stroke-linecap="round" stroke-linejoin="round"/>
<path d="M32 26.5556C32 29.1722 29.9663 31 28 31C26.0337 31 24 29.1722 24 26.5556C24 25.3877 24.585 24.012 25.4406 22.663C26.2789 21.3411 27.2925 20.1749 27.9698 19.4542C27.9796 19.4438 27.9865 19.4403 27.9896 19.439C27.9933 19.4374 27.9967 19.4368 28 19.4368C28.0033 19.4368 28.0067 19.4374 28.0104 19.439C28.0135 19.4403 28.0204 19.4438 28.0302 19.4542C28.7075 20.1749 29.7211 21.3411 30.5594 22.663C31.415 24.012 32 25.3877 32 26.5556Z" fill="white" stroke="#444444" stroke-width="2"/>
</svg>
