<svg width="15" height="14" viewBox="0 0 15 14" fill="none" xmlns="http://www.w3.org/2000/svg">
<path d="M5.44778 1.12132C6.18499 -0.373773 8.31501 -0.373773 9.05222 1.12132L9.73564 2.50735C10.0284 3.10105 10.5943 3.51256 11.2489 3.60776L12.7771 3.83002C14.4255 4.06977 15.0837 6.09738 13.8909 7.26114L12.7851 8.34002C12.3114 8.80215 12.0953 9.46798 12.2071 10.1205L12.4681 11.6439C12.7497 13.2872 11.0265 14.5403 9.55208 13.7645L8.18522 13.0452C7.59973 12.7371 6.90027 12.7371 6.31478 13.0452L4.94792 13.7645C3.47352 14.5403 1.75029 13.2872 2.03188 11.6439L2.29293 10.1205C2.40474 9.46798 2.1886 8.80215 1.71493 8.34002L0.609117 7.26114C-0.583704 6.09738 0.0745096 4.06977 1.72295 3.83002L3.25114 3.60776C3.90574 3.51256 4.47161 3.10105 4.76436 2.50735L5.44778 1.12132Z" fill="#FFE665"/>
<mask id="mask0_2668_20663" style="mask-type:alpha" maskUnits="userSpaceOnUse" x="0" y="0" width="15" height="14">
<path d="M5.45272 1.12132C6.19059 -0.373773 8.32254 -0.373773 9.06041 1.12132L9.74446 2.50735C10.0375 3.10105 10.6039 3.51256 11.259 3.60776L12.7886 3.83002C14.4386 4.06977 15.0974 6.09738 13.9035 7.26114L12.7967 8.34002C12.3226 8.80215 12.1062 9.46798 12.2181 10.1205L12.4794 11.6439C12.7613 13.2872 11.0365 14.5403 9.56073 13.7645L8.19263 13.0452C7.60661 12.7371 6.90652 12.7371 6.3205 13.0452L4.9524 13.7645C3.47666 14.5403 1.75188 13.2872 2.03372 11.6439L2.295 10.1205C2.40692 9.46798 2.19058 8.80215 1.71648 8.34002L0.609669 7.26114C-0.584232 6.09738 0.0745771 4.06977 1.72451 3.83002L3.25408 3.60776C3.90927 3.51256 4.47566 3.10105 4.76867 2.50735L5.45272 1.12132Z" fill="#FFE665"/>
</mask>
<g mask="url(#mask0_2668_20663)">
<path d="M7.21484 0H14.5131V14H7.21484V0Z" fill="#DDDDDD"/>
</g>
</svg>
