<svg width="48" height="67" viewBox="0 0 48 67" fill="none" xmlns="http://www.w3.org/2000/svg">
<path fill-rule="evenodd" clip-rule="evenodd" d="M8.18736 44C8.22246 48.2058 9.90384 52.2272 12.8654 55.1888C15.827 58.1503 19.829 59.812 23.9999 59.812C28.1707 59.812 32.1727 58.1503 35.1343 55.1888C38.0959 52.2272 39.7773 48.2058 39.8124 44H47C46.949 50.1176 44.5034 55.9672 40.1956 60.2749C35.8878 64.5827 30.0667 66.9997 24 66.9997C17.9333 66.9997 12.1122 64.5827 7.80442 60.2749C3.49662 55.9672 1.05096 50.1176 1 44H8.18736Z" fill="#FFE665"/>
<g clip-path="url(#clip0_2685_24275)">
<path d="M28.0065 35.991H17.5065L16.5065 38.491L19.0065 49.991H27.5065L29.5065 36.991L28.0065 35.991Z" fill="white"/>
<path d="M17.4459 42.8274H28.4295V48.3192C28.4295 49.5324 27.446 50.5159 26.2328 50.5159H19.6426C18.4294 50.5159 17.4459 49.5324 17.4459 48.3192V42.8274Z" fill="#FFE665"/>
<path d="M29.1717 38.7674L29.314 37.4283C29.408 36.5437 28.7146 35.7728 27.8251 35.7728H18.4275C17.5379 35.7728 16.8445 36.5437 16.9385 37.4283L18.1401 48.7374C18.2615 49.8795 19.225 50.7461 20.3735 50.7461H25.879C27.0276 50.7461 27.9911 49.8795 28.1124 48.7374L28.1377 48.5001" stroke="#444444" stroke-width="1.49733" stroke-linecap="round" stroke-linejoin="round"/>
<path d="M31.7361 46.6717C31.7361 48.6307 30.2136 49.9991 28.7415 49.9991C27.2694 49.9991 25.7468 48.6307 25.7468 46.6717C25.7468 45.7974 26.1848 44.7675 26.8253 43.7575C27.453 42.7679 28.2118 41.8947 28.7189 41.3552C28.7262 41.3474 28.7314 41.3448 28.7337 41.3438C28.7364 41.3426 28.739 41.3421 28.7415 41.3421C28.744 41.3421 28.7465 41.3426 28.7493 41.3438C28.7516 41.3448 28.7568 41.3474 28.7641 41.3552C29.2712 41.8947 30.03 42.7679 30.6577 43.7575C31.2982 44.7675 31.7361 45.7974 31.7361 46.6717Z" fill="#FFE665" stroke="#444444" stroke-width="1.49733"/>
</g>
<path d="M8.38253 5.435H9.31853V8.464H10.9435V1.145H9.31853V4.057H8.38253V1.366H6.78353V8.087H8.38253V5.435ZM6.77053 6.462C5.19753 5.825 4.54753 4.538 4.54753 3.251V1.86H2.89653V3.251C2.89653 4.603 2.24653 6.085 0.569531 6.813L1.47953 8.139C2.58453 7.671 3.32553 6.813 3.75453 5.799C4.18353 6.657 4.87253 7.372 5.86053 7.762L6.77053 6.462ZM6.88753 11.831C5.32753 11.831 4.46953 11.519 4.46953 10.882C4.46953 10.245 5.32753 9.933 6.88753 9.933C8.42153 9.933 9.27953 10.245 9.27953 10.882C9.27953 11.519 8.42153 11.831 6.88753 11.831ZM6.88753 8.646C4.36553 8.646 2.75353 9.491 2.75353 10.882C2.75353 12.286 4.36553 13.118 6.88753 13.118C9.39653 13.118 10.9955 12.286 10.9955 10.882C10.9955 9.491 9.39653 8.646 6.88753 8.646ZM19.5875 1.899H17.0525V1.054H15.3365V1.899H12.7885V3.03H19.5875V1.899ZM14.8945 4.824C14.8945 4.486 15.3755 4.317 16.1945 4.317C17.0135 4.317 17.4815 4.486 17.4815 4.824C17.4815 5.175 17.0135 5.357 16.1945 5.357C15.3755 5.357 14.8945 5.175 14.8945 4.824ZM19.8865 6.592C18.9765 6.696 18.0145 6.774 17.0525 6.826V6.345C18.3265 6.189 19.1065 5.643 19.1065 4.824C19.1065 3.849 17.9755 3.264 16.1945 3.264C14.4135 3.264 13.2695 3.849 13.2695 4.824C13.2695 5.643 14.0495 6.189 15.3365 6.345V6.891C14.3095 6.917 13.3475 6.917 12.4895 6.917L12.6585 8.087C14.7255 8.087 17.4945 8.061 20.0035 7.619L19.8865 6.592ZM15.7915 11.324H22.1225V8.62H14.0755V9.751H20.4325V10.271H14.0885V13.027H22.5385V11.896H15.7915V11.324ZM22.1225 3.966V1.132H20.4065V8.191H22.1225V5.37H23.6305V3.966H22.1225ZM34.8095 4.499C32.1185 4.2 30.8185 2.848 30.8185 1.639V1.275H29.0505V1.639C29.0505 2.861 27.7505 4.187 25.0595 4.499L25.6575 5.825C27.6985 5.565 29.1805 4.733 29.9345 3.589C30.7015 4.733 32.1575 5.578 34.1985 5.825L34.8095 4.499ZM32.2875 11.649H27.4905V10.609H32.2875V11.649ZM32.2875 9.322H27.4905V8.321H25.7875V12.975H33.9775V8.321H32.2875V9.322ZM24.5265 6.371V7.723H35.3425V6.371H24.5265ZM42.8165 6.28C43.0895 4.772 43.0895 3.589 43.0895 2.757V2.016H36.9405V3.381H41.3995C41.3865 4.096 41.3345 4.967 41.1395 6.085L42.8165 6.28ZM43.6095 6.761C42.4915 6.917 41.2955 7.008 40.1125 7.06V4.798H38.4355V7.125C37.6555 7.138 36.9145 7.138 36.2515 7.138L36.4075 8.503C38.4615 8.49 41.2435 8.438 43.7135 7.983L43.6095 6.761ZM39.7095 9.309H37.9935V12.91H46.3525V11.545H39.7095V9.309ZM45.9755 4.785V1.132H44.2595V10.102H45.9755V6.202H47.4055V4.785H45.9755Z" fill="#FFE665"/>
<defs>
<clipPath id="clip0_2685_24275">
<rect width="17.4695" height="17.4471" fill="white" transform="translate(15.2653 34.2764)"/>
</clipPath>
</defs>
</svg>
