<svg width="48" height="63" viewBox="0 0 48 63" fill="none" xmlns="http://www.w3.org/2000/svg">
<g opacity="0.5">
<circle cx="24" cy="43" r="20" fill="#E9F7FF"/>
<g clip-path="url(#clip0_2673_24193)">
<rect x="17.5062" y="42.9909" width="11" height="1.5" fill="#444444"/>
<path d="M29.1717 38.7674L29.314 37.4283C29.408 36.5437 28.7146 35.7728 27.8251 35.7728H18.4275C17.5379 35.7728 16.8445 36.5437 16.9385 37.4283L18.1401 48.7374C18.2615 49.8795 19.225 50.7461 20.3735 50.7461H25.879C27.0276 50.7461 27.9911 49.8795 28.1124 48.7374L28.1376 48.5001" stroke="#444444" stroke-width="1.49733" stroke-linecap="round" stroke-linejoin="round"/>
<path d="M31.7362 46.6717C31.7362 48.6307 30.2136 49.9991 28.7415 49.9991C27.2694 49.9991 25.7468 48.6307 25.7468 46.6717C25.7468 45.7974 26.1848 44.7675 26.8253 43.7575C27.453 42.7679 28.2118 41.8947 28.7189 41.3552C28.7262 41.3474 28.7314 41.3448 28.7337 41.3438C28.7365 41.3426 28.739 41.3421 28.7415 41.3421C28.744 41.3421 28.7466 41.3426 28.7493 41.3438C28.7516 41.3448 28.7568 41.3474 28.7641 41.3552C29.2712 41.8947 30.03 42.7679 30.6577 43.7575C31.2982 44.7675 31.7362 45.7974 31.7362 46.6717Z" fill="white" stroke="#444444" stroke-width="1.49733"/>
</g>
<path d="M8.26553 5.37H9.50053V8.477H10.7745V1.275H9.50053V4.278H8.26553V1.483H7.00453V8.1H8.26553V5.37ZM6.73153 6.644C5.21053 6.046 4.44353 4.759 4.44353 3.459V1.977H3.14353V3.459C3.14353 4.798 2.35053 6.267 0.777531 6.982L1.47953 8.009C2.61053 7.515 3.37753 6.605 3.80653 5.526C4.24853 6.462 4.97653 7.242 6.01653 7.645L6.73153 6.644ZM6.86153 11.974C5.21053 11.974 4.22253 11.571 4.22253 10.856C4.22253 10.128 5.21053 9.725 6.86153 9.725C8.51253 9.725 9.50053 10.128 9.50053 10.856C9.50053 11.571 8.51253 11.974 6.86153 11.974ZM6.86153 8.698C4.41753 8.698 2.88353 9.504 2.88353 10.856C2.88353 12.195 4.41753 13.001 6.86153 13.001C9.30553 13.001 10.8395 12.195 10.8395 10.856C10.8395 9.504 9.30553 8.698 6.86153 8.698ZM19.6395 2.081H16.9745V1.145H15.6225V2.081H12.9445V3.004H19.6395V2.081ZM14.7515 4.837C14.7515 4.395 15.3495 4.148 16.2855 4.148C17.2345 4.148 17.8195 4.395 17.8195 4.837C17.8195 5.292 17.2345 5.539 16.2855 5.539C15.3495 5.539 14.7515 5.292 14.7515 4.837ZM19.9645 6.696C19.0155 6.826 17.9885 6.904 16.9745 6.956V6.345C18.2875 6.215 19.0805 5.682 19.0805 4.837C19.0805 3.875 17.9885 3.303 16.2855 3.303C14.5825 3.303 13.4905 3.875 13.4905 4.837C13.4905 5.682 14.2965 6.215 15.6225 6.345V7.008C14.5435 7.034 13.5165 7.034 12.6325 7.034L12.7755 7.983C14.8165 7.983 17.5855 7.957 20.0685 7.515L19.9645 6.696ZM15.5445 11.155H21.9275V8.659H14.1925V9.569H20.6015V10.31H14.2185V12.897H22.3565V11.974H15.5445V11.155ZM21.9275 4.161V1.262H20.5885V8.165H21.9275V5.266H23.5395V4.161H21.9275ZM34.6795 4.772C32.3525 4.473 30.6235 3.186 30.6235 1.834V1.379H29.2455V1.834C29.2455 3.199 27.5425 4.473 25.1895 4.772L25.6835 5.812C27.5945 5.552 29.1805 4.668 29.9345 3.446C30.7015 4.668 32.2875 5.552 34.1985 5.812L34.6795 4.772ZM32.5475 11.792H27.2565V10.531H32.5475V11.792ZM32.5475 9.504H27.2565V8.308H25.9305V12.858H33.8865V8.308H32.5475V9.504ZM24.6175 6.514V7.58H35.2515V6.514H24.6175ZM42.7255 6.293C43.0115 4.772 43.0115 3.615 43.0115 2.822V2.146H37.1095V3.238H41.6985C41.6855 3.966 41.6465 4.889 41.4125 6.15L42.7255 6.293ZM43.7005 6.878C42.5435 7.06 41.2825 7.138 40.0605 7.19V4.824H38.7345V7.229C37.9025 7.255 37.0965 7.255 36.3945 7.255L36.5375 8.347C38.5785 8.347 41.3475 8.282 43.7915 7.853L43.7005 6.878ZM39.5145 9.296H38.1625V12.78H46.1445V11.688H39.5145V9.296ZM45.7675 4.98V1.262H44.4155V10.076H45.7675V6.085H47.3275V4.98H45.7675Z" fill="white"/>
</g>
<defs>
<clipPath id="clip0_2673_24193">
<rect width="17.4695" height="17.4471" fill="white" transform="translate(15.2653 34.2764)"/>
</clipPath>
</defs>
</svg>
