<svg width="20" height="20" viewBox="0 0 20 20" fill="none" xmlns="http://www.w3.org/2000/svg">
<path d="M10 9.47062C12.4813 9.47062 14.5 7.57056 14.5 5.23514C14.5 2.89972 12.4813 1 10 1C7.51872 1 5.5 2.90006 5.5 5.23548C5.5 7.5709 7.51872 9.47062 10 9.47062Z" fill="#999991"/>
<path d="M16.3953 12.9167C14.7241 11.4066 12.4981 10.5592 10.127 10.53C7.71778 10.5016 5.4394 11.3059 3.70936 12.7988C1.97855 14.2919 1.01656 16.2827 1.00001 18.404V18.421C0.99886 18.5752 1.0662 18.7206 1.18933 18.8301C1.31285 18.9396 1.47716 18.9999 1.65648 18.9999H18.4424C18.5921 18.9999 18.7326 18.9484 18.838 18.8548C18.9434 18.7613 19.0008 18.6372 19 18.5054C18.9838 16.4048 18.0588 14.4197 16.3953 12.9167Z" fill="#999991"/>
</svg>
