<svg width="20" height="20" viewBox="0 0 20 20" fill="none" xmlns="http://www.w3.org/2000/svg">
<g clip-path="url(#clip0_142_12992)">
<path d="M13.5175 7.58711V7.44465C13.5185 7.03316 13.5204 5.73143 13.5204 4.89724C13.5204 3.9972 13.1497 3.22326 12.4763 2.71789C11.8529 2.24988 10.9982 2.00234 10.0046 2.00234C7.86733 2.00374 6.48606 3.14152 6.48606 4.90098C6.48606 5.7291 6.4804 7.05792 6.47898 7.44559V7.58711H4.45312V7.44419C4.45549 7.06165 4.46115 5.74685 4.46115 4.90098C4.46115 2.01728 6.73918 0.00186829 9.9999 0C11.4426 0 12.7223 0.388136 13.7007 1.12237C14.8903 2.01541 15.5453 3.35591 15.5453 4.89724C15.5453 5.7305 15.5429 7.02989 15.5424 7.44512V7.58711H13.5175Z" fill="#999991"/>
<path d="M15.7182 7.30664H4.2818C3.0216 7.30664 2 8.31708 2 9.56353V17.7434C2 18.9898 3.0216 20.0002 4.2818 20.0002H15.7182C16.9784 20.0002 18 18.9898 18 17.7434V9.56353C18 8.31708 16.9784 7.30664 15.7182 7.30664Z" fill="#999991"/>
<path d="M11.731 12.9511C11.731 12.0057 10.956 11.2393 10.0002 11.2393C9.04446 11.2393 8.26953 12.0057 8.26953 12.9511C8.26953 13.611 8.65109 14.1771 9.20454 14.4625L8.89523 17.5615H11.1062L10.7969 14.4625C11.3499 14.1767 11.7319 13.6106 11.7319 12.9511H11.731Z" fill="#F9F9F7"/>
</g>
<defs>
<clipPath id="clip0_142_12992">
<rect width="16" height="20" fill="white" transform="translate(2)"/>
</clipPath>
</defs>
</svg>
