<svg width="20" height="20" viewBox="0 0 20 20" fill="none" xmlns="http://www.w3.org/2000/svg">
<path d="M14.9764 6C15.142 4.95618 14.4148 4 13.4556 4H5.54445C4.58513 4 3.85802 4.95618 4.02359 6" stroke="#FF7F32" stroke-width="2"/>
<path d="M13.9652 5C13.9883 4.58547 13.9998 4.37816 14 4.20696C14.0019 2.56915 13.3758 1.19302 12.5495 1.01827C12.4631 1 12.3574 1 12.1458 1H6.85425C6.64265 1 6.53684 1 6.45045 1.01827C5.62416 1.19302 4.99819 2.56915 5 4.20694C5.00019 4.37816 5.01171 4.58544 5.03474 5" stroke="#FF7F32" stroke-width="2"/>
<path d="M12 15H7" stroke="#FF7F32" stroke-width="2" stroke-linecap="round"/>
<path d="M2.28763 11.9815C1.95311 9.66156 1.78585 8.50161 2.49674 7.75081C3.20763 7 4.47319 7 7.0043 7H11.9957C14.5268 7 15.7924 7 16.5033 7.75081C17.2141 8.50161 17.0469 9.66156 16.7124 11.9815L16.3951 14.1815C16.1328 16.0009 16.0017 16.9105 15.3288 17.4553C14.6559 18 13.6634 18 11.6785 18H7.32152C5.33661 18 4.34415 18 3.67126 17.4553C2.99836 16.9105 2.8672 16.0009 2.60486 14.1815L2.28763 11.9815Z" stroke="#FF7F32" stroke-width="2"/>
</svg>
