<svg width="60" height="60" viewBox="0 0 60 60" fill="none" xmlns="http://www.w3.org/2000/svg">
<path d="M48.9028 17.5C49.4745 14.2381 46.9643 11.25 43.6528 11.25H16.3432C13.0316 11.25 10.5216 14.2381 11.0931 17.5" stroke="#99D6EA" stroke-width="3"/>
<path d="M43.7517 11.25C43.8227 10.6023 43.8582 10.2784 43.8587 10.0109C43.8644 7.4518 41.9367 5.3016 39.3922 5.02855C39.1262 5 38.8004 5 38.1489 5H21.8544C21.2028 5 20.877 5 20.611 5.02855C18.0665 5.3016 16.139 7.4518 16.1445 10.0109C16.1451 10.2784 16.1806 10.6023 16.2515 11.25" stroke="#99D6EA" stroke-width="3"/>
<path d="M36.453 34.0397C37.849 34.9052 37.849 37.1455 36.453 38.011L28.024 43.2362C26.6673 44.0772 25 42.9827 25 41.2507V30.7999C25 29.0682 26.6673 27.9734 28.024 28.8144L36.453 34.0397Z" stroke="white" stroke-width="3"/>
<path d="M5.95878 34.4825C4.8437 26.5735 4.28618 22.6191 6.6558 20.0596C9.02543 17.5 13.244 17.5 21.681 17.5H38.319C46.756 17.5 50.9745 17.5 53.3442 20.0596C55.7137 22.6191 55.1563 26.5735 54.0413 34.4825L52.9838 41.9825C52.1093 48.1847 51.6722 51.2858 49.4292 53.143C47.1862 55 43.878 55 37.2615 55H22.7384C16.122 55 12.8138 55 10.5709 53.143C8.32788 51.2858 7.89065 48.1847 7.0162 41.9825L5.95878 34.4825Z" stroke="#99D6EA" stroke-width="3"/>
</svg>
