<svg width="60" height="60" viewBox="0 0 60 60" fill="none" xmlns="http://www.w3.org/2000/svg">
<path d="M50.7648 39.0357H10.2353M50.7648 39.0357V19.0882C50.7648 14.0969 50.7648 11.6012 49.2124 10.0506C47.6601 8.5 45.1617 8.5 40.1648 8.5H20.8353C15.8384 8.5 13.34 8.5 11.7876 10.0506C10.2353 11.6012 10.2353 14.0969 10.2353 19.0882V39.0357M50.7648 39.0357L55.3864 43.8006C55.5043 43.9224 55.5634 43.9833 55.6186 44.0436C56.4695 44.977 56.9584 46.183 56.9974 47.4446C57 47.5264 57 47.6111 57 47.7805C57 48.1754 57 48.3729 56.9894 48.5397C56.8211 51.2008 54.6982 53.3213 52.0342 53.4894C51.8672 53.5 51.6695 53.5 51.2741 53.5H9.7258C9.33042 53.5 9.13273 53.5 8.96578 53.4894C6.30192 53.3213 4.17885 51.2008 4.01055 48.5397C4 48.3729 4 48.1754 4 47.7805C4 47.6111 4 47.5264 4.00254 47.4446C4.04158 46.183 4.53058 44.977 5.38137 44.0436C5.43651 43.9833 5.49561 43.9224 5.61353 43.8006L10.2353 39.0357" stroke="#FFC56E" stroke-width="3" stroke-linecap="round"/>
<path d="M23.75 46.25H36.25" stroke="white" stroke-width="3" stroke-linecap="round"/>
<path d="M36.453 22.0143C37.849 22.8798 37.849 25.1201 36.453 25.9856L28.024 31.2108C26.6673 32.0518 25 30.9573 25 29.2253V18.7746C25 17.0428 26.6673 15.9481 28.024 16.7891L36.453 22.0143Z" stroke="white" stroke-width="3"/>
</svg>
