<svg width="20" height="20" viewBox="0 0 20 20" fill="none" xmlns="http://www.w3.org/2000/svg">
<g clip-path="url(#clip0_39_1092)">
<path d="M9.99996 20C15.4607 20 20 15.4706 20 10C20 4.53922 15.4509 0 9.99017 0C4.51956 0 0 4.53922 0 10C0 15.4706 4.52939 20 9.99996 20ZM9.99996 18.3333C5.37252 18.3333 1.67642 14.6274 1.67642 10C1.67642 5.38235 5.36273 1.66667 9.99017 1.66667C14.6078 1.66667 18.3235 5.38235 18.3333 10C18.3432 14.6274 14.6176 18.3333 9.99996 18.3333ZM9.99996 9.45098C11.4215 9.46077 12.5588 8.24511 12.5588 6.64708C12.5588 5.15688 11.4215 3.91177 9.99996 3.91177C8.57837 3.91177 7.44113 5.15688 7.44113 6.64708C7.44113 8.24511 8.57837 9.44119 9.99996 9.45098ZM5.43133 15.0098H14.5588C14.9509 15.0098 15.147 14.7451 15.147 14.3921C15.147 13.2941 13.5 10.4608 9.99996 10.4608C6.49996 10.4608 4.8529 13.2941 4.8529 14.3921C4.8529 14.7451 5.049 15.0098 5.43133 15.0098Z" fill="white"/>
</g>
<defs>
<clipPath id="clip0_39_1092">
<rect width="20" height="20" fill="white"/>
</clipPath>
</defs>
</svg>
