<svg width="20" height="20" viewBox="0 0 20 20" fill="none" xmlns="http://www.w3.org/2000/svg">
<path d="M18.6958 4.07337L15.9266 1.30414C15.7318 1.1094 15.4677 1 15.1923 1C14.9169 1 14.6527 1.1094 14.458 1.30414L6.1503 9.61184C5.95557 9.8066 5.84616 10.0707 5.84615 10.3461V13.1154C5.84615 13.3908 5.95557 13.6549 6.15031 13.8497C6.34506 14.0444 6.60919 14.1538 6.88461 14.1538H9.65384C9.79021 14.1538 9.92525 14.127 10.0512 14.0748C10.1772 14.0226 10.2917 13.9461 10.3881 13.8497L18.6958 5.54199C18.7923 5.44557 18.8688 5.33109 18.9209 5.20509C18.9731 5.0791 19 4.94406 19 4.80768C19 4.67131 18.9731 4.53627 18.9209 4.41028C18.8688 4.28428 18.7923 4.1698 18.6958 4.07337ZM15.1923 3.50705L16.4929 4.80768L15.5384 5.76214L14.2378 4.46153L15.1923 3.50705ZM9.22368 12.0769H7.92307V10.7763L12.7692 5.93015L14.0698 7.23076L9.22368 12.0769ZM18.3077 10.3953V17.2692C18.3072 17.7281 18.1246 18.168 17.8002 18.4925C17.4757 18.817 17.0358 18.9995 16.5769 19H2.73077C2.2719 18.9995 1.83197 18.817 1.5075 18.4925C1.18303 18.168 1.00052 17.7281 1 17.2692V3.42307C1.00051 2.9642 1.18303 2.52427 1.5075 2.1998C1.83197 1.87533 2.2719 1.69281 2.73077 1.6923H9.60465C9.88007 1.6923 10.1442 1.80171 10.339 1.99646C10.5337 2.19121 10.6431 2.45534 10.6431 2.73076C10.6431 3.00618 10.5337 3.27031 10.339 3.46506C10.1442 3.65981 9.88007 3.76922 9.60465 3.76922H3.07692V16.9231H16.2308V10.3953C16.2308 10.1199 16.3402 9.85578 16.5349 9.66103C16.7297 9.46628 16.9938 9.35687 17.2692 9.35687C17.5446 9.35687 17.8088 9.46628 18.0035 9.66103C18.1983 9.85578 18.3077 10.1199 18.3077 10.3953Z" fill="white"/>
</svg>
