<svg width="36" height="36" viewBox="0 0 36 36" fill="none" xmlns="http://www.w3.org/2000/svg">
<rect x="4.25" y="7.33301" width="17.7033" height="27.305" rx="2.25" fill="white" stroke="#444444" stroke-width="1.5"/>
<rect x="6.32422" y="11.6661" width="13.5553" height="20.8978" rx="1.33333" fill="#EEEEEE"/>
<path d="M11.6875 9.97168H14.5115" stroke="#444444" stroke-width="1.5" stroke-linecap="round"/>
<circle cx="20.1301" cy="22.2945" r="9.16527" fill="#FFE665"/>
<g clip-path="url(#clip0_5028_22698)">
<path d="M25.1012 25.1495C25.1012 25.3907 25.0071 25.6219 24.8397 25.7924C24.6723 25.963 24.4452 26.0588 24.2085 26.0588H16.174C15.9372 26.0588 15.7101 25.963 15.5427 25.7924C15.3753 25.6219 15.2812 25.3907 15.2812 25.1495V20.1486C15.2812 19.9075 15.3753 19.6762 15.5427 19.5057C15.7101 19.3352 15.9372 19.2394 16.174 19.2394H17.9594L18.4574 18.4786C18.7037 18.1023 19.1232 17.8755 19.573 17.8755H20.8095C21.2593 17.8755 21.6787 18.1023 21.9251 18.4786L22.423 19.2394H24.2085C24.4452 19.2394 24.6723 19.3352 24.8397 19.5057C25.0071 19.6762 25.1012 19.9075 25.1012 20.1486V25.1495Z" fill="#444444"/>
<path d="M21.7917 22.3763C21.7917 23.2607 21.0748 23.9776 20.1903 23.9776C19.3059 23.9776 18.589 23.2607 18.589 22.3763C18.589 21.4918 19.3059 20.7749 20.1903 20.7749C21.0748 20.7749 21.7917 21.4918 21.7917 22.3763Z" stroke="#FFE665" stroke-width="0.888886" stroke-linecap="round" stroke-linejoin="round"/>
</g>
<path d="M30.6717 3.28128C29.4397 3.28128 28.4399 4.27633 28.4399 5.50238C28.4399 6.72843 29.4397 7.72348 30.6717 7.72348C31.9036 7.72348 32.9035 6.72843 32.9035 5.50238C32.9035 4.27633 31.9036 3.28128 30.6717 3.28128ZM26.2081 5.9466H27.1008C27.3463 5.9466 27.5472 5.7467 27.5472 5.50238C27.5472 5.25806 27.3463 5.05816 27.1008 5.05816H26.2081C25.9626 5.05816 25.7617 5.25806 25.7617 5.50238C25.7617 5.7467 25.9626 5.9466 26.2081 5.9466ZM34.2426 5.9466H35.1353C35.3808 5.9466 35.5816 5.7467 35.5816 5.50238C35.5816 5.25806 35.3808 5.05816 35.1353 5.05816H34.2426C33.9971 5.05816 33.7962 5.25806 33.7962 5.50238C33.7962 5.7467 33.9971 5.9466 34.2426 5.9466ZM30.2253 1.06019V1.94863C30.2253 2.19295 30.4262 2.39284 30.6717 2.39284C30.9172 2.39284 31.118 2.19295 31.118 1.94863V1.06019C31.118 0.815866 30.9172 0.615967 30.6717 0.615967C30.4262 0.615967 30.2253 0.815866 30.2253 1.06019ZM30.2253 9.05614V9.94457C30.2253 10.1889 30.4262 10.3888 30.6717 10.3888C30.9172 10.3888 31.118 10.1889 31.118 9.94457V9.05614C31.118 8.81182 30.9172 8.61192 30.6717 8.61192C30.4262 8.61192 30.2253 8.81182 30.2253 9.05614ZM27.9891 2.20627C27.815 2.03303 27.5293 2.03303 27.3597 2.20627C27.1856 2.37952 27.1856 2.66382 27.3597 2.83262L27.8328 3.30349C28.0069 3.47674 28.2926 3.47674 28.4622 3.30349C28.6318 3.13025 28.6363 2.84595 28.4622 2.67714L27.9891 2.20627ZM33.5105 7.70127C33.3365 7.52802 33.0508 7.52802 32.8812 7.70127C32.7071 7.87451 32.7071 8.15881 32.8812 8.32762L33.3543 8.79849C33.5284 8.97173 33.8141 8.97173 33.9837 8.79849C34.1578 8.62524 34.1578 8.34094 33.9837 8.17214L33.5105 7.70127ZM33.9837 2.83262C34.1578 2.65938 34.1578 2.37508 33.9837 2.20627C33.8096 2.03303 33.5239 2.03303 33.3543 2.20627L32.8812 2.67714C32.7071 2.85039 32.7071 3.13469 32.8812 3.30349C33.0552 3.4723 33.3409 3.47674 33.5105 3.30349L33.9837 2.83262ZM28.4622 8.32762C28.6363 8.15437 28.6363 7.87007 28.4622 7.70127C28.2881 7.52802 28.0024 7.52802 27.8328 7.70127L27.3597 8.17214C27.1856 8.34538 27.1856 8.62969 27.3597 8.79849C27.5338 8.96729 27.8194 8.97173 27.9891 8.79849L28.4622 8.32762Z" fill="#444444"/>
<defs>
<clipPath id="clip0_5028_22698">
<rect width="9.81993" height="9.81993" fill="white" transform="translate(15.2812 17.0574)"/>
</clipPath>
</defs>
</svg>
