<svg width="24" height="24" viewBox="0 0 24 24" fill="none" xmlns="http://www.w3.org/2000/svg">
<path d="M16 15H15C14.45 15 14 15.45 14 16V17C14 17.55 14.45 18 15 18H16C16.55 18 17 17.55 17 17V16C17 15.45 16.55 15 16 15ZM16 3V4H8V3C8 2.45 7.55 2 7 2C6.45 2 6 2.45 6 3V4H5C3.89 4 3.01 4.9 3.01 6L3 20C3 21.1 3.89 22 5 22H19C20.1 22 21 21.1 21 20V6C21 4.9 20.1 4 19 4H18V3C18 2.45 17.55 2 17 2C16.45 2 16 2.45 16 3ZM18 20H6C5.45 20 5 19.55 5 19V6H19V19C19 19.55 18.55 20 18 20Z" fill="#444444"/>
</svg>
