<svg width="36" height="36" viewBox="0 0 36 36" fill="none" xmlns="http://www.w3.org/2000/svg">
<rect width="36" height="36" fill="white"/>
<path d="M27.2856 20.222C27.2856 25.9513 22.4308 30.2128 17.357 30.2128C12.2833 30.2128 7.42847 25.9513 7.42847 20.222C7.42847 17.2788 9.18954 13.9249 11.4083 10.9118C13.5971 7.93945 16.0949 5.47856 17.3013 4.35225C17.3225 4.33249 17.3416 4.32766 17.357 4.32766C17.3725 4.32766 17.3916 4.33249 17.4128 4.35225C18.6192 5.47856 21.117 7.93945 23.3057 10.9118C25.5245 13.9249 27.2856 17.2788 27.2856 20.222Z" stroke="#888888" stroke-width="2"/>
<path d="M23.1428 20.9355C22.8213 21.9632 21.5999 24.1728 19.2856 24.7894" stroke="#888888" stroke-width="2" stroke-linecap="round"/>
</svg>
