<svg width="36" height="36" viewBox="0 0 36 36" fill="none" xmlns="http://www.w3.org/2000/svg">
<path d="M10.5 17.4095C10.5 13.0017 14.0865 9.41699 18.5 9.41699C22.9135 9.41699 26.5 13.0017 26.5 17.4095C26.5 21.8173 22.9135 25.402 18.5 25.402C14.0865 25.402 10.5 21.8173 10.5 17.4095Z" stroke="#888888" stroke-width="2"/>
<path d="M5.015 15.9106H3.485C2.66 15.9106 2 16.5701 2 17.3944V17.4094C2 18.2337 2.66 18.8931 3.485 18.8931H5C5.84 18.9081 6.5 18.2487 6.5 17.4243V17.4094C6.5 16.5701 5.84 15.9106 5.015 15.9106ZM18.515 0.998047H18.5C17.66 0.998047 17 1.6575 17 2.48181V3.92061C17 4.74492 17.66 5.40437 18.485 5.40437H18.5C19.34 5.41936 20 4.75991 20 3.9356V2.48181C20 1.6575 19.34 0.998047 18.515 0.998047ZM30.125 5.80904C29.54 5.22452 28.595 5.22452 28.01 5.79405L27.425 6.37856C26.84 6.96307 26.84 7.90728 27.425 8.47681L27.44 8.4918C28.025 9.07631 28.97 9.07631 29.54 8.4918L30.125 7.90728C30.71 7.32277 30.71 6.39355 30.125 5.80904ZM30.5 17.3944V17.4094C30.5 18.2337 31.16 18.8931 31.985 18.8931H33.5C34.325 18.8931 34.985 18.2337 34.985 17.4094V17.3944C34.985 16.5701 34.325 15.9106 33.5 15.9106H31.985C31.16 15.9106 30.5 16.5701 30.5 17.3944ZM18.485 33.8207H18.5C19.325 33.8207 19.985 33.1612 19.985 32.3369V30.8981C19.985 30.0738 19.325 29.4144 18.5 29.4144H18.485C17.66 29.4144 17 30.0738 17 30.8981V32.3369C17 33.1612 17.66 33.8207 18.485 33.8207ZM6.875 29.0097C7.46 29.5942 8.405 29.5942 8.99 29.0097L9.575 28.4252C10.16 27.8407 10.145 26.8965 9.575 26.3269L9.56 26.3119C8.975 25.7274 8.03 25.7274 7.445 26.3119L6.86 26.8965C6.29 27.496 6.29 28.4252 6.875 29.0097Z" stroke="#888888" stroke-width="1.5"/>
<line x1="8.47487" y1="8.00488" x2="28.6274" y2="28.1574" stroke="white" stroke-width="3.5" stroke-linecap="round"/>
<path d="M6.53027 7.47461L29.1577 30.102" stroke="#888888" stroke-width="2" stroke-linecap="round"/>
</svg>
