<svg width="20" height="20" viewBox="0 0 20 20" fill="none" xmlns="http://www.w3.org/2000/svg">
<path d="M3.80851 7.31579L2 6V14L2.7234 14.2632L3.80851 15.4211H4.89362L5.61702 14.8421L6.15995 14.2632L7.06383 14.1053H7.78723L8.51064 14.6842L9.23404 14.8421L9.95745 15.4211H11.0426L11.5 14.6842L12.4894 14.1053H13.5745L14.2979 14.6842L15.383 15.4211L16.4681 15L17.5 14.5L17.9149 14.1053L18 13.5V6L17.5 6.5L16.8298 7.31579H16.1064H15.383L14.2979 6.57895L13.5745 6H12.8511L12 6.5L11.0426 7.31579H10.3191L9.23404 6.73684L7.78723 6H6.70213L5.61702 6.73684L4.53191 7.31579H3.80851Z" fill="#FFE665"/>
<path d="M15.7148 7.70904C14.9074 7.70904 14.4888 7.26341 14.1192 6.87006C13.7763 6.50473 13.4787 6.18882 12.8575 6.18882C12.2362 6.18882 11.9396 6.50473 11.5961 6.87006C11.2265 7.26341 10.8075 7.70904 10.0004 7.70904C9.19334 7.70904 8.77437 7.26341 8.40477 6.87006C8.06192 6.50473 7.76466 6.18882 7.1434 6.18882C6.52214 6.18882 6.22557 6.50473 5.88203 6.87006C5.51277 7.26341 5.09346 7.70904 4.28637 7.70904C3.47929 7.70904 3.06032 7.26341 2.69106 6.87006C2.42585 6.58746 2.18771 6.33444 1.80606 6.23433C1.60303 6.18107 1.42969 6.01866 1.42969 5.80876C1.42969 5.59887 1.60178 5.42356 1.80763 5.46454C2.3773 5.57793 2.71819 5.94077 3.025 6.2672C3.36786 6.633 3.66546 6.94893 4.28637 6.94893C4.90729 6.94893 5.2042 6.633 5.54774 6.2672C5.91734 5.87432 6.33632 5.42871 7.1434 5.42871C7.95049 5.42871 8.36946 5.87432 8.73906 6.2672C9.08192 6.633 9.37917 6.94893 10.0004 6.94893C10.6217 6.94893 10.9183 6.633 11.2618 6.2672C11.6314 5.87432 12.0504 5.42871 12.8575 5.42871C13.6645 5.42871 14.0839 5.87432 14.4535 6.2672C14.7963 6.633 15.0939 6.94893 15.7148 6.94893C16.3357 6.94893 16.633 6.633 16.9765 6.2672C17.2836 5.94076 17.6248 5.57792 18.1946 5.46453C18.4005 5.42357 18.5725 5.59887 18.5725 5.80876C18.5725 6.01866 18.3992 6.18106 18.1962 6.2343C17.8145 6.33439 17.5766 6.58744 17.3108 6.87006C16.9412 7.26341 16.5226 7.70904 15.7148 7.70904Z" fill="#444444" stroke="#444444" stroke-width="0.375"/>
<path d="M15.7148 15.709C14.9074 15.709 14.4888 15.2634 14.1192 14.8701C13.7763 14.5047 13.4787 14.1888 12.8575 14.1888C12.2362 14.1888 11.9396 14.5047 11.5961 14.8701C11.2265 15.2634 10.8075 15.709 10.0004 15.709C9.19334 15.709 8.77437 15.2634 8.40477 14.8701C8.06192 14.5047 7.76466 14.1888 7.1434 14.1888C6.52214 14.1888 6.22557 14.5047 5.88203 14.8701C5.51277 15.2634 5.09346 15.709 4.28637 15.709C3.47929 15.709 3.06032 15.2634 2.69106 14.8701C2.42585 14.5875 2.18771 14.3344 1.80606 14.2343C1.60303 14.1811 1.42969 14.0187 1.42969 13.8088C1.42969 13.5989 1.60178 13.4236 1.80763 13.4645C2.3773 13.5779 2.71819 13.9408 3.025 14.2672C3.36786 14.633 3.66546 14.9489 4.28637 14.9489C4.90729 14.9489 5.2042 14.633 5.54774 14.2672C5.91734 13.8743 6.33632 13.4287 7.1434 13.4287C7.95049 13.4287 8.36946 13.8743 8.73906 14.2672C9.08192 14.633 9.37917 14.9489 10.0004 14.9489C10.6217 14.9489 10.9183 14.633 11.2618 14.2672C11.6314 13.8743 12.0504 13.4287 12.8575 13.4287C13.6645 13.4287 14.0839 13.8743 14.4535 14.2672C14.7963 14.633 15.0939 14.9489 15.7148 14.9489C16.3357 14.9489 16.633 14.633 16.9765 14.2672C17.2836 13.9408 17.6248 13.5779 18.1946 13.4645C18.4005 13.4236 18.5725 13.5989 18.5725 13.8088C18.5725 14.0187 18.3992 14.1811 18.1962 14.2343C17.8145 14.3344 17.5766 14.5874 17.3108 14.8701C16.9412 15.2634 16.5226 15.709 15.7148 15.709Z" fill="#444444" stroke="#444444" stroke-width="0.375"/>
</svg>
