<svg width="36" height="36" viewBox="0 0 36 36" fill="none" xmlns="http://www.w3.org/2000/svg">
<path d="M18.0109 7.3775C18.0024 7.37746 17.9939 7.37744 17.9854 7.37744C16.1106 7.38829 13.2748 8.3301 13.0462 12.1628C12.9918 13.0733 13.2263 15.4531 14.2162 16.914C14.3202 17.1186 14.4316 17.3045 14.5382 17.4825C14.8133 17.9418 15.0563 18.3476 15.0563 18.8814C15.0563 19.7125 14.7507 19.9921 14.2162 20.4263C13.3615 21.1206 12.591 21.4813 11.7439 21.8779C11.5848 21.9523 11.423 22.0281 11.2575 22.1075C9.96586 22.7274 8.87892 23.3671 8.87891 24.664V25.9332C8.87891 26.5562 9.35254 27.3567 10.345 27.3567L25.6587 27.3566C26.6512 27.3566 27.1248 26.5561 27.1248 25.9332V24.664C27.1248 23.3671 26.0378 22.7273 24.7462 22.1075C24.5807 22.028 24.4189 21.9523 24.2598 21.8778C23.4127 21.4812 22.6422 21.1205 21.7875 20.4262C21.253 19.992 20.9474 19.7124 20.9474 18.8813C20.9474 18.3475 21.1904 17.9417 21.4655 17.4824C21.5721 17.3045 21.6835 17.1185 21.7875 16.9139C22.7773 15.453 23.0119 13.0733 22.9575 12.1627C22.7289 8.33005 19.8931 7.38838 18.0183 7.37754C18.0158 7.37754 18.0134 7.3775 18.0109 7.3775Z" fill="white" stroke="#444444" stroke-width="1.5"/>
<path d="M21.6244 12.9735C21.6244 15.6465 19.9893 18.438 17.9723 18.438C15.9554 18.438 14.3203 15.6465 14.3203 12.9735C14.3203 10.3004 15.9554 8.75793 17.9723 8.75793C19.9893 8.75793 21.6244 10.3004 21.6244 12.9735Z" fill="#FFE665"/>
<path d="M6.80005 2H5C3.34314 2 2 3.34315 2 5V6.80005" stroke="#444444" stroke-width="1.5" stroke-linecap="round" stroke-linejoin="round"/>
<path d="M29.2 2H31C32.6569 2 34 3.34315 34 5V6.80005" stroke="#444444" stroke-width="1.5" stroke-linecap="round" stroke-linejoin="round"/>
<path d="M29.2 33.9998L31 33.9998C32.6569 33.9998 34 32.6566 34 30.9998L34 29.1997" stroke="#444444" stroke-width="1.5" stroke-linecap="round" stroke-linejoin="round"/>
<path d="M6.80005 33.9998L5 33.9998C3.34314 33.9998 2 32.6566 2 30.9998L2 29.1997" stroke="#444444" stroke-width="1.5" stroke-linecap="round" stroke-linejoin="round"/>
</svg>
