<svg width="36" height="36" viewBox="0 0 36 36" fill="none" xmlns="http://www.w3.org/2000/svg">
<rect width="36" height="36" fill="white"/>
<path d="M9.5 17.4046C9.5 12.9968 13.0865 9.41211 17.5 9.41211C21.9135 9.41211 25.5 12.9968 25.5 17.4046C25.5 21.8124 21.9135 25.3971 17.5 25.3971C13.0865 25.3971 9.5 21.8124 9.5 17.4046Z" stroke="#888888" stroke-width="2"/>
<path d="M8.575 6.3727L7.99 5.78819C7.405 5.20368 6.46 5.21866 5.89 5.78819L5.875 5.80318C5.29 6.38769 5.29 7.3319 5.875 7.90143L6.46 8.48594C7.045 9.07045 7.975 9.07045 8.56 8.48594L8.575 8.47095C9.16 7.90143 9.16 6.94223 8.575 6.3727ZM4.015 15.9048H2.485C1.66 15.9048 1 16.5642 1 17.3885V17.4035C1 18.2278 1.66 18.8873 2.485 18.8873H4C4.84 18.9023 5.5 18.2428 5.5 17.4185V17.4035C5.5 16.5642 4.84 15.9048 4.015 15.9048ZM17.515 0.992188H17.5C16.66 0.992188 16 1.65164 16 2.47595V3.91475C16 4.73906 16.66 5.39851 17.485 5.39851H17.5C18.34 5.4135 19 4.75405 19 3.92974V2.47595C19 1.65164 18.34 0.992188 17.515 0.992188ZM29.125 5.80318C28.54 5.21866 27.595 5.21866 27.01 5.78819L26.425 6.3727C25.84 6.95721 25.84 7.90143 26.425 8.47095L26.44 8.48594C27.025 9.07045 27.97 9.07045 28.54 8.48594L29.125 7.90143C29.71 7.31691 29.71 6.38769 29.125 5.80318ZM26.41 28.4343L26.995 29.0188C27.58 29.6033 28.525 29.6033 29.11 29.0188C29.695 28.4343 29.695 27.4901 29.11 26.9056L28.525 26.3211C27.94 25.7366 26.995 25.7515 26.425 26.3211C25.825 26.9206 25.825 27.8498 26.41 28.4343ZM29.5 17.3885V17.4035C29.5 18.2278 30.16 18.8873 30.985 18.8873H32.5C33.325 18.8873 33.985 18.2278 33.985 17.4035V17.3885C33.985 16.5642 33.325 15.9048 32.5 15.9048H30.985C30.16 15.9048 29.5 16.5642 29.5 17.3885ZM17.485 33.8148H17.5C18.325 33.8148 18.985 33.1554 18.985 32.3311V30.8923C18.985 30.0679 18.325 29.4085 17.5 29.4085H17.485C16.66 29.4085 16 30.0679 16 30.8923V32.3311C16 33.1554 16.66 33.8148 17.485 33.8148ZM5.875 29.0038C6.46 29.5883 7.405 29.5883 7.99 29.0038L8.575 28.4193C9.16 27.8348 9.145 26.8906 8.575 26.3211L8.56 26.3061C7.975 25.7216 7.03 25.7216 6.445 26.3061L5.86 26.8906C5.29 27.4901 5.29 28.4193 5.875 29.0038Z" stroke="#888888" stroke-width="1.5"/>
</svg>
