<svg width="54" height="54" viewBox="0 0 54 54" fill="none" xmlns="http://www.w3.org/2000/svg">
<circle cx="27" cy="27" r="26" fill="#2FCAB0" stroke="#2FCAB0" stroke-width="2"/>
<path d="M32.5 18H33.75C34.3467 18 34.919 18.2341 35.341 18.6509C35.7629 19.0676 36 19.6329 36 20.2222V35.7778C36 36.3671 35.7629 36.9324 35.341 37.3491C34.919 37.7659 34.3467 38 33.75 38H20.25C19.6533 38 19.081 37.7659 18.659 37.3491C18.2371 36.9324 18 36.3671 18 35.7778V20.2222C18 19.6329 18.2371 19.0676 18.659 18.6509C19.081 18.2341 19.6533 18 20.25 18H21.5" fill="white"/>
<rect x="19" y="30" width="16" height="8" fill="#FFE665"/>
<path d="M32.5 18H33.75C34.3467 18 34.919 18.2341 35.341 18.6509C35.7629 19.0676 36 19.6329 36 20.2222V35.7778C36 36.3671 35.7629 36.9324 35.341 37.3491C34.919 37.7659 34.3467 38 33.75 38H20.25C19.6533 38 19.081 37.7659 18.659 37.3491C18.2371 36.9324 18 36.3671 18 35.7778V20.2222C18 19.6329 18.2371 19.0676 18.659 18.6509C19.081 18.2341 19.6533 18 20.25 18H21.5" stroke="#444444" stroke-width="2" stroke-linecap="round" stroke-linejoin="round"/>
<path d="M31.5 25.5L26 31.01L23 28.01" stroke="#444444" stroke-width="2" stroke-linecap="round" stroke-linejoin="round"/>
<path d="M30.75 16H23.25C22.5596 16 22 16.4477 22 17V20C22 20.5523 22.5596 21 23.25 21H30.75C31.4404 21 32 20.5523 32 20V17C32 16.4477 31.4404 16 30.75 16Z" fill="white" stroke="#444444" stroke-width="2" stroke-linecap="round" stroke-linejoin="round"/>
</svg>
