<svg width="42" height="40" viewBox="0 0 42 40" fill="none" xmlns="http://www.w3.org/2000/svg">
<path d="M16 20.714C16 23.5711 13.619 24.7616 12.4286 24.9997H1V29.2854C1.2381 28.3331 2.14286 27.1426 3.85714 29.9997C5.57143 32.8569 8.38095 32.1426 9.57143 31.4283C11 29.7616 14.5714 27.1426 17.4286 29.9997C20.2857 32.8569 22.4286 32.1426 23.1429 31.4283C24.5714 29.9997 28 27.714 30.2857 29.9997C33.1429 32.8569 36.7143 32.1426 37.4286 30.714C38 29.5711 40.2857 29.2854 41 29.2854V24.2854C40.5238 24.2854 37.7143 24.4283 33.1429 24.9997C28.5714 25.5711 26.4762 22.8568 26 21.4283C22.4286 8.57112 16 17.1425 16 20.714Z" fill="white"/>
<path d="M41 24.6904C41 25.1256 40.6472 25.4784 40.212 25.4784H30.0654C27.9493 25.4784 26.0605 23.6976 25.4725 21.1445C24.6989 17.7956 22.9436 15.6228 21.0004 15.6228C19.0572 15.6228 17.3011 17.7897 16.5275 21.1445C15.9395 23.6946 14.0475 25.4784 11.9346 25.4784H1.78797C1.35279 25.4784 1 25.1256 1 24.6904C1 24.2552 1.35279 23.9024 1.78797 23.9024H11.9346C13.5058 23.9024 14.8571 22.622 15.2947 20.717C16.2291 16.6669 18.4676 14.0498 20.9988 14.0498C23.5301 14.0498 25.7677 16.6669 26.7021 20.717C27.1413 22.622 28.4925 23.9024 30.0622 23.9024H40.212C40.6472 23.9024 41 24.2552 41 24.6904Z" fill="#444444" stroke="#444444" stroke-width="0.75"/>
<path d="M34.332 32.6187C32.448 32.6187 31.4712 31.7812 30.6088 31.0419C29.8088 30.3553 29.1144 29.7616 27.6648 29.7616C26.2152 29.7616 25.5232 30.3553 24.7216 31.0419C23.8592 31.7812 22.8816 32.6187 20.9984 32.6187C19.1152 32.6187 18.1376 31.7812 17.2752 31.0419C16.4752 30.3553 15.7816 29.7616 14.332 29.7616C12.8824 29.7616 12.1904 30.3553 11.3888 31.0419C10.5272 31.7812 9.5488 32.6187 7.6656 32.6187C5.7824 32.6187 4.8048 31.7812 3.9432 31.0419C3.28669 30.4785 2.7013 29.9776 1.71174 29.816C1.32241 29.7524 1 29.4418 1 29.0473C1 28.6528 1.32157 28.3269 1.71297 28.3762C3.14471 28.5565 3.9767 29.2698 4.7224 29.9089C5.5224 30.5964 6.2168 31.1902 7.6656 31.1902C9.1144 31.1902 9.8072 30.5964 10.6088 29.9089C11.4712 29.1705 12.4488 28.333 14.332 28.333C16.2152 28.333 17.1928 29.1705 18.0552 29.9089C18.8552 30.5964 19.5488 31.1902 20.9984 31.1902C22.448 31.1902 23.14 30.5964 23.9416 29.9089C24.804 29.1705 25.7816 28.333 27.6648 28.333C29.548 28.333 30.5264 29.1705 31.3888 29.9089C32.1888 30.5964 32.8832 31.1902 34.332 31.1902C35.7808 31.1902 36.4744 30.5964 37.276 29.9089C38.0224 29.2698 38.8551 28.5565 40.287 28.3762C40.6784 28.3269 41 28.6528 41 29.0473C41 29.4418 40.6776 29.7524 40.2882 29.816C39.2985 29.9775 38.7139 30.4784 38.056 31.0419C37.1936 31.7812 36.2168 32.6187 34.332 32.6187Z" fill="#444444" stroke="#444444" stroke-width="0.75"/>
<path d="M21.4562 10.6475V6.48105C21.4562 6.05735 21.1128 5.71387 20.6891 5.71387C20.2654 5.71387 19.9219 6.05735 19.9219 6.48105V10.6475C19.9219 11.0712 20.2654 11.4147 20.6891 11.4147C21.1128 11.4147 21.4562 11.0712 21.4562 10.6475Z" fill="#444444" stroke="#444444" stroke-width="0.75"/>
<path d="M14.0915 12.7478L11.1079 9.79162C10.8083 9.49478 10.3225 9.49478 10.0229 9.79162C9.72334 10.0885 9.72335 10.5697 10.0229 10.8666L13.0066 13.8227C13.3062 14.1195 13.7919 14.1195 14.0915 13.8227C14.3911 13.5259 14.3911 13.0446 14.0915 12.7478Z" fill="#444444" stroke="#444444" stroke-width="0.75"/>
<path d="M30.2683 9.79448L27.2847 12.7506C26.9851 13.0474 26.9851 13.5287 27.2847 13.8256C27.5843 14.1224 28.07 14.1224 28.3696 13.8256L31.3532 10.8694C31.6528 10.5726 31.6528 10.0913 31.3532 9.79448C31.0536 9.49764 30.5679 9.49764 30.2683 9.79448Z" fill="#444444" stroke="#444444" stroke-width="0.75"/>
<circle cx="20.9987" cy="21.3337" r="2.66667" fill="#FFE665"/>
</svg>
