<svg width="36" height="36" viewBox="0 0 36 36" fill="none" xmlns="http://www.w3.org/2000/svg">
<path d="M30.8252 18.3539C30.6925 26.494 24.7492 34.6603 17.9038 34.5556C11.0319 34.4247 5.35399 26.1014 5.48665 17.9613C5.61932 9.82118 11.5095 4.24612 18.3814 4.35082C25.2533 4.45551 30.9313 10.2138 30.8252 18.3539Z" fill="white"/>
<path d="M18.0121 35.0002C17.959 35.0002 17.9325 35.0002 17.8794 35.0002C14.5098 34.9478 11.1667 32.9586 8.67262 29.5298C6.2847 26.2319 4.93154 22.0179 5.01114 17.9609C5.0642 13.9825 6.52349 10.3443 9.07061 7.75308C11.5647 5.21421 14.8547 3.85316 18.3835 3.90551C21.9123 3.95786 25.1758 5.4236 27.5637 8.041C30.0313 10.7107 31.3579 14.3751 31.2783 18.3535C31.2252 22.4105 29.7394 26.5983 27.2454 29.8177C24.6982 33.1157 21.3286 35.0002 18.0121 35.0002ZM18.1712 4.79542C11.2993 4.79542 6.63071 10.4228 6.49805 17.9609C6.44498 21.8347 7.71625 25.3589 9.99805 28.4998C12.3064 31.693 14.9343 33.4736 18.0121 33.4998C21.0633 33.5521 23.5836 32.1145 25.998 28.9998C28.386 25.9374 29.7745 22.1749 29.8276 18.3274C29.9602 10.7107 25.335 4.90012 18.3835 4.79542C18.3039 4.79542 18.2243 4.79542 18.1712 4.79542Z" fill="#444444"/>
<path d="M30.2413 21.5726C30.2413 21.5726 18.6466 11.7835 14.0831 9.97748C9.51946 8.1453 11.1379 6.10373 13.1544 4.24538C15.1709 2.38703 18.0099 1.75885 20.1855 2.57025C22.3347 3.38164 33.7967 11.9144 31.8333 17.5941L30.2413 21.5726Z" fill="white"/>
<path d="M30.1385 20.8823C30.1385 20.8823 22.1662 14.0262 19.0283 12.7613C15.8904 11.4781 17.0033 10.0482 18.3898 8.74668C19.7763 7.44513 21.7283 7.00517 23.2243 7.57345C24.702 8.14173 32.5831 14.1179 31.2331 18.0959L30.1385 20.8823Z" fill="#FFE665"/>
<path d="M30.4297 22.3317L29.9256 21.9129C29.8195 21.8083 18.3574 12.1762 13.9 10.3702C11.9631 9.585 10.9018 8.69509 10.7161 7.62195C10.4773 6.28708 11.5917 5.03073 12.8387 3.90525C14.9613 1.96837 17.986 1.26168 20.3474 2.15159C22.3904 2.93681 34.3565 11.6789 32.2605 17.7513L30.4297 22.3317ZM18 2.99976C16.3815 2.99976 14.8021 3.3556 13.4755 4.5596C12.4672 5.47569 11.459 6.54882 11.6447 7.43874C11.7774 8.17161 13.3815 8.37158 15 8.99976C19.086 10.6749 27.5 17.9998 30 19.9998L31 16.9998C31 14.4998 29.804 12.3579 26.3548 8.82444C23.4362 5.84061 19.7619 3.59117 19.7619 3.59117C19.7619 3.59117 18.6368 2.99976 18 2.99976Z" fill="#444444"/>
<path d="M5.67321 20.8653C5.67321 20.8653 18.1169 11.2332 22.9459 9.50576C27.7748 7.77828 26.1563 5.63201 24.1133 3.66896C22.0437 1.70592 19.0986 0.999219 16.8168 1.75826C14.5351 2.54348 2.27705 10.893 4.16086 16.756L5.67321 20.8653Z" fill="white"/>
<path d="M6.08898 20.8827C6.08898 20.8827 18.3873 10.9657 22.1676 9.60548C25.9479 8.24531 24.6808 6.55541 23.0815 5.00976C21.4614 3.46411 19.1558 2.90768 17.3695 3.50533C15.5832 4.12359 3.43032 13.0308 4.90504 17.6472L6.08898 20.8827Z" fill="#FFE665"/>
<path d="M5.5 21.9998L3.71481 16.9148C1.69834 10.6331 14.487 2.0742 16.6627 1.34133C19.1567 0.477587 22.2875 1.28898 24.4367 3.35672C25.7102 4.56073 26.7919 6.63871 26.5 7.99976C26.2612 9.09906 25.5695 9.26688 23.5 9.99976C18.8038 11.6749 6.11025 21.5286 6.00412 21.6071L5.5 21.9998ZM18.5 2.49976C18.5 2.49976 17.7795 2.60445 17.2223 2.78767C16.2141 3.12793 13.1574 5.0421 10 7.99976C6.25892 11.4809 4.34697 14.2115 5.06334 16.4886C5.77972 18.7658 5.31761 17.4132 5.5 17.9998C5.68334 18.5894 6 19.4998 6 19.4998C8.87203 17.2316 17.9776 10.4329 22.3289 8.88864C24.0536 8.28664 24.8408 7.7588 25 6.99976C25.2123 6.08367 23.8533 4.99189 22.8451 4.02345C21.4123 2.68858 18.5 2.49976 18.5 2.49976Z" fill="#444444"/>
</svg>
