<svg width="91" height="109" viewBox="0 0 91 109" fill="none" xmlns="http://www.w3.org/2000/svg">
<path fill-rule="evenodd" clip-rule="evenodd" d="M49.1659 24.5112C46.695 23.0471 43.6223 23.0471 41.1514 24.5112L15.2373 39.8664C12.8485 41.2819 11.3837 43.8525 11.3837 46.6292V77.6968C11.3837 80.4735 12.8485 83.0442 15.2373 84.4596L41.1514 99.8149C43.6223 101.279 46.695 101.279 49.1659 99.8149L75.08 84.4596C77.4688 83.0442 78.9337 80.4735 78.9337 77.6968V46.6292C78.9337 43.8526 77.4688 41.2819 75.08 39.8664L49.1659 24.5112ZM48.1861 34.0933C46.6338 33.198 44.7074 33.198 43.155 34.0933L22.9661 45.7367C21.454 46.6087 20.5258 48.1986 20.5258 49.9166V73.3744C20.5258 75.0924 21.454 76.6823 22.9661 77.5544L43.155 89.1978C44.7074 90.093 46.6338 90.093 48.1861 89.1978L68.375 77.5544C69.8871 76.6823 70.8153 75.0924 70.8153 73.3744V49.9166C70.8153 48.1986 69.8871 46.6087 68.375 45.7367L48.1861 34.0933Z" fill="#FFE665"/>
<path d="M50.942 20.4795L77.7341 36.2995C81.1995 38.3457 83.3259 42.0707 83.3259 46.0952V78.2186C83.3259 82.243 81.1995 85.968 77.7341 88.0143L50.942 103.834C47.3737 105.941 42.9421 105.941 39.3738 103.834L12.5817 88.0143C9.11628 85.968 6.9899 82.243 6.9899 78.2186V46.0952C6.9899 42.0707 9.11628 38.3457 12.5817 36.2995L39.3738 20.4795C42.9421 18.3726 47.3737 18.3726 50.942 20.4795Z" stroke="#444444" stroke-width="1.87978"/>
<path d="M75.1328 1.1547C76.3704 0.440169 77.8952 0.440169 79.1328 1.1547L85.5251 4.8453C86.7627 5.55983 87.5251 6.88034 87.5251 8.3094V15.6906C87.5251 17.1197 86.7627 18.4402 85.5251 19.1547L79.1328 22.8453C77.8952 23.5598 76.3704 23.5598 75.1328 22.8453L68.7405 19.1547C67.5029 18.4402 66.7405 17.1197 66.7405 15.6906V8.3094C66.7405 6.88034 67.5029 5.55983 68.7405 4.8453L75.1328 1.1547Z" fill="#D5F4EF"/>
</svg>
