<svg width="32" height="32" viewBox="0 0 32 32" fill="none" xmlns="http://www.w3.org/2000/svg">
<path d="M32 26.3703C32 27.1562 31.6935 27.9098 31.1479 28.4655C30.6024 29.0211 29.8624 29.3333 29.0909 29.3333H2.90909C2.13755 29.3333 1.39761 29.0211 0.852053 28.4655C0.306493 27.9098 0 27.1562 0 26.3703V10.074C0 9.28821 0.306493 8.53457 0.852053 7.9789C1.39761 7.42324 2.13755 7.11107 2.90909 7.11107H8.72727L10.7481 4.02365C11.3024 3.17688 12.2462 2.66663 13.2582 2.66663H18.7418C19.7538 2.66663 20.6976 3.17688 21.2519 4.02365L23.2727 7.11107H29.0909C29.8624 7.11107 30.6024 7.42324 31.1479 7.9789C31.6935 8.53457 32 9.28821 32 10.074V26.3703Z" fill="white"/>
<path d="M21.6673 17.3333C21.6673 20.4629 19.1303 23 16.0007 23C12.871 23 10.334 20.4629 10.334 17.3333C10.334 14.2037 12.871 11.6666 16.0007 11.6666C19.1303 11.6666 21.6673 14.2037 21.6673 17.3333Z" stroke="#2FCAB0" stroke-width="2" stroke-linecap="round" stroke-linejoin="round"/>
</svg>
