<svg width="86" height="90" viewBox="0 0 86 90" fill="none" xmlns="http://www.w3.org/2000/svg">
<path d="M66 37H52C48.134 37 45 40.134 45 44V89H73V44C73 40.134 69.866 37 66 37Z" fill="white" stroke="#444444" stroke-width="2"/>
<path d="M69 45C69 42.7909 67.2091 41 65 41H53C50.7909 41 49 42.7909 49 45V90H69V45Z" fill="#FFE665"/>
<path d="M37 21C37 17.134 33.866 14 30 14H16C12.134 14 9 17.134 9 21V89H37V21Z" fill="white" stroke="#444444" stroke-width="2"/>
<path d="M33 22C33 19.7909 31.2091 18 29 18H17C14.7909 18 13 19.7909 13 22V90H33V22Z" fill="#47BDFF"/>
<path d="M84.5 89H1" stroke="#444444" stroke-width="2" stroke-linecap="round"/>
<circle cx="64.2754" cy="12.2754" r="12.2754" fill="#D5F4EF"/>
<path d="M57.7619 26.4152C57.1822 26.7749 56.4471 26.2904 56.5491 25.6158L57.3733 20.1661L62.4453 23.5094L57.7619 26.4152Z" fill="#D5F4EF"/>
<g clip-path="url(#clip0_0_10)">
<path d="M72.168 13.1523H68.8106C68.8106 14.3548 68.3329 15.508 67.4826 16.3583C66.6324 17.2086 65.4791 17.6862 64.2767 17.6862C63.0742 17.6862 61.921 17.2086 61.0707 16.3583C60.2204 15.508 59.7428 14.3548 59.7428 13.1523H56.3848C56.4023 15.2338 57.2414 17.2241 58.7195 18.6898C60.1975 20.1556 62.1948 20.9779 64.2764 20.9779C66.358 20.9779 68.3553 20.1556 69.8333 18.6898C71.3114 17.2241 72.1505 15.2338 72.168 13.1523Z" fill="#2FCAB0"/>
</g>
<defs>
<clipPath id="clip0_0_10">
<rect width="15.7827" height="7.89134" fill="white" transform="translate(56.3848 13.1523)"/>
</clipPath>
</defs>
</svg>
