<svg width="24" height="23" viewBox="0 0 24 23" fill="none" xmlns="http://www.w3.org/2000/svg">
<path d="M12.5181 18.1714L12.0016 17.859L11.4846 18.1704L5.95124 21.5038L5.94945 21.5049C5.69688 21.6577 5.38735 21.436 5.45459 21.1469L6.92115 14.854L7.0581 14.2664L6.60211 13.8713L1.70877 9.63126L1.70842 9.63095C1.48162 9.43462 1.61006 9.07305 1.89321 9.05053L1.89321 9.05054L1.8985 9.05009L8.3385 8.50343L8.93882 8.45247L9.17434 7.89793L11.6943 1.96459L11.6944 1.9646L11.696 1.96071C11.7499 1.83216 11.858 1.76367 12.0006 1.76367C12.1432 1.76367 12.2512 1.83216 12.3052 1.96071L12.3065 1.96385L14.8265 7.91052L15.0618 8.46576L15.6627 8.51676L22.1027 9.06344L22.108 9.06386C22.3911 9.08639 22.5196 9.44795 22.2928 9.64429L22.2924 9.64459L17.3991 13.8846L16.9431 14.2797L17.08 14.8673L18.5466 21.1602C18.6138 21.4494 18.3043 21.6711 18.0517 21.5182L18.0514 21.518L12.5181 18.1714Z" fill="#FFE665" stroke="#FFE665" stroke-width="2"/>
</svg>
