<svg width="36" height="36" viewBox="0 0 36 36" fill="none" xmlns="http://www.w3.org/2000/svg">
<path d="M31.5 17.5049H5.5V18.5049L7.5 21.5049V25.5049L12 26.5049L14.5 30.5049L18.5 29.0049L22.5 30.5049L26.5 26.5049L29.5 24.5049V21.5049L31.5 17.5049Z" fill="#FFE665"/>
<path d="M29.1792 13.7663L29.1362 14.1934L29.4162 14.5188L32.1832 17.7345L29.3623 20.903L29.0768 21.2236L29.1126 21.6514L29.4661 25.8746L25.3265 26.7774L24.9063 26.869L24.6838 27.2371L22.49 30.8666L18.6142 29.1648L18.22 28.9917L17.8234 29.1591L13.9205 30.8062L11.7894 27.142L11.5731 26.7702L11.1545 26.6715L7.0305 25.6988L7.45565 21.4682L7.49855 21.0412L7.21866 20.716L4.4506 17.4991L7.27388 14.3166L7.55796 13.9964L7.52236 13.5698L7.16892 9.33491L11.3059 8.44407L11.7279 8.3532L11.9512 7.98377L14.145 4.35428L18.0208 6.0561L18.4136 6.2286L18.8093 6.06276L22.7122 4.42712L24.8447 8.10529L25.0608 8.47809L25.4802 8.57701L29.604 9.54963L29.1792 13.7663Z" stroke="#444444" stroke-width="2"/>
</svg>
