<svg width="30" height="30" viewBox="0 0 30 30" fill="none" xmlns="http://www.w3.org/2000/svg">
<path d="M23.5698 17.6196C23.5698 22.8881 19.121 26.7863 14.4626 26.7863C9.80419 26.7863 5.35547 22.8881 5.35547 17.6196C5.35547 12.2452 11.5641 5.92559 13.7288 3.88552C14.1466 3.49181 14.7787 3.49181 15.1964 3.88553C17.3611 5.92559 23.5698 12.2452 23.5698 17.6196Z" fill="white"/>
<path d="M6.42969 19.2855V16.0713C12.0011 13.4998 19.4654 14.6427 22.5011 15.5355V19.2855C17.5242 17.4488 10.7154 18.2141 6.42969 19.2855Z" fill="#FFE665"/>
<path fill-rule="evenodd" clip-rule="evenodd" d="M22.0698 17.6192C22.0698 22.0076 18.3452 25.2859 14.4626 25.2859C10.58 25.2859 6.85547 22.0076 6.85547 17.6192C6.85547 15.4343 8.15602 12.8423 9.94356 10.384C11.5369 8.19272 13.3584 6.32023 14.4626 5.25768C14.6824 5.46919 14.9307 5.7128 15.1998 5.98462C15.4891 5.57304 15.836 5.20488 16.2287 4.89188C15.8309 4.49105 15.4792 4.15159 15.1964 3.88513C14.7787 3.49142 14.1466 3.49141 13.7288 3.88513C11.5641 5.92519 5.35547 12.2449 5.35547 17.6192C5.35547 22.8877 9.80419 26.7859 14.4626 26.7859C19.121 26.7859 23.5698 22.8877 23.5698 17.6192C23.5698 16.2186 23.1481 14.7537 22.4862 13.3172C22.077 13.6009 21.6255 13.828 21.1431 13.987C21.7236 15.2566 22.0698 16.4921 22.0698 17.6192Z" fill="#444444"/>
<rect x="16.5" y="8.25" width="6" height="1.5" rx="0.75" fill="#444444"/>
<rect x="20.25" y="6" width="6" height="1.5" rx="0.75" transform="rotate(90 20.25 6)" fill="#444444"/>
<path d="M7.0404 19.0853C9.55847 18.3874 16.0608 17.0131 21.8893 19.0853" stroke="#444444" stroke-width="1.5" stroke-linecap="round"/>
<path d="M7.0404 15.538C9.55847 14.8401 16.0608 13.4657 21.8893 15.538" stroke="#444444" stroke-width="1.5" stroke-linecap="round"/>
</svg>
