<svg width="40" height="40" viewBox="0 0 40 40" fill="none" xmlns="http://www.w3.org/2000/svg">
<path d="M31.4302 23.4925C31.4302 30.5171 25.4986 35.7147 19.2874 35.7147C13.0762 35.7147 7.14453 30.5171 7.14453 23.4925C7.14453 16.1147 15.9198 7.40078 18.5506 4.95412C18.971 4.56318 19.6038 4.56318 20.0241 4.95412C22.655 7.40078 31.4302 16.1147 31.4302 23.4925Z" fill="white"/>
<rect width="17" height="14" rx="7" transform="matrix(1 0 0 -1 11 34)" fill="#FFE665"/>
<path d="M25.7154 24.2861C25.3583 25.429 24.0011 27.8861 21.4297 28.5718" stroke="#444444" stroke-width="2" stroke-linecap="round"/>
<path fill-rule="evenodd" clip-rule="evenodd" d="M29.4302 23.4927C29.4302 29.3439 24.4642 33.7149 19.2874 33.7149C14.1105 33.7149 9.14453 29.3439 9.14453 23.4927C9.14453 20.4882 10.9878 16.9141 13.4683 13.5646C15.5442 10.7613 17.8658 8.37858 19.2874 7.01067C19.6949 7.40282 20.1764 7.87837 20.7049 8.42332C21.1429 7.91693 21.6522 7.47401 22.2174 7.11019C21.3204 6.18189 20.5497 5.44307 20.0241 4.95433C19.6038 4.5634 18.971 4.5634 18.5506 4.95433C15.9198 7.40099 7.14453 16.1149 7.14453 23.4927C7.14453 30.5173 13.0762 35.7149 19.2874 35.7149C25.4986 35.7149 31.4302 30.5173 31.4302 23.4927C31.4302 21.8704 31.006 20.1835 30.316 18.5128C29.7879 18.9267 29.1989 19.2664 28.5647 19.5161C29.113 20.9018 29.4302 22.2463 29.4302 23.4927Z" fill="#444444"/>
<rect x="22" y="12" width="8" height="2" rx="1" fill="#444444"/>
</svg>
