<svg width="36" height="36" viewBox="0 0 36 36" fill="none" xmlns="http://www.w3.org/2000/svg">
<rect width="36" height="36" fill="white"/>
<rect width="17" height="15" rx="7.5" transform="matrix(1 0 0 -1 9 30)" fill="#FFE665"/>
<path d="M27.2859 18.6725C27.2859 24.3985 22.4314 28.6582 17.3573 28.6582C12.2831 28.6582 7.42871 24.3985 7.42871 18.6725C7.42871 15.7309 9.18972 12.3786 11.4086 9.36684C13.5974 6.39586 16.0952 3.93613 17.3016 2.81043C17.3227 2.79069 17.3418 2.78586 17.3573 2.78586C17.3728 2.78586 17.3919 2.79069 17.413 2.81043C18.6193 3.93613 21.1172 6.39586 23.306 9.36684C25.5249 12.3786 27.2859 15.7309 27.2859 18.6725Z" stroke="#444444" stroke-width="2"/>
<path d="M23.1428 19.3853C22.8214 20.4125 21.5999 22.621 19.2856 23.2373" stroke="#444444" stroke-width="2" stroke-linecap="round"/>
<line x1="9.47487" y1="7" x2="29.6274" y2="27.1525" stroke="white" stroke-width="3.5" stroke-linecap="round"/>
<line x1="8.41421" y1="7" x2="29.6274" y2="28.2132" stroke="#444444" stroke-width="2" stroke-linecap="round"/>
</svg>
