<svg width="36" height="36" viewBox="0 0 36 36" fill="none" xmlns="http://www.w3.org/2000/svg">
<g clip-path="url(#clip0_5028_22699)">
<path d="M26.9756 31.8787L26.8906 23.2711L26.9568 23.1769C27.0323 23.0637 28.8461 20.3862 31.0472 20.3862C31.3968 20.3862 31.7368 20.4522 32.0675 20.5936C33.3145 21.1027 34.2119 22.6866 34.3631 24.6287C34.5237 26.6557 33.7963 28.4187 32.4548 29.2389C29.753 30.8888 27.5613 31.6713 27.4669 31.709L26.9756 31.8787ZM28 24.0737V30.0737C28.7935 29.7532 30 29.0737 32 28.0737C33 27.0737 33.1039 25.9408 33 24.5737C32.8677 22.9427 32.4636 22.4697 31.5 22.0737C31.2638 21.9795 31.0182 21.9323 30.7726 21.9323C29.1666 21.9229 28.3212 23.6306 28 24.0737Z" fill="#3E3A39"/>
<path d="M7.40717 31.8792L7.49219 23.2716L7.42606 23.1773C7.35048 23.0642 5.5367 20.3867 3.33559 20.3867C2.98605 20.3867 2.64597 20.4527 2.31533 20.5941C1.06835 21.1032 0.1709 22.6871 0.0197506 24.6292C-0.140845 26.6562 0.586561 28.4192 1.92801 29.2394C4.6298 30.8893 6.82146 31.6718 6.91593 31.7095L7.40717 31.8792ZM6.49805 24.0742V30.0742C5.70451 29.7537 4.38281 29.0742 2.38281 28.0742C1.38281 27.0742 1.2789 25.9412 1.38281 24.5742C1.51507 22.9432 1.91924 22.4702 2.88281 22.0742C3.11898 21.9799 3.3646 21.9328 3.61022 21.9328C5.21618 21.9234 6.17685 23.6311 6.49805 24.0742Z" fill="#3E3A39"/>
<path d="M17.2094 19.8469C11.1419 19.8469 7.01562 23.2598 7.01562 23.2598V31.1313C8.60987 32.691 10.5605 33.8561 12.7455 34.4341C16.3748 35.3882 21.0262 35.168 24.3647 33.3882C24.8993 33.1038 25.4151 32.7644 25.8933 32.3974C26.1278 32.2231 27.4032 31.3974 27.4032 31.1222V23.2598C27.3938 23.2598 23.2675 19.8469 17.2094 19.8469Z" fill="white"/>
<path d="M17.1829 21.7804C11.1312 21.7804 7.01562 24.7875 7.01562 24.7875V31.7233C8.60573 33.0975 10.5513 34.1242 12.7306 34.6334C16.3505 35.4741 20.9898 35.2801 24.3197 33.7119C24.8528 33.4613 25.3673 33.1622 25.8443 32.8388C26.0781 32.6853 27.3502 31.9577 27.3502 31.7152V24.7875C27.3409 24.7875 23.2253 21.7804 17.1829 21.7804Z" fill="#FFE665"/>
<path d="M17.3976 35.5749C15.8105 35.5749 14.2046 35.3675 12.7781 34.9904C10.5959 34.4059 8.53645 33.1991 6.83602 31.5021L6.72266 31.389V22.9794L6.85491 22.8663C7.02496 22.7155 11.191 19.2649 17.3692 19.2649C23.538 19.2649 27.7041 22.7155 27.8836 22.8663V22.9229V31.1816C27.8836 31.5116 27.7041 31.8792 26.5705 32.69C26.476 32.756 26.391 32.8126 26.3532 32.8503C25.8242 33.2557 25.2857 33.614 24.7661 33.8968C22.7539 34.981 20.1372 35.5749 17.3976 35.5749ZM8.00195 30.5745C9.58902 32.1206 10.9992 33.0371 13.002 33.5745C14.3717 33.9421 15.8766 34.0745 17.3976 34.0745C20.0144 34.0745 22.1438 33.7039 24.0426 32.6762C24.5433 32.4028 25.0345 32.0823 25.5352 31.6958C25.5825 31.658 25.6675 31.6015 25.7808 31.5166C26.2734 31.1109 26.4571 30.9382 26.5705 30.7874V23.6651C25.8147 23.0806 22.6595 20.5745 17.3692 20.5745C12.0601 20.5745 8.74825 23.09 8.00195 23.6651V30.5745Z" fill="#3E3A39"/>
</g>
<path d="M15.2936 10.6304H10.5142H6.02344V7.33301H15.2936V10.6304ZM6.61086 9.61041H14.7057V8.3599H6.61086V9.61041Z" fill="#444444"/>
<path d="M6.24315 7.82812C4.33946 7.82812 2.41922 7.86121 0.515531 7.82812C0.11824 7.82812 0.46587 10.0282 0.532085 10.3259C0.763838 11.6493 1.69085 12.7906 2.94894 13.2703C4.38912 13.8328 6.07761 13.4192 7.23638 12.4433C8.67656 11.2357 9.10696 9.63117 9.10696 7.82812C9.10696 7.82812 6.30936 7.82812 6.24315 7.82812Z" fill="white"/>
<path d="M4.32284 13.8004C3.80967 13.8004 3.31306 13.7177 2.833 13.5357C1.47559 13.0064 0.482359 11.7988 0.234051 10.3762C0.118175 9.68141 -0.179575 7.57004 0.151501 7.18957C0.23427 7.09032 0.350147 7.04069 0.466024 7.04069C1.75966 7.04069 3.04842 7.04069 4.32306 7.04069C4.95211 7.04069 5.5102 7.03833 6.13925 7.03833L9.37135 7.04069V7.43088C9.37135 9.59791 8.77582 11.5507 7.43496 12.6755C6.5245 13.4034 5.41539 13.8004 4.32284 13.8004ZM1.36832 8.54346C1.30211 8.8743 1.45087 9.46636 1.5833 10.2604C2 11.5305 2.18822 11.8613 3.34699 12.308C4.62163 12.8042 5.34123 12.4899 6.5 11.5305C7.65877 10.5545 8 8.54346 8 8.54346H6.19364C5.5646 8.54346 4.95211 8.54346 4.32306 8.54346C3.09808 8.56 2.60986 8.56 1.36832 8.54346Z" fill="#444444"/>
<path d="M14.1279 7.82788C16.0316 7.82788 17.9519 7.86096 19.8556 7.82788C20.2529 7.82788 19.9052 10.028 19.839 10.3257C19.6073 11.6491 18.6802 12.7904 17.4222 13.2702C15.982 13.8326 14.2935 13.419 13.1347 12.4431C11.6945 11.2355 11.2641 9.63095 11.2641 7.82788C11.2641 7.82788 14.0617 7.82788 14.1279 7.82788Z" fill="white"/>
<path d="M16.0483 13.8001C16.5614 13.8001 17.058 13.7174 17.5381 13.5354C18.8955 13.0061 19.8887 11.7985 20.137 10.3759C20.2529 9.68115 20.5507 7.56979 20.2196 7.18933C20.1368 7.09007 20.0209 7.04045 19.9051 7.04045C18.6114 7.04045 17.3227 7.04045 16.048 7.04045C15.419 7.04045 14.8609 7.03809 14.2318 7.03809L10.9997 7.04045V7.43063C10.9997 9.59764 11.5953 11.5504 12.9361 12.6753C13.8466 13.4031 14.9557 13.8001 16.0483 13.8001ZM19.0028 8.5432C19.069 8.87404 18.9202 9.4661 18.7878 10.2601C18.3711 11.5302 18.1829 11.861 17.0241 12.3077C15.7495 12.8039 15.0299 12.4896 13.8711 11.5302C12.7123 10.5542 12.3711 8.5432 12.3711 8.5432H14.1775C14.8065 8.5432 15.419 8.5432 16.048 8.5432C17.273 8.55975 17.7612 8.55975 19.0028 8.5432Z" fill="#444444"/>
<path d="M1.07843 8.12592C1.17776 8.12592 2.34615 7.73297 2.39581 7.65026C3.90221 5.20203 5.77266 2.33335 6.10373 1.93634C6.3677 1.88235 6.65707 1.90952 7.31922 1.90952C7.48476 1.90952 7.61719 0.946637 7.61719 0.781216C7.61719 0.615795 7.48476 0.5 7.31922 0.5C6.70673 0.5 5.61418 0.533084 5.31621 0.73159C5.05135 0.913553 2.73381 4.60244 0.830126 7.69582C0.747357 7.82816 0.780464 8.01012 0.929448 8.09283C0.97911 8.10937 1.02877 8.12592 1.07843 8.12592Z" fill="#444444"/>
<path d="M19.5388 8.12592C19.4394 8.12592 18.271 7.73297 18.2214 7.65026C16.715 5.20203 14.8445 2.33335 14.5135 1.93634C14.2495 1.88235 13.9601 1.90952 13.298 1.90952C13.1324 1.90952 13 0.946637 13 0.781216C13 0.615795 13.1324 0.5 13.298 0.5C13.9105 0.5 15.003 0.533084 15.301 0.73159C15.5658 0.913553 17.8834 4.60244 19.7871 7.69582C19.8698 7.82816 19.8367 8.01012 19.6877 8.09283C19.6381 8.10937 19.5884 8.12592 19.5388 8.12592Z" fill="#444444"/>
<ellipse cx="29.8819" cy="6.58789" rx="6.11626" ry="6.08691" fill="#EF4C57"/>
<path d="M31.9213 4.55835L27.8438 8.61627" stroke="white" stroke-width="1.5" stroke-linecap="round"/>
<path d="M27.8444 4.55835L31.9219 8.61627" stroke="white" stroke-width="1.5" stroke-linecap="round"/>
<defs>
<clipPath id="clip0_5028_22699">
<rect width="34.3676" height="16.31" fill="white" transform="translate(0.0234375 19.2646)"/>
</clipPath>
</defs>
</svg>
