<svg width="88" height="88" viewBox="0 0 88 88" fill="none" xmlns="http://www.w3.org/2000/svg">
<circle cx="44" cy="44" r="44" fill="#E9F7FF"/>
<path d="M44 66.2734L44 53.2734" stroke="#444444" stroke-width="2"/>
<path d="M29 32.5957L23.7115 32.5957C22.4901 32.5957 21.5 33.5963 21.5 34.8305L21.5 41.0168C21.5 43.5998 22.7787 45.881 24.7314 47.2492" stroke="#444444" stroke-width="2" stroke-linecap="round"/>
<path d="M59.0801 32.5957L64.3685 32.5957C65.5899 32.5957 66.5801 33.5963 66.5801 34.8305L66.5801 41.0168C66.5801 43.5998 65.3014 45.881 63.3487 47.2492" stroke="#444444" stroke-width="2" stroke-linecap="round"/>
<path d="M28 41.5781L28 28.5781C28 26.9213 29.3431 25.5781 31 25.5781L57 25.5781C58.6569 25.5781 60 26.9213 60 28.5781L60 41.5781C60 50.4147 52.8366 57.5781 44 57.5781C35.1634 57.5781 28 50.4147 28 41.5781Z" fill="white" stroke="#444444" stroke-width="2"/>
<path d="M56 41.5762C56 48.2036 50.6274 53.5762 44 53.5762V53.5762C37.3726 53.5762 32 48.2036 32 41.5762L32 30.5762C32 30.0239 32.4477 29.5762 33 29.5762L55 29.5762C55.5523 29.5762 56 30.0239 56 30.5762L56 41.5762Z" fill="#47BDFF"/>
<path d="M44.2446 43.6786C44.0927 43.5935 43.9075 43.5935 43.7556 43.6786L41.3769 45.012C41.0046 45.2206 40.5589 44.8971 40.642 44.4785L41.1737 41.799C41.2075 41.6286 41.1505 41.4528 41.023 41.3348L39.0196 39.4795C38.7067 39.1898 38.8768 38.6664 39.3003 38.6162L42.009 38.2945C42.1817 38.274 42.3314 38.1652 42.4042 38.0072L43.546 35.5282C43.7246 35.1405 44.2756 35.1405 44.4542 35.5282L45.596 38.0072C45.6688 38.1652 45.8185 38.274 45.9912 38.2945L48.6999 38.6162C49.1234 38.6664 49.2935 39.1898 48.9806 39.4795L46.9772 41.3348C46.8497 41.4528 46.7926 41.6286 46.8265 41.799L47.3582 44.4785C47.4413 44.8971 46.9956 45.2206 46.6233 45.012L44.2446 43.6786Z" fill="white" stroke="white"/>
<path d="M38.3763 62.2656H49.7096C52.1029 62.2656 54.043 64.2057 54.043 66.599C54.043 67.5194 53.2968 68.2656 52.3763 68.2656H35.7096C34.7892 68.2656 34.043 67.5194 34.043 66.599C34.043 64.2057 35.9831 62.2656 38.3763 62.2656Z" fill="white" stroke="#444444" stroke-width="2"/>
<path d="M44.0635 16L44.0635 20.57" stroke="#444444" stroke-width="2" stroke-linecap="round"/>
<path d="M34.8838 18.2461L37.9304 21.2927" stroke="#444444" stroke-width="2" stroke-linecap="round"/>
<path d="M53.2021 18.2461L50.1555 21.2927" stroke="#444444" stroke-width="2" stroke-linecap="round"/>
</svg>
