<svg width="52" height="50" viewBox="0 0 52 50" fill="none" xmlns="http://www.w3.org/2000/svg">
<path d="M13 13C13 11.8954 13.8954 11 15 11H37C38.1046 11 39 11.8954 39 13V27.8782C39 28.4097 38.7885 28.9192 38.4122 29.2945L34.8214 32.875L32.1521 35.4417C31.7795 35.7999 31.2827 36 30.7659 36H21.1784C20.695 36 20.2278 35.8249 19.8635 35.507L16.3943 32.4801C16.2983 32.3963 16.2106 32.3036 16.1322 32.2031L13.423 28.7298C13.1489 28.3784 13 27.9454 13 27.4997V13Z" fill="#FFE665"/>
<path d="M5.89844 41.8123L15.5984 32.1328" stroke="#444444" stroke-width="2" stroke-miterlimit="10" stroke-linecap="round"/>
<path d="M27.3008 1H39.9008C41.5576 1 42.9008 2.34315 42.9008 4V25.6478" stroke="#444444" stroke-width="2" stroke-miterlimit="10" stroke-linecap="round" stroke-linejoin="round"/>
<path d="M9.10156 25.6478V4C9.10156 2.34315 10.4447 1 12.1016 1L19 1H28" stroke="#444444" stroke-width="2" stroke-miterlimit="10" stroke-linecap="round" stroke-linejoin="round"/>
<path d="M46.0984 41.8123L36.3984 32.1328" stroke="#444444" stroke-width="2" stroke-miterlimit="10" stroke-linecap="round"/>
<path d="M43 10.7812C43 10.7812 47.23 14.2347 48.4 15.2725C49.57 16.3103 51 17.3481 51 19.1643V45.1094C51 47.3147 49.31 49.0012 47.1 49.0012H4.9C2.69 49.0012 1 47.3147 1 45.1094V19.1643C1 17.3481 2.43 16.3103 3.6 15.2725C4.77 14.2347 9 10.7812 9 10.7812" stroke="#444444" stroke-width="2" stroke-miterlimit="10" stroke-linecap="round"/>
<path d="M46.0984 22.4531L35.0984 33.4299C32.4984 35.6352 30.6784 36.0244 28.5984 36.0244H25.9984H23.3984C21.3184 36.0244 19.4984 35.6352 16.8984 33.4299L5.89844 22.4531" stroke="#444444" stroke-width="2" stroke-miterlimit="10" stroke-linecap="round"/>
</svg>
