<svg width="88" height="88" viewBox="0 0 88 88" fill="none" xmlns="http://www.w3.org/2000/svg">
<circle cx="44" cy="44" r="44" fill="#FFF6C9"/>
<path d="M62.7518 38.3506C63.5837 39.1746 63.9996 40.1323 63.9996 41.2237C63.9996 41.9728 63.7703 42.8395 63.3117 43.8239C62.859 44.7958 62.2193 45.0686 61.6232 45.3229L61.6 45.3327C61.9314 45.7268 62.1866 46.2048 62.3999 46.8576C62.6132 47.5103 62.7198 48.1042 62.7198 48.6392C62.7198 50.1159 62.1546 51.3892 61.0241 52.4593C61.4081 53.1441 61.6 53.8825 61.6 54.6743C61.6 55.4661 61.4134 56.2526 61.0401 57.0338C60.6669 57.8149 60.1603 58.3767 59.5204 58.7191C59.627 59.3611 59.6803 59.9604 59.6803 60.5168C59.6803 64.0908 57.6327 65.8778 53.5374 65.8778H49.666C46.3698 65.6747 41.0326 64.603 37.2029 64.1448C35.758 63.9719 32.5205 63.7727 31.2368 63.7727L31.2371 41.2237C32.8556 40.7443 36.7459 38.8566 39.3593 35.1408C40.6523 33.2693 43.097 29.1346 43.8836 27.6396C44.0891 27.2491 44.5041 26.402 44.7987 25.8153C45.3113 24.7943 45.7172 23.7155 47.0862 23.2839C48.4552 22.8522 51.6474 23.7665 51.3188 27.8883C51.2518 28.7297 50.7576 30.4441 50.1779 31.9945C49.5983 33.5448 48.6422 35.8734 48.6422 37.1147H59.9043C60.9708 37.1147 61.92 37.5267 62.7518 38.3506Z" fill="white" stroke="#444444" stroke-width="2" stroke-linejoin="round"/>
<mask id="mask0_2_126" style="mask-type:alpha" maskUnits="userSpaceOnUse" x="31" y="23" width="34" height="43">
<path d="M62.7523 38.3509C63.5842 39.1748 64.0001 40.1325 64.0001 41.224C64.0001 41.973 63.7708 42.8397 63.3122 43.8242C62.8595 44.7961 62.2198 45.0689 61.6236 45.3231L61.6005 45.333C61.9319 45.727 62.1871 46.2051 62.4004 46.8578C62.6137 47.5105 62.7203 48.1044 62.7203 48.6394C62.7203 50.1161 62.1551 51.3895 61.0246 52.4595C61.4085 53.1444 61.6005 53.8827 61.6005 54.6745C61.6005 55.4664 61.4139 56.2529 61.0406 57.034C60.6673 57.8152 60.1608 58.3769 59.5209 58.7194C59.6275 59.3614 59.6808 59.9606 59.6808 60.517C59.6808 64.091 57.6332 65.878 53.5379 65.878H49.6665C46.3703 65.675 41.0331 64.6033 37.2034 64.145C35.7584 63.9721 32.521 63.7729 31.2373 63.7729L31.2376 41.224C32.8561 40.7446 36.7464 38.8569 39.3597 35.141C40.6528 33.2695 43.0975 29.1348 43.8841 27.6398C44.0896 27.2494 44.5046 26.4023 44.7992 25.8155C45.3118 24.7945 45.7176 23.7158 47.0866 23.2841C48.4556 22.8524 51.6479 23.7667 51.3193 27.8886C51.2522 28.7299 50.7581 30.4444 50.1784 31.9947C49.5988 33.5451 48.6427 35.8737 48.6427 37.1149H59.9048C60.9713 37.1149 61.9205 37.5269 62.7523 38.3509Z" fill="white"/>
</mask>
<g mask="url(#mask0_2_126)">
<path d="M65.8265 39.8181C66.614 40.5981 67.0077 41.5048 67.0077 42.5381C67.0077 43.2472 66.7907 44.0677 66.3565 44.9997C65.9279 45.9197 65.3223 46.178 64.758 46.4187L64.7361 46.428C65.0498 46.8011 65.2914 47.2536 65.4933 47.8716C65.6952 48.4895 65.7962 49.0517 65.7962 49.5582C65.7962 50.9562 65.2611 52.1617 64.1909 53.1747C64.5543 53.823 64.7361 54.522 64.7361 55.2716C64.7361 56.0212 64.5594 56.7658 64.206 57.5053C63.8526 58.2448 63.3731 58.7766 62.7673 59.1008C62.8682 59.7086 62.9187 60.2759 62.9187 60.8026C62.9187 64.1861 60.9802 65.8778 57.1032 65.8778H53.4382C50.3177 65.6856 45.2276 65.2555 41.6021 64.8217C40.2341 64.658 34.9591 63.8722 33.7438 63.8722V44.987C35.276 44.5331 40.2299 42.5381 43.6809 36.7794C44.905 35.0077 47.2194 31.0934 47.9641 29.6781C48.1586 29.3084 48.5515 28.5065 48.8304 27.951C49.3157 26.9845 49.6999 25.9632 50.9959 25.5546C52.2919 25.1459 55.314 26.0115 55.0029 29.9136C54.9394 30.7101 54.4716 32.3331 53.9229 33.8008C53.3741 35.2685 52.469 36.4116 52.469 37.5867H63.1307C64.1404 37.5867 65.0389 39.0381 65.8265 39.8181Z" fill="#FFE665"/>
<path d="M35 42.9999V61.9999" stroke="white" stroke-width="5.5" stroke-linecap="round"/>
</g>
<path d="M62.7518 38.3506C63.5837 39.1746 63.9996 40.1323 63.9996 41.2237C63.9996 41.9728 63.7703 42.8395 63.3117 43.8239C62.859 44.7958 62.2193 45.0686 61.6232 45.3229L61.6 45.3327C61.9314 45.7268 62.1866 46.2048 62.3999 46.8576C62.6132 47.5103 62.7198 48.1042 62.7198 48.6392C62.7198 50.1159 62.1546 51.3892 61.0241 52.4593C61.4081 53.1441 61.6 53.8825 61.6 54.6743C61.6 55.4661 61.4134 56.2526 61.0401 57.0338C60.6669 57.8149 60.1603 58.3767 59.5204 58.7191C59.627 59.3611 59.6803 59.9604 59.6803 60.5168C59.6803 64.0908 57.6327 65.8778 53.5374 65.8778H49.666C46.3698 65.6747 41.0326 64.603 37.2029 64.1448C35.758 63.9719 32.5205 63.7727 31.2368 63.7727L31.2371 41.2237C32.8556 40.7443 36.7459 38.8566 39.3593 35.1408C40.6523 33.2693 43.097 29.1346 43.8836 27.6396C44.0891 27.2491 44.5041 26.402 44.7987 25.8153C45.3113 24.7943 45.7172 23.7155 47.0862 23.2839C48.4552 22.8522 51.6474 23.7665 51.3188 27.8883C51.2518 28.7297 50.7576 30.4441 50.1779 31.9945C49.5983 33.5448 48.6422 35.8734 48.6422 37.1147H59.9043C60.9708 37.1147 61.92 37.5267 62.7518 38.3506Z" stroke="#444444" stroke-width="2" stroke-linejoin="round"/>
<path d="M27.5 38.4214H30.2955C31.9523 38.4214 33.2955 39.7645 33.2955 41.4214V62.1065C33.2955 63.7634 31.9523 65.1065 30.2955 65.1065H27.5C25.8431 65.1065 24.5 63.7634 24.5 62.1065V41.4214C24.5 39.7645 25.8431 38.4214 27.5 38.4214Z" fill="white" stroke="#444444" stroke-width="2"/>
<path d="M69.1411 26.5326L65.8214 29.6523" stroke="#444444" stroke-width="2" stroke-linecap="round"/>
<path d="M73.7739 34.735L69.481 34.6017" stroke="#444444" stroke-width="2" stroke-linecap="round"/>
<path d="M61.2686 21.4283L61.1353 25.7213" stroke="#444444" stroke-width="2" stroke-linecap="round"/>
</svg>
