<svg width="48" height="24" viewBox="0 0 48 24" fill="none" xmlns="http://www.w3.org/2000/svg">
<path d="M0 0.411987H7.29542C13.1231 0.411987 16.3869 3.88485 16.3869 9.81684C16.3869 16.2696 11.7658 18.8603 7.54788 18.8603H0V18.1099H1.2479C2.12719 18.1099 2.25198 17.8486 2.25198 15.2875V3.57994C2.25198 1.82074 2.15599 1.1723 1.32373 1.1723H0V0.411987ZM5.06456 18.1099H7.24551C12.0701 18.1099 13.2757 13.8104 13.2757 9.69507C13.2757 5.31835 12.0182 1.17626 7.09672 1.17626H5.06456V18.1099Z" fill="#4F342A"/>
<path d="M16.5898 18.2344H18.1008C18.9772 18.2344 19.0962 17.7116 19.0962 16.6623V9.52349C19.0962 7.32572 18.9042 6.80202 18.2246 6.80202H17.0352V6.04369H19.772C20.3646 6.03459 20.9481 5.892 21.4816 5.62592V8.68497H21.5306C22.2572 7.14158 23.389 5.62592 25.1965 5.62592C25.4733 5.59716 25.7529 5.62728 26.018 5.71441C26.2831 5.80154 26.528 5.94382 26.7377 6.13246C26.9473 6.32111 27.1172 6.55209 27.2368 6.81115C27.3564 7.0702 27.4233 7.35181 27.4331 7.63856C27.4564 7.86738 27.4305 8.09867 27.3573 8.31601C27.2841 8.53335 27.1654 8.7314 27.0097 8.89611C26.8539 9.06082 26.6649 9.18813 26.4561 9.26901C26.2472 9.34989 26.0237 9.38236 25.8013 9.3641C25.0967 9.3641 24.3671 9.02552 24.3671 8.26521C24.3838 8.02744 24.4188 7.79141 24.4718 7.55936C24.4718 7.37423 24.1454 7.35245 23.9688 7.35245C22.4329 7.35245 21.6083 9.10373 21.6083 13.8378V16.6623C21.6083 17.8403 21.8473 18.2344 22.6028 18.2344H24.0197V18.9927H16.5898V18.2344Z" fill="#4F342A"/>
<path d="M27.8498 16.0092C28.1581 16.009 28.4594 16.1031 28.7158 16.2796C28.9721 16.4561 29.172 16.707 29.29 17.0007C29.408 17.2944 29.4388 17.6176 29.3787 17.9293C29.3185 18.2411 29.17 18.5275 28.952 18.7522C28.734 18.9769 28.4562 19.1298 28.1539 19.1917C27.8515 19.2535 27.5382 19.2215 27.2535 19.0996C26.9689 18.9777 26.7256 18.7715 26.5546 18.507C26.3837 18.2425 26.2926 17.9317 26.293 17.6138C26.3086 17.1932 26.4777 16.7942 26.7664 16.4967C27.0551 16.1992 27.442 16.0251 27.8498 16.0092Z" fill="#4F342A"/>
<path d="M45.4403 5.10523H44.561C44.5236 3.919 44.0332 2.79607 43.1965 1.9811C42.3599 1.16613 41.2449 0.725151 40.0944 0.754247C35.5243 0.754247 34.7918 6.11501 34.7918 9.79479C34.7918 13.6795 35.5482 18.3928 39.793 18.5235C40.2626 18.569 40.7361 18.5072 41.1799 18.3423C41.6236 18.1774 42.0265 17.9135 42.36 17.5695C42.6934 17.2255 42.9492 16.8099 43.1089 16.3522C43.2687 15.8946 43.3286 15.4062 43.2843 14.9219V12.9132C43.298 12.7269 43.2737 12.5397 43.213 12.3637C43.1522 12.1877 43.0563 12.0268 42.9314 11.8915C42.8066 11.7561 42.6556 11.6492 42.4882 11.5778C42.3208 11.5063 42.1407 11.4719 41.9596 11.4768H39.793V10.7264H48.0004V11.4768H46.9445C46.1391 11.4768 45.9509 11.9876 45.9509 13.2835V19.1195H45.2425C45.1696 18.8076 45.0438 18.4948 44.441 18.4948C43.6107 18.4948 42.4568 19.2729 39.7719 19.2729C33.7426 19.2729 31.6836 15.0239 31.6836 9.4572C31.6836 4.38155 34.6728 0.000869229 39.8938 0.000869229C40.8219 -0.0124442 41.7462 0.127254 42.6315 0.414683C43.115 0.61776 43.6214 0.757449 44.1386 0.830476C44.4141 0.830476 44.5399 0.544371 44.5658 0.156297H45.4451L45.4403 5.10523Z" fill="#4F342A"/>
<path d="M41.2851 22.832H6.74609V23.9982H41.2851V22.832Z" fill="#4F342A"/>
</svg>
