<svg width="88" height="88" viewBox="0 0 88 88" fill="none" xmlns="http://www.w3.org/2000/svg">
<circle cx="44" cy="44" r="44" fill="#D5F4EF"/>
<path fill-rule="evenodd" clip-rule="evenodd" d="M60.5136 29.659C61.8026 28.3701 63.8923 28.3701 65.1812 29.659C66.4701 30.9479 66.4701 33.0376 65.1812 34.3265L64.3193 35.1883C65.4267 35.0312 66.5919 35.3785 67.4436 36.2303C68.8818 37.6684 68.8818 40.0002 67.4436 41.4383L64.8692 44.0128C65.9511 43.7816 67.1246 44.0863 67.9651 44.9268C69.2836 46.2453 69.2836 48.3829 67.9651 49.7013L56.8714 60.795C56.7574 60.919 56.6388 61.0426 56.5155 61.1659C54.7732 62.9082 52.2361 64.7603 50.7844 65.4189C45.5849 67.7777 39.6336 66.6568 35.2536 62.2768C32.2669 59.2901 30.4888 55.4393 30.6287 51.5865C30.7192 49.092 31.2326 47.2729 31.8768 44.9909C32.1041 44.1856 32.3477 43.3225 32.5947 42.3519C34.1568 40.7897 35.6004 39.4147 37.5783 38.7675C37.7921 38.6975 38.2788 39.188 38.7628 39.6759C39.2331 40.1499 39.701 40.6214 39.9137 40.5739C40.1411 40.523 40.6575 40.0446 41.1862 39.5547C41.7586 39.0243 42.3456 38.4805 42.5959 38.4513C45.3053 38.1359 47.353 39.1719 49.3455 40.8271L60.5136 29.659Z" fill="white"/>
<path d="M56.241 61.6441L66.3598 51.5253L68.261 49.6241C69.4687 48.4164 69.4687 46.4582 68.261 45.2505V45.2505C67.0533 44.0428 65.0952 44.0428 63.8874 45.2505L63.7555 45.3825" stroke="#444444" stroke-width="2" stroke-linecap="round"/>
<path d="M56.6109 61.2853C55.0032 62.893 52.6355 64.5756 51.2653 65.1527C46.3578 67.2196 40.1367 65.9773 35.7567 61.5973" stroke="#444444" stroke-width="2"/>
<path d="M62.9953 36.7631L63.1389 36.6194C64.4278 35.3305 66.5175 35.3305 67.8064 36.6194V36.6194C69.0953 37.9083 69.0953 39.998 67.8064 41.287L64.0157 45.0777" stroke="#444444" stroke-width="2" stroke-linecap="round"/>
<path d="M59.232 29.7793C58.8416 30.17 58.8418 30.8031 59.2325 31.1935C59.6231 31.5839 60.2563 31.5837 60.6467 31.1931L59.232 29.7793ZM62.4071 35.9376C62.0166 36.3281 62.0166 36.9613 62.4071 37.3518C62.7976 37.7423 63.4308 37.7423 63.8213 37.3518L62.4071 35.9376ZM60.6467 31.1931L61.1083 30.7312L59.6936 29.3174L59.232 29.7793L60.6467 31.1931ZM64.3614 33.9833L62.4071 35.9376L63.8213 37.3518L65.7756 35.3975L64.3614 33.9833ZM64.3614 30.7307C65.2596 31.6289 65.2596 33.0851 64.3614 33.9833L65.7756 35.3975C67.4548 33.7183 67.4548 30.9957 65.7756 29.3165L64.3614 30.7307ZM65.7756 29.3165C64.096 27.6369 61.3727 27.6373 59.6936 29.3174L61.1083 30.7312C62.0064 29.8325 63.463 29.8323 64.3614 30.7307L65.7756 29.3165Z" fill="#444444"/>
<path fill-rule="evenodd" clip-rule="evenodd" d="M51.3131 30.1764C52.602 28.8875 54.6917 28.8875 55.9806 30.1764C57.2695 31.4653 57.2695 33.5551 55.9806 34.844L45.3866 45.438C45.3926 45.4446 45.3987 45.4512 45.4047 45.4578L54.3678 36.4948C55.6567 35.2059 57.7464 35.2059 59.0353 36.4948C60.3242 37.7837 60.3242 39.8734 59.0353 41.1623L49.328 50.8696C49.3326 50.8787 49.3371 50.8878 49.3416 50.8969L55.1124 45.1261C56.3201 43.9184 58.2783 43.9184 59.486 45.1261C60.6937 46.3339 60.6937 48.292 59.486 49.4997L48.1714 60.8143C48.0632 60.9314 47.9509 61.0481 47.8345 61.1646C46.0922 62.9069 43.555 64.759 42.1033 65.4175C36.9039 67.7763 30.9526 66.6555 26.5726 62.2755C23.5859 59.2888 21.8078 55.438 21.9476 51.5852C22.0347 49.1866 22.5128 47.4124 23.122 45.2508C23.1331 45.1936 23.1455 45.1365 23.1592 45.0795L26.0274 33.1286C26.4188 31.4978 28.0879 30.5197 29.7019 30.9754C31.0537 31.357 31.9498 32.6379 31.8449 34.0386L31.3594 40.519C31.6217 40.3719 32.0591 39.9667 32.5052 39.5533C32.7394 39.3363 32.9761 39.117 33.1912 38.9316L43.8717 28.2511C45.1606 26.9622 47.2503 26.9622 48.5392 28.2511C49.8281 29.54 49.8281 31.6298 48.5392 32.9187L40.6468 40.8111C40.6525 40.8159 40.6583 40.8207 40.6641 40.8255C40.6644 40.8252 40.6647 40.8249 40.665 40.8245L51.3131 30.1764Z" fill="white"/>
<path d="M51.3131 30.1764L50.606 29.4693L51.3131 30.1764ZM55.9806 34.844L55.2735 34.1369L55.9806 34.844ZM45.3866 45.438L44.6795 44.7309C44.3005 45.1098 44.2877 45.7201 44.6503 46.1147L45.3866 45.438ZM45.4047 45.4578L44.668 46.134C44.8524 46.3349 45.1108 46.4517 45.3833 46.4576C45.6559 46.4634 45.9191 46.3577 46.1119 46.1649L45.4047 45.4578ZM59.0353 41.1623L59.7424 41.8694L59.0353 41.1623ZM49.328 50.8696L48.6209 50.1625C48.3162 50.4672 48.2409 50.9328 48.4342 51.318L49.328 50.8696ZM49.3416 50.8969L48.4468 51.3434C48.5904 51.6311 48.8636 51.8323 49.181 51.8839C49.4985 51.9356 49.8213 51.8314 50.0487 51.604L49.3416 50.8969ZM55.1124 45.1261L55.8195 45.8332L55.1124 45.1261ZM59.486 49.4997L58.7789 48.7926L59.486 49.4997ZM48.1714 60.8143L47.4643 60.1072C47.455 60.1165 47.4459 60.126 47.437 60.1356L48.1714 60.8143ZM42.1033 65.4175L41.6902 64.5069L42.1033 65.4175ZM21.9476 51.5852L20.9483 51.5489L21.9476 51.5852ZM23.122 45.2508L24.0845 45.5221C24.0921 45.4953 24.0985 45.4682 24.1038 45.4409L23.122 45.2508ZM23.1592 45.0795L22.1868 44.8461L22.1868 44.8461L23.1592 45.0795ZM26.0274 33.1286L25.055 32.8953L26.0274 33.1286ZM29.7019 30.9754L29.9736 30.013L29.9736 30.013L29.7019 30.9754ZM31.8449 34.0386L30.8477 33.9639L30.8477 33.9639L31.8449 34.0386ZM31.3594 40.519L30.3622 40.4443C30.3346 40.8116 30.5113 41.1644 30.822 41.3623C31.1327 41.5603 31.5271 41.5714 31.8484 41.3912L31.3594 40.519ZM32.5052 39.5533L31.8255 38.8198L31.8255 38.8198L32.5052 39.5533ZM33.1912 38.9316L33.8441 39.6891C33.8628 39.673 33.8809 39.6562 33.8983 39.6387L33.1912 38.9316ZM48.5392 32.9187L47.8321 32.2116L48.5392 32.9187ZM40.6468 40.8111L39.9397 40.104C39.7407 40.303 39.6347 40.5767 39.6479 40.8578C39.661 41.139 39.792 41.4015 40.0087 41.5811L40.6468 40.8111ZM40.6641 40.8255L40.0251 41.5947C40.4225 41.9248 41.0059 41.8978 41.3712 41.5326L40.6641 40.8255ZM40.665 40.8245L41.3721 41.5317L40.665 40.8245ZM56.6877 29.4693C55.0083 27.7899 52.2854 27.7899 50.606 29.4693L52.0202 30.8835C52.9186 29.9852 54.3751 29.9852 55.2735 30.8835L56.6877 29.4693ZM56.6877 35.5511C58.3672 33.8716 58.3672 31.1487 56.6877 29.4693L55.2735 30.8835C56.1719 31.7819 56.1719 33.2385 55.2735 34.1369L56.6877 35.5511ZM46.0937 46.1451L56.6877 35.5511L55.2735 34.1369L44.6795 44.7309L46.0937 46.1451ZM44.6503 46.1147C44.6562 46.1211 44.6621 46.1275 44.668 46.134L46.1415 44.7816C46.1353 44.7749 46.1291 44.7682 46.1229 44.7613L44.6503 46.1147ZM53.6607 35.7877L44.6976 44.7507L46.1119 46.1649L55.0749 37.2019L53.6607 35.7877ZM59.7424 35.7877C58.063 34.1083 55.3401 34.1082 53.6607 35.7877L55.0749 37.2019C55.9733 36.3035 57.4298 36.3035 58.3282 37.2019L59.7424 35.7877ZM59.7424 41.8694C61.4218 40.19 61.4218 37.4671 59.7424 35.7877L58.3282 37.2019C59.2266 38.1003 59.2266 39.5568 58.3282 40.4552L59.7424 41.8694ZM50.0351 51.5767L59.7424 41.8694L58.3282 40.4552L48.6209 50.1625L50.0351 51.5767ZM48.4342 51.318C48.4383 51.3263 48.4425 51.3347 48.4468 51.3434L50.2364 50.4504C50.2317 50.4409 50.2268 50.4311 50.2218 50.4213L48.4342 51.318ZM50.0487 51.604L55.8195 45.8332L54.4053 44.419L48.6345 50.1898L50.0487 51.604ZM55.8195 45.8332C56.6367 45.016 57.9617 45.016 58.7789 45.8332L60.1931 44.419C58.5948 42.8208 56.0036 42.8208 54.4053 44.419L55.8195 45.8332ZM58.7789 45.8332C59.5961 46.6504 59.5961 47.9754 58.7789 48.7926L60.1931 50.2068C61.7914 48.6086 61.7914 46.0173 60.1931 44.419L58.7789 45.8332ZM58.7789 48.7926L47.4643 60.1072L48.8785 61.5214L60.1931 50.2068L58.7789 48.7926ZM47.437 60.1356C47.3379 60.2428 47.2348 60.3501 47.1274 60.4574L48.5416 61.8717C48.6671 61.7462 48.7885 61.62 48.9058 61.493L47.437 60.1356ZM47.1274 60.4574C45.4385 62.1464 42.9981 63.9135 41.6902 64.5069L42.5165 66.3282C44.1119 65.6044 46.7458 63.6674 48.5416 61.8717L47.1274 60.4574ZM41.6902 64.5069C36.8937 66.6829 31.3839 65.6725 27.2797 61.5684L25.8655 62.9826C30.5213 67.6384 36.9141 68.8698 42.5165 66.3282L41.6902 64.5069ZM27.2797 61.5684C24.4462 58.7349 22.8193 55.1409 22.947 51.6215L20.9483 51.5489C20.7964 55.7351 22.7256 59.8427 25.8655 62.9826L27.2797 61.5684ZM22.947 51.6215C23.0293 49.3519 23.4771 47.6772 24.0845 45.5221L22.1595 44.9795C21.5484 47.1477 21.04 49.0213 20.9483 51.5489L22.947 51.6215ZM24.1038 45.4409C24.1121 45.3982 24.1213 45.3555 24.1316 45.3129L22.1868 44.8461C22.1696 44.9175 22.1542 44.989 22.1403 45.0606L24.1038 45.4409ZM24.1315 45.3129L26.9997 33.362L25.055 32.8953L22.1868 44.8461L24.1315 45.3129ZM26.9997 33.362C27.2586 32.2833 28.3626 31.6364 29.4302 31.9378L29.9736 30.013C27.8131 29.4031 25.5789 30.7123 25.055 32.8953L26.9997 33.362ZM29.4302 31.9378C30.3244 32.1902 30.9171 33.0374 30.8477 33.9639L32.8421 34.1133C32.9825 32.2383 31.7831 30.5238 29.9736 30.013L29.4302 31.9378ZM30.8477 33.9639L30.3622 40.4443L32.3566 40.5937L32.8421 34.1133L30.8477 33.9639ZM31.8484 41.3912C32.0777 41.2627 32.3207 41.0628 32.518 40.892C32.7311 40.7074 32.9651 40.4904 33.1848 40.2869L31.8255 38.8198C31.5991 39.0296 31.3914 39.2219 31.2088 39.38C31.1183 39.4584 31.0412 39.522 30.9775 39.5708C30.946 39.595 30.9206 39.6134 30.9009 39.6269C30.8911 39.6336 30.8836 39.6385 30.8781 39.6419C30.8726 39.6454 30.8701 39.6468 30.8703 39.6467L31.8484 41.3912ZM33.1848 40.2869C33.4225 40.0667 33.6453 39.8604 33.8441 39.6891L32.5383 38.1741C32.307 38.3735 32.0564 38.6059 31.8255 38.8198L33.1848 40.2869ZM33.8983 39.6387L44.5788 28.9582L43.1646 27.544L32.4841 38.2245L33.8983 39.6387ZM44.5788 28.9582C45.4772 28.0599 46.9337 28.0599 47.8321 28.9582L49.2463 27.544C47.5669 25.8646 44.844 25.8646 43.1646 27.544L44.5788 28.9582ZM47.8321 28.9582C48.7305 29.8566 48.7305 31.3132 47.8321 32.2116L49.2463 33.6258C50.9258 31.9463 50.9258 29.2235 49.2463 27.544L47.8321 28.9582ZM47.8321 32.2116L39.9397 40.104L41.3539 41.5182L49.2463 33.6258L47.8321 32.2116ZM40.0087 41.5811C40.0141 41.5856 40.0195 41.5901 40.0251 41.5947L41.303 40.0562C41.297 40.0513 41.291 40.0462 41.2848 40.0411L40.0087 41.5811ZM39.9579 40.1174L39.9579 40.1174C39.9579 40.1174 39.9579 40.1174 39.9579 40.1174L39.9579 40.1174L39.9579 40.1174C39.9578 40.1174 39.9578 40.1174 39.9578 40.1175L39.9578 40.1175L39.9578 40.1175C39.9578 40.1175 39.9578 40.1175 39.9578 40.1175C39.9578 40.1175 39.9578 40.1175 39.9578 40.1175L39.9578 40.1175C39.9578 40.1175 39.9578 40.1175 39.9578 40.1175C39.9578 40.1175 39.9578 40.1175 39.9578 40.1175L39.9578 40.1175C39.9578 40.1175 39.9578 40.1175 39.9578 40.1175C39.9578 40.1175 39.9578 40.1175 39.9578 40.1175L39.9578 40.1175C39.9578 40.1175 39.9578 40.1175 39.9578 40.1175C39.9578 40.1175 39.9578 40.1175 39.9578 40.1175L39.9578 40.1175C39.9578 40.1175 39.9578 40.1175 39.9578 40.1175C39.9578 40.1175 39.9578 40.1175 39.9578 40.1175L39.9578 40.1175C39.9578 40.1175 39.9578 40.1175 39.9578 40.1175C39.9578 40.1175 39.9578 40.1175 39.9578 40.1175L39.9578 40.1175L39.9578 40.1175C39.9578 40.1175 39.9578 40.1175 39.9578 40.1175L39.9578 40.1175L39.9578 40.1175C39.9578 40.1175 39.9578 40.1175 39.9578 40.1175C39.9578 40.1175 39.9578 40.1175 39.9578 40.1175L39.9578 40.1175C39.9578 40.1175 39.9578 40.1175 39.9578 40.1175C39.9578 40.1175 39.9578 40.1175 39.9578 40.1175L39.9578 40.1175C39.9578 40.1175 39.9578 40.1175 39.9578 40.1175C39.9578 40.1175 39.9578 40.1175 39.9578 40.1175L39.9578 40.1175C39.9578 40.1175 39.9578 40.1175 39.9578 40.1175C39.9578 40.1175 39.9578 40.1175 39.9578 40.1175L39.9578 40.1175C39.9578 40.1175 39.9578 40.1175 39.9578 40.1175C39.9578 40.1175 39.9578 40.1175 39.9578 40.1175L39.9578 40.1175C39.9578 40.1175 39.9578 40.1175 39.9578 40.1175C39.9578 40.1175 39.9578 40.1175 39.9578 40.1175L39.9578 40.1175L39.9578 40.1175C39.9578 40.1175 39.9578 40.1175 39.9578 40.1175L39.9578 40.1175L39.9578 40.1175C39.9578 40.1175 39.9578 40.1175 39.9578 40.1175C39.9578 40.1175 39.9578 40.1175 39.9578 40.1175L39.9578 40.1175C39.9578 40.1175 39.9578 40.1175 39.9578 40.1175C39.9578 40.1175 39.9578 40.1175 39.9578 40.1175L39.9578 40.1175C39.9578 40.1175 39.9578 40.1175 39.9578 40.1175C39.9578 40.1175 39.9578 40.1175 39.9578 40.1175L39.9578 40.1175C39.9578 40.1175 39.9578 40.1175 39.9578 40.1175C39.9577 40.1176 39.9577 40.1176 39.9577 40.1176L39.9577 40.1176C39.9577 40.1176 39.9577 40.1176 39.9577 40.1176C39.9577 40.1176 39.9577 40.1176 39.9577 40.1176L39.9577 40.1176C39.9577 40.1176 39.9577 40.1176 39.9577 40.1176C39.9577 40.1176 39.9577 40.1176 39.9577 40.1176L39.9577 40.1176L39.9577 40.1176C39.9577 40.1176 39.9577 40.1176 39.9577 40.1176L39.9577 40.1176L39.9577 40.1176C39.9577 40.1176 39.9577 40.1176 39.9577 40.1176C39.9577 40.1176 39.9577 40.1176 39.9577 40.1176L39.9577 40.1176C39.9577 40.1176 39.9577 40.1176 39.9577 40.1176C39.9577 40.1176 39.9577 40.1176 39.9577 40.1176L39.9577 40.1176C39.9577 40.1176 39.9577 40.1176 39.9577 40.1176C39.9577 40.1176 39.9577 40.1176 39.9577 40.1176L39.9577 40.1176C39.9577 40.1176 39.9577 40.1176 39.9577 40.1176C39.9577 40.1176 39.9577 40.1176 39.9577 40.1176L39.9577 40.1176C39.9577 40.1176 39.9577 40.1176 39.9577 40.1176C39.9577 40.1176 39.9577 40.1176 39.9577 40.1176L39.9577 40.1176C39.9577 40.1176 39.9577 40.1176 39.9577 40.1176C39.9577 40.1176 39.9577 40.1176 39.9577 40.1176L39.9577 40.1176L39.9577 40.1176C39.9577 40.1176 39.9577 40.1176 39.9577 40.1176L39.9577 40.1176L39.9577 40.1176C39.9577 40.1176 39.9577 40.1176 39.9577 40.1176C39.9577 40.1176 39.9577 40.1176 39.9577 40.1176L39.9577 40.1176C39.9577 40.1176 39.9577 40.1176 39.9577 40.1176C39.9577 40.1176 39.9577 40.1176 39.9577 40.1176L39.9577 40.1176C39.9577 40.1176 39.9577 40.1176 39.9577 40.1176C39.9577 40.1176 39.9577 40.1176 39.9577 40.1176L39.9577 40.1176C39.9577 40.1176 39.9577 40.1176 39.9577 40.1176C39.9577 40.1176 39.9577 40.1176 39.9577 40.1176L39.9577 40.1176C39.9577 40.1176 39.9577 40.1176 39.9577 40.1176C39.9577 40.1176 39.9577 40.1176 39.9577 40.1176L39.9577 40.1176C39.9577 40.1176 39.9577 40.1176 39.9577 40.1176C39.9577 40.1176 39.9577 40.1176 39.9577 40.1176L39.9577 40.1176L39.9577 40.1176C39.9577 40.1176 39.9577 40.1176 39.9577 40.1176L39.9577 40.1176L39.9577 40.1176C39.9576 40.1177 39.9576 40.1177 39.9576 40.1177L39.9576 40.1177L39.9576 40.1177C39.9576 40.1177 39.9576 40.1177 39.9576 40.1177C39.9576 40.1177 39.9576 40.1177 39.9576 40.1177L39.9576 40.1177C39.9576 40.1177 39.9576 40.1177 39.9576 40.1177C39.9576 40.1177 39.9576 40.1177 39.9576 40.1177L39.9576 40.1177C39.9576 40.1177 39.9576 40.1177 39.9576 40.1177C39.9576 40.1177 39.9576 40.1177 39.9576 40.1177L39.9576 40.1177C39.9576 40.1177 39.9576 40.1177 39.9576 40.1177C39.9576 40.1177 39.9576 40.1177 39.9576 40.1177L39.9576 40.1177C39.9576 40.1177 39.9576 40.1177 39.9576 40.1177C39.9576 40.1177 39.9576 40.1177 39.9576 40.1177L39.9576 40.1177L39.9576 40.1177C39.9576 40.1177 39.9576 40.1177 39.9576 40.1177L39.9576 40.1177L39.9576 40.1177C39.9576 40.1177 39.9576 40.1177 39.9576 40.1177L39.9576 40.1177L39.9576 40.1177C39.9576 40.1177 39.9576 40.1177 39.9576 40.1177C39.9576 40.1177 39.9576 40.1177 39.9576 40.1177L39.9576 40.1177C39.9576 40.1177 39.9576 40.1177 39.9576 40.1177C39.9576 40.1177 39.9576 40.1177 39.9576 40.1177L39.9576 40.1177C39.9576 40.1177 39.9576 40.1177 39.9576 40.1177C39.9576 40.1177 39.9576 40.1177 39.9576 40.1177L39.9576 40.1177C39.9576 40.1177 39.9576 40.1177 39.9576 40.1177C39.9576 40.1177 39.9576 40.1177 39.9576 40.1177L39.9576 40.1177C39.9576 40.1177 39.9576 40.1177 39.9576 40.1177C39.9576 40.1177 39.9576 40.1177 39.9576 40.1177L39.9576 40.1177L39.9576 40.1177C39.9576 40.1177 39.9576 40.1177 39.9576 40.1177L39.9576 40.1177L39.9576 40.1177C39.9576 40.1177 39.9576 40.1177 39.9576 40.1177L39.9576 40.1177L39.9576 40.1177C39.9576 40.1177 39.9576 40.1177 39.9576 40.1177C39.9576 40.1177 39.9576 40.1177 39.9576 40.1177L39.9576 40.1177C39.9576 40.1177 39.9576 40.1177 39.9576 40.1177C39.9576 40.1177 39.9576 40.1177 39.9576 40.1177L39.9576 40.1177C39.9576 40.1177 39.9576 40.1177 39.9576 40.1177C39.9576 40.1177 39.9576 40.1177 39.9576 40.1177L39.9576 40.1177C39.9575 40.1178 39.9575 40.1178 39.9575 40.1178C39.9575 40.1178 39.9575 40.1178 39.9575 40.1178L39.9575 40.1178C39.9575 40.1178 39.9575 40.1178 39.9575 40.1178C39.9575 40.1178 39.9575 40.1178 39.9575 40.1178L39.9575 40.1178L39.9575 40.1178C39.9575 40.1178 39.9575 40.1178 39.9575 40.1178L39.9575 40.1178L39.9575 40.1178C39.9575 40.1178 39.9575 40.1178 39.9575 40.1178L39.9575 40.1178L39.9575 40.1178C39.9575 40.1178 39.9575 40.1178 39.9575 40.1178C39.9575 40.1178 39.9575 40.1178 39.9575 40.1178L39.9575 40.1178C39.9575 40.1178 39.9575 40.1178 39.9575 40.1178C39.9575 40.1178 39.9575 40.1178 39.9575 40.1178L39.9575 40.1178C39.9575 40.1178 39.9575 40.1178 39.9575 40.1178C39.9575 40.1178 39.9575 40.1178 39.9575 40.1178L39.9575 40.1178C39.9575 40.1178 39.9575 40.1178 39.9575 40.1178C39.9575 40.1178 39.9575 40.1178 39.9575 40.1178L39.9575 40.1178C39.9575 40.1178 39.9575 40.1178 39.9575 40.1178C39.9575 40.1178 39.9575 40.1178 39.9575 40.1178L39.9575 40.1178L39.9575 40.1178C39.9575 40.1178 39.9575 40.1178 39.9575 40.1178L39.9575 40.1178L39.9575 40.1178C39.9575 40.1178 39.9575 40.1178 39.9575 40.1178L39.9575 40.1178L39.9575 40.1178C39.9575 40.1178 39.9575 40.1178 39.9575 40.1178C39.9575 40.1178 39.9575 40.1178 39.9575 40.1178L39.9575 40.1178C39.9575 40.1178 39.9575 40.1178 39.9575 40.1178C39.9575 40.1178 39.9575 40.1178 39.9575 40.1178L39.9575 40.1178C39.9575 40.1178 39.9575 40.1178 39.9575 40.1178C39.9575 40.1178 39.9575 40.1178 39.9575 40.1178L39.9575 40.1178C39.9575 40.1178 39.9575 40.1178 39.9575 40.1178C39.9575 40.1178 39.9575 40.1178 39.9575 40.1178L39.9575 40.1178C39.9575 40.1178 39.9575 40.1178 39.9575 40.1178C39.9575 40.1178 39.9575 40.1178 39.9575 40.1178L39.9575 40.1178L39.9575 40.1178C39.9575 40.1178 39.9575 40.1178 39.9575 40.1178L39.9575 40.1178L39.9575 40.1178C39.9575 40.1178 39.9575 40.1178 39.9575 40.1178L39.9575 40.1178L39.9574 40.1179C39.9574 40.1179 39.9574 40.1179 39.9574 40.1179C39.9574 40.1179 39.9574 40.1179 39.9574 40.1179L39.9574 40.1179C39.9574 40.1179 39.9574 40.1179 39.9574 40.1179C39.9574 40.1179 39.9574 40.1179 39.9574 40.1179L39.9574 40.1179C39.9574 40.1179 39.9574 40.1179 39.9574 40.1179C39.9574 40.1179 39.9574 40.1179 39.9574 40.1179L39.9574 40.1179C39.9574 40.1179 39.9574 40.1179 39.9574 40.1179C39.9574 40.1179 39.9574 40.1179 39.9574 40.1179L39.9574 40.1179C39.9574 40.1179 39.9574 40.1179 39.9574 40.1179C39.9574 40.1179 39.9574 40.1179 39.9574 40.1179L39.9574 40.1179L39.9574 40.1179C39.9574 40.1179 39.9574 40.1179 39.9574 40.1179L39.9574 40.1179L39.9574 40.1179C39.9574 40.1179 39.9574 40.1179 39.9574 40.1179L39.9574 40.1179L39.9574 40.1179C39.9574 40.1179 39.9574 40.1179 39.9574 40.1179C39.9574 40.1179 39.9574 40.1179 39.9574 40.1179L39.9574 40.1179C39.9574 40.1179 39.9574 40.1179 39.9574 40.1179C39.9574 40.1179 39.9574 40.1179 39.9574 40.1179L39.9574 40.1179C39.9574 40.1179 39.9574 40.1179 39.9574 40.1179C39.9574 40.1179 39.9574 40.1179 39.9574 40.1179L39.9574 40.1179C39.9574 40.1179 39.9574 40.1179 39.9574 40.1179C39.9574 40.1179 39.9574 40.1179 39.9574 40.1179L39.9574 40.1179C39.9574 40.1179 39.9574 40.1179 39.9574 40.1179C39.9574 40.1179 39.9574 40.1179 39.9574 40.1179L39.9574 40.1179L39.9574 40.1179C39.9574 40.1179 39.9574 40.1179 39.9574 40.1179L39.9574 40.1179L39.9574 40.1179C39.9574 40.1179 39.9574 40.1179 39.9574 40.1179L39.9574 40.1179L39.9574 40.1179C39.9574 40.1179 39.9574 40.1179 39.9574 40.1179C39.9574 40.1179 39.9574 40.1179 39.9574 40.1179L39.9574 40.1179C39.9574 40.1179 39.9574 40.1179 39.9574 40.1179C39.9574 40.1179 39.9574 40.1179 39.9574 40.1179L39.9574 40.1179C39.9574 40.1179 39.9574 40.1179 39.9574 40.1179C39.9574 40.1179 39.9574 40.1179 39.9574 40.1179L39.9574 40.1179C39.9574 40.1179 39.9574 40.1179 39.9574 40.1179C39.9574 40.1179 39.9574 40.1179 39.9574 40.1179L39.9573 40.1179C39.9573 40.118 39.9573 40.118 39.9573 40.118C39.9573 40.118 39.9573 40.118 39.9573 40.118L39.9573 40.118C39.9573 40.118 39.9573 40.118 39.9573 40.118C39.9573 40.118 39.9573 40.118 39.9573 40.118L39.9573 40.118L39.9573 40.118C39.9573 40.118 39.9573 40.118 39.9573 40.118L39.9573 40.118L39.9573 40.118C39.9573 40.118 39.9573 40.118 39.9573 40.118C39.9573 40.118 39.9573 40.118 39.9573 40.118L39.9573 40.118C39.9573 40.118 39.9573 40.118 39.9573 40.118C39.9573 40.118 39.9573 40.118 39.9573 40.118L39.9573 40.118C39.9573 40.118 39.9573 40.118 39.9573 40.118C39.9573 40.118 39.9573 40.118 39.9573 40.118L39.9573 40.118C39.9573 40.118 39.9573 40.118 39.9573 40.118C39.9573 40.118 39.9573 40.118 39.9573 40.118L39.9573 40.118C39.9573 40.118 39.9573 40.118 39.9573 40.118C39.9573 40.118 39.9573 40.118 39.9573 40.118L39.9573 40.118C39.9573 40.118 39.9573 40.118 39.9573 40.118C39.9573 40.118 39.9573 40.118 39.9573 40.118L39.9573 40.118L39.9573 40.118C39.9573 40.118 39.9573 40.118 39.9573 40.118L39.9573 40.118L39.9573 40.118C39.9573 40.118 39.9573 40.118 39.9573 40.118C39.9573 40.118 39.9573 40.118 39.9573 40.118L39.9573 40.118C39.9573 40.118 39.9573 40.118 39.9573 40.118C39.9573 40.118 39.9573 40.118 39.9573 40.118L39.9573 40.118C39.9573 40.118 39.9573 40.118 39.9573 40.118C39.9573 40.118 39.9573 40.118 39.9573 40.118L39.9573 40.118C39.9573 40.118 39.9573 40.118 39.9573 40.118C39.9573 40.118 39.9573 40.118 39.9573 40.118L39.9573 40.118C39.9573 40.118 39.9573 40.118 39.9573 40.118C39.9573 40.118 39.9573 40.118 39.9573 40.118L39.9573 40.118C39.9573 40.118 39.9573 40.118 39.9573 40.118C39.9573 40.118 39.9573 40.118 39.9573 40.118L39.9573 40.118L39.9573 40.118C39.9573 40.118 39.9573 40.118 39.9573 40.118L39.9573 40.118L39.9573 40.118C39.9573 40.118 39.9573 40.118 39.9573 40.118C39.9573 40.118 39.9573 40.118 39.9572 40.118L39.9572 40.1181C39.9572 40.1181 39.9572 40.1181 39.9572 40.1181C39.9572 40.1181 39.9572 40.1181 39.9572 40.1181L39.9572 40.1181C39.9572 40.1181 39.9572 40.1181 39.9572 40.1181C39.9572 40.1181 39.9572 40.1181 39.9572 40.1181L39.9572 40.1181C39.9572 40.1181 39.9572 40.1181 39.9572 40.1181C39.9572 40.1181 39.9572 40.1181 39.9572 40.1181L39.9572 40.1181C39.9572 40.1181 39.9572 40.1181 39.9572 40.1181C39.9572 40.1181 39.9572 40.1181 39.9572 40.1181L39.9572 40.1181C39.9572 40.1181 39.9572 40.1181 39.9572 40.1181C39.9572 40.1181 39.9572 40.1181 39.9572 40.1181L39.9572 40.1181L39.9572 40.1181C39.9572 40.1181 39.9572 40.1181 39.9572 40.1181L39.9572 40.1181L39.9572 40.1181C39.9572 40.1181 39.9572 40.1181 39.9572 40.1181L39.9572 40.1181L39.9572 40.1181C39.9572 40.1181 39.9572 40.1181 39.9572 40.1181C39.9572 40.1181 39.9572 40.1181 39.9572 40.1181L39.9572 40.1181C39.9572 40.1181 39.9572 40.1181 39.9572 40.1181C39.9572 40.1181 39.9572 40.1181 39.9572 40.1181L39.9572 40.1181C39.9572 40.1181 39.9572 40.1181 39.9572 40.1181C39.9572 40.1181 39.9572 40.1181 39.9572 40.1181L39.9572 40.1181C39.9572 40.1181 39.9572 40.1181 39.9572 40.1181C39.9572 40.1181 39.9572 40.1181 39.9572 40.1181L39.9572 40.1181C39.9572 40.1181 39.9572 40.1181 39.9572 40.1181C39.9572 40.1181 39.9572 40.1181 39.9572 40.1181L39.9572 40.1181L39.9572 40.1181C39.9572 40.1181 39.9572 40.1181 39.9572 40.1181L39.9572 40.1181L39.9572 40.1181C39.9572 40.1181 39.9572 40.1181 39.9572 40.1181L39.9572 40.1181L39.9572 40.1181C39.9572 40.1181 39.9572 40.1181 39.9572 40.1181C39.9572 40.1181 39.9572 40.1181 39.9572 40.1181L39.9572 40.1181C39.9572 40.1181 39.9572 40.1181 39.9572 40.1181C39.9572 40.1181 39.9572 40.1181 39.9572 40.1181L39.9572 40.1181C39.9572 40.1181 39.9572 40.1181 39.9572 40.1181C39.9572 40.1181 39.9572 40.1181 39.9572 40.1181L39.9572 40.1181C39.9572 40.1181 39.9572 40.1181 39.9572 40.1181C39.9572 40.1181 39.9572 40.1181 39.9571 40.1181L39.9571 40.1182C39.9571 40.1182 39.9571 40.1182 39.9571 40.1182C39.9571 40.1182 39.9571 40.1182 39.9571 40.1182L39.9571 40.1182L39.9571 40.1182C39.9571 40.1182 39.9571 40.1182 39.9571 40.1182L39.9571 40.1182L39.9571 40.1182C39.9571 40.1182 39.9571 40.1182 39.9571 40.1182L39.9571 40.1182L39.9571 40.1182C39.9571 40.1182 39.9571 40.1182 39.9571 40.1182C39.9571 40.1182 39.9571 40.1182 39.9571 40.1182L39.9571 40.1182C39.9571 40.1182 39.9571 40.1182 39.9571 40.1182C39.9571 40.1182 39.9571 40.1182 39.9571 40.1182L39.9571 40.1182C39.9571 40.1182 39.9571 40.1182 39.9571 40.1182C39.9571 40.1182 39.9571 40.1182 39.9571 40.1182L39.9571 40.1182C39.9571 40.1182 39.9571 40.1182 39.9571 40.1182C39.9571 40.1182 39.9571 40.1182 39.9571 40.1182L39.9571 40.1182C39.9571 40.1182 39.9571 40.1182 39.9571 40.1182C39.9571 40.1182 39.9571 40.1182 39.9571 40.1182L39.9571 40.1182L39.9571 40.1182C39.9571 40.1182 39.9571 40.1182 39.9571 40.1182L39.9571 40.1182L39.9571 40.1182C39.9571 40.1182 39.9571 40.1182 39.9571 40.1182L39.9571 40.1182L39.9571 40.1182C39.9571 40.1182 39.9571 40.1182 39.9571 40.1182C39.9571 40.1182 39.9571 40.1182 39.9571 40.1182L39.9571 40.1182C39.9571 40.1182 39.9571 40.1182 39.9571 40.1182C39.9571 40.1182 39.9571 40.1182 39.9571 40.1182L39.9571 40.1182C39.9571 40.1182 39.9571 40.1182 39.9571 40.1182C39.9571 40.1182 39.9571 40.1182 39.9571 40.1182L39.9571 40.1182C39.9571 40.1182 39.9571 40.1182 39.9571 40.1182C39.9571 40.1182 39.9571 40.1182 39.9571 40.1182L39.9571 40.1182C39.9571 40.1182 39.9571 40.1182 39.9571 40.1182C39.9571 40.1182 39.9571 40.1182 39.9571 40.1182L39.9571 40.1182L39.9571 40.1182C39.9571 40.1182 39.9571 40.1182 39.9571 40.1182L39.9571 40.1182L39.9571 40.1182C39.9571 40.1182 39.9571 40.1182 39.9571 40.1182L39.9571 40.1182L39.9571 40.1182C39.9571 40.1182 39.9571 40.1182 39.9571 40.1182C39.9571 40.1182 39.9571 40.1182 39.957 40.1183L39.957 40.1183C39.957 40.1183 39.957 40.1183 39.957 40.1183C39.957 40.1183 39.957 40.1183 39.957 40.1183L39.957 40.1183C39.957 40.1183 39.957 40.1183 39.957 40.1183C39.957 40.1183 39.957 40.1183 39.957 40.1183L39.957 40.1183C39.957 40.1183 39.957 40.1183 39.957 40.1183C39.957 40.1183 39.957 40.1183 39.957 40.1183L39.957 40.1183C39.957 40.1183 39.957 40.1183 39.957 40.1183C39.957 40.1183 39.957 40.1183 39.957 40.1183L39.957 40.1183L39.957 40.1183C39.957 40.1183 39.957 40.1183 39.957 40.1183L39.957 40.1183L39.957 40.1183C39.957 40.1183 39.957 40.1183 39.957 40.1183L39.957 40.1183L39.957 40.1183C39.957 40.1183 39.957 40.1183 39.957 40.1183C39.957 40.1183 39.957 40.1183 39.957 40.1183L39.957 40.1183C39.957 40.1183 39.957 40.1183 39.957 40.1183C39.957 40.1183 39.957 40.1183 39.957 40.1183L39.957 40.1183C39.957 40.1183 39.957 40.1183 39.957 40.1183C39.957 40.1183 39.957 40.1183 39.957 40.1183L39.957 40.1183C39.957 40.1183 39.957 40.1183 39.957 40.1183C39.957 40.1183 39.957 40.1183 39.957 40.1183L39.957 40.1183C39.957 40.1183 39.957 40.1183 39.957 40.1183C39.957 40.1183 39.957 40.1183 39.957 40.1183L39.957 40.1183L39.957 40.1183C39.957 40.1183 39.957 40.1183 39.957 40.1183L39.957 40.1183L39.957 40.1183C39.957 40.1183 39.957 40.1183 39.957 40.1183L39.957 40.1183L39.957 40.1183C39.957 40.1183 39.957 40.1183 39.957 40.1183C39.957 40.1183 39.957 40.1183 39.957 40.1183L39.957 40.1183C39.957 40.1183 39.957 40.1183 39.957 40.1183C39.957 40.1183 39.957 40.1183 39.957 40.1183L39.957 40.1183C39.957 40.1183 39.957 40.1183 39.957 40.1183C39.957 40.1183 39.957 40.1183 39.957 40.1183L39.957 40.1183C39.957 40.1183 39.957 40.1183 39.957 40.1183C39.957 40.1183 39.957 40.1183 39.957 40.1183L39.957 40.1183C39.957 40.1183 39.957 40.1183 39.957 40.1183C39.957 40.1183 39.957 40.1183 39.9569 40.1184L39.9569 40.1184L41.3712 41.5326L41.3712 41.5326C41.3712 41.5326 41.3712 41.5326 41.3712 41.5326C41.3712 41.5326 41.3712 41.5326 41.3712 41.5326L41.3712 41.5326C41.3712 41.5326 41.3712 41.5326 41.3712 41.5326C41.3712 41.5326 41.3712 41.5326 41.3712 41.5326L41.3712 41.5326C41.3712 41.5326 41.3712 41.5326 41.3712 41.5326C41.3712 41.5325 41.3712 41.5325 41.3712 41.5325L41.3712 41.5325C41.3712 41.5325 41.3712 41.5325 41.3712 41.5325C41.3712 41.5325 41.3712 41.5325 41.3712 41.5325L41.3712 41.5325C41.3712 41.5325 41.3712 41.5325 41.3712 41.5325C41.3712 41.5325 41.3712 41.5325 41.3712 41.5325L41.3712 41.5325L41.3712 41.5325C41.3712 41.5325 41.3712 41.5325 41.3712 41.5325L41.3712 41.5325L41.3712 41.5325C41.3712 41.5325 41.3712 41.5325 41.3712 41.5325L41.3712 41.5325L41.3712 41.5325C41.3712 41.5325 41.3712 41.5325 41.3712 41.5325C41.3712 41.5325 41.3712 41.5325 41.3712 41.5325L41.3712 41.5325C41.3712 41.5325 41.3712 41.5325 41.3712 41.5325C41.3712 41.5325 41.3712 41.5325 41.3712 41.5325L41.3712 41.5325C41.3712 41.5325 41.3712 41.5325 41.3712 41.5325C41.3712 41.5325 41.3712 41.5325 41.3712 41.5325L41.3712 41.5325C41.3712 41.5325 41.3712 41.5325 41.3712 41.5325C41.3712 41.5325 41.3712 41.5325 41.3712 41.5325L41.3712 41.5325C41.3712 41.5325 41.3712 41.5325 41.3712 41.5325C41.3712 41.5325 41.3712 41.5325 41.3712 41.5325L41.3712 41.5325L41.3712 41.5325C41.3712 41.5325 41.3712 41.5325 41.3712 41.5325L41.3712 41.5325L41.3712 41.5325C41.3712 41.5325 41.3712 41.5325 41.3712 41.5325L41.3712 41.5325L41.3712 41.5325C41.3712 41.5325 41.3712 41.5325 41.3712 41.5325C41.3712 41.5325 41.3712 41.5325 41.3712 41.5325L41.3712 41.5325C41.3712 41.5325 41.3712 41.5325 41.3712 41.5325C41.3712 41.5325 41.3712 41.5325 41.3712 41.5325L41.3713 41.5325C41.3713 41.5325 41.3713 41.5325 41.3713 41.5325C41.3713 41.5325 41.3713 41.5325 41.3713 41.5325L41.3713 41.5325C41.3713 41.5325 41.3713 41.5325 41.3713 41.5325C41.3713 41.5325 41.3713 41.5325 41.3713 41.5325L41.3713 41.5325C41.3713 41.5325 41.3713 41.5325 41.3713 41.5325C41.3713 41.5325 41.3713 41.5325 41.3713 41.5325L41.3713 41.5325L41.3713 41.5325C41.3713 41.5325 41.3713 41.5325 41.3713 41.5325L41.3713 41.5325L41.3713 41.5325C41.3713 41.5324 41.3713 41.5324 41.3713 41.5324L41.3713 41.5324L41.3713 41.5324C41.3713 41.5324 41.3713 41.5324 41.3713 41.5324C41.3713 41.5324 41.3713 41.5324 41.3713 41.5324L41.3713 41.5324C41.3713 41.5324 41.3713 41.5324 41.3713 41.5324C41.3713 41.5324 41.3713 41.5324 41.3713 41.5324L41.3713 41.5324C41.3713 41.5324 41.3713 41.5324 41.3713 41.5324C41.3713 41.5324 41.3713 41.5324 41.3713 41.5324L41.3713 41.5324C41.3713 41.5324 41.3713 41.5324 41.3713 41.5324C41.3713 41.5324 41.3713 41.5324 41.3713 41.5324L41.3713 41.5324C41.3713 41.5324 41.3713 41.5324 41.3713 41.5324C41.3713 41.5324 41.3713 41.5324 41.3713 41.5324L41.3713 41.5324L41.3713 41.5324C41.3713 41.5324 41.3713 41.5324 41.3713 41.5324L41.3713 41.5324L41.3713 41.5324C41.3713 41.5324 41.3713 41.5324 41.3713 41.5324L41.3713 41.5324L41.3713 41.5324C41.3713 41.5324 41.3713 41.5324 41.3713 41.5324C41.3713 41.5324 41.3713 41.5324 41.3713 41.5324L41.3713 41.5324C41.3713 41.5324 41.3713 41.5324 41.3713 41.5324C41.3713 41.5324 41.3713 41.5324 41.3713 41.5324L41.3713 41.5324C41.3713 41.5324 41.3713 41.5324 41.3713 41.5324C41.3713 41.5324 41.3713 41.5324 41.3713 41.5324L41.3713 41.5324C41.3713 41.5324 41.3713 41.5324 41.3713 41.5324C41.3713 41.5324 41.3713 41.5324 41.3713 41.5324L41.3713 41.5324C41.3713 41.5324 41.3713 41.5324 41.3713 41.5324C41.3713 41.5324 41.3713 41.5324 41.3713 41.5324L41.3713 41.5324L41.3713 41.5324C41.3713 41.5324 41.3713 41.5324 41.3713 41.5324L41.3714 41.5324L41.3714 41.5324C41.3714 41.5324 41.3714 41.5324 41.3714 41.5324L41.3714 41.5324L41.3714 41.5324C41.3714 41.5324 41.3714 41.5324 41.3714 41.5324C41.3714 41.5324 41.3714 41.5324 41.3714 41.5324L41.3714 41.5324C41.3714 41.5324 41.3714 41.5324 41.3714 41.5324C41.3714 41.5324 41.3714 41.5324 41.3714 41.5324L41.3714 41.5324C41.3714 41.5324 41.3714 41.5324 41.3714 41.5324C41.3714 41.5324 41.3714 41.5324 41.3714 41.5324L41.3714 41.5324C41.3714 41.5324 41.3714 41.5324 41.3714 41.5324C41.3714 41.5323 41.3714 41.5323 41.3714 41.5323L41.3714 41.5323C41.3714 41.5323 41.3714 41.5323 41.3714 41.5323C41.3714 41.5323 41.3714 41.5323 41.3714 41.5323L41.3714 41.5323L41.3714 41.5323C41.3714 41.5323 41.3714 41.5323 41.3714 41.5323L41.3714 41.5323L41.3714 41.5323C41.3714 41.5323 41.3714 41.5323 41.3714 41.5323L41.3714 41.5323L41.3714 41.5323C41.3714 41.5323 41.3714 41.5323 41.3714 41.5323C41.3714 41.5323 41.3714 41.5323 41.3714 41.5323L41.3714 41.5323C41.3714 41.5323 41.3714 41.5323 41.3714 41.5323C41.3714 41.5323 41.3714 41.5323 41.3714 41.5323L41.3714 41.5323C41.3714 41.5323 41.3714 41.5323 41.3714 41.5323C41.3714 41.5323 41.3714 41.5323 41.3714 41.5323L41.3714 41.5323C41.3714 41.5323 41.3714 41.5323 41.3714 41.5323C41.3714 41.5323 41.3714 41.5323 41.3714 41.5323L41.3714 41.5323C41.3714 41.5323 41.3714 41.5323 41.3714 41.5323C41.3714 41.5323 41.3714 41.5323 41.3714 41.5323L41.3714 41.5323L41.3714 41.5323C41.3714 41.5323 41.3714 41.5323 41.3714 41.5323L41.3714 41.5323L41.3714 41.5323C41.3714 41.5323 41.3714 41.5323 41.3714 41.5323L41.3714 41.5323L41.3714 41.5323C41.3714 41.5323 41.3714 41.5323 41.3714 41.5323C41.3714 41.5323 41.3714 41.5323 41.3714 41.5323L41.3714 41.5323C41.3714 41.5323 41.3714 41.5323 41.3714 41.5323C41.3714 41.5323 41.3714 41.5323 41.3714 41.5323L41.3714 41.5323C41.3714 41.5323 41.3714 41.5323 41.3714 41.5323C41.3714 41.5323 41.3714 41.5323 41.3715 41.5323L41.3715 41.5323C41.3715 41.5323 41.3715 41.5323 41.3715 41.5323C41.3715 41.5323 41.3715 41.5323 41.3715 41.5323L41.3715 41.5323C41.3715 41.5323 41.3715 41.5323 41.3715 41.5323C41.3715 41.5323 41.3715 41.5323 41.3715 41.5323L41.3715 41.5323C41.3715 41.5323 41.3715 41.5323 41.3715 41.5323C41.3715 41.5323 41.3715 41.5323 41.3715 41.5323L41.3715 41.5323L41.3715 41.5323C41.3715 41.5323 41.3715 41.5323 41.3715 41.5323L41.3715 41.5323L41.3715 41.5323C41.3715 41.5322 41.3715 41.5322 41.3715 41.5322C41.3715 41.5322 41.3715 41.5322 41.3715 41.5322L41.3715 41.5322C41.3715 41.5322 41.3715 41.5322 41.3715 41.5322C41.3715 41.5322 41.3715 41.5322 41.3715 41.5322L41.3715 41.5322C41.3715 41.5322 41.3715 41.5322 41.3715 41.5322C41.3715 41.5322 41.3715 41.5322 41.3715 41.5322L41.3715 41.5322C41.3715 41.5322 41.3715 41.5322 41.3715 41.5322C41.3715 41.5322 41.3715 41.5322 41.3715 41.5322L41.3715 41.5322C41.3715 41.5322 41.3715 41.5322 41.3715 41.5322C41.3715 41.5322 41.3715 41.5322 41.3715 41.5322L41.3715 41.5322C41.3715 41.5322 41.3715 41.5322 41.3715 41.5322C41.3715 41.5322 41.3715 41.5322 41.3715 41.5322L41.3715 41.5322L41.3715 41.5322C41.3715 41.5322 41.3715 41.5322 41.3715 41.5322L41.3715 41.5322L41.3715 41.5322C41.3715 41.5322 41.3715 41.5322 41.3715 41.5322C41.3715 41.5322 41.3715 41.5322 41.3715 41.5322L41.3715 41.5322C41.3715 41.5322 41.3715 41.5322 41.3715 41.5322C41.3715 41.5322 41.3715 41.5322 41.3715 41.5322L41.3715 41.5322C41.3715 41.5322 41.3715 41.5322 41.3715 41.5322C41.3715 41.5322 41.3715 41.5322 41.3715 41.5322L41.3715 41.5322C41.3715 41.5322 41.3715 41.5322 41.3715 41.5322C41.3715 41.5322 41.3715 41.5322 41.3715 41.5322L41.3715 41.5322C41.3715 41.5322 41.3715 41.5322 41.3715 41.5322C41.3715 41.5322 41.3715 41.5322 41.3715 41.5322L41.3715 41.5322C41.3715 41.5322 41.3715 41.5322 41.3715 41.5322C41.3715 41.5322 41.3715 41.5322 41.3715 41.5322L41.3715 41.5322L41.3715 41.5322C41.3715 41.5322 41.3715 41.5322 41.3716 41.5322L41.3716 41.5322L41.3716 41.5322C41.3716 41.5322 41.3716 41.5322 41.3716 41.5322C41.3716 41.5322 41.3716 41.5322 41.3716 41.5322L41.3716 41.5322C41.3716 41.5322 41.3716 41.5322 41.3716 41.5322C41.3716 41.5322 41.3716 41.5322 41.3716 41.5322L41.3716 41.5322C41.3716 41.5322 41.3716 41.5322 41.3716 41.5322C41.3716 41.5322 41.3716 41.5322 41.3716 41.5322L41.3716 41.5322C41.3716 41.5322 41.3716 41.5322 41.3716 41.5322C41.3716 41.5322 41.3716 41.5322 41.3716 41.5322L41.3716 41.5322C41.3716 41.5321 41.3716 41.5321 41.3716 41.5321C41.3716 41.5321 41.3716 41.5321 41.3716 41.5321L41.3716 41.5321C41.3716 41.5321 41.3716 41.5321 41.3716 41.5321C41.3716 41.5321 41.3716 41.5321 41.3716 41.5321L41.3716 41.5321L41.3716 41.5321C41.3716 41.5321 41.3716 41.5321 41.3716 41.5321L41.3716 41.5321L41.3716 41.5321C41.3716 41.5321 41.3716 41.5321 41.3716 41.5321L41.3716 41.5321L41.3716 41.5321C41.3716 41.5321 41.3716 41.5321 41.3716 41.5321C41.3716 41.5321 41.3716 41.5321 41.3716 41.5321L41.3716 41.5321C41.3716 41.5321 41.3716 41.5321 41.3716 41.5321C41.3716 41.5321 41.3716 41.5321 41.3716 41.5321L41.3716 41.5321C41.3716 41.5321 41.3716 41.5321 41.3716 41.5321C41.3716 41.5321 41.3716 41.5321 41.3716 41.5321L41.3716 41.5321C41.3716 41.5321 41.3716 41.5321 41.3716 41.5321C41.3716 41.5321 41.3716 41.5321 41.3716 41.5321L41.3716 41.5321C41.3716 41.5321 41.3716 41.5321 41.3716 41.5321C41.3716 41.5321 41.3716 41.5321 41.3716 41.5321L41.3716 41.5321L41.3716 41.5321C41.3716 41.5321 41.3716 41.5321 41.3716 41.5321L41.3716 41.5321L41.3716 41.5321C41.3716 41.5321 41.3716 41.5321 41.3716 41.5321L41.3716 41.5321L41.3716 41.5321C41.3716 41.5321 41.3716 41.5321 41.3716 41.5321C41.3716 41.5321 41.3716 41.5321 41.3716 41.5321L41.3716 41.5321C41.3716 41.5321 41.3716 41.5321 41.3716 41.5321C41.3716 41.5321 41.3716 41.5321 41.3716 41.5321L41.3716 41.5321C41.3716 41.5321 41.3716 41.5321 41.3716 41.5321C41.3716 41.5321 41.3716 41.5321 41.3717 41.5321L41.3717 41.5321C41.3717 41.5321 41.3717 41.5321 41.3717 41.5321C41.3717 41.5321 41.3717 41.5321 41.3717 41.5321L41.3717 41.5321C41.3717 41.5321 41.3717 41.5321 41.3717 41.5321C41.3717 41.5321 41.3717 41.5321 41.3717 41.5321L41.3717 41.5321L41.3717 41.5321C41.3717 41.5321 41.3717 41.5321 41.3717 41.5321L41.3717 41.5321L41.3717 41.5321C41.3717 41.5321 41.3717 41.5321 41.3717 41.5321L41.3717 41.5321L41.3717 41.532C41.3717 41.532 41.3717 41.532 41.3717 41.532C41.3717 41.532 41.3717 41.532 41.3717 41.532L41.3717 41.532C41.3717 41.532 41.3717 41.532 41.3717 41.532C41.3717 41.532 41.3717 41.532 41.3717 41.532L41.3717 41.532C41.3717 41.532 41.3717 41.532 41.3717 41.532C41.3717 41.532 41.3717 41.532 41.3717 41.532L41.3717 41.532C41.3717 41.532 41.3717 41.532 41.3717 41.532C41.3717 41.532 41.3717 41.532 41.3717 41.532L41.3717 41.532C41.3717 41.532 41.3717 41.532 41.3717 41.532C41.3717 41.532 41.3717 41.532 41.3717 41.532L41.3717 41.532L41.3717 41.532C41.3717 41.532 41.3717 41.532 41.3717 41.532L41.3717 41.532L41.3717 41.532C41.3717 41.532 41.3717 41.532 41.3717 41.532L41.3717 41.532L41.3717 41.532C41.3717 41.532 41.3717 41.532 41.3717 41.532C41.3717 41.532 41.3717 41.532 41.3717 41.532L41.3717 41.532C41.3717 41.532 41.3717 41.532 41.3717 41.532C41.3717 41.532 41.3717 41.532 41.3717 41.532L41.3717 41.532C41.3717 41.532 41.3717 41.532 41.3717 41.532C41.3717 41.532 41.3717 41.532 41.3717 41.532L41.3717 41.532C41.3717 41.532 41.3717 41.532 41.3717 41.532C41.3717 41.532 41.3717 41.532 41.3717 41.532L41.3717 41.532C41.3717 41.532 41.3717 41.532 41.3717 41.532C41.3717 41.532 41.3717 41.532 41.3717 41.532L41.3717 41.532L41.3717 41.532C41.3717 41.532 41.3717 41.532 41.3717 41.532L41.3717 41.532L41.3717 41.532C41.3717 41.532 41.3717 41.532 41.3718 41.532L41.3718 41.532L41.3718 41.532C41.3718 41.532 41.3718 41.532 41.3718 41.532C41.3718 41.532 41.3718 41.532 41.3718 41.532L41.3718 41.532C41.3718 41.532 41.3718 41.532 41.3718 41.532C41.3718 41.532 41.3718 41.532 41.3718 41.532L41.3718 41.532C41.3718 41.532 41.3718 41.532 41.3718 41.532C41.3718 41.532 41.3718 41.532 41.3718 41.532L41.3718 41.532C41.3718 41.532 41.3718 41.532 41.3718 41.532C41.3718 41.532 41.3718 41.532 41.3718 41.532L41.3718 41.5319C41.3718 41.5319 41.3718 41.5319 41.3718 41.5319C41.3718 41.5319 41.3718 41.5319 41.3718 41.5319L41.3718 41.5319L41.3718 41.5319C41.3718 41.5319 41.3718 41.5319 41.3718 41.5319L41.3718 41.5319L41.3718 41.5319C41.3718 41.5319 41.3718 41.5319 41.3718 41.5319L41.3718 41.5319L41.3718 41.5319C41.3718 41.5319 41.3718 41.5319 41.3718 41.5319C41.3718 41.5319 41.3718 41.5319 41.3718 41.5319L41.3718 41.5319C41.3718 41.5319 41.3718 41.5319 41.3718 41.5319C41.3718 41.5319 41.3718 41.5319 41.3718 41.5319L41.3718 41.5319C41.3718 41.5319 41.3718 41.5319 41.3718 41.5319C41.3718 41.5319 41.3718 41.5319 41.3718 41.5319L41.3718 41.5319C41.3718 41.5319 41.3718 41.5319 41.3718 41.5319C41.3718 41.5319 41.3718 41.5319 41.3718 41.5319L41.3718 41.5319C41.3718 41.5319 41.3718 41.5319 41.3718 41.5319C41.3718 41.5319 41.3718 41.5319 41.3718 41.5319L41.3718 41.5319L41.3718 41.5319C41.3718 41.5319 41.3718 41.5319 41.3718 41.5319L41.3718 41.5319L41.3718 41.5319C41.3718 41.5319 41.3718 41.5319 41.3718 41.5319L41.3718 41.5319L41.3718 41.5319C41.3718 41.5319 41.3718 41.5319 41.3718 41.5319C41.3718 41.5319 41.3718 41.5319 41.3718 41.5319L41.3718 41.5319C41.3718 41.5319 41.3718 41.5319 41.3718 41.5319C41.3718 41.5319 41.3718 41.5319 41.3718 41.5319L41.3718 41.5319C41.3718 41.5319 41.3718 41.5319 41.3718 41.5319C41.3718 41.5319 41.3718 41.5319 41.3718 41.5319L41.3718 41.5319C41.3718 41.5319 41.3718 41.5319 41.3718 41.5319C41.3719 41.5319 41.3719 41.5319 41.3719 41.5319L41.3719 41.5319C41.3719 41.5319 41.3719 41.5319 41.3719 41.5319C41.3719 41.5319 41.3719 41.5319 41.3719 41.5319L41.3719 41.5319L41.3719 41.5319C41.3719 41.5319 41.3719 41.5319 41.3719 41.5319L41.3719 41.5319L41.3719 41.5319C41.3719 41.5319 41.3719 41.5319 41.3719 41.5319L41.3719 41.5319L41.3719 41.5319C41.3719 41.5319 41.3719 41.5319 41.3719 41.5319C41.3719 41.5319 41.3719 41.5319 41.3719 41.5318L41.3719 41.5318C41.3719 41.5318 41.3719 41.5318 41.3719 41.5318C41.3719 41.5318 41.3719 41.5318 41.3719 41.5318L41.3719 41.5318C41.3719 41.5318 41.3719 41.5318 41.3719 41.5318C41.3719 41.5318 41.3719 41.5318 41.3719 41.5318L41.3719 41.5318C41.3719 41.5318 41.3719 41.5318 41.3719 41.5318C41.3719 41.5318 41.3719 41.5318 41.3719 41.5318L41.3719 41.5318C41.3719 41.5318 41.3719 41.5318 41.3719 41.5318C41.3719 41.5318 41.3719 41.5318 41.3719 41.5318L41.3719 41.5318C41.3719 41.5318 41.3719 41.5318 41.3719 41.5318C41.3719 41.5318 41.3719 41.5318 41.3719 41.5318L41.3719 41.5318L41.3719 41.5318C41.3719 41.5318 41.3719 41.5318 41.3719 41.5318L41.3719 41.5318L41.3719 41.5318C41.3719 41.5318 41.3719 41.5318 41.3719 41.5318C41.3719 41.5318 41.3719 41.5318 41.3719 41.5318L41.3719 41.5318C41.3719 41.5318 41.3719 41.5318 41.3719 41.5318C41.3719 41.5318 41.3719 41.5318 41.3719 41.5318L41.3719 41.5318C41.3719 41.5318 41.3719 41.5318 41.3719 41.5318C41.3719 41.5318 41.3719 41.5318 41.3719 41.5318L41.3719 41.5318C41.3719 41.5318 41.3719 41.5318 41.3719 41.5318C41.3719 41.5318 41.3719 41.5318 41.3719 41.5318L41.3719 41.5318C41.3719 41.5318 41.3719 41.5318 41.3719 41.5318C41.3719 41.5318 41.3719 41.5318 41.3719 41.5318L41.3719 41.5318C41.3719 41.5318 41.3719 41.5318 41.3719 41.5318C41.3719 41.5318 41.3719 41.5318 41.3719 41.5318L41.3719 41.5318L41.3719 41.5318C41.3719 41.5318 41.3719 41.5318 41.3719 41.5318L41.3719 41.5318L41.3719 41.5318C41.372 41.5318 41.372 41.5318 41.372 41.5318C41.372 41.5318 41.372 41.5318 41.372 41.5318L41.372 41.5318C41.372 41.5318 41.372 41.5318 41.372 41.5318C41.372 41.5318 41.372 41.5318 41.372 41.5318L41.372 41.5318C41.372 41.5318 41.372 41.5318 41.372 41.5318C41.372 41.5318 41.372 41.5318 41.372 41.5318L41.372 41.5318C41.372 41.5318 41.372 41.5318 41.372 41.5318C41.372 41.5318 41.372 41.5318 41.372 41.5318L41.372 41.5318C41.372 41.5318 41.372 41.5318 41.372 41.5318C41.372 41.5318 41.372 41.5318 41.372 41.5317L41.372 41.5317C41.372 41.5317 41.372 41.5317 41.372 41.5317C41.372 41.5317 41.372 41.5317 41.372 41.5317L41.372 41.5317L41.372 41.5317C41.372 41.5317 41.372 41.5317 41.372 41.5317L41.372 41.5317L41.372 41.5317C41.372 41.5317 41.372 41.5317 41.372 41.5317C41.372 41.5317 41.372 41.5317 41.372 41.5317L41.372 41.5317C41.372 41.5317 41.372 41.5317 41.372 41.5317C41.372 41.5317 41.372 41.5317 41.372 41.5317L41.372 41.5317C41.372 41.5317 41.372 41.5317 41.372 41.5317C41.372 41.5317 41.372 41.5317 41.372 41.5317L41.372 41.5317C41.372 41.5317 41.372 41.5317 41.372 41.5317C41.372 41.5317 41.372 41.5317 41.372 41.5317L41.372 41.5317C41.372 41.5317 41.372 41.5317 41.372 41.5317C41.372 41.5317 41.372 41.5317 41.372 41.5317L41.372 41.5317C41.372 41.5317 41.372 41.5317 41.372 41.5317C41.372 41.5317 41.372 41.5317 41.372 41.5317L41.372 41.5317L41.372 41.5317C41.372 41.5317 41.372 41.5317 41.372 41.5317L41.372 41.5317L41.372 41.5317C41.372 41.5317 41.372 41.5317 41.372 41.5317C41.372 41.5317 41.372 41.5317 41.372 41.5317L41.372 41.5317C41.372 41.5317 41.372 41.5317 41.372 41.5317C41.372 41.5317 41.372 41.5317 41.372 41.5317L41.372 41.5317C41.372 41.5317 41.372 41.5317 41.372 41.5317C41.372 41.5317 41.372 41.5317 41.372 41.5317L41.372 41.5317C41.372 41.5317 41.372 41.5317 41.372 41.5317C41.372 41.5317 41.372 41.5317 41.372 41.5317L41.372 41.5317C41.3721 41.5317 41.3721 41.5317 41.3721 41.5317C41.3721 41.5317 41.3721 41.5317 41.3721 41.5317L41.3721 41.5317C41.3721 41.5317 41.3721 41.5317 41.3721 41.5317C41.3721 41.5317 41.3721 41.5317 41.3721 41.5317L41.3721 41.5317L41.3721 41.5317C41.3721 41.5317 41.3721 41.5317 41.3721 41.5317L41.3721 41.5317L41.3721 41.5317C41.3721 41.5317 41.3721 41.5317 41.3721 41.5317L41.3721 41.5317L39.9579 40.1174ZM50.606 29.4693L39.9579 40.1174L41.3721 41.5317L52.0202 30.8835L50.606 29.4693Z" fill="#444444"/>
<path fill-rule="evenodd" clip-rule="evenodd" d="M53.5066 32.376C52.3071 31.1765 50.3623 31.1765 49.1628 32.376L42.5622 38.9765C42.485 38.9555 42.4072 38.9354 42.3288 38.9164L46.4838 34.7614C47.7074 33.5378 47.7074 31.554 46.4838 30.3305C45.2602 29.1069 43.2764 29.1069 42.0528 30.3305L33.1266 39.2567C32.7055 39.3175 32.3006 39.3737 31.9166 39.4202C31.9137 40.0617 31.8363 40.4571 31.7088 40.6745L31.5246 40.8587C31.4157 40.9119 31.2894 40.9002 31.1526 40.8432L31.6279 34.8661C31.7337 33.5352 30.884 32.321 29.5962 31.9629C28.0593 31.5356 26.4648 32.47 26.0861 34.0199L24.4257 40.815C24.3333 40.9323 24.2305 41.0489 24.1153 41.164C23.8999 41.9963 23.6823 42.7763 23.4737 43.5241C22.7917 45.9687 22.2055 48.0699 22.1047 50.5351C22.1001 50.648 22.0954 50.76 22.0908 50.8711C21.9446 54.3763 21.8352 56.9995 24.5834 59.7477C28.7414 63.9057 34.4123 64.9485 39.3815 62.676C40.7689 62.0415 43.0624 60.409 44.7318 58.7396C45.0277 58.4436 45.3091 58.1397 45.5757 57.8287C45.6731 57.7612 45.7659 57.6841 45.8526 57.5974L56.7175 46.7325C57.4963 45.9537 57.4963 44.6911 56.7175 43.9123C56.4004 43.5952 56.0032 43.4073 55.591 43.3484L56.6684 42.271C57.6833 41.2561 57.6833 39.6106 56.6684 38.5957C55.6535 37.5808 54.008 37.5808 52.9931 38.5957L47.7516 43.8372C47.6033 43.5415 47.4413 43.2493 47.2656 42.961L53.5066 36.7199C54.7062 35.5204 54.7062 33.5756 53.5066 32.376Z" fill="#2FCAB0"/>
<path d="M55.9817 34.8163L56.6888 35.5234L55.9817 34.8163ZM45.3626 45.4354L44.6555 44.7283C44.2766 45.1072 44.2637 45.7174 44.6263 46.112L45.3626 45.4354ZM45.3807 45.455L44.6439 46.1312C44.8282 46.3321 45.0866 46.449 45.3592 46.4548C45.6318 46.4607 45.895 46.355 46.0878 46.1622L45.3807 45.455ZM59.0091 41.1617L59.7162 41.8688L59.0091 41.1617ZM49.3044 50.8663L48.5973 50.1592C48.2926 50.464 48.2174 50.9296 48.4106 51.3148L49.3044 50.8663ZM49.3193 50.896L48.4245 51.3425C48.5681 51.6303 48.8413 51.8314 49.1587 51.8831C49.4761 51.9347 49.799 51.8305 50.0264 51.6032L49.3193 50.896ZM55.0901 45.1253L55.7972 45.8324L55.0901 45.1253ZM48.1491 60.8134L47.442 60.1063C47.4327 60.1156 47.4236 60.1251 47.4147 60.1347L48.1491 60.8134ZM42.081 65.4167L42.4941 66.3274L42.081 65.4167ZM21.9253 51.5843L20.9259 51.5481L20.9259 51.5481L21.9253 51.5843ZM23.0871 45.2948L24.0496 45.5659C24.0582 45.5353 24.0654 45.5044 24.071 45.4732L23.0871 45.2948ZM23.1329 45.0769L22.1605 44.8436L23.1329 45.0769ZM26.0011 33.1261L25.0287 32.8927L25.0287 32.8927L26.0011 33.1261ZM29.6757 30.9728L29.9474 30.0104L29.9474 30.0104L29.6757 30.9728ZM31.8186 34.036L30.8214 33.9613L30.8214 33.9613L31.8186 34.036ZM31.3328 40.5205L30.3356 40.4457C30.3082 40.8122 30.4839 41.1642 30.7933 41.3624C31.1028 41.5607 31.496 41.5733 31.8174 41.3952L31.3328 40.5205ZM32.4828 39.5525L31.8032 38.8189L31.8032 38.8189L32.4828 39.5525ZM33.1418 38.9542L33.7971 39.7095C33.8149 39.694 33.8322 39.678 33.8489 39.6613L33.1418 38.9542ZM40.6224 40.8086L39.9153 40.1015C39.7163 40.3005 39.6104 40.5742 39.6235 40.8553C39.6367 41.1365 39.7677 41.3991 39.9844 41.5786L40.6224 40.8086ZM40.6398 40.8231L40.001 41.5924C40.3984 41.9224 40.9817 41.8954 41.347 41.5302L40.6398 40.8231ZM56.6888 29.4416C55.0094 27.7622 52.2865 27.7622 50.6071 29.4416L52.0213 30.8558C52.9197 29.9574 54.3762 29.9574 55.2746 30.8558L56.6888 29.4416ZM56.6888 35.5234C58.3683 33.8439 58.3683 31.121 56.6888 29.4416L55.2746 30.8558C56.173 31.7542 56.173 33.2108 55.2746 34.1091L56.6888 35.5234ZM46.0697 46.1425L56.6888 35.5234L55.2746 34.1091L44.6555 44.7283L46.0697 46.1425ZM44.6263 46.112C44.6323 46.1186 44.6381 46.1249 44.6439 46.1312L46.1174 44.7789C46.1112 44.7721 46.1049 44.7653 46.0989 44.7588L44.6263 46.112ZM53.6344 35.7871L44.6735 44.7479L46.0878 46.1622L55.0486 37.2013L53.6344 35.7871ZM59.7162 35.7871C58.0367 34.1076 55.3139 34.1076 53.6344 35.7871L55.0486 37.2013C55.947 36.3029 57.4036 36.3029 58.302 37.2013L59.7162 35.7871ZM59.7162 41.8688C61.3956 40.1894 61.3956 37.4665 59.7162 35.7871L58.302 37.2013C59.2003 38.0997 59.2003 39.5562 58.302 40.4546L59.7162 41.8688ZM50.0115 51.5734L59.7162 41.8688L58.302 40.4546L48.5973 50.1592L50.0115 51.5734ZM48.4106 51.3148C48.4152 51.324 48.4199 51.3332 48.4245 51.3425L50.2141 50.4496C50.2088 50.439 50.2036 50.4285 50.1983 50.4179L48.4106 51.3148ZM50.0264 51.6032L55.7972 45.8324L54.383 44.4182L48.6122 50.1889L50.0264 51.6032ZM55.7972 45.8324C56.6144 45.0152 57.9393 45.0152 58.7565 45.8324L60.1708 44.4182C58.5725 42.8199 55.9812 42.8199 54.383 44.4182L55.7972 45.8324ZM58.7565 45.8324C59.5738 46.6496 59.5738 47.9745 58.7565 48.7918L60.1708 50.206C61.769 48.6077 61.769 46.0164 60.1708 44.4182L58.7565 45.8324ZM58.7565 48.7918L47.442 60.1063L48.8562 61.5205L60.1708 50.206L58.7565 48.7918ZM47.4147 60.1347C47.3156 60.2419 47.2125 60.3492 47.1051 60.4566L48.5193 61.8708C48.6448 61.7453 48.7662 61.6191 48.8835 61.4921L47.4147 60.1347ZM47.1051 60.4566C45.4162 62.1455 42.9758 63.9127 41.6679 64.506L42.4941 66.3274C44.0896 65.6036 46.7235 63.6666 48.5193 61.8708L47.1051 60.4566ZM41.6679 64.506C36.8714 66.682 31.3615 65.6717 27.2574 61.5675L25.8432 62.9818C30.499 67.6376 36.8918 68.8689 42.4941 66.3274L41.6679 64.506ZM27.2574 61.5675C24.4239 58.734 22.7969 55.14 22.9246 51.6206L20.9259 51.5481C20.774 55.7343 22.7033 59.8419 25.8432 62.9818L27.2574 61.5675ZM22.9246 51.6206C23.0064 49.3668 23.4486 47.6993 24.0496 45.5659L22.1245 45.0236C21.519 47.1731 21.017 49.0378 20.9259 51.5481L22.9246 51.6206ZM24.071 45.4732C24.0809 45.4188 24.0923 45.3645 24.1053 45.3103L22.1605 44.8436C22.1388 44.9343 22.1196 45.0253 22.1031 45.1164L24.071 45.4732ZM24.1053 45.3103L26.9735 33.3595L25.0287 32.8927L22.1605 44.8436L24.1053 45.3103ZM26.9735 33.3595C27.2324 32.2808 28.3364 31.6338 29.404 31.9352L29.9474 30.0104C27.7869 29.4005 25.5526 30.7098 25.0287 32.8927L26.9735 33.3595ZM29.404 31.9352C30.2981 32.1876 30.8908 33.0348 30.8214 33.9613L32.8158 34.1108C32.9563 32.2358 31.7569 30.5213 29.9474 30.0104L29.404 31.9352ZM30.8214 33.9613L30.3356 40.4457L32.33 40.5952L32.8158 34.1108L30.8214 33.9613ZM31.8174 41.3952C32.0493 41.2667 32.2946 41.0651 32.4921 40.8941C32.7063 40.7089 32.9416 40.4906 33.1625 40.286L31.8032 38.8189C31.5755 39.0299 31.3668 39.2231 31.1836 39.3816C31.0927 39.4602 31.0157 39.5237 30.9522 39.5723C30.9208 39.5963 30.8957 39.6144 30.8764 39.6275C30.8564 39.6411 30.8475 39.6461 30.8482 39.6457L31.8174 41.3952ZM33.1625 40.286C33.39 40.0753 33.6041 39.877 33.7971 39.7095L32.4864 38.1989C32.264 38.3919 32.0247 38.6137 31.8032 38.8189L33.1625 40.286ZM33.8489 39.6613L44.5525 28.9576L43.1383 27.5434L32.4347 38.2471L33.8489 39.6613ZM44.5525 28.9576C45.4509 28.0592 46.9075 28.0592 47.8059 28.9576L49.2201 27.5434C47.5407 25.864 44.8178 25.864 43.1383 27.5434L44.5525 28.9576ZM47.8059 28.9576C48.7042 29.856 48.7042 31.3126 47.8059 32.211L49.2201 33.6252C50.8995 31.9457 50.8995 29.2228 49.2201 27.5434L47.8059 28.9576ZM47.8059 32.211L39.9153 40.1015L41.3295 41.5157L49.2201 33.6252L47.8059 32.211ZM39.9844 41.5786C39.9898 41.5831 39.9953 41.5877 40.001 41.5924L41.2787 40.0537C41.2728 40.0488 41.2666 40.0437 41.2604 40.0386L39.9844 41.5786ZM39.9334 40.1153L39.9334 40.1153L39.9334 40.1153L39.9334 40.1153L39.9334 40.1153L39.9334 40.1153L39.9334 40.1153L39.9334 40.1153L39.9334 40.1153L39.9334 40.1153L39.9334 40.1153L39.9334 40.1153L39.9334 40.1153L39.9334 40.1153L39.9334 40.1153L39.9334 40.1153L39.9334 40.1153L39.9334 40.1153L39.9334 40.1153L39.9334 40.1153L39.9334 40.1153L39.9334 40.1153L39.9334 40.1153L39.9334 40.1153L39.9334 40.1153L39.9334 40.1153L39.9334 40.1153L39.9334 40.1153L39.9334 40.1153L39.9334 40.1153L39.9334 40.1153L39.9334 40.1153L39.9334 40.1153L39.9334 40.1153L39.9334 40.1153L39.9334 40.1153L39.9334 40.1153L39.9334 40.1153L39.9334 40.1153L39.9334 40.1153L39.9334 40.1153L39.9334 40.1153L39.9334 40.1153L39.9334 40.1153L39.9334 40.1153L39.9334 40.1153L39.9334 40.1153L39.9334 40.1153L39.9334 40.1153L39.9334 40.1153L39.9334 40.1153L39.9334 40.1153L39.9334 40.1153L39.9334 40.1153L39.9334 40.1153L39.9334 40.1153L39.9334 40.1153L39.9334 40.1153L39.9334 40.1153L39.9334 40.1153L39.9334 40.1153L39.9333 40.1153L39.9333 40.1153L39.9333 40.1153L39.9333 40.1153L39.9333 40.1153L39.9333 40.1153L39.9333 40.1153L39.9333 40.1153L39.9333 40.1153L39.9333 40.1154L39.9333 40.1154L39.9333 40.1154L39.9333 40.1154L39.9333 40.1154L39.9333 40.1154L39.9333 40.1154L39.9333 40.1154L39.9333 40.1154L39.9333 40.1154L39.9333 40.1154L39.9333 40.1154L39.9333 40.1154L39.9333 40.1154L39.9333 40.1154L39.9333 40.1154L39.9333 40.1154L39.9333 40.1154L39.9333 40.1154L39.9333 40.1154L39.9333 40.1154L39.9333 40.1154L39.9333 40.1154L39.9333 40.1154L39.9333 40.1154L39.9333 40.1154L39.9333 40.1154L39.9333 40.1154L39.9333 40.1154L39.9333 40.1154L39.9333 40.1154L39.9333 40.1154L39.9333 40.1154L39.9333 40.1154L39.9333 40.1154L39.9333 40.1154L39.9333 40.1154L39.9333 40.1154L39.9333 40.1154L39.9333 40.1154L39.9333 40.1154L39.9333 40.1154L39.9333 40.1154L39.9333 40.1154L39.9333 40.1154L39.9333 40.1154L39.9333 40.1154L39.9333 40.1154L39.9333 40.1154L39.9333 40.1154L39.9333 40.1154L39.9333 40.1154L39.9333 40.1154L39.9333 40.1154L39.9333 40.1154L39.9333 40.1154L39.9333 40.1154L39.9333 40.1154L39.9333 40.1154L39.9333 40.1154L39.9333 40.1154L39.9333 40.1154L39.9333 40.1154L39.9333 40.1154L39.9333 40.1154L39.9332 40.1154L39.9332 40.1154L39.9332 40.1154L39.9332 40.1154L39.9332 40.1154L39.9332 40.1154L39.9332 40.1154L39.9332 40.1154L39.9332 40.1154L39.9332 40.1155L39.9332 40.1155L39.9332 40.1155L39.9332 40.1155L39.9332 40.1155L39.9332 40.1155L39.9332 40.1155L39.9332 40.1155L39.9332 40.1155L39.9332 40.1155L39.9332 40.1155L39.9332 40.1155L39.9332 40.1155L39.9332 40.1155L39.9332 40.1155L39.9332 40.1155L39.9332 40.1155L39.9332 40.1155L39.9332 40.1155L39.9332 40.1155L39.9332 40.1155L39.9332 40.1155L39.9332 40.1155L39.9332 40.1155L39.9332 40.1155L39.9332 40.1155L39.9332 40.1155L39.9332 40.1155L39.9332 40.1155L39.9332 40.1155L39.9332 40.1155L39.9332 40.1155L39.9332 40.1155L39.9332 40.1155L39.9332 40.1155L39.9332 40.1155L39.9332 40.1155L39.9332 40.1155L39.9332 40.1155L39.9332 40.1155L39.9332 40.1155L39.9332 40.1155L39.9332 40.1155L39.9332 40.1155L39.9332 40.1155L39.9332 40.1155L39.9332 40.1155L39.9332 40.1155L39.9332 40.1155L39.9332 40.1155L39.9332 40.1155L39.9332 40.1155L39.9332 40.1155L39.9332 40.1155L39.9332 40.1155L39.9332 40.1155L39.9332 40.1155L39.9332 40.1155L39.9332 40.1155L39.9332 40.1155L39.9332 40.1155L39.9332 40.1155L39.9332 40.1155L39.9332 40.1155L39.9332 40.1155L39.9331 40.1155L39.9331 40.1155L39.9331 40.1155L39.9331 40.1155L39.9331 40.1155L39.9331 40.1155L39.9331 40.1155L39.9331 40.1155L39.9331 40.1155L39.9331 40.1156L39.9331 40.1156L39.9331 40.1156L39.9331 40.1156L39.9331 40.1156L39.9331 40.1156L39.9331 40.1156L39.9331 40.1156L39.9331 40.1156L39.9331 40.1156L39.9331 40.1156L39.9331 40.1156L39.9331 40.1156L39.9331 40.1156L39.9331 40.1156L39.9331 40.1156L39.9331 40.1156L39.9331 40.1156L39.9331 40.1156L39.9331 40.1156L39.9331 40.1156L39.9331 40.1156L39.9331 40.1156L39.9331 40.1156L39.9331 40.1156L39.9331 40.1156L39.9331 40.1156L39.9331 40.1156L39.9331 40.1156L39.9331 40.1156L39.9331 40.1156L39.9331 40.1156L39.9331 40.1156L39.9331 40.1156L39.9331 40.1156L39.9331 40.1156L39.9331 40.1156L39.9331 40.1156L39.9331 40.1156L39.9331 40.1156L39.9331 40.1156L39.9331 40.1156L39.9331 40.1156L39.9331 40.1156L39.9331 40.1156L39.9331 40.1156L39.9331 40.1156L39.9331 40.1156L39.9331 40.1156L39.9331 40.1156L39.9331 40.1156L39.9331 40.1156L39.9331 40.1156L39.9331 40.1156L39.9331 40.1156L39.9331 40.1156L39.9331 40.1156L39.9331 40.1156L39.9331 40.1156L39.9331 40.1156L39.9331 40.1156L39.9331 40.1156L39.9331 40.1156L39.9331 40.1156L39.9331 40.1156L39.933 40.1156L39.933 40.1156L39.933 40.1156L39.933 40.1156L39.933 40.1156L39.933 40.1156L39.933 40.1156L39.933 40.1156L39.933 40.1156L39.933 40.1157L39.933 40.1157L39.933 40.1157L39.933 40.1157L39.933 40.1157L39.933 40.1157L39.933 40.1157L39.933 40.1157L39.933 40.1157L39.933 40.1157L39.933 40.1157L39.933 40.1157L39.933 40.1157L39.933 40.1157L39.933 40.1157L39.933 40.1157L39.933 40.1157L39.933 40.1157L39.933 40.1157L39.933 40.1157L39.933 40.1157L39.933 40.1157L39.933 40.1157L39.933 40.1157L39.933 40.1157L39.933 40.1157L39.933 40.1157L39.933 40.1157L39.933 40.1157L39.933 40.1157L39.933 40.1157L39.933 40.1157L39.933 40.1157L39.933 40.1157L39.933 40.1157L39.933 40.1157L39.933 40.1157L39.933 40.1157L39.933 40.1157L39.933 40.1157L39.933 40.1157L39.933 40.1157L39.933 40.1157L39.933 40.1157L39.933 40.1157L39.933 40.1157L39.933 40.1157L39.933 40.1157L39.933 40.1157L39.933 40.1157L39.933 40.1157L39.933 40.1157L39.933 40.1157L39.933 40.1157L39.933 40.1157L39.933 40.1157L39.933 40.1157L39.933 40.1157L39.933 40.1157L39.933 40.1157L39.933 40.1157L39.933 40.1157L39.933 40.1157L39.933 40.1157L39.933 40.1157L39.9329 40.1157L39.9329 40.1157L39.9329 40.1157L39.9329 40.1157L39.9329 40.1157L39.9329 40.1157L39.9329 40.1157L39.9329 40.1157L39.9329 40.1157L39.9329 40.1158L39.9329 40.1158L39.9329 40.1158L39.9329 40.1158L39.9329 40.1158L39.9329 40.1158L39.9329 40.1158L39.9329 40.1158L39.9329 40.1158L39.9329 40.1158L39.9329 40.1158L39.9329 40.1158L39.9329 40.1158L39.9329 40.1158L39.9329 40.1158L39.9329 40.1158L39.9329 40.1158L39.9329 40.1158L39.9329 40.1158L39.9329 40.1158L39.9329 40.1158L39.9329 40.1158L39.9329 40.1158L39.9329 40.1158L39.9329 40.1158L39.9329 40.1158L39.9329 40.1158L39.9329 40.1158L39.9329 40.1158L39.9329 40.1158L39.9329 40.1158L39.9329 40.1158L39.9329 40.1158L39.9329 40.1158L39.9329 40.1158L39.9329 40.1158L39.9329 40.1158L39.9329 40.1158L39.9329 40.1158L39.9329 40.1158L39.9329 40.1158L39.9329 40.1158L39.9329 40.1158L39.9329 40.1158L39.9329 40.1158L39.9329 40.1158L39.9329 40.1158L39.9329 40.1158L39.9329 40.1158L39.9329 40.1158L39.9329 40.1158L39.9329 40.1158L39.9329 40.1158L39.9329 40.1158L39.9329 40.1158L39.9329 40.1158L39.9329 40.1158L39.9329 40.1158L39.9329 40.1158L39.9329 40.1158L39.9329 40.1158L39.9329 40.1158L39.9329 40.1158L39.9329 40.1158L39.9329 40.1158L39.9328 40.1158L39.9328 40.1158L39.9328 40.1158L39.9328 40.1158L39.9328 40.1158L39.9328 40.1158L39.9328 40.1158L39.9328 40.1158L39.9328 40.1158L39.9328 40.1159L39.9328 40.1159L39.9328 40.1159L39.9328 40.1159L39.9328 40.1159L39.9328 40.1159L39.9328 40.1159L39.9328 40.1159L39.9328 40.1159L39.9328 40.1159L39.9328 40.1159L39.9328 40.1159L39.9328 40.1159L39.9328 40.1159L39.9328 40.1159L39.9328 40.1159L39.9328 40.1159L39.9328 40.1159L39.9328 40.1159L39.9328 40.1159L39.9328 40.1159L39.9328 40.1159L39.9328 40.1159L39.9328 40.1159L39.9328 40.1159L39.9328 40.1159L39.9328 40.1159L39.9328 40.1159L39.9328 40.1159L39.9328 40.1159L39.9328 40.1159L39.9328 40.1159L39.9328 40.1159L39.9328 40.1159L39.9328 40.1159L39.9328 40.1159L39.9328 40.1159L39.9328 40.1159L39.9328 40.1159L39.9328 40.1159L39.9328 40.1159L39.9328 40.1159L39.9328 40.1159L39.9328 40.1159L39.9328 40.1159L39.9328 40.1159L39.9328 40.1159L39.9328 40.1159L39.9328 40.1159L39.9328 40.1159L39.9328 40.1159L39.9328 40.1159L39.9328 40.1159L39.9328 40.1159L39.9328 40.1159L39.9328 40.1159L39.9328 40.1159L39.9328 40.1159L39.9328 40.1159L39.9328 40.1159L39.9328 40.1159L39.9328 40.1159L39.9328 40.1159L39.9328 40.1159L39.9328 40.1159L39.9327 40.1159L39.9327 40.1159L39.9327 40.1159L39.9327 40.1159L39.9327 40.1159L39.9327 40.1159L39.9327 40.1159L39.9327 40.1159L41.347 41.5302L41.347 41.5302L41.347 41.5302L41.347 41.5302L41.347 41.5302L41.347 41.5302L41.347 41.5302L41.347 41.5302L41.347 41.5302L41.347 41.5301L41.347 41.5301L41.347 41.5301L41.347 41.5301L41.347 41.5301L41.347 41.5301L41.347 41.5301L41.347 41.5301L41.347 41.5301L41.347 41.5301L41.347 41.5301L41.347 41.5301L41.347 41.5301L41.347 41.5301L41.347 41.5301L41.347 41.5301L41.347 41.5301L41.347 41.5301L41.347 41.5301L41.347 41.5301L41.347 41.5301L41.347 41.5301L41.347 41.5301L41.347 41.5301L41.347 41.5301L41.347 41.5301L41.347 41.5301L41.347 41.5301L41.347 41.5301L41.347 41.5301L41.347 41.5301L41.347 41.5301L41.347 41.5301L41.347 41.5301L41.347 41.5301L41.347 41.5301L41.347 41.5301L41.347 41.5301L41.347 41.5301L41.347 41.5301L41.347 41.5301L41.347 41.5301L41.347 41.5301L41.347 41.5301L41.347 41.5301L41.347 41.5301L41.347 41.5301L41.347 41.5301L41.347 41.5301L41.347 41.5301L41.347 41.5301L41.347 41.5301L41.347 41.5301L41.347 41.5301L41.347 41.5301L41.347 41.5301L41.347 41.5301L41.347 41.5301L41.347 41.5301L41.347 41.5301L41.347 41.5301L41.347 41.5301L41.347 41.5301L41.3471 41.5301L41.3471 41.5301L41.3471 41.5301L41.3471 41.5301L41.3471 41.5301L41.3471 41.5301L41.3471 41.5301L41.3471 41.5301L41.3471 41.5301L41.3471 41.5301L41.3471 41.5301L41.3471 41.53L41.3471 41.53L41.3471 41.53L41.3471 41.53L41.3471 41.53L41.3471 41.53L41.3471 41.53L41.3471 41.53L41.3471 41.53L41.3471 41.53L41.3471 41.53L41.3471 41.53L41.3471 41.53L41.3471 41.53L41.3471 41.53L41.3471 41.53L41.3471 41.53L41.3471 41.53L41.3471 41.53L41.3471 41.53L41.3471 41.53L41.3471 41.53L41.3471 41.53L41.3471 41.53L41.3471 41.53L41.3471 41.53L41.3471 41.53L41.3471 41.53L41.3471 41.53L41.3471 41.53L41.3471 41.53L41.3471 41.53L41.3471 41.53L41.3471 41.53L41.3471 41.53L41.3471 41.53L41.3471 41.53L41.3471 41.53L41.3471 41.53L41.3471 41.53L41.3471 41.53L41.3471 41.53L41.3471 41.53L41.3471 41.53L41.3471 41.53L41.3471 41.53L41.3471 41.53L41.3471 41.53L41.3471 41.53L41.3471 41.53L41.3471 41.53L41.3471 41.53L41.3471 41.53L41.3471 41.53L41.3471 41.53L41.3471 41.53L41.3471 41.53L41.3471 41.53L41.3471 41.53L41.3471 41.53L41.3471 41.53L41.3471 41.53L41.3471 41.53L41.3472 41.53L41.3472 41.53L41.3472 41.53L41.3472 41.53L41.3472 41.53L41.3472 41.53L41.3472 41.53L41.3472 41.53L41.3472 41.53L41.3472 41.53L41.3472 41.53L41.3472 41.5299L41.3472 41.5299L41.3472 41.5299L41.3472 41.5299L41.3472 41.5299L41.3472 41.5299L41.3472 41.5299L41.3472 41.5299L41.3472 41.5299L41.3472 41.5299L41.3472 41.5299L41.3472 41.5299L41.3472 41.5299L41.3472 41.5299L41.3472 41.5299L41.3472 41.5299L41.3472 41.5299L41.3472 41.5299L41.3472 41.5299L41.3472 41.5299L41.3472 41.5299L41.3472 41.5299L41.3472 41.5299L41.3472 41.5299L41.3472 41.5299L41.3472 41.5299L41.3472 41.5299L41.3472 41.5299L41.3472 41.5299L41.3472 41.5299L41.3472 41.5299L41.3472 41.5299L41.3472 41.5299L41.3472 41.5299L41.3472 41.5299L41.3472 41.5299L41.3472 41.5299L41.3472 41.5299L41.3472 41.5299L41.3472 41.5299L41.3472 41.5299L41.3472 41.5299L41.3472 41.5299L41.3472 41.5299L41.3472 41.5299L41.3472 41.5299L41.3472 41.5299L41.3472 41.5299L41.3472 41.5299L41.3472 41.5299L41.3472 41.5299L41.3472 41.5299L41.3472 41.5299L41.3472 41.5299L41.3472 41.5299L41.3472 41.5299L41.3472 41.5299L41.3472 41.5299L41.3472 41.5299L41.3472 41.5299L41.3472 41.5299L41.3472 41.5299L41.3472 41.5299L41.3473 41.5299L41.3473 41.5299L41.3473 41.5299L41.3473 41.5299L41.3473 41.5299L41.3473 41.5299L41.3473 41.5299L41.3473 41.5299L41.3473 41.5299L41.3473 41.5299L41.3473 41.5299L41.3473 41.5298L41.3473 41.5298L41.3473 41.5298L41.3473 41.5298L41.3473 41.5298L41.3473 41.5298L41.3473 41.5298L41.3473 41.5298L41.3473 41.5298L41.3473 41.5298L41.3473 41.5298L41.3473 41.5298L41.3473 41.5298L41.3473 41.5298L41.3473 41.5298L41.3473 41.5298L41.3473 41.5298L41.3473 41.5298L41.3473 41.5298L41.3473 41.5298L41.3473 41.5298L41.3473 41.5298L41.3473 41.5298L41.3473 41.5298L41.3473 41.5298L41.3473 41.5298L41.3473 41.5298L41.3473 41.5298L41.3473 41.5298L41.3473 41.5298L41.3473 41.5298L41.3473 41.5298L41.3473 41.5298L41.3473 41.5298L41.3473 41.5298L41.3473 41.5298L41.3473 41.5298L41.3473 41.5298L41.3473 41.5298L41.3473 41.5298L41.3473 41.5298L41.3473 41.5298L41.3473 41.5298L41.3473 41.5298L41.3473 41.5298L41.3473 41.5298L41.3473 41.5298L41.3473 41.5298L41.3473 41.5298L41.3473 41.5298L41.3473 41.5298L41.3473 41.5298L41.3473 41.5298L41.3473 41.5298L41.3473 41.5298L41.3473 41.5298L41.3473 41.5298L41.3473 41.5298L41.3473 41.5298L41.3473 41.5298L41.3473 41.5298L41.3473 41.5298L41.3473 41.5298L41.3474 41.5298L41.3474 41.5298L41.3474 41.5298L41.3474 41.5298L41.3474 41.5298L41.3474 41.5298L41.3474 41.5298L41.3474 41.5298L41.3474 41.5298L41.3474 41.5298L41.3474 41.5298L41.3474 41.5297L41.3474 41.5297L41.3474 41.5297L41.3474 41.5297L41.3474 41.5297L41.3474 41.5297L41.3474 41.5297L41.3474 41.5297L41.3474 41.5297L41.3474 41.5297L41.3474 41.5297L41.3474 41.5297L41.3474 41.5297L41.3474 41.5297L41.3474 41.5297L41.3474 41.5297L41.3474 41.5297L41.3474 41.5297L41.3474 41.5297L41.3474 41.5297L41.3474 41.5297L41.3474 41.5297L41.3474 41.5297L41.3474 41.5297L41.3474 41.5297L41.3474 41.5297L41.3474 41.5297L41.3474 41.5297L41.3474 41.5297L41.3474 41.5297L41.3474 41.5297L41.3474 41.5297L41.3474 41.5297L41.3474 41.5297L41.3474 41.5297L41.3474 41.5297L41.3474 41.5297L41.3474 41.5297L41.3474 41.5297L41.3474 41.5297L41.3474 41.5297L41.3474 41.5297L41.3474 41.5297L41.3474 41.5297L41.3474 41.5297L41.3474 41.5297L41.3474 41.5297L41.3474 41.5297L41.3474 41.5297L41.3474 41.5297L41.3474 41.5297L41.3474 41.5297L41.3474 41.5297L41.3474 41.5297L41.3474 41.5297L41.3474 41.5297L41.3474 41.5297L41.3474 41.5297L41.3474 41.5297L41.3474 41.5297L41.3474 41.5297L41.3474 41.5297L41.3474 41.5297L41.3475 41.5297L41.3475 41.5297L41.3475 41.5297L41.3475 41.5297L41.3475 41.5297L41.3475 41.5297L41.3475 41.5297L41.3475 41.5297L41.3475 41.5297L41.3475 41.5297L41.3475 41.5297L41.3475 41.5296L41.3475 41.5296L41.3475 41.5296L41.3475 41.5296L41.3475 41.5296L41.3475 41.5296L41.3475 41.5296L41.3475 41.5296L41.3475 41.5296L41.3475 41.5296L41.3475 41.5296L41.3475 41.5296L41.3475 41.5296L41.3475 41.5296L41.3475 41.5296L41.3475 41.5296L41.3475 41.5296L41.3475 41.5296L41.3475 41.5296L41.3475 41.5296L41.3475 41.5296L41.3475 41.5296L41.3475 41.5296L41.3475 41.5296L41.3475 41.5296L41.3475 41.5296L41.3475 41.5296L41.3475 41.5296L41.3475 41.5296L41.3475 41.5296L41.3475 41.5296L41.3475 41.5296L41.3475 41.5296L41.3475 41.5296L41.3475 41.5296L41.3475 41.5296L41.3475 41.5296L41.3475 41.5296L41.3475 41.5296L41.3475 41.5296L41.3475 41.5296L41.3475 41.5296L41.3475 41.5296L41.3475 41.5296L41.3475 41.5296L41.3475 41.5296L41.3475 41.5296L41.3475 41.5296L41.3475 41.5296L41.3475 41.5296L41.3475 41.5296L41.3475 41.5296L41.3475 41.5296L41.3475 41.5296L41.3475 41.5296L41.3475 41.5296L41.3475 41.5296L41.3475 41.5296L41.3475 41.5296L41.3475 41.5296L41.3475 41.5296L41.3475 41.5296L41.3475 41.5296L41.3476 41.5296L41.3476 41.5296L41.3476 41.5296L41.3476 41.5296L41.3476 41.5296L41.3476 41.5296L41.3476 41.5296L41.3476 41.5296L41.3476 41.5296L41.3476 41.5296L41.3476 41.5296L41.3476 41.5295L41.3476 41.5295L41.3476 41.5295L41.3476 41.5295L41.3476 41.5295L41.3476 41.5295L41.3476 41.5295L41.3476 41.5295L41.3476 41.5295L41.3476 41.5295L41.3476 41.5295L41.3476 41.5295L41.3476 41.5295L41.3476 41.5295L41.3476 41.5295L41.3476 41.5295L41.3476 41.5295L41.3476 41.5295L41.3476 41.5295L41.3476 41.5295L41.3476 41.5295L41.3476 41.5295L41.3476 41.5295L41.3476 41.5295L41.3476 41.5295L41.3476 41.5295L41.3476 41.5295L41.3476 41.5295L41.3476 41.5295L41.3476 41.5295L41.3476 41.5295L41.3476 41.5295L41.3476 41.5295L41.3476 41.5295L41.3476 41.5295L41.3476 41.5295L41.3476 41.5295L41.3476 41.5295L41.3476 41.5295L41.3476 41.5295L41.3476 41.5295L41.3476 41.5295L41.3476 41.5295L41.3476 41.5295L41.3476 41.5295L41.3476 41.5295L41.3476 41.5295L41.3476 41.5295L41.3476 41.5295L41.3476 41.5295L41.3476 41.5295L41.3476 41.5295L41.3476 41.5295L41.3476 41.5295L41.3476 41.5295L41.3476 41.5295L41.3476 41.5295L41.3476 41.5295L41.3476 41.5295L41.3476 41.5295L39.9334 40.1153ZM50.6071 29.4416L39.9334 40.1153L41.3476 41.5295L52.0213 30.8558L50.6071 29.4416Z" fill="#444444"/>
<path d="M44.0195 16.6582L44.0195 21.2138" stroke="#444444" stroke-width="2" stroke-linecap="round"/>
<path d="M34.8711 18.8994L37.9081 21.9365" stroke="#444444" stroke-width="2" stroke-linecap="round"/>
<path d="M53.1328 18.8997L50.0958 21.9367" stroke="#444444" stroke-width="2" stroke-linecap="round"/>
</svg>
