<svg width="28" height="28" viewBox="0 0 28 28" fill="none" xmlns="http://www.w3.org/2000/svg">
<path d="M22 16.4444C22 21.3617 17.8479 25 13.5 25C9.15214 25 5 21.3617 5 16.4444C5 11.469 10.7012 5.6256 12.7652 3.67306C13.1823 3.27857 13.8177 3.27857 14.2348 3.67306C16.2988 5.6256 22 11.469 22 16.4444Z" fill="white"/>
<path d="M6 17.9998V14.9998C11.2 12.5998 18.1667 13.6665 21 14.4998V17.9998C16.3548 16.2856 10 16.9998 6 17.9998Z" fill="#FFE665"/>
<path d="M21 16.4444C21 20.7749 17.3307 24 13.5 24C9.66933 24 6 20.7749 6 16.4444C6 14.2896 7.25961 11.8048 8.91881 9.51131C10.5503 7.25603 12.4418 5.35557 13.4524 4.39952C13.4639 4.38867 13.4733 4.38369 13.4798 4.38113C13.4867 4.37838 13.4935 4.37719 13.5 4.37719C13.5065 4.37719 13.5133 4.37838 13.5202 4.38112C13.5267 4.38368 13.5361 4.38867 13.5476 4.39952C14.5582 5.35557 16.4497 7.25603 18.0812 9.51131C19.7404 11.8048 21 14.2896 21 16.4444Z" stroke="#444444" stroke-width="2"/>
<path d="M6.57052 17.8128C8.92072 17.1614 14.9895 15.8787 20.4295 17.8128" stroke="#444444" stroke-width="2" stroke-linecap="round"/>
<path d="M6.57052 14.5022C8.92072 13.8508 14.9895 12.5681 20.4295 14.5022" stroke="#444444" stroke-width="2" stroke-linecap="round"/>
</svg>
