<svg width="30" height="28" viewBox="0 0 30 28" fill="none" xmlns="http://www.w3.org/2000/svg">
<g opacity="0.7">
<path d="M29 17.2824C29 17.587 28.753 17.834 28.4484 17.834H21.3458C19.8645 17.834 18.5423 16.5874 18.1307 14.8003C17.5892 12.4561 16.3605 10.9351 15.0003 10.9351C13.64 10.9351 12.4108 12.4519 11.8693 14.8003C11.4576 16.5853 10.1332 17.834 8.65423 17.834H1.55158C1.24695 17.834 1 17.587 1 17.2824C1 16.9778 1.24695 16.7308 1.55158 16.7308H8.65423C9.75409 16.7308 10.7 15.8345 11.0063 14.501C11.6604 11.6659 13.2273 9.83398 14.9992 9.83398C16.771 9.83398 18.3374 11.6659 18.9915 14.501C19.2989 15.8345 20.2448 16.7308 21.3435 16.7308H28.4484C28.753 16.7308 29 16.9778 29 17.2824Z" fill="#444444" stroke="#444444" stroke-width="0.75"/>
<path d="M24.3324 22.834C23.0136 22.834 22.3298 22.2477 21.7262 21.7302C21.1662 21.2496 20.6801 20.834 19.6654 20.834C18.6506 20.834 18.1662 21.2496 17.6051 21.7302C17.0014 22.2477 16.3171 22.834 14.9989 22.834C13.6806 22.834 12.9963 22.2477 12.3926 21.7302C11.8326 21.2496 11.3471 20.834 10.3324 20.834C9.31768 20.834 8.83328 21.2496 8.27216 21.7302C7.66904 22.2477 6.98416 22.834 5.66592 22.834C4.34768 22.834 3.66336 22.2477 3.06024 21.7302C2.60068 21.3358 2.19091 20.9852 1.49822 20.8721C1.22569 20.8276 1 20.6101 1 20.334C1 20.0578 1.2251 19.8297 1.49908 19.8642C2.5013 19.9904 3.08369 20.4898 3.60568 20.9371C4.16568 21.4184 4.65176 21.834 5.66592 21.834C6.68008 21.834 7.16504 21.4184 7.72616 20.9371C8.32984 20.4202 9.01416 19.834 10.3324 19.834C11.6506 19.834 12.335 20.4202 12.9386 20.9371C13.4986 21.4184 13.9842 21.834 14.9989 21.834C16.0136 21.834 16.498 21.4184 17.0591 20.9371C17.6628 20.4202 18.3471 19.834 19.6654 19.834C20.9836 19.834 21.6685 20.4202 22.2722 20.9371C22.8322 21.4184 23.3182 21.834 24.3324 21.834C25.3466 21.834 25.8321 21.4184 26.3932 20.9371C26.9157 20.4898 27.4986 19.9904 28.5009 19.8642C28.7749 19.8297 29 20.0578 29 20.334C29 20.6101 28.7743 20.8276 28.5018 20.872C27.8089 20.9851 27.3997 21.3358 26.9392 21.7302C26.3355 22.2477 25.6518 22.834 24.3324 22.834Z" fill="#444444" stroke="#444444" stroke-width="0.75"/>
<path d="M15.3201 7.45354V4.53703C15.3201 4.24043 15.0797 4 14.7831 4C14.4865 4 14.2461 4.24043 14.2461 4.53703V7.45354C14.2461 7.75013 14.4865 7.99057 14.7831 7.99057C15.0797 7.99057 15.3201 7.75013 15.3201 7.45354Z" fill="#444444" stroke="#444444" stroke-width="0.75"/>
<path d="M10.1652 8.92352L8.0767 6.85423C7.86698 6.64645 7.52696 6.64645 7.31723 6.85423C7.10751 7.06202 7.10751 7.39891 7.31723 7.6067L9.40578 9.67599C9.6155 9.88378 9.95552 9.88378 10.1652 9.67599C10.375 9.4682 10.375 9.13131 10.1652 8.92352Z" fill="#444444" stroke="#444444" stroke-width="0.75"/>
<path d="M21.4878 6.85526L19.3993 8.92455C19.1895 9.13234 19.1895 9.46923 19.3993 9.67702C19.609 9.8848 19.949 9.8848 20.1587 9.67702L22.2473 7.60773C22.457 7.39994 22.457 7.06305 22.2473 6.85526C22.0376 6.64747 21.6975 6.64747 21.4878 6.85526Z" fill="#444444" stroke="#444444" stroke-width="0.75"/>
</g>
</svg>
