<svg width="28" height="28" viewBox="0 0 28 28" fill="none" xmlns="http://www.w3.org/2000/svg">
<path d="M5 11.5L2.5 9.5V16.5L3.5 17.5L5 18.5H6.5L7.5 18L8.5 17L9.5 16.5H10.5L11.5 17L12.5 18L13.5 18.5H15L16 17.5L17 16.5H18.5L19.5 17L21 18.5L22.5 19L24 18L25 16.5H26V9.5L24.5 10L23 11.5H22H21L19.5 10L18.5 9.5H17.5L16.5 10L15 11.5H14L12.5 11L10.5 9.5H9L7.5 11L6 11.5H5Z" fill="#FFE665"/>
<path d="M21.9992 12.1925C20.8688 12.1925 20.2827 11.5686 19.7653 11.0179C19.2853 10.5064 18.8686 10.0642 17.9989 10.0642C17.1291 10.0642 16.7139 10.5064 16.233 11.0179C15.7155 11.5686 15.129 12.1925 13.999 12.1925C12.8691 12.1925 12.2826 11.5686 11.7651 11.0179C11.2851 10.5064 10.869 10.0642 9.9992 10.0642C9.12944 10.0642 8.71424 10.5064 8.23328 11.0179C7.71632 11.5686 7.12928 12.1925 5.99936 12.1925C4.86944 12.1925 4.28288 11.5686 3.76592 11.0179C3.39462 10.6223 3.06123 10.268 2.52692 10.1279C2.24268 10.0533 2 9.82593 2 9.53208V9.53208C2 9.23822 2.24092 8.99279 2.52913 9.05016C3.32666 9.20891 3.80391 9.71688 4.23344 10.1739C4.71344 10.686 5.13008 11.1283 5.99936 11.1283C6.86864 11.1283 7.28432 10.686 7.76528 10.1739C8.28272 9.62385 8.86928 9 9.9992 9C11.1291 9 11.7157 9.62385 12.2331 10.1739C12.7131 10.686 13.1293 11.1283 13.999 11.1283C14.8688 11.1283 15.284 10.686 15.765 10.1739C16.2824 9.62385 16.869 9 17.9989 9C19.1288 9 19.7158 9.62385 20.2333 10.1739C20.7133 10.686 21.1299 11.1283 21.9992 11.1283C22.8685 11.1283 23.2846 10.686 23.7656 10.1739C24.1955 9.71687 24.6732 9.20889 25.4709 9.05015C25.7591 8.9928 26 9.23822 26 9.53208V9.53208C26 9.82593 25.7573 10.0533 25.4731 10.1278C24.9387 10.268 24.6057 10.6222 24.2336 11.0179C23.7162 11.5686 23.1301 12.1925 21.9992 12.1925Z" fill="#444444" stroke="#444444" stroke-width="0.75"/>
<path d="M21.9992 19.1925C20.8688 19.1925 20.2827 18.5686 19.7653 18.0179C19.2853 17.5064 18.8686 17.0642 17.9989 17.0642C17.1291 17.0642 16.7139 17.5064 16.233 18.0179C15.7155 18.5686 15.129 19.1925 13.999 19.1925C12.8691 19.1925 12.2826 18.5686 11.7651 18.0179C11.2851 17.5064 10.869 17.0642 9.9992 17.0642C9.12944 17.0642 8.71424 17.5064 8.23328 18.0179C7.71632 18.5686 7.12928 19.1925 5.99936 19.1925C4.86944 19.1925 4.28288 18.5686 3.76592 18.0179C3.39462 17.6223 3.06123 17.268 2.52692 17.1279C2.24268 17.0533 2 16.8259 2 16.5321V16.5321C2 16.2382 2.24092 15.9928 2.52913 16.0502C3.32666 16.2089 3.80391 16.7169 4.23344 17.1739C4.71344 17.686 5.13008 18.1283 5.99936 18.1283C6.86864 18.1283 7.28432 17.686 7.76528 17.1739C8.28272 16.6239 8.86928 16 9.9992 16C11.1291 16 11.7157 16.6239 12.2331 17.1739C12.7131 17.686 13.1293 18.1283 13.999 18.1283C14.8688 18.1283 15.284 17.686 15.765 17.1739C16.2824 16.6239 16.869 16 17.9989 16C19.1288 16 19.7158 16.6239 20.2333 17.1739C20.7133 17.686 21.1299 18.1283 21.9992 18.1283C22.8685 18.1283 23.2846 17.686 23.7656 17.1739C24.1955 16.7169 24.6732 16.2089 25.4709 16.0501C25.7591 15.9928 26 16.2382 26 16.5321V16.5321C26 16.8259 25.7573 17.0533 25.4731 17.1278C24.9387 17.268 24.6057 17.6222 24.2336 18.0179C23.7162 18.5686 23.1301 19.1925 21.9992 19.1925Z" fill="#444444" stroke="#444444" stroke-width="0.75"/>
</svg>
