<svg width="28" height="28" viewBox="0 0 28 28" fill="none" xmlns="http://www.w3.org/2000/svg">
<path d="M22 16.4444C22 21.3617 17.8479 25 13.5 25C9.15214 25 5 21.3617 5 16.4444C5 11.469 10.7012 5.6256 12.7652 3.67306C13.1823 3.27857 13.8177 3.27857 14.2348 3.67306C16.2988 5.6256 22 11.469 22 16.4444Z" fill="white"/>
<rect width="13" height="11" rx="5.5" transform="matrix(1 0 0 -1 7 24)" fill="#FFE665"/>
<path d="M21 16.4444C21 20.7749 17.3307 24 13.5 24C9.66933 24 6 20.7749 6 16.4444C6 14.2896 7.25961 11.8048 8.91881 9.51131C10.5503 7.25603 12.4418 5.35557 13.4524 4.39952C13.4639 4.38867 13.4733 4.38369 13.4798 4.38113C13.4867 4.37838 13.4935 4.37719 13.5 4.37719C13.5065 4.37719 13.5133 4.37838 13.5202 4.38112C13.5267 4.38368 13.5361 4.38867 13.5476 4.39952C14.5582 5.35557 16.4497 7.25603 18.0812 9.51131C19.7404 11.8048 21 14.2896 21 16.4444Z" stroke="#444444" stroke-width="2"/>
<path d="M18 17C17.75 17.8 16.8 19.52 15 20" stroke="#444444" stroke-width="2" stroke-linecap="round"/>
</svg>
