<svg xmlns="http://www.w3.org/2000/svg" width="45.602" height="56.9" viewBox="0 0 45.602 56.9">
    <defs>
        <style>
            .cls-1{fill:#35ceb3}.cls-2{fill:none;stroke:#333;stroke-linecap:round;stroke-miterlimit:10;stroke-width:1.5px}.cls-3{fill:#333}
        </style>
    </defs>
    <g id="icon" transform="translate(.802 .75)">
        <g id="그룹_2845" transform="translate(28.259 37.392)">
            <path id="패스_565" d="M1154.854 686.21a2.629 2.629 0 1 1-2.629-2.614 2.621 2.621 0 0 1 2.629 2.614z" class="cls-1" transform="translate(-1143.955 -678.139)"/>
            <path id="패스_566" d="M1152.735 680a.536.536 0 0 1-.536-.531v-2.158a.536.536 0 0 1 .536-.533.535.535 0 0 1 .536.533v2.158a.535.535 0 0 1-.536.531z" class="cls-1" transform="translate(-1144.476 -676.775)"/>
            <path id="패스_567" d="M1152.735 696.548a.536.536 0 0 1-.536-.533v-2.158a.536.536 0 0 1 .536-.533.536.536 0 0 1 .536.533v2.158a.535.535 0 0 1-.536.533z" class="cls-1" transform="translate(-1144.476 -680.085)"/>
            <rect id="사각형_2277" width="1.065" height="3.242" class="cls-1" rx=".525" transform="rotate(90 4.421 12.12)"/>
            <rect id="사각형_2278" width="1.065" height="3.242" class="cls-1" rx=".525" transform="rotate(90 -2.218 5.46)"/>
            <path id="패스_568" d="M1157.284 682.029a.532.532 0 0 1 0-.754l1.535-1.526a.539.539 0 0 1 .758 0 .532.532 0 0 1 0 .753l-1.535 1.526a.541.541 0 0 1-.758.001z" class="cls-1" transform="translate(-1145.461 -677.339)"/>
            <path id="패스_569" d="M1145.51 693.731a.532.532 0 0 1 0-.753l1.535-1.526a.539.539 0 0 1 .758 0 .533.533 0 0 1 0 .754l-1.535 1.526a.539.539 0 0 1-.758-.001z" class="cls-1" transform="translate(-1143.107 -679.679)"/>
            <path id="패스_570" d="M1157.284 691.453a.54.54 0 0 1 .758 0l1.534 1.526a.532.532 0 0 1 0 .753.541.541 0 0 1-.758 0l-1.534-1.526a.531.531 0 0 1 0-.753z" class="cls-1" transform="translate(-1145.461 -679.68)"/>
            <path id="패스_571" d="M1145.511 679.75a.539.539 0 0 1 .758 0l1.535 1.526a.534.534 0 0 1 0 .753.54.54 0 0 1-.758 0l-1.534-1.526a.53.53 0 0 1-.001-.753z" class="cls-1" transform="translate(-1143.107 -677.339)"/>
        </g>
        <g id="그룹_2846">
            <path id="패스_572" d="M1124.122 649.483s.4 6.794-10.558 11.663" class="cls-2" transform="translate(-1108.489 -633.925)"/>
            <path id="패스_573" d="M1129.343 649.483s.213 1.738 2.643 3.9 5.6 4.491 6.517 6.86" class="cls-2" transform="translate(-1111.645 -633.925)"/>
            <path id="패스_574" d="M1125.579 639.759c.293.047-1.444 5.059-2.47 5.41s-5.146.5-9.087 4.766-3.674 9.11-4.119 9.219-2.608-5.739-.5-10.33 6.99-10.557 16.176-9.065z" class="cls-2" transform="translate(-1107.475 -631.933)"/>
            <path id="패스_575" d="M1132.662 640.291a10.014 10.014 0 0 1 6.921 5.908c1.986 4.972 1.422 10.733 1.037 11.581s0-5.878-4.267-9.182-5.794-2.867-5.854-3.159 1.718-5.06 2.163-5.148z" class="cls-2" transform="translate(-1111.876 -632.086)"/>
            <path id="패스_576" d="M1118.78 636.4a6.538 6.538 0 0 1 13.072 0" class="cls-2" transform="translate(-1109.533 -630.035)"/>
            <ellipse id="타원_160" cx="1.185" cy="1.303" class="cls-3" rx="1.185" ry="1.303" transform="translate(9.169 28.208)"/>
            <path id="패스_577" d="M1117.331 663.594s2.489-1.035 4.356 0" class="cls-2" transform="translate(-1109.243 -636.655)"/>
            <ellipse id="타원_161" cx="1.185" cy="1.303" class="cls-3" rx="1.185" ry="1.303" transform="translate(20.786 28.208)"/>
            <path id="패스_578" d="M1132.185 663.594s2.49-1.035 4.357 0" class="cls-2" transform="translate(-1112.214 -636.655)"/>
            <path id="패스_579" d="M1121.961 678.236a7.464 7.464 0 0 0 8.765 0" class="cls-2" transform="translate(-1110.169 -639.675)"/>
            <path id="패스_580" d="M1112.07 665.917s.089 8.188 1.956 10.44 6.838 8.3 10.339 8.3" class="cls-2" transform="translate(-1108.191 -637.211)"/>
            <path id="패스_581" d="M1139.861 664.82s-.211 9.066-2.078 11.318-6.838 8.3-10.338 8.3" class="cls-2" transform="translate(-1111.265 -636.992)"/>
            <path id="패스_582" d="M1108.357 665.625s-1.751 1.988-.906 4.123.935 3.041 2.15 3.45" class="cls-2" transform="translate(-1107.221 -637.153)"/>
            <path id="패스_583" d="M1145.731 665.625s1.751 1.988.9 4.123-.934 3.041-2.15 3.45" class="cls-2" transform="translate(-1114.674 -637.153)"/>
            <path id="패스_584" d="M1116.552 681.6a28.568 28.568 0 0 1-.777 13.95" class="cls-2" transform="translate(-1108.932 -640.347)"/>
            <path id="패스_585" d="M1138.014 681.6a28.562 28.562 0 0 0 .776 13.95" class="cls-2" transform="translate(-1113.274 -640.347)"/>
            <path id="패스_586" d="M1128.448 673.563c0 .45-.6.815-1.339.815-.74 0-1.34-.365-1.34-.815" class="cls-2" transform="translate(-1110.93 -638.741)"/>
        </g>
    </g>
</svg>
