<svg xmlns="http://www.w3.org/2000/svg" width="42.3" height="48.701" viewBox="0 0 42.3 48.701">
    <defs>
        <style>
            .cls-1,.cls-2{fill:none;stroke:#333;stroke-linecap:round;stroke-miterlimit:10;stroke-width:1.5px}.cls-2{stroke:#35ceb3}.cls-4{fill:#35ceb3}
        </style>
    </defs>
    <g id="icon" transform="translate(.75 .75)">
        <g id="그룹_2841">
            <path id="패스_544" d="M953.588 641.892h-3.056a3.478 3.478 0 0 0-6.845 0h-3.055a.989.989 0 0 0-.993.985v4.629a.989.989 0 0 0 .993.984h12.956a.988.988 0 0 0 .992-.984v-4.629a.988.988 0 0 0-.992-.985z" class="cls-1" transform="translate(-931.705 -639.035)"/>
            <path id="패스_545" d="M955.534 645.506h3.682a.989.989 0 0 1 .993.985v34.966a.989.989 0 0 1-.993.985h-28.5a.988.988 0 0 1-.992-.985v-34.966a.988.988 0 0 1 .992-.985h4.006" class="cls-1" transform="translate(-929.721 -640.329)"/>
            <path id="선_150" d="M0 0L21.31 0" class="cls-2" transform="translate(4.494 15.198)"/>
            <path id="선_151" d="M0 0L21.31 0" class="cls-2" transform="translate(4.494 20.864)"/>
            <path id="선_152" d="M0 0L21.31 0" class="cls-2" transform="translate(4.494 26.529)"/>
            <path id="선_153" d="M0 0L21.31 0" class="cls-2" transform="translate(4.494 32.091)"/>
        </g>
        <g id="그룹_2843" transform="translate(15.59 22.234)">
            <ellipse id="타원_159" cx="12.605" cy="12.483" fill="#fff" stroke="#1a1a1a" stroke-linecap="round" stroke-miterlimit="10" stroke-width="1.5px" rx="12.605" ry="12.483"/>
            <g id="그룹_2842" transform="translate(2.675 3.544)">
                <path id="패스_546" d="M971.72 682.044h-.066a.909.909 0 0 0-.71.308.99.99 0 0 0-.236.656.925.925 0 0 0 .946.964h.066a.9.9 0 0 0 .711-.307.994.994 0 0 0 .235-.656.926.926 0 0 0-.946-.965z" class="cls-4" transform="translate(-956.183 -673.414)"/>
                <path id="패스_547" d="M970.174 687.8v.067a.974.974 0 0 0 1.946 0v-.067a.975.975 0 0 0-1.946 0z" class="cls-4" transform="translate(-956.076 -674.381)"/>
                <path id="패스_548" d="M968.073 686.575a.915.915 0 0 0-.018-1.346.939.939 0 0 0-1.358-.018l-.066.066a.879.879 0 0 0-.255.883 1.075 1.075 0 0 0 .74.734.98.98 0 0 0 .238.031.921.921 0 0 0 .653-.284z" class="cls-4" transform="translate(-955.31 -673.991)"/>
                <path id="패스_549" d="M964.827 689.217a.965.965 0 0 0 0 1.929.916.916 0 0 0 .712-.308 1 1 0 0 0 .234-.657.925.925 0 0 0-.946-.964z" class="cls-4" transform="translate(-954.818 -674.849)"/>
                <path id="패스_550" d="M961.647 684.929h-.066a.908.908 0 0 0-.71.308 1 1 0 0 0-.236.656.926.926 0 0 0 .946.965h.066a.965.965 0 0 0 0-1.929z" class="cls-4" transform="translate(-954.168 -673.991)"/>
                <path id="패스_551" d="M964.8 681.606a.926.926 0 0 0 .946.965.91.91 0 0 0 .71-.306 1 1 0 0 0 .236-.658.947.947 0 1 0-1.893 0z" class="cls-4" transform="translate(-955.001 -673.134)"/>
                <path id="패스_552" d="M960.55 680.03v-.066a.893.893 0 0 0-.31-.7 1.025 1.025 0 0 0-.663-.233.927.927 0 0 0-.974.938v.066a.974.974 0 0 0 1.947 0z" class="cls-4" transform="translate(-953.762 -672.811)"/>
                <path id="패스_553" d="M957.271 687.965v.067a.974.974 0 0 0 1.946 0v-.067a.975.975 0 0 0-1.946 0z" class="cls-4" transform="translate(-953.496 -674.414)"/>
                <path id="패스_554" d="M968.74 691.2a.907.907 0 0 0-.711.306 1 1 0 0 0-.236.656.927.927 0 0 0 .947.966.907.907 0 0 0 .71-.307.993.993 0 0 0 .236-.658.926.926 0 0 0-.946-.963z" class="cls-4" transform="translate(-955.6 -675.245)"/>
                <path id="패스_555" d="M961.33 690.7a.964.964 0 0 0 0 1.928.914.914 0 0 0 .713-.308 1 1 0 0 0 .234-.657.925.925 0 0 0-.947-.963z" class="cls-4" transform="translate(-954.118 -675.146)"/>
                <path id="패스_556" d="M957.949 683.091a.926.926 0 0 0-.946-.964.907.907 0 0 0-.711.307 1 1 0 0 0-.235.656.926.926 0 0 0 .946.965.91.91 0 0 0 .71-.307 1 1 0 0 0 .236-.657z" class="cls-4" transform="translate(-953.253 -673.431)"/>
                <path id="패스_557" d="M964.662 677.862l.088-.087a1.049 1.049 0 0 0 .3-.769.957.957 0 0 0-.308-.7 1.069 1.069 0 0 0-1.474 0l-.088.086a1.056 1.056 0 0 0-.3.77.958.958 0 0 0 .307.7 1.108 1.108 0 0 0 .746.291 1.03 1.03 0 0 0 .729-.291z" class="cls-4" transform="translate(-954.618 -672.208)"/>
                <path id="패스_558" d="M968.909 678.445a1.077 1.077 0 0 0 .252.706.981.981 0 0 0 .765.33 1 1 0 0 0 1.018-1.037 1.067 1.067 0 0 0-.254-.706.976.976 0 0 0-.764-.33 1 1 0 0 0-1.017 1.037z" class="cls-4" transform="translate(-955.823 -672.487)"/>
                <path id="패스_559" d="M967.849 673.11a1.076 1.076 0 0 0 .754.3h.024a.981.981 0 0 0 .707-.306 1.045 1.045 0 0 0 0-1.46l-.088-.086a1.044 1.044 0 0 0-.777-.3.982.982 0 0 0-.709.3 1.047 1.047 0 0 0 .005 1.461z" class="cls-4" transform="translate(-955.534 -671.257)"/>
                <path id="패스_560" d="M974.869 677.039a1.073 1.073 0 0 0-.254-.706.977.977 0 0 0-.764-.33 1 1 0 0 0-1.018 1.038 1.082 1.082 0 0 0 .252.706.98.98 0 0 0 .766.33 1 1 0 0 0 1.018-1.038z" class="cls-4" transform="translate(-956.608 -672.206)"/>
                <path id="패스_561" d="M975.268 684.966a1 1 0 0 0-1.016 1.034 1.077 1.077 0 0 0 .252.706.978.978 0 0 0 .764.33 1 1 0 0 0 1.018-1.036 1.075 1.075 0 0 0-.253-.706.98.98 0 0 0-.765-.328z" class="cls-4" transform="translate(-956.892 -673.999)"/>
                <path id="패스_562" d="M976.516 680.062a.982.982 0 0 0-.717-.278 1.059 1.059 0 0 0-1.039 1.036v.086a1.056 1.056 0 0 0 .337.758.984.984 0 0 0 .677.28h.041a1.06 1.06 0 0 0 1.039-1.038v-.086a1.052 1.052 0 0 0-.338-.758z" class="cls-4" transform="translate(-956.994 -672.962)"/>
                <path id="패스_563" d="M964.147 674.3a.994.994 0 0 0 1.017-1.038 1.078 1.078 0 0 0-.252-.706.978.978 0 0 0-.765-.33 1 1 0 0 0-1.018 1.038 1.068 1.068 0 0 0 .254.706.973.973 0 0 0 .764.33z" class="cls-4" transform="translate(-954.667 -671.45)"/>
                <path id="패스_564" d="M953.57 683.563a1 1 0 0 0-1.018 1.037 1.073 1.073 0 0 0 .254.706.976.976 0 0 0 .764.33 1 1 0 0 0 1.018-1.037 1.079 1.079 0 0 0-.252-.706.981.981 0 0 0-.766-.33z" class="cls-4" transform="translate(-952.552 -673.718)"/>
            </g>
        </g>
    </g>
</svg>
