<svg xmlns="http://www.w3.org/2000/svg" width="51.2" height="56.899" viewBox="0 0 51.2 56.899">
    <defs>
        <style>
            .cls-1{fill:none;stroke:#333;stroke-linecap:round;stroke-miterlimit:10;stroke-width:1.5px}.cls-2{fill:#333}.cls-3{fill:#35ceb3}
        </style>
    </defs>
    <g id="icon" transform="translate(0 .75)">
        <g id="그룹_2850" transform="translate(11.92)">
            <path id="패스_608" d="M1477.871 649.483s.4 6.794-10.464 11.663" class="cls-1" transform="translate(-1462.378 -633.925)"/>
            <path id="패스_609" d="M1483.046 649.483s.211 1.738 2.619 3.9 5.55 4.491 6.46 6.86" class="cls-1" transform="translate(-1465.506 -633.925)"/>
            <path id="패스_610" d="M1479.317 639.759c.29.047-1.432 5.059-2.449 5.41s-5.1.5-9.006 4.766-3.642 9.11-4.082 9.219-2.585-5.739-.5-10.33 6.931-10.557 16.037-9.065z" class="cls-1" transform="translate(-1461.373 -631.933)"/>
            <path id="패스_611" d="M1486.335 640.291a9.937 9.937 0 0 1 6.859 5.908c1.968 4.972 1.41 10.733 1.028 11.581s0-5.878-4.23-9.182-5.743-2.867-5.8-3.159 1.703-5.06 2.143-5.148z" class="cls-1" transform="translate(-1465.735 -632.086)"/>
            <path id="패스_612" d="M1472.577 636.4a6.479 6.479 0 0 1 12.956 0" class="cls-1" transform="translate(-1463.412 -630.035)"/>
            <ellipse id="타원_165" cx="1.175" cy="1.303" class="cls-2" rx="1.175" ry="1.303" transform="translate(9.087 28.208)"/>
            <path id="패스_613" d="M1471.14 663.594s2.468-1.035 4.318 0" class="cls-1" transform="translate(-1463.125 -636.655)"/>
            <ellipse id="타원_166" cx="1.175" cy="1.303" class="cls-2" rx="1.175" ry="1.303" transform="translate(20.6 28.208)"/>
            <path id="패스_614" d="M1485.863 663.594s2.467-1.035 4.318 0" class="cls-1" transform="translate(-1466.069 -636.655)"/>
            <path id="패스_615" d="M1475.73 678.236a7.346 7.346 0 0 0 8.686 0" class="cls-1" transform="translate(-1464.043 -639.675)"/>
            <path id="패스_616" d="M1465.927 665.917s.088 8.188 1.938 10.44 6.778 8.3 10.247 8.3" class="cls-1" transform="translate(-1462.082 -637.211)"/>
            <path id="패스_617" d="M1493.47 664.82s-.21 9.066-2.06 11.318-6.777 8.3-10.246 8.3" class="cls-1" transform="translate(-1465.13 -636.992)"/>
            <path id="패스_618" d="M1462.247 665.625s-1.735 1.988-.9 4.123.926 3.041 2.13 3.45" class="cls-1" transform="translate(-1461.121 -637.153)"/>
            <path id="패스_619" d="M1499.289 665.625s1.735 1.988.9 4.123-.927 3.041-2.13 3.45" class="cls-1" transform="translate(-1468.508 -637.153)"/>
            <path id="패스_620" d="M1470.368 681.6a28.8 28.8 0 0 1-.77 13.95" class="cls-1" transform="translate(-1462.817 -640.347)"/>
            <path id="패스_621" d="M1491.639 681.6a28.8 28.8 0 0 0 .77 13.95" class="cls-1" transform="translate(-1467.121 -640.347)"/>
            <path id="패스_622" d="M1482.159 673.563c0 .45-.594.815-1.327.815-.734 0-1.328-.365-1.328-.815" class="cls-1" transform="translate(-1464.798 -638.741)"/>
        </g>
        <path id="패스_623" d="M1504.552 641.459c-.238 3.988.044 6.033-3.7 5.934 2.57.662 3.619.83 3.743 5.452.54-4.163.82-4.982 3.754-5.326-3.955-.081-3.487-2.045-3.797-6.06z" class="cls-3" transform="translate(-1457.147 -632.32)"/>
        <path id="패스_624" d="M1450.861 661.885c-.438 4.738-.182 7.183-4.64 6.921 3.035.889 3.547 1.21 4.246 6.637.8-4.936 1.17-5.9 4.676-6.2-4.703-.243-4.069-2.566-4.282-7.358z" class="cls-3" transform="translate(-1446.221 -636.405)"/>
    </g>
</svg>
