<svg xmlns="http://www.w3.org/2000/svg" width="33.603" height="56.899" viewBox="0 0 33.603 56.899">
    <defs>
        <style>
            .cls-1{fill:none;stroke:#333;stroke-linecap:round;stroke-miterlimit:10;stroke-width:1.5px}.cls-2{fill:#333}.cls-3{fill:#35ceb3}
        </style>
    </defs>
    <g id="icon" transform="translate(.802 .75)">
        <g id="그룹_2840">
            <path id="패스_510" d="M1482.02 403.483s.4 6.794-10.494 11.663" class="cls-1" transform="translate(-1466.482 -387.925)"/>
            <path id="패스_511" d="M1487.211 403.483s.211 1.738 2.626 3.9 5.566 4.491 6.479 6.86" class="cls-1" transform="translate(-1469.619 -387.925)"/>
            <path id="패스_512" d="M1483.47 393.759c.291.047-1.436 5.059-2.456 5.41s-5.115.5-9.033 4.766-3.653 9.11-4.094 9.219-2.592-5.739-.5-10.33 6.951-10.557 16.083-9.065z" class="cls-1" transform="translate(-1465.474 -385.933)"/>
            <path id="패스_513" d="M1490.509 394.291a9.961 9.961 0 0 1 6.879 5.908c1.974 4.972 1.415 10.733 1.031 11.581s0-5.878-4.241-9.182-5.76-2.867-5.819-3.159 1.708-5.06 2.15-5.148z" class="cls-1" transform="translate(-1469.848 -386.086)"/>
            <path id="패스_514" d="M1476.711 390.4a6.5 6.5 0 0 1 12.993 0" class="cls-1" transform="translate(-1467.519 -384.035)"/>
            <ellipse id="타원_154" cx="1.178" cy="1.303" class="cls-2" rx="1.178" ry="1.303" transform="translate(9.113 28.208)"/>
            <path id="패스_515" d="M1475.27 417.594s2.474-1.035 4.33 0" class="cls-1" transform="translate(-1467.231 -390.655)"/>
            <ellipse id="타원_155" cx="1.178" cy="1.303" class="cls-2" rx="1.178" ry="1.303" transform="translate(20.661 28.208)"/>
            <path id="패스_516" d="M1490.036 417.594s2.474-1.035 4.33 0" class="cls-1" transform="translate(-1470.184 -390.655)"/>
            <path id="패스_517" d="M1479.873 432.236a7.384 7.384 0 0 0 8.712 0" class="cls-1" transform="translate(-1468.152 -393.675)"/>
            <path id="패스_518" d="M1470.041 419.917s.089 8.188 1.944 10.44 6.8 8.3 10.278 8.3" class="cls-1" transform="translate(-1466.185 -391.211)"/>
            <path id="패스_519" d="M1497.665 418.82s-.21 9.066-2.066 11.318-6.8 8.3-10.278 8.3" class="cls-1" transform="translate(-1469.241 -390.992)"/>
            <path id="패스_520" d="M1466.35 419.625s-1.74 1.988-.9 4.123.929 3.041 2.137 3.45" class="cls-1" transform="translate(-1465.221 -391.153)"/>
            <path id="패스_521" d="M1503.5 419.625s1.741 1.988.9 4.123-.929 3.041-2.137 3.45" class="cls-1" transform="translate(-1472.63 -391.153)"/>
            <path id="패스_522" d="M1474.495 435.6a28.725 28.725 0 0 1-.772 13.95" class="cls-1" transform="translate(-1466.922 -394.347)"/>
            <path id="패스_523" d="M1495.829 435.6a28.726 28.726 0 0 0 .772 13.95" class="cls-1" transform="translate(-1471.238 -394.347)"/>
            <path id="패스_524" d="M1486.321 427.563c0 .45-.6.815-1.332.815-.735 0-1.331-.365-1.331-.815" class="cls-1" transform="translate(-1468.909 -392.741)"/>
            <path id="패스_525" d="M1496.216 425.129c-.1 1.614-1.3 3.855-2.522 3.778s-2.137-1.448-2.034-3.062a2.731 2.731 0 0 1 2.409-2.781c1.231-.047 2.25.451 2.147 2.065z" class="cls-3" transform="translate(-1470.507 -391.84)"/>
            <path id="패스_526" d="M1473.286 425.129c.1 1.614 1.3 3.855 2.522 3.778s2.138-1.448 2.033-3.062a2.73 2.73 0 0 0-2.408-2.781c-1.227-.047-2.25.451-2.147 2.065z" class="cls-3" transform="translate(-1466.833 -391.84)"/>
        </g>
    </g>
</svg>
