<svg xmlns="http://www.w3.org/2000/svg" width="37.855" height="60.13" viewBox="0 0 37.855 60.13">
    <defs>
        <style>
            .cls-1{fill:none}.cls-1,.cls-5{stroke:#333;stroke-linecap:round;stroke-width:1.5px}.cls-1{stroke-miterlimit:10}.cls-2{fill:#333}.cls-5{fill:#fff;stroke-linejoin:round}
        </style>
    </defs>
    <g id="icon" transform="translate(.802 .75)">
        <path id="패스_587" d="M1299.55 649.455s.4 6.785-10.513 11.648" class="cls-1" transform="translate(-1283.984 -633.919)"/>
        <path id="패스_588" d="M1304.75 649.455s.212 1.737 2.631 3.9 5.575 4.485 6.49 6.85" class="cls-1" transform="translate(-1287.127 -633.919)"/>
        <path id="패스_589" d="M1301 639.745c.291.048-1.438 5.052-2.46 5.4s-5.124.5-9.049 4.761-3.659 9.1-4.1 9.206-2.6-5.732-.5-10.317 6.963-10.539 16.109-9.05z" class="cls-1" transform="translate(-1282.974 -631.93)"/>
        <path id="패스_590" d="M1308.054 640.277a9.975 9.975 0 0 1 6.892 5.9c1.977 4.964 1.416 10.717 1.033 11.564s0-5.87-4.25-9.17-5.771-2.862-5.83-3.154 1.713-5.053 2.155-5.14z" class="cls-1" transform="translate(-1287.356 -632.083)"/>
        <path id="패스_591" d="M1294.231 636.392a6.51 6.51 0 0 1 13.017 0" class="cls-1" transform="translate(-1285.023 -630.035)"/>
        <ellipse id="타원_162" cx="1.18" cy="1.301" class="cls-2" rx="1.18" ry="1.301" transform="translate(9.13 28.169)"/>
        <path id="패스_592" d="M1292.788 663.547s2.479-1.034 4.338 0" class="cls-1" transform="translate(-1284.734 -636.646)"/>
        <ellipse id="타원_163" cx="1.18" cy="1.301" class="cls-2" rx="1.18" ry="1.301" transform="translate(20.698 28.169)"/>
        <path id="패스_593" d="M1307.58 663.547s2.478-1.034 4.338 0" class="cls-1" transform="translate(-1287.693 -636.646)"/>
        <path id="패스_594" d="M1297.4 678.168a7.414 7.414 0 0 0 8.727 0" class="cls-1" transform="translate(-1285.656 -639.662)"/>
        <path id="패스_595" d="M1287.55 665.867s.089 8.177 1.947 10.425 6.81 8.294 10.3 8.294" class="cls-1" transform="translate(-1283.687 -637.201)"/>
        <path id="패스_596" d="M1315.223 664.772s-.21 9.053-2.07 11.3-6.809 8.294-10.3 8.294" class="cls-1" transform="translate(-1286.748 -636.982)"/>
        <path id="패스_597" d="M1283.852 665.575s-1.744 1.986-.9 4.118.931 3.037 2.141 3.446" class="cls-1" transform="translate(-1282.721 -637.143)"/>
        <path id="패스_598" d="M1321.068 665.575s1.744 1.986.9 4.118-.931 3.037-2.141 3.446" class="cls-1" transform="translate(-1290.142 -637.143)"/>
        <path id="패스_599" d="M1292.012 681.525a28.6 28.6 0 0 1-.773 13.931" class="cls-1" transform="translate(-1284.424 -640.333)"/>
        <path id="패스_600" d="M1313.384 681.525a28.6 28.6 0 0 0 .774 13.931" class="cls-1" transform="translate(-1288.749 -640.333)"/>
        <path id="패스_601" d="M1303.858 673.5c0 .45-.6.814-1.333.814-.736 0-1.333-.365-1.333-.814" class="cls-1" transform="translate(-1286.415 -638.728)"/>
        <ellipse id="타원_164" cx="5.01" cy="4.958" fill="#fff" stroke="#333" stroke-linecap="round" stroke-miterlimit="10" stroke-width="1.5px" rx="5.01" ry="4.958" transform="translate(22.353 33.291)"/>
        <path id="선_154" d="M0 0L4.686 3.695" class="cls-1" transform="translate(31.314 41.579)"/>
        <path id="패스_602" fill="#35ceb3" d="M1316.54 674.24s-1.54 2.07-1.54 3.36a1.576 1.576 0 0 0 1.517 1.755 1.517 1.517 0 0 0 1.563-1.658c0-1.44-1.54-3.457-1.54-3.457z" transform="translate(-1289.177 -638.876)"/>
        <path id="패스_603" d="M1287.79 674.954c.469-1.2 1.714-3.026 4.7-2.06 2.355.76 4.406 3.711 4.406 4.848 0 .594-.521.725-1.426.635" class="cls-5" transform="translate(-1283.735 -638.552)"/>
        <g id="그룹_2848" transform="translate(1.015 35.806)">
            <path id="패스_604" d="M1284.983 696.65l-.994-6.69.992-7.886 2.829-5.912.021-.046.042-.03c.487-.364.906-.461 1.245-.288a1.41 1.41 0 0 1 .6 1.021l1.037-2.026h.128c.832 0 1.147.8 1.218 1.333a1.141 1.141 0 0 1 .764.528c.538.87.053 2.506-.126 3.038.3.252.5.977.153 3.237-.2 1.338-.521 2.657-.57 2.854v.286a16.841 16.841 0 0 0 .48 3.752c.734 3.158-.921 7.244-1.054 7.566" class="cls-5" transform="translate(-1283.989 -674.792)"/>
            <path id="패스_605" d="M1290.375 677.324a16.239 16.239 0 0 0-3.125 9.109" class="cls-5" transform="translate(-1284.641 -675.298)"/>
            <path id="패스_606" d="M1294.335 681.039s-1.746-.067-2.136 8.108" class="cls-5" transform="translate(-1285.631 -676.041)"/>
            <path id="패스_607" d="M1293.089 676.764s-3.758 6.7-3.8 11.94" class="cls-5" transform="translate(-1285.049 -675.186)"/>
        </g>
    </g>
</svg>
