<svg width="24" height="24" viewBox="0 0 24 24" fill="none" xmlns="http://www.w3.org/2000/svg">
<path d="M22 18.1429C22 18.6733 21.7893 19.182 21.4142 19.5571C21.0391 19.9321 20.5304 20.1429 20 20.1429H4C3.46957 20.1429 2.96086 19.9321 2.58579 19.5571C2.21071 19.182 2 18.6733 2 18.1429V5C2 4.46957 2.21071 3.96086 2.58579 3.58579C2.96086 3.21071 3.46957 3 4 3H8.1309C8.68526 3 9.21475 3.23009 9.59301 3.63536L11 5.14286H20C20.5304 5.14286 21.0391 5.35357 21.4142 5.72864C21.7893 6.10372 22 6.61242 22 7.14286V18.1429Z" fill="#444444"/>
<path d="M11.999 10.2852V15.428" stroke="white" stroke-linecap="round"/>
<path d="M14.5703 12.8564L9.42746 12.8564" stroke="white" stroke-linecap="round"/>
</svg>
