<svg width="38" height="37" viewBox="0 0 38 37" fill="none" xmlns="http://www.w3.org/2000/svg">
<path d="M19.9779 31.273C19.3704 30.9325 18.6296 30.9325 18.0221 31.273L9.80508 35.8789C8.31606 36.7136 6.53315 35.4193 6.86542 33.745L8.70251 24.4879C8.83778 23.8063 8.60954 23.1033 8.09966 22.6311L1.17786 16.2213C-0.0737655 15.0623 0.606974 12.969 2.30093 12.7679L11.6584 11.6567C12.3494 11.5747 12.9481 11.1394 13.2392 10.5074L17.1834 1.94397C17.8978 0.392909 20.1022 0.392906 20.8166 1.94397L24.7608 10.5074C25.0519 11.1394 25.6506 11.5747 26.3416 11.6567L35.6991 12.7679C37.393 12.969 38.0738 15.0623 36.8221 16.2213L29.9003 22.6311C29.3905 23.1033 29.1622 23.8063 29.2975 24.4879L31.1346 33.745C31.4669 35.4193 29.6839 36.7136 28.1949 35.8789L19.9779 31.273Z" fill="#FFE665"/>
</svg>
