<svg width="24" height="24" viewBox="0 0 24 24" fill="none" xmlns="http://www.w3.org/2000/svg">
<path d="M19 16V16.2361L19.1056 16.4472L20.0693 18.3747C20.2983 19.1844 19.6903 20 18.8377 20H3.16228C2.30967 20 1.70172 19.1844 1.93067 18.3747L2.89443 16.4472L3 16.2361V16V12C3 7.58172 6.58172 4 11 4C15.4183 4 19 7.58172 19 12V16Z" stroke="white" stroke-width="2"/>
<rect x="10" y="1" width="2" height="4" rx="1" fill="white"/>
<path d="M8.17065 22C8.58249 23.1652 9.69373 24 10.9999 24C12.3062 24 13.4174 23.1652 13.8292 22H8.17065Z" fill="white"/>
<circle cx="22" cy="2" r="2" fill="#EF4C57"/>
</svg>
