<svg width="18" height="18" viewBox="0 0 18 18" fill="none" xmlns="http://www.w3.org/2000/svg">
<path d="M10.5 6.74999H9.75C9.75 7.16421 10.0858 7.49999 10.5 7.49999V6.74999ZM10.5 4.87499H11.25H10.5ZM9.84099 3.284L9.31066 3.81433L9.31066 3.81434L9.84099 3.284ZM13.71 16.5L13.7185 15.75H13.71V16.5ZM15.21 15.225L14.4687 15.1113L14.4685 15.1125L15.21 15.225ZM16.245 8.475L16.9863 8.58867L16.9865 8.58754L16.245 8.475ZM14.745 6.74999V7.50004L14.7535 7.49995L14.745 6.74999ZM1.5 15H0.75H1.5ZM3 8.25V9V8.25ZM11.25 6.74999V4.87499H9.75V6.74999H11.25ZM11.25 4.87499C11.25 4.07935 10.9339 3.31628 10.3713 2.75367L9.31066 3.81434C9.59197 4.09564 9.75 4.47717 9.75 4.87499H11.25ZM10.3713 2.75368C10.2382 2.62055 9.90886 2.26904 9.47109 2.04927C8.98462 1.80505 8.33682 1.70852 7.65567 2.10226L8.40635 3.4009C8.50529 3.34371 8.57096 3.33568 8.61247 3.33634C8.65966 3.33709 8.71967 3.35045 8.79811 3.38983C8.97794 3.4801 9.1338 3.63747 9.31066 3.81433L10.3713 2.75368ZM7.65567 2.10226C7.4043 2.24756 7.20447 2.49272 7.06385 2.68613C6.90566 2.9037 6.74449 3.16813 6.5872 3.45023C6.27164 4.01624 5.94002 4.71103 5.64153 5.37543C5.34172 6.04277 5.0693 6.69301 4.87218 7.17544C4.7735 7.41696 4.69341 7.61712 4.63786 7.75721C4.61008 7.82727 4.58843 7.88235 4.57364 7.92011C4.56625 7.93899 4.56057 7.95354 4.5567 7.96348C4.55477 7.96845 4.55329 7.97226 4.55227 7.97488C4.55176 7.97619 4.55137 7.97721 4.55109 7.97792C4.55095 7.97828 4.55084 7.97856 4.55076 7.97876C4.55072 7.97886 4.55069 7.97896 4.55067 7.97901C4.55064 7.97909 4.55062 7.97915 5.25 8.25C5.94939 8.52085 5.94938 8.52087 5.94938 8.52087C5.94939 8.52084 5.9494 8.52082 5.94941 8.52077C5.94945 8.52067 5.94952 8.5205 5.94962 8.52024C5.94981 8.51974 5.95013 8.51894 5.95055 8.51784C5.95141 8.51564 5.95272 8.51225 5.95449 8.50772C5.95802 8.49866 5.96334 8.485 5.97037 8.46705C5.98444 8.43114 6.00531 8.37804 6.03226 8.31007C6.08616 8.17412 6.1643 7.97884 6.26075 7.74279C6.45388 7.2701 6.7193 6.63673 7.00979 5.99014C7.3016 5.3406 7.61276 4.69112 7.89734 4.18067C8.04014 3.92455 8.16838 3.71771 8.27706 3.56823C8.40332 3.39459 8.44782 3.37693 8.40635 3.4009L7.65567 2.10226ZM4.5 8.25V16.5H6V8.25H4.5ZM5.25 17.25H13.71V15.75H5.25V17.25ZM13.7015 17.2499C14.2441 17.2561 14.7707 17.0659 15.1842 16.7145L14.2127 15.5715C14.0749 15.6887 13.8994 15.7521 13.7185 15.75L13.7015 17.2499ZM15.1842 16.7145C15.5976 16.363 15.8702 15.874 15.9515 15.3374L14.4685 15.1125C14.4414 15.2914 14.3505 15.4544 14.2127 15.5715L15.1842 16.7145ZM15.9513 15.3387L16.9863 8.58867L15.5037 8.36132L14.4687 15.1113L15.9513 15.3387ZM16.9865 8.58754C17.0355 8.26507 17.0137 7.93581 16.9228 7.62258L15.4822 8.04079C15.5126 8.1452 15.5198 8.25496 15.5035 8.36245L16.9865 8.58754ZM16.9228 7.62258C16.8318 7.30935 16.6739 7.01963 16.4599 6.7735L15.3279 7.75776C15.3993 7.8398 15.4519 7.93638 15.4822 8.04079L16.9228 7.62258ZM16.4599 6.7735C16.2458 6.52737 15.9808 6.33071 15.6833 6.19716L15.0691 7.56565C15.1683 7.61017 15.2566 7.67572 15.3279 7.75776L16.4599 6.7735ZM15.6833 6.19716C15.3857 6.06361 15.0627 5.99635 14.7365 6.00004L14.7535 7.49995C14.8622 7.49871 14.9699 7.52113 15.0691 7.56565L15.6833 6.19716ZM14.745 5.99999H10.5V7.49999H14.745V5.99999ZM5.25 15.75H3V17.25H5.25V15.75ZM3 15.75C2.80109 15.75 2.61032 15.671 2.46967 15.5303L1.40901 16.591C1.83097 17.0129 2.40326 17.25 3 17.25V15.75ZM2.46967 15.5303C2.32902 15.3897 2.25 15.1989 2.25 15H0.75C0.75 15.5967 0.987053 16.169 1.40901 16.591L2.46967 15.5303ZM2.25 15V9.75H0.75V15H2.25ZM2.25 9.75C2.25 9.55108 2.32902 9.36032 2.46967 9.21967L1.40901 8.15901C0.987053 8.58096 0.75 9.15326 0.75 9.75H2.25ZM2.46967 9.21967C2.61032 9.07901 2.80109 9 3 9V7.5C2.40326 7.5 1.83097 7.73705 1.40901 8.15901L2.46967 9.21967ZM3 9H5.25V7.5H3V9Z" fill="#666666"/>
</svg>
