<svg width="44" height="44" viewBox="0 0 44 44" fill="none" xmlns="http://www.w3.org/2000/svg">
<circle cx="22" cy="22" r="22" fill="#EEEEEE"/>
<path d="M22.0001 13.1999C16.5339 13.1999 12.1001 16.5696 12.1001 20.728C12.1001 23.3987 13.9377 25.7434 16.6941 27.0827L15.7611 30.4329C15.7462 30.4747 15.742 30.5194 15.7487 30.5631C15.7554 30.6069 15.7729 30.6485 15.7997 30.6844C15.8265 30.7203 15.8618 30.7495 15.9027 30.7696C15.9437 30.7897 15.989 30.8001 16.0349 30.7999C16.0979 30.7974 16.1583 30.7755 16.2073 30.7374L20.2172 28.1292C20.8077 28.2114 21.4035 28.2532 22.0001 28.2541C27.4764 28.2541 31.9001 24.8864 31.9001 20.728C31.9001 16.5696 27.4663 13.1999 22.0001 13.1999Z" fill="#444444"/>
</svg>
