<svg width="14" height="14" viewBox="0 0 14 14" fill="none" xmlns="http://www.w3.org/2000/svg">
<path d="M6.39576 1.45822L1.39576 5.24988C1.14645 5.43894 1 5.7338 1 6.04668V11.7C1 12.0448 1.14048 12.3754 1.39052 12.6192C1.64057 12.863 1.97971 13 2.33333 13H4.27507C4.82735 13 5.27507 12.5523 5.27507 12V9.53252C5.27507 8.98023 5.72278 8.53252 6.27507 8.53252H7.6084C8.16068 8.53252 8.6084 8.98023 8.6084 9.53252V12C8.6084 12.5523 9.05612 13 9.6084 13H11.6667C12.0203 13 12.3594 12.863 12.6095 12.6192C12.8595 12.3754 13 12.0448 13 11.7V6.04668C13 5.7338 12.8536 5.43894 12.6042 5.24988L7.60424 1.45822C7.24697 1.18728 6.75303 1.18728 6.39576 1.45822Z" stroke="#888888" stroke-width="1.5" stroke-linecap="round" stroke-linejoin="round"/>
</svg>
