<svg width="50" height="25" viewBox="0 0 50 25" fill="none" xmlns="http://www.w3.org/2000/svg">
<path d="M0 0.427979H7.59941C13.6699 0.427979 17.0697 4.04568 17.0697 10.2251C17.0697 16.9469 12.256 19.6457 7.86239 19.6457H0V18.864H1.2999C2.21583 18.864 2.34582 18.5918 2.34582 15.9239V3.72805C2.34582 1.89548 2.24582 1.22 1.37889 1.22H0V0.427979ZM5.27559 18.864H7.54741C12.573 18.864 13.8289 14.3852 13.8289 10.0982C13.8289 5.53896 12.519 1.22412 7.39242 1.22412H5.27559V18.864Z" fill="#4F342A"/>
<path d="M17.2817 18.994H18.8556C19.7685 18.994 19.8925 18.4495 19.8925 17.3564V9.91987C19.8925 7.63045 19.6925 7.08491 18.9846 7.08491H17.7457V6.29495H20.5965C21.2138 6.28547 21.8216 6.13694 22.3773 5.85975V9.04639H22.4283C23.1853 7.43863 24.3642 5.85975 26.247 5.85975C26.5354 5.8298 26.8266 5.86118 27.1028 5.95194C27.3789 6.0427 27.634 6.19092 27.8524 6.38743C28.0708 6.58394 28.2477 6.82456 28.3723 7.09442C28.4969 7.36427 28.5666 7.65763 28.5769 7.95633C28.6011 8.1947 28.5741 8.43563 28.4979 8.66204C28.4216 8.88844 28.298 9.09476 28.1357 9.26633C27.9735 9.43791 27.7766 9.57053 27.5591 9.65479C27.3415 9.73904 27.1086 9.77286 26.877 9.75384C26.143 9.75384 25.3831 9.40114 25.3831 8.60913C25.4005 8.36144 25.4369 8.11556 25.4921 7.87383C25.4921 7.68098 25.1521 7.6583 24.9681 7.6583C23.3683 7.6583 22.5093 9.48261 22.5093 14.4142V17.3564C22.5093 18.5836 22.7583 18.994 23.5452 18.994H25.0211V19.784H17.2817V18.994Z" fill="#4F342A"/>
<path d="M29.0096 16.6758C29.3306 16.6756 29.6446 16.7736 29.9116 16.9575C30.1786 17.1413 30.3868 17.4028 30.5097 17.7087C30.6326 18.0146 30.6648 18.3513 30.6021 18.676C30.5394 19.0008 30.3848 19.2991 30.1577 19.5332C29.9306 19.7673 29.6412 19.9266 29.3263 19.991C29.0113 20.0555 28.6849 20.0221 28.3884 19.8951C28.0919 19.7682 27.8385 19.5533 27.6604 19.2778C27.4823 19.0023 27.3874 18.6785 27.3878 18.3473C27.4041 17.9092 27.5803 17.4936 27.881 17.1837C28.1817 16.8738 28.5847 16.6924 29.0096 16.6758Z" fill="#4F342A"/>
<path d="M47.3333 5.31717H46.4174C46.3784 4.08147 45.8676 2.91171 44.9961 2.06275C44.1246 1.21378 42.9631 0.754417 41.7647 0.784727C37.0041 0.784727 36.2412 6.36907 36.2412 10.2023C36.2412 14.249 37.0291 19.1589 41.4508 19.295C41.9399 19.3425 42.4332 19.278 42.8954 19.1063C43.3576 18.9345 43.7773 18.6596 44.1247 18.3013C44.472 17.9429 44.7384 17.51 44.9048 17.0332C45.0713 16.5565 45.1336 16.0477 45.0875 15.5433V13.4508C45.1018 13.2568 45.0765 13.0617 45.0132 12.8784C44.9499 12.695 44.85 12.5274 44.7199 12.3864C44.5899 12.2454 44.4326 12.1341 44.2582 12.0597C44.0838 11.9853 43.8962 11.9494 43.7076 11.9544H41.4508V11.1727H50.0001V11.9544H48.9002C48.0612 11.9544 47.8653 12.4866 47.8653 13.8365V19.9159H47.1273C47.0513 19.591 46.9203 19.2651 46.2924 19.2651C45.4275 19.2651 44.2255 20.0757 41.4288 20.0757C35.1483 20.0757 33.0034 15.6495 33.0034 9.85064C33.0034 4.56331 36.1172 -7.10816e-05 41.5558 -7.10816e-05C42.5225 -0.0139398 43.4853 0.131585 44.4075 0.431001C44.9112 0.642547 45.4386 0.788062 45.9774 0.864135C46.2644 0.864135 46.3954 0.566097 46.4224 0.161839H47.3383L47.3333 5.31717Z" fill="#4F342A"/>
<path d="M43.0046 23.7833H7.02637V24.9982H43.0046V23.7833Z" fill="#4F342A"/>
</svg>
