<svg width="26" height="26" viewBox="0 0 26 26" fill="none" xmlns="http://www.w3.org/2000/svg">
<circle cx="13" cy="13" r="13" fill="#222222"/>
<path d="M11.6815 14.9899C11.6815 14.1745 11.7821 13.5251 11.9834 13.0417C12.1846 12.5582 12.5516 12.0836 13.0844 11.6176C13.623 11.1458 13.9811 10.7643 14.1587 10.4731C14.3363 10.1761 14.4251 9.86447 14.4251 9.53831C14.4251 8.55399 13.9634 8.06183 13.04 8.06183C12.6019 8.06183 12.2497 8.19579 11.9834 8.46371C11.7229 8.72581 11.5868 9.08983 11.5749 9.55578H9C9.01184 8.44332 9.37588 7.57258 10.0921 6.94355C10.8143 6.31452 11.7969 6 13.04 6C14.2949 6 15.2686 6.29996 15.9612 6.89987C16.6537 7.49395 17 8.33557 17 9.42473C17 9.9198 16.8875 10.3887 16.6626 10.8313C16.4377 11.2681 16.044 11.7545 15.4817 12.2903L14.7625 12.963C14.3126 13.3882 14.0551 13.8862 13.99 14.457L13.9545 14.9899H11.6815Z" fill="white"/>
<path d="M11.8234 16.9141C11.557 17.1839 11.4238 17.529 11.4238 17.9494C11.4238 18.3635 11.5541 18.7055 11.8145 18.9753C12.0809 19.2451 12.4301 19.38 12.8622 19.38C13.2943 19.38 13.6406 19.2451 13.9011 18.9753C14.1674 18.7055 14.3006 18.3635 14.3006 17.9494C14.3006 17.529 14.1645 17.1839 13.8922 16.9141C13.6258 16.638 13.2825 16.5 12.8622 16.5C12.442 16.5 12.0957 16.638 11.8234 16.9141Z" fill="white"/>
</svg>
