<svg width="27" height="30" viewBox="0 0 27 30" fill="none" xmlns="http://www.w3.org/2000/svg">
<g clip-path="url(#clip0)">
<path d="M2.5 2.5C2.5 1.39543 3.39543 0.5 4.5 0.5H16.7457C17.2909 0.5 17.8124 0.722567 18.1896 1.11619L21.0453 4.09595L23.944 7.1207C24.3008 7.49304 24.5 7.98881 24.5 8.50452V27.5C24.5 28.6046 23.6046 29.5 22.5 29.5H4.5C3.39543 29.5 2.5 28.6046 2.5 27.5V2.5Z" fill="white" stroke="#D9D9D9"/>
<rect y="9" width="27" height="14" rx="1.5" fill="#EC6857"/>
<path d="M5.25973 19H6.80773V16.966H8.26573C9.61573 16.966 10.3537 16.075 10.3537 14.995C10.3537 13.906 9.61573 12.997 8.26573 12.997H5.25973V19ZM8.77873 14.986C8.77873 15.391 8.47273 15.652 8.05873 15.652H6.80773V14.302H8.05873C8.47273 14.302 8.77873 14.572 8.77873 14.986ZM11.0429 19H13.5719C15.4529 19 16.8119 17.857 16.8119 15.994C16.8119 14.131 15.4529 12.997 13.5629 12.997H11.0429V19ZM12.5909 17.65V14.347H13.5719C14.6699 14.347 15.2279 15.067 15.2279 15.994C15.2279 16.885 14.6159 17.65 13.5629 17.65H12.5909ZM17.582 19H19.13V16.615H21.92V15.301H19.13V14.302H21.983V12.997H17.582V19Z" fill="white"/>
</g>
<defs>
<clipPath id="clip0">
<rect width="27" height="30" fill="white"/>
</clipPath>
</defs>
</svg>
