<svg width="31" height="31" viewBox="0 0 31 31" fill="none" xmlns="http://www.w3.org/2000/svg">
<g clip-path="url(#clip0)">
<g filter="url(#filter0_d)">
<path d="M20.2843 24.6702C20.2843 26.97 18.3801 28.8601 15.999 28.8601C13.6179 28.8601 11.7137 26.97 11.7137 24.6702C11.7137 22.3704 13.6179 20.4803 15.999 20.4803C18.3801 20.4803 20.2843 22.3704 20.2843 24.6702Z" fill="#2E87EF" stroke="white" stroke-width="1.60417"/>
<path d="M16.1494 1.33789L16.1494 9.36936" stroke="white" stroke-width="1.60417" stroke-linecap="round"/>
<mask id="path-3-inside-1" fill="white">
<path fill-rule="evenodd" clip-rule="evenodd" d="M16.1395 2.87036C11.2278 2.87036 7.24612 6.85206 7.24612 11.7637V13.4656C7.2422 13.5259 7.24022 13.5867 7.24022 13.6481C7.24022 16.5771 5.7938 19.5061 4.35602 21.694C3.41887 23.1201 4.40425 25.2944 6.11073 25.2944H25.8146C27.5677 25.2944 28.5856 22.956 27.6346 21.4832C26.3468 19.4888 25.1275 16.8676 25.0329 14.0039V11.7637C25.0329 6.85206 21.0512 2.87036 16.1395 2.87036Z"/>
</mask>
<path fill-rule="evenodd" clip-rule="evenodd" d="M16.1395 2.87036C11.2278 2.87036 7.24612 6.85206 7.24612 11.7637V13.4656C7.2422 13.5259 7.24022 13.5867 7.24022 13.6481C7.24022 16.5771 5.7938 19.5061 4.35602 21.694C3.41887 23.1201 4.40425 25.2944 6.11073 25.2944H25.8146C27.5677 25.2944 28.5856 22.956 27.6346 21.4832C26.3468 19.4888 25.1275 16.8676 25.0329 14.0039V11.7637C25.0329 6.85206 21.0512 2.87036 16.1395 2.87036Z" fill="#2E87EF"/>
<path d="M7.24612 13.4656L8.84691 13.5697L8.85028 13.5177V13.4656H7.24612ZM4.35602 21.694L5.69664 22.575H5.69664L4.35602 21.694ZM27.6346 21.4832L28.9823 20.613L27.6346 21.4832ZM25.0329 14.0039H23.4287V14.0304L23.4296 14.0569L25.0329 14.0039ZM8.85028 11.7637C8.85028 7.73802 12.1138 4.47453 16.1395 4.47453V1.26619C10.3419 1.26619 5.64195 5.9661 5.64195 11.7637H8.85028ZM8.85028 13.4656V11.7637H5.64195V13.4656H8.85028ZM8.84439 13.6481C8.84439 13.6212 8.84526 13.595 8.84691 13.5697L5.64533 13.3616C5.63915 13.4567 5.63606 13.5522 5.63606 13.6481H8.84439ZM5.69664 22.575C7.18723 20.3066 8.84439 17.053 8.84439 13.6481H5.63606C5.63606 16.1012 4.40037 18.7055 3.01541 20.813L5.69664 22.575ZM6.11073 23.6902C6.00934 23.6902 5.83007 23.6338 5.6913 23.3413C5.54795 23.0392 5.58468 22.7453 5.69664 22.575L3.01541 20.813C2.19021 22.0688 2.25105 23.5751 2.79273 24.7167C3.33898 25.8679 4.50565 26.8986 6.11073 26.8986V23.6902ZM25.8146 23.6902H6.11073V26.8986H25.8146V23.6902ZM26.287 22.3534C26.4074 22.5399 26.4544 22.8955 26.2821 23.2689C26.1132 23.635 25.9016 23.6902 25.8146 23.6902V26.8986C27.4807 26.8986 28.6547 25.7846 29.1952 24.6133C29.7324 23.4493 29.8128 21.8993 28.9823 20.613L26.287 22.3534ZM23.4296 14.0569C23.5376 17.3271 24.9193 20.2352 26.287 22.3534L28.9823 20.613C27.7744 18.7423 26.7174 16.4081 26.6362 13.9509L23.4296 14.0569ZM23.4287 11.7637V14.0039H26.637V11.7637H23.4287ZM16.1395 4.47453C20.1652 4.47453 23.4287 7.73802 23.4287 11.7637H26.637C26.637 5.9661 21.9371 1.26619 16.1395 1.26619V4.47453Z" fill="white" mask="url(#path-3-inside-1)"/>
<ellipse cx="21.0254" cy="13.6277" rx="0.794907" ry="0.779998" fill="white"/>
<path d="M18.1895 6.91479C18.8366 7.28402 20.1392 8.62348 20.5101 10.9424" stroke="white" stroke-width="1.60417" stroke-linecap="round"/>
</g>
</g>
<defs>
<filter id="filter0_d" x="1.99365" y="-0.464111" width="28.0052" height="33.1263" filterUnits="userSpaceOnUse" color-interpolation-filters="sRGB">
<feFlood flood-opacity="0" result="BackgroundImageFix"/>
<feColorMatrix in="SourceAlpha" type="matrix" values="0 0 0 0 0 0 0 0 0 0 0 0 0 0 0 0 0 0 127 0" result="hardAlpha"/>
<feOffset dy="1"/>
<feGaussianBlur stdDeviation="1"/>
<feComposite in2="hardAlpha" operator="out"/>
<feColorMatrix type="matrix" values="0 0 0 0 0 0 0 0 0 0 0 0 0 0 0 0 0 0 0.2 0"/>
<feBlend mode="normal" in2="BackgroundImageFix" result="effect1_dropShadow"/>
<feBlend mode="normal" in="SourceGraphic" in2="effect1_dropShadow" result="shape"/>
</filter>
<clipPath id="clip0">
<rect width="30" height="30" fill="white" transform="translate(0.996094 0.5)"/>
</clipPath>
</defs>
</svg>
