<svg width="22" height="18" viewBox="0 0 22 18" fill="none" xmlns="http://www.w3.org/2000/svg">
<path fill-rule="evenodd" clip-rule="evenodd" d="M21.7374 12.7332C21.9115 12.3224 22.0008 11.8822 22 11.4379V3.39232C22.0012 2.94773 21.9122 2.50728 21.7383 2.09613C21.5643 1.68499 21.3088 1.3112 20.9862 0.996159C20.6636 0.681114 20.2804 0.430977 19.8583 0.26005C19.4363 0.0891229 18.9838 0.000758524 18.5266 0H3.47338C3.01622 0.000758524 2.56369 0.0891229 2.14167 0.26005C1.71964 0.430977 1.3364 0.681114 1.01382 0.996159C0.691253 1.3112 0.435687 1.68499 0.261732 2.09613C0.0877773 2.50728 -0.00116142 2.94773 1.14508e-05 3.39232V11.4379C-0.00077026 11.8822 0.0884551 12.3224 0.262585 12.7332C0.436715 13.144 0.692345 13.5175 1.01488 13.8322C1.33741 14.1469 1.72053 14.3968 2.14236 14.5676C2.56419 14.7383 3.01647 14.8266 3.47338 14.8273H8.65844L10.4286 17.6302C10.4447 17.6589 10.4636 17.6861 10.4851 17.7112C10.5373 17.799 10.6123 17.872 10.7026 17.9227C10.7929 17.9735 10.8953 18.0003 10.9996 18.0004C11.1034 17.9998 11.2052 17.9727 11.2949 17.922C11.3847 17.8713 11.4592 17.7986 11.5111 17.7112C11.5343 17.6856 11.5543 17.6575 11.5705 17.6273L13.3429 14.8273H18.5266C18.9835 14.8266 19.4358 14.7383 19.8576 14.5676C20.2795 14.3968 20.6626 14.1469 20.9851 13.8322C21.3077 13.5175 21.5633 13.144 21.7374 12.7332Z" fill="#222222"/>
<path fill-rule="evenodd" clip-rule="evenodd" d="M7.48308 5.41082V4.21143C9.31257 4.21143 9.26006 6.17081 9.26006 6.17081V9.5562H8.05514V6.44993C8.05514 5.38595 7.48308 5.41082 7.48308 5.41082ZM4.25743 6.31466C4.53994 6.0256 4.91831 5.84969 5.32141 5.81998C7.01549 5.81998 7.07905 7.75173 7.07905 7.75173C7.09093 7.99467 7.05469 8.23756 6.97241 8.46645C6.89013 8.69534 6.76342 8.90571 6.59958 9.08547C6.43573 9.26524 6.23798 9.41086 6.01768 9.51396C5.79738 9.61706 5.55888 9.67561 5.31589 9.68624C5.10923 9.69458 4.90393 9.64934 4.71992 9.55492C4.53591 9.46049 4.37945 9.32008 4.26572 9.14734V9.55635H3V4.33041H4.25743V6.31466ZM4.59826 8.44803C4.73051 8.5364 4.886 8.58357 5.04505 8.58357V8.57251C5.25644 8.57253 5.45933 8.48932 5.60984 8.34089C5.76034 8.19245 5.84635 7.99073 5.84926 7.77937C5.84926 7.62031 5.80209 7.46482 5.71373 7.33257C5.62536 7.20032 5.49976 7.09724 5.35281 7.03637C5.20586 6.97551 5.04416 6.95958 4.88816 6.99061C4.73216 7.02164 4.58886 7.09824 4.47639 7.21071C4.36392 7.32318 4.28733 7.46647 4.2563 7.62247C4.22527 7.77847 4.2412 7.94017 4.30207 8.08712C4.36294 8.23406 4.46601 8.35966 4.59826 8.44803ZM12.211 5.83659C12.211 5.83659 10.141 5.83659 10.141 7.7711C10.141 7.7711 10.0747 9.67797 12.211 9.67797C12.211 9.67797 14.3251 9.67797 14.3251 7.7711L14.3251 7.77084C14.3259 7.74516 14.3811 5.83659 12.211 5.83659ZM12.211 8.57254C12.0519 8.57254 11.8964 8.52537 11.7642 8.437C11.6319 8.34864 11.5289 8.22304 11.468 8.07609C11.4071 7.92914 11.3912 7.76744 11.4222 7.61144C11.4533 7.45544 11.5298 7.31214 11.6423 7.19967C11.7548 7.0872 11.8981 7.01061 12.0541 6.97958C12.2101 6.94855 12.3718 6.96448 12.5187 7.02535C12.6657 7.08622 12.7913 7.18929 12.8796 7.32154C12.968 7.45379 13.0152 7.60927 13.0152 7.76833C13.0152 7.87394 12.9944 7.97852 12.954 8.07609C12.9135 8.17366 12.8543 8.26231 12.7796 8.33699C12.7049 8.41166 12.6163 8.4709 12.5187 8.51131C12.4212 8.55173 12.3166 8.57254 12.211 8.57254ZM17.7787 6.31458V5.96361H18.9947V9.48994C19.0138 9.74104 18.9806 9.99337 18.8971 10.231C18.8136 10.4685 18.6817 10.6862 18.5097 10.8702C18.3377 11.0541 18.1294 11.2003 17.898 11.2995C17.6665 11.3988 17.417 11.4488 17.1652 11.4466H16.6788V10.3411H16.9855C17.8726 10.3411 17.7842 9.42914 17.7842 9.42914V9.1362C17.6455 9.29092 17.4747 9.41358 17.2839 9.49566C17.093 9.57775 16.8865 9.61729 16.6788 9.61154C14.9377 9.61154 14.9571 7.75441 14.9571 7.75441C14.9571 5.76187 16.7285 5.83648 16.7285 5.83648C16.9278 5.83467 17.1252 5.87653 17.3066 5.95913C17.488 6.04172 17.6491 6.16305 17.7787 6.31458ZM16.583 8.4369C16.7152 8.52527 16.8707 8.57243 17.0297 8.57243C17.1354 8.57243 17.2399 8.55162 17.3375 8.51121C17.4351 8.47079 17.5237 8.41156 17.5984 8.33688C17.6731 8.26221 17.7323 8.17355 17.7727 8.07598C17.8132 7.97841 17.8339 7.87384 17.8339 7.76823C17.8339 7.60917 17.7868 7.45369 17.6984 7.32144C17.6101 7.18919 17.4845 7.08611 17.3375 7.02524C17.1906 6.96437 17.0288 6.94844 16.8728 6.97947C16.7168 7.0105 16.5736 7.0871 16.4611 7.19957C16.3486 7.31204 16.272 7.45533 16.241 7.61133C16.21 7.76733 16.2259 7.92903 16.2868 8.07598C16.3476 8.22293 16.4507 8.34853 16.583 8.4369Z" fill="white"/>
</svg>
