<svg width="106" height="106" viewBox="0 0 106 106" fill="none" xmlns="http://www.w3.org/2000/svg">
<rect width="106" height="106" rx="53" fill="#2E87EF"/>
<path d="M34.3341 49.186H36.9621V47.26H34.3341V45.01H32.0841V47.26H29.4381V49.186H32.0841V49.456C32.0841 52.012 31.2381 54.73 28.8801 56.098L30.2121 57.88C31.7061 57.034 32.6781 55.576 33.2361 53.848C33.8301 55.414 34.7841 56.728 36.2601 57.502L37.5201 55.738C35.1801 54.496 34.3341 51.958 34.3341 49.456V49.186ZM41.2821 44.452V50.806H39.9321V44.722H37.7181V60.292H39.9321V52.75H41.2821V61.03H43.5321V44.452H41.2821ZM52.4467 59.266C50.2327 59.266 49.0987 58.888 49.0987 58.042C49.0987 57.196 50.2327 56.836 52.4467 56.836C54.6607 56.836 55.7947 57.196 55.7947 58.042C55.7947 58.888 54.6607 59.266 52.4467 59.266ZM52.4467 55.036C48.8647 55.036 46.7047 56.116 46.7047 58.042C46.7047 59.968 48.8647 61.066 52.4467 61.066C56.0287 61.066 58.2067 59.968 58.2067 58.042C58.2067 56.116 56.0287 55.036 52.4467 55.036ZM50.7367 50.95C51.2767 51.022 51.8527 51.058 52.4827 51.058C53.0947 51.058 53.6707 51.022 54.1927 50.968V52.336H50.7367V50.95ZM52.4827 46.522C54.7507 46.522 56.0467 46.972 56.0467 47.908C56.0467 48.808 54.7507 49.276 52.4827 49.276C50.2327 49.276 48.9367 48.808 48.9367 47.908C48.9367 46.972 50.2327 46.522 52.4827 46.522ZM56.5687 52.336V50.356C57.7927 49.816 58.4947 48.988 58.4947 47.908C58.4947 45.928 56.1547 44.722 52.4827 44.722C48.8287 44.722 46.4887 45.928 46.4887 47.908C46.4887 48.97 47.1727 49.798 48.3607 50.338V52.336H44.9947V54.208H59.9707V52.336H56.5687ZM62.2433 51.346C65.3753 51.076 67.4093 49.906 68.2913 48.34C69.1733 49.906 71.2073 51.076 74.3213 51.346L75.1493 49.51C72.0533 49.24 70.4333 48.16 70.0193 47.044H74.4293V45.154H62.1713V47.044H66.5633C66.1493 48.16 64.5293 49.24 61.4513 49.51L62.2433 51.346ZM71.6033 58.06C71.6033 58.888 70.4693 59.248 68.2553 59.248C66.0413 59.248 64.9073 58.888 64.9073 58.06C64.9073 57.214 66.0413 56.854 68.2553 56.854C70.4693 56.854 71.6033 57.214 71.6033 58.06ZM75.7793 53.884V51.994H60.8033V53.884H67.1033V55.09C64.2233 55.324 62.5133 56.35 62.5133 58.06C62.5133 59.968 64.6733 61.048 68.2553 61.048C71.8373 61.048 74.0153 59.968 74.0153 58.06C74.0153 56.368 72.3233 55.342 69.4793 55.108V53.884H75.7793Z" fill="white"/>
</svg>
