<svg width="17" height="17" viewBox="0 0 17 17" fill="none" xmlns="http://www.w3.org/2000/svg">
<path d="M8.5 0C3.81296 0 0 3.81296 0 8.5C0 13.187 3.81296 17 8.5 17C13.187 17 17 13.187 17 8.5C17 3.81296 13.187 0 8.5 0ZM15.5472 7.79167H13.085C12.9873 5.51792 12.4256 3.5275 11.5685 2.12571C13.7381 3.17475 15.2979 5.28983 15.5472 7.79167ZM7.79167 1.62917V7.79167H5.33021C5.47825 4.62613 6.59812 2.30917 7.79167 1.62917ZM7.79167 9.20833V15.3708C6.59812 14.6908 5.47825 12.3739 5.33021 9.20833H7.79167ZM9.20833 15.3708V9.20833H11.6698C11.5217 12.3739 10.4019 14.6908 9.20833 15.3708ZM9.20833 7.79167V1.62917C10.4019 2.30917 11.5217 4.62613 11.6698 7.79167H9.20833ZM5.43079 2.12571C4.57442 3.5275 4.012 5.51792 3.91425 7.79167H1.45279C1.70213 5.28983 3.26187 3.17475 5.43079 2.12571ZM1.45279 9.20833H3.91496C4.01271 11.4821 4.57442 13.4725 5.4315 14.8743C3.26188 13.8252 1.70213 11.7102 1.45279 9.20833ZM11.5692 14.8743C12.4256 13.4725 12.988 11.4821 13.0858 9.20833H15.5479C15.2979 11.7102 13.7381 13.8252 11.5692 14.8743Z" fill="white"/>
</svg>
