<svg width="28" height="30" viewBox="0 0 28 30" fill="none" xmlns="http://www.w3.org/2000/svg">
<g clip-path="url(#clip0)">
<path d="M2.5 2.5C2.5 1.39543 3.39543 0.5 4.5 0.5H16.7457C17.2909 0.5 17.8124 0.722567 18.1896 1.11619L21.0453 4.09595L23.944 7.1207C24.3008 7.49304 24.5 7.98881 24.5 8.50452V27.5C24.5 28.6046 23.6046 29.5 22.5 29.5H4.5C3.39543 29.5 2.5 28.6046 2.5 27.5V2.5Z" fill="white" stroke="#D9D9D9"/>
<rect y="9" width="27" height="14" rx="1.5" fill="#1B6FD0"/>
<path d="M6.73843 19C8.61943 19 9.97843 17.857 9.97843 15.994C9.97843 14.131 8.61943 12.997 6.72943 12.997H4.20943V19H6.73843ZM5.75743 14.347H6.73843C7.83643 14.347 8.39443 15.067 8.39443 15.994C8.39443 16.885 7.78243 17.65 6.72943 17.65H5.75743V14.347ZM10.4425 16.003C10.4425 17.83 11.8195 19.108 13.6555 19.108C15.4915 19.108 16.8595 17.83 16.8595 16.003C16.8595 14.176 15.4915 12.898 13.6555 12.898C11.8195 12.898 10.4425 14.176 10.4425 16.003ZM15.2845 16.003C15.2845 16.975 14.6455 17.74 13.6555 17.74C12.6565 17.74 12.0175 16.975 12.0175 16.003C12.0175 15.022 12.6565 14.266 13.6555 14.266C14.6455 14.266 15.2845 15.022 15.2845 16.003ZM20.5371 19.108C22.0311 19.108 22.8141 18.271 23.2011 17.497L21.8691 16.867C21.6711 17.344 21.1581 17.74 20.5371 17.74C19.6011 17.74 18.9081 16.984 18.9081 16.003C18.9081 15.022 19.6011 14.266 20.5371 14.266C21.1581 14.266 21.6711 14.662 21.8691 15.139L23.2011 14.509C22.8051 13.717 22.0311 12.898 20.5371 12.898C18.7371 12.898 17.3331 14.149 17.3331 16.003C17.3331 17.848 18.7371 19.108 20.5371 19.108Z" fill="white"/>
</g>
<defs>
<clipPath id="clip0">
<rect width="27" height="30" fill="white"/>
</clipPath>
</defs>
</svg>
