<svg width="106" height="107" viewBox="0 0 106 107" fill="none" xmlns="http://www.w3.org/2000/svg">
<rect y="0.5" width="106" height="106" rx="53" fill="#C9C9C9"/>
<path d="M39.9344 48.408H43.1744V55.644H39.9344V48.408ZM37.5944 57.516H45.5144V46.536H37.5944V57.516ZM52.4804 51.216H50.0684V44.988H47.6924V61.548H50.0684V53.178H52.4804V51.216ZM53.511 45.924V47.814H58.767C58.425 49.992 56.409 51.81 52.719 52.728L53.655 54.6C58.569 53.322 61.359 50.334 61.359 45.924H53.511ZM57.525 56.742H63.609V59.496H57.525V56.742ZM55.203 61.35H65.949V54.87H55.203V61.35ZM68.145 48.57H65.949V44.97H63.573V54.204H65.949V50.514H68.145V48.57Z" fill="white"/>
</svg>
