<svg width="23" height="16" viewBox="0 0 23 16" fill="none" xmlns="http://www.w3.org/2000/svg">
<path d="M22.5191 2.49619C22.3889 2.01242 22.1333 1.5711 21.7778 1.21633C21.4223 0.861564 20.9793 0.605775 20.4933 0.474534C18.6927 0.000181041 11.5 0.000183105 11.5 0.000183105C11.5 0.000183105 4.3054 0.000184721 2.51432 0.478302C2.02683 0.608393 1.58233 0.863665 1.22542 1.21851C0.868511 1.57335 0.611752 2.01528 0.480904 2.49995C1.62505e-06 4.28254 0 8.00395 0 8.00395C0 8.00395 1.62505e-06 11.7254 0.480904 13.5079C0.611673 13.991 0.867551 14.4316 1.22302 14.7856C1.57848 15.1397 2.02111 15.3949 2.50675 15.5258C4.30729 16.0002 11.5 16.0002 11.5 16.0002C11.5 16.0002 18.6946 16.0002 20.4857 15.5221C20.9732 15.392 21.4177 15.1367 21.7746 14.7819C22.1315 14.427 22.3883 13.9851 22.5191 13.5004C23 11.7178 23 7.99642 23 7.99642C23 7.99642 23 4.27877 22.5191 2.49619Z" fill="#222222"/>
<path d="M9.19971 11.4302L15.1769 8.00056L9.19971 4.56903V11.4302Z" fill="white"/>
</svg>
