<svg width="18" height="18" viewBox="0 0 18 18" fill="none" xmlns="http://www.w3.org/2000/svg">
<rect y="0.000183105" width="18" height="18" rx="3" fill="#222222"/>
<path fill-rule="evenodd" clip-rule="evenodd" d="M5.33975 6.74869H2.6662V15.3385H5.33975V6.74869ZM4.86413 2.73905C4.60925 2.56867 4.30956 2.47772 4.00297 2.47772C3.79959 2.47741 3.59814 2.5172 3.41015 2.59481C3.22216 2.67242 3.05131 2.78634 2.90739 2.93005C2.76346 3.07375 2.64928 3.24441 2.57137 3.43228C2.49347 3.62016 2.45337 3.82155 2.45337 4.02494C2.4529 4.33152 2.54338 4.63135 2.71336 4.8865C2.88335 5.14164 3.1252 5.34063 3.40831 5.45828C3.69142 5.57593 4.00307 5.60697 4.30382 5.54744C4.60457 5.48792 4.8809 5.34053 5.09786 5.12391C5.31482 4.90729 5.46264 4.63118 5.52262 4.33052C5.58261 4.02986 5.55206 3.71816 5.43485 3.43487C5.31763 3.15158 5.11902 2.90942 4.86413 2.73905ZM9.57289 6.74865H7.01413V15.3384H9.6805V11.089C9.6805 9.96982 9.91246 8.88414 11.2827 8.88414C12.653 8.88414 12.6697 10.1635 12.6697 11.1607V15.3384H15.3385V10.6274C15.3385 8.3126 14.8387 6.53582 12.1364 6.53582C11.629 6.51659 11.1259 6.63544 10.6808 6.87971C10.2356 7.12397 9.86509 7.48449 9.60876 7.92281H9.57289V6.74865Z" fill="white"/>
</svg>
