<svg width="28" height="30" viewBox="0 0 28 30" fill="none" xmlns="http://www.w3.org/2000/svg">
<g clip-path="url(#clip0)">
<path d="M2.5 2.5C2.5 1.39543 3.39543 0.5 4.5 0.5H16.7457C17.2909 0.5 17.8124 0.722567 18.1896 1.11619L21.0453 4.09595L23.944 7.1207C24.3008 7.49304 24.5 7.98881 24.5 8.50452V27.5C24.5 28.6046 23.6046 29.5 22.5 29.5H4.5C3.39543 29.5 2.5 28.6046 2.5 27.5V2.5Z" fill="white" stroke="#D9D9D9"/>
<rect y="9" width="27" height="14" rx="1.5" fill="#1C9ED9"/>
<path d="M9.69199 19V12.997H8.14399V15.238H5.65099V12.997H4.10299V19H5.65099V16.588H8.14399V19H9.69199ZM16.9929 19L18.7119 12.997H16.9659L16.0659 17.002L15.0399 12.997H13.8519L12.8259 17.002L11.9169 12.997H10.1799L11.8989 19H13.5369L14.4459 15.238L15.3549 19H16.9929ZM20.7418 19V16.966H22.1998C23.5498 16.966 24.2878 16.075 24.2878 14.995C24.2878 13.906 23.5498 12.997 22.1998 12.997H19.1938V19H20.7418ZM22.7128 14.986C22.7128 15.391 22.4068 15.652 21.9928 15.652H20.7418V14.302H21.9928C22.4068 14.302 22.7128 14.572 22.7128 14.986Z" fill="white"/>
</g>
<defs>
<clipPath id="clip0">
<rect width="27" height="30" fill="white"/>
</clipPath>
</defs>
</svg>
