<svg width="26" height="26" viewBox="0 0 26 26" fill="none" xmlns="http://www.w3.org/2000/svg">
<path d="M8.74976 11.1255L17.2495 6.88733" stroke="black" stroke-width="2" stroke-linecap="round" stroke-linejoin="round"/>
<path d="M8.74976 14.74L17.2495 18.9781" stroke="black" stroke-width="2" stroke-linecap="round" stroke-linejoin="round"/>
<path d="M5.12484 16.859C7.38 16.859 9.20817 15.1012 9.20817 12.9328C9.20817 10.7643 7.38 9.00647 5.12484 9.00647C2.86967 9.00647 1.0415 10.7643 1.0415 12.9328C1.0415 15.1012 2.86967 16.859 5.12484 16.859Z" stroke="black" stroke-width="2" stroke-linecap="round" stroke-linejoin="round"/>
<path d="M20.8748 9.0065C23.13 9.0065 24.9582 7.24864 24.9582 5.08021C24.9582 2.91179 23.13 1.15393 20.8748 1.15393C18.6197 1.15393 16.7915 2.91179 16.7915 5.08021C16.7915 7.24864 18.6197 9.0065 20.8748 9.0065Z" stroke="black" stroke-width="2" stroke-linecap="round" stroke-linejoin="round"/>
<path d="M20.8748 24.7117C23.13 24.7117 24.9582 22.9538 24.9582 20.7854C24.9582 18.617 23.13 16.8591 20.8748 16.8591C18.6197 16.8591 16.7915 18.617 16.7915 20.7854C16.7915 22.9538 18.6197 24.7117 20.8748 24.7117Z" stroke="black" stroke-width="2" stroke-linecap="round" stroke-linejoin="round"/>
</svg>
