<svg width="171" height="64" viewBox="0 0 171 64" fill="none" xmlns="http://www.w3.org/2000/svg">
<path d="M16.6475 9.74732C16.8281 11.0906 17.2796 12.829 18.0133 13.6982C19.1196 15.0302 20.0791 12.3323 20.1016 10.8874C20.1242 9.2958 19.3002 7.8735 18.1714 7.65903C16.8168 7.41069 16.5007 8.67496 16.6475 9.74732Z" fill="white"/>
<path d="M31.1616 45.9144C24.6835 40.2816 16.4674 39.4124 11.3887 38.5658C11.8514 36.3308 12.5737 33.949 13.6233 31.4318C14.9099 28.3501 15.4968 26.4537 15.6661 24.8847C15.6999 24.6138 15.4178 24.23 15.1244 24.8056C14.6503 25.7651 12.5737 29.9982 11.1743 32.459C8.78168 32.1993 6.08435 32.4251 4.25603 33.0347C4.41403 32.8315 4.85418 32.4477 5.0799 32.2558C7.24679 30.4384 13.5443 26.9617 21.1849 16.2154C21.4106 15.8993 21.5009 15.5607 21.3429 15.1882L21.072 14.5448C20.9253 14.2851 20.5754 14.1497 20.2933 14.5899C19.7177 15.493 18.4424 17.7732 15.9708 20.4597C15.9257 19.6696 15.6096 18.8004 15.4855 18.315C14.8986 15.9671 13.5218 11.1809 16.3997 5.49171C17.7201 2.89545 17.9007 2.26332 16.0047 0.400784C15.3952 -0.208774 14.6165 -0.141045 14.1763 0.728138C12.7205 3.6066 10.9147 7.07205 12.8446 14.5786C13.5556 17.3329 15.3388 21.0693 14.7406 21.7804C12.4947 24.4331 9.58297 26.5779 5.85863 29.0274C2.439 31.2737 0.463966 31.9849 0.06896 33.8135C-0.258331 35.36 0.452681 37.6402 4.97833 38.9271C6.18592 39.277 7.4048 39.5253 8.02552 39.6495C5.85863 48.3187 6.80664 54.5498 10.294 60.4535C11.7724 62.9707 13.9168 64.0544 16.2304 63.9979C17.1784 63.9753 17.5621 63.1513 16.964 62.3499C16.5012 61.7177 13.7362 58.6474 12.0433 53.421C11.9756 53.1726 11.9869 52.9243 12.0546 52.6647V52.6534C14.1651 45.9934 18.7697 43.2391 19.65 42.765C19.966 42.6296 20.2594 42.6634 20.598 42.7763C22.3925 43.4084 24.2208 44.5485 25.53 45.5532C26.7488 46.5014 26.715 47.8334 25.0785 49.504C21.3993 53.2629 19.7064 56.0285 18.8487 57.654C18.3183 58.6586 18.0587 59.5165 18.228 60.4535C18.4198 61.5371 19.1308 61.571 19.8644 60.6115C22.3586 57.3831 24.6948 54.5611 30.4619 50.6328C33.0238 48.8719 32.8206 47.348 31.1616 45.9144ZM8.55596 38.0127C6.65993 37.7079 5.24919 37.2113 4.28989 36.1953C3.82716 35.6987 3.60145 35.123 3.66916 34.5134C5.24919 33.9942 7.34837 33.8813 10.3053 34.3554C9.79741 35.4052 9.0864 36.8275 8.55596 38.0127ZM16.5577 41.6588C16.3884 41.8168 16.2417 41.9636 16.1288 42.0764C13.0252 44.8194 11.6934 48.2736 11.1856 50.0233C10.6551 47.1448 10.5197 43.8035 11.1291 40.022C12.3706 40.1913 14.0183 40.5074 15.7789 40.9815C15.9934 41.0379 16.2191 41.0944 16.4335 41.1621C16.4561 41.1621 16.4674 41.1734 16.5012 41.1847C16.7495 41.275 16.7608 41.4556 16.5577 41.6588Z" fill="white"/>
<path d="M154.944 38.9444C154.933 39.2173 154.921 39.3764 154.921 39.3764L143.421 39.3651C143.613 40.7634 145.182 42.4913 147.45 42.4913C149.041 42.4913 150.305 42.0707 151.457 41.2067C151.536 41.1499 151.942 40.8657 152.314 41.3204L154.007 43.2757C154.007 43.2757 151.84 45.8904 147.427 45.8904C142.484 45.8904 139.843 42.0821 139.843 37.7167C139.843 33.3854 143.049 29.9749 147.269 29.9863C151.242 29.9749 155.249 32.6123 154.944 38.9444ZM151.457 36.1706C151.118 34.3517 149.707 33.158 147.54 33.1353C145.633 33.1239 143.906 34.238 143.421 36.1592L151.457 36.1706Z" fill="white"/>
<path d="M130.431 52.5866C134.618 52.5866 138.252 49.0624 138.264 45.0608C138.264 43.4465 138.264 38.5923 138.264 38.5923C138.275 38.0466 138.264 37.5805 138.264 37.5805C138.083 33.3401 134.652 29.9524 130.397 29.9524C126.03 29.9524 122.497 33.5107 122.486 37.9102C122.486 42.3097 126.019 45.8793 130.375 45.8793C132.011 45.8793 133.524 45.3905 134.788 44.5379V44.7197C134.788 47.1412 132.835 49.1079 130.431 49.0965C129.088 49.0965 127.836 48.3121 126.921 47.3344C126.73 47.1298 126.538 47.0048 126.199 47.2321C125.872 47.4481 123.784 48.8805 123.784 48.8805C125.77 52.0295 128.772 52.5866 130.431 52.5866ZM130.409 42.3097C128.005 42.3097 126.052 40.343 126.052 37.9102C126.052 35.4887 128.005 33.522 130.409 33.522C132.813 33.522 134.765 35.4887 134.765 37.9102C134.765 40.343 132.813 42.3097 130.409 42.3097Z" fill="white"/>
<path d="M78.3582 30.9645L78.347 45.4135H74.8258V43.7424C73.6295 45.0156 71.9479 45.6864 69.9051 45.6864C65.3343 45.6864 62.1517 42.4351 62.1517 37.7854C62.1517 33.1358 65.3456 29.8959 69.9164 29.9073C71.9479 29.9073 73.6182 30.5666 74.8032 31.8399C74.8032 31.8399 75.4126 30.2938 76.8459 30.2938H77.6698C78.2341 30.2938 78.3695 30.487 78.3582 30.9645ZM70.2888 33.1927C67.7946 33.1927 65.7632 35.2503 65.7632 37.7968C65.7632 40.3433 67.7946 42.4009 70.2888 42.4009C72.7943 42.4009 74.8258 40.3433 74.8258 37.7968C74.8258 35.2617 72.783 33.1927 70.2888 33.1927Z" fill="white"/>
<path d="M95.2078 30.861L95.1965 45.4351H98.7515C98.7515 45.4351 98.7402 38.796 98.7628 36.943C98.7967 34.4534 100.185 33.5439 102.16 33.5325C103.537 33.5212 104.44 34.1237 104.44 34.1237L106.539 31.2702C105.546 30.5654 104.169 30.0766 102.893 30.0766C101.471 30.0766 99.7334 30.4631 98.6838 31.5203C98.6838 31.5203 97.9615 30.2926 96.5621 30.2926H95.8172C95.4448 30.3039 95.2078 30.4972 95.2078 30.861Z" fill="white"/>
<path d="M37.3453 30.7938L37.334 45.3906H40.9455L40.9568 36.4893C40.9568 34.4317 42.4916 33.363 43.9927 33.3744C45.742 33.3744 47.0286 34.7386 47.0286 36.5007L47.0173 45.402H50.7868L50.7981 36.5007C50.7981 34.7386 52.0847 33.3744 53.834 33.3858C55.5833 33.3858 56.8699 34.75 56.8699 36.512L56.8586 45.4134H60.4927L60.5039 35.2502C60.5039 32.3285 57.8292 29.9412 54.5337 29.9412C52.3104 29.9412 50.3015 31.0098 49.2745 32.7264C48.3603 31.0098 46.5997 29.9298 44.636 29.9298C43.1801 29.9298 41.7919 30.5437 40.7988 31.601C40.7875 31.4418 40.3247 30.2709 38.8012 30.2595H37.887C37.492 30.2595 37.3453 30.3846 37.3453 30.7938Z" fill="white"/>
<path d="M157.122 30.9864L157.111 45.4582H160.7L160.711 36.591C160.711 34.5447 162.348 33.4647 163.883 33.4647C165.79 33.4647 167.043 34.7038 167.043 36.591L167.031 45.4582H170.643L170.654 36.591C170.654 30.202 165.169 30.0201 164.537 30.0201C163.059 30.0201 161.637 30.634 160.632 31.7026C160.621 31.5548 160.328 30.3498 158.928 30.3498H157.766C157.337 30.3612 157.122 30.5544 157.122 30.9864Z" fill="white"/>
<path d="M113.209 29.9411C108.841 29.9411 105.298 33.4994 105.298 37.8989C105.298 42.2984 108.83 45.868 113.198 45.868C117.565 45.868 121.098 42.3098 121.109 37.9103C121.109 33.5107 117.577 29.9411 113.209 29.9411ZM113.22 42.2984C110.816 42.2984 108.864 40.3317 108.864 37.8989C108.864 35.4775 110.816 33.5107 113.22 33.5107C115.624 33.5107 117.577 35.4775 117.577 37.8989C117.577 40.3317 115.624 42.2984 113.22 42.2984Z" fill="white"/>
<path d="M87.8832 45.8227C83.5382 45.8227 79.9944 42.2531 79.9944 37.8649C79.9944 33.4768 83.5382 29.9185 87.8945 29.9185C89.8921 29.9185 91.7882 30.6688 93.2553 32.0444C93.3005 32.0899 93.6052 32.3513 93.2553 32.7265C92.8942 33.1017 91.0094 34.8183 91.0094 34.8183L90.8176 34.6364C90.0163 33.8974 88.978 33.4995 87.9058 33.4995C85.5132 33.4995 83.5607 35.4549 83.5607 37.8763C83.5607 40.2864 85.5132 42.2531 87.9058 42.2531C88.9893 42.2531 90.1856 41.8438 90.9869 41.1163C91.0546 41.048 91.3254 40.8321 91.6527 41.1276L93.3682 43.0489L93.6391 43.3444C93.6391 43.3444 93.3569 43.6286 93.3118 43.6741C91.822 45.061 89.9034 45.8227 87.8832 45.8227Z" fill="white"/>
<path d="M37.3565 14.0473H38.2255V18.174H43.4283V14.0473H44.2973L44.286 23.4147H43.417V18.9698H38.2142V23.4147H37.3452L37.3565 14.0473Z" fill="white"/>
<path d="M51.1041 21.6994C51.1041 21.8131 51.1041 21.9609 51.1154 22.12C51.1266 22.2792 51.1266 22.4383 51.1266 22.6202C51.1266 22.7908 51.1379 22.9385 51.1492 23.0863C51.1605 23.2341 51.1605 23.3478 51.1605 23.4274H50.3703C50.3591 23.2 50.3591 22.9727 50.3478 22.768C50.3478 22.552 50.3365 22.4156 50.3139 22.3588H50.28C50.122 22.6884 49.8624 22.984 49.4899 23.2228C49.1174 23.4615 48.6884 23.5865 48.203 23.5865C47.7289 23.5865 47.3451 23.507 47.0404 23.3592C46.7469 23.2114 46.4985 23.0181 46.3292 22.768C46.1599 22.5293 46.0357 22.2451 45.9793 21.9268C45.9115 21.6085 45.889 21.2902 45.889 20.9605V17.3226H46.6791V20.9264C46.6791 21.1651 46.7017 21.4152 46.7469 21.6539C46.792 21.8813 46.8597 22.0973 46.9839 22.2792C47.0855 22.4611 47.2435 22.6089 47.4467 22.7226C47.6386 22.8362 47.887 22.8931 48.2143 22.8931C48.4965 22.8931 48.7787 22.8362 49.0383 22.7339C49.298 22.6316 49.5124 22.4838 49.7043 22.2678C49.8962 22.0632 50.043 21.8017 50.1559 21.4948C50.2687 21.1878 50.3252 20.8127 50.3252 20.3921V17.334H51.1154L51.1041 21.6994Z" fill="white"/>
<path d="M52.6266 19.0392C52.6266 18.9256 52.6154 18.7891 52.6154 18.6186C52.6154 18.4595 52.6041 18.2889 52.6041 18.1298C52.5928 17.9593 52.5928 17.8001 52.5815 17.6637C52.5702 17.5159 52.5702 17.4022 52.5702 17.3226H53.3602C53.3715 17.55 53.3715 17.7774 53.3828 17.9934C53.3828 18.198 53.3941 18.3344 53.4167 18.4026H53.4505C53.6198 18.0616 53.8794 17.7774 54.2405 17.5386C54.613 17.2999 55.0418 17.1862 55.5271 17.1862C55.9334 17.1862 56.2946 17.2885 56.6219 17.4932C56.9491 17.6978 57.1974 18.0275 57.3442 18.5049C57.536 18.0502 57.8294 17.7092 58.2132 17.5045C58.5969 17.2885 58.9919 17.1862 59.4208 17.1862C59.8948 17.1862 60.2785 17.2658 60.5719 17.4136C60.8766 17.5614 61.1024 17.7546 61.2716 18.0047C61.4409 18.2548 61.5538 18.5277 61.6328 18.846C61.7005 19.1643 61.7231 19.494 61.7231 19.8237V23.4615H60.9331V19.8578C60.9331 19.6077 60.9105 19.3803 60.8653 19.1416C60.8315 18.9142 60.7525 18.6982 60.6396 18.5049C60.5381 18.3117 60.3688 18.1753 60.1769 18.0616C59.9851 17.9593 59.7255 17.9024 59.4095 17.9024C59.037 17.9024 58.7436 17.9706 58.5066 18.107C58.2696 18.2435 58.0777 18.414 57.9423 18.63C57.8069 18.8346 57.7166 19.0733 57.6489 19.3121C57.5924 19.5622 57.5699 19.8009 57.5699 20.0169V23.4501H56.7799V19.7668C56.7799 19.1984 56.6783 18.7437 56.4751 18.4026C56.272 18.0616 55.9447 17.8911 55.5271 17.8911C55.2337 17.8911 54.9628 17.9365 54.7032 18.0388C54.4437 18.1412 54.2292 18.2889 54.0374 18.4936C53.8568 18.7096 53.6988 18.971 53.5859 19.278C53.4731 19.5849 53.4167 19.9601 53.4167 20.3807V23.4388H52.6379L52.6266 19.0392Z" fill="white"/>
<path d="M67.7958 20.8695C67.7958 21.1651 67.7958 21.4379 67.7958 21.6767C67.8071 21.9154 67.8071 22.1314 67.8184 22.336C67.8297 22.5407 67.8297 22.7226 67.8523 22.9045C67.8636 23.0863 67.8861 23.2569 67.9087 23.4388H67.175C67.1186 23.1318 67.096 22.8135 67.096 22.4497H67.0734C66.8476 22.8476 66.5654 23.1432 66.2268 23.3251C65.8882 23.5183 65.4592 23.6093 64.9512 23.6093C64.6803 23.6093 64.432 23.5752 64.1724 23.507C63.9127 23.4388 63.687 23.3364 63.4838 23.1887C63.2806 23.0522 63.1226 22.859 62.9871 22.6316C62.8629 22.3929 62.7952 22.1314 62.7952 21.8017C62.7952 21.3356 62.9081 20.9605 63.1451 20.6876C63.3822 20.4148 63.6757 20.2102 64.0256 20.0738C64.3755 19.9373 64.7368 19.8464 65.1319 19.8123C65.5156 19.7668 65.8656 19.7441 66.1591 19.7441H67.0734V19.3803C67.0734 18.846 66.9154 18.4708 66.588 18.2435C66.2719 18.0161 65.8656 17.9024 65.3689 17.9024C64.669 17.9024 64.0482 18.1298 63.5177 18.5845L63.0548 18.0388C63.3483 17.7546 63.6983 17.5386 64.1272 17.3909C64.5562 17.2544 64.9625 17.1749 65.3576 17.1749C66.0913 17.1749 66.6783 17.3454 67.1073 17.6978C67.5475 18.0502 67.762 18.6073 67.762 19.3803L67.7958 20.8695ZM66.2155 20.3693C65.8882 20.3693 65.5608 20.3921 65.256 20.4375C64.94 20.483 64.6578 20.5512 64.4094 20.6649C64.1611 20.7672 63.9579 20.915 63.8111 21.0855C63.6644 21.2674 63.5854 21.4834 63.5854 21.7449C63.5854 21.9268 63.6305 22.0973 63.7096 22.2451C63.7886 22.3929 63.9127 22.5066 64.0369 22.6089C64.1724 22.6998 64.3078 22.768 64.4771 22.8135C64.6352 22.859 64.7932 22.8817 64.9625 22.8817C65.3802 22.8817 65.7301 22.8249 66.001 22.6998C66.2719 22.5748 66.4864 22.4156 66.6445 22.2224C66.8138 22.0177 66.9154 21.7904 66.9831 21.5516C67.0395 21.3015 67.0734 21.0401 67.0734 20.79V20.3807L66.2155 20.3693Z" fill="white"/>
<path d="M69.239 19.0506C69.239 18.9369 69.239 18.8005 69.2277 18.63C69.2164 18.4708 69.2164 18.3003 69.2051 18.1412C69.1938 17.9706 69.1938 17.8115 69.1825 17.6751C69.1712 17.5273 69.1713 17.425 69.1713 17.334H69.9614C69.9727 17.5614 69.9727 17.7887 69.9727 18.0047C69.9727 18.2094 69.9953 18.3458 70.0066 18.414H70.0404C70.1985 18.0729 70.4581 17.7887 70.8306 17.55C71.1918 17.3113 71.6321 17.1976 72.1174 17.1976C72.5915 17.1976 72.9753 17.2772 73.2801 17.425C73.5736 17.5727 73.8107 17.766 73.9913 18.0161C74.1606 18.2662 74.2735 18.539 74.3412 18.8574C74.4089 19.1757 74.4428 19.5053 74.4428 19.835V23.4729H73.6526V19.8691C73.6526 19.619 73.6301 19.3917 73.5849 19.1529C73.5397 18.9256 73.472 18.7096 73.3591 18.5163C73.2463 18.323 73.0995 18.1866 72.8963 18.0729C72.6931 17.9706 72.4448 17.9138 72.1287 17.9138C71.8465 17.9138 71.5756 17.9593 71.3047 18.0616C71.0451 18.1639 70.8306 18.3117 70.6387 18.5163C70.4468 18.7209 70.3001 18.9824 70.1872 19.3007C70.0743 19.6077 70.0179 19.9828 70.0179 20.4034V23.4615H69.2277L69.239 19.0506Z" fill="white"/>
<path d="M77.5233 22.9613L81.1694 18.0502H77.7152V17.334H82.2531V17.8115L78.6296 22.7339H82.4111V23.4501H77.5233V22.9613Z" fill="white"/>
<path d="M83.064 14.9239C83.064 14.7534 83.1204 14.617 83.2333 14.5033C83.3462 14.3896 83.4816 14.3214 83.6622 14.3214C83.8203 14.3214 83.967 14.3783 84.0799 14.5033C84.1928 14.617 84.2492 14.7534 84.2492 14.9239C84.2492 15.0945 84.1928 15.2309 84.0799 15.3446C83.967 15.4583 83.8203 15.5151 83.6622 15.5151C83.4929 15.5151 83.3575 15.4583 83.2333 15.3446C83.1204 15.2195 83.064 15.0831 83.064 14.9239ZM83.2559 17.334H84.046V23.4501H83.2559V17.334Z" fill="white"/>
<path d="M85.6037 19.062C85.6037 18.9483 85.5925 18.8119 85.5925 18.6414C85.5812 18.4822 85.5812 18.3117 85.5699 18.1525C85.5699 17.982 85.5586 17.8228 85.5586 17.6864C85.5473 17.5386 85.5473 17.4363 85.5473 17.3454H86.3375C86.3488 17.5727 86.36 17.8001 86.36 18.0161C86.36 18.2207 86.3826 18.3572 86.3939 18.4254H86.4278C86.5858 18.0843 86.8567 17.8001 87.2179 17.55C87.5904 17.3113 88.0081 17.1976 88.5048 17.1976C88.9789 17.1976 89.3627 17.2772 89.6562 17.425C89.9609 17.5727 90.1867 17.766 90.356 18.0161C90.5253 18.2662 90.6382 18.539 90.7172 18.8574C90.7737 19.1757 90.8076 19.5053 90.8076 19.835V23.4729H90.0287V19.8691C90.0287 19.619 90.0061 19.3917 89.9609 19.1529C89.9158 18.9256 89.8481 18.7096 89.7352 18.5163C89.6223 18.323 89.4756 18.1866 89.2724 18.0729C89.0692 17.9593 88.8096 17.9024 88.4935 17.9024C88.2 17.9024 87.9291 17.9479 87.6695 18.0502C87.4098 18.1525 87.1841 18.3003 86.9922 18.5049C86.8116 18.7096 86.6648 18.971 86.5519 19.2893C86.439 19.5963 86.3939 19.9714 86.3826 20.3921V23.4501H85.5925L85.6037 19.062Z" fill="white"/>
<path d="M98.0636 23.0636C98.0636 23.8139 97.9507 24.4392 97.725 24.9053C97.5106 25.3714 97.2284 25.7351 96.9124 25.9966C96.5738 26.2467 96.224 26.4286 95.8516 26.5082C95.4791 26.5878 95.1292 26.6332 94.8245 26.6332C94.5198 26.6332 94.2151 26.5991 93.9217 26.5423C93.6282 26.4854 93.3574 26.4059 93.0865 26.3035C92.8269 26.1899 92.5899 26.0534 92.3755 25.8943C92.1611 25.7351 91.9805 25.5532 91.8112 25.36L92.4319 24.7688C92.7141 25.1667 93.0526 25.4623 93.4702 25.6442C93.8991 25.8374 94.3392 25.9284 94.8132 25.9284C95.2082 25.9284 95.5581 25.8716 95.829 25.7692C96.1111 25.6669 96.3368 25.5305 96.5174 25.36C96.698 25.1895 96.8334 24.9962 96.935 24.7916C97.0366 24.5869 97.1156 24.3823 97.1607 24.1663C97.2059 23.9617 97.2397 23.7684 97.251 23.5752C97.251 23.3933 97.2623 23.2455 97.2623 23.1204V22.2792H97.2397C97.014 22.6543 96.7093 22.9386 96.3143 23.1545C95.9193 23.3592 95.4678 23.4729 94.9374 23.4729C94.4972 23.4729 94.0797 23.3933 93.6734 23.2228C93.2784 23.0636 92.9398 22.8362 92.6463 22.552C92.3529 22.2678 92.1272 21.9381 91.9466 21.5516C91.7773 21.1765 91.6983 20.7672 91.6983 20.3352C91.6983 19.9032 91.7886 19.5053 91.9579 19.1188C92.1272 18.7323 92.3642 18.4026 92.6576 18.1298C92.9511 17.8456 93.2896 17.6182 93.6847 17.4591C94.0797 17.2885 94.5085 17.209 94.9487 17.209C95.4791 17.209 95.9305 17.3113 96.3143 17.5273C96.7093 17.7433 97.014 18.0275 97.2397 18.4026H97.2623V17.3681H98.0523L98.0636 23.0636ZM97.3074 20.3239C97.3074 19.9828 97.2397 19.6759 97.1156 19.3803C96.9914 19.0847 96.8221 18.8232 96.6077 18.6073C96.3933 18.3913 96.145 18.2207 95.8403 18.0957C95.5468 17.9706 95.2421 17.9024 94.9035 17.9024C94.565 17.9024 94.2489 17.9706 93.9668 18.0957C93.6734 18.2207 93.4251 18.3913 93.1994 18.6073C92.9849 18.8232 92.8156 19.0847 92.6915 19.3803C92.5674 19.6759 92.4996 19.9828 92.4996 20.3239C92.4996 20.6535 92.5674 20.9718 92.6915 21.2674C92.8156 21.563 92.9849 21.8245 93.1994 22.0405C93.4138 22.2565 93.6621 22.427 93.9668 22.5634C94.2602 22.6884 94.5762 22.7567 94.9035 22.7567C95.2308 22.7567 95.5355 22.6884 95.8403 22.5634C96.1337 22.4383 96.3933 22.2678 96.6077 22.0518C96.8221 21.8358 96.9914 21.5857 97.1156 21.2788C97.2397 20.9718 97.3074 20.6649 97.3074 20.3239Z" fill="white"/>
<path d="M109.981 22.859C109.451 23.1659 108.887 23.3819 108.3 23.507C107.724 23.632 107.126 23.7002 106.528 23.7002C105.817 23.7002 105.174 23.5752 104.576 23.3364C103.989 23.0863 103.481 22.7567 103.052 22.3133C102.634 21.8813 102.307 21.3584 102.07 20.7558C101.833 20.1533 101.72 19.494 101.72 18.7778C101.72 18.0729 101.833 17.4022 102.081 16.8111C102.318 16.2086 102.646 15.697 103.063 15.2536C103.492 14.8216 103.989 14.4806 104.587 14.2305C105.185 13.9804 105.828 13.8667 106.539 13.8667C107.916 13.8667 109.033 14.2987 109.891 15.1627L109.259 15.8334C109.124 15.6629 108.943 15.5037 108.74 15.3559C108.537 15.2195 108.311 15.0945 108.074 14.9922C107.837 14.8898 107.589 14.8103 107.318 14.7534C107.058 14.6966 106.799 14.6625 106.539 14.6625C105.941 14.6625 105.388 14.7762 104.903 14.9922C104.418 15.1968 104.011 15.4924 103.661 15.8675C103.323 16.2313 103.063 16.6747 102.871 17.1749C102.691 17.6751 102.589 18.2207 102.589 18.8005C102.589 19.3803 102.68 19.926 102.871 20.4262C103.052 20.9264 103.323 21.3697 103.661 21.7335C104 22.0973 104.418 22.3929 104.903 22.5975C105.388 22.8135 105.941 22.9158 106.539 22.9158C107.036 22.9158 107.51 22.8703 107.939 22.8021C108.379 22.7226 108.774 22.5748 109.135 22.3701V19.2211H106.9V18.4254H109.993L109.981 22.859Z" fill="white"/>
<path d="M116.979 22.3247C116.674 22.7908 116.291 23.1204 115.839 23.3251C115.388 23.5183 114.891 23.6206 114.349 23.6206C113.887 23.6206 113.469 23.5411 113.085 23.3819C112.702 23.2228 112.386 22.9954 112.115 22.7112C111.844 22.427 111.641 22.0859 111.494 21.688C111.359 21.2902 111.28 20.8582 111.28 20.3807C111.28 19.926 111.359 19.5053 111.505 19.1188C111.663 18.7323 111.866 18.3913 112.137 18.107C112.408 17.8228 112.724 17.5955 113.097 17.4363C113.469 17.2772 113.875 17.1976 114.315 17.1976C114.778 17.1976 115.196 17.2772 115.546 17.4363C115.896 17.5955 116.2 17.8115 116.426 18.0843C116.674 18.3572 116.855 18.6641 116.968 19.0051C117.092 19.3462 117.148 19.6986 117.148 20.051V20.6081H112.047C112.047 20.7672 112.081 20.9832 112.149 21.2447C112.216 21.5062 112.329 21.7563 112.51 22.0064C112.679 22.2565 112.916 22.4725 113.209 22.643C113.503 22.8249 113.887 22.9044 114.349 22.9044C114.756 22.9044 115.139 22.8021 115.512 22.6089C115.884 22.4156 116.178 22.1541 116.381 21.8131L116.979 22.3247ZM116.37 19.9032C116.37 19.6304 116.313 19.3689 116.2 19.1302C116.099 18.8915 115.952 18.6868 115.76 18.4936C115.568 18.3117 115.354 18.1753 115.083 18.0729C114.823 17.9593 114.552 17.9138 114.259 17.9138C113.83 17.9138 113.469 18.0047 113.187 18.1753C112.905 18.3458 112.679 18.5504 112.51 18.7778C112.34 19.0051 112.228 19.2325 112.149 19.4485C112.081 19.6645 112.047 19.8123 112.047 19.8919L116.37 19.9032Z" fill="white"/>
<path d="M118.107 19.0847C118.107 18.971 118.095 18.8346 118.095 18.6641C118.084 18.5049 118.084 18.3344 118.073 18.1753C118.073 18.0047 118.062 17.8456 118.05 17.7092C118.039 17.5614 118.039 17.4591 118.039 17.3681H118.829C118.829 17.5955 118.84 17.8228 118.84 18.0388C118.84 18.2435 118.852 18.3799 118.874 18.4481H118.908C119.066 18.107 119.326 17.8228 119.71 17.5727C120.071 17.334 120.5 17.2203 120.996 17.2203C121.471 17.2203 121.854 17.2999 122.159 17.4477C122.453 17.5955 122.69 17.7887 122.859 18.0388C123.028 18.2889 123.141 18.5618 123.22 18.8801C123.288 19.1984 123.322 19.5281 123.322 19.8578V23.4956H122.532V19.8919C122.532 19.6418 122.509 19.4144 122.464 19.1757C122.419 18.9483 122.34 18.7323 122.227 18.539C122.114 18.3458 121.967 18.2094 121.764 18.0957C121.561 17.9934 121.313 17.9365 120.996 17.9365C120.703 17.9365 120.432 17.982 120.172 18.0843C119.924 18.1866 119.687 18.3344 119.506 18.539C119.326 18.7437 119.179 19.0051 119.066 19.3235C118.965 19.6304 118.908 20.0055 118.897 20.4262V23.4842H118.107V19.0847Z" fill="white"/>
<path d="M124.213 20.4262C124.213 19.9601 124.292 19.5281 124.45 19.1302C124.608 18.7437 124.834 18.4026 125.105 18.1184C125.387 17.8228 125.725 17.6068 126.109 17.4477C126.504 17.2885 126.933 17.209 127.396 17.209C127.858 17.209 128.287 17.2885 128.682 17.4477C129.066 17.6068 129.404 17.8228 129.687 18.1184C129.969 18.4026 130.194 18.7437 130.352 19.1302C130.51 19.5281 130.589 19.9601 130.589 20.4262C130.589 20.8923 130.51 21.3243 130.352 21.7108C130.194 22.1087 129.969 22.4497 129.687 22.7339C129.404 23.0181 129.066 23.2455 128.682 23.4046C128.287 23.5638 127.858 23.6434 127.396 23.6434C126.933 23.6434 126.504 23.5638 126.109 23.4046C125.725 23.2455 125.387 23.0181 125.105 22.7339C124.822 22.4497 124.608 22.1087 124.45 21.7108C124.292 21.3243 124.213 20.8923 124.213 20.4262ZM125.003 20.4262C125.003 20.7672 125.059 21.0969 125.172 21.3925C125.285 21.6994 125.432 21.9722 125.646 22.1882C125.861 22.4156 126.109 22.5975 126.414 22.7339C126.718 22.8703 127.046 22.9385 127.407 22.9385C127.779 22.9385 128.107 22.8703 128.4 22.7453C128.705 22.6089 128.953 22.427 129.167 22.1996C129.371 21.9836 129.54 21.7108 129.653 21.4038C129.766 21.1083 129.822 20.7786 129.822 20.4375C129.822 20.0965 129.766 19.7668 129.653 19.4599C129.54 19.1529 129.382 18.8915 129.179 18.6641C128.964 18.4367 128.716 18.2548 128.411 18.1298C128.118 17.9934 127.791 17.9252 127.418 17.9252C127.046 17.9252 126.718 17.9934 126.425 18.1184C126.12 18.2435 125.872 18.4254 125.658 18.6527C125.443 18.8801 125.296 19.1416 125.184 19.4485C125.059 19.7554 125.003 20.0851 125.003 20.4262Z" fill="white"/>
<path d="M131.73 19.0961C131.73 18.9824 131.718 18.846 131.718 18.6755C131.707 18.5163 131.707 18.3458 131.696 18.1866C131.696 18.0161 131.684 17.857 131.673 17.7205C131.662 17.5727 131.662 17.4704 131.662 17.3795H132.452C132.452 17.6068 132.463 17.8342 132.463 18.0502C132.463 18.2548 132.474 18.3913 132.497 18.4595H132.531C132.689 18.1184 132.948 17.8342 133.321 17.5841C133.682 17.3454 134.111 17.2317 134.607 17.2317C135.014 17.2317 135.375 17.334 135.714 17.5386C136.041 17.7433 136.278 18.0729 136.436 18.5504C136.628 18.0957 136.91 17.7546 137.294 17.55C137.666 17.334 138.072 17.2317 138.49 17.2317C138.964 17.2317 139.348 17.3113 139.641 17.4591C139.934 17.6068 140.183 17.8001 140.341 18.0502C140.51 18.3003 140.623 18.5732 140.691 18.8915C140.758 19.2098 140.792 19.5394 140.792 19.8691V23.507H140.002V19.9032C140.002 19.6531 139.98 19.4258 139.934 19.187C139.889 18.9597 139.81 18.7437 139.709 18.5504C139.596 18.3572 139.438 18.2207 139.246 18.1071C139.054 18.0047 138.795 17.9479 138.479 17.9479C138.117 17.9479 137.813 18.0161 137.576 18.1525C137.339 18.2889 137.147 18.4708 137.011 18.6755C136.876 18.8801 136.774 19.1188 136.718 19.3576C136.662 19.6077 136.628 19.8464 136.628 20.0624V23.4956H135.838V19.8123C135.838 19.2439 135.736 18.8005 135.533 18.4595C135.33 18.1184 135.014 17.9479 134.585 17.9365C134.303 17.9365 134.032 17.982 133.761 18.0843C133.501 18.1866 133.276 18.3344 133.095 18.539C132.903 18.7437 132.757 19.0051 132.644 19.3235C132.531 19.6304 132.474 20.0055 132.474 20.4262V23.4842H131.696L131.73 19.0961Z" fill="white"/>
<path d="M142.123 14.9694C142.123 14.7989 142.18 14.6625 142.293 14.5488C142.406 14.4351 142.541 14.3669 142.71 14.3669C142.88 14.3669 143.015 14.4351 143.139 14.5488C143.252 14.6625 143.309 14.7989 143.309 14.9694C143.309 15.1399 143.252 15.2764 143.139 15.39C143.015 15.5037 142.88 15.5606 142.71 15.5606C142.541 15.5606 142.406 15.5037 142.293 15.39C142.18 15.2764 142.123 15.1286 142.123 14.9694ZM142.315 17.3909H143.105V23.507H142.315V17.3909Z" fill="white"/>
<path d="M149.516 22.5975C149.212 22.9613 148.873 23.2228 148.501 23.4046C148.128 23.5752 147.71 23.6547 147.27 23.6547C146.807 23.6547 146.378 23.5752 145.983 23.416C145.588 23.2569 145.25 23.0295 144.979 22.7453C144.696 22.4611 144.482 22.12 144.324 21.7222C144.166 21.3243 144.087 20.9036 144.087 20.4375C144.087 19.9714 144.166 19.5394 144.324 19.1416C144.482 18.755 144.696 18.414 144.99 18.1298C145.272 17.8342 145.599 17.6182 146.006 17.4591C146.401 17.2999 146.83 17.2203 147.293 17.2203C147.733 17.2203 148.151 17.3113 148.534 17.4932C148.918 17.6864 149.257 17.9365 149.55 18.2776L148.918 18.755C148.681 18.5049 148.444 18.3003 148.173 18.1525C147.902 18.0161 147.609 17.9365 147.293 17.9365C146.92 17.9365 146.593 18.0047 146.299 18.1298C146.006 18.2548 145.746 18.4367 145.532 18.6641C145.317 18.8915 145.159 19.1529 145.058 19.4599C144.945 19.7668 144.888 20.0851 144.888 20.4375C144.888 20.7786 144.945 21.1083 145.058 21.4038C145.171 21.7108 145.329 21.9836 145.532 22.1996C145.746 22.427 145.995 22.6089 146.299 22.7453C146.593 22.8817 146.931 22.9499 147.293 22.9499C147.62 22.9499 147.936 22.8703 148.207 22.7226C148.489 22.5748 148.726 22.3701 148.929 22.1087L149.516 22.5975Z" fill="white"/>
<path d="M150.735 21.9495C150.904 22.2792 151.152 22.5293 151.469 22.6884C151.796 22.859 152.135 22.9499 152.496 22.9499C152.654 22.9499 152.823 22.9158 152.992 22.8703C153.15 22.8135 153.309 22.7453 153.433 22.643C153.568 22.552 153.67 22.427 153.76 22.2906C153.85 22.1541 153.884 21.995 153.884 21.8245C153.884 21.5403 153.794 21.3243 153.613 21.1878C153.433 21.0514 153.207 20.9377 152.947 20.8582C152.688 20.7786 152.405 20.7104 152.089 20.6535C151.773 20.5967 151.491 20.5057 151.22 20.3807C150.949 20.267 150.735 20.0965 150.554 19.8919C150.374 19.6759 150.283 19.3803 150.283 18.9938C150.283 18.6982 150.351 18.4367 150.464 18.2207C150.588 18.0047 150.746 17.8115 150.949 17.6637C151.141 17.5273 151.367 17.4136 151.615 17.3454C151.864 17.2772 152.112 17.2431 152.36 17.2431C152.857 17.2431 153.286 17.334 153.658 17.5159C154.02 17.7092 154.302 17.9934 154.505 18.3913L153.794 18.8119C153.636 18.5277 153.455 18.323 153.241 18.1639C153.015 18.0275 152.722 17.9479 152.36 17.9479C152.225 17.9479 152.078 17.9706 151.92 18.0161C151.773 18.0616 151.638 18.1184 151.514 18.198C151.401 18.2662 151.288 18.3799 151.209 18.5049C151.13 18.63 151.085 18.7664 151.085 18.9256C151.085 19.1984 151.175 19.403 151.356 19.5394C151.536 19.6645 151.751 19.7782 152.01 19.8464C152.281 19.9146 152.563 19.9828 152.891 20.0397C153.196 20.0965 153.489 20.1761 153.749 20.3011C154.008 20.4148 154.234 20.5853 154.415 20.8127C154.595 21.0401 154.686 21.3584 154.686 21.7676C154.686 22.0859 154.629 22.3588 154.505 22.5975C154.381 22.8249 154.223 23.0181 154.02 23.1887C153.816 23.3478 153.579 23.4615 153.32 23.5411C153.06 23.6206 152.778 23.6661 152.484 23.6661C151.965 23.6661 151.48 23.5638 151.051 23.3592C150.622 23.1545 150.283 22.8362 150.046 22.4156L150.735 21.9495Z" fill="white"/>
<path d="M75.5483 14.9126C75.5483 14.7421 75.6048 14.6056 75.7177 14.492C75.8305 14.3783 75.966 14.3101 76.1353 14.3101C76.3046 14.3101 76.4401 14.3783 76.553 14.492C76.6659 14.6056 76.7223 14.7421 76.7223 14.9126C76.7223 15.0831 76.6659 15.2195 76.553 15.3332C76.4401 15.4469 76.2934 15.5037 76.1353 15.5037C75.966 15.5037 75.8305 15.4469 75.7177 15.3332C75.6048 15.2195 75.5483 15.0831 75.5483 14.9126ZM75.7402 17.334H76.5304V23.4501H75.7402V17.334Z" fill="white"/>
</svg>
