<svg width="144" height="54" viewBox="0 0 144 54" fill="none" xmlns="http://www.w3.org/2000/svg">
<path fill-rule="evenodd" clip-rule="evenodd" d="M66.1145 26.1426L66.105 38.3489H63.1334V36.9371C62.1238 38.0127 60.7047 38.5794 58.9808 38.5794C55.1235 38.5794 52.4376 35.8327 52.4376 31.9048C52.4376 27.9769 55.133 25.2398 58.9903 25.2494C60.7047 25.2494 62.1143 25.8064 63.1144 26.882C63.1144 26.882 63.6287 25.5759 64.8383 25.5759H65.5336C66.0098 25.5759 66.1241 25.7392 66.1145 26.1426ZM59.3046 28.0249C57.1998 28.0249 55.4854 29.7632 55.4854 31.9144C55.4854 34.0656 57.1998 35.8039 59.3046 35.8039C61.419 35.8039 63.1334 34.0656 63.1334 31.9144C63.1334 29.7728 61.4095 28.0249 59.3046 28.0249Z" fill="#002163"/>
<path fill-rule="evenodd" clip-rule="evenodd" d="M116.667 38.0519C116.657 41.4324 113.59 44.4095 110.057 44.4095C108.657 44.4095 106.123 43.9389 104.447 41.2787C104.447 41.2787 106.209 40.0686 106.485 39.8862C106.771 39.6941 106.933 39.7997 107.095 39.9726C107.866 40.7985 108.924 41.4612 110.057 41.4612C112.086 41.4708 113.733 39.8093 113.733 37.7637V37.6101C112.667 38.3304 111.39 38.7433 110.009 38.7433C106.333 38.7433 103.352 35.7278 103.352 32.0111C103.361 28.2945 106.342 25.2885 110.028 25.2885C113.619 25.2885 116.514 28.1504 116.667 31.7326C116.667 31.7326 116.676 32.1264 116.667 32.5873V38.0519ZM106.361 32.0111C106.361 34.0663 108.009 35.7278 110.038 35.7278C112.067 35.7278 113.714 34.0663 113.714 32.0111C113.714 29.9655 112.067 28.3041 110.038 28.3041C108.009 28.3041 106.361 29.9655 106.361 32.0111Z" fill="#002163"/>
<path fill-rule="evenodd" clip-rule="evenodd" d="M130.725 33.2496C130.725 33.2496 130.734 33.1152 130.744 32.8847C131.001 27.5354 127.62 25.3074 124.267 25.317C120.705 25.3074 118 28.1885 118 31.8475C118 35.5353 120.229 38.7526 124.4 38.7526C128.124 38.7526 129.953 36.5437 129.953 36.5437L128.524 34.8919C128.21 34.5077 127.867 34.7478 127.801 34.7958C126.829 35.5257 125.762 35.8811 124.419 35.8811C122.505 35.8811 121.181 34.4213 121.019 33.24L130.725 33.2496ZM124.496 27.9772C126.324 27.9964 127.515 29.0048 127.801 30.5414L121.019 30.5318C121.429 28.9088 122.886 27.9676 124.496 27.9772Z" fill="#002163"/>
<path d="M80.324 38.3688L80.3335 26.0569C80.3335 25.7495 80.5335 25.5863 80.8478 25.5767H81.4764C82.6574 25.5767 83.267 26.6139 83.267 26.6139C84.1528 25.7207 85.6195 25.3942 86.8196 25.3942C87.8958 25.3942 89.0578 25.8072 89.8959 26.4026L88.1244 28.8131C88.1244 28.8131 87.3625 28.3041 86.2005 28.3137C84.5337 28.3233 83.3622 29.0916 83.3337 31.1948C83.3146 32.7602 83.3241 38.3688 83.3241 38.3688H80.324Z" fill="#002163"/>
<path d="M31.5042 25.9984L31.4946 38.3296H34.5424L34.5519 30.8099C34.5519 29.0716 35.8472 28.1689 37.114 28.1785C38.5903 28.1785 39.676 29.3309 39.676 30.8195L39.6665 38.3392H42.8476L42.8572 30.8195C42.8572 29.3309 43.9429 28.1785 45.4192 28.1881C46.8955 28.1881 47.9812 29.3405 47.9812 30.8291L47.9717 38.3488H51.0386L51.0481 29.7631C51.0481 27.2949 48.7908 25.2782 46.0097 25.2782C44.1334 25.2782 42.4381 26.1809 41.5714 27.6311C40.7999 26.1809 39.3141 25.2685 37.6569 25.2685C36.4282 25.2685 35.2567 25.7871 34.4186 26.6803C34.4091 26.5458 34.0186 25.5567 32.7328 25.5471H31.9613C31.628 25.5471 31.5042 25.6527 31.5042 25.9984Z" fill="#002163"/>
<path d="M132.571 38.3878L132.58 26.1623C132.58 25.7974 132.761 25.6341 133.123 25.6245H134.104C135.285 25.6245 135.533 26.6425 135.542 26.7673C136.39 25.8646 137.59 25.346 138.838 25.346C139.371 25.346 144 25.4997 144 30.8969L143.99 38.3878H140.943L140.952 30.8969C140.952 29.3027 139.895 28.2559 138.285 28.2559C136.99 28.2559 135.609 29.1683 135.609 30.8969L135.599 38.3878H132.571Z" fill="#002163"/>
<path fill-rule="evenodd" clip-rule="evenodd" d="M95.5244 25.278C91.8384 25.278 88.8478 28.284 88.8478 32.0006C88.8478 35.7173 91.8289 38.7328 95.5148 38.7328C99.2007 38.7328 102.182 35.7269 102.191 32.0102C102.191 28.2936 99.2103 25.278 95.5244 25.278ZM95.5339 35.7173C93.5052 35.7173 91.8575 34.0558 91.8575 32.0006C91.8575 29.955 93.5052 28.2936 95.5339 28.2936C97.5626 28.2936 99.2103 29.955 99.2103 32.0006C99.2103 34.0558 97.5626 35.7173 95.5339 35.7173Z" fill="#002163"/>
<path d="M67.4953 31.9719C67.4953 35.6789 70.486 38.6944 74.1528 38.6944C75.8577 38.6944 77.4768 38.051 78.734 36.8793L79.0102 36.6008L78.7816 36.3511L77.334 34.7281C77.0577 34.4784 76.8292 34.6609 76.772 34.7185C76.0958 35.3331 75.0862 35.6789 74.1719 35.6789C72.1527 35.6789 70.505 34.0174 70.505 31.9815C70.505 29.9359 72.1527 28.284 74.1719 28.284C75.0767 28.284 75.9529 28.6202 76.6291 29.2444L76.7911 29.3981C76.7911 29.3981 78.3816 27.9479 78.6864 27.631C78.9681 27.3286 78.7469 27.1136 78.693 27.0612C78.6904 27.0587 78.6882 27.0565 78.6864 27.0548C77.4482 25.8927 75.8482 25.2589 74.1623 25.2589C70.486 25.2589 67.4953 28.2648 67.4953 31.9719Z" fill="#002163"/>
<path d="M91.382 19.9889C91.8773 19.8814 92.3535 19.6957 92.8011 19.4317L92.8107 15.619H90.201V16.3033H92.0868V19.0113C91.782 19.1873 91.4487 19.3144 91.0772 19.3828C90.7153 19.4415 90.3153 19.4806 89.8962 19.4806C89.3914 19.4806 88.9247 19.3926 88.5152 19.2068C88.1056 19.0309 87.7532 18.7767 87.4675 18.4639C87.1818 18.151 86.9532 17.7697 86.8008 17.3396C86.6389 16.9094 86.5627 16.4402 86.5627 15.9416C86.5627 15.443 86.6484 14.9738 86.8008 14.5436C86.9627 14.1134 87.1818 13.7322 87.4675 13.4193C87.7628 13.0967 88.1056 12.8425 88.5152 12.6666C88.9247 12.4808 89.3914 12.3831 89.8962 12.3831C90.1153 12.3831 90.3343 12.4124 90.5534 12.4613C90.782 12.5102 90.9915 12.5786 91.1915 12.6666C91.3915 12.7546 91.582 12.8621 91.7535 12.9794C91.9249 13.1065 92.0773 13.2434 92.1916 13.39L92.7249 12.8132C92.0011 12.0702 91.0582 11.6987 89.8962 11.6987C89.2962 11.6987 88.7533 11.7965 88.2485 12.0116C87.7437 12.2266 87.3246 12.5199 86.9627 12.8914C86.6103 13.2727 86.3341 13.7126 86.1341 14.2308C85.9246 14.7391 85.8293 15.3159 85.8293 15.922C85.8293 16.5379 85.9246 17.105 86.1246 17.6231C86.3246 18.1412 86.6008 18.5909 86.9532 18.9624C87.3151 19.3437 87.7437 19.6272 88.239 19.8423C88.7438 20.0476 89.2867 20.1551 89.8867 20.1551C90.3915 20.1551 90.8963 20.0965 91.382 19.9889Z" fill="#002163"/>
<path d="M32.2478 11.8559H31.5144L31.5049 19.9115H32.2383V16.089H36.629V19.9115H37.3623L37.3719 11.8559H36.6385V15.4047H32.2478V11.8559Z" fill="#002163"/>
<path d="M43.1242 18.7969C43.1147 18.6601 43.1147 18.5329 43.1147 18.4352L43.1242 14.6806H42.4574V17.3108C42.4574 17.6725 42.4098 17.9952 42.3145 18.2592C42.2193 18.5232 42.0954 18.7481 41.9335 18.924C41.7716 19.1098 41.5906 19.2369 41.3715 19.3249C41.1524 19.4129 40.9143 19.4618 40.6761 19.4618C40.3999 19.4618 40.1903 19.4129 40.0284 19.3151C39.8569 19.2174 39.7236 19.0903 39.6378 18.9338C39.533 18.7774 39.4759 18.5916 39.4378 18.3961C39.3997 18.1907 39.3806 17.9756 39.3806 17.7703V14.6708H38.7138V17.7996C38.7138 18.0832 38.7329 18.3569 38.79 18.6307C38.8377 18.9045 38.9425 19.1489 39.0853 19.3543C39.2282 19.5694 39.4378 19.7356 39.6855 19.8627C39.9426 19.9898 40.2665 20.0582 40.6666 20.0582C41.0762 20.0582 41.4382 19.9507 41.7525 19.7454C42.0669 19.54 42.286 19.2858 42.4193 19.0023H42.4479C42.4669 19.0512 42.4765 19.1685 42.4765 19.3543C42.4814 19.4445 42.4837 19.5398 42.4862 19.6376C42.4885 19.7307 42.4909 19.826 42.4955 19.9214H43.1623C43.1623 19.8529 43.1623 19.7551 43.1528 19.628C43.1433 19.5009 43.1337 19.3738 43.1337 19.2272C43.1337 19.0707 43.1337 18.9338 43.1242 18.7969Z" fill="#002163"/>
<path d="M44.4005 16.1469C44.4005 16.103 44.3986 16.0551 44.3965 16.0023C44.3939 15.9378 44.391 15.8659 44.391 15.7852C44.391 15.7168 44.3886 15.6459 44.3862 15.575C44.3839 15.5041 44.3815 15.4332 44.3815 15.3648C44.377 15.2954 44.3746 15.2282 44.3723 15.1642C44.3698 15.093 44.3675 15.0258 44.3624 14.964C44.3529 14.8369 44.3529 14.7392 44.3529 14.6707L45.0196 14.6707C45.0243 14.7672 45.0267 14.8638 45.029 14.9591C45.0315 15.0569 45.0338 15.1535 45.0387 15.2475C45.0387 15.4235 45.0482 15.5408 45.0672 15.5994H45.0958C45.2387 15.3062 45.4577 15.0618 45.7625 14.8565C46.0768 14.6512 46.4387 14.5534 46.8483 14.5534C47.1912 14.5534 47.4959 14.6414 47.7721 14.8173C48.0484 14.9933 48.2579 15.2768 48.3817 15.6874C48.5436 15.2964 48.7913 15.0031 49.1151 14.8271C49.4389 14.6414 49.7723 14.5534 50.1342 14.5534C50.5342 14.5534 50.858 14.6218 51.1057 14.7489C51.3628 14.876 51.5533 15.0422 51.6962 15.2573C51.839 15.4724 51.9343 15.707 52.0009 15.9807C52.0581 16.2544 52.0771 16.538 52.0771 16.8215V19.9498H51.4104V16.8508C51.4104 16.6357 51.3914 16.4402 51.3533 16.2349C51.3247 16.0394 51.2581 15.8536 51.1628 15.6874C51.0771 15.5212 50.9342 15.4039 50.7723 15.3062C50.6104 15.2182 50.3913 15.1693 50.1247 15.1693C49.8104 15.1693 49.5627 15.2279 49.3627 15.3453C49.1627 15.4626 49.0008 15.6092 48.8865 15.795C48.7722 15.9709 48.696 16.1762 48.6389 16.3815C48.5912 16.5966 48.5722 16.8019 48.5722 16.9877V19.9401H47.9055V16.7726C47.9055 16.2838 47.8198 15.8927 47.6483 15.5994C47.4769 15.3062 47.2007 15.1595 46.8483 15.1595C46.6007 15.1595 46.3721 15.1986 46.153 15.2866C45.934 15.3746 45.753 15.5017 45.5911 15.6777C45.4387 15.8634 45.3053 16.0883 45.2101 16.3522C45.1149 16.6162 45.0672 16.9388 45.0672 17.3005V19.9303H44.4101L44.4005 16.1469Z" fill="#002163"/>
<path fill-rule="evenodd" clip-rule="evenodd" d="M57.2004 18.4156V17.7214L57.1718 16.4406C57.1718 15.7757 56.9909 15.2966 56.6194 14.9935C56.2574 14.6904 55.762 14.5437 55.1429 14.5437C54.8095 14.5437 54.4665 14.6122 54.1046 14.7295C53.7426 14.8566 53.4473 15.0424 53.1996 15.2868L53.5902 15.7561C54.0379 15.365 54.5618 15.1695 55.1524 15.1695C55.5715 15.1695 55.9145 15.2672 56.1812 15.4628C56.4574 15.6584 56.5908 15.981 56.5908 16.4406V16.7534H55.8192C55.5715 16.7534 55.2762 16.773 54.9524 16.8121C54.619 16.8414 54.3141 16.9197 54.0188 17.037C53.7235 17.1543 53.4759 17.3303 53.2758 17.565C53.0758 17.7996 52.9805 18.1223 52.9805 18.5232C52.9805 18.8067 53.0377 19.0316 53.1425 19.2369C53.2568 19.4325 53.3901 19.5987 53.5616 19.716C53.7331 19.8431 53.9236 19.9311 54.1427 19.9898C54.3618 20.0485 54.5713 20.0778 54.7999 20.0778C55.2286 20.0778 55.5906 19.9996 55.8763 19.8334C56.1621 19.6769 56.4003 19.4227 56.5908 19.0805H56.6098C56.6098 19.3934 56.6289 19.6672 56.6765 19.9311H57.2957L57.2899 19.8842C57.2729 19.7451 57.2566 19.6123 57.248 19.4716C57.235 19.3645 57.2309 19.2574 57.2265 19.144C57.2245 19.0918 57.2225 19.0382 57.2195 18.9827C57.2145 18.8913 57.2121 18.7971 57.2097 18.699C57.2074 18.6084 57.205 18.5142 57.2004 18.4156ZM55.0571 17.3499C55.3143 17.3108 55.5906 17.2912 55.8668 17.2912L56.5908 17.301V17.653C56.5908 17.8681 56.5622 18.093 56.5146 18.3081C56.4574 18.5134 56.3717 18.7089 56.2288 18.8849C56.0954 19.0512 55.9145 19.1881 55.6858 19.2956C55.4572 19.4032 55.1619 19.452 54.8095 19.452C54.6666 19.452 54.5332 19.4325 54.3999 19.3934C54.257 19.3543 54.1427 19.2956 54.0284 19.2174C53.9236 19.1294 53.8188 19.0316 53.7521 18.9045C53.6854 18.7774 53.6473 18.6307 53.6473 18.4743C53.6473 18.2494 53.714 18.0636 53.8379 17.9072C53.9617 17.7605 54.1332 17.6334 54.3427 17.5454C54.5523 17.4476 54.7904 17.389 55.0571 17.3499Z" fill="#002163"/>
<path d="M58.4185 16.1568C58.4185 16.059 58.4185 15.9417 58.4089 15.795C58.4042 15.7266 58.4018 15.6557 58.3994 15.5848C58.397 15.5139 58.3946 15.4431 58.3899 15.3746C58.3854 15.3052 58.383 15.238 58.3807 15.174C58.3782 15.1028 58.3758 15.0355 58.3708 14.9737C58.3613 14.8466 58.3613 14.7587 58.3613 14.6804L59.0281 14.6804C59.0376 14.876 59.0376 15.0715 59.0376 15.2573C59.0376 15.4333 59.0567 15.5506 59.0662 15.6093H59.0948C59.2281 15.3159 59.4472 15.0715 59.7616 14.8662C60.0664 14.6608 60.4379 14.5631 60.8475 14.5631C61.2476 14.5631 61.5715 14.6315 61.8287 14.7586C62.0763 14.8857 62.2764 15.052 62.4288 15.2671C62.5717 15.4822 62.6669 15.7168 62.7241 15.9906C62.7812 16.2644 62.8098 16.5479 62.8098 16.8315V19.9603H62.143V16.8608C62.143 16.6457 62.1239 16.4501 62.0858 16.2448C62.0477 16.0493 61.9906 15.8635 61.8953 15.6973C61.8001 15.5311 61.6762 15.4137 61.5048 15.3159C61.3333 15.2279 61.1238 15.1791 60.857 15.1791C60.6189 15.1791 60.3903 15.2182 60.1617 15.3062C59.9426 15.3942 59.7616 15.5213 59.5996 15.6973C59.4377 15.8733 59.3139 16.0981 59.2186 16.3719C59.1234 16.6359 59.0757 16.9586 59.0757 17.3203V19.9505H58.4089L58.4185 16.1568Z" fill="#002163"/>
<path d="M68.487 15.2965L65.4102 19.5204V19.9408H69.5348V19.3248H66.3437L69.4015 15.0911V14.6805H65.5721V15.2965H68.487Z" fill="#002163"/>
<path d="M70.0861 12.6074C70.0861 12.4608 70.1337 12.3435 70.2289 12.2457C70.3242 12.148 70.4384 12.0893 70.5908 12.0893C70.7242 12.0893 70.848 12.1382 70.9432 12.2457C71.0385 12.3435 71.0861 12.4608 71.0861 12.6074C71.0861 12.7541 71.0385 12.8714 70.9432 12.9692C70.848 13.0669 70.7242 13.1158 70.5908 13.1158C70.448 13.1158 70.3337 13.0669 70.2289 12.9692C70.1337 12.8616 70.0861 12.7443 70.0861 12.6074Z" fill="#002163"/>
<path d="M70.248 14.68H70.9147V19.9396H70.248V14.68Z" fill="#002163"/>
<path d="M72.225 16.022C72.2271 16.0747 72.2291 16.1226 72.2291 16.1666L72.2195 19.9407H72.8863V17.3106C72.8958 16.9488 72.9339 16.6261 73.0292 16.3621C73.1245 16.0884 73.2483 15.8635 73.4007 15.6875C73.5626 15.5115 73.7532 15.3844 73.9722 15.2964C74.1913 15.2084 74.4199 15.1693 74.6676 15.1693C74.9343 15.1693 75.1534 15.2182 75.3249 15.3159C75.4964 15.4137 75.6202 15.5311 75.7154 15.6973C75.8107 15.8635 75.8679 16.0493 75.906 16.2448C75.9441 16.4501 75.9631 16.6457 75.9631 16.8608V19.9603H76.6204V16.8315C76.6204 16.5479 76.5918 16.2644 76.5442 15.9906C76.4775 15.7168 76.3822 15.4822 76.2394 15.2671C76.0965 15.052 75.906 14.8857 75.6488 14.7586C75.4011 14.6315 75.0772 14.5631 74.6771 14.5631C74.258 14.5631 73.9056 14.6608 73.5912 14.8662C73.2864 15.0813 73.0578 15.3257 72.9244 15.619H72.8958C72.8863 15.5604 72.8673 15.4431 72.8673 15.2671C72.8673 15.0813 72.8577 14.8857 72.8482 14.6902H72.1814C72.1814 14.7684 72.1814 14.8564 72.1909 14.9835C72.1909 15.0388 72.1931 15.0985 72.1953 15.1615C72.1978 15.232 72.2005 15.307 72.2005 15.3844C72.2052 15.4528 72.2076 15.5237 72.21 15.5946C72.2124 15.6655 72.2148 15.7364 72.2195 15.8048C72.2195 15.8856 72.2224 15.9574 72.225 16.022Z" fill="#002163"/>
<path fill-rule="evenodd" clip-rule="evenodd" d="M82.744 19.6077C82.744 20.2529 82.6487 20.7906 82.4582 21.1914C82.2773 21.5923 82.0392 21.9051 81.7725 22.13C81.4868 22.345 81.1915 22.5015 80.8772 22.5699C80.5629 22.6383 80.2676 22.6774 80.0105 22.6774C79.7533 22.6774 79.4962 22.6481 79.2485 22.5992C79.0009 22.5503 78.7723 22.4819 78.5437 22.3939C78.3247 22.2962 78.1247 22.1788 77.9437 22.042C77.7627 21.9051 77.6104 21.7487 77.4675 21.5825L77.9913 21.0741C78.2294 21.4163 78.5152 21.6705 78.8676 21.8269C79.2295 21.9931 79.6009 22.0713 80.001 22.0713C80.3343 22.0713 80.6296 22.0224 80.8582 21.9344C81.0963 21.8464 81.2867 21.7291 81.4391 21.5825C81.5915 21.4358 81.7058 21.2697 81.7915 21.0937C81.8773 20.9177 81.9439 20.7417 81.982 20.556C82.0201 20.38 82.0487 20.2138 82.0582 20.0476C82.0582 19.9623 82.0611 19.8857 82.0636 19.8163C82.0658 19.7586 82.0677 19.7053 82.0677 19.6566V18.9331H82.0487C81.8582 19.2558 81.601 19.5002 81.2677 19.6859C80.9343 19.8619 80.5534 19.9596 80.1057 19.9596C79.7343 19.9596 79.3819 19.8912 79.039 19.7446C78.7057 19.6077 78.4199 19.4122 78.1723 19.1678C77.9247 18.9234 77.7342 18.6399 77.5818 18.3075C77.4389 17.9848 77.3723 17.6329 77.3723 17.2614C77.3723 16.8899 77.4484 16.5477 77.5913 16.2154C77.7342 15.883 77.9342 15.5995 78.1818 15.3648C78.4295 15.1204 78.7152 14.9249 79.0485 14.788C79.3819 14.6414 79.7438 14.573 80.1153 14.573C80.5629 14.573 80.9439 14.6609 81.2677 14.8467C81.601 15.0324 81.8582 15.2768 82.0487 15.5995H82.0677V14.7098H82.7344L82.744 19.6077ZM82.1058 17.2516C82.1058 16.9583 82.0487 16.6944 81.9439 16.4402C81.8392 16.186 81.6963 15.9612 81.5153 15.7754C81.3344 15.5897 81.1248 15.443 80.8677 15.3355C80.62 15.228 80.3629 15.1693 80.0772 15.1693C79.7914 15.1693 79.5247 15.228 79.2866 15.3355C79.039 15.443 78.8295 15.5897 78.639 15.7754C78.458 15.9612 78.3152 16.186 78.2104 16.4402C78.1056 16.6944 78.0485 16.9583 78.0485 17.2516C78.0485 17.5351 78.1056 17.8089 78.2104 18.0631C78.3152 18.3172 78.458 18.5421 78.639 18.7278C78.8199 18.9136 79.0295 19.0602 79.2866 19.1775C79.5343 19.2851 79.8009 19.3437 80.0772 19.3437C80.3534 19.3437 80.6105 19.2851 80.8677 19.1775C81.1153 19.07 81.3344 18.9234 81.5153 18.7376C81.6963 18.5519 81.8392 18.3368 81.9439 18.0728C82.0487 17.8089 82.1058 17.5449 82.1058 17.2516Z" fill="#002163"/>
<path fill-rule="evenodd" clip-rule="evenodd" d="M98.7065 18.9728C98.4493 19.3736 98.1254 19.6572 97.7444 19.8332C97.3634 19.9994 96.9442 20.0874 96.487 20.0874C96.0965 20.0874 95.744 20.019 95.4201 19.8821C95.0963 19.7452 94.8295 19.5496 94.6009 19.3052C94.3723 19.0607 94.2009 18.7674 94.077 18.4252C93.9627 18.083 93.896 17.7114 93.896 17.3008C93.896 16.9097 93.9627 16.5479 94.0865 16.2155C94.2199 15.883 94.3914 15.5897 94.62 15.3453C94.8486 15.1008 95.1153 14.9053 95.4297 14.7684C95.744 14.6315 96.0869 14.5631 96.4584 14.5631C96.849 14.5631 97.2014 14.6315 97.4967 14.7684C97.792 14.9053 98.0492 15.0911 98.2397 15.3257C98.4493 15.5604 98.6017 15.8244 98.697 16.1177C98.8018 16.411 98.8494 16.7141 98.8494 17.0172V17.4963H94.5438C94.5438 17.6332 94.5723 17.819 94.6295 18.0439C94.6867 18.2688 94.7819 18.4839 94.9343 18.699C95.0772 18.9141 95.2773 19.0999 95.5249 19.2465C95.7726 19.403 96.0965 19.4714 96.487 19.4714C96.8299 19.4714 97.1538 19.3834 97.4682 19.2172C97.7825 19.051 98.0302 18.8261 98.2016 18.5328L98.7065 18.9728ZM98.1921 16.8901C98.1921 16.6555 98.1445 16.4306 98.0492 16.2253C97.9635 16.0199 97.8397 15.8439 97.6777 15.6777C97.5158 15.5213 97.3348 15.4039 97.1062 15.3159C96.8871 15.2182 96.6585 15.1791 96.4108 15.1791C96.0488 15.1791 95.744 15.2573 95.5059 15.4039C95.2677 15.5506 95.0772 15.7266 94.9343 15.9222C94.7914 16.1177 94.6962 16.3133 94.6295 16.499C94.5723 16.6848 94.5438 16.8119 94.5438 16.8804L98.1921 16.8901Z" fill="#002163"/>
<path d="M99.6533 16.0417C99.6554 16.0944 99.6574 16.1422 99.6574 16.1862V19.9701H100.324V17.3399C100.334 16.9781 100.381 16.6555 100.467 16.3915C100.562 16.1177 100.686 15.8928 100.839 15.7168C100.991 15.5408 101.191 15.4137 101.401 15.3257C101.62 15.2377 101.848 15.1986 102.096 15.1986C102.363 15.1986 102.572 15.2475 102.744 15.3355C102.915 15.4333 103.039 15.5506 103.134 15.7168C103.229 15.8831 103.296 16.0688 103.334 16.2644C103.372 16.4697 103.391 16.6653 103.391 16.8804V19.9799H104.058V16.851C104.058 16.5675 104.03 16.2839 103.972 16.0102C103.906 15.7364 103.811 15.5017 103.668 15.2866C103.525 15.0715 103.325 14.9053 103.077 14.7782C102.82 14.6511 102.496 14.5826 102.096 14.5826C101.677 14.5826 101.315 14.6804 101.01 14.8857C100.686 15.1009 100.467 15.3453 100.334 15.6386H100.305C100.286 15.58 100.277 15.4626 100.277 15.2866C100.277 15.1951 100.274 15.1012 100.272 15.0061C100.269 14.9083 100.267 14.8088 100.267 14.7098H99.6002C99.6002 14.788 99.6002 14.876 99.6097 15.0031C99.6193 15.1204 99.6288 15.2573 99.6288 15.404C99.6335 15.4724 99.6359 15.5433 99.6383 15.6142C99.6407 15.6851 99.6431 15.7559 99.6478 15.8244C99.6478 15.9051 99.6507 15.9771 99.6533 16.0417Z" fill="#002163"/>
<path fill-rule="evenodd" clip-rule="evenodd" d="M104.811 17.34C104.811 16.9391 104.877 16.5676 105.011 16.2254C105.144 15.8929 105.335 15.5996 105.563 15.3552C105.801 15.1009 106.087 14.9152 106.411 14.7783C106.744 14.6414 107.106 14.573 107.497 14.573C107.887 14.573 108.249 14.6414 108.583 14.7783C108.907 14.9152 109.192 15.1009 109.431 15.3552C109.669 15.5996 109.859 15.8929 109.993 16.2254C110.126 16.5676 110.193 16.9391 110.193 17.34C110.193 17.7409 110.126 18.1124 109.993 18.4449C109.859 18.7871 109.669 19.0804 109.431 19.3249C109.192 19.5693 108.907 19.7648 108.583 19.9017C108.249 20.0386 107.887 20.1071 107.497 20.1071C107.106 20.1071 106.744 20.0386 106.411 19.9017C106.087 19.7648 105.801 19.5693 105.563 19.3249C105.325 19.0804 105.144 18.7871 105.011 18.4449C104.877 18.1124 104.811 17.7409 104.811 17.34ZM105.477 17.34C105.477 17.6333 105.525 17.9169 105.62 18.1711C105.716 18.4351 105.839 18.6698 106.02 18.8555C106.201 19.0511 106.411 19.2075 106.668 19.3249C106.925 19.4422 107.202 19.5009 107.506 19.5009C107.821 19.5009 108.097 19.4422 108.345 19.3346C108.602 19.2173 108.811 19.0609 108.992 18.8653C109.164 18.6795 109.307 18.4449 109.402 18.1809C109.497 17.9267 109.545 17.6431 109.545 17.3498C109.545 17.0565 109.497 16.7729 109.402 16.5089C109.307 16.2449 109.173 16.02 109.002 15.8245C108.821 15.6289 108.611 15.4725 108.354 15.3649C108.106 15.2476 107.83 15.1889 107.516 15.1889C107.202 15.1889 106.925 15.2476 106.678 15.3552C106.42 15.4627 106.211 15.6192 106.03 15.8147C105.849 16.0103 105.725 16.2351 105.63 16.4991C105.525 16.7631 105.477 17.0467 105.477 17.34Z" fill="#002163"/>
<path d="M111.15 16.0514C111.152 16.104 111.154 16.152 111.154 16.1958L111.125 19.9694H111.782V17.3396C111.782 16.9779 111.83 16.6553 111.925 16.3913C112.02 16.1176 112.144 15.8928 112.306 15.7168C112.458 15.5408 112.649 15.4137 112.868 15.3257C113.097 15.2378 113.325 15.1987 113.563 15.1987C113.925 15.2084 114.192 15.3551 114.363 15.6484C114.535 15.9416 114.621 16.3229 114.621 16.8117V19.9792H115.287V17.0268C115.287 16.8411 115.316 16.6358 115.363 16.4207C115.411 16.2154 115.497 16.0101 115.611 15.8341C115.725 15.6581 115.887 15.5017 116.087 15.3844C116.287 15.2671 116.544 15.2084 116.849 15.2084C117.116 15.2084 117.335 15.2573 117.497 15.3453C117.659 15.4431 117.792 15.5604 117.887 15.7266C117.973 15.8928 118.04 16.0785 118.078 16.274C118.116 16.4793 118.135 16.6749 118.135 16.8899V19.989H118.802V16.8606C118.802 16.5771 118.773 16.2936 118.716 16.0199C118.659 15.7461 118.564 15.5115 118.421 15.2964C118.287 15.0813 118.078 14.9151 117.83 14.7881C117.583 14.661 117.259 14.5925 116.859 14.5925C116.506 14.5925 116.163 14.6805 115.849 14.8663C115.525 15.0422 115.287 15.3355 115.125 15.7266C114.992 15.316 114.792 15.0325 114.516 14.8565C114.23 14.6805 113.925 14.5925 113.582 14.5925C113.163 14.5925 112.801 14.6903 112.497 14.8956C112.182 15.1107 111.963 15.3551 111.83 15.6484H111.801C111.782 15.5897 111.773 15.4724 111.773 15.2964C111.773 15.2049 111.77 15.111 111.768 15.0159C111.766 14.9182 111.763 14.8186 111.763 14.7196H111.097C111.097 14.7978 111.097 14.8858 111.106 15.0129C111.116 15.1302 111.125 15.2671 111.125 15.4137C111.13 15.4822 111.132 15.5531 111.135 15.624C111.137 15.6948 111.139 15.7657 111.144 15.8341C111.144 15.9148 111.147 15.9868 111.15 16.0514Z" fill="#002163"/>
<path d="M119.924 12.6466C119.924 12.4999 119.972 12.3826 120.067 12.2849C120.162 12.1871 120.277 12.1284 120.42 12.1284C120.562 12.1284 120.677 12.1871 120.782 12.2849C120.877 12.3826 120.924 12.4999 120.924 12.6466C120.924 12.7932 120.877 12.9105 120.782 13.0083C120.677 13.1061 120.562 13.1549 120.42 13.1549C120.277 13.1549 120.162 13.1061 120.067 13.0083C119.972 12.9105 119.924 12.7834 119.924 12.6466Z" fill="#002163"/>
<path d="M120.753 14.7289V19.9885H120.086V14.7289H120.753Z" fill="#002163"/>
<path d="M125.307 19.9016C125.621 19.7452 125.907 19.5203 126.164 19.2074L125.669 18.787C125.497 19.0119 125.297 19.1879 125.059 19.315C124.83 19.4421 124.564 19.5105 124.287 19.5105C123.983 19.5105 123.697 19.4519 123.449 19.3345C123.192 19.2172 122.982 19.0608 122.801 18.8652C122.63 18.6794 122.497 18.4448 122.401 18.1808C122.306 17.9266 122.259 17.643 122.259 17.3497C122.259 17.0466 122.306 16.7728 122.401 16.5088C122.487 16.2448 122.62 16.0199 122.801 15.8244C122.982 15.6288 123.202 15.4724 123.449 15.3648C123.697 15.2573 123.973 15.1986 124.287 15.1986C124.554 15.1986 124.802 15.2671 125.031 15.3844C125.259 15.5115 125.459 15.6875 125.659 15.9026L126.193 15.492C125.945 15.1986 125.659 14.9835 125.335 14.8173C125.011 14.6609 124.659 14.5826 124.287 14.5826C123.897 14.5826 123.535 14.6511 123.202 14.788C122.859 14.9249 122.582 15.1106 122.344 15.3648C122.097 15.6093 121.916 15.9026 121.782 16.235C121.649 16.5773 121.582 16.9488 121.582 17.3497C121.582 17.7506 121.649 18.1123 121.782 18.4546C121.916 18.7968 122.097 19.0901 122.335 19.3345C122.563 19.579 122.849 19.7745 123.183 19.9114C123.516 20.0483 123.878 20.1167 124.268 20.1167C124.64 20.1167 124.992 20.0483 125.307 19.9016Z" fill="#002163"/>
<path d="M127.191 18.6501C127.333 18.9337 127.543 19.1488 127.81 19.2857C128.086 19.4323 128.372 19.5105 128.677 19.5105C128.81 19.5105 128.953 19.4812 129.096 19.4421C129.229 19.3932 129.362 19.3346 129.467 19.2466C129.581 19.1683 129.667 19.0608 129.743 18.9434C129.82 18.8261 129.848 18.6892 129.848 18.5426C129.848 18.2981 129.772 18.1124 129.62 17.995C129.467 17.8777 129.277 17.7799 129.058 17.7115C128.838 17.643 128.6 17.5844 128.334 17.5355C128.067 17.4866 127.829 17.4084 127.6 17.3008C127.372 17.203 127.191 17.0564 127.038 16.8804C126.886 16.6946 126.81 16.4404 126.81 16.108C126.81 15.8537 126.867 15.6289 126.962 15.4431C127.067 15.2573 127.2 15.0911 127.372 14.964C127.533 14.8467 127.724 14.7489 127.934 14.6902C128.143 14.6315 128.353 14.6022 128.562 14.6022C128.981 14.6022 129.343 14.6804 129.658 14.8369C129.963 15.0031 130.201 15.2475 130.372 15.5897L129.772 15.9515C129.639 15.7071 129.486 15.5311 129.305 15.3942C129.115 15.2769 128.867 15.2084 128.562 15.2084C128.448 15.2084 128.324 15.228 128.191 15.2671C128.067 15.3062 127.953 15.3551 127.848 15.4235C127.753 15.4822 127.657 15.58 127.591 15.6875C127.524 15.7951 127.486 15.9124 127.486 16.0493C127.486 16.284 127.562 16.4599 127.714 16.5773C127.867 16.6848 128.048 16.7826 128.267 16.8413C128.496 16.8999 128.734 16.9586 129.01 17.0075C129.267 17.0564 129.515 17.1248 129.734 17.2324C129.953 17.3302 130.144 17.4768 130.296 17.6724C130.448 17.8679 130.525 18.1417 130.525 18.4937C130.525 18.7675 130.477 19.0021 130.372 19.2074C130.267 19.403 130.134 19.5692 129.963 19.7159C129.791 19.8528 129.591 19.9505 129.372 20.019C129.153 20.0874 128.915 20.1265 128.667 20.1265C128.229 20.1265 127.819 20.0385 127.457 19.8625C127.095 19.6865 126.81 19.4128 126.609 19.051L127.191 18.6501Z" fill="#002163"/>
<path d="M63.8866 12.2358C63.7913 12.3336 63.7437 12.4509 63.7437 12.5975C63.7437 12.7442 63.7913 12.8615 63.8866 12.9593C63.9818 13.057 64.0961 13.1059 64.239 13.1059C64.3723 13.1059 64.4961 13.057 64.5914 12.9593C64.6866 12.8615 64.7342 12.7442 64.7342 12.5975C64.7342 12.4509 64.6866 12.3336 64.5914 12.2358C64.4961 12.1381 64.3818 12.0794 64.239 12.0794C64.0961 12.0794 63.9818 12.1381 63.8866 12.2358Z" fill="#002163"/>
<path d="M64.5723 14.6799H63.9056V19.9395H64.5723V14.6799Z" fill="#002163"/>
<path d="M14.0502 8.22458C14.2026 9.35813 14.5837 10.8251 15.2028 11.5586C16.1363 12.6826 16.946 10.406 16.9651 9.18667C16.9841 7.84355 16.2887 6.64332 15.3362 6.46233C14.1931 6.25277 13.9264 7.31964 14.0502 8.22458Z" fill="#E50050"/>
<path d="M26.2966 38.7403C20.8298 33.9876 13.8964 33.2542 9.61068 32.5399C10.0012 30.6541 10.6107 28.6445 11.4964 26.5205C12.5821 23.9204 13.0774 22.3203 13.2202 20.9964C13.2488 20.7679 13.0107 20.444 12.7631 20.9298C12.3631 21.7393 10.6107 25.311 9.42972 27.3873C7.41065 27.1682 5.13444 27.3587 3.59156 27.873C3.7249 27.7016 4.09633 27.3777 4.28681 27.2158C6.1154 25.6824 11.4297 22.7489 17.8774 13.6817C18.0679 13.4151 18.1441 13.1293 18.0108 12.815L17.7822 12.2721C17.6584 12.0531 17.3631 11.9388 17.125 12.3102C16.6393 13.0722 15.5631 14.9961 13.4774 17.2629C13.4393 16.5962 13.1726 15.8628 13.0679 15.4533C12.5726 13.4722 11.4107 9.4339 13.8393 4.63363C14.9536 2.44304 15.106 1.90968 13.506 0.338161C12.9917 -0.176153 12.3345 -0.119007 11.9631 0.614367C10.7345 3.04307 9.21067 5.96704 10.8393 12.3007C11.4393 14.6247 12.944 17.7772 12.4393 18.3772C10.544 20.6155 8.08685 22.4251 4.94396 24.4919C2.05821 26.3872 0.391531 26.9872 0.0581937 28.5302C-0.218 29.835 0.382006 31.7589 4.2011 32.8447C5.22015 33.14 6.24874 33.3495 6.77255 33.4543C4.94396 40.7689 5.74397 46.0264 8.68686 51.0076C9.93449 53.1315 11.744 54.0459 13.6964 53.9982C14.4964 53.9792 14.8203 53.2839 14.3155 52.6077C13.925 52.0743 11.5917 49.4837 10.1631 45.0739C10.1059 44.8644 10.1154 44.6549 10.1726 44.4358V44.4263C11.9536 38.8069 15.8393 36.483 16.5822 36.083C16.8488 35.9687 17.0965 35.9973 17.3822 36.0925C18.8965 36.6259 20.4394 37.5878 21.5441 38.4355C22.5727 39.2355 22.5441 40.3594 21.1632 41.769C18.0584 44.9406 16.6298 47.2741 15.906 48.6456C15.4584 49.4932 15.2393 50.2171 15.3822 51.0076C15.5441 51.9219 16.1441 51.9505 16.7631 51.1409C18.8679 48.417 20.8394 46.0359 25.7061 42.7214C27.868 41.2356 27.6966 39.9499 26.2966 38.7403ZM7.22017 32.0732C5.62016 31.8161 4.42967 31.397 3.62014 30.5398C3.22966 30.1207 3.03918 29.635 3.09632 29.1207C4.42967 28.6826 6.20112 28.5873 8.69638 28.9873C8.26781 29.8731 7.6678 31.0732 7.22017 32.0732ZM13.9726 35.1496C13.8298 35.2829 13.706 35.4067 13.6107 35.502C10.9916 37.8164 9.86782 40.7309 9.43925 42.2071C8.99162 39.7784 8.87734 36.9592 9.39163 33.7686C10.4393 33.9114 11.8297 34.1781 13.3155 34.5781C13.4964 34.6258 13.6869 34.6734 13.8679 34.7305C13.8869 34.7305 13.8964 34.74 13.925 34.7496C14.1345 34.8258 14.1441 34.9782 13.9726 35.1496Z" fill="url(#paint0_linear)"/>
<defs>
<linearGradient id="paint0_linear" x1="13.7105" y1="2.34606" x2="13.6707" y2="52.0974" gradientUnits="userSpaceOnUse">
<stop stop-color="#8FC31F"/>
<stop offset="0.3118" stop-color="#41B580"/>
<stop offset="0.5069" stop-color="#00ADA9"/>
<stop offset="0.7239" stop-color="#006A91"/>
<stop offset="0.9134" stop-color="#003571"/>
<stop offset="1" stop-color="#002163"/>
</linearGradient>
</defs>
</svg>
