<svg width="171" height="64" viewBox="0 0 171 64" fill="none" xmlns="http://www.w3.org/2000/svg">
<path d="M16.6519 9.74763C16.8325 11.0911 17.2841 12.8297 18.018 13.699C19.1243 15.0312 20.084 12.333 20.1066 10.8879C20.1291 9.29604 19.305 7.87354 18.176 7.65904C16.8213 7.41067 16.5051 8.67511 16.6519 9.74763Z" fill="#E50050"/>
<path d="M31.1663 45.9144C24.6872 40.2816 16.4699 39.4124 11.3904 38.5658C11.8532 36.3308 12.5756 33.949 13.6254 31.4318C14.9122 28.3501 15.4991 26.4537 15.6684 24.8847C15.7023 24.6138 15.4201 24.23 15.1266 24.8056C14.6525 25.7651 12.5756 29.9982 11.176 32.459C8.783 32.1993 6.08526 32.4251 4.25667 33.0347C4.4147 32.8315 4.85491 32.4477 5.08066 32.2558C7.24788 30.4384 13.5464 26.9617 21.1881 16.2154C21.4138 15.8993 21.5041 15.5607 21.3461 15.1882L21.0752 14.5448C20.9285 14.2851 20.5785 14.1497 20.2963 14.5899C19.7207 15.493 18.4452 17.7732 15.9732 20.4597C15.928 19.6696 15.612 18.8004 15.4878 18.315C14.9009 15.9671 13.5238 11.1809 16.4021 5.49171C17.7228 2.89545 17.9034 2.26332 16.0071 0.400784C15.3975 -0.208774 14.6187 -0.141045 14.1785 0.728138C12.7224 3.6066 10.9164 7.07205 12.8465 14.5786C13.5577 17.3329 15.3411 21.0693 14.7428 21.7804C12.4966 24.4331 9.58442 26.5779 5.85951 29.0274C2.43937 31.2737 0.464036 31.9849 0.0689703 33.8135C-0.25837 35.36 0.452748 37.6402 4.97908 38.9271C6.18685 39.277 7.40591 39.5253 8.02673 39.6495C5.85951 48.3187 6.80767 54.5498 10.2955 60.4535C11.7742 62.9707 13.9189 64.0544 16.2328 63.9979C17.181 63.9753 17.5647 63.1513 16.9665 62.3499C16.5037 61.7177 13.7383 58.6474 12.0451 53.421C11.9774 53.1726 11.9887 52.9243 12.0564 52.6647V52.6534C14.1672 45.9934 18.7725 43.2391 19.653 42.765C19.969 42.6296 20.2625 42.6634 20.6011 42.7763C22.3958 43.4084 24.2244 44.5485 25.5338 45.5532C26.7529 46.5014 26.719 47.8334 25.0823 49.504C21.4025 53.2629 19.7094 56.0285 18.8515 57.654C18.321 58.6586 18.0614 59.5165 18.2307 60.4535C18.4226 61.5371 19.1337 61.571 19.8674 60.6115C22.362 57.3831 24.6985 54.5611 30.4665 50.6328C33.0288 48.8719 32.8256 47.348 31.1663 45.9144ZM8.55724 38.0127C6.66093 37.7079 5.24998 37.2113 4.29053 36.1953C3.82774 35.6987 3.60199 35.123 3.66971 34.5134C5.24998 33.9942 7.34947 33.8813 10.3068 34.3554C9.79888 35.4052 9.08776 36.8275 8.55724 38.0127ZM16.5602 41.6588C16.3908 41.8168 16.2441 41.9636 16.1312 42.0764C13.0271 44.8194 11.6952 48.2736 11.1873 50.0233C10.6567 47.1448 10.5213 43.8035 11.1308 40.022C12.3725 40.1913 14.0204 40.5074 15.7813 40.9815C15.9958 41.0379 16.2215 41.0944 16.436 41.1621C16.4586 41.1621 16.4699 41.1734 16.5037 41.1847C16.752 41.275 16.7633 41.4556 16.5602 41.6588Z" fill="url(#paint0_linear)"/>
<path d="M154.955 38.9743C154.944 39.2475 154.933 39.4068 154.933 39.4068L143.43 39.3955C143.622 40.7955 145.191 42.5255 147.46 42.5255C149.052 42.5255 150.316 42.1044 151.467 41.2394C151.546 41.1825 151.953 40.8979 152.325 41.3532L154.018 43.3109C154.018 43.3109 151.851 45.9288 147.437 45.9288C142.493 45.9288 139.852 42.1158 139.852 37.745C139.852 33.4084 143.058 29.9938 147.279 30.0052C151.253 29.9938 155.26 32.6344 154.955 38.9743ZM151.467 36.1971C151.129 34.3759 149.718 33.1808 147.55 33.158C145.643 33.1466 143.916 34.2621 143.43 36.1857L151.467 36.1971Z" fill="#002163"/>
<path d="M130.438 52.6334C134.626 52.6334 138.261 49.105 138.272 45.0984C138.272 43.4822 138.272 38.622 138.272 38.622C138.283 38.0756 138.272 37.609 138.272 37.609C138.091 33.3634 134.66 29.9715 130.404 29.9715C126.036 29.9715 122.502 33.5342 122.491 37.9391C122.491 42.344 126.024 45.918 130.381 45.918C132.018 45.918 133.531 45.4285 134.795 44.5749V44.757C134.795 47.1814 132.842 49.1505 130.438 49.1391C129.095 49.1391 127.842 48.3537 126.927 47.3749C126.735 47.17 126.544 47.0448 126.205 47.2724C125.878 47.4887 123.789 48.9228 123.789 48.9228C125.776 52.0757 128.779 52.6334 130.438 52.6334ZM130.415 42.344C128.011 42.344 126.058 40.3748 126.058 37.9391C126.058 35.5147 128.011 33.5455 130.415 33.5455C132.82 33.5455 134.773 35.5147 134.773 37.9391C134.773 40.3748 132.82 42.344 130.415 42.344Z" fill="#002163"/>
<path d="M78.358 30.9836L78.3467 45.4504H74.8248V43.7772C73.6283 45.052 71.9464 45.7235 69.9032 45.7235C65.3315 45.7235 62.1483 42.4682 62.1483 37.8129C62.1483 33.1576 65.3428 29.9137 69.9145 29.9251C71.9464 29.9251 73.617 30.5852 74.8023 31.86C74.8023 31.86 75.4118 30.3121 76.8454 30.3121H77.6694C78.2338 30.3121 78.3693 30.5056 78.358 30.9836ZM70.287 33.2145C67.7924 33.2145 65.7605 35.2747 65.7605 37.8243C65.7605 40.3739 67.7924 42.4341 70.287 42.4341C72.793 42.4341 74.8248 40.3739 74.8248 37.8243C74.8248 35.2861 72.7817 33.2145 70.287 33.2145Z" fill="#002163"/>
<path d="M95.2102 30.8821L95.1989 45.4741H98.7547C98.7547 45.4741 98.7434 38.8269 98.7659 36.9716C98.7998 34.4789 100.188 33.5683 102.164 33.557C103.541 33.5456 104.444 34.1488 104.444 34.1488L106.543 31.2919C105.55 30.5862 104.173 30.0968 102.897 30.0968C101.475 30.0968 99.7367 30.4838 98.6869 31.5423C98.6869 31.5423 97.9645 30.313 96.5648 30.313H95.8198C95.4472 30.3244 95.2102 30.5179 95.2102 30.8821Z" fill="#002163"/>
<path d="M37.3383 30.8127L37.327 45.4274H40.9392L40.9505 36.5152C40.9505 34.455 42.4857 33.3851 43.987 33.3965C45.7367 33.3965 47.0235 34.7623 47.0235 36.5266L47.0122 45.4388H50.7824L50.7937 36.5266C50.7937 34.7623 52.0806 33.3965 53.8302 33.4079C55.5799 33.4079 56.8667 34.7737 56.8667 36.538L56.8554 45.4502H60.4902L60.5015 35.2745C60.5015 32.3493 57.8262 29.9591 54.5301 29.9591C52.3063 29.9591 50.297 31.029 49.2698 32.7477C48.3555 31.029 46.5945 29.9477 44.6304 29.9477C43.1743 29.9477 41.7858 30.5623 40.7925 31.6209C40.7812 31.4615 40.3184 30.2892 38.7945 30.2778H37.8801C37.4851 30.2778 37.3383 30.403 37.3383 30.8127Z" fill="#002163"/>
<path d="M157.132 31.007L157.121 45.4965H160.71L160.722 36.6184C160.722 34.5696 162.359 33.4883 163.894 33.4883C165.801 33.4883 167.054 34.7289 167.054 36.6184L167.043 45.4965H170.655L170.667 36.6184C170.667 30.2216 165.181 30.0395 164.548 30.0395C163.07 30.0395 161.647 30.6541 160.643 31.724C160.631 31.5761 160.338 30.3696 158.938 30.3696H157.776C157.347 30.381 157.132 30.5744 157.132 31.007Z" fill="#002163"/>
<path d="M113.214 29.9589C108.846 29.9589 105.301 33.5215 105.301 37.9264C105.301 42.3313 108.834 45.9053 113.203 45.9053C117.571 45.9053 121.105 42.3427 121.116 37.9378C121.116 33.5329 117.583 29.9589 113.214 29.9589ZM113.225 42.3313C110.821 42.3313 108.868 40.3622 108.868 37.9264C108.868 35.502 110.821 33.5329 113.225 33.5329C115.63 33.5329 117.583 35.502 117.583 37.9264C117.583 40.3622 115.63 42.3313 113.225 42.3313Z" fill="#002163"/>
<path d="M87.8849 45.86C83.5389 45.86 79.9945 42.286 79.9945 37.8925C79.9945 33.499 83.5389 29.9364 87.8961 29.9364C89.8941 29.9364 91.7905 30.6876 93.258 32.0648C93.3031 32.1104 93.6079 32.3722 93.258 32.7478C92.8968 33.1234 91.0117 34.8421 91.0117 34.8421L90.8198 34.66C90.0183 33.9201 88.9798 33.5218 87.9074 33.5218C85.5144 33.5218 83.5615 35.4795 83.5615 37.9039C83.5615 40.3169 85.5144 42.286 87.9074 42.286C88.9911 42.286 90.1876 41.8763 90.9891 41.1478C91.0568 41.0795 91.3277 40.8633 91.6551 41.1592L93.3709 43.0828L93.6418 43.3787C93.6418 43.3787 93.3596 43.6633 93.3144 43.7088C91.8244 45.0974 89.9054 45.86 87.8849 45.86Z" fill="#002163"/>
<path d="M37.3499 14.0512H38.2191V18.2571H43.4229V14.0512H44.2921L44.2808 23.5985H43.4116V19.0682H38.2078V23.5985H37.3386L37.3499 14.0512Z" fill="#002163"/>
<path d="M51.0984 21.8488C51.0984 21.9647 51.0984 22.1153 51.1096 22.2776C51.1209 22.4398 51.1209 22.602 51.1209 22.7874C51.1209 22.9613 51.1322 23.1119 51.1435 23.2626C51.1548 23.4132 51.1548 23.5291 51.1548 23.6102H50.3645C50.3532 23.3784 50.3532 23.1467 50.342 22.9381C50.342 22.7179 50.3307 22.5789 50.3081 22.5209H50.2742C50.1162 22.857 49.8565 23.1583 49.4839 23.4016C49.1114 23.645 48.6824 23.7724 48.1969 23.7724C47.7227 23.7724 47.3389 23.6913 47.0341 23.5407C46.7405 23.39 46.4922 23.193 46.3228 22.9381C46.1535 22.6947 46.0293 22.405 45.9728 22.0806C45.9051 21.7561 45.8825 21.4316 45.8825 21.0956V17.3873H46.6728V21.0608C46.6728 21.3042 46.6954 21.5591 46.7405 21.8024C46.7857 22.0342 46.8534 22.2544 46.9776 22.4398C47.0792 22.6252 47.2373 22.7759 47.4405 22.8917C47.6324 23.0076 47.8808 23.0656 48.2082 23.0656C48.4904 23.0656 48.7727 23.0076 49.0323 22.9033C49.292 22.799 49.5065 22.6484 49.6984 22.4282C49.8904 22.2196 50.0371 21.9531 50.15 21.6402C50.2629 21.3273 50.3194 20.9449 50.3194 20.5162V17.3989H51.1096L51.0984 21.8488Z" fill="#002163"/>
<path d="M52.6224 19.1369C52.6224 19.021 52.6111 18.882 52.6111 18.7082C52.6111 18.546 52.5998 18.3722 52.5998 18.21C52.5886 18.0362 52.5886 17.874 52.5773 17.7349C52.566 17.5843 52.566 17.4684 52.566 17.3873H53.3561C53.3674 17.6191 53.3674 17.8508 53.3787 18.0709C53.3787 18.2795 53.39 18.4185 53.4126 18.4881H53.4465C53.6158 18.1405 53.8754 17.8508 54.2366 17.6075C54.6091 17.3642 55.0381 17.2483 55.5235 17.2483C55.9298 17.2483 56.2911 17.3526 56.6184 17.5611C56.9458 17.7697 57.1941 18.1057 57.3409 18.5923C57.5327 18.1289 57.8262 17.7813 58.21 17.5727C58.5938 17.3526 58.9889 17.2483 59.4179 17.2483C59.892 17.2483 60.2758 17.3294 60.5692 17.48C60.874 17.6306 61.0998 17.8276 61.2691 18.0825C61.4384 18.3374 61.5513 18.6155 61.6303 18.9399C61.6981 19.2644 61.7206 19.6004 61.7206 19.9364V23.6441H60.9305V19.9711C60.9305 19.7162 60.9079 19.4845 60.8627 19.2412C60.8289 19.0095 60.7499 18.7893 60.637 18.5923C60.5354 18.3954 60.3661 18.2563 60.1742 18.1405C59.9823 18.0362 59.7226 17.9782 59.4066 17.9782C59.0341 17.9782 58.7406 18.0478 58.5035 18.1868C58.2665 18.3258 58.0746 18.4996 57.9391 18.7198C57.8037 18.9283 57.7134 19.1717 57.6456 19.415C57.5892 19.6699 57.5666 19.9132 57.5666 20.1334V23.6325H56.7764V19.8784C56.7764 19.2991 56.6749 18.8357 56.4717 18.4881C56.2685 18.1405 55.9411 17.9667 55.5235 17.9667C55.23 17.9667 54.9591 18.013 54.6994 18.1173C54.4398 18.2216 54.2253 18.3722 54.0334 18.5808C53.8528 18.8009 53.6948 19.0674 53.5819 19.3802C53.469 19.6931 53.4126 20.0754 53.4126 20.5041V23.6209H52.6337L52.6224 19.1369Z" fill="#002163"/>
<path d="M67.7925 21.0029C67.7925 21.3042 67.7925 21.5823 67.7925 21.8256C67.8038 22.069 67.8038 22.2892 67.8151 22.4978C67.8264 22.7063 67.8264 22.8918 67.8489 23.0772C67.8602 23.2626 67.8828 23.4364 67.9054 23.6218H67.1716C67.1151 23.3089 67.0925 22.9845 67.0925 22.6136H67.07C66.8442 23.0192 66.5619 23.3205 66.2232 23.5059C65.8845 23.7029 65.4555 23.7956 64.9475 23.7956C64.6765 23.7956 64.4282 23.7609 64.1685 23.6913C63.9088 23.6218 63.6831 23.5175 63.4798 23.3669C63.2766 23.2278 63.1186 23.0308 62.9831 22.799C62.8589 22.5557 62.7912 22.2892 62.7912 21.9531C62.7912 21.478 62.9041 21.0956 63.1411 20.8175C63.3782 20.5393 63.6718 20.3308 64.0217 20.1917C64.3717 20.0526 64.733 19.9599 65.1281 19.9252C65.512 19.8788 65.862 19.8556 66.1555 19.8556H67.07V19.4848C67.07 18.9402 66.9119 18.5578 66.5845 18.326C66.2684 18.0942 65.862 17.9783 65.3652 17.9783C64.6653 17.9783 64.0443 18.2101 63.5137 18.6736L63.0508 18.1174C63.3444 17.8277 63.6943 17.6075 64.1234 17.4569C64.5524 17.3178 64.9588 17.2367 65.3539 17.2367C66.0878 17.2367 66.6748 17.4105 67.1038 17.7698C67.5441 18.129 67.7586 18.6968 67.7586 19.4848L67.7925 21.0029ZM66.2119 20.493C65.8845 20.493 65.5571 20.5162 65.2523 20.5625C64.9362 20.6089 64.654 20.6784 64.4056 20.7943C64.1572 20.8986 63.954 21.0492 63.8072 21.223C63.6605 21.4085 63.5814 21.6286 63.5814 21.8952C63.5814 22.0806 63.6266 22.2544 63.7056 22.405C63.7847 22.5557 63.9088 22.6716 64.033 22.7759C64.1685 22.8686 64.304 22.9381 64.4733 22.9845C64.6314 23.0308 64.7894 23.054 64.9588 23.054C65.3765 23.054 65.7265 22.996 65.9974 22.8686C66.2684 22.7411 66.4829 22.5789 66.6409 22.3819C66.8103 22.1733 66.9119 21.9415 66.9796 21.6982C67.0361 21.4432 67.07 21.1767 67.07 20.9218V20.5046L66.2119 20.493Z" fill="#002163"/>
<path d="M69.2361 19.1488C69.2361 19.0329 69.2361 18.8938 69.2248 18.72C69.2135 18.5578 69.2135 18.3839 69.2022 18.2217C69.1909 18.0479 69.1909 17.8856 69.1797 17.7466C69.1684 17.5959 69.1684 17.4916 69.1684 17.3989H69.9586C69.9699 17.6307 69.9699 17.8625 69.9699 18.0826C69.9699 18.2912 69.9925 18.4303 70.0038 18.4998H70.0377C70.1957 18.1522 70.4554 17.8625 70.8279 17.6191C71.1892 17.3758 71.6295 17.2599 72.115 17.2599C72.5891 17.2599 72.973 17.341 73.2778 17.4916C73.5714 17.6423 73.8084 17.8393 73.9891 18.0942C74.1584 18.3492 74.2713 18.6273 74.339 18.9518C74.4068 19.2762 74.4407 19.6123 74.4407 19.9483V23.6566H73.6504V19.9831C73.6504 19.7282 73.6278 19.4964 73.5826 19.253C73.5375 19.0213 73.4697 18.8011 73.3568 18.6041C73.2439 18.4071 73.0972 18.2681 72.894 18.1522C72.6908 18.0479 72.4424 17.9899 72.1263 17.9899C71.844 17.9899 71.5731 18.0363 71.3021 18.1406C71.0425 18.2449 70.8279 18.3955 70.636 18.6041C70.4441 18.8127 70.2973 19.0792 70.1844 19.4037C70.0715 19.7166 70.0151 20.099 70.0151 20.5278V23.645H69.2248L69.2361 19.1488Z" fill="#002163"/>
<path d="M77.5227 23.1351L81.1693 18.129H77.7146V17.3989H82.2531V17.8856L78.6291 22.9033H82.4111V23.6334H77.5227V23.1351Z" fill="#002163"/>
<path d="M83.0645 14.9419C83.0645 14.7681 83.1209 14.6291 83.2338 14.5132C83.3467 14.3973 83.4821 14.3278 83.6627 14.3278C83.8208 14.3278 83.9675 14.3858 84.0804 14.5132C84.1933 14.6291 84.2497 14.7681 84.2497 14.9419C84.2497 15.1157 84.1933 15.2548 84.0804 15.3706C83.9675 15.4865 83.8208 15.5444 83.6627 15.5444C83.4934 15.5444 83.358 15.4865 83.2338 15.3706C83.1209 15.2432 83.0645 15.1041 83.0645 14.9419ZM83.2564 17.3983H84.0465V23.6319H83.2564V17.3983Z" fill="#002163"/>
<path d="M85.6043 19.1603C85.6043 19.0445 85.593 18.9054 85.593 18.7316C85.5817 18.5693 85.5817 18.3955 85.5704 18.2333C85.5704 18.0595 85.5591 17.8972 85.5591 17.7582C85.5478 17.6075 85.5478 17.5032 85.5478 17.4105H86.3381C86.3494 17.6423 86.3607 17.8741 86.3607 18.0942C86.3607 18.3028 86.3833 18.4419 86.3946 18.5114H86.4284C86.5865 18.1638 86.8574 17.8741 87.2187 17.6191C87.5913 17.3758 88.009 17.2599 88.5057 17.2599C88.9799 17.2599 89.3637 17.341 89.6573 17.4916C89.9621 17.6423 90.1879 17.8393 90.3572 18.0942C90.5266 18.3492 90.6395 18.6273 90.7185 18.9518C90.775 19.2762 90.8088 19.6123 90.8088 19.9483V23.6566H90.0298V19.9831C90.0298 19.7282 90.0073 19.4964 89.9621 19.253C89.9169 19.0213 89.8492 18.8011 89.7363 18.6041C89.6234 18.4071 89.4766 18.2681 89.2734 18.1522C89.0702 18.0363 88.8105 17.9783 88.4944 17.9783C88.2009 17.9783 87.93 18.0247 87.6703 18.129C87.4106 18.2333 87.1848 18.3839 86.9929 18.5925C86.8123 18.8011 86.6655 19.0676 86.5526 19.3921C86.4397 19.705 86.3946 20.0874 86.3833 20.5162V23.6334H85.593L85.6043 19.1603Z" fill="#002163"/>
<path d="M98.0665 23.2386C98.0665 24.0033 97.9536 24.6405 97.7279 25.1156C97.5134 25.5906 97.2312 25.9614 96.9151 26.2279C96.5765 26.4828 96.2265 26.6682 95.854 26.7493C95.4815 26.8304 95.1316 26.8768 94.8268 26.8768C94.522 26.8768 94.2173 26.842 93.9238 26.7841C93.6303 26.7261 93.3594 26.645 93.0884 26.5407C92.8288 26.4249 92.5918 26.2858 92.3773 26.1236C92.1628 25.9614 91.9822 25.776 91.8129 25.5791L92.4337 24.9766C92.7159 25.3821 93.0546 25.6833 93.4722 25.8687C93.9012 26.0657 94.3414 26.1584 94.8155 26.1584C95.2106 26.1584 95.5605 26.1005 95.8315 25.9962C96.1137 25.8919 96.3394 25.7529 96.52 25.5791C96.7006 25.4053 96.8361 25.2083 96.9377 24.9997C97.0393 24.7912 97.1183 24.5826 97.1634 24.3625C97.2086 24.1539 97.2425 23.9569 97.2538 23.76C97.2538 23.5746 97.265 23.4239 97.265 23.2965V22.4391H97.2425C97.0167 22.8214 96.7119 23.1111 96.3168 23.3313C95.9218 23.5398 95.4702 23.6557 94.9397 23.6557C94.4995 23.6557 94.0818 23.5746 93.6754 23.4008C93.2803 23.2386 92.9417 23.0068 92.6482 22.7172C92.3547 22.4275 92.129 22.0915 91.9483 21.6975C91.779 21.3152 91.7 20.8981 91.7 20.4578C91.7 20.0175 91.7903 19.612 91.9596 19.218C92.129 18.8241 92.366 18.4881 92.6595 18.21C92.953 17.9203 93.2916 17.6886 93.6867 17.5264C94.0818 17.3526 94.5107 17.2715 94.951 17.2715C95.4815 17.2715 95.933 17.3757 96.3168 17.5959C96.7119 17.816 97.0167 18.1057 97.2425 18.4881H97.265V17.4337H98.0552L98.0665 23.2386ZM97.3102 20.4462C97.3102 20.0986 97.2425 19.7858 97.1183 19.4845C96.9941 19.1833 96.8248 18.9168 96.6103 18.6966C96.3959 18.4765 96.1475 18.3027 95.8427 18.1752C95.5493 18.0478 95.2445 17.9782 94.9058 17.9782C94.5672 17.9782 94.2511 18.0478 93.9689 18.1752C93.6754 18.3027 93.4271 18.4765 93.2013 18.6966C92.9869 18.9168 92.8175 19.1833 92.6934 19.4845C92.5692 19.7858 92.5015 20.0986 92.5015 20.4462C92.5015 20.7822 92.5692 21.1066 92.6934 21.4079C92.8175 21.7091 92.9869 21.9756 93.2013 22.1958C93.4158 22.4159 93.6641 22.5897 93.9689 22.7288C94.2624 22.8562 94.5785 22.9257 94.9058 22.9257C95.2332 22.9257 95.538 22.8562 95.8427 22.7288C96.1362 22.6013 96.3959 22.4275 96.6103 22.2074C96.8248 21.9872 96.9941 21.7323 97.1183 21.4195C97.2425 21.1066 97.3102 20.7938 97.3102 20.4462Z" fill="#002163"/>
<path d="M109.986 23.03C109.455 23.3428 108.891 23.563 108.304 23.6904C107.728 23.8179 107.13 23.8874 106.532 23.8874C105.821 23.8874 105.177 23.7599 104.579 23.5166C103.992 23.2617 103.484 22.9257 103.055 22.4738C102.637 22.0335 102.31 21.5006 102.073 20.8865C101.836 20.2724 101.723 19.6004 101.723 18.8704C101.723 18.152 101.836 17.4684 102.084 16.8659C102.321 16.2518 102.649 15.7304 103.066 15.2786C103.495 14.8383 103.992 14.4907 104.59 14.2358C105.189 13.9809 105.832 13.865 106.543 13.865C107.92 13.865 109.038 14.3053 109.896 15.1859L109.264 15.8695C109.128 15.6957 108.948 15.5335 108.744 15.3828C108.541 15.2438 108.315 15.1163 108.078 15.0121C107.841 14.9078 107.593 14.8267 107.322 14.7687C107.062 14.7108 106.803 14.6761 106.543 14.6761C105.945 14.6761 105.392 14.7919 104.906 15.0121C104.421 15.2206 104.015 15.5219 103.665 15.9042C103.326 16.275 103.066 16.7269 102.875 17.2367C102.694 17.7465 102.592 18.3027 102.592 18.8936C102.592 19.4845 102.683 20.0406 102.875 20.5505C103.055 21.0603 103.326 21.5121 103.665 21.8829C104.003 22.2537 104.421 22.5549 104.906 22.7635C105.392 22.9836 105.945 23.0879 106.543 23.0879C107.04 23.0879 107.514 23.0416 107.943 22.9721C108.383 22.8909 108.778 22.7403 109.139 22.5318V19.3223H106.904V18.5112H109.997L109.986 23.03Z" fill="#002163"/>
<path d="M116.985 22.4862C116.68 22.9613 116.296 23.2973 115.845 23.5059C115.393 23.7029 114.896 23.8072 114.355 23.8072C113.892 23.8072 113.474 23.7261 113.09 23.5639C112.706 23.4016 112.39 23.1699 112.119 22.8802C111.848 22.5905 111.645 22.2428 111.498 21.8372C111.363 21.4316 111.284 20.9913 111.284 20.5046C111.284 20.041 111.363 19.6123 111.51 19.2183C111.668 18.8243 111.871 18.4766 112.142 18.1869C112.413 17.8972 112.729 17.6655 113.101 17.5032C113.474 17.341 113.88 17.2599 114.321 17.2599C114.784 17.2599 115.201 17.341 115.551 17.5032C115.901 17.6655 116.206 17.8856 116.432 18.1638C116.68 18.4419 116.861 18.7548 116.974 19.1024C117.098 19.45 117.154 19.8093 117.154 20.1685V20.7363H112.051C112.051 20.8986 112.085 21.1188 112.153 21.3853C112.221 21.6518 112.334 21.9068 112.514 22.1617C112.684 22.4166 112.921 22.6368 113.214 22.8106C113.508 22.996 113.892 23.0772 114.355 23.0772C114.761 23.0772 115.145 22.9729 115.517 22.7759C115.89 22.5789 116.183 22.3123 116.387 21.9647L116.985 22.4862ZM116.375 20.0179C116.375 19.7398 116.319 19.4732 116.206 19.2299C116.104 18.9865 115.958 18.7779 115.766 18.5809C115.574 18.3955 115.359 18.2565 115.088 18.1522C114.829 18.0363 114.558 17.9899 114.264 17.9899C113.835 17.9899 113.474 18.0826 113.192 18.2565C112.909 18.4303 112.684 18.6389 112.514 18.8706C112.345 19.1024 112.232 19.3342 112.153 19.5543C112.085 19.7745 112.051 19.9252 112.051 20.0063L116.375 20.0179Z" fill="#002163"/>
<path d="M118.112 19.1835C118.112 19.0676 118.101 18.9286 118.101 18.7548C118.089 18.5925 118.089 18.4187 118.078 18.2565C118.078 18.0826 118.067 17.9204 118.056 17.7813C118.044 17.6307 118.044 17.5264 118.044 17.4337H118.835C118.835 17.6655 118.846 17.8972 118.846 18.1174C118.846 18.326 118.857 18.4651 118.88 18.5346H118.914C119.072 18.1869 119.331 17.8972 119.715 17.6423C120.076 17.3989 120.505 17.2831 121.002 17.2831C121.476 17.2831 121.86 17.3642 122.165 17.5148C122.459 17.6655 122.696 17.8625 122.865 18.1174C123.034 18.3723 123.147 18.6505 123.226 18.9749C123.294 19.2994 123.328 19.6355 123.328 19.9715V23.6798H122.538V20.0063C122.538 19.7513 122.515 19.5196 122.47 19.2762C122.425 19.0445 122.346 18.8243 122.233 18.6273C122.12 18.4303 121.973 18.2912 121.77 18.1753C121.567 18.0711 121.318 18.0131 121.002 18.0131C120.709 18.0131 120.438 18.0595 120.178 18.1638C119.93 18.2681 119.693 18.4187 119.512 18.6273C119.331 18.8359 119.185 19.1024 119.072 19.4269C118.97 19.7398 118.914 20.1222 118.902 20.5509V23.6682H118.112V19.1835Z" fill="#002163"/>
<path d="M124.219 20.5509C124.219 20.0758 124.298 19.6355 124.456 19.2299C124.615 18.8359 124.84 18.4882 125.111 18.1985C125.393 17.8972 125.732 17.6771 126.116 17.5148C126.511 17.3526 126.94 17.2715 127.403 17.2715C127.866 17.2715 128.295 17.3526 128.69 17.5148C129.074 17.6771 129.413 17.8972 129.695 18.1985C129.977 18.4882 130.203 18.8359 130.361 19.2299C130.519 19.6355 130.598 20.0758 130.598 20.5509C130.598 21.026 130.519 21.4664 130.361 21.8604C130.203 22.266 129.977 22.6136 129.695 22.9033C129.413 23.193 129.074 23.4248 128.69 23.587C128.295 23.7493 127.866 23.8304 127.403 23.8304C126.94 23.8304 126.511 23.7493 126.116 23.587C125.732 23.4248 125.393 23.193 125.111 22.9033C124.829 22.6136 124.615 22.266 124.456 21.8604C124.298 21.4664 124.219 21.026 124.219 20.5509ZM125.01 20.5509C125.01 20.8986 125.066 21.2346 125.179 21.5359C125.292 21.8488 125.439 22.1269 125.653 22.3471C125.868 22.5789 126.116 22.7643 126.421 22.9033C126.726 23.0424 127.053 23.1119 127.414 23.1119C127.787 23.1119 128.114 23.0424 128.408 22.9149C128.713 22.7759 128.961 22.5905 129.176 22.3587C129.379 22.1385 129.548 21.8604 129.661 21.5475C129.774 21.2462 129.83 20.9102 129.83 20.5625C129.83 20.2149 129.774 19.8788 129.661 19.5659C129.548 19.2531 129.39 18.9865 129.187 18.7548C128.972 18.523 128.724 18.3376 128.419 18.2101C128.126 18.0711 127.798 18.0015 127.426 18.0015C127.053 18.0015 126.726 18.0711 126.432 18.1985C126.127 18.326 125.879 18.5114 125.664 18.7432C125.45 18.9749 125.303 19.2415 125.19 19.5543C125.066 19.8672 125.01 20.2033 125.01 20.5509Z" fill="#002163"/>
<path d="M131.737 19.1948C131.737 19.079 131.726 18.9399 131.726 18.7661C131.715 18.6039 131.715 18.4301 131.703 18.2679C131.703 18.0941 131.692 17.9319 131.681 17.7929C131.67 17.6422 131.67 17.538 131.67 17.4453H132.46C132.46 17.677 132.471 17.9087 132.471 18.1289C132.471 18.3374 132.482 18.4765 132.505 18.546H132.539C132.697 18.1984 132.956 17.9087 133.329 17.6538C133.69 17.4105 134.119 17.2946 134.616 17.2946C135.022 17.2946 135.383 17.3989 135.722 17.6075C136.049 17.816 136.286 18.1521 136.444 18.6387C136.636 18.1752 136.918 17.8276 137.302 17.6191C137.675 17.3989 138.081 17.2946 138.499 17.2946C138.973 17.2946 139.357 17.3757 139.65 17.5264C139.944 17.677 140.192 17.874 140.35 18.1289C140.519 18.3838 140.632 18.6619 140.7 18.9863C140.768 19.3107 140.802 19.6467 140.802 19.9827V23.6904H140.011V20.0175C140.011 19.7626 139.989 19.5309 139.944 19.2875C139.899 19.0558 139.82 18.8357 139.718 18.6387C139.605 18.4417 139.447 18.3027 139.255 18.1868C139.063 18.0825 138.804 18.0246 138.488 18.0246C138.126 18.0246 137.822 18.0941 137.584 18.2332C137.347 18.3722 137.156 18.5576 137.02 18.7661C136.885 18.9747 136.783 19.218 136.727 19.4613C136.67 19.7162 136.636 19.9596 136.636 20.1797V23.6789H135.846V19.9248C135.846 19.3455 135.745 18.8936 135.541 18.546C135.338 18.1984 135.022 18.0246 134.593 18.013C134.311 18.013 134.04 18.0594 133.769 18.1636C133.509 18.2679 133.284 18.4185 133.103 18.6271C132.911 18.8357 132.764 19.1022 132.652 19.4266C132.539 19.7394 132.482 20.1218 132.482 20.5505V23.6673H131.703L131.737 19.1948Z" fill="#002163"/>
<path d="M142.132 14.9883C142.132 14.8145 142.189 14.6754 142.302 14.5595C142.414 14.4437 142.55 14.3742 142.719 14.3742C142.888 14.3742 143.024 14.4437 143.148 14.5595C143.261 14.6754 143.317 14.8145 143.317 14.9883C143.317 15.1621 143.261 15.3011 143.148 15.417C143.024 15.5328 142.888 15.5908 142.719 15.5908C142.55 15.5908 142.414 15.5328 142.302 15.417C142.189 15.3011 142.132 15.1505 142.132 14.9883ZM142.324 17.4562H143.114V23.6898H142.324V17.4562Z" fill="#002163"/>
<path d="M149.527 22.7643C149.222 23.1351 148.884 23.4016 148.511 23.587C148.139 23.7609 147.721 23.842 147.281 23.842C146.818 23.842 146.389 23.7609 145.993 23.5986C145.598 23.4364 145.26 23.2046 144.989 22.9149C144.706 22.6252 144.492 22.2776 144.334 21.872C144.176 21.4664 144.097 21.0376 144.097 20.5625C144.097 20.0874 144.176 19.6471 144.334 19.2415C144.492 18.8475 144.706 18.4998 145 18.2101C145.282 17.9088 145.61 17.6886 146.016 17.5264C146.411 17.3642 146.84 17.2831 147.303 17.2831C147.743 17.2831 148.161 17.3758 148.545 17.5612C148.929 17.7582 149.268 18.0131 149.561 18.3608L148.929 18.8475C148.692 18.5925 148.455 18.3839 148.184 18.2333C147.913 18.0942 147.619 18.0131 147.303 18.0131C146.931 18.0131 146.603 18.0826 146.31 18.2101C146.016 18.3376 145.756 18.523 145.542 18.7548C145.327 18.9865 145.169 19.2531 145.068 19.5659C144.955 19.8788 144.898 20.2033 144.898 20.5625C144.898 20.9102 144.955 21.2462 145.068 21.5475C145.181 21.8604 145.339 22.1385 145.542 22.3587C145.756 22.5905 146.005 22.7759 146.31 22.9149C146.603 23.054 146.942 23.1235 147.303 23.1235C147.63 23.1235 147.947 23.0424 148.218 22.8918C148.5 22.7411 148.737 22.5325 148.94 22.266L149.527 22.7643Z" fill="#002163"/>
<path d="M150.744 22.1038C150.913 22.4398 151.162 22.6948 151.478 22.857C151.805 23.0308 152.144 23.1235 152.505 23.1235C152.663 23.1235 152.833 23.0888 153.002 23.0424C153.16 22.9845 153.318 22.9149 153.442 22.8106C153.578 22.7179 153.679 22.5905 153.77 22.4514C153.86 22.3123 153.894 22.1501 153.894 21.9763C153.894 21.6866 153.803 21.4664 153.623 21.3273C153.442 21.1883 153.216 21.0724 152.957 20.9913C152.697 20.9102 152.415 20.8406 152.099 20.7827C151.783 20.7248 151.5 20.6321 151.229 20.5046C150.958 20.3887 150.744 20.2149 150.563 20.0063C150.383 19.7861 150.292 19.4848 150.292 19.0908C150.292 18.7895 150.36 18.523 150.473 18.3028C150.597 18.0826 150.755 17.8856 150.958 17.735C151.15 17.5959 151.376 17.4801 151.625 17.4105C151.873 17.341 152.121 17.3062 152.37 17.3062C152.866 17.3062 153.295 17.3989 153.668 17.5843C154.029 17.7813 154.311 18.0711 154.515 18.4766L153.803 18.9054C153.645 18.6157 153.465 18.4071 153.25 18.2449C153.024 18.1058 152.731 18.0247 152.37 18.0247C152.234 18.0247 152.087 18.0479 151.929 18.0942C151.783 18.1406 151.647 18.1985 151.523 18.2796C151.41 18.3492 151.297 18.4651 151.218 18.5925C151.139 18.72 151.094 18.8591 151.094 19.0213C151.094 19.2994 151.184 19.508 151.365 19.6471C151.546 19.7745 151.76 19.8904 152.02 19.9599C152.291 20.0295 152.573 20.099 152.9 20.1569C153.205 20.2149 153.499 20.296 153.758 20.4235C154.018 20.5393 154.244 20.7132 154.424 20.9449C154.605 21.1767 154.695 21.5012 154.695 21.9183C154.695 22.2428 154.639 22.5209 154.515 22.7643C154.391 22.996 154.232 23.193 154.029 23.3669C153.826 23.5291 153.589 23.645 153.329 23.7261C153.07 23.8072 152.787 23.8536 152.494 23.8536C151.975 23.8536 151.489 23.7493 151.06 23.5407C150.631 23.3321 150.292 23.0076 150.055 22.5789L150.744 22.1038Z" fill="#002163"/>
<path d="M75.5477 14.9303C75.5477 14.7565 75.6041 14.6175 75.717 14.5016C75.8299 14.3858 75.9653 14.3162 76.1346 14.3162C76.304 14.3162 76.4394 14.3858 76.5523 14.5016C76.6652 14.6175 76.7216 14.7565 76.7216 14.9303C76.7216 15.1041 76.6652 15.2432 76.5523 15.359C76.4394 15.4749 76.2927 15.5328 76.1346 15.5328C75.9653 15.5328 75.8299 15.4749 75.717 15.359C75.6041 15.2432 75.5477 15.1041 75.5477 14.9303ZM75.7395 17.3983H76.5297V23.6319H75.7395V17.3983Z" fill="#002163"/>
<defs>
<linearGradient id="paint0_linear" x1="16.2494" y1="2.78051" x2="16.2023" y2="61.7451" gradientUnits="userSpaceOnUse">
<stop stop-color="#8FC31F"/>
<stop offset="0.3118" stop-color="#41B580"/>
<stop offset="0.5069" stop-color="#00ADA9"/>
<stop offset="0.7239" stop-color="#006A91"/>
<stop offset="0.9134" stop-color="#003571"/>
<stop offset="1" stop-color="#002163"/>
</linearGradient>
</defs>
</svg>
