<svg xmlns="http://www.w3.org/2000/svg" width="15.948" height="16.124" viewBox="0 0 15.948 16.124">
    <g>
        <g fill="none">
            <path d="M14.335 15.907l-2.312-2.332a7.233 7.233 0 0 1-9.857-.557 7.794 7.794 0 0 1 0-10.784 7.239 7.239 0 0 1 10.459 0 7.8 7.8 0 0 1 .744 9.89l2.363 2.384a.925.925 0 0 1-.108 1.292 1.065 1.065 0 0 1-.742.324.758.758 0 0 1-.547-.217z"/>
            <path fill="#000" d="M7.396 13.251c1.215 0 2.405-.432 3.35-1.216l.565-.468.427-.602c.765-1.076 1.133-2.41 1.039-3.754-.096-1.354-.66-2.628-1.588-3.585C10.173 2.578 8.825 2 7.396 2c-1.43 0-2.777.578-3.794 1.626-2.139 2.206-2.139 5.794 0 8 1.017 1.048 2.364 1.625 3.794 1.625m7.486 2.873c-.206 0-.402-.071-.547-.217l-2.312-2.332c-1.348 1.117-2.988 1.676-4.627 1.676-1.893 0-3.786-.744-5.23-2.233-2.888-2.978-2.888-7.806 0-10.784C3.61.744 5.503 0 7.396 0c1.892 0 3.785.745 5.23 2.234 2.613 2.695 2.861 6.906.743 9.89l2.363 2.383c.326.328.278.906-.108 1.293-.214.214-.486.324-.742.324z"/>
        </g>
    </g>
</svg>
