<svg width="305" height="152" viewBox="0 0 305 152" fill="none" xmlns="http://www.w3.org/2000/svg">
<g clip-path="url(#clip0_197_25118)">
<path d="M305.011 0H240.129C240.129 23.1615 230.897 45.3744 214.466 61.752C198.034 78.1297 175.748 87.3305 152.511 87.3305C129.273 87.3305 106.987 78.1297 90.5556 61.752C74.1241 45.3744 64.8929 23.1615 64.8929 0H0C0.33788 40.0932 16.5542 78.4297 45.1178 106.661C73.6815 134.893 112.279 150.734 152.505 150.734C192.732 150.734 231.329 134.893 259.893 106.661C288.457 78.4297 304.673 40.0932 305.011 0Z" fill="#47BDFF"/>
</g>
<g clip-path="url(#clip1_197_25118)">
<path d="M277.009 0H224.039C224.039 18.8949 216.503 37.0159 203.089 50.3767C189.674 63.7374 171.48 71.2433 152.509 71.2433C133.538 71.2433 115.344 63.7374 101.929 50.3767C88.5144 37.0159 80.9782 18.8949 80.9782 0H28C28.2758 32.7076 41.5148 63.9821 64.8339 87.0133C88.1531 110.045 119.664 122.967 152.504 122.967C185.345 122.967 216.856 110.045 240.175 87.0133C263.494 63.9821 276.733 32.7076 277.009 0Z" fill="#47BDFF"/>
</g>
<defs>
<clipPath id="clip0_197_25118">
<rect width="305" height="152" fill="white"/>
</clipPath>
<clipPath id="clip1_197_25118">
<rect width="249" height="124" fill="white" transform="translate(28)"/>
</clipPath>
</defs>
</svg>
