<svg width="24" height="24" viewBox="0 0 24 24" fill="none" xmlns="http://www.w3.org/2000/svg">
<path d="M2.82129 11.7857C2.82129 16.7366 6.8348 20.7501 11.7857 20.7501C13.2427 20.7501 14.8631 20.191 16.0536 19.595L19.1282 20.4735C19.9491 20.708 20.708 19.9491 20.4735 19.1282L19.595 16.0536C20.191 14.8631 20.7501 13.2427 20.7501 11.7857C20.7501 6.8348 16.7366 2.82129 11.7857 2.82129C6.8348 2.82129 2.82129 6.8348 2.82129 11.7857Z" stroke="#444444" stroke-width="1.5"/>
<circle cx="11.79" cy="11.79" r="6" fill="#2FCAB0"/>
<path d="M8.05371 13.5337C8.05371 13.5337 9.04698 16.0169 12.0268 16.0169C15.0066 16.0169 15.9998 13.5337 15.9998 13.5337" stroke="#444444" stroke-width="1.5" stroke-linecap="round"/>
</svg>
