<svg width="24" height="25" viewBox="0 0 24 25" fill="none" xmlns="http://www.w3.org/2000/svg">
<path d="M10 11.5V10.5C10 8.84315 11.3431 7.5 13 7.5V7.5H18.5H19C20.6569 7.5 22 8.84315 22 10.5V21.5C22 22.0523 21.5523 22.5 21 22.5H12" stroke="#444444" stroke-width="1.5" stroke-linecap="round"/>
<path d="M14.5 7.5H13V4.5C13 3.39543 13.8954 2.5 15 2.5H17C18.1046 2.5 19 3.39543 19 4.5V7.5H17.5" stroke="#444444" stroke-width="1.5"/>
<path d="M10.25 18.4444C10.25 20.0396 9.67844 21.0882 8.90723 21.7488C8.11666 22.426 7.05072 22.75 6 22.75C4.94928 22.75 3.88334 22.426 3.09277 21.7488C2.32156 21.0882 1.75 20.0396 1.75 18.4444C1.75 17.2887 2.39087 15.9386 3.29279 14.6434C4.17727 13.3732 5.23111 12.2702 5.88782 11.6306C5.92442 11.5949 5.96411 11.5821 6 11.5821C6.03589 11.5821 6.07558 11.5949 6.11218 11.6306C6.76889 12.2702 7.82273 13.3732 8.70721 14.6434C9.60913 15.9386 10.25 17.2887 10.25 18.4444Z" stroke="#444444" stroke-width="1.5"/>
</svg>
