<svg width="24" height="25" viewBox="0 0 24 25" fill="none" xmlns="http://www.w3.org/2000/svg">
<path d="M20.0349 5.58642C19.5707 5.08348 19.0195 4.68451 18.4128 4.41231C17.8061 4.1401 17.1558 4 16.4991 4C15.8424 4 15.1921 4.1401 14.5854 4.41231C13.9787 4.68451 13.4275 5.08348 12.9633 5.58642L11.9998 6.62971L11.0363 5.58642C10.0985 4.57099 8.82662 4.00053 7.50043 4.00053C6.17423 4.00053 4.90235 4.57099 3.96459 5.58642C3.02683 6.60185 2.5 7.97907 2.5 9.4151C2.5 10.8511 3.02683 12.2284 3.96459 13.2438L4.92808 14.2871L11.9998 20.8889L19.0714 14.2871L20.0349 13.2438C20.4994 12.7411 20.8678 12.1442 21.1192 11.4873C21.3706 10.8303 21.5 10.1262 21.5 9.4151C21.5 8.704 21.3706 7.99987 21.1192 7.34293C20.8678 6.686 20.4994 6.08912 20.0349 5.58642Z" stroke="#444444" stroke-width="1.5" stroke-linecap="round" stroke-linejoin="round"/>
<path d="M8.80859 12.5C8.80859 12.5 9.61006 14.5037 12.0145 14.5037C14.4189 14.5037 15.2204 12.5 15.2204 12.5" stroke="#444444" stroke-width="1.5" stroke-linecap="round"/>
</svg>
