<svg width="24" height="24" viewBox="0 0 24 24" fill="none" xmlns="http://www.w3.org/2000/svg">
<path d="M3 12H19C20.1046 12 21 12.8954 21 14V19C21 20.1046 20.1046 21 19 21H5C3.89543 21 3 20.1046 3 19V12Z" fill="#2FCAB0"/>
<path d="M21 12.5V18.5C21 19.8807 19.8807 21 18.5 21H5.5C4.11929 21 3 19.8807 3 18.5V5.5C3 4.11929 4.11929 3 5.5 3H12" stroke="#444444" stroke-width="1.5" stroke-linecap="round"/>
<path d="M17.3757 3.09549C17.8379 2.59336 18.6174 2.55479 19.127 3.00884L20.7335 4.44049C21.2548 4.90503 21.2945 5.70656 20.8216 6.22029L13.7959 13.8526C13.6322 14.0304 13.4205 14.157 13.1864 14.2169L9.4682 15.1695C9.28673 15.216 9.12048 15.0537 9.16254 14.8712L9.96516 11.3876C10.0139 11.1763 10.1167 10.9813 10.2636 10.8217L17.3757 3.09549Z" fill="white" stroke="#444444" stroke-width="1.5"/>
</svg>
