<svg width="24" height="24" viewBox="0 0 24 24" fill="none" xmlns="http://www.w3.org/2000/svg">
<path d="M18.7663 9.34878C18.3753 8.92118 17.9111 8.58197 17.4002 8.35054C16.8893 8.11912 16.3417 8 15.7887 8C15.2357 8 14.6881 8.11912 14.1772 8.35054C13.6663 8.58197 13.2021 8.92118 12.8112 9.34878L11.9998 10.2358L11.1885 9.34878C10.3988 8.48546 9.32773 8.00045 8.21094 8.00045C7.09415 8.00045 6.0231 8.48546 5.23341 9.34878C4.44372 10.2121 4 11.2235 4 12.4444C4.44444 12.4444 5.51012 13.8052 6.29981 14.6685L7.11117 15.5556L11.9998 20L16.2266 16.2051L17.038 15.3181C17.4291 14.8907 18.455 14.3363 18.6667 13.7778C18.8784 13.2192 19.6794 13.3333 20 12.6039C20 11.9994 19.891 11.4007 19.6794 10.8422C19.4677 10.2836 19.1574 9.77618 18.7663 9.34878Z" fill="#2FCAB0"/>
<path d="M20.0349 5.08642C19.5707 4.58348 19.0195 4.18451 18.4128 3.91231C17.8061 3.6401 17.1558 3.5 16.4991 3.5C15.8424 3.5 15.1921 3.6401 14.5854 3.91231C13.9787 4.18451 13.4275 4.58348 12.9633 5.08642L11.9998 6.12971L11.0363 5.08642C10.0985 4.07099 8.82662 3.50053 7.50043 3.50053C6.17423 3.50053 4.90235 4.07099 3.96459 5.08642C3.02683 6.10185 2.5 7.47907 2.5 8.9151C2.5 10.3511 3.02683 11.7284 3.96459 12.7438L4.92808 13.7871L11.9998 20.3889L19.0714 13.7871L20.0349 12.7438C20.4994 12.2411 20.8678 11.6442 21.1192 10.9873C21.3706 10.3303 21.5 9.6262 21.5 8.9151C21.5 8.204 21.3706 7.49987 21.1192 6.84293C20.8678 6.186 20.4994 5.58912 20.0349 5.08642Z" stroke="#444444" stroke-width="1.5" stroke-linecap="round" stroke-linejoin="round"/>
<path d="M8.80859 12C8.80859 12 9.61006 14.0037 12.0145 14.0037C14.4189 14.0037 15.2204 12 15.2204 12" stroke="#444444" stroke-width="1.5" stroke-linecap="round"/>
</svg>
