<svg width="24" height="25" viewBox="0 0 24 25" fill="none" xmlns="http://www.w3.org/2000/svg">
<path d="M15.4524 17.9V17.9C19.0685 17.9 22 14.9685 22 11.3524V10.7C22 6.72355 18.7765 3.5 14.8 3.5H9.2C5.22355 3.5 2 6.72355 2 10.7V10.9952C2 14.8086 5.09137 17.9 8.90476 17.9V17.9C10.5 17.9 12.119 18.62 12.119 21.5" stroke="#444444" stroke-width="1.5" stroke-linecap="round"/>
<path d="M5 11C5 8.71485 6.70158 6.77894 8.98124 6.62051C9.98085 6.55104 11.0415 6.5 12 6.5C12.9585 6.5 14.0191 6.55104 15.0188 6.62051C17.2984 6.77894 19 8.71485 19 11C19 13.2852 17.2984 15.2211 15.0188 15.3795C14.0191 15.449 12.9585 15.5 12 15.5C11.0415 15.5 9.98085 15.449 8.98124 15.3795C6.70158 15.2211 5 13.2852 5 11Z" fill="#2FCAB0"/>
<path d="M7.5 11H7.6" stroke="#444444" stroke-width="1.5" stroke-linecap="round" stroke-linejoin="round"/>
<path d="M12.0996 11H12.1996" stroke="#444444" stroke-width="1.5" stroke-linecap="round" stroke-linejoin="round"/>
<path d="M16.6992 11H16.7992" stroke="#444444" stroke-width="1.5" stroke-linecap="round" stroke-linejoin="round"/>
</svg>
