<svg width="14" height="14" viewBox="0 0 14 14" fill="none" xmlns="http://www.w3.org/2000/svg">
<path d="M7.82515 3.6999L6.58771 2.46247C6.31687 2.19163 5.99534 1.97679 5.64148 1.83021C5.28761 1.68364 4.90834 1.60819 4.52532 1.60819C4.14229 1.60819 3.76302 1.68364 3.40916 1.83021C3.05529 1.97679 2.73376 2.19163 2.46292 2.46247C2.19208 2.7333 1.97724 3.05483 1.83067 3.4087C1.68409 3.76257 1.60865 4.14184 1.60865 4.52486C1.60865 4.90788 1.68409 5.28716 1.83067 5.64102C1.97724 5.99489 2.19208 6.31642 2.46292 6.58726L3.70036 7.82469M6.17523 10.2996L7.41267 11.537C7.68351 11.8078 8.00504 12.0227 8.3589 12.1693C8.71277 12.3158 9.09204 12.3913 9.47506 12.3913C10.2486 12.3913 10.9905 12.084 11.5375 11.537C12.0844 10.99 12.3917 10.2482 12.3917 9.47461C12.3917 8.70106 12.0844 7.9592 11.5375 7.41221L10.3 6.17478" stroke="#888888" stroke-width="1.5" stroke-linecap="round" stroke-linejoin="round"/>
<path d="M8.64941 8.64932L5.34958 5.34949" stroke="#888888" stroke-width="1.5" stroke-linecap="round" stroke-linejoin="round"/>
</svg>
