<svg width="24" height="24" viewBox="0 0 24 24" fill="none" xmlns="http://www.w3.org/2000/svg">
<path d="M10.7577 3.48459L4.25772 8.63629C3.77907 9.01566 3.5 9.59294 3.5 10.2037V18.9474C3.5 19.4918 3.71071 20.0139 4.08579 20.3988C4.46086 20.7837 4.96957 21 5.5 21H8.41239C8.96468 21 9.41239 20.5523 9.41239 20V15.8935C9.41239 15.3412 9.86011 14.8935 10.4124 14.8935H13.4124C13.9647 14.8935 14.4124 15.3412 14.4124 15.8935V20C14.4124 20.5523 14.8601 21 15.4124 21H18.5C19.0304 21 19.5391 20.7837 19.9142 20.3988C20.2893 20.0139 20.5 19.4918 20.5 18.9474V10.2037C20.5 9.59294 20.2209 9.01566 19.7423 8.63629L13.2423 3.48459C12.5145 2.90779 11.4855 2.90779 10.7577 3.48459Z" stroke="white" stroke-width="2" stroke-linecap="round" stroke-linejoin="round"/>
</svg>
