<svg width="24" height="24" viewBox="0 0 24 24" fill="none" xmlns="http://www.w3.org/2000/svg">
<path d="M5.75973 6.17219C7.60898 6.63573 9.49244 5.54831 10.0156 3.71504L8.57323 3.30339C8.27219 4.35823 7.18847 4.98392 6.12444 4.7172L5.75973 6.17219ZM3.80515 9.55762C2.38278 8.08841 3.77617 5.67499 5.75973 6.17219L6.12444 4.7172C2.67709 3.85308 0.255426 8.04753 2.72745 10.601L3.80515 9.55762ZM3.80515 14.4719C5.13121 13.1022 5.13121 10.9274 3.80515 9.55762L2.72745 10.601C3.49045 11.3891 3.49045 12.6405 2.72745 13.4286L3.80515 14.4719ZM5.75973 17.8573C3.77617 18.3546 2.38278 15.9411 3.80515 14.4719L2.72745 13.4286C0.255427 15.982 2.67709 20.1765 6.12444 19.3123L5.75973 17.8573ZM10.0156 20.3145C9.49244 18.4812 7.60898 17.3938 5.75973 17.8573L6.12444 19.3123C7.18847 19.0456 8.27219 19.6713 8.57323 20.7261L10.0156 20.3145ZM13.9248 20.3145C13.3636 22.2809 10.5768 22.2809 10.0156 20.3145L8.57323 20.7261C9.54855 24.1437 14.3919 24.1437 15.3672 20.7261L13.9248 20.3145ZM18.1807 17.8573C16.3314 17.3938 14.448 18.4812 13.9248 20.3145L15.3672 20.7261C15.6682 19.6713 16.752 19.0456 17.816 19.3123L18.1807 17.8573ZM20.1353 14.4719C21.5576 15.9411 20.1643 18.3546 18.1807 17.8573L17.816 19.3123C21.2633 20.1765 23.685 15.982 21.213 13.4286L20.1353 14.4719ZM20.1353 9.55762C18.8092 10.9274 18.8092 13.1022 20.1353 14.4719L21.213 13.4286C20.45 12.6405 20.45 11.3891 21.213 10.601L20.1353 9.55762ZM18.1807 6.17219C20.1643 5.67499 21.5576 8.08841 20.1353 9.55762L21.213 10.601C23.685 8.04753 21.2633 3.85308 17.816 4.7172L18.1807 6.17219ZM13.9248 3.71504C14.448 5.54831 16.3314 6.63573 18.1807 6.17219L17.816 4.7172C16.752 4.98392 15.6682 4.35823 15.3672 3.3034L13.9248 3.71504ZM15.3672 3.3034C14.3919 -0.114152 9.54855 -0.114153 8.57323 3.30339L10.0156 3.71504C10.5768 1.74863 13.3636 1.74863 13.9248 3.71504L15.3672 3.3034Z" fill="#444444"/>
<circle cx="11.9723" cy="12.0123" r="4.2125" fill="#2FCAB0"/>
</svg>
