<svg width="24" height="24" viewBox="0 0 24 24" fill="none" xmlns="http://www.w3.org/2000/svg">
<path d="M11.5 14H22V22H11.5C11.5 22 12.5 21 12.5 18C12.5 15 11.5 14 11.5 14Z" fill="#2FCAB0"/>
<path d="M10 11V10C10 8.34315 11.3431 7 13 7V7H18.5H19C20.6569 7 22 8.34315 22 10V21C22 21.5523 21.5523 22 21 22H12" stroke="#444444" stroke-width="1.5" stroke-linecap="round"/>
<path d="M14.5 7H13V4C13 2.89543 13.8954 2 15 2H17C18.1046 2 19 2.89543 19 4V7H17.5" stroke="#444444" stroke-width="1.5"/>
<path d="M10.25 17.9444C10.25 19.5396 9.67844 20.5882 8.90723 21.2488C8.11666 21.926 7.05072 22.25 6 22.25C4.94928 22.25 3.88334 21.926 3.09277 21.2488C2.32156 20.5882 1.75 19.5396 1.75 17.9444C1.75 16.7887 2.39087 15.4386 3.29279 14.1434C4.17727 12.8732 5.23111 11.7702 5.88782 11.1306C5.92442 11.0949 5.96411 11.0821 6 11.0821C6.03589 11.0821 6.07558 11.0949 6.11218 11.1306C6.76889 11.7702 7.82273 12.8732 8.70721 14.1434C9.60913 15.4386 10.25 16.7887 10.25 17.9444Z" stroke="#444444" stroke-width="1.5"/>
</svg>
