<svg width="24" height="25" viewBox="0 0 24 25" fill="none" xmlns="http://www.w3.org/2000/svg">
<path d="M2 4.5C2 3.94772 2.44772 3.5 3 3.5H8C9.06087 3.5 10.0783 3.92143 10.8284 4.67157C11.5786 5.42172 12 6.43913 12 7.5V21.5C12 20.7044 11.6839 19.9413 11.1213 19.3787C10.5587 18.8161 9.79565 18.5 9 18.5H3C2.44772 18.5 2 18.0523 2 17.5V4.5Z" stroke="#444444" stroke-width="1.5" stroke-linecap="round" stroke-linejoin="round"/>
<path d="M22 4.5C22 3.94772 21.5523 3.5 21 3.5H16C14.9391 3.5 13.9217 3.92143 13.1716 4.67157C12.4214 5.42172 12 6.43913 12 7.5V21.5C12 20.7044 12.3161 19.9413 12.8787 19.3787C13.4413 18.8161 14.2044 18.5 15 18.5H21C21.5523 18.5 22 18.0523 22 17.5V4.5Z" stroke="#444444" stroke-width="1.5" stroke-linecap="round" stroke-linejoin="round"/>
</svg>
