<svg width="24" height="25" viewBox="0 0 24 25" fill="none" xmlns="http://www.w3.org/2000/svg">
<path d="M9.29443 4.00922L8.57323 3.80339V3.8034L9.29443 4.00922ZM14.646 4.00922L13.9248 4.21504L13.9248 4.21504L14.646 4.00922ZM5.94208 5.9447L5.75973 6.67219H5.75973L5.94208 5.9447ZM3.2663 10.5793L3.80515 10.0576H3.80515L3.2663 10.5793ZM3.2663 14.4502L3.80515 14.9719H3.80515L3.2663 14.4502ZM5.94208 19.0848L6.12444 19.8123H6.12444L5.94208 19.0848ZM9.29443 21.0203L10.0156 20.8145H10.0156L9.29443 21.0203ZM14.646 21.0203L13.9248 20.8145L13.9248 20.8145L14.646 21.0203ZM17.9983 19.0848L17.816 19.8123H17.816L17.9983 19.0848ZM20.6741 14.4502L21.213 13.9286L20.6741 14.4502ZM20.6741 10.5793L21.213 11.101L20.6741 10.5793ZM17.9983 5.9447L18.1807 6.67219H18.1807L17.9983 5.9447ZM10.0156 4.21504C10.5768 2.24863 13.3636 2.24863 13.9248 4.21504L15.3672 3.8034C14.3919 0.385847 9.54855 0.385847 8.57323 3.80339L10.0156 4.21504ZM5.75973 6.67219C7.60898 7.13573 9.49244 6.04831 10.0156 4.21504L8.57323 3.8034C8.27219 4.85823 7.18847 5.48392 6.12444 5.2172L5.75973 6.67219ZM3.80515 10.0576C2.38278 8.58841 3.77617 6.17499 5.75973 6.67219L6.12444 5.2172C2.67709 4.35308 0.255427 8.54753 2.72745 11.101L3.80515 10.0576ZM3.80515 14.9719C5.13121 13.6022 5.13121 11.4274 3.80515 10.0576L2.72745 11.101C3.49045 11.8891 3.49045 13.1405 2.72745 13.9286L3.80515 14.9719ZM5.75973 18.3574C3.77617 18.8546 2.38278 16.4411 3.80515 14.9719L2.72745 13.9286C0.255427 16.482 2.67709 20.6765 6.12444 19.8123L5.75973 18.3574ZM10.0156 20.8145C9.49244 18.9812 7.60898 17.8938 5.75973 18.3574L6.12444 19.8123C7.18847 19.5456 8.27219 20.1713 8.57323 21.2261L10.0156 20.8145ZM13.9248 20.8145C13.3636 22.7809 10.5768 22.7809 10.0156 20.8145L8.57323 21.2261C9.54855 24.6437 14.3919 24.6437 15.3672 21.2261L13.9248 20.8145ZM18.1807 18.3574C16.3314 17.8938 14.448 18.9812 13.9248 20.8145L15.3672 21.2261C15.6682 20.1713 16.752 19.5456 17.816 19.8123L18.1807 18.3574ZM20.1353 14.9719C21.5576 16.4411 20.1643 18.8546 18.1807 18.3574L17.816 19.8123C21.2633 20.6765 23.685 16.482 21.213 13.9286L20.1353 14.9719ZM20.1353 10.0576C18.8092 11.4274 18.8092 13.6022 20.1353 14.9719L21.213 13.9286C20.45 13.1405 20.45 11.8891 21.213 11.101L20.1353 10.0576ZM18.1807 6.67219C20.1643 6.17499 21.5576 8.58841 20.1353 10.0576L21.213 11.101C23.685 8.54753 21.2633 4.35308 17.816 5.2172L18.1807 6.67219ZM13.9248 4.21504C14.448 6.04831 16.3314 7.13573 18.1807 6.67219L17.816 5.2172C16.752 5.48392 15.6682 4.85823 15.3672 3.80339L13.9248 4.21504ZM14.6916 12.5145C14.6916 14.0173 13.4733 15.2356 11.9704 15.2356V16.7356C14.3017 16.7356 16.1916 14.8458 16.1916 12.5145H14.6916ZM11.9704 9.79338C13.4733 9.79338 14.6916 11.0117 14.6916 12.5145H16.1916C16.1916 10.1832 14.3017 8.29338 11.9704 8.29338V9.79338ZM9.24932 12.5145C9.24932 11.0117 10.4676 9.79338 11.9704 9.79338V8.29338C9.63918 8.29338 7.74932 10.1832 7.74932 12.5145H9.24932ZM11.9704 15.2356C10.4676 15.2356 9.24932 14.0173 9.24932 12.5145H7.74932C7.74932 14.8458 9.63918 16.7356 11.9704 16.7356V15.2356Z" fill="#444444"/>
</svg>
