<svg width="14" height="14" viewBox="0 0 14 14" fill="none" xmlns="http://www.w3.org/2000/svg">
<path d="M12.1568 2.68874C11.8589 2.39066 11.5051 2.1542 11.1158 1.99287C10.7264 1.83154 10.3091 1.7485 9.88765 1.7485C9.4662 1.7485 9.04888 1.83154 8.65953 1.99287C8.27018 2.1542 7.91643 2.39066 7.61848 2.68874L7.00015 3.30707L6.38182 2.68874C5.78 2.08692 4.96375 1.74882 4.11265 1.74882C3.26155 1.74882 2.4453 2.08692 1.84348 2.68874C1.24166 3.29056 0.903564 4.1068 0.903564 4.9579C0.903564 5.80901 1.24166 6.62525 1.84348 7.22707L2.46182 7.8454L5.58594 10.9695C6.36698 11.7506 7.63332 11.7506 8.41436 10.9695L11.5385 7.8454L12.1568 7.22707C12.4549 6.92913 12.6914 6.57538 12.8527 6.18603C13.014 5.79668 13.097 5.37935 13.097 4.9579C13.097 4.53645 13.014 4.11913 12.8527 3.72978C12.6914 3.34043 12.4549 2.98668 12.1568 2.68874Z" fill="#666666"/>
</svg>
