<svg width="18" height="18" viewBox="0 0 18 18" fill="none" xmlns="http://www.w3.org/2000/svg">
<path fill-rule="evenodd" clip-rule="evenodd" d="M10.5 4.87499V6.74999H14.745C14.9624 6.74753 15.1778 6.79237 15.3762 6.88141C15.5746 6.97044 15.7512 7.10154 15.8939 7.26563C16.0366 7.42971 16.1419 7.62286 16.2025 7.83168C16.2631 8.04051 16.2776 8.26001 16.245 8.475L15.21 15.225C15.1558 15.5827 14.9741 15.9087 14.6984 16.143C14.4228 16.3773 14.0717 16.5041 13.71 16.5H5.25L5.24998 16.5V8.25H4.75415V16.5L3 16.5C2.60218 16.5 2.22064 16.342 1.93934 16.0607C1.65804 15.7793 1.5 15.3978 1.5 15V9.75C1.5 9.35217 1.65804 8.97064 1.93934 8.68934C2.22064 8.40803 2.60218 8.25 3 8.25H5.25C5.25 8.25 7.19142 3.2369 8.03101 2.75158C8.84357 2.28188 9.48831 2.92969 9.80998 3.25289C9.82067 3.26364 9.83101 3.27403 9.84099 3.284C10.2629 3.70596 10.5 4.27826 10.5 4.87499Z" fill="#2FCAB0"/>
</svg>
