<svg width="24" height="24" viewBox="0 0 24 24" fill="none" xmlns="http://www.w3.org/2000/svg">
<path d="M11.625 4.28273C11.8571 4.14875 12.1429 4.14875 12.375 4.28273L16.0712 6.4167C16.3032 6.55068 16.4462 6.79827 16.4462 7.06622V11.3342C16.4462 11.6021 16.3032 11.8497 16.0712 11.9837L12.375 14.1177C12.1429 14.2516 11.8571 14.2516 11.625 14.1177L7.92885 11.9837C7.6968 11.8497 7.55385 11.6021 7.55385 11.3342V7.06622C7.55385 6.79827 7.6968 6.55068 7.92885 6.4167L11.625 4.28273Z" stroke="#444444" stroke-width="1.5"/>
<path d="M7.625 11.7827C7.85705 11.6488 8.14295 11.6488 8.375 11.7827L12.0712 13.9167C12.3032 14.0507 12.4462 14.2983 12.4462 14.5662V18.8342C12.4462 19.1021 12.3032 19.3497 12.0712 19.4837L8.375 21.6177C8.14295 21.7516 7.85705 21.7516 7.625 21.6177L3.92885 19.4837C3.6968 19.3497 3.55385 19.1021 3.55385 18.8342V14.5662C3.55385 14.2983 3.6968 14.0507 3.92885 13.9167L7.625 11.7827Z" stroke="#444444" stroke-width="1.5"/>
<path d="M16.125 11.7827C16.3571 11.6488 16.6429 11.6488 16.875 11.7827L20.5712 13.9167C20.8032 14.0507 20.9462 14.2983 20.9462 14.5662V18.8342C20.9462 19.1021 20.8032 19.3497 20.5712 19.4837L16.875 21.6177C16.6429 21.7516 16.3571 21.7516 16.125 21.6177L12.4288 19.4837C12.1968 19.3497 12.0538 19.1021 12.0538 18.8342V14.5662C12.0538 14.2983 12.1968 14.0507 12.4288 13.9167L16.125 11.7827Z" stroke="#444444" stroke-width="1.5"/>
<path d="M21 19.0002L23 20.7002" stroke="#444444" stroke-width="1.5" stroke-linecap="round" stroke-linejoin="round"/>
<path d="M12 4.2002V1.7002" stroke="#444444" stroke-width="1.5" stroke-linecap="round" stroke-linejoin="round"/>
<path d="M3.5 18.7002L1 20.7002" stroke="#444444" stroke-width="1.5" stroke-linecap="round" stroke-linejoin="round"/>
</svg>
