<svg width="24" height="24" viewBox="0 0 24 24" fill="none" xmlns="http://www.w3.org/2000/svg">
<path d="M11.625 4.28273C11.8571 4.14875 12.1429 4.14875 12.375 4.28273L16.0712 6.4167C16.3032 6.55068 16.4462 6.79827 16.4462 7.06622V11.3342C16.4462 11.6021 16.3032 11.8497 16.0712 11.9837L12.375 14.1177C12.1429 14.2516 11.8571 14.2516 11.625 14.1177L7.92885 11.9837C7.6968 11.8497 7.55385 11.6021 7.55385 11.3342V7.06622C7.55385 6.79827 7.6968 6.55068 7.92885 6.4167L11.625 4.28273Z" stroke="#444444" stroke-width="1.5"/>
<path d="M11.5 6.28868C11.8094 6.11004 12.1906 6.11004 12.5 6.28868L14.0981 7.21132C14.4075 7.38996 14.5981 7.72008 14.5981 8.07735V9.92265C14.5981 10.2799 14.4075 10.61 14.0981 10.7887L12.5 11.7113C12.1906 11.89 11.8094 11.89 11.5 11.7113L9.90192 10.7887C9.59252 10.61 9.40192 10.2799 9.40192 9.92265V8.07735C9.40192 7.72008 9.59252 7.38996 9.90192 7.21132L11.5 6.28868Z" fill="#2FCAB0"/>
<path d="M7.2998 14.0885C7.60921 13.9098 7.9904 13.9098 8.2998 14.0885L9.89788 15.0111C10.2073 15.1898 10.3979 15.5199 10.3979 15.8772V17.7225C10.3979 18.0797 10.2073 18.4098 9.89788 18.5885L8.2998 19.5111C7.9904 19.6898 7.60921 19.6898 7.2998 19.5111L5.70173 18.5885C5.39233 18.4098 5.20173 18.0797 5.20173 17.7225V15.8772C5.20173 15.5199 5.39233 15.1898 5.70173 15.0111L7.2998 14.0885Z" fill="#2FCAB0"/>
<path d="M16.2002 14.0885C16.5096 13.9098 16.8908 13.9098 17.2002 14.0885L18.7983 15.0111C19.1077 15.1898 19.2983 15.5199 19.2983 15.8772V17.7225C19.2983 18.0797 19.1077 18.4098 18.7983 18.5885L17.2002 19.5111C16.8908 19.6898 16.5096 19.6898 16.2002 19.5111L14.6021 18.5885C14.2927 18.4098 14.1021 18.0797 14.1021 17.7225V15.8772C14.1021 15.5199 14.2927 15.1898 14.6021 15.0111L16.2002 14.0885Z" fill="#2FCAB0"/>
<path d="M7.625 11.7827C7.85705 11.6488 8.14295 11.6488 8.375 11.7827L12.0712 13.9167C12.3032 14.0507 12.4462 14.2983 12.4462 14.5662V18.8342C12.4462 19.1021 12.3032 19.3497 12.0712 19.4837L8.375 21.6177C8.14295 21.7516 7.85705 21.7516 7.625 21.6177L3.92885 19.4837C3.6968 19.3497 3.55385 19.1021 3.55385 18.8342V14.5662C3.55385 14.2983 3.6968 14.0507 3.92885 13.9167L7.625 11.7827Z" stroke="#444444" stroke-width="1.5"/>
<path d="M16.125 11.7827C16.3571 11.6488 16.6429 11.6488 16.875 11.7827L20.5712 13.9167C20.8032 14.0507 20.9462 14.2983 20.9462 14.5662V18.8342C20.9462 19.1021 20.8032 19.3497 20.5712 19.4837L16.875 21.6177C16.6429 21.7516 16.3571 21.7516 16.125 21.6177L12.4288 19.4837C12.1968 19.3497 12.0538 19.1021 12.0538 18.8342V14.5662C12.0538 14.2983 12.1968 14.0507 12.4288 13.9167L16.125 11.7827Z" stroke="#444444" stroke-width="1.5"/>
<path d="M21 19.0002L23 20.7002" stroke="#444444" stroke-width="1.5" stroke-linecap="round" stroke-linejoin="round"/>
<path d="M12 4.2002V1.7002" stroke="#444444" stroke-width="1.5" stroke-linecap="round" stroke-linejoin="round"/>
<path d="M3.5 18.7002L1 20.7002" stroke="#444444" stroke-width="1.5" stroke-linecap="round" stroke-linejoin="round"/>
</svg>
