<svg xmlns="http://www.w3.org/2000/svg" id="_" width="26" height="26" viewBox="0 0 26 26">
    <defs>
        <style>
            .cls-2{fill:#333}
        </style>
    </defs>
    <g id="Back" fill="none" stroke="none">
        <path d="M13 0A13 13 0 1 1 0 13 13 13 0 0 1 13 0z"/>
        <path fill="#333" d="M13 2c-2.938 0-5.7 1.144-7.778 3.222C3.144 7.299 2 10.062 2 13c0 2.938 1.144 5.7 3.222 7.778C7.299 22.856 10.062 24 13 24c2.938 0 5.7-1.144 7.778-3.222C22.856 18.701 24 15.938 24 13c0-2.938-1.144-5.7-3.222-7.778C18.701 3.144 15.938 2 13 2m0-2c7.18 0 13 5.82 13 13s-5.82 13-13 13S0 20.18 0 13 5.82 0 13 0z"/>
    </g>
    <g id="_2" transform="translate(7.272 7.454)">
        <path id="사각형_301" d="M0 0H2V12H0z" class="cls-2" transform="translate(4.728 -.454)"/>
        <path id="사각형_302" d="M0 0H2V12H0z" class="cls-2" transform="rotate(90 3.591 8.137)"/>
    </g>
</svg>
