<svg width="38" height="38" viewBox="0 0 38 38" fill="none" xmlns="http://www.w3.org/2000/svg">
<g clip-path="url(#clip0_1_32)">
<path d="M0.848205 32.698L0.77832 32.8575H5.54426L8.39136 26.2783C7.01795 25.8468 5.67947 25.2794 4.40937 24.5889L0.848205 32.698Z" fill="#009AD6"/>
<path d="M21.9453 26.2743L24.7651 32.7897L24.7947 32.8581H29.5606L25.9258 24.5796C24.6557 25.2716 23.318 25.8421 21.9453 26.2743Z" fill="#009AD6"/>
<path d="M10.3766 21.3973C10.4146 21.408 10.4518 21.4179 10.4898 21.4285L15.1684 10.6166L19.8356 21.4019C19.8713 21.392 19.9077 21.3822 19.9434 21.3715C21.2546 20.9932 22.5232 20.4562 23.7135 19.7748C23.7401 19.7596 23.7667 19.7429 23.794 19.7269L17.5331 5.46632L17.5005 5.39795H12.8356L6.52148 19.777C6.54731 19.7915 6.57238 19.8074 6.59745 19.8219C7.79159 20.4964 9.06322 21.0266 10.3766 21.3973Z" fill="#009AD6"/>
<path d="M35.5986 16.5742H31.6455V32.7445H35.5986V16.5742Z" fill="#009AD6"/>
<path d="M36.5616 12.0121C36.5616 13.6339 35.2467 14.9496 33.6241 14.9496C32.0015 14.9496 30.6866 13.6339 30.6866 12.0121C30.6866 10.3903 32.0023 9.07462 33.6241 9.07462C35.2467 9.07462 36.5616 10.3903 36.5616 12.0121Z" fill="#009AD6"/>
<path d="M28.649 19.9821C28.4288 19.4997 28.0079 19.148 27.4952 19.0174C26.9779 18.8852 26.4355 18.9931 26.0055 19.3129C25.4062 19.7595 24.7856 20.1659 24.1459 20.5321C22.8903 21.2507 21.5632 21.8121 20.1845 22.2101C18.5535 22.6803 16.8512 22.9211 15.1116 22.9211C13.407 22.9211 11.7381 22.6894 10.1375 22.2375C8.75577 21.8478 7.42489 21.2932 6.16618 20.5822C5.49542 20.2032 4.84442 19.78 4.21772 19.3129C3.90855 19.0827 3.54012 18.9619 3.16563 18.9619C3.01978 18.9619 2.87317 18.9801 2.72808 19.0174C2.21532 19.1488 1.79449 19.5005 1.5742 19.9821C1.23312 20.7281 1.45797 21.6229 2.1105 22.1106C2.95673 22.7434 3.83866 23.3093 4.75022 23.8069C6.02337 24.5019 7.35576 25.0633 8.73222 25.4864C10.7779 26.1154 12.9208 26.4382 15.1116 26.4382C17.3381 26.4382 19.5137 26.1047 21.589 25.456C22.9624 25.0268 24.2918 24.4586 25.5627 23.7575C26.4423 23.2721 27.2946 22.7221 28.1127 22.1098C28.7645 21.6229 28.9901 20.7281 28.649 19.9821Z" fill="#FF71BC"/>
</g>
<defs>
<clipPath id="clip0_1_32">
<rect width="38" height="38" fill="white"/>
</clipPath>
</defs>
</svg>
