<svg width="44" height="44" viewBox="0 0 44 44" fill="none" xmlns="http://www.w3.org/2000/svg">
<circle cx="22" cy="22" r="22" fill="#EEEEEE"/>
<path d="M32.999 21.0001C32.999 16.0921 28.0651 12.1 21.9995 12.1C15.9339 12.1 11 16.0921 11 21.0001C11 25.3998 14.9133 29.0839 20.1994 29.7811C20.5567 29.8581 21.0448 30.0162 21.1684 30.3211C21.2786 30.5984 21.2405 31.0327 21.2034 31.313C21.2034 31.313 21.0747 32.0872 21.0469 32.2525C20.9985 32.5287 20.8255 33.3368 21.9995 32.8429C23.1735 32.349 28.3339 29.1239 30.6417 26.4769C32.2359 24.7324 32.999 22.9643 32.999 21.0001Z" fill="#444444"/>
<path d="M29.3401 23.8341C29.3947 23.8341 29.4471 23.8125 29.4857 23.774C29.5244 23.7354 29.5461 23.6832 29.5461 23.6287V22.8504C29.5461 22.796 29.5244 22.7438 29.4857 22.7052C29.4471 22.6667 29.3947 22.6451 29.3401 22.6451H27.2393V21.8381H29.3401C29.3947 21.8381 29.4471 21.8164 29.4857 21.7779C29.5244 21.7394 29.5461 21.6872 29.5461 21.6327V20.8544C29.5461 20.7999 29.5244 20.7477 29.4857 20.7092C29.4471 20.6707 29.3947 20.649 29.3401 20.649H27.2393V19.842H29.3401C29.3947 19.842 29.4471 19.8204 29.4857 19.7819C29.5244 19.7433 29.5461 19.6911 29.5461 19.6366V18.8584C29.5461 18.8039 29.5244 18.7517 29.4857 18.7131C29.4471 18.6746 29.3947 18.653 29.3401 18.653H26.2506C26.196 18.653 26.1436 18.6746 26.105 18.7131C26.0664 18.7517 26.0447 18.8039 26.0447 18.8584V23.6359C26.0447 23.6904 26.0664 23.7426 26.105 23.7811C26.1436 23.8197 26.196 23.8413 26.2506 23.8413H29.3401V23.8341Z" fill="#EEEEEE"/>
<path d="M17.9078 23.8341C17.9624 23.8341 18.0148 23.8124 18.0534 23.7739C18.0921 23.7354 18.1138 23.6832 18.1138 23.6287V22.8504C18.1138 22.796 18.0921 22.7437 18.0534 22.7052C18.0148 22.6667 17.9624 22.6451 17.9078 22.6451H15.808V18.846C15.808 18.7915 15.7863 18.7393 15.7477 18.7008C15.7091 18.6623 15.6567 18.6407 15.602 18.6407H14.8214C14.7668 18.6407 14.7144 18.6623 14.6758 18.7008C14.6372 18.7393 14.6155 18.7915 14.6155 18.846V23.6287C14.6155 23.6832 14.6372 23.7354 14.6758 23.7739C14.7144 23.8124 14.7668 23.8341 14.8214 23.8341H17.9109H17.9078Z" fill="#EEEEEE"/>
<path d="M19.769 18.6283H18.9894C18.8734 18.6283 18.7793 18.7221 18.7793 18.8377V23.6235C18.7793 23.7392 18.8734 23.833 18.9894 23.833H19.769C19.885 23.833 19.979 23.7392 19.979 23.6235V18.8377C19.979 18.7221 19.885 18.6283 19.769 18.6283Z" fill="#EEEEEE"/>
<path d="M25.0798 18.6283H24.2992C24.2446 18.6283 24.1922 18.6499 24.1535 18.6884C24.1149 18.7269 24.0932 18.7792 24.0932 18.8336V21.6768L21.8977 18.7186L21.8801 18.6971L21.8678 18.6837L21.8565 18.6735H21.8503L21.8389 18.6663H21.8328L21.8214 18.6601H21.8142L21.8019 18.655H21.7957H21.7823H21.7751H21.7627H21.7535H20.9482C20.8935 18.655 20.8411 18.6766 20.8025 18.7151C20.7639 18.7536 20.7422 18.8059 20.7422 18.8603V23.6472C20.7422 23.7016 20.7639 23.7539 20.8025 23.7924C20.8411 23.8309 20.8935 23.8525 20.9482 23.8525H21.7288C21.7834 23.8525 21.8358 23.8309 21.8744 23.7924C21.913 23.7539 21.9347 23.7016 21.9347 23.6472V20.7825L24.1334 23.7437C24.1484 23.7642 24.1669 23.7819 24.188 23.796L24.2014 23.8032H24.2075H24.2178L24.2281 23.8084H24.2343L24.2487 23.8135C24.2664 23.8188 24.2848 23.8216 24.3033 23.8217H25.0798C25.1344 23.8217 25.1868 23.8001 25.2254 23.7616C25.2641 23.7231 25.2857 23.6708 25.2857 23.6164V18.8377C25.2863 18.8104 25.2814 18.7833 25.2713 18.7579C25.2612 18.7325 25.2461 18.7094 25.2269 18.6899C25.2077 18.6704 25.1848 18.6549 25.1596 18.6443C25.1343 18.6337 25.1072 18.6283 25.0798 18.6283Z" fill="#EEEEEE"/>
</svg>
