<svg width="24" height="24" viewBox="0 0 24 24" fill="none" xmlns="http://www.w3.org/2000/svg">
<path d="M21 12.5V18.5C21 19.8807 19.8807 21 18.5 21H5.5C4.11929 21 3 19.8807 3 18.5V5.5C3 4.11929 4.11929 3 5.5 3H12" stroke="white" stroke-width="2" stroke-linecap="round"/>
<path d="M17.5596 3.26481C17.9294 2.8631 18.553 2.83225 18.9606 3.19549L20.5672 4.62713C20.9842 4.99877 21.016 5.63999 20.6377 6.05098L13.612 13.6833C13.481 13.8256 13.3117 13.9268 13.1244 13.9748L9.40616 14.9273L10.2088 11.4438C10.2477 11.2747 10.33 11.1187 10.4475 10.991L17.5596 3.26481Z" stroke="white" stroke-width="2"/>
</svg>
