<svg width="24" height="25" viewBox="0 0 24 25" fill="none" xmlns="http://www.w3.org/2000/svg">
<path d="M21 13V19C21 20.3807 19.8807 21.5 18.5 21.5H5.5C4.11929 21.5 3 20.3807 3 19V6C3 4.61929 4.11929 3.5 5.5 3.5H12" stroke="#444444" stroke-width="1.5" stroke-linecap="round"/>
<path d="M17.3757 3.59549C17.8379 3.09336 18.6174 3.05479 19.127 3.50884L20.7335 4.94049C21.2548 5.40503 21.2945 6.20656 20.8216 6.72029L13.7959 14.3526C13.6322 14.5304 13.4205 14.657 13.1864 14.7169L9.4682 15.6695C9.28673 15.716 9.12048 15.5537 9.16254 15.3712L9.96516 11.8876C10.0139 11.6763 10.1167 11.4813 10.2636 11.3217L17.3757 3.59549Z" stroke="#444444" stroke-width="1.5"/>
</svg>
