<svg width="24" height="25" viewBox="0 0 24 25" fill="none" xmlns="http://www.w3.org/2000/svg">
<path d="M19 16.5V16.7361L19.1056 16.9472L20.0693 18.8747C20.2983 19.6844 19.6903 20.5 18.8377 20.5H3.16228C2.30967 20.5 1.70172 19.6844 1.93067 18.8747L2.89443 16.9472L3 16.7361V16.5V12.5C3 8.08172 6.58172 4.5 11 4.5C15.4183 4.5 19 8.08172 19 12.5V16.5Z" stroke="white" stroke-width="2"/>
<rect x="10" y="1.5" width="2" height="4" rx="1" fill="white"/>
<path d="M8.1709 22.5C8.58273 23.6652 9.69397 24.5 11.0002 24.5C12.3064 24.5 13.4177 23.6652 13.8295 22.5H8.1709Z" fill="white"/>
</svg>
