<svg width="24" height="24" viewBox="0 0 24 24" fill="none" xmlns="http://www.w3.org/2000/svg">
<path d="M2 12C2 11.4477 2.44772 11 3 11H8C9.06087 11 10.0783 11.4214 10.8284 12.1716C11.5786 12.9217 12 13.9391 12 15V21C12 20.2044 11.6839 19.4413 11.1213 18.8787C10.5587 18.3161 9.79565 18 9 18H3C2.44772 18 2 17.5523 2 17V15V12Z" fill="#2FCAB0"/>
<path d="M22 12C22 11.4477 21.5523 11 21 11H16C14.9391 11 13.9217 11.4214 13.1716 12.1716C12.4214 12.9217 12 13.9391 12 15V21C12 20.2044 12.3161 19.4413 12.8787 18.8787C13.4413 18.3161 14.2044 18 15 18H21C21.5523 18 22 17.5523 22 17V15V12Z" fill="#2FCAB0"/>
<path d="M2 4C2 3.44772 2.44772 3 3 3H8C9.06087 3 10.0783 3.42143 10.8284 4.17157C11.5786 4.92172 12 5.93913 12 7V21C12 20.2044 11.6839 19.4413 11.1213 18.8787C10.5587 18.3161 9.79565 18 9 18H3C2.44772 18 2 17.5523 2 17V4Z" stroke="#444444" stroke-width="1.5" stroke-linecap="round" stroke-linejoin="round"/>
<path d="M22 4C22 3.44772 21.5523 3 21 3H16C14.9391 3 13.9217 3.42143 13.1716 4.17157C12.4214 4.92172 12 5.93913 12 7V21C12 20.2044 12.3161 19.4413 12.8787 18.8787C13.4413 18.3161 14.2044 18 15 18H21C21.5523 18 22 17.5523 22 17V4Z" stroke="#444444" stroke-width="1.5" stroke-linecap="round" stroke-linejoin="round"/>
</svg>
