<svg width="28" height="28" viewBox="0 0 28 28" fill="none" xmlns="http://www.w3.org/2000/svg">
<path d="M28 22.1985C28 22.8861 27.7318 23.5455 27.2545 24.0317C26.7771 24.518 26.1296 24.7911 25.4545 24.7911H2.54545C1.87036 24.7911 1.22291 24.518 0.745546 24.0317C0.268181 23.5455 0 22.8861 0 22.1985V7.93925C0 7.25165 0.268181 6.59221 0.745546 6.10601C1.22291 5.6198 1.87036 5.34665 2.54545 5.34665H7.63636L9.29358 2.81479C9.84783 1.96802 10.7917 1.45776 11.8037 1.45776H16.1963C17.2083 1.45776 18.1522 1.96802 18.7064 2.81479L20.3636 5.34665H25.4545C26.1296 5.34665 26.7771 5.6198 27.2545 6.10601C27.7318 6.59221 28 7.25165 28 7.93925V22.1985Z" fill="#444444"/>
<path d="M18.8337 14.2911C18.8337 16.9605 16.6697 19.1244 14.0003 19.1244C11.3309 19.1244 9.16699 16.9605 9.16699 14.2911C9.16699 11.6217 11.3309 9.45776 14.0003 9.45776C16.6697 9.45776 18.8337 11.6217 18.8337 14.2911Z" stroke="white" stroke-width="2" stroke-linecap="round" stroke-linejoin="round"/>
</svg>
