<svg xmlns="http://www.w3.org/2000/svg" width="20" height="20" viewBox="0 0 20 20">
    <path fill="#666" fill-rule="evenodd" d="M1.273 9.375h3.113a17.133 17.133 0 0 1 .39-3.125H2.092a8.7 8.7 0 0 0-.82 3.125zM2.819 5h2.294a11.583 11.583 0 0 1 .8-1.924 8.375 8.375 0 0 1 .746-1.166A8.78 8.78 0 0 0 2.819 5zM10 0a10 10 0 1 0 10 10A10 10 0 0 0 10 0zm-.625 1.346a4.4 4.4 0 0 0-2.359 2.319A9.953 9.953 0 0 0 6.431 5h2.944zm0 4.9H6.059a15.625 15.625 0 0 0-.423 3.125h3.739zm1.25 3.125V6.25h3.316a15.555 15.555 0 0 1 .423 3.125zm-1.25 1.25H5.637a15.625 15.625 0 0 0 .421 3.125h3.317zm1.25 3.125v-3.121h3.738a15.619 15.619 0 0 1-.421 3.125zM9.375 15H6.431a9.922 9.922 0 0 0 .585 1.335 4.407 4.407 0 0 0 2.359 2.319zm-2.716 3.09a8.369 8.369 0 0 1-.746-1.166 11.584 11.584 0 0 1-.8-1.924H2.819a8.78 8.78 0 0 0 3.84 3.09zm-4.567-4.34h2.683a17.064 17.064 0 0 1-.39-3.125H1.272a8.669 8.669 0 0 0 .82 3.125zm11.249 4.34a8.78 8.78 0 0 0 3.84-3.09h-2.293a11.6 11.6 0 0 1-.8 1.924 8.36 8.36 0 0 1-.747 1.166zm.228-3.09h-2.944v3.654a4.4 4.4 0 0 0 2.359-2.319A9.975 9.975 0 0 0 13.569 15zm1.656-1.25h2.683a8.657 8.657 0 0 0 .82-3.125h-3.113a17.063 17.063 0 0 1-.39 3.125zm.39-4.375h3.113a8.7 8.7 0 0 0-.82-3.125h-2.683a17.181 17.181 0 0 1 .39 3.125zM14.887 5a11.6 11.6 0 0 0-.8-1.924 8.365 8.365 0 0 0-.746-1.166A8.78 8.78 0 0 1 17.181 5h-2.293zm-1.319 0h-2.943V1.346a4.4 4.4 0 0 1 2.359 2.319A9.953 9.953 0 0 1 13.569 5z"/>
</svg>
