<svg width="50" height="25" viewBox="0 0 50 25" fill="none" xmlns="http://www.w3.org/2000/svg">
<g clip-path="url(#clip0_1787_10155)">
<path d="M0 0.428955H7.5994C13.6699 0.428955 17.0697 4.04666 17.0697 10.226C17.0697 16.9479 12.256 19.6467 7.86238 19.6467H0V18.865H1.2999C2.21582 18.865 2.34581 18.5927 2.34581 15.9248V3.72902C2.34581 1.89645 2.24582 1.22097 1.37889 1.22097H0V0.428955ZM5.27558 18.865H7.5474C12.573 18.865 13.8289 14.3862 13.8289 10.0992C13.8289 5.53994 12.519 1.2251 7.39242 1.2251H5.27558V18.865Z" fill="white"/>
<path d="M17.2818 18.9948H18.8556C19.7686 18.9948 19.8925 18.4503 19.8925 17.3571V9.9206C19.8925 7.63118 19.6926 7.08564 18.9846 7.08564H17.7457V6.29568H20.5965C21.2138 6.2862 21.8216 6.13767 22.3774 5.86049V9.04712H22.4283C23.1853 7.43936 24.3642 5.86049 26.247 5.86049C26.5354 5.83054 26.8266 5.86191 27.1028 5.95267C27.3789 6.04343 27.634 6.19165 27.8524 6.38816C28.0708 6.58467 28.2477 6.82529 28.3723 7.09515C28.4969 7.365 28.5666 7.65836 28.5769 7.95706C28.6011 8.19543 28.5741 8.43637 28.4979 8.66277C28.4216 8.88917 28.298 9.09549 28.1358 9.26706C27.9735 9.43864 27.7766 9.57126 27.5591 9.65552C27.3415 9.73977 27.1086 9.77359 26.877 9.75457C26.1431 9.75457 25.3831 9.40187 25.3831 8.60986C25.4005 8.36217 25.4369 8.11629 25.4921 7.87456C25.4921 7.68171 25.1521 7.65903 24.9681 7.65903C23.3683 7.65903 22.5093 9.48334 22.5093 14.4149V17.3571C22.5093 18.5843 22.7583 18.9948 23.5453 18.9948H25.0211V19.7847H17.2818V18.9948Z" fill="white"/>
<path d="M29.0097 16.6765C29.3308 16.6763 29.6448 16.7744 29.9118 16.9582C30.1789 17.1421 30.3871 17.4036 30.51 17.7095C30.6329 18.0155 30.6651 18.3521 30.6024 18.6769C30.5397 19.0017 30.3851 19.3001 30.1579 19.5342C29.9308 19.7683 29.6415 19.9276 29.3265 19.992C29.0115 20.0565 28.6851 20.0231 28.3885 19.8961C28.092 19.7692 27.8386 19.5543 27.6605 19.2788C27.4823 19.0032 27.3875 18.6794 27.3879 18.3482C27.4042 17.9101 27.5803 17.4944 27.8811 17.1845C28.1818 16.8745 28.5849 16.6931 29.0097 16.6765Z" fill="white"/>
<path d="M47.3332 5.31811H46.4172C46.3783 4.08241 45.8674 2.91265 44.996 2.06369C44.1245 1.21473 42.963 0.755363 41.7646 0.785673C37.004 0.785673 36.241 6.37001 36.241 10.2032C36.241 14.25 37.029 19.1598 41.4506 19.296C41.9398 19.3434 42.433 19.279 42.8952 19.1072C43.3574 18.9354 43.7772 18.6606 44.1245 18.3022C44.4719 17.9439 44.7383 17.5109 44.9047 17.0341C45.0711 16.5574 45.1335 16.0487 45.0873 15.5442V13.4518C45.1017 13.2577 45.0764 13.0627 45.0131 12.8793C44.9497 12.696 44.8498 12.5284 44.7198 12.3874C44.5897 12.2463 44.4324 12.135 44.258 12.0606C44.0837 11.9862 43.8961 11.9503 43.7075 11.9554H41.4506V11.1737H50V11.9554H48.9C48.0611 11.9554 47.8651 12.4875 47.8651 13.8374V19.9168H47.1272C47.0512 19.5919 46.9202 19.2661 46.2922 19.2661C45.4273 19.2661 44.2254 20.0766 41.4286 20.0766C35.1481 20.0766 33.0033 15.6504 33.0033 9.85158C33.0033 4.56425 36.1171 0.000874963 41.5556 0.000874963C42.5224 -0.0129937 43.4851 0.132531 44.4074 0.431946C44.9111 0.643493 45.4385 0.789008 45.9773 0.865081C46.2642 0.865081 46.3952 0.567043 46.4222 0.162785H47.3382L47.3332 5.31811Z" fill="white"/>
<path d="M43.0045 23.784H7.02637V24.9988H43.0045V23.784Z" fill="white"/>
</g>
<defs>
<clipPath id="clip0_1787_10155">
<rect width="50.0001" height="25.0009" fill="white" transform="translate(0 -0.000976562)"/>
</clipPath>
</defs>
</svg>
