<svg width="288" height="288" viewBox="0 0 288 288" fill="none" xmlns="http://www.w3.org/2000/svg">
<path d="M0 0H288V288H0V0Z" fill="#EEEEEE"/>
<path d="M94 119.859H109.199C121.34 119.859 128.139 127.095 128.139 139.454C128.139 152.897 118.512 158.295 109.725 158.295H94V156.731H96.5998C98.4316 156.731 98.6916 156.187 98.6916 150.851V126.46C98.6916 122.794 98.4916 121.443 96.7578 121.443H94V119.859ZM104.551 156.731H109.095C119.146 156.731 121.658 147.774 121.658 139.2C121.658 130.081 119.038 121.452 108.785 121.452H104.551V156.731Z" fill="white"/>
<path d="M128.562 156.986H131.71C133.536 156.986 133.784 155.897 133.784 153.711V138.838C133.784 134.259 133.384 133.168 131.968 133.168H129.49V131.588H135.192C136.427 131.569 137.642 131.272 138.754 130.717V137.091H138.856C140.37 133.875 142.727 130.717 146.493 130.717C147.07 130.657 147.652 130.72 148.205 130.902C148.757 131.083 149.267 131.38 149.704 131.773C150.141 132.166 150.494 132.647 150.744 133.187C150.993 133.726 151.132 134.313 151.153 134.91C151.201 135.387 151.147 135.869 150.995 136.322C150.842 136.775 150.595 137.187 150.27 137.53C149.946 137.874 149.552 138.139 149.117 138.307C148.682 138.476 148.216 138.544 147.753 138.505C146.285 138.505 144.765 137.8 144.765 136.216C144.8 135.721 144.873 135.229 144.983 134.745C144.983 134.36 144.303 134.314 143.935 134.314C140.736 134.314 139.018 137.963 139.018 147.826V153.711C139.018 156.165 139.516 156.986 141.09 156.986H144.041V158.566H128.562V156.986Z" fill="white"/>
<path d="M152.019 152.352C152.661 152.351 153.289 152.547 153.823 152.915C154.357 153.283 154.773 153.806 155.019 154.417C155.265 155.029 155.329 155.703 155.204 156.352C155.079 157.002 154.769 157.598 154.315 158.066C153.861 158.535 153.282 158.853 152.652 158.982C152.022 159.111 151.37 159.044 150.777 158.79C150.183 158.536 149.677 158.107 149.321 157.556C148.964 157.005 148.775 156.357 148.775 155.695C148.808 154.818 149.16 153.987 149.762 153.367C150.363 152.747 151.169 152.385 152.019 152.352" fill="white"/>
<path d="M188.666 129.636H186.834C186.756 127.165 185.734 124.825 183.991 123.127C182.248 121.43 179.925 120.511 177.528 120.571C168.007 120.571 166.481 131.74 166.481 139.407C166.481 147.5 168.057 157.32 176.901 157.592C177.879 157.687 178.865 157.558 179.79 157.214C180.714 156.871 181.554 156.321 182.248 155.604C182.943 154.888 183.476 154.022 183.809 153.068C184.142 152.115 184.266 151.097 184.174 150.088V145.904C184.203 145.515 184.152 145.125 184.025 144.759C183.899 144.392 183.699 144.057 183.439 143.775C183.179 143.493 182.864 143.27 182.515 143.121C182.167 142.972 181.791 142.901 181.414 142.911H176.901V141.347H193.999V142.911H191.799C190.121 142.911 189.73 143.975 189.73 146.675V158.834H188.254C188.102 158.184 187.84 157.532 186.584 157.532C184.854 157.532 182.45 159.153 176.857 159.153C164.296 159.153 160.006 150.301 160.006 138.703C160.006 128.129 166.233 119.002 177.111 119.002C179.044 118.974 180.97 119.265 182.814 119.864C183.821 120.287 184.876 120.578 185.954 120.73C186.528 120.73 186.79 120.134 186.844 119.326H188.676L188.666 129.636Z" fill="white"/>
<path d="M180.009 166.57H108.053V169H180.009V166.57Z" fill="white"/>
</svg>
