<svg width="20" height="20" viewBox="0 0 20 20" fill="none" xmlns="http://www.w3.org/2000/svg">
<circle cx="10" cy="10" r="10" fill="#222222"/>
<path d="M8.98552 11.5308C8.98552 10.9036 9.06292 10.404 9.21774 10.0321C9.37255 9.66028 9.65486 9.29514 10.0647 8.93672C10.479 8.57381 10.7545 8.28035 10.8911 8.05634C11.0277 7.82784 11.096 7.58815 11.096 7.33725C11.096 6.58008 10.7408 6.2015 10.0305 6.2015C9.69356 6.2015 9.42264 6.30455 9.21774 6.51064C9.01739 6.71225 8.91266 6.99227 8.90356 7.35069H6.92285C6.93196 6.49496 7.21199 5.82516 7.76294 5.34128C8.31845 4.85741 9.07431 4.61548 10.0305 4.61548C10.9958 4.61548 11.7448 4.84621 12.2776 5.30768C12.8103 5.76467 13.0767 6.41207 13.0767 7.24989C13.0767 7.63071 12.9902 7.99137 12.8172 8.33188C12.6441 8.6679 12.3413 9.042 11.9088 9.45419L11.3555 9.97166C11.0095 10.2987 10.8114 10.6818 10.7613 11.1209L10.734 11.5308H8.98552Z" fill="white"/>
<path d="M9.09469 13.011C8.88978 13.2185 8.78733 13.484 8.78733 13.8073C8.78733 14.1259 8.88751 14.3889 9.08786 14.5965C9.29276 14.804 9.5614 14.9078 9.8938 14.9078C10.2262 14.9078 10.4926 14.804 10.6929 14.5965C10.8978 14.3889 11.0003 14.1259 11.0003 13.8073C11.0003 13.484 10.8955 13.2185 10.6861 13.011C10.4812 12.7986 10.2171 12.6924 9.8938 12.6924C9.57051 12.6924 9.30414 12.7986 9.09469 13.011Z" fill="white"/>
</svg>
