<svg width="48" height="48" viewBox="0 0 48 48" fill="none" xmlns="http://www.w3.org/2000/svg">
<circle cx="24" cy="24" r="23.5" fill="white" stroke="#D9D9D9"/>
<g clip-path="url(#clip0_2522:6308)">
<path fill-rule="evenodd" clip-rule="evenodd" d="M30.251 15C28.7322 15 27.501 16.2312 27.501 17.75C27.501 19.2688 28.7322 20.5 30.251 20.5C31.7698 20.5 33.001 19.2688 33.001 17.75C33.001 16.2312 31.7698 15 30.251 15ZM26.501 17.75C26.501 15.6789 28.1799 14 30.251 14C32.322 14 34.001 15.6789 34.001 17.75C34.001 19.8211 32.322 21.5 30.251 21.5C28.9513 21.5 27.806 20.8388 27.1332 19.8345L21.2898 22.7562C21.4266 23.1454 21.501 23.564 21.501 24C21.501 24.436 21.4266 24.8545 21.2898 25.2437L27.1333 28.1655C27.8061 27.1612 28.9513 26.5 30.251 26.5C32.322 26.5 34.001 28.1789 34.001 30.25C34.001 32.3211 32.322 34 30.251 34C28.1799 34 26.501 32.3211 26.501 30.25C26.501 29.8352 26.5683 29.4362 26.6927 29.0632L20.8348 26.1343C20.1578 27.1106 19.0291 27.75 17.751 27.75C15.6799 27.75 14.001 26.0711 14.001 24C14.001 21.9289 15.6799 20.25 17.751 20.25C19.029 20.25 20.1577 20.8894 20.8347 21.8657L26.6926 18.9367C26.5683 18.5638 26.501 18.1647 26.501 17.75ZM15.001 24C15.001 22.4812 16.2322 21.25 17.751 21.25C19.2698 21.25 20.501 22.4812 20.501 24C20.501 25.5188 19.2698 26.75 17.751 26.75C16.2322 26.75 15.001 25.5188 15.001 24ZM27.501 30.25C27.501 28.7312 28.7322 27.5 30.251 27.5C31.7698 27.5 33.001 28.7312 33.001 30.25C33.001 31.7688 31.7698 33 30.251 33C28.7322 33 27.501 31.7688 27.501 30.25Z" fill="black"/>
</g>
<defs>
<clipPath id="clip0_2522:6308">
<rect width="20" height="20" fill="white" transform="translate(14 14)"/>
</clipPath>
</defs>
</svg>
