<svg width="26" height="28" viewBox="0 0 26 28" fill="none" xmlns="http://www.w3.org/2000/svg">
<path d="M2.3667 2.4C2.3667 1.35066 3.21736 0.5 4.2667 0.5H15.6009C16.1188 0.5 16.6143 0.711439 16.9727 1.08538L19.6182 3.84595L22.3051 6.64971C22.6441 7.00343 22.8334 7.47441 22.8334 7.96433V25.6C22.8334 26.6493 21.9827 27.5 20.9334 27.5H4.2667C3.21736 27.5 2.3667 26.6493 2.3667 25.6V2.4Z" fill="white" stroke="#D9D9D9"/>
<rect y="8.3999" width="25.2" height="13.0667" rx="1.4" fill="#1C9ED9"/>
<path d="M9.04599 17.7332V12.1304H7.60119V14.222H5.27439V12.1304H3.82959V17.7332H5.27439V15.482H7.60119V17.7332H9.04599Z" fill="white"/>
<path d="M15.8602 17.7332L17.4646 12.1304H15.835L14.995 15.8684L14.0374 12.1304H12.9286L11.971 15.8684L11.1226 12.1304H9.50136L11.1058 17.7332H12.6346L13.483 14.222L14.3314 17.7332H15.8602Z" fill="white"/>
<path d="M19.3592 17.7332V15.8348H20.72C21.98 15.8348 22.6688 15.0032 22.6688 13.9952C22.6688 12.9788 21.98 12.1304 20.72 12.1304H17.9144V17.7332H19.3592ZM21.1988 13.9868C21.1988 14.3648 20.9132 14.6084 20.5268 14.6084H19.3592V13.3484H20.5268C20.9132 13.3484 21.1988 13.6004 21.1988 13.9868Z" fill="white"/>
</svg>
