<svg width="26" height="28" viewBox="0 0 26 28" fill="none" xmlns="http://www.w3.org/2000/svg">
<g clip-path="url(#clip0_2637:5762)">
<path d="M2.7666 2.4C2.7666 1.35066 3.61726 0.5 4.6666 0.5H16.0008C16.5187 0.5 17.0142 0.711439 17.3726 1.08538L20.0181 3.84595L22.705 6.64971C23.044 7.00343 23.2333 7.47441 23.2333 7.96433V25.6C23.2333 26.6493 22.3826 27.5 21.3333 27.5H4.6666C3.61726 27.5 2.7666 26.6493 2.7666 25.6V2.4Z" fill="white" stroke="#D9D9D9"/>
<rect x="0.399902" y="8.3999" width="25.2" height="13.0667" rx="1.4" fill="#1B6FD0"/>
<path d="M6.68926 17.7333C8.44486 17.7333 9.71326 16.6665 9.71326 14.9277C9.71326 13.1889 8.44486 12.1305 6.68086 12.1305H4.32886V17.7333H6.68926ZM5.77366 13.3905H6.68926C7.71406 13.3905 8.23486 14.0625 8.23486 14.9277C8.23486 15.7593 7.66366 16.4733 6.68086 16.4733H5.77366V13.3905Z" fill="white"/>
<path d="M10.1464 14.9361C10.1464 16.6413 11.4316 17.8341 13.1452 17.8341C14.8588 17.8341 16.1356 16.6413 16.1356 14.9361C16.1356 13.2309 14.8588 12.0381 13.1452 12.0381C11.4316 12.0381 10.1464 13.2309 10.1464 14.9361ZM14.6656 14.9361C14.6656 15.8433 14.0692 16.5573 13.1452 16.5573C12.2128 16.5573 11.6164 15.8433 11.6164 14.9361C11.6164 14.0205 12.2128 13.3149 13.1452 13.3149C14.0692 13.3149 14.6656 14.0205 14.6656 14.9361Z" fill="white"/>
<path d="M19.568 17.8341C20.9624 17.8341 21.6932 17.0529 22.0544 16.3305L20.8112 15.7425C20.6264 16.1877 20.1476 16.5573 19.568 16.5573C18.6944 16.5573 18.0476 15.8517 18.0476 14.9361C18.0476 14.0205 18.6944 13.3149 19.568 13.3149C20.1476 13.3149 20.6264 13.6845 20.8112 14.1297L22.0544 13.5417C21.6848 12.8025 20.9624 12.0381 19.568 12.0381C17.888 12.0381 16.5776 13.2057 16.5776 14.9361C16.5776 16.6581 17.888 17.8341 19.568 17.8341Z" fill="white"/>
</g>
<defs>
<clipPath id="clip0_2637:5762">
<rect width="26" height="28" fill="white"/>
</clipPath>
</defs>
</svg>
