<svg width="20" height="20" viewBox="0 0 20 20" fill="none" xmlns="http://www.w3.org/2000/svg">
<path fill-rule="evenodd" clip-rule="evenodd" d="M11.7 0.999998C11.7 0.723857 11.9238 0.5 12.1999 0.5H18.9999L19.003 0.50001C19.0117 0.500061 19.0203 0.500334 19.0289 0.500829C19.0624 0.502747 19.095 0.507958 19.1264 0.516145C19.2096 0.537798 19.2884 0.581232 19.3536 0.646446C19.4545 0.747373 19.5033 0.880711 19.4999 1.01296V7.79992C19.4999 8.07606 19.276 8.29991 18.9999 8.29991C18.7237 8.29991 18.4999 8.07606 18.4999 7.79992V2.20727L10.0037 10.7034C9.80844 10.8987 9.49185 10.8987 9.29659 10.7034C9.10133 10.5082 9.10133 10.1916 9.29659 9.99633L17.7929 1.5H12.1999C11.9238 1.5 11.7 1.27614 11.7 0.999998ZM2 3.19971C1.17157 3.19971 0.5 3.87128 0.5 4.69971V17.9995C0.5 18.8279 1.17157 19.4995 2 19.4995H15.2998C16.1282 19.4995 16.7998 18.8279 16.7998 17.9995V13.0496C16.7998 12.7734 16.576 12.5496 16.2998 12.5496C16.0237 12.5496 15.7998 12.7734 15.7998 13.0496V17.9995C15.7998 18.2757 15.576 18.4995 15.2998 18.4995H2C1.72385 18.4995 1.5 18.2757 1.5 17.9995V4.69971C1.5 4.42356 1.72385 4.1997 2 4.1997H6.94993C7.22607 4.1997 7.44992 3.97585 7.44992 3.6997C7.44992 3.42356 7.22607 3.19971 6.94993 3.19971H2Z" fill="black"/>
</svg>
