<svg width="18" height="18" viewBox="0 0 18 18" fill="none" xmlns="http://www.w3.org/2000/svg">
<path fill-rule="evenodd" clip-rule="evenodd" d="M16.7092 1.29502C16.804 1.3904 16.8756 1.50014 16.9241 1.61722C16.9742 1.73854 16.9995 1.86774 16.9999 1.997L16.9999 2.00069V8C16.9999 8.55228 16.5522 9 15.9999 9C15.4476 9 14.9999 8.55228 14.9999 8V4.41421L8.45704 10.9571C8.06651 11.3476 7.43335 11.3476 7.04282 10.9571C6.6523 10.5666 6.6523 9.93342 7.04282 9.54289L13.5857 3H9.99993C9.44765 3 8.99993 2.55228 8.99993 2C8.99993 1.44772 9.44765 1 9.99993 1H15.9998H15.9999C16.275 1 16.5241 1.11106 16.7049 1.29078L16.7092 1.29502ZM2 3C0.89543 3 0 3.89543 0 5V16C0 17.1046 0.895431 18 2 18H13C14.1046 18 15 17.1046 15 16V11.9444C15 11.3922 14.5523 10.9444 14 10.9444C13.4477 10.9444 13 11.3922 13 11.9444V16H2V5H6.05556C6.60784 5 7.05556 4.55228 7.05556 4C7.05556 3.44772 6.60784 3 6.05556 3H2Z" fill="black"/>
</svg>
