<svg width="26" height="28" viewBox="0 0 26 28" fill="none" xmlns="http://www.w3.org/2000/svg">
<g clip-path="url(#clip0_2637:5761)">
<path d="M2.7666 2.4C2.7666 1.35066 3.61726 0.5 4.6666 0.5H16.0008C16.5187 0.5 17.0142 0.711439 17.3726 1.08538L20.0181 3.84595L22.705 6.64971C23.044 7.00343 23.2333 7.47441 23.2333 7.96433V25.6C23.2333 26.6493 22.3826 27.5 21.3333 27.5H4.6666C3.61726 27.5 2.7666 26.6493 2.7666 25.6V2.4Z" fill="white" stroke="#D9D9D9"/>
<rect x="0.399902" y="8.3999" width="25.2" height="13.0667" rx="1.4" fill="#EC6857"/>
<path d="M6.75388 17.7332V15.8348H8.11468C9.37468 15.8348 10.0635 15.0032 10.0635 13.9952C10.0635 12.9788 9.37468 12.1304 8.11468 12.1304H5.30908V17.7332H6.75388ZM8.59348 13.9868C8.59348 14.3648 8.30788 14.6084 7.92148 14.6084H6.75388V13.3484H7.92148C8.30788 13.3484 8.59348 13.6004 8.59348 13.9868Z" fill="white"/>
<path d="M13.0671 17.7332C14.8227 17.7332 16.0911 16.6664 16.0911 14.9276C16.0911 13.1888 14.8227 12.1304 13.0587 12.1304H10.7067V17.7332H13.0671ZM12.1515 13.3904H13.0671C14.0919 13.3904 14.6127 14.0624 14.6127 14.9276C14.6127 15.7592 14.0415 16.4732 13.0587 16.4732H12.1515V13.3904Z" fill="white"/>
<path d="M18.2547 17.7332V15.5072H20.8587V14.2808H18.2547V13.3484H20.9175V12.1304H16.8099V17.7332H18.2547Z" fill="white"/>
</g>
<defs>
<clipPath id="clip0_2637:5761">
<rect width="26" height="28" fill="white"/>
</clipPath>
</defs>
</svg>
