<svg width="20" height="20" viewBox="0 0 20 20" fill="none" xmlns="http://www.w3.org/2000/svg">
<g clip-path="url(#clip0_2512:5995)">
<path d="M5.41659 20.0002C6.56718 20.0002 7.49992 19.0674 7.49992 17.9168C7.49992 16.7662 6.56718 15.8335 5.41659 15.8335C4.26599 15.8335 3.33325 16.7662 3.33325 17.9168C3.33325 19.0674 4.26599 20.0002 5.41659 20.0002Z" fill="#222222"/>
<path d="M16.2501 20.0002C17.4007 20.0002 18.3334 19.0674 18.3334 17.9168C18.3334 16.7662 17.4007 15.8335 16.2501 15.8335C15.0995 15.8335 14.1667 16.7662 14.1667 17.9168C14.1667 19.0674 15.0995 20.0002 16.2501 20.0002Z" fill="#222222"/>
<path d="M16.6667 14.1667H5C4.5825 14.1667 4.22917 13.8575 4.17417 13.4433L2.60417 1.66667H0V0H3.33333C3.75083 0 4.10417 0.309167 4.15917 0.723333L4.61833 4.16667H19.1667C19.43 4.16667 19.6783 4.29083 19.835 4.5025C19.9925 4.71417 20.0408 4.9875 19.965 5.23917L17.465 13.5725C17.3592 13.925 17.0342 14.1667 16.6667 14.1667Z" fill="#222222"/>
</g>
<defs>
<clipPath id="clip0_2512:5995">
<rect width="20" height="20" fill="white"/>
</clipPath>
</defs>
</svg>
