<svg width="18" height="18" viewBox="0 0 18 18" fill="none" xmlns="http://www.w3.org/2000/svg">
<g clip-path="url(#clip0_2512:5829)">
<path d="M10.2858 5.68504L5.27824 10.6926C4.91785 11.0645 4.71816 11.5633 4.72225 12.0811C4.72634 12.599 4.93389 13.0946 5.3001 13.4608C5.66632 13.827 6.16184 14.0345 6.67973 14.0386C7.19762 14.0427 7.69636 13.843 8.06832 13.4826L14.6364 6.92361C14.9532 6.61443 15.2054 6.24546 15.3785 5.83807C15.5516 5.43068 15.6421 4.99298 15.6448 4.55034C15.6475 4.10771 15.5623 3.66894 15.3942 3.25948C15.226 2.85002 14.9783 2.47801 14.6653 2.16502C14.3523 1.85202 13.9803 1.60427 13.5708 1.43612C13.1613 1.26796 12.7226 1.18276 12.2799 1.18545C11.8373 1.18813 11.3996 1.27865 10.9922 1.45176C10.5848 1.62486 10.2158 1.87711 9.90667 2.19388L3.29891 8.80164C2.85191 9.23588 2.4957 9.75465 2.25098 10.3278C2.00626 10.9009 1.87792 11.517 1.87341 12.1402C1.8689 12.7633 1.98832 13.3812 2.22472 13.9578C2.46112 14.5344 2.80978 15.0583 3.25045 15.4989C3.69111 15.9396 4.21498 16.2883 4.79159 16.5247C5.3682 16.7611 5.98606 16.8805 6.60923 16.876C7.23241 16.8715 7.84847 16.7431 8.42161 16.4984C8.99474 16.2537 9.5135 15.8975 9.94774 15.4505L16.1225 9.27577" stroke="black" stroke-width="2" stroke-miterlimit="10" stroke-linecap="round"/>
</g>
<defs>
<clipPath id="clip0_2512:5829">
<rect width="18" height="18" fill="white"/>
</clipPath>
</defs>
</svg>
