<svg width="20" height="20" viewBox="0 0 20 20" fill="none" xmlns="http://www.w3.org/2000/svg">
<g clip-path="url(#clip0_2515:6146)">
<path fill-rule="evenodd" clip-rule="evenodd" d="M16.251 1C14.7322 1 13.501 2.23122 13.501 3.75C13.501 5.26878 14.7322 6.5 16.251 6.5C17.7698 6.5 19.001 5.26878 19.001 3.75C19.001 2.23122 17.7698 1 16.251 1ZM12.501 3.75C12.501 1.67893 14.1799 0 16.251 0C18.322 0 20.001 1.67893 20.001 3.75C20.001 5.82107 18.322 7.5 16.251 7.5C14.9513 7.5 13.806 6.83882 13.1332 5.83447L7.28977 8.75619C7.42657 9.14541 7.50098 9.56402 7.50098 10C7.50098 10.436 7.42658 10.8545 7.2898 11.2437L13.1333 14.1655C13.8061 13.1612 14.9513 12.5 16.251 12.5C18.322 12.5 20.001 14.1789 20.001 16.25C20.001 18.3211 18.322 20 16.251 20C14.1799 20 12.501 18.3211 12.501 16.25C12.501 15.8352 12.5683 15.4362 12.6927 15.0632L6.83479 12.1343C6.1578 13.1106 5.02905 13.75 3.75098 13.75C1.67991 13.75 0.000976562 12.0711 0.000976562 10C0.000976562 7.92893 1.67991 6.25 3.75098 6.25C5.02903 6.25 6.15775 6.88935 6.83475 7.86566L12.6926 4.93672C12.5683 4.56376 12.501 4.16474 12.501 3.75ZM1.00098 10C1.00098 8.48122 2.23219 7.25 3.75098 7.25C5.26976 7.25 6.50098 8.48122 6.50098 10C6.50098 11.5188 5.26976 12.75 3.75098 12.75C2.23219 12.75 1.00098 11.5188 1.00098 10ZM13.501 16.25C13.501 14.7312 14.7322 13.5 16.251 13.5C17.7698 13.5 19.001 14.7312 19.001 16.25C19.001 17.7688 17.7698 19 16.251 19C14.7322 19 13.501 17.7688 13.501 16.25Z" fill="black"/>
</g>
<defs>
<clipPath id="clip0_2515:6146">
<rect width="20" height="20" fill="white"/>
</clipPath>
</defs>
</svg>
