<svg width="20" height="20" viewBox="0 0 20 20" fill="none" xmlns="http://www.w3.org/2000/svg">
<g clip-path="url(#clip0_2512:5996)">
<mask id="path-1-inside-1_2512:5996" fill="white">
<path fill-rule="evenodd" clip-rule="evenodd" d="M13.2049 0.23979C13.5246 -0.07993 14.043 -0.0799299 14.3627 0.23979L17.257 3.13431C17.5767 3.45403 17.5767 3.9724 17.257 4.29212L5.06429 16.4857L5.06176 16.4831C4.92635 16.5976 4.75126 16.6667 4.56005 16.6667H1.60761C1.17819 16.6667 0.830078 16.3185 0.830078 15.8891V12.9364C0.830078 12.7452 0.899099 12.5701 1.01359 12.4347L1.01226 12.4333L1.03266 12.4129C1.04902 12.395 1.06621 12.3778 1.08416 12.3614L13.2049 0.23979ZM0.830078 20H19.1634V18.3333H0.830078V20Z"/>
</mask>
<path fill-rule="evenodd" clip-rule="evenodd" d="M13.2049 0.23979C13.5246 -0.07993 14.043 -0.0799299 14.3627 0.23979L17.257 3.13431C17.5767 3.45403 17.5767 3.9724 17.257 4.29212L5.06429 16.4857L5.06176 16.4831C4.92635 16.5976 4.75126 16.6667 4.56005 16.6667H1.60761C1.17819 16.6667 0.830078 16.3185 0.830078 15.8891V12.9364C0.830078 12.7452 0.899099 12.5701 1.01359 12.4347L1.01226 12.4333L1.03266 12.4129C1.04902 12.395 1.06621 12.3778 1.08416 12.3614L13.2049 0.23979ZM0.830078 20H19.1634V18.3333H0.830078V20Z" fill="#222222"/>
<path d="M14.3627 0.23979L15.0698 -0.467291L15.0698 -0.467292L14.3627 0.23979ZM13.2049 0.23979L13.9121 0.946871V0.946871L13.2049 0.23979ZM17.257 3.13431L17.9641 2.42723V2.42723L17.257 3.13431ZM17.257 4.29212L17.9641 4.9992V4.9992L17.257 4.29212ZM5.06429 16.4857L4.35685 17.1924L5.06398 17.9002L5.77142 17.1928L5.06429 16.4857ZM5.06176 16.4831L5.7692 15.7764L5.11881 15.1254L4.4161 15.7195L5.06176 16.4831ZM4.56005 16.6667L4.56006 15.6667H4.56005V16.6667ZM1.60761 16.6667V15.6667H1.60761L1.60761 16.6667ZM1.01359 12.4347L1.77726 13.0803L2.37126 12.3776L1.72042 11.7273L1.01359 12.4347ZM1.01226 12.4333L0.30512 11.7263L-0.402198 12.4336L0.305419 13.1407L1.01226 12.4333ZM1.03266 12.4129L1.7398 13.12L1.75627 13.1035L1.77195 13.0863L1.03266 12.4129ZM1.08416 12.3614L1.7576 13.1007L1.77482 13.085L1.79129 13.0685L1.08416 12.3614ZM19.1634 20V21H20.1634V20H19.1634ZM0.830078 20H-0.169922V21H0.830078V20ZM19.1634 18.3333H20.1634V17.3333H19.1634V18.3333ZM0.830078 18.3333V17.3333H-0.169922V18.3333H0.830078ZM15.0698 -0.467292C14.3596 -1.17757 13.208 -1.17757 12.4978 -0.467291L13.9121 0.946871C13.8412 1.01771 13.7264 1.01771 13.6555 0.946872L15.0698 -0.467292ZM17.9641 2.42723L15.0698 -0.467291L13.6555 0.946871L16.5498 3.84139L17.9641 2.42723ZM17.9641 4.9992C18.6743 4.28896 18.6743 3.13747 17.9641 2.42723L16.5498 3.84139C16.479 3.77059 16.479 3.65584 16.5498 3.58504L17.9641 4.9992ZM5.77142 17.1928L17.9641 4.9992L16.5498 3.58504L4.35716 15.7786L5.77142 17.1928ZM4.35432 17.1899L4.35685 17.1924L5.77173 15.7789L5.7692 15.7764L4.35432 17.1899ZM4.56004 17.6667C4.99639 17.6667 5.39828 17.5082 5.70743 17.2468L4.4161 15.7195C4.45442 15.6871 4.50613 15.6667 4.56006 15.6667L4.56004 17.6667ZM1.60761 17.6667H4.56005V15.6667H1.60761V17.6667ZM-0.169922 15.8891C-0.169922 16.8707 0.625838 17.6667 1.60762 17.6667L1.60761 15.6667C1.73055 15.6667 1.83008 15.7663 1.83008 15.8891H-0.169922ZM-0.169922 12.9364V15.8891H1.83008V12.9364H-0.169922ZM0.249913 11.7891C-0.0114513 12.0982 -0.169922 12.5001 -0.169922 12.9364H1.83008C1.83008 12.9903 1.80965 13.042 1.77726 13.0803L0.249913 11.7891ZM0.305419 13.1407L0.306748 13.1421L1.72042 11.7273L1.71909 11.726L0.305419 13.1407ZM0.325527 11.7059L0.30512 11.7263L1.71939 13.1404L1.7398 13.12L0.325527 11.7059ZM0.410727 11.6222C0.369799 11.6595 0.330639 11.6986 0.293376 11.7395L1.77195 13.0863C1.7674 13.0913 1.76261 13.0961 1.7576 13.1007L0.410727 11.6222ZM12.4978 -0.467292L0.37703 11.6544L1.79129 13.0685L13.9121 0.946871L12.4978 -0.467292ZM19.1634 19H0.830078V21H19.1634V19ZM18.1634 18.3333V20H20.1634V18.3333H18.1634ZM0.830078 19.3333H19.1634V17.3333H0.830078V19.3333ZM1.83008 20V18.3333H-0.169922V20H1.83008Z" fill="#222222" mask="url(#path-1-inside-1_2512:5996)"/>
</g>
<defs>
<clipPath id="clip0_2512:5996">
<rect width="20" height="20" fill="white"/>
</clipPath>
</defs>
</svg>
