<svg width="101" height="38" viewBox="0 0 101 38" fill="none" xmlns="http://www.w3.org/2000/svg">
<path d="M9.83535 5.78767C9.94204 6.58536 10.2088 7.61766 10.6422 8.13381C11.2957 8.92479 11.8625 7.32271 11.8758 6.4647C11.8891 5.51954 11.4024 4.67493 10.7355 4.54757C9.93537 4.4001 9.74866 5.15086 9.83535 5.78767Z" fill="white"/>
<path d="M18.4082 27.2617C14.5813 23.9172 9.72781 23.4011 6.72768 22.8985C7.00103 21.5714 7.42771 20.1572 8.04774 18.6626C8.80777 16.8329 9.15445 15.7069 9.25445 14.7753C9.27446 14.6144 9.10778 14.3865 8.93444 14.7284C8.65443 15.298 7.42771 17.8114 6.60101 19.2725C5.18762 19.1184 3.59422 19.2524 2.51417 19.6143C2.60751 19.4937 2.86752 19.2658 3.00086 19.1519C4.28091 18.0728 8.00107 16.0085 12.5146 9.6279C12.6479 9.44023 12.7013 9.23916 12.6079 9.01799L12.4479 8.63595C12.3612 8.4818 12.1546 8.40137 11.9879 8.66276C11.6479 9.19895 10.8945 10.5528 9.43446 12.148C9.40779 11.6788 9.22112 11.1627 9.14778 10.8745C8.8011 9.48045 7.98773 6.63867 9.68781 3.26071C10.4678 1.71917 10.5745 1.34385 9.45446 0.237965C9.09445 -0.123959 8.63443 -0.0837455 8.37442 0.432332C7.51438 2.14142 6.44767 4.19903 7.58772 8.65606C8.00774 10.2914 9.06111 12.5099 8.70776 12.9321C7.38104 14.5072 5.66097 15.7806 3.46088 17.235C1.44079 18.5688 0.27408 18.991 0.0407369 20.0768C-0.152605 20.995 0.267413 22.3489 2.94086 23.1129C3.65422 23.3207 4.37425 23.4682 4.74093 23.5419C3.46088 28.6893 4.0209 32.3889 6.08099 35.8942C6.95436 37.3888 8.22108 38.0323 9.5878 37.9988C10.1478 37.9854 10.3745 37.4961 10.0212 37.0202C9.74781 36.6449 8.11441 34.8219 7.11437 31.7187C7.07436 31.5712 7.08103 31.4238 7.12103 31.2696V31.2629C8.36775 27.3086 11.0879 25.6732 11.6079 25.3917C11.7946 25.3113 11.9679 25.3314 12.1679 25.3984C13.228 25.7738 14.308 26.4507 15.0814 27.0472C15.8014 27.6102 15.7814 28.4011 14.8147 29.393C12.6413 31.6249 11.6412 33.2669 11.1345 34.2321C10.8212 34.8286 10.6678 35.3379 10.7679 35.8942C10.8812 36.5377 11.3012 36.5578 11.7346 35.9881C13.208 34.0712 14.588 32.3956 17.9948 30.0632C19.5082 29.0177 19.3882 28.1129 18.4082 27.2617ZM5.05428 22.57C3.93423 22.3891 3.10086 22.0942 2.53417 21.491C2.26083 21.1961 2.12749 20.8543 2.16749 20.4923C3.10086 20.184 4.34092 20.117 6.08766 20.3985C5.78764 21.0218 5.36763 21.8663 5.05428 22.57ZM9.78114 24.7349C9.68114 24.8287 9.59447 24.9159 9.5278 24.9829C7.69439 26.6115 6.90769 28.6624 6.60768 29.7013C6.29433 27.9922 6.21433 26.0083 6.57434 23.7631C7.30771 23.8636 8.28108 24.0513 9.32112 24.3328C9.44779 24.3663 9.58113 24.3998 9.70781 24.44C9.72114 24.44 9.72781 24.4467 9.74781 24.4534C9.89448 24.507 9.90115 24.6143 9.78114 24.7349Z" fill="white"/>
<path d="M91.5233 23.141C91.5167 23.3032 91.51 23.3978 91.51 23.3978L84.7161 23.391C84.8294 24.2223 85.7562 25.2495 87.0963 25.2495C88.0364 25.2495 88.7831 24.9995 89.4632 24.4858C89.5098 24.452 89.7499 24.2831 89.9699 24.5534L90.97 25.7158C90.97 25.7158 89.6898 27.2702 87.083 27.2702C84.1627 27.2702 82.6026 25.0062 82.6026 22.4111C82.6026 19.8362 84.4961 17.8088 86.9896 17.8155C89.3365 17.8088 91.7034 19.3767 91.5233 23.141ZM89.4632 21.492C89.2631 20.4107 88.4297 19.7011 87.1496 19.6875C86.0229 19.6808 85.0028 20.3431 84.7161 21.4852L89.4632 21.492Z" fill="white"/>
<path d="M77.0423 31.2511C79.5158 31.2511 81.6627 29.156 81.6694 26.7772C81.6694 25.8175 81.6694 22.9318 81.6694 22.9318C81.676 22.6074 81.6694 22.3303 81.6694 22.3303C81.5627 19.8095 79.5358 17.7956 77.0223 17.7956C74.4421 17.7956 72.3552 19.9109 72.3486 22.5263C72.3486 25.1417 74.4354 27.2637 77.009 27.2637C77.9757 27.2637 78.8691 26.9731 79.6159 26.4663V26.5744C79.6159 28.0139 78.4624 29.1831 77.0423 29.1763C76.2489 29.1763 75.5088 28.71 74.9688 28.1288C74.8554 28.0071 74.7421 27.9328 74.5421 28.068C74.3487 28.1964 73.1153 29.0479 73.1153 29.0479C74.2887 30.9199 76.0622 31.2511 77.0423 31.2511ZM77.029 25.1417C75.6088 25.1417 74.4554 23.9725 74.4554 22.5263C74.4554 21.0868 75.6088 19.9176 77.029 19.9176C78.4491 19.9176 79.6025 21.0868 79.6025 22.5263C79.6025 23.9725 78.4491 25.1417 77.029 25.1417Z" fill="white"/>
<path d="M46.2817 18.3965L46.275 26.9861H44.1948V25.9927C43.4881 26.7496 42.4947 27.1483 41.2879 27.1483C38.5877 27.1483 36.7075 25.2155 36.7075 22.4514C36.7075 19.6873 38.5943 17.7612 41.2946 17.768C42.4947 17.768 43.4814 18.16 44.1815 18.9169C44.1815 18.9169 44.5415 17.9978 45.3883 17.9978H45.875C46.2083 17.9978 46.2883 18.1126 46.2817 18.3965ZM41.5146 19.7211C40.0411 19.7211 38.841 20.9443 38.841 22.4581C38.841 23.972 40.0411 25.1952 41.5146 25.1952C42.9947 25.1952 44.1948 23.972 44.1948 22.4581C44.1948 20.9511 42.9881 19.7211 41.5146 19.7211Z" fill="white"/>
<path d="M56.2353 18.3362L56.2286 27.0002H58.3288C58.3288 27.0002 58.3221 23.0534 58.3355 21.9519C58.3555 20.4718 59.1756 19.9312 60.3423 19.9244C61.1557 19.9176 61.6891 20.2758 61.6891 20.2758L62.9292 18.5795C62.3425 18.1605 61.5291 17.8699 60.7757 17.8699C59.9356 17.8699 58.9089 18.0997 58.2888 18.7282C58.2888 18.7282 57.8621 17.9983 57.0354 17.9983H56.5953C56.3753 18.0051 56.2353 18.12 56.2353 18.3362Z" fill="white"/>
<path d="M22.0537 18.295L22.047 26.9725H24.1805L24.1872 21.6809C24.1872 20.4576 25.0939 19.8224 25.9807 19.8291C27.0141 19.8291 27.7742 20.6401 27.7742 21.6876L27.7675 26.9793H29.9943L30.001 21.6876C30.001 20.6401 30.7611 19.8291 31.7945 19.8359C32.8279 19.8359 33.588 20.6469 33.588 21.6944L33.5813 26.986H35.7282L35.7348 20.9442C35.7348 19.2074 34.1547 17.7882 32.2079 17.7882C30.8944 17.7882 29.7077 18.4234 29.1009 19.4439C28.5609 18.4234 27.5208 17.7814 26.3607 17.7814C25.5006 17.7814 24.6806 18.1463 24.0938 18.7749C24.0872 18.6802 23.8138 17.9841 22.9137 17.9774H22.3737C22.1403 17.9774 22.0537 18.0517 22.0537 18.295Z" fill="white"/>
<path d="M92.8091 18.4104L92.8024 27.0135H94.9226L94.9293 21.7421C94.9293 20.5257 95.896 19.8836 96.8028 19.8836C97.9295 19.8836 98.6696 20.6203 98.6696 21.7421L98.6629 27.0135H100.796L100.803 21.7421C100.803 17.944 97.5628 17.8359 97.1895 17.8359C96.3161 17.8359 95.476 18.2008 94.8826 18.8361C94.8759 18.7483 94.7026 18.0319 93.8758 18.0319H93.1891C92.9358 18.0387 92.8091 18.1535 92.8091 18.4104Z" fill="white"/>
<path d="M66.8692 17.7881C64.289 17.7881 62.1955 19.9034 62.1955 22.5188C62.1955 25.1342 64.2823 27.2562 66.8625 27.2562C69.4428 27.2562 71.5296 25.1409 71.5363 22.5255C71.5363 19.9101 69.4494 17.7881 66.8692 17.7881ZM66.8759 25.1342C65.4558 25.1342 64.3023 23.965 64.3023 22.5188C64.3023 21.0793 65.4558 19.9101 66.8759 19.9101C68.296 19.9101 69.4494 21.0793 69.4494 22.5188C69.4494 23.965 68.296 25.1342 66.8759 25.1342Z" fill="white"/>
<path d="M51.9086 27.2294C49.3418 27.2294 47.2482 25.1073 47.2482 22.4986C47.2482 19.89 49.3418 17.7747 51.9153 17.7747C53.0954 17.7747 54.2155 18.2207 55.0822 19.0385C55.1089 19.0655 55.2889 19.2209 55.0822 19.444C54.8689 19.667 53.7555 20.6875 53.7555 20.6875L53.6421 20.5793C53.1687 20.14 52.5554 19.9035 51.922 19.9035C50.5085 19.9035 49.3551 21.0659 49.3551 22.5054C49.3551 23.9381 50.5085 25.1073 51.922 25.1073C52.562 25.1073 53.2688 24.864 53.7421 24.4315C53.7821 24.3909 53.9421 24.2625 54.1355 24.4382L55.1489 25.5804L55.3089 25.7561C55.3089 25.7561 55.1423 25.925 55.1156 25.9521C54.2355 26.7766 53.1021 27.2294 51.9086 27.2294Z" fill="white"/>
<path d="M22.0605 8.34284H22.5739V10.8401H25.6475V8.34284H26.1609L26.1542 14.0116H25.6408V11.3217H22.5672V14.0116H22.0538L22.0605 8.34284Z" fill="white"/>
<path d="M30.1809 12.9727C30.1809 13.0415 30.1809 13.1309 30.1876 13.2273C30.1943 13.3236 30.1943 13.4199 30.1943 13.53C30.1943 13.6332 30.2009 13.7227 30.2076 13.8121C30.2143 13.9016 30.2143 13.9704 30.2143 14.0185H29.7475C29.7408 13.8809 29.7408 13.7433 29.7342 13.6195C29.7342 13.4887 29.7275 13.4062 29.7142 13.3718H29.6942C29.6008 13.5713 29.4474 13.7502 29.2274 13.8947C29.0073 14.0392 28.754 14.1149 28.4672 14.1149C28.1872 14.1149 27.9604 14.0667 27.7804 13.9772C27.607 13.8878 27.4603 13.7708 27.3603 13.6195C27.2603 13.475 27.1869 13.303 27.1536 13.1103C27.1136 12.9176 27.1002 12.725 27.1002 12.5255V10.3237H27.567V12.5048C27.567 12.6493 27.5804 12.8007 27.607 12.9452C27.6337 13.0828 27.6737 13.2135 27.7471 13.3236C27.8071 13.4337 27.9004 13.5231 28.0205 13.5919C28.1338 13.6607 28.2805 13.6951 28.4739 13.6951C28.6406 13.6951 28.8073 13.6607 28.9607 13.5988C29.114 13.5369 29.2407 13.4474 29.3541 13.3167C29.4674 13.1929 29.5541 13.0346 29.6208 12.8488C29.6875 12.6631 29.7208 12.436 29.7208 12.1814V10.3306H30.1876L30.1809 12.9727Z" fill="white"/>
<path d="M31.0811 11.3625C31.0811 11.2937 31.0745 11.2111 31.0745 11.108C31.0745 11.0116 31.0678 10.9085 31.0678 10.8121C31.0611 10.7089 31.0611 10.6126 31.0545 10.5301C31.0478 10.4406 31.0478 10.3718 31.0478 10.3237H31.5145C31.5212 10.4613 31.5212 10.5989 31.5278 10.7296C31.5278 10.8534 31.5345 10.936 31.5478 10.9772H31.5678C31.6678 10.7709 31.8212 10.5989 32.0345 10.4544C32.2546 10.3099 32.5079 10.2411 32.7946 10.2411C33.0346 10.2411 33.248 10.3031 33.4413 10.4269C33.6347 10.5507 33.7814 10.7502 33.868 11.0392C33.9814 10.764 34.1547 10.5576 34.3814 10.4338C34.6081 10.3031 34.8414 10.2411 35.0948 10.2411C35.3748 10.2411 35.6015 10.2893 35.7749 10.3787C35.9549 10.4682 36.0882 10.5851 36.1882 10.7365C36.2882 10.8878 36.3549 11.0529 36.4016 11.2455C36.4416 11.4382 36.4549 11.6377 36.4549 11.8372V14.0386H35.9882V11.8578C35.9882 11.7065 35.9749 11.5689 35.9482 11.4244C35.9282 11.2868 35.8815 11.1561 35.8149 11.0392C35.7549 10.9222 35.6548 10.8397 35.5415 10.7709C35.4282 10.7089 35.2748 10.6745 35.0881 10.6745C34.8681 10.6745 34.6948 10.7158 34.5548 10.7984C34.4147 10.8809 34.3014 10.9841 34.2214 11.1148C34.1414 11.2387 34.088 11.3831 34.048 11.5276C34.0147 11.679 34.0014 11.8234 34.0014 11.9541V14.0318H33.5347V11.8028C33.5347 11.4588 33.4747 11.1836 33.3547 10.9772C33.2346 10.7709 33.0413 10.6677 32.7946 10.6677C32.6213 10.6677 32.4612 10.6952 32.3079 10.7571C32.1545 10.819 32.0279 10.9085 31.9145 11.0323C31.8079 11.163 31.7145 11.3212 31.6478 11.507C31.5812 11.6927 31.5478 11.9197 31.5478 12.1743V14.0249H31.0878L31.0811 11.3625Z" fill="white"/>
<path d="M40.0412 12.4704C40.0412 12.6493 40.0412 12.8144 40.0412 12.9589C40.0479 13.1034 40.0479 13.2342 40.0546 13.358C40.0612 13.4819 40.0612 13.5919 40.0746 13.702C40.0812 13.8121 40.0946 13.9153 40.1079 14.0254H39.6745C39.6411 13.8396 39.6278 13.647 39.6278 13.4268H39.6145C39.4811 13.6676 39.3144 13.8465 39.1143 13.9566C38.9143 14.0736 38.6609 14.1286 38.3608 14.1286C38.2008 14.1286 38.0541 14.108 37.9007 14.0667C37.7474 14.0254 37.614 13.9635 37.494 13.874C37.374 13.7915 37.2806 13.6745 37.2006 13.5369C37.1272 13.3924 37.0872 13.2342 37.0872 13.0346C37.0872 12.7525 37.1539 12.5255 37.2939 12.3603C37.434 12.1952 37.6073 12.0713 37.8141 11.9888C38.0208 11.9062 38.2341 11.8512 38.4675 11.8305C38.6943 11.803 38.901 11.7892 39.0743 11.7892H39.6145V11.5691C39.6145 11.2457 39.5211 11.0186 39.3277 10.881C39.141 10.7434 38.901 10.6746 38.6076 10.6746C38.1941 10.6746 37.8274 10.8122 37.514 11.0874L37.2406 10.7572C37.414 10.5852 37.6207 10.4544 37.8741 10.365C38.1275 10.2824 38.3675 10.2343 38.6009 10.2343C39.0343 10.2343 39.3811 10.3375 39.6345 10.5508C39.8945 10.7641 40.0212 11.1012 40.0212 11.5691L40.0412 12.4704ZM39.1077 12.1677C38.9143 12.1677 38.7209 12.1814 38.5409 12.209C38.3542 12.2365 38.1875 12.2778 38.0408 12.3466C37.8941 12.4085 37.774 12.4979 37.6874 12.6011C37.6007 12.7112 37.554 12.842 37.554 13.0002C37.554 13.1103 37.5807 13.2135 37.6273 13.303C37.674 13.3924 37.7474 13.4612 37.8207 13.5231C37.9007 13.5782 37.9808 13.6195 38.0808 13.647C38.1741 13.6745 38.2675 13.6883 38.3675 13.6883C38.6142 13.6883 38.8209 13.6539 38.981 13.5782C39.141 13.5025 39.2677 13.4062 39.3611 13.2892C39.4611 13.1653 39.5211 13.0277 39.5611 12.8832C39.5945 12.7319 39.6145 12.5736 39.6145 12.4223V12.1746L39.1077 12.1677Z" fill="white"/>
<path d="M40.8939 11.3695C40.8939 11.3007 40.8939 11.2182 40.8872 11.115C40.8805 11.0186 40.8805 10.9154 40.8739 10.8191C40.8672 10.7159 40.8672 10.6196 40.8605 10.537C40.8539 10.4475 40.8539 10.3856 40.8539 10.3306H41.3206C41.3273 10.4682 41.3273 10.6058 41.3273 10.7365C41.3273 10.8604 41.3406 10.9429 41.3473 10.9842H41.3673C41.4607 10.7778 41.614 10.6058 41.8341 10.4613C42.0475 10.3168 42.3075 10.248 42.5943 10.248C42.8743 10.248 43.101 10.2962 43.2811 10.3856C43.4545 10.4751 43.5945 10.592 43.7012 10.7434C43.8012 10.8948 43.8679 11.0599 43.9079 11.2526C43.9479 11.4452 43.9679 11.6448 43.9679 11.8443V14.0461H43.5011V11.8649C43.5011 11.7136 43.4878 11.576 43.4611 11.4315C43.4345 11.2938 43.3944 11.1631 43.3278 11.0462C43.2611 10.9292 43.1744 10.8466 43.0544 10.7778C42.9343 10.7159 42.7876 10.6815 42.6009 10.6815C42.4342 10.6815 42.2742 10.709 42.1142 10.7709C41.9608 10.8329 41.8341 10.9223 41.7207 11.0462C41.6074 11.17 41.5207 11.3283 41.454 11.5209C41.3873 11.7067 41.354 11.9337 41.354 12.1883V14.0392H40.8872L40.8939 11.3695Z" fill="white"/>
<path d="M45.7883 13.7364L47.9421 10.764H45.9017V10.3306H48.5823V10.6196L46.4418 13.5988H48.6756V14.0323H45.7883V13.7364Z" fill="white"/>
<path d="M49.0615 8.87172C49.0615 8.76853 49.0948 8.68598 49.1615 8.61718C49.2282 8.54839 49.3082 8.50711 49.4149 8.50711C49.5082 8.50711 49.5949 8.54151 49.6616 8.61718C49.7282 8.68598 49.7616 8.76853 49.7616 8.87172C49.7616 8.97492 49.7282 9.05747 49.6616 9.12627C49.5949 9.19506 49.5082 9.22946 49.4149 9.22946C49.3149 9.22946 49.2349 9.19506 49.1615 9.12627C49.0948 9.05059 49.0615 8.96804 49.0615 8.87172ZM49.1748 10.3302H49.6416V14.0314H49.1748V10.3302Z" fill="white"/>
<path d="M50.5616 11.3764C50.5616 11.3076 50.555 11.225 50.555 11.1218C50.5483 11.0255 50.5483 10.9223 50.5416 10.826C50.5416 10.7228 50.535 10.6264 50.535 10.5439C50.5283 10.4544 50.5283 10.3925 50.5283 10.3375H50.9951C51.0017 10.4751 51.0084 10.6127 51.0084 10.7434C51.0084 10.8673 51.0217 10.9498 51.0284 10.9911H51.0484C51.1418 10.7847 51.3018 10.6127 51.5152 10.4613C51.7352 10.3168 51.982 10.248 52.2754 10.248C52.5554 10.248 52.7821 10.2962 52.9555 10.3856C53.1355 10.4751 53.2689 10.592 53.3689 10.7434C53.469 10.8948 53.5356 11.0599 53.5823 11.2526C53.6157 11.4452 53.6357 11.6448 53.6357 11.8443V14.0461H53.1756V11.8649C53.1756 11.7136 53.1622 11.576 53.1355 11.4315C53.1089 11.2938 53.0689 11.1631 53.0022 11.0462C52.9355 10.9292 52.8488 10.8466 52.7288 10.7778C52.6088 10.709 52.4554 10.6746 52.2687 10.6746C52.0953 10.6746 51.9353 10.7021 51.7819 10.7641C51.6285 10.826 51.4952 10.9154 51.3818 11.0393C51.2751 11.1631 51.1884 11.3214 51.1218 11.514C51.0551 11.6998 51.0284 11.9269 51.0217 12.1814V14.0323H50.555L50.5616 11.3764Z" fill="white"/>
<path d="M57.9224 13.7979C57.9224 14.2519 57.8557 14.6303 57.7223 14.9123C57.5957 15.1944 57.429 15.4146 57.2423 15.5728C57.0423 15.7241 56.8356 15.8342 56.6156 15.8824C56.3956 15.9305 56.1889 15.958 56.0089 15.958C55.8288 15.958 55.6488 15.9374 55.4755 15.903C55.3021 15.8686 55.1421 15.8204 54.9821 15.7585C54.8288 15.6897 54.6888 15.6072 54.5621 15.5109C54.4354 15.4146 54.3287 15.3045 54.2287 15.1875L54.5954 14.8298C54.7621 15.0706 54.9621 15.2494 55.2088 15.3595C55.4622 15.4765 55.7222 15.5315 56.0022 15.5315C56.2355 15.5315 56.4422 15.4971 56.6022 15.4352C56.7689 15.3733 56.9023 15.2907 57.0089 15.1875C57.1156 15.0843 57.1956 14.9674 57.2556 14.8435C57.3156 14.7197 57.3623 14.5959 57.389 14.4652C57.4156 14.3413 57.4356 14.2244 57.4423 14.1074C57.4423 13.9974 57.449 13.9079 57.449 13.8323V13.3232H57.4356C57.3023 13.5502 57.1223 13.7222 56.8889 13.8529C56.6556 13.9767 56.3889 14.0455 56.0755 14.0455C55.8155 14.0455 55.5688 13.9974 55.3288 13.8942C55.0955 13.7979 54.8954 13.6603 54.7221 13.4883C54.5487 13.3163 54.4154 13.1168 54.3087 12.8829C54.2087 12.6559 54.162 12.4082 54.162 12.1468C54.162 11.8853 54.2154 11.6446 54.3154 11.4107C54.4154 11.1768 54.5554 10.9772 54.7288 10.8121C54.9021 10.6401 55.1021 10.5026 55.3355 10.4062C55.5688 10.3031 55.8222 10.2549 56.0822 10.2549C56.3956 10.2549 56.6623 10.3168 56.8889 10.4475C57.1223 10.5782 57.3023 10.7502 57.4356 10.9772H57.449V10.3512H57.9157L57.9224 13.7979ZM57.4757 12.1399C57.4757 11.9335 57.4356 11.7478 57.3623 11.5689C57.289 11.39 57.189 11.2318 57.0623 11.1011C56.9356 10.9704 56.7889 10.8672 56.6089 10.7915C56.4356 10.7158 56.2555 10.6745 56.0555 10.6745C55.8555 10.6745 55.6688 10.7158 55.5022 10.7915C55.3288 10.8672 55.1821 10.9704 55.0488 11.1011C54.9221 11.2318 54.8221 11.39 54.7488 11.5689C54.6754 11.7478 54.6354 11.9335 54.6354 12.1399C54.6354 12.3394 54.6754 12.532 54.7488 12.7109C54.8221 12.8898 54.9221 13.048 55.0488 13.1787C55.1755 13.3094 55.3221 13.4126 55.5022 13.4952C55.6755 13.5708 55.8622 13.6121 56.0555 13.6121C56.2489 13.6121 56.4289 13.5708 56.6089 13.4952C56.7823 13.4195 56.9356 13.3163 57.0623 13.1856C57.189 13.0549 57.289 12.9035 57.3623 12.7178C57.4356 12.532 57.4757 12.3463 57.4757 12.1399Z" fill="white"/>
<path d="M64.9625 13.674C64.6492 13.8598 64.3158 13.9905 63.9691 14.0662C63.6291 14.1418 63.2757 14.1831 62.9224 14.1831C62.5023 14.1831 62.1223 14.1074 61.7689 13.963C61.4222 13.8116 61.1222 13.6121 60.8689 13.3438C60.6222 13.0824 60.4288 12.7659 60.2888 12.4013C60.1488 12.0367 60.0821 11.6377 60.0821 11.2043C60.0821 10.7777 60.1488 10.3718 60.2955 10.0141C60.4355 9.64949 60.6288 9.33991 60.8755 9.0716C61.1289 8.81018 61.4222 8.6038 61.7756 8.45245C62.129 8.3011 62.509 8.2323 62.929 8.2323C63.7424 8.2323 64.4025 8.49372 64.9092 9.01657L64.5358 9.42246C64.4558 9.31927 64.3492 9.22295 64.2292 9.13352C64.1091 9.05097 63.9758 8.97529 63.8358 8.91337C63.6958 8.85146 63.5491 8.8033 63.3891 8.7689C63.2357 8.73451 63.0824 8.71387 62.929 8.71387C62.5757 8.71387 62.249 8.78266 61.9623 8.91337C61.6756 9.03721 61.4356 9.21607 61.2289 9.4431C61.0289 9.66324 60.8755 9.93155 60.7622 10.2342C60.6555 10.5369 60.5955 10.8672 60.5955 11.218C60.5955 11.5689 60.6488 11.8991 60.7622 12.2018C60.8689 12.5045 61.0289 12.7728 61.2289 12.9929C61.4289 13.2131 61.6756 13.392 61.9623 13.5158C62.249 13.6465 62.5757 13.7084 62.929 13.7084C63.2224 13.7084 63.5024 13.6809 63.7558 13.6396C64.0158 13.5915 64.2492 13.502 64.4625 13.3782V11.4726H63.1424V10.991H64.9692L64.9625 13.674Z" fill="white"/>
<path d="M69.0964 13.3511C68.9164 13.6332 68.6897 13.8328 68.423 13.9566C68.1562 14.0736 67.8628 14.1355 67.5428 14.1355C67.2694 14.1355 67.0226 14.0873 66.7959 13.991C66.5692 13.8947 66.3825 13.7571 66.2225 13.5851C66.0624 13.413 65.9424 13.2066 65.8557 12.9658C65.7757 12.725 65.729 12.4635 65.729 12.1746C65.729 11.8993 65.7757 11.6448 65.8624 11.4108C65.9557 11.1769 66.0758 10.9705 66.2358 10.7985C66.3958 10.6264 66.5825 10.4888 66.8026 10.3925C67.0226 10.2962 67.2627 10.248 67.5228 10.248C67.7961 10.248 68.0429 10.2962 68.2496 10.3925C68.4563 10.4888 68.6363 10.6196 68.7697 10.7847C68.9164 10.9498 69.0231 11.1356 69.0898 11.342C69.1631 11.5484 69.1965 11.7617 69.1965 11.975V12.3122H66.1825C66.1825 12.4085 66.2025 12.5392 66.2425 12.6975C66.2825 12.8557 66.3492 13.0071 66.4558 13.1585C66.5559 13.3098 66.6959 13.4406 66.8693 13.5438C67.0426 13.6539 67.2694 13.702 67.5428 13.702C67.7828 13.702 68.0095 13.6401 68.2296 13.5231C68.4496 13.4062 68.623 13.2479 68.743 13.0415L69.0964 13.3511ZM68.7364 11.8856C68.7364 11.7204 68.703 11.5622 68.6363 11.4177C68.5763 11.2732 68.4896 11.1494 68.3763 11.0324C68.2629 10.9223 68.1362 10.8397 67.9762 10.7778C67.8228 10.709 67.6628 10.6815 67.4894 10.6815C67.236 10.6815 67.0226 10.7365 66.8559 10.8397C66.6892 10.9429 66.5559 11.0668 66.4558 11.2044C66.3558 11.342 66.2891 11.4796 66.2425 11.6104C66.2025 11.7411 66.1825 11.8305 66.1825 11.8787L68.7364 11.8856Z" fill="white"/>
<path d="M69.7621 11.3902C69.7621 11.3214 69.7554 11.2388 69.7554 11.1356C69.7488 11.0393 69.7488 10.9361 69.7421 10.8397C69.7421 10.7365 69.7354 10.6402 69.7288 10.5576C69.7221 10.4682 69.7221 10.4063 69.7221 10.3512H70.1889C70.1889 10.4888 70.1955 10.6264 70.1955 10.7572C70.1955 10.881 70.2022 10.9636 70.2155 11.0049H70.2355C70.3289 10.7985 70.4823 10.6264 70.709 10.4751C70.9224 10.3306 71.1758 10.2618 71.4691 10.2618C71.7492 10.2618 71.9759 10.3099 72.156 10.3994C72.3293 10.4888 72.4694 10.6058 72.5694 10.7572C72.6694 10.9085 72.7361 11.0737 72.7828 11.2663C72.8228 11.459 72.8428 11.6585 72.8428 11.8581V14.0598H72.376V11.8787C72.376 11.7273 72.3627 11.5897 72.336 11.4452C72.3093 11.3076 72.2627 11.1769 72.196 11.0599C72.1293 10.9429 72.0426 10.8604 71.9226 10.7916C71.8026 10.7297 71.6559 10.6952 71.4691 10.6952C71.2958 10.6952 71.1357 10.7228 70.9824 10.7847C70.8357 10.8466 70.6956 10.9361 70.589 11.0599C70.4823 11.1838 70.3956 11.342 70.3289 11.5347C70.2689 11.7204 70.2355 11.9475 70.2289 12.2021V14.0529H69.7621V11.3902Z" fill="white"/>
<path d="M73.3694 12.2021C73.3694 11.92 73.4161 11.6585 73.5094 11.4177C73.6028 11.1838 73.7361 10.9773 73.8962 10.8053C74.0629 10.6264 74.2629 10.4957 74.4896 10.3994C74.723 10.3031 74.9764 10.2549 75.2498 10.2549C75.5232 10.2549 75.7766 10.3031 76.01 10.3994C76.2367 10.4957 76.4367 10.6264 76.6034 10.8053C76.7701 10.9773 76.9035 11.1838 76.9969 11.4177C77.0902 11.6585 77.1369 11.92 77.1369 12.2021C77.1369 12.4842 77.0902 12.7456 76.9969 12.9796C76.9035 13.2204 76.7701 13.4268 76.6034 13.5988C76.4367 13.7708 76.2367 13.9084 76.01 14.0048C75.7766 14.1011 75.5232 14.1493 75.2498 14.1493C74.9764 14.1493 74.723 14.1011 74.4896 14.0048C74.2629 13.9084 74.0629 13.7708 73.8962 13.5988C73.7295 13.4268 73.6028 13.2204 73.5094 12.9796C73.4161 12.7456 73.3694 12.4842 73.3694 12.2021ZM73.8361 12.2021C73.8361 12.4085 73.8695 12.608 73.9362 12.7869C74.0028 12.9727 74.0895 13.1378 74.2162 13.2686C74.3429 13.4062 74.4896 13.5163 74.6697 13.5988C74.8497 13.6814 75.0431 13.7227 75.2565 13.7227C75.4765 13.7227 75.6699 13.6814 75.8433 13.6057C76.0233 13.5231 76.17 13.413 76.2967 13.2754C76.4167 13.1447 76.5168 12.9796 76.5834 12.7938C76.6501 12.6149 76.6835 12.4154 76.6835 12.209C76.6835 12.0025 76.6501 11.803 76.5834 11.6172C76.5168 11.4315 76.4234 11.2732 76.3034 11.1356C76.1767 10.998 76.03 10.8879 75.8499 10.8122C75.6766 10.7296 75.4832 10.6884 75.2631 10.6884C75.0431 10.6884 74.8497 10.7296 74.6763 10.8053C74.4963 10.881 74.3496 10.9911 74.2229 11.1287C74.0962 11.2663 74.0095 11.4246 73.9428 11.6104C73.8695 11.7961 73.8361 11.9957 73.8361 12.2021Z" fill="white"/>
<path d="M77.8097 11.3969C77.8097 11.3281 77.8031 11.2456 77.8031 11.1424C77.7964 11.046 77.7964 10.9429 77.7897 10.8465C77.7897 10.7433 77.7831 10.647 77.7764 10.5645C77.7697 10.475 77.7697 10.4131 77.7697 10.3581H78.2365C78.2365 10.4957 78.2431 10.6333 78.2431 10.764C78.2431 10.8878 78.2498 10.9704 78.2631 11.0116H78.2831C78.3765 10.8053 78.5298 10.6333 78.7498 10.4819C78.9632 10.3375 79.2165 10.2687 79.5099 10.2687C79.7499 10.2687 79.9633 10.3306 80.1633 10.4544C80.3566 10.5782 80.4967 10.7777 80.59 11.0667C80.7033 10.7915 80.87 10.5851 81.0967 10.4613C81.3167 10.3306 81.5567 10.2687 81.8034 10.2687C82.0835 10.2687 82.3101 10.3168 82.4835 10.4062C82.6568 10.4957 82.8035 10.6126 82.8969 10.764C82.9969 10.9153 83.0635 11.0804 83.1035 11.2731C83.1435 11.4657 83.1635 11.6652 83.1635 11.8647V14.0662H82.6968V11.8853C82.6968 11.734 82.6835 11.5964 82.6568 11.4519C82.6302 11.3143 82.5835 11.1836 82.5235 11.0667C82.4568 10.9497 82.3635 10.8672 82.2501 10.7984C82.1368 10.7365 81.9834 10.7021 81.7968 10.7021C81.5834 10.7021 81.4034 10.7433 81.2634 10.8259C81.1234 10.9085 81.01 11.0185 80.93 11.1424C80.85 11.2662 80.79 11.4107 80.7567 11.5551C80.7233 11.7065 80.7033 11.851 80.7033 11.9817V14.0593H80.2366V11.8303C80.2366 11.4863 80.1766 11.218 80.0566 11.0116C79.9366 10.8053 79.7499 10.7021 79.4966 10.6952C79.3299 10.6952 79.1699 10.7227 79.0099 10.7846C78.8565 10.8465 78.7232 10.936 78.6165 11.0598C78.5031 11.1836 78.4165 11.3419 78.3498 11.5345C78.2831 11.7202 78.2498 11.9473 78.2498 12.2018V14.0524H77.7897L77.8097 11.3969Z" fill="white"/>
<path d="M83.9495 8.89924C83.9495 8.79604 83.9828 8.71349 84.0495 8.64469C84.1161 8.5759 84.1962 8.53462 84.2962 8.53462C84.3962 8.53462 84.4762 8.5759 84.5495 8.64469C84.6162 8.71349 84.6495 8.79604 84.6495 8.89924C84.6495 9.00243 84.6162 9.08499 84.5495 9.15378C84.4762 9.22258 84.3962 9.25697 84.2962 9.25697C84.1962 9.25697 84.1161 9.22258 84.0495 9.15378C83.9828 9.08499 83.9495 8.99555 83.9495 8.89924ZM84.0628 10.3646H84.5295V14.0658H84.0628V10.3646Z" fill="white"/>
<path d="M88.3173 13.5163C88.1372 13.7364 87.9372 13.8947 87.7171 14.0048C87.4971 14.108 87.2503 14.1561 86.9903 14.1561C86.7169 14.1561 86.4635 14.108 86.2301 14.0116C85.9967 13.9153 85.7967 13.7777 85.6366 13.6057C85.4699 13.4337 85.3432 13.2273 85.2499 12.9865C85.1565 12.7456 85.1099 12.4911 85.1099 12.209C85.1099 11.9269 85.1565 11.6654 85.2499 11.4246C85.3432 11.1906 85.4699 10.9842 85.6433 10.8122C85.81 10.6333 86.0034 10.5026 86.2434 10.4063C86.4768 10.3099 86.7302 10.2618 87.0036 10.2618C87.2637 10.2618 87.5104 10.3168 87.7371 10.4269C87.9638 10.5439 88.1639 10.6952 88.3373 10.9017L87.9638 11.1906C87.8238 11.0393 87.6838 10.9154 87.5237 10.826C87.3637 10.7434 87.1903 10.6952 87.0036 10.6952C86.7836 10.6952 86.5902 10.7365 86.4168 10.8122C86.2434 10.8879 86.0901 10.998 85.9634 11.1356C85.8367 11.2732 85.7433 11.4315 85.6833 11.6172C85.6166 11.803 85.5833 11.9957 85.5833 12.209C85.5833 12.4154 85.6166 12.6149 85.6833 12.7938C85.75 12.9796 85.8433 13.1447 85.9634 13.2754C86.0901 13.413 86.2368 13.5231 86.4168 13.6057C86.5902 13.6883 86.7902 13.7295 87.0036 13.7295C87.197 13.7295 87.3837 13.6814 87.5437 13.5919C87.7104 13.5025 87.8505 13.3786 87.9705 13.2204L88.3173 13.5163Z" fill="white"/>
<path d="M89.0359 13.1241C89.1359 13.3236 89.2827 13.475 89.4694 13.5713C89.6627 13.6745 89.8628 13.7296 90.0762 13.7296C90.1695 13.7296 90.2695 13.7089 90.3696 13.6814C90.4629 13.647 90.5563 13.6057 90.6296 13.5438C90.7096 13.4887 90.7697 13.413 90.823 13.3305C90.8764 13.2479 90.8964 13.1516 90.8964 13.0484C90.8964 12.8764 90.843 12.7456 90.7363 12.6631C90.6296 12.5805 90.4963 12.5117 90.3429 12.4635C90.1895 12.4154 90.0228 12.3741 89.8361 12.3397C89.6494 12.3053 89.4827 12.2502 89.3227 12.1746C89.1626 12.1058 89.0359 12.0025 88.9292 11.8787C88.8226 11.748 88.7692 11.5691 88.7692 11.3351C88.7692 11.1562 88.8092 10.998 88.8759 10.8673C88.9492 10.7365 89.0426 10.6196 89.1626 10.5301C89.276 10.4475 89.4094 10.3787 89.5561 10.3375C89.7028 10.2962 89.8494 10.2755 89.9961 10.2755C90.2895 10.2755 90.5429 10.3306 90.763 10.4407C90.9764 10.5576 91.1431 10.7297 91.2631 10.9705L90.843 11.225C90.7497 11.053 90.643 10.9292 90.5163 10.8329C90.3829 10.7503 90.2095 10.7021 89.9961 10.7021C89.9161 10.7021 89.8294 10.7159 89.7361 10.7434C89.6494 10.7709 89.5694 10.8053 89.496 10.8535C89.4294 10.8948 89.3627 10.9636 89.316 11.0393C89.2693 11.115 89.2427 11.1975 89.2427 11.2939C89.2427 11.459 89.296 11.5828 89.4027 11.6654C89.5094 11.7411 89.6361 11.8099 89.7894 11.8512C89.9495 11.8925 90.1162 11.9337 90.3096 11.9681C90.4896 12.0025 90.663 12.0507 90.8163 12.1264C90.9697 12.1952 91.1031 12.2984 91.2098 12.436C91.3165 12.5736 91.3698 12.7663 91.3698 13.014C91.3698 13.2066 91.3365 13.3718 91.2631 13.5163C91.1898 13.6539 91.0964 13.7708 90.9764 13.874C90.8563 13.9704 90.7163 14.0392 90.563 14.0873C90.4096 14.1355 90.2429 14.163 90.0695 14.163C89.7628 14.163 89.476 14.1011 89.2226 13.9772C88.9693 13.8534 88.7692 13.6607 88.6292 13.4062L89.0359 13.1241Z" fill="white"/>
<path d="M44.6218 8.86484C44.6218 8.76165 44.6551 8.6791 44.7218 8.6103C44.7884 8.54151 44.8684 8.50023 44.9685 8.50023C45.0685 8.50023 45.1485 8.54151 45.2151 8.6103C45.2818 8.6791 45.3151 8.76165 45.3151 8.86484C45.3151 8.96804 45.2818 9.05059 45.2151 9.11939C45.1485 9.18818 45.0618 9.22258 44.9685 9.22258C44.8684 9.22258 44.7884 9.18818 44.7218 9.11939C44.6551 9.05059 44.6218 8.96804 44.6218 8.86484ZM44.7351 10.3302H45.2018V14.0314H44.7351V10.3302Z" fill="white"/>
</svg>
