<svg xmlns="http://www.w3.org/2000/svg" width="26" height="26" viewBox="0 0 26 26">
    <g>
        <g fill="none">
            <path d="M13 0A13 13 0 1 1 0 13 13 13 0 0 1 13 0z" transform="translate(-947 -1217) translate(947 1217)"/>
            <path fill="#333" d="M13 2c-2.938 0-5.7 1.144-7.778 3.222C3.144 7.299 2 10.062 2 13c0 2.938 1.144 5.7 3.222 7.778C7.299 22.856 10.062 24 13 24c2.938 0 5.7-1.144 7.778-3.222C22.856 18.701 24 15.938 24 13c0-2.938-1.144-5.7-3.222-7.778C18.701 3.144 15.938 2 13 2m0-2c7.18 0 13 5.82 13 13s-5.82 13-13 13S0 20.18 0 13 5.82 0 13 0z" transform="translate(-947 -1217) translate(947 1217)"/>
        </g>
        <path fill="#333" d="M14694 20299.416l1.412-1.412 4.95 4.945 4.951-4.951 1.412 1.418-4.951 4.945-1.416 1.418z" transform="translate(-947 -1217) translate(-13740.004 -19071)"/>
    </g>
</svg>
