<svg xmlns="http://www.w3.org/2000/svg" width="46.866" height="70.699" viewBox="0 0 46.866 70.699">
    <defs>
        <style>
            .cls-1{fill:none;stroke:#333;stroke-linecap:round;stroke-miterlimit:10;stroke-width:1.5px}.cls-2{fill:#333}.cls-4{fill:#35ceb3}
        </style>
    </defs>
    <g id="icon" transform="translate(-1284.908 -383.285)">
        <path id="패스_527" d="M1305.178 403.483s.5 8.492-13.141 14.579" class="cls-1"/>
        <path id="패스_528" d="M1307.75 403.483s.265 2.173 3.289 4.878 6.969 5.614 8.113 8.575" class="cls-1"/>
        <path id="패스_529" d="M1308.256 393.817c.364.059-1.8 6.324-3.075 6.763s-6.405.621-11.311 5.958-4.574 11.387-5.128 11.524-3.246-7.174-.627-12.913 8.706-13.196 20.141-11.332z" class="cls-1"/>
        <path id="패스_530" d="M1311.593 394.291a12.473 12.473 0 0 1 8.615 7.385c2.471 6.215 1.77 13.416 1.291 14.476s0-7.348-5.312-11.478-7.213-3.584-7.287-3.949 2.14-6.325 2.693-6.434z" class="cls-1"/>
        <path id="패스_531" d="M1297.231 391.992a8.138 8.138 0 0 1 16.271 0" class="cls-1"/>
        <ellipse id="타원_156" cx="1.476" cy="1.628" class="cls-2" rx="1.476" ry="1.628" transform="translate(1297.133 419.296)"/>
        <path id="패스_532" d="M1295.788 417.709s3.1-1.294 5.422 0" class="cls-1"/>
        <ellipse id="타원_157" cx="1.476" cy="1.628" class="cls-2" rx="1.476" ry="1.628" transform="translate(1311.593 419.296)"/>
        <path id="패스_533" d="M1310.58 417.709s3.1-1.294 5.422 0" class="cls-1"/>
        <path id="패스_534" d="M1300.4 432.236a9.259 9.259 0 0 0 10.909 0" class="cls-1"/>
        <path id="패스_535" d="M1290.55 419.917s.111 10.235 2.434 13.05 8.512 10.381 12.87 10.381" class="cls-1"/>
        <path id="패스_536" d="M1321.314 418.82s-.263 11.332-2.587 14.147-8.511 10.381-12.869 10.381" class="cls-1"/>
        <path id="패스_537" d="M1287.135 419.625s-2.18 2.485-1.127 5.154 1.164 3.8 2.676 4.313" class="cls-1"/>
        <path id="패스_538" d="M1324.378 419.625s2.18 2.485 1.127 5.154-1.164 3.8-2.676 4.313" class="cls-1"/>
        <path id="패스_539" d="M1295.2 435.6a35.843 35.843 0 0 1-.966 17.438" class="cls-1"/>
        <path id="패스_540" d="M1316.514 435.6a35.85 35.85 0 0 0 .967 17.438" class="cls-1"/>
        <path id="패스_541" d="M1307.525 427.563c0 .563-.746 1.019-1.667 1.019-.92 0-1.667-.456-1.667-1.019" class="cls-1"/>
        <ellipse id="타원_158" cx="6.263" cy="6.206" fill="#fff" stroke="#333" stroke-linecap="round" stroke-miterlimit="10" stroke-width="1.5px" rx="6.263" ry="6.206" transform="translate(1313.662 425.708)"/>
        <path id="선_149" d="M0 0L5.857 4.625" class="cls-1" transform="translate(1324.864 436.082)"/>
        <path id="패스_542" d="M1319.925 428.3s-1.923 2.591-1.925 4.2a1.972 1.972 0 0 0 1.9 2.2 1.9 1.9 0 0 0 1.954-2.075c-.004-1.798-1.929-4.325-1.929-4.325z" class="cls-4"/>
        <path id="패스_543" d="M1323.775 423.714s-1.924 2.59-1.925 4.2a1.973 1.973 0 0 0 1.9 2.2 1.9 1.9 0 0 0 1.954-2.076c-.004-1.8-1.929-4.324-1.929-4.324z" class="cls-4"/>
    </g>
</svg>
