<svg xmlns="http://www.w3.org/2000/svg" width="52.5" height="60.5" viewBox="0 0 52.5 60.5">
    <defs>
        <style>
            .cls-1,.cls-2{fill:none;stroke:#333;stroke-linecap:round;stroke-miterlimit:10;stroke-width:1.5px}.cls-2{stroke:#35ceb3}.cls-4{fill:#35ceb3}
        </style>
    </defs>
    <g id="icon" transform="translate(-928.971 -638.285)">
        <g id="그룹_2841">
            <path id="패스_544" d="M957.075 642.606h-3.82a4.348 4.348 0 0 0-8.556 0h-3.819a1.236 1.236 0 0 0-1.241 1.231v5.786a1.236 1.236 0 0 0 1.241 1.23h16.2a1.235 1.235 0 0 0 1.24-1.23v-5.786a1.235 1.235 0 0 0-1.245-1.231z" class="cls-1"/>
            <path id="패스_545" d="M961.987 645.506h4.6a1.236 1.236 0 0 1 1.241 1.231v43.708a1.236 1.236 0 0 1-1.241 1.231h-35.626a1.235 1.235 0 0 1-1.24-1.231v-43.708a1.235 1.235 0 0 1 1.24-1.231h5.007" class="cls-1"/>
            <path id="선_150" d="M0 0L26.638 0" class="cls-2" transform="translate(935.339 658.033)"/>
            <path id="선_151" d="M0 0L26.638 0" class="cls-2" transform="translate(935.339 665.115)"/>
            <path id="선_152" d="M0 0L26.638 0" class="cls-2" transform="translate(935.339 672.197)"/>
            <path id="선_153" d="M0 0L26.638 0" class="cls-2" transform="translate(935.339 679.149)"/>
        </g>
        <g id="그룹_2843">
            <ellipse id="타원_159" cx="15.756" cy="15.604" fill="#fff" stroke="#1a1a1a" stroke-linecap="round" stroke-miterlimit="10" stroke-width="1.5px" rx="15.756" ry="15.604" transform="translate(949.208 666.827)"/>
            <g id="그룹_2842">
                <path id="패스_546" d="M971.973 682.044h-.083a1.136 1.136 0 0 0-.888.385 1.237 1.237 0 0 0-.3.82 1.157 1.157 0 0 0 1.183 1.2h.083a1.13 1.13 0 0 0 .889-.384 1.242 1.242 0 0 0 .294-.82 1.157 1.157 0 0 0-1.178-1.201z" class="cls-4"/>
                <path id="패스_547" d="M970.174 688.03v.084a1.217 1.217 0 0 0 2.433 0v-.084a1.218 1.218 0 0 0-2.433 0z" class="cls-4"/>
                <path id="패스_548" d="M968.505 686.987a1.144 1.144 0 0 0-.023-1.682 1.174 1.174 0 0 0-1.7-.023l-.082.083a1.1 1.1 0 0 0-.319 1.1 1.344 1.344 0 0 0 .925.917 1.225 1.225 0 0 0 .3.039 1.151 1.151 0 0 0 .816-.355z" class="cls-4"/>
                <path id="패스_549" d="M965.064 689.217a1.206 1.206 0 0 0 0 2.411 1.145 1.145 0 0 0 .89-.385 1.251 1.251 0 0 0 .293-.821 1.157 1.157 0 0 0-1.183-1.205z" class="cls-4"/>
                <path id="패스_550" d="M961.9 684.929h-.083a1.135 1.135 0 0 0-.888.385 1.25 1.25 0 0 0-.3.82 1.158 1.158 0 0 0 1.183 1.206h.083a1.206 1.206 0 0 0 0-2.411z" class="cls-4"/>
                <path id="패스_551" d="M964.8 681.847a1.157 1.157 0 0 0 1.183 1.206 1.138 1.138 0 0 0 .888-.383 1.25 1.25 0 0 0 .3-.822 1.183 1.183 0 1 0-2.366 0z" class="cls-4"/>
                <path id="패스_552" d="M961.037 680.281v-.081a1.116 1.116 0 0 0-.388-.881 1.28 1.28 0 0 0-.829-.291 1.159 1.159 0 0 0-1.22 1.172v.082a1.218 1.218 0 0 0 2.434 0z" class="cls-4"/>
                <path id="패스_553" d="M957.271 688.2v.084a1.217 1.217 0 0 0 2.433 0v-.084a1.218 1.218 0 0 0-2.433 0z" class="cls-4"/>
                <path id="패스_554" d="M968.977 691.2a1.134 1.134 0 0 0-.889.383 1.245 1.245 0 0 0-.295.82 1.159 1.159 0 0 0 1.184 1.207 1.134 1.134 0 0 0 .888-.384 1.241 1.241 0 0 0 .295-.822 1.157 1.157 0 0 0-1.183-1.204z" class="cls-4"/>
                <path id="패스_555" d="M961.567 690.7a1.205 1.205 0 0 0 0 2.41 1.142 1.142 0 0 0 .891-.385 1.251 1.251 0 0 0 .293-.821 1.157 1.157 0 0 0-1.184-1.204z" class="cls-4"/>
                <path id="패스_556" d="M958.422 683.332a1.157 1.157 0 0 0-1.183-1.2 1.134 1.134 0 0 0-.889.384 1.248 1.248 0 0 0-.294.82 1.157 1.157 0 0 0 1.183 1.206 1.137 1.137 0 0 0 .888-.384 1.246 1.246 0 0 0 .295-.826z" class="cls-4"/>
                <path id="패스_557" d="M965.108 678.324l.11-.109a1.31 1.31 0 0 0 .377-.961 1.2 1.2 0 0 0-.385-.876 1.337 1.337 0 0 0-1.842.005l-.11.108a1.32 1.32 0 0 0-.378.962 1.2 1.2 0 0 0 .384.877 1.385 1.385 0 0 0 .932.364 1.288 1.288 0 0 0 .912-.37z" class="cls-4"/>
                <path id="패스_558" d="M968.909 678.7a1.347 1.347 0 0 0 .315.883 1.227 1.227 0 0 0 .956.412 1.244 1.244 0 0 0 1.272-1.3 1.334 1.334 0 0 0-.317-.883 1.22 1.22 0 0 0-.955-.413 1.245 1.245 0 0 0-1.271 1.301z" class="cls-4"/>
                <path id="패스_559" d="M967.946 673.573a1.345 1.345 0 0 0 .943.374h.03a1.225 1.225 0 0 0 .884-.382 1.306 1.306 0 0 0-.006-1.825l-.11-.108a1.3 1.3 0 0 0-.971-.374 1.228 1.228 0 0 0-.886.38 1.309 1.309 0 0 0 .007 1.826z" class="cls-4"/>
                <path id="패스_560" d="M975.378 677.3a1.34 1.34 0 0 0-.317-.882 1.221 1.221 0 0 0-.955-.413 1.244 1.244 0 0 0-1.272 1.3 1.352 1.352 0 0 0 .315.883 1.226 1.226 0 0 0 .957.412 1.245 1.245 0 0 0 1.272-1.3z" class="cls-4"/>
                <path id="패스_561" d="M975.522 684.966a1.244 1.244 0 0 0-1.27 1.3 1.346 1.346 0 0 0 .315.882 1.223 1.223 0 0 0 .955.412 1.245 1.245 0 0 0 1.273-1.3 1.344 1.344 0 0 0-.316-.883 1.225 1.225 0 0 0-.957-.411z" class="cls-4"/>
                <path id="패스_562" d="M976.955 680.132a1.227 1.227 0 0 0-.9-.348 1.324 1.324 0 0 0-1.3 1.295v.107a1.32 1.32 0 0 0 .421.948 1.23 1.23 0 0 0 .846.35h.051a1.325 1.325 0 0 0 1.3-1.3v-.107a1.315 1.315 0 0 0-.418-.945z" class="cls-4"/>
                <path id="패스_563" d="M964.4 674.815a1.243 1.243 0 0 0 1.271-1.3 1.348 1.348 0 0 0-.315-.882 1.222 1.222 0 0 0-.956-.412 1.244 1.244 0 0 0-1.272 1.3 1.336 1.336 0 0 0 .317.882 1.216 1.216 0 0 0 .955.412z" class="cls-4"/>
                <path id="패스_564" d="M953.824 683.563a1.245 1.245 0 0 0-1.272 1.3 1.341 1.341 0 0 0 .317.883 1.22 1.22 0 0 0 .955.412 1.243 1.243 0 0 0 1.272-1.3 1.349 1.349 0 0 0-.315-.883 1.226 1.226 0 0 0-.957-.412z" class="cls-4"/>
            </g>
        </g>
    </g>
</svg>
