<svg xmlns="http://www.w3.org/2000/svg" width="41.625" height="70.699" viewBox="0 0 41.625 70.699">
    <defs>
        <style>
            .cls-1{fill:none;stroke:#333;stroke-linecap:round;stroke-miterlimit:10;stroke-width:1.5px}.cls-2{fill:#333}.cls-3{fill:#35ceb3}
        </style>
    </defs>
    <g id="icon" transform="translate(-1464.408 -383.285)">
        <g id="그룹_2840">
            <path id="패스_510" d="M1484.643 403.483s.5 8.492-13.117 14.579" class="cls-1"/>
            <path id="패스_511" d="M1487.211 403.483s.264 2.173 3.283 4.878 6.957 5.614 8.1 8.575" class="cls-1"/>
            <path id="패스_512" d="M1487.716 393.817c.363.059-1.795 6.324-3.07 6.763s-6.393.621-11.291 5.958-4.566 11.387-5.118 11.524-3.24-7.174-.626-12.913 8.689-13.196 20.105-11.332z" class="cls-1"/>
            <path id="패스_513" d="M1491.047 394.291a12.452 12.452 0 0 1 8.6 7.385c2.467 6.215 1.768 13.416 1.289 14.476s0-7.348-5.3-11.478-7.2-3.584-7.274-3.949 2.133-6.325 2.685-6.434z" class="cls-1"/>
            <path id="패스_514" d="M1476.711 391.992a8.123 8.123 0 0 1 16.242 0" class="cls-1"/>
            <ellipse id="타원_154" cx="1.473" cy="1.628" class="cls-2" rx="1.473" ry="1.628" transform="translate(1476.613 419.296)"/>
            <path id="패스_515" d="M1475.27 417.709s3.093-1.294 5.413 0" class="cls-1"/>
            <ellipse id="타원_155" cx="1.473" cy="1.628" class="cls-2" rx="1.473" ry="1.628" transform="translate(1491.047 419.296)"/>
            <path id="패스_516" d="M1490.036 417.709s3.093-1.294 5.412 0" class="cls-1"/>
            <path id="패스_517" d="M1479.873 432.236a9.23 9.23 0 0 0 10.89 0" class="cls-1"/>
            <path id="패스_518" d="M1470.041 419.917s.111 10.235 2.43 13.05 8.5 10.381 12.847 10.381" class="cls-1"/>
            <path id="패스_519" d="M1500.751 418.82s-.263 11.332-2.582 14.147-8.5 10.381-12.847 10.381" class="cls-1"/>
            <path id="패스_520" d="M1466.632 419.625s-2.175 2.485-1.124 5.154 1.161 3.8 2.671 4.313" class="cls-1"/>
            <path id="패스_521" d="M1503.809 419.625s2.176 2.485 1.125 5.154-1.162 3.8-2.671 4.313" class="cls-1"/>
            <path id="패스_522" d="M1474.688 435.6a35.907 35.907 0 0 1-.965 17.438" class="cls-1"/>
            <path id="패스_523" d="M1495.959 435.6a35.907 35.907 0 0 0 .965 17.438" class="cls-1"/>
            <path id="패스_524" d="M1486.987 427.563c0 .563-.745 1.019-1.665 1.019-.919 0-1.664-.456-1.664-1.019" class="cls-1"/>
            <path id="패스_525" d="M1497.357 425.646c-.13 2.017-1.619 4.819-3.152 4.723s-2.672-1.81-2.543-3.828a3.414 3.414 0 0 1 3.011-3.476c1.535-.059 2.813.564 2.684 2.581z" class="cls-3"/>
            <path id="패스_526" d="M1473.288 425.646c.13 2.017 1.62 4.819 3.153 4.723s2.672-1.81 2.541-3.828a3.412 3.412 0 0 0-3.01-3.476c-1.535-.059-2.813.564-2.684 2.581z" class="cls-3"/>
        </g>
    </g>
</svg>
