<svg xmlns="http://www.w3.org/2000/svg" width="46.867" height="74.73" viewBox="0 0 46.867 74.73">
    <defs>
        <style>
            .cls-1{fill:none}.cls-1,.cls-5{stroke:#333;stroke-linecap:round;stroke-width:1.5px}.cls-1{stroke-miterlimit:10}.cls-2{fill:#333}.cls-5{fill:#fff;stroke-linejoin:round}
        </style>
    </defs>
    <g id="icon" transform="translate(-1281.908 -629.285)">
        <path id="패스_587" d="M1302.178 649.455s.5 8.481-13.141 14.56" class="cls-1"/>
        <path id="패스_588" d="M1304.75 649.455s.265 2.171 3.289 4.872 6.969 5.606 8.113 8.563" class="cls-1"/>
        <path id="패스_589" d="M1305.256 639.8c.364.06-1.8 6.315-3.075 6.753s-6.405.621-11.311 5.951-4.574 11.371-5.128 11.508-3.246-7.165-.627-12.9 8.706-13.17 20.141-11.312z" class="cls-1"/>
        <path id="패스_590" d="M1308.593 640.277a12.469 12.469 0 0 1 8.615 7.375c2.471 6.205 1.77 13.4 1.291 14.455s0-7.337-5.312-11.462-7.213-3.578-7.287-3.943 2.14-6.316 2.693-6.425z" class="cls-1"/>
        <path id="패스_591" d="M1294.231 637.981a8.138 8.138 0 0 1 16.271 0" class="cls-1"/>
        <ellipse id="타원_162" cx="1.476" cy="1.626" class="cls-2" rx="1.476" ry="1.626" transform="translate(1294.133 665.246)"/>
        <path id="패스_592" d="M1292.788 663.662s3.1-1.292 5.422 0" class="cls-1"/>
        <ellipse id="타원_163" cx="1.476" cy="1.626" class="cls-2" rx="1.476" ry="1.626" transform="translate(1308.593 665.246)"/>
        <path id="패스_593" d="M1307.58 663.662s3.1-1.292 5.422 0" class="cls-1"/>
        <path id="패스_594" d="M1297.4 678.168a9.268 9.268 0 0 0 10.909 0" class="cls-1"/>
        <path id="패스_595" d="M1287.55 665.867s.111 10.221 2.434 13.031 8.512 10.367 12.87 10.367" class="cls-1"/>
        <path id="패스_596" d="M1318.314 664.772s-.263 11.316-2.587 14.126-8.511 10.367-12.869 10.367" class="cls-1"/>
        <path id="패스_597" d="M1284.135 665.575s-2.18 2.482-1.127 5.147 1.164 3.8 2.676 4.307" class="cls-1"/>
        <path id="패스_598" d="M1321.378 665.575s2.18 2.482 1.127 5.147-1.164 3.8-2.676 4.307" class="cls-1"/>
        <path id="패스_599" d="M1292.2 681.525a35.746 35.746 0 0 1-.966 17.414" class="cls-1"/>
        <path id="패스_600" d="M1313.514 681.525a35.753 35.753 0 0 0 .967 17.414" class="cls-1"/>
        <path id="패스_601" d="M1304.525 673.5c0 .562-.746 1.018-1.667 1.018-.92 0-1.667-.456-1.667-1.018" class="cls-1"/>
        <ellipse id="타원_164" cx="6.263" cy="6.198" fill="#fff" stroke="#333" stroke-linecap="round" stroke-miterlimit="10" stroke-width="1.5px" rx="6.263" ry="6.198" transform="translate(1310.662 671.649)"/>
        <path id="선_154" d="M0 0L5.857 4.618" class="cls-1" transform="translate(1321.864 682.009)"/>
        <path id="패스_602" fill="#35ceb3" d="M1316.925 674.24s-1.923 2.587-1.925 4.2a1.97 1.97 0 0 0 1.9 2.194 1.9 1.9 0 0 0 1.954-2.072c-.004-1.801-1.929-4.322-1.929-4.322z"/>
        <path id="패스_603" d="M1287.79 675.537c.586-1.5 2.143-3.782 5.881-2.575 2.944.95 5.507 4.639 5.507 6.06 0 .743-.651.906-1.783.794" class="cls-5"/>
        <g id="그룹_2848">
            <path id="패스_604" d="M1285.232 702.114l-1.243-8.362 1.24-9.858 3.536-7.39.027-.058.052-.038c.609-.455 1.132-.576 1.556-.36a1.762 1.762 0 0 1 .756 1.276l1.3-2.532h.16c1.04 0 1.434.994 1.523 1.666a1.426 1.426 0 0 1 .955.66c.672 1.088.067 3.133-.158 3.8.369.315.622 1.221.191 4.046-.255 1.672-.651 3.321-.712 3.568v.357a21.036 21.036 0 0 0 .6 4.69c.917 3.947-1.151 9.055-1.318 9.458" class="cls-5"/>
            <path id="패스_605" d="M1291.156 677.324a20.3 20.3 0 0 0-3.906 11.386" class="cls-5"/>
            <path id="패스_606" d="M1294.869 681.039s-2.183-.084-2.67 10.135" class="cls-5"/>
            <path id="패스_607" d="M1294.039 676.764s-4.7 8.373-4.749 14.925" class="cls-5"/>
        </g>
    </g>
</svg>
