<svg xmlns="http://www.w3.org/2000/svg" width="56.813" height="70.7" viewBox="0 0 56.813 70.7">
    <defs>
        <style>
            .cls-1{fill:#35ceb3}.cls-2{fill:none;stroke:#333;stroke-linecap:round;stroke-miterlimit:10;stroke-width:1.5px}.cls-3{fill:#333}
        </style>
    </defs>
    <g id="icon" transform="translate(-1106.407 -629.285)">
        <g id="그룹_2845">
            <path id="패스_565" d="M1156.169 686.863a3.287 3.287 0 1 1-3.286-3.267 3.276 3.276 0 0 1 3.286 3.267z" class="cls-1"/>
            <path id="패스_566" d="M1152.869 680.8a.669.669 0 0 1-.67-.664v-2.7a.67.67 0 0 1 .67-.666.669.669 0 0 1 .67.666v2.7a.669.669 0 0 1-.67.664z" class="cls-1"/>
            <path id="패스_567" d="M1152.869 697.354a.67.67 0 0 1-.67-.666v-2.7a.67.67 0 0 1 .67-.666.67.67 0 0 1 .67.666v2.7a.669.669 0 0 1-.67.666z" class="cls-1"/>
            <rect id="사각형_2277" width="1.331" height="4.053" class="cls-1" rx=".525" transform="rotate(90 238.411 924.81)"/>
            <rect id="사각형_2278" width="1.331" height="4.053" class="cls-1" rx=".525" transform="rotate(90 230.113 916.485)"/>
            <path id="패스_568" d="M1157.323 682.638a.665.665 0 0 1 0-.942l1.919-1.907a.674.674 0 0 1 .947 0 .665.665 0 0 1 0 .941l-1.919 1.908a.676.676 0 0 1-.947 0z" class="cls-1"/>
            <path id="패스_569" d="M1145.549 694.34a.665.665 0 0 1 0-.941l1.919-1.908a.674.674 0 0 1 .947 0 .666.666 0 0 1 0 .942l-1.919 1.907a.674.674 0 0 1-.947 0z" class="cls-1"/>
            <path id="패스_570" d="M1157.323 691.492a.674.674 0 0 1 .947 0l1.918 1.908a.665.665 0 0 1 0 .941.676.676 0 0 1-.947 0l-1.918-1.908a.663.663 0 0 1 0-.941z" class="cls-1"/>
            <path id="패스_571" d="M1145.55 679.789a.674.674 0 0 1 .947 0l1.919 1.907a.667.667 0 0 1 0 .941.675.675 0 0 1-.948 0l-1.918-1.907a.663.663 0 0 1 0-.941z" class="cls-1"/>
        </g>
        <g id="그룹_2846">
            <path id="패스_572" d="M1126.761 649.483s.505 8.492-13.2 14.579" class="cls-2"/>
            <path id="패스_573" d="M1129.343 649.483s.266 2.173 3.3 4.878 7 5.614 8.146 8.575" class="cls-2"/>
            <path id="패스_574" d="M1129.851 639.817c.366.059-1.8 6.324-3.088 6.763s-6.432.621-11.359 5.958-4.593 11.387-5.149 11.524-3.26-7.174-.63-12.913 8.743-13.196 20.226-11.332z" class="cls-2"/>
            <path id="패스_575" d="M1133.2 640.291a12.517 12.517 0 0 1 8.651 7.385c2.482 6.215 1.778 13.416 1.3 14.476s0-7.348-5.334-11.478-7.243-3.584-7.317-3.949 2.147-6.325 2.7-6.434z" class="cls-2"/>
            <path id="패스_576" d="M1118.78 637.992a8.173 8.173 0 0 1 16.34 0" class="cls-2"/>
            <ellipse id="타원_160" cx="1.482" cy="1.628" class="cls-3" rx="1.482" ry="1.628" transform="translate(1118.682 665.296)"/>
            <path id="패스_577" d="M1117.331 663.709s3.111-1.294 5.445 0" class="cls-2"/>
            <ellipse id="타원_161" cx="1.482" cy="1.628" class="cls-3" rx="1.482" ry="1.628" transform="translate(1133.203 665.296)"/>
            <path id="패스_578" d="M1132.185 663.709s3.112-1.294 5.446 0" class="cls-2"/>
            <path id="패스_579" d="M1121.961 678.236a9.33 9.33 0 0 0 10.956 0" class="cls-2"/>
            <path id="패스_580" d="M1112.07 665.917s.111 10.235 2.445 13.05 8.548 10.381 12.924 10.381" class="cls-2"/>
            <path id="패스_581" d="M1142.965 664.82s-.264 11.332-2.6 14.147-8.548 10.381-12.923 10.381" class="cls-2"/>
            <path id="패스_582" d="M1108.641 665.625s-2.189 2.485-1.132 5.154 1.169 3.8 2.688 4.313" class="cls-2"/>
            <path id="패스_583" d="M1146.042 665.625s2.189 2.485 1.131 5.154-1.168 3.8-2.687 4.313" class="cls-2"/>
            <path id="패스_584" d="M1116.746 681.6a35.709 35.709 0 0 1-.971 17.438" class="cls-2"/>
            <path id="패스_585" d="M1138.145 681.6a35.7 35.7 0 0 0 .97 17.438" class="cls-2"/>
            <path id="패스_586" d="M1129.118 673.563c0 .563-.75 1.019-1.674 1.019-.925 0-1.675-.456-1.675-1.019" class="cls-2"/>
        </g>
    </g>
</svg>
