<svg xmlns="http://www.w3.org/2000/svg" width="64" height="70.699" viewBox="0 0 64 70.699">
    <defs>
        <style>
            .cls-1{fill:none;stroke:#333;stroke-linecap:round;stroke-miterlimit:10;stroke-width:1.5px}.cls-2{fill:#333}.cls-3{fill:#35ceb3}
        </style>
    </defs>
    <g id="icon" transform="translate(-1446.221 -629.285)">
        <g id="그룹_2850">
            <path id="패스_608" d="M1480.487 649.483s.5 8.492-13.08 14.579" class="cls-1"/>
            <path id="패스_609" d="M1483.046 649.483s.264 2.173 3.274 4.878 6.937 5.614 8.075 8.575" class="cls-1"/>
            <path id="패스_610" d="M1483.55 639.817c.362.059-1.79 6.324-3.061 6.763s-6.375.621-11.258 5.958-4.552 11.387-5.1 11.524-3.231-7.174-.624-12.913 8.661-13.196 20.043-11.332z" class="cls-1"/>
            <path id="패스_611" d="M1486.872 640.291a12.421 12.421 0 0 1 8.574 7.385c2.46 6.215 1.762 13.416 1.285 14.476s0-7.348-5.287-11.478-7.179-3.584-7.253-3.949 2.13-6.325 2.681-6.434z" class="cls-1"/>
            <path id="패스_612" d="M1472.577 637.992a8.1 8.1 0 0 1 16.195 0" class="cls-1"/>
            <ellipse id="타원_165" cx="1.469" cy="1.628" class="cls-2" rx="1.469" ry="1.628" transform="translate(1472.479 665.296)"/>
            <path id="패스_613" d="M1471.14 663.709s3.085-1.294 5.4 0" class="cls-1"/>
            <ellipse id="타원_166" cx="1.469" cy="1.628" class="cls-2" rx="1.469" ry="1.628" transform="translate(1486.872 665.296)"/>
            <path id="패스_614" d="M1485.863 663.709s3.084-1.294 5.4 0" class="cls-1"/>
            <path id="패스_615" d="M1475.73 678.236a9.182 9.182 0 0 0 10.858 0" class="cls-1"/>
            <path id="패스_616" d="M1465.927 665.917s.11 10.235 2.423 13.05 8.472 10.381 12.809 10.381" class="cls-1"/>
            <path id="패스_617" d="M1496.547 664.82s-.262 11.332-2.575 14.147-8.471 10.381-12.808 10.381" class="cls-1"/>
            <path id="패스_618" d="M1462.528 665.625s-2.169 2.485-1.121 5.154 1.158 3.8 2.663 4.313" class="cls-1"/>
            <path id="패스_619" d="M1499.6 665.625s2.169 2.485 1.121 5.154-1.158 3.8-2.663 4.313" class="cls-1"/>
            <path id="패스_620" d="M1470.561 681.6a36.005 36.005 0 0 1-.963 17.438" class="cls-1"/>
            <path id="패스_621" d="M1491.769 681.6a36 36 0 0 0 .963 17.438" class="cls-1"/>
            <path id="패스_622" d="M1482.823 673.563c0 .563-.743 1.019-1.659 1.019-.917 0-1.66-.456-1.66-1.019" class="cls-1"/>
        </g>
        <path id="패스_623" d="M1505.478 641.459c-.3 4.985.055 7.541-4.629 7.418 3.213.828 4.524 1.038 4.679 6.815.675-5.2 1.025-6.228 4.693-6.658-4.941-.101-4.356-2.556-4.743-7.575z" class="cls-3"/>
        <path id="패스_624" d="M1452.021 661.885c-.547 5.923-.228 8.979-5.8 8.651 3.794 1.111 4.433 1.512 5.307 8.3 1.005-6.17 1.462-7.375 5.845-7.744-5.878-.317-5.086-3.217-5.352-9.207z" class="cls-3"/>
    </g>
</svg>
