<svg width="36" height="36" viewBox="0 0 36 36" fill="none" xmlns="http://www.w3.org/2000/svg">
<path d="M32.9287 0C34.6162 0 36 1.37254 36 3.07129V19.125C36 19.7438 35.4938 20.25 34.875 20.25C34.2562 20.25 33.75 19.7438 33.75 19.125V3.07129C33.75 2.62129 33.3787 2.25 32.9287 2.25H3.07129C2.62129 2.25 2.25 2.62129 2.25 3.07129V26.1787C2.25 26.6287 2.62129 27 3.07129 27H20.25C20.8688 27 21.375 27.5062 21.375 28.125C21.375 28.7438 20.8688 29.25 20.25 29.25H14.625L14.6172 29.7363C14.5602 31.5318 14.1886 32.8251 13.7275 33.75H28.125C28.7438 33.75 29.25 34.2562 29.25 34.875C29.25 35.4938 28.7438 36 28.125 36H7.875C7.25625 36 6.75 35.4938 6.75 34.875C6.75 34.2562 7.25625 33.75 7.875 33.75H10.9365C11.3197 33.448 12.2983 32.3997 12.3711 29.5869L12.375 29.25H3.07129C1.38379 29.25 0 27.8775 0 26.1787V3.07129C0 1.38379 1.37254 0 3.07129 0H32.9287ZM31.5 33.75H31.4883C31.4901 33.75 31.4923 33.749 31.4941 33.749C31.4961 33.749 31.498 33.75 31.5 33.75ZM21.7012 19.4629C21.9712 19.1929 22.3651 19.0804 22.7363 19.1592L32.8613 21.4092C33.2662 21.4992 33.5809 21.8026 33.6934 22.1963C33.8059 22.59 33.6933 23.0171 33.4121 23.3096L31.9609 24.7617L35.6621 28.4629C36.1009 28.9016 36.1009 29.6101 35.6621 30.0488L32.2871 33.4238C32.0747 33.6473 31.7847 33.7478 31.4941 33.749C31.2037 33.7475 30.9247 33.6362 30.7012 33.4238L27 29.7227L25.5488 31.1738C25.2563 31.4663 24.8283 31.5788 24.4346 31.4551C24.041 31.3425 23.7374 31.0157 23.6475 30.6221L21.3975 20.4971C21.3189 20.126 21.4314 19.7328 21.7012 19.4629ZM25.4023 28.1367L26.2012 27.3379C26.4149 27.1129 26.7075 27.0117 27 27.0117V27C27.2925 27 27.5738 27.1124 27.7988 27.3262L31.5 31.0273L33.2891 29.2383L29.5879 25.5371C29.1491 25.0984 29.1491 24.3899 29.5879 23.9512L30.3867 23.1523L23.9854 21.7354L25.4023 28.1367ZM18 20.25C18.6188 20.25 19.125 20.7562 19.125 21.375C19.125 21.9938 18.6188 22.5 18 22.5H6.75C6.13125 22.5 5.625 21.9938 5.625 21.375C5.625 20.7562 6.13125 20.25 6.75 20.25H18ZM9 18H8.98828C8.99008 18 8.99234 17.999 8.99414 17.999C8.99609 17.999 8.99805 18 9 18ZM11.4746 11.7002C11.8458 11.2053 12.5548 11.1037 13.0498 11.4746C13.5447 11.8458 13.6464 12.5548 13.2754 13.0498L9.90039 17.5498C9.85065 17.6145 9.7939 17.6714 9.73438 17.7227C9.59556 17.8493 9.43032 17.9293 9.25488 17.9688C9.25127 17.9696 9.24776 17.9709 9.24414 17.9717C9.21794 17.9773 9.19157 17.9815 9.16504 17.9854C9.14452 17.9885 9.12415 17.9922 9.10352 17.9941C9.0863 17.9957 9.06903 17.9962 9.05176 17.9971C9.0345 17.9979 9.01727 18 9 18C8.99837 18 8.99675 17.999 8.99512 17.999H8.99414C8.70375 17.9975 8.42467 17.8861 8.20117 17.6738L5.95117 15.4238C5.5125 14.9852 5.51264 14.2767 5.95117 13.8379C6.38992 13.3991 7.09836 13.3991 7.53711 13.8379L8.87012 15.1709L11.4746 11.7002ZM19.125 14.625C19.7438 14.625 20.25 15.1312 20.25 15.75C20.25 16.3688 19.7438 16.875 19.125 16.875H15.75C15.1312 16.875 14.625 16.3688 14.625 15.75C14.625 15.1312 15.1312 14.625 15.75 14.625H19.125ZM29.25 14.625C29.8688 14.625 30.375 15.1312 30.375 15.75C30.375 16.3688 29.8688 16.875 29.25 16.875H22.5C21.8812 16.875 21.375 16.3688 21.375 15.75C21.375 15.1312 21.8812 14.625 22.5 14.625H29.25ZM9 11.25H8.98828C8.99008 11.25 8.99234 11.249 8.99414 11.249C8.99609 11.249 8.99805 11.25 9 11.25ZM11.4746 4.9502C11.8458 4.45531 12.5548 4.35366 13.0498 4.72461C13.5447 5.09578 13.6464 5.80482 13.2754 6.2998L9.90039 10.7998C9.85065 10.8645 9.7939 10.9214 9.73438 10.9727C9.59556 11.0993 9.43032 11.1793 9.25488 11.2188C9.25127 11.2196 9.24776 11.2209 9.24414 11.2217C9.21794 11.2273 9.19157 11.2315 9.16504 11.2354C9.14452 11.2385 9.12415 11.2422 9.10352 11.2441C9.0863 11.2457 9.06903 11.2462 9.05176 11.2471C9.0345 11.2479 9.01727 11.25 9 11.25C8.99837 11.25 8.99675 11.249 8.99512 11.249H8.99414C8.70375 11.2475 8.42467 11.1361 8.20117 10.9238L5.95117 8.67383C5.5125 8.23515 5.51264 7.52666 5.95117 7.08789C6.38992 6.64914 7.09836 6.64915 7.53711 7.08789L8.87012 8.4209L11.4746 4.9502ZM22.5 7.875C23.1188 7.875 23.625 8.38125 23.625 9C23.625 9.61875 23.1188 10.125 22.5 10.125H15.75C15.1312 10.125 14.625 9.61875 14.625 9C14.625 8.38125 15.1312 7.875 15.75 7.875H22.5ZM29.25 7.875C29.8688 7.875 30.375 8.38125 30.375 9C30.375 9.61875 29.8688 10.125 29.25 10.125H25.875C25.2562 10.125 24.75 9.61875 24.75 9C24.75 8.38125 25.2562 7.875 25.875 7.875H29.25Z" fill="#FF7F32"/>
</svg>
