<svg width="54" height="60" viewBox="0 0 54 60" fill="none" xmlns="http://www.w3.org/2000/svg">
<g clip-path="url(#clip0_194_16337)">
<path d="M53.0093 0.984375V27.3712H0.992188V0.984375H53.0093ZM23.0607 18.7727L30.9408 14.1742L23.0607 9.57562V18.7727Z" fill="#B5E4FA"/>
<path d="M52.3038 56.5818V59.0125H38.3209V56.6329C38.3062 56.1731 38.5706 55.7497 38.9819 55.538L43.5277 53.3629C43.212 53.0198 42.8815 52.5818 42.529 52.0563C42.0883 51.3994 41.8607 50.6183 41.8607 49.83V48.3994C41.8607 44.2315 48.7199 44.2315 48.7199 48.3994V49.83C48.7199 50.6183 48.4923 51.3921 48.0516 52.049C47.7065 52.5672 47.3833 53.0052 47.0675 53.3483L51.6428 55.5526C52.032 55.7497 52.2891 56.1439 52.3038 56.5745V56.5818Z" fill="#B5E4FA"/>
<path d="M34.7413 56.5818V59.0125H20.7584V56.6329C20.7437 56.1731 21.0008 55.7497 21.4194 55.538L25.9726 53.3629C25.6568 53.0198 25.3263 52.5818 24.9738 52.0563C24.5332 51.3994 24.2982 50.6183 24.2982 49.83V48.3994C24.2982 44.2315 31.1574 44.2315 31.1574 48.3994V49.83C31.1574 50.6183 30.9298 51.3921 30.4891 52.049C30.144 52.5672 29.8208 53.0052 29.505 53.3483L34.0803 55.5526C34.4769 55.7497 34.7266 56.1439 34.7413 56.5745V56.5818Z" fill="#B5E4FA"/>
<path d="M17.1704 56.6334V59.013H3.1875V56.5823C3.20219 56.1444 3.45188 55.7502 3.84845 55.5604L8.42373 53.3561C8.10794 53.0057 7.78481 52.575 7.43964 52.0568C7.00635 51.3999 6.77869 50.6261 6.77869 49.8378V48.4072C6.77869 44.2393 13.6379 44.2393 13.6379 48.4072V49.8378C13.6379 50.6261 13.4029 51.4072 12.9623 52.0641C12.6171 52.5896 12.2866 53.0203 11.9635 53.3707L16.5168 55.5458C16.9354 55.7502 17.1924 56.1809 17.1777 56.6407L17.1704 56.6334Z" fill="#B5E4FA"/>
<path d="M52.3038 46.1604V43.7298C52.2891 43.2918 52.0394 42.8976 51.6428 42.7006L47.0675 40.4962C47.3833 40.1458 47.7065 39.7152 48.0516 39.1969C48.4849 38.54 48.7199 37.7663 48.7199 36.9779V35.5473C48.7199 31.3794 41.8607 31.3794 41.8607 35.5473V36.9779C41.8607 37.7663 42.0957 38.5473 42.529 39.2042C42.8815 39.7298 43.212 40.1604 43.5278 40.5108L38.9819 42.686C38.5633 42.8903 38.3062 43.3137 38.3209 43.7736V46.1531H34.7444V43.7225C34.7297 43.2845 34.48 42.8903 34.0835 42.6933L29.5082 40.4889C29.824 40.1385 30.1471 39.7079 30.4923 39.1896C30.9329 38.5327 31.1606 37.759 31.1606 36.9706V35.54C31.1606 31.3721 24.3013 31.3721 24.3013 35.54V36.9706C24.3013 37.759 24.5363 38.54 24.977 39.1969C25.3295 39.7225 25.66 40.1531 25.9757 40.5035L21.4225 42.6787C21.0039 42.883 20.7469 43.3064 20.7616 43.7663V46.1458H17.1777V43.7663C17.1924 43.3064 16.9354 42.883 16.5168 42.6787L11.9635 40.5035C12.2793 40.1531 12.6098 39.7225 12.9623 39.1969C13.4029 38.54 13.6379 37.759 13.6379 36.9706V35.54C13.6379 31.3721 6.77869 31.3721 6.77869 35.54V36.9706C6.77869 37.759 7.00635 38.5327 7.43964 39.1896C7.78481 39.7152 8.10794 40.1458 8.42373 40.4889L3.84845 42.6933C3.45188 42.8903 3.20219 43.2845 3.1875 43.7225V46.1531" stroke="#0D71BA" stroke-width="2.7" stroke-linecap="square" stroke-linejoin="round"/>
<path d="M53.0093 0.984375H0.992188V27.3712H53.0093V0.984375Z" stroke="#0D71BA" stroke-width="2.7" stroke-linecap="square" stroke-linejoin="round"/>
<path d="M23.0625 18.7752L30.9426 14.1767L23.0625 9.57812V18.7752Z" stroke="#0D71BA" stroke-width="2.7" stroke-linecap="square" stroke-linejoin="round"/>
<path d="M34.7413 59.013V56.5823C34.7266 56.1444 34.4769 55.7502 34.0803 55.5605L29.505 53.3561C29.8208 53.0057 30.144 52.575 30.4891 52.0568C30.9298 51.3999 31.1574 50.6261 31.1574 49.8378V48.4072C31.1574 44.2393 24.2982 44.2393 24.2982 48.4072V49.8378C24.2982 50.6261 24.5332 51.4072 24.9738 52.0641C25.3263 52.5896 25.6568 53.0203 25.9726 53.3707L21.4194 55.5458C21.0008 55.7502 20.7437 56.1809 20.7584 56.6407V59.0203" stroke="#0D71BA" stroke-width="2.7" stroke-linecap="square" stroke-linejoin="round"/>
<path d="M38.3131 59.013H52.296V56.5823C52.2813 56.1444 52.0316 55.7502 51.635 55.5605L47.0597 53.3561C47.3755 53.0057 47.6987 52.575 48.0438 52.0568C48.4771 51.3999 48.7121 50.6261 48.7121 49.8378V48.4072C48.7121 44.2393 41.8529 44.2393 41.8529 48.4072V49.8378C41.8529 50.6261 42.0879 51.4072 42.5212 52.0641C42.8737 52.5896 43.2042 53.0203 43.52 53.3707L38.9741 55.5458C38.5554 55.7502 38.2984 56.1809 38.3131 56.6407V59.0203V59.013Z" stroke="#0D71BA" stroke-width="2.7" stroke-linecap="square" stroke-linejoin="round"/>
<path d="M38.3109 59.0156H34.7344" stroke="#0D71BA" stroke-width="2.7" stroke-linecap="square" stroke-linejoin="round"/>
<path d="M20.7578 59.0156H34.7407" stroke="#0D71BA" stroke-width="2.7" stroke-linecap="square" stroke-linejoin="round"/>
<path d="M20.7557 59.0156H17.1719" stroke="#0D71BA" stroke-width="2.7" stroke-linecap="square" stroke-linejoin="round"/>
<path d="M17.1699 59.0125V56.6329C17.1846 56.1731 16.9275 55.7497 16.5089 55.538L11.9557 53.3629C12.2715 53.0198 12.602 52.5818 12.9545 52.0563C13.3951 51.3994 13.6301 50.6183 13.6301 49.83V48.3994C13.6301 44.2315 6.77088 44.2315 6.77088 48.3994V49.83C6.77088 50.6183 6.99854 51.3921 7.43183 52.049C7.77699 52.5672 8.10013 53.0052 8.41592 53.3483L3.84064 55.5526C3.44407 55.7497 3.19438 56.1439 3.17969 56.5745V59.0052H17.1626L17.1699 59.0125Z" stroke="#0D71BA" stroke-width="2.7" stroke-linecap="square" stroke-linejoin="round"/>
</g>
<defs>
<clipPath id="clip0_194_16337">
<rect width="54" height="60" fill="white"/>
</clipPath>
</defs>
</svg>
