<svg width="36" height="36" viewBox="0 0 36 36" fill="none" xmlns="http://www.w3.org/2000/svg">
<path d="M32.9287 0C34.6162 0 36 1.37254 36 3.07129V26.1787C36 27.8662 34.6275 29.25 32.9287 29.25H23.625C23.625 32.3608 24.693 33.4693 25.0576 33.75H28.125C28.7438 33.75 29.25 34.2562 29.25 34.875C29.25 35.4938 28.7438 36 28.125 36H7.875C7.25625 36 6.75 35.4938 6.75 34.875C6.75 34.2562 7.25625 33.75 7.875 33.75H10.9365C11.3346 33.4362 12.375 32.3169 12.375 29.25H3.07129C1.38379 29.25 0 27.8775 0 26.1787V3.07129C0 1.38379 1.37254 0 3.07129 0H32.9287ZM14.625 29.25C14.625 31.301 14.2292 32.7437 13.7275 33.75H22.2695C21.7691 32.7443 21.375 31.3018 21.375 29.25H14.625ZM3.07129 2.25C2.62129 2.25 2.25 2.62129 2.25 3.07129V26.1787C2.25 26.6287 2.62129 27 3.07129 27H32.9287C33.3787 27 33.75 26.6287 33.75 26.1787V3.07129C33.75 2.62129 33.3787 2.25 32.9287 2.25H3.07129ZM18 4.5C23.58 4.5 28.125 9.045 28.125 14.625C28.125 20.205 23.58 24.75 18 24.75C12.42 24.75 7.875 20.205 7.875 14.625C7.875 9.045 12.42 4.5 18 4.5ZM18 6.75C13.6575 6.75 10.125 10.2825 10.125 14.625C10.125 18.9675 13.6575 22.5 18 22.5C22.3425 22.5 25.875 18.9675 25.875 14.625C25.875 10.2825 22.3425 6.75 18 6.75ZM15.2217 9.13477C15.5928 8.94374 16.0313 8.96651 16.3799 9.19141L23.1299 13.6914C23.4449 13.9052 23.6367 14.2537 23.6367 14.625C23.6367 14.9962 23.4449 15.3561 23.1299 15.5586L16.3799 20.0586C16.1888 20.1822 15.9753 20.2499 15.7617 20.25H15.75C15.5702 20.25 15.3903 20.2051 15.2217 20.1152C14.8504 19.924 14.625 19.5412 14.625 19.125V10.125C14.625 9.70875 14.8504 9.32602 15.2217 9.13477ZM16.875 17.0215L20.4746 14.625L16.875 12.2285V17.0215Z" fill="#FF7F32"/>
</svg>
