<svg width="36" height="36" viewBox="0 0 36 36" fill="none" xmlns="http://www.w3.org/2000/svg">
<path d="M32.916 0C34.5242 0 35.9863 1.31634 35.9863 2.76758V21.375C35.9863 21.9937 35.4798 22.5 34.8613 22.5C34.243 22.4998 33.7374 21.9936 33.7373 21.375V11.25H2.24902V32.625C2.24909 33.2999 2.57555 33.75 3.07031 33.75H21.3672C21.9855 33.7502 22.4912 34.2564 22.4912 34.875C22.4911 35.4935 21.9854 35.9998 21.3672 36H3.07031C1.31604 36 9.1426e-05 34.5486 0 32.625V2.76758C0 1.31634 1.46217 0 3.07031 0H32.916ZM21.7041 21.7012C21.974 21.4312 22.3789 21.3075 22.75 21.3975L32.6465 23.6807C33.0401 23.7707 33.3661 24.075 33.4785 24.4688C33.5909 24.8625 33.4784 25.2901 33.1973 25.5713L31.7129 27.0557L35.6719 31.0156C36.1104 31.4543 36.1103 32.1638 35.6719 32.6025L32.624 35.6514C32.3991 35.8763 32.1176 35.9775 31.8252 35.9775L31.8145 36C31.5221 36 31.2405 35.8875 31.0156 35.6738L27.0576 31.7139L25.5723 33.1982C25.2799 33.4907 24.8643 33.592 24.4707 33.4795C24.0772 33.367 23.7736 33.0524 23.6836 32.6475L21.4004 22.7471C21.3106 22.3647 21.4231 21.9711 21.7041 21.7012ZM25.415 30.1611L26.2695 29.3174C26.4929 29.0939 26.7722 28.9926 27.0625 28.9912C27.353 28.9926 27.6319 29.105 27.8555 29.3174L31.8145 33.2773L33.2646 31.8262L29.3066 27.8662C28.8681 27.4275 28.8681 26.719 29.3066 26.2803L30.1494 25.4248L23.9873 23.9961L25.415 30.1611ZM11.2451 23.625C11.8636 23.625 12.3701 24.1313 12.3701 24.75V30.375C12.37 30.9937 11.8636 31.5 11.2451 31.5H5.62305C5.00459 31.5 4.49815 30.9937 4.49805 30.375V24.75C4.49805 24.1313 5.00453 23.625 5.62305 23.625H11.2451ZM19.1172 23.625C19.7357 23.625 20.2422 24.1313 20.2422 24.75C20.2421 25.3687 19.7357 25.875 19.1172 25.875H16.8682V29.25H20.2422C20.8607 29.25 21.3672 29.7563 21.3672 30.375C21.3671 30.9937 20.8606 31.5 20.2422 31.5H15.7441C15.1257 31.5 14.6192 30.9937 14.6191 30.375V24.75C14.6191 24.1313 15.1256 23.625 15.7441 23.625H19.1172ZM6.74707 29.25H10.1211V25.875H6.74707V29.25ZM11.2451 13.5C11.8636 13.5 12.3701 14.0063 12.3701 14.625V20.25C12.37 20.8687 11.8636 21.375 11.2451 21.375H5.62305C5.00457 21.375 4.49811 20.8687 4.49805 20.25V14.625C4.49805 14.0063 5.00453 13.5 5.62305 13.5H11.2451ZM21.3672 13.5C21.9855 13.5002 22.4912 14.0064 22.4912 14.625V20.25C22.4911 20.8686 21.9855 21.3748 21.3672 21.375H15.7441C15.1257 21.375 14.6192 20.8687 14.6191 20.25V14.625C14.6191 14.0063 15.1256 13.5 15.7441 13.5H21.3672ZM30.3633 18C30.9818 18 31.4883 18.5063 31.4883 19.125C31.4882 19.7437 30.9818 20.25 30.3633 20.25H25.8652C25.2468 20.25 24.7403 19.7437 24.7402 19.125C24.7402 18.5063 25.2467 18 25.8652 18H30.3633ZM6.74707 19.125H10.1211V15.75H6.74707V19.125ZM16.8682 19.125H20.2422V15.75H16.8682V19.125ZM30.3633 13.5C30.9818 13.5 31.4883 14.0063 31.4883 14.625C31.4882 15.2437 30.9818 15.75 30.3633 15.75H25.8652C25.2467 15.75 24.7403 15.2437 24.7402 14.625C24.7402 14.0063 25.2467 13.5 25.8652 13.5H30.3633ZM3.07031 2.25C2.58722 2.25 2.27207 2.64294 2.24902 2.77832V9H33.7373V2.76758C33.7148 2.64383 33.3996 2.25 32.916 2.25H3.07031ZM6.74707 4.5C7.36559 4.5 7.87207 5.00625 7.87207 5.625C7.87205 6.24373 7.36557 6.75 6.74707 6.75H5.62305C5.00454 6.75 4.49807 6.24373 4.49805 5.625C4.49805 5.00625 5.00453 4.5 5.62305 4.5H6.74707ZM11.2461 4.5C11.8644 4.50025 12.3701 5.00641 12.3701 5.625C12.3701 6.24358 11.8644 6.74975 11.2461 6.75H10.1211C9.50259 6.75 8.99611 6.24373 8.99609 5.625C8.99609 5.00625 9.50258 4.5 10.1211 4.5H11.2461ZM15.7441 4.5C16.3625 4.50013 16.8682 5.00633 16.8682 5.625C16.8681 6.24365 16.3625 6.74987 15.7441 6.75H14.6191C14.0007 6.7499 13.4951 6.24367 13.4951 5.625C13.4951 5.00632 14.0007 4.5001 14.6191 4.5H15.7441Z" fill="#FF7F32"/>
</svg>
