<svg width="36" height="36" viewBox="0 0 36 36" fill="none" xmlns="http://www.w3.org/2000/svg">
<path d="M31.5 28.125C33.3562 28.125 34.875 29.6438 34.875 31.5V33.75C35.4938 33.75 36 34.2562 36 34.875C36 35.4938 35.4938 36 34.875 36H1.125C0.50625 36 0 35.4938 0 34.875C0 34.2562 0.50625 33.75 1.125 33.75V31.5C1.125 29.6438 2.64375 28.125 4.5 28.125C6.35625 28.125 7.875 29.6438 7.875 31.5V33.75H10.125V31.5C10.125 29.6438 11.6438 28.125 13.5 28.125C15.3562 28.125 16.875 29.6438 16.875 31.5V33.75H19.125V31.5C19.125 29.6438 20.6438 28.125 22.5 28.125C24.3562 28.125 25.875 29.6438 25.875 31.5V33.75H28.125V31.5C28.125 29.6438 29.6438 28.125 31.5 28.125ZM4.5 30.375C3.88125 30.375 3.375 30.8812 3.375 31.5V33.75H5.625V31.5C5.625 30.8812 5.11875 30.375 4.5 30.375ZM13.5 30.375C12.8812 30.375 12.375 30.8812 12.375 31.5V33.75H14.625V31.5C14.625 30.8812 14.1188 30.375 13.5 30.375ZM22.5 30.375C21.8812 30.375 21.375 30.8812 21.375 31.5V33.75H23.625V31.5C23.625 30.8812 23.1188 30.375 22.5 30.375ZM31.5 30.375C30.8812 30.375 30.375 30.8812 30.375 31.5V33.75H32.625V31.5C32.625 30.8812 32.1188 30.375 31.5 30.375ZM27 19.125C28.8562 19.125 30.375 20.6438 30.375 22.5V24.75H31.5C32.1188 24.75 32.625 25.2562 32.625 25.875C32.625 26.4938 32.1188 27 31.5 27H4.5C3.88125 27 3.375 26.4938 3.375 25.875C3.375 25.2562 3.88125 24.75 4.5 24.75H5.625V22.5C5.625 20.6438 7.14375 19.125 9 19.125C10.8562 19.125 12.375 20.6438 12.375 22.5V24.75H14.625V22.5C14.625 20.6438 16.1438 19.125 18 19.125C19.8562 19.125 21.375 20.6438 21.375 22.5V24.75H23.625V22.5C23.625 20.6438 25.1438 19.125 27 19.125ZM9 21.375C8.38125 21.375 7.875 21.8812 7.875 22.5V24.75H10.125V22.5C10.125 21.8812 9.61875 21.375 9 21.375ZM18 21.375C17.3812 21.375 16.875 21.8812 16.875 22.5V24.75H19.125V22.5C19.125 21.8812 18.6188 21.375 18 21.375ZM27 21.375C26.3812 21.375 25.875 21.8812 25.875 22.5V24.75H28.125V22.5C28.125 21.8812 27.6188 21.375 27 21.375ZM34.875 0C35.4938 0 36 0.50625 36 1.125V21.375C36 21.9938 35.4938 22.5 34.875 22.5H32.625C32.0062 22.5 31.5 21.9938 31.5 21.375C31.5 20.7562 32.0062 20.25 32.625 20.25H33.75V2.25H2.25V20.25H3.375C3.99375 20.25 4.5 20.7562 4.5 21.375C4.5 21.9938 3.99375 22.5 3.375 22.5H1.125C0.50625 22.5 0 21.9938 0 21.375V1.125C0 0.50625 0.50625 0 1.125 0H34.875ZM14.3213 4.69141C14.8386 4.41024 15.4572 4.43234 15.9521 4.74707L24.0303 9.93359C24.4802 10.2261 24.75 10.7213 24.75 11.25C24.75 11.7787 24.4802 12.2739 24.0303 12.5664L15.9521 17.7529C15.6935 17.9215 15.3895 18 15.0859 18C14.8273 17.9999 14.5574 17.9323 14.3213 17.8086C13.8151 17.5274 13.5001 17.0101 13.5 16.4365V6.06348C13.5001 5.48986 13.8151 4.97262 14.3213 4.69141ZM15.75 15.1992L21.915 11.25L15.75 7.30078V15.1992Z" fill="#FF7F32"/>
</svg>
