<svg width="57" height="60" viewBox="0 0 57 60" fill="none" xmlns="http://www.w3.org/2000/svg">
<g clip-path="url(#clip0_194_16291)">
<path d="M5.32031 38.2259V1.07176C5.32031 0.975468 5.39656 0.898438 5.49187 0.898438H49.5873C51.5125 0.898438 53.0755 2.48397 53.0755 4.4354V31.7554" stroke="#0071BC" stroke-width="2.8" stroke-linejoin="round"/>
<path d="M39.0325 47.3867H1.06218C0.966871 47.3867 0.890625 47.3097 0.890625 47.2134V38.3999C0.890625 38.3036 0.966871 38.2266 1.06218 38.2266H35.0042C36.599 40.9547 37.8062 43.7342 39.0325 47.3803V47.3867Z" fill="#B1E1FA" stroke="#0071BC" stroke-width="2.8" stroke-linejoin="round"/>
<path d="M28.1562 42.8984H30.2339" stroke="#0071BC" stroke-width="2.8" stroke-linecap="round" stroke-linejoin="round"/>
<path d="M14.5156 11.1597L16.479 13.6696C16.5488 13.7594 16.6886 13.753 16.7522 13.6567L22.5595 4.80469" stroke="#0071BC" stroke-width="2.8" stroke-linejoin="round"/>
<path d="M28.1562 9.46094H47.008" stroke="#0071BC" stroke-width="2.8" stroke-miterlimit="10"/>
<path d="M28.1562 14.2812H35.3297" stroke="#0071BC" stroke-width="2.8" stroke-miterlimit="10"/>
<path d="M44.0234 27.4292C44.0552 25.5612 48.236 25.7217 48.2678 27.6218V29.3742C48.2678 29.5219 48.4457 29.5989 48.5537 29.4962C49.4623 28.6488 52.2071 28.9762 52.2071 30.4783V32.1858" stroke="#0071BC" stroke-width="2.8" stroke-linecap="round" stroke-linejoin="round"/>
<path d="M52.2031 36.1892V32.1836C52.2031 32.113 52.2476 32.0488 52.3111 32.0231C52.578 31.9076 52.8321 31.8177 53.0672 31.7535C53.9949 31.5032 54.7192 31.6637 55.3991 32.633C56.5491 34.2634 56.1107 40.0985 55.3927 45.3237C55.0623 47.6988 53.817 48.6681 53.5374 49.907C53.3087 50.934 53.2451 52.4875 53.2324 53.001C53.2324 53.0973 53.1562 53.1679 53.0609 53.1679" stroke="#0071BC" stroke-width="2.8" stroke-linecap="round" stroke-linejoin="round"/>
<path d="M44.0216 31.5554V19.237C44.0216 16.7335 39.5167 16.7335 39.5167 19.237V35.9461C39.5167 36.113 39.3007 36.1836 39.2054 36.0488C37.6678 33.8406 36.3462 32.0689 34.4591 30.8814C32.9914 29.957 31.0662 32.223 32.0065 33.7122C33.1566 35.2913 34.1351 36.7549 34.9992 38.2313" stroke="#0071BC" stroke-width="2.8" stroke-linecap="round" stroke-linejoin="round"/>
<path d="M39.0312 47.3828C39.2981 48.1788 39.565 49.0197 39.8382 49.912C40.1686 50.9776 40.194 52.4925 40.194 52.9996C40.194 53.0959 40.2702 53.1729 40.3655 53.1729" stroke="#0071BC" stroke-width="2.8" stroke-linecap="round" stroke-linejoin="round"/>
<path d="M48.2656 30.1406V34.0114" stroke="#0071BC" stroke-width="2.8" stroke-linecap="round" stroke-linejoin="round"/>
<path d="M38.1857 53.1719H55.1059C55.2012 53.1719 55.2775 53.2489 55.2775 53.3452V58.9299C55.2775 59.0262 55.2012 59.1032 55.1059 59.1032H38.1794C38.0841 59.1032 38.0078 59.0262 38.0078 58.9299V53.3516C38.0078 53.2553 38.0841 53.1783 38.1794 53.1783L38.1857 53.1719Z" fill="#B1E1FA" stroke="#0071BC" stroke-width="2.8" stroke-miterlimit="10"/>
<path d="M22.3913 12.5909V17.3539C22.3913 17.4502 22.315 17.5272 22.2197 17.5272H11.8122C11.7169 17.5272 11.6406 17.4502 11.6406 17.3539V7.06394C11.6406 6.96766 11.7169 6.89062 11.8122 6.89062H17.1684" stroke="#0071BC" stroke-width="2.8" stroke-linejoin="round"/>
<path d="M22.2134 22.9453H11.8122C11.7174 22.9453 11.6406 23.0229 11.6406 23.1186V33.2994C11.6406 33.3952 11.7174 33.4728 11.8122 33.4728H22.2134C22.3081 33.4728 22.3849 33.3952 22.3849 33.2994V23.1186C22.3849 23.0229 22.3081 22.9453 22.2134 22.9453Z" stroke="#0071BC" stroke-width="2.8" stroke-linejoin="round"/>
</g>
<defs>
<clipPath id="clip0_194_16291">
<rect width="57" height="60" fill="white"/>
</clipPath>
</defs>
</svg>
