<svg width="36" height="36" viewBox="0 0 36 36" fill="none" xmlns="http://www.w3.org/2000/svg">
<path d="M13.5 0C14.1185 8.89164e-05 14.6248 0.505695 14.625 1.12402C14.625 1.74252 14.1187 2.24893 13.5 2.24902H3.9375C3.00386 2.24902 2.25016 2.94618 2.25 3.80078V4.50977H13.5C14.1185 4.50985 14.6247 5.0155 14.625 5.63379C14.625 6.25229 14.1187 6.7587 13.5 6.75879H2.25V29.252H3.54785C4.0861 26.4714 5.37424 23.6292 7.53711 23.6289H7.83008C8.70726 23.6289 8.70743 23.6285 9.22461 22.9541C9.59585 22.4593 10.3048 22.3579 10.7998 22.7402C11.2948 23.1114 11.3961 23.8196 11.0137 24.3145C9.86624 25.8327 9.12374 25.8999 7.80762 25.8887H7.52637C7.20067 25.8887 6.3372 27.0325 5.8418 29.252H21.1611C20.6662 27.0255 19.8 25.8782 19.4736 25.8779H19.1924C17.8763 25.8892 17.1336 25.8216 15.9863 24.3037C15.6151 23.8089 15.7052 23.0996 16.2002 22.7285C16.6951 22.3578 17.4032 22.4479 17.7744 22.9424C18.2919 23.6284 18.2924 23.6289 19.1699 23.6289H19.4619C21.6249 23.6289 22.9129 26.4713 23.4512 29.252H24.75V21.3789C24.7502 20.7605 25.2564 20.2549 25.875 20.2549C26.4935 20.2551 26.9998 20.7606 27 21.3789V32.1982C27 34.29 25.2336 35.9999 23.0625 36H3.9375C1.76628 36 0 34.3013 0 32.1982V3.80078C0.000151435 1.70907 1.76637 0 3.9375 0H13.5ZM2.25 32.1982C2.25 33.053 3.00376 33.75 3.9375 33.75H23.0625C23.9961 33.7499 24.75 33.0529 24.75 32.1982V31.501H13.6514C13.6018 31.5077 13.5514 31.5127 13.5 31.5127V31.501H2.25V32.1982ZM13.5 10.1328C14.5577 10.1329 18 10.5268 18 15.5986C18 19.4673 16.0199 22.5038 13.5 22.5039C10.98 22.5039 9.00001 19.4674 9 15.5986C9 10.5265 12.4425 10.1328 13.5 10.1328ZM13.5 12.3818C12.8813 12.3818 11.25 12.3822 11.25 15.5986C11.25 18.264 12.4425 20.2549 13.5 20.2549C14.5574 20.2547 15.75 18.2639 15.75 15.5986C15.75 12.3824 14.1189 12.3818 13.5 12.3818ZM33.75 0.0107422C34.9873 0.0109517 36 1.02376 36 2.26074V13.1582C36 14.5977 34.8291 15.7559 33.4004 15.7559H28.5186L23.1973 20.0068C22.9948 20.1642 22.7474 20.2548 22.5 20.2549C22.3313 20.2549 22.1619 20.2213 22.0156 20.1426C21.622 19.9514 21.375 19.5572 21.375 19.1299V15.7559H20.25C19.6314 15.7559 19.1252 15.2502 19.125 14.6318C19.125 14.0133 19.6313 13.5068 20.25 13.5068H22.5C23.1186 13.507 23.625 14.0134 23.625 14.6318V16.791L27.4268 13.7539C27.6293 13.5965 27.8775 13.5068 28.125 13.5068H33.4004C33.5916 13.5068 33.75 13.3494 33.75 13.1582V2.26074H18V9.00781C18 9.62631 17.4937 10.1327 16.875 10.1328C16.2563 10.1328 15.75 9.62637 15.75 9.00781V2.26074C15.75 1.02363 16.7625 0.0107422 18 0.0107422H33.75ZM30.375 9.00781C30.9936 9.00799 31.5 9.51437 31.5 10.1328C31.5 10.7513 30.9936 11.2576 30.375 11.2578H21.375C20.7563 11.2578 20.25 10.7514 20.25 10.1328C20.25 9.51426 20.7563 9.00781 21.375 9.00781H30.375ZM30.375 4.50977C30.9934 4.50994 31.4997 5.01555 31.5 5.63379C31.5 6.25223 30.9936 6.75861 30.375 6.75879H21.375C20.7563 6.75879 20.25 6.25234 20.25 5.63379C20.2503 5.01544 20.7564 4.50977 21.375 4.50977H30.375Z" fill="#FF7F32"/>
</svg>
